<?xml version="1.0" encoding="UTF-8" standalone="no"?>
<!-- Created with Inkscape (http://www.inkscape.org/) -->

<svg
   version="1.1"
   id="svg1"
   width="720"
   height="424"
   viewBox="0 0 720 424"
   sodipodi:docname="taxi1.svg"
   inkscape:version="1.4.2 (f4327f4, 2025-05-13)"
   xmlns:inkscape="http://www.inkscape.org/namespaces/inkscape"
   xmlns:sodipodi="http://sodipodi.sourceforge.net/DTD/sodipodi-0.dtd"
   xmlns="http://www.w3.org/2000/svg"
   xmlns:svg="http://www.w3.org/2000/svg">
  <defs
     id="defs1">
    <clipPath
       clipPathUnits="userSpaceOnUse"
       id="clipPath1">
      <path
         d="M 0,0 H 612 V 792 H 0 Z"
         transform="matrix(10,0,0,10,0,2.5000001e-5)"
         id="path1" />
    </clipPath>
    <clipPath
       clipPathUnits="userSpaceOnUse"
       id="clipPath2">
      <path
         d="m 337.914,2330.88 h 5311.69 V 5501.09 H 337.914 Z"
         transform="translate(0,2.5000001e-5)"
         id="path2" />
    </clipPath>
    <clipPath
       clipPathUnits="userSpaceOnUse"
       id="clipPath3">
      <path
         d="M 0,0 H 612 V 792 H 0 Z"
         transform="matrix(1.3333333,0,0,-1.3333333,-36,734.66667)"
         id="path3" />
    </clipPath>
    <clipPath
       clipPathUnits="userSpaceOnUse"
       id="clipPath4">
      <path
         d="m 241.793,2325.11 h 5466.41 V 5584.9 H 241.793 Z"
         transform="translate(0,2.5000001e-5)"
         id="path4" />
    </clipPath>
    <clipPath
       clipPathUnits="userSpaceOnUse"
       id="clipPath5">
      <path
         d="m 241.793,2325.11 h 5466.41 V 5584.9 H 241.793 Z"
         transform="translate(0,2.5000001e-5)"
         id="path5" />
    </clipPath>
    <clipPath
       clipPathUnits="userSpaceOnUse"
       id="clipPath6">
      <path
         d="m 241.793,2325.11 h 5466.41 V 5584.9 H 241.793 Z"
         transform="translate(0,2.5000001e-5)"
         id="path6" />
    </clipPath>
    <clipPath
       clipPathUnits="userSpaceOnUse"
       id="clipPath7">
      <path
         d="m 241.793,2325.11 h 5466.41 V 5584.9 H 241.793 Z"
         transform="translate(0,2.5000001e-5)"
         id="path7" />
    </clipPath>
    <clipPath
       clipPathUnits="userSpaceOnUse"
       id="clipPath8">
      <path
         d="m 241.793,2325.11 h 5466.41 V 5584.9 H 241.793 Z"
         transform="translate(0,2.5000001e-5)"
         id="path8" />
    </clipPath>
    <clipPath
       clipPathUnits="userSpaceOnUse"
       id="clipPath9">
      <path
         d="m 241.793,2325.11 h 5466.41 V 5584.9 H 241.793 Z"
         transform="translate(0,2.5000001e-5)"
         id="path9" />
    </clipPath>
    <clipPath
       clipPathUnits="userSpaceOnUse"
       id="clipPath10">
      <path
         d="m 241.793,2325.11 h 5466.41 V 5584.9 H 241.793 Z"
         transform="translate(0,2.5000001e-5)"
         id="path10" />
    </clipPath>
    <clipPath
       clipPathUnits="userSpaceOnUse"
       id="clipPath11">
      <path
         d="m 241.793,2325.11 h 5466.41 V 5584.9 H 241.793 Z"
         transform="translate(0,2.5000001e-5)"
         id="path11" />
    </clipPath>
    <clipPath
       clipPathUnits="userSpaceOnUse"
       id="clipPath12">
      <path
         d="m 241.793,2325.11 h 5466.41 V 5584.9 H 241.793 Z"
         transform="translate(0,2.5000001e-5)"
         id="path12" />
    </clipPath>
    <clipPath
       clipPathUnits="userSpaceOnUse"
       id="clipPath13">
      <path
         d="m 241.793,2325.11 h 5466.41 V 5584.9 H 241.793 Z"
         transform="translate(0,2.5000001e-5)"
         id="path13" />
    </clipPath>
    <clipPath
       clipPathUnits="userSpaceOnUse"
       id="clipPath14">
      <path
         d="m 241.793,2325.11 h 5466.41 V 5584.9 H 241.793 Z"
         transform="translate(0,2.5000001e-5)"
         id="path14" />
    </clipPath>
    <clipPath
       clipPathUnits="userSpaceOnUse"
       id="clipPath15">
      <path
         d="m 241.793,2325.11 h 5466.41 V 5584.9 H 241.793 Z"
         transform="translate(0,2.5000001e-5)"
         id="path15" />
    </clipPath>
    <clipPath
       clipPathUnits="userSpaceOnUse"
       id="clipPath16">
      <path
         d="m 241.793,2325.11 h 5466.41 V 5584.9 H 241.793 Z"
         transform="translate(0,2.5000001e-5)"
         id="path16" />
    </clipPath>
    <clipPath
       clipPathUnits="userSpaceOnUse"
       id="clipPath17">
      <path
         d="m 241.793,2325.11 h 5466.41 V 5584.9 H 241.793 Z"
         transform="translate(0,2.5000001e-5)"
         id="path17" />
    </clipPath>
    <clipPath
       clipPathUnits="userSpaceOnUse"
       id="clipPath18">
      <path
         d="m 241.793,2325.11 h 5466.41 V 5584.9 H 241.793 Z"
         transform="translate(0,2.5000001e-5)"
         id="path18" />
    </clipPath>
    <clipPath
       clipPathUnits="userSpaceOnUse"
       id="clipPath19">
      <path
         d="m 241.793,2325.11 h 5466.41 V 5584.9 H 241.793 Z"
         transform="translate(0,2.5000001e-5)"
         id="path19" />
    </clipPath>
    <clipPath
       clipPathUnits="userSpaceOnUse"
       id="clipPath20">
      <path
         d="m 241.793,2325.11 h 5466.41 V 5584.9 H 241.793 Z"
         transform="translate(0,2.5000001e-5)"
         id="path20" />
    </clipPath>
    <clipPath
       clipPathUnits="userSpaceOnUse"
       id="clipPath21">
      <path
         d="m 241.793,2325.11 h 5466.41 V 5584.9 H 241.793 Z"
         transform="translate(0,2.5000001e-5)"
         id="path21" />
    </clipPath>
    <clipPath
       clipPathUnits="userSpaceOnUse"
       id="clipPath22">
      <path
         d="M 0,0 H 612 V 792 H 0 Z"
         transform="matrix(1.3333333,0,0,-1.3333333,-36,734.66667)"
         id="path22" />
    </clipPath>
    <clipPath
       clipPathUnits="userSpaceOnUse"
       id="clipPath23">
      <path
         d="m 5557.76,3394.98 h 133.734 v 192.246 H 5557.76 Z"
         transform="translate(0,2.5000001e-5)"
         id="path23" />
    </clipPath>
    <clipPath
       clipPathUnits="userSpaceOnUse"
       id="clipPath24">
      <path
         d="M 0,0 H 612 V 792 H 0 Z"
         transform="matrix(1.3333333,0,0,-1.3333333,-36,734.66667)"
         id="path24" />
    </clipPath>
    <clipPath
       clipPathUnits="userSpaceOnUse"
       id="clipPath25">
      <path
         d="m 2323.04,5392.65 h 133.734 v 192.242 H 2323.04 Z"
         transform="translate(0,2.5000001e-5)"
         id="path25" />
    </clipPath>
    <clipPath
       clipPathUnits="userSpaceOnUse"
       id="clipPath26">
      <path
         d="M 0,0 H 612 V 792 H 0 Z"
         transform="matrix(1.3333333,0,0,-1.3333333,-36,734.66667)"
         id="path26" />
    </clipPath>
    <clipPath
       clipPathUnits="userSpaceOnUse"
       id="clipPath27">
      <path
         d="m 3652.04,4983.09 h 610.164 v 192.242 H 3652.04 Z"
         transform="translate(0,2.5000001e-5)"
         id="path27" />
    </clipPath>
    <clipPath
       clipPathUnits="userSpaceOnUse"
       id="clipPath28">
      <path
         d="m 3652.04,4983.09 h 610.164 v 192.242 H 3652.04 Z"
         transform="translate(0,2.5000001e-5)"
         id="path28" />
    </clipPath>
    <clipPath
       clipPathUnits="userSpaceOnUse"
       id="clipPath29">
      <path
         d="m 3652.04,4983.09 h 610.164 v 192.242 H 3652.04 Z"
         transform="translate(0,2.5000001e-5)"
         id="path29" />
    </clipPath>
    <clipPath
       clipPathUnits="userSpaceOnUse"
       id="clipPath30">
      <path
         d="m 3652.04,4983.09 h 610.164 v 192.242 H 3652.04 Z"
         transform="translate(0,2.5000001e-5)"
         id="path30" />
    </clipPath>
    <clipPath
       clipPathUnits="userSpaceOnUse"
       id="clipPath31">
      <path
         d="m 3652.04,4983.09 h 610.164 v 192.242 H 3652.04 Z"
         transform="translate(0,2.5000001e-5)"
         id="path31" />
    </clipPath>
    <clipPath
       clipPathUnits="userSpaceOnUse"
       id="clipPath32">
      <path
         d="m 3652.04,4983.09 h 610.164 v 192.242 H 3652.04 Z"
         transform="translate(0,2.5000001e-5)"
         id="path32" />
    </clipPath>
    <clipPath
       clipPathUnits="userSpaceOnUse"
       id="clipPath33">
      <path
         d="M 0,0 H 612 V 792 H 0 Z"
         transform="matrix(1.3333333,0,0,-1.3333333,-36,734.66667)"
         id="path33" />
    </clipPath>
    <clipPath
       clipPathUnits="userSpaceOnUse"
       id="clipPath34">
      <path
         d="m 4395.93,4021.87 h 626.883 v 192.246 H 4395.93 Z"
         transform="translate(0,2.5000001e-5)"
         id="path34" />
    </clipPath>
    <clipPath
       clipPathUnits="userSpaceOnUse"
       id="clipPath35">
      <path
         d="m 4395.93,4021.87 h 626.883 v 192.246 H 4395.93 Z"
         transform="translate(0,2.5000001e-5)"
         id="path35" />
    </clipPath>
    <clipPath
       clipPathUnits="userSpaceOnUse"
       id="clipPath36">
      <path
         d="m 4395.93,4021.87 h 626.883 v 192.246 H 4395.93 Z"
         transform="translate(0,2.5000001e-5)"
         id="path36" />
    </clipPath>
    <clipPath
       clipPathUnits="userSpaceOnUse"
       id="clipPath37">
      <path
         d="m 4395.93,4021.87 h 626.883 v 192.246 H 4395.93 Z"
         transform="translate(0,2.5000001e-5)"
         id="path37" />
    </clipPath>
    <clipPath
       clipPathUnits="userSpaceOnUse"
       id="clipPath38">
      <path
         d="m 4395.93,4021.87 h 626.883 v 192.246 H 4395.93 Z"
         transform="translate(0,2.5000001e-5)"
         id="path38" />
    </clipPath>
    <clipPath
       clipPathUnits="userSpaceOnUse"
       id="clipPath39">
      <path
         d="m 4395.93,4021.87 h 626.883 v 192.246 H 4395.93 Z"
         transform="translate(0,2.5000001e-5)"
         id="path39" />
    </clipPath>
    <clipPath
       clipPathUnits="userSpaceOnUse"
       id="clipPath40">
      <path
         d="M 0,0 H 612 V 792 H 0 Z"
         transform="matrix(1.3333333,0,0,-1.3333333,-36,734.66667)"
         id="path40" />
    </clipPath>
    <clipPath
       clipPathUnits="userSpaceOnUse"
       id="clipPath41">
      <path
         d="m 241.793,2325.11 h 5466.41 V 5584.9 H 241.793 Z"
         transform="translate(0,2.5000001e-5)"
         id="path41" />
    </clipPath>
    <clipPath
       clipPathUnits="userSpaceOnUse"
       id="clipPath42">
      <path
         d="m 241.793,2325.11 h 5466.41 V 5584.9 H 241.793 Z"
         transform="translate(0,2.5000001e-5)"
         id="path42" />
    </clipPath>
    <clipPath
       clipPathUnits="userSpaceOnUse"
       id="clipPath43">
      <path
         d="M 0,0 H 612 V 792 H 0 Z"
         transform="matrix(1.3333333,0,0,-1.3333333,-36,734.66667)"
         id="path43" />
    </clipPath>
    <clipPath
       clipPathUnits="userSpaceOnUse"
       id="clipPath44">
      <path
         d="m 250.152,3319.76 h 83.582 v 175.527 h -83.582 z"
         transform="translate(0,2.5000001e-5)"
         id="path44" />
    </clipPath>
    <clipPath
       clipPathUnits="userSpaceOnUse"
       id="clipPath45">
      <path
         d="M 0,0 H 612 V 792 H 0 Z"
         transform="matrix(1.3333333,0,0,-1.3333333,-36,734.66667)"
         id="path45" />
    </clipPath>
    <clipPath
       clipPathUnits="userSpaceOnUse"
       id="clipPath46">
      <path
         d="m 241.793,2325.11 h 5466.41 V 5584.9 H 241.793 Z"
         transform="translate(0,2.5000001e-5)"
         id="path46" />
    </clipPath>
    <clipPath
       clipPathUnits="userSpaceOnUse"
       id="clipPath47">
      <path
         d="m 241.793,2325.11 h 5466.41 V 5584.9 H 241.793 Z"
         transform="translate(0,2.5000001e-5)"
         id="path47" />
    </clipPath>
    <clipPath
       clipPathUnits="userSpaceOnUse"
       id="clipPath48">
      <path
         d="M 0,0 H 612 V 792 H 0 Z"
         transform="matrix(1.3333333,0,0,-1.3333333,-36,734.66667)"
         id="path48" />
    </clipPath>
    <clipPath
       clipPathUnits="userSpaceOnUse"
       id="clipPath49">
      <path
         d="m 793.449,3319.76 h 83.582 v 175.527 h -83.582 z"
         transform="translate(0,2.5000001e-5)"
         id="path49" />
    </clipPath>
    <clipPath
       clipPathUnits="userSpaceOnUse"
       id="clipPath50">
      <path
         d="M 0,0 H 612 V 792 H 0 Z"
         transform="matrix(1.3333333,0,0,-1.3333333,-36,734.66667)"
         id="path50" />
    </clipPath>
    <clipPath
       clipPathUnits="userSpaceOnUse"
       id="clipPath51">
      <path
         d="m 241.793,2325.11 h 5466.41 V 5584.9 H 241.793 Z"
         transform="translate(0,2.5000001e-5)"
         id="path51" />
    </clipPath>
    <clipPath
       clipPathUnits="userSpaceOnUse"
       id="clipPath52">
      <path
         d="m 241.793,2325.11 h 5466.41 V 5584.9 H 241.793 Z"
         transform="translate(0,2.5000001e-5)"
         id="path52" />
    </clipPath>
    <clipPath
       clipPathUnits="userSpaceOnUse"
       id="clipPath53">
      <path
         d="M 0,0 H 612 V 792 H 0 Z"
         transform="matrix(1.3333333,0,0,-1.3333333,-36,734.66667)"
         id="path53" />
    </clipPath>
    <clipPath
       clipPathUnits="userSpaceOnUse"
       id="clipPath54">
      <path
         d="m 1328.39,3319.76 h 83.5859 v 175.527 H 1328.39 Z"
         transform="translate(0,2.5000001e-5)"
         id="path54" />
    </clipPath>
    <clipPath
       clipPathUnits="userSpaceOnUse"
       id="clipPath55">
      <path
         d="M 0,0 H 612 V 792 H 0 Z"
         transform="matrix(1.3333333,0,0,-1.3333333,-36,734.66667)"
         id="path55" />
    </clipPath>
    <clipPath
       clipPathUnits="userSpaceOnUse"
       id="clipPath56">
      <path
         d="m 241.793,2325.11 h 5466.41 V 5584.9 H 241.793 Z"
         transform="translate(0,2.5000001e-5)"
         id="path56" />
    </clipPath>
    <clipPath
       clipPathUnits="userSpaceOnUse"
       id="clipPath57">
      <path
         d="m 241.793,2325.11 h 5466.41 V 5584.9 H 241.793 Z"
         transform="translate(0,2.5000001e-5)"
         id="path57" />
    </clipPath>
    <clipPath
       clipPathUnits="userSpaceOnUse"
       id="clipPath58">
      <path
         d="M 0,0 H 612 V 792 H 0 Z"
         transform="matrix(1.3333333,0,0,-1.3333333,-36,734.66667)"
         id="path58" />
    </clipPath>
    <clipPath
       clipPathUnits="userSpaceOnUse"
       id="clipPath59">
      <path
         d="m 1871.69,3319.76 h 83.582 v 175.527 h -83.582 z"
         transform="translate(0,2.5000001e-5)"
         id="path59" />
    </clipPath>
    <clipPath
       clipPathUnits="userSpaceOnUse"
       id="clipPath60">
      <path
         d="M 0,0 H 612 V 792 H 0 Z"
         transform="matrix(1.3333333,0,0,-1.3333333,-36,734.66667)"
         id="path60" />
    </clipPath>
    <clipPath
       clipPathUnits="userSpaceOnUse"
       id="clipPath61">
      <path
         d="m 241.793,2325.11 h 5466.41 V 5584.9 H 241.793 Z"
         transform="translate(0,2.5000001e-5)"
         id="path61" />
    </clipPath>
    <clipPath
       clipPathUnits="userSpaceOnUse"
       id="clipPath62">
      <path
         d="m 241.793,2325.11 h 5466.41 V 5584.9 H 241.793 Z"
         transform="translate(0,2.5000001e-5)"
         id="path62" />
    </clipPath>
    <clipPath
       clipPathUnits="userSpaceOnUse"
       id="clipPath63">
      <path
         d="m 241.793,2325.11 h 5466.41 V 5584.9 H 241.793 Z"
         transform="translate(0,2.5000001e-5)"
         id="path63" />
    </clipPath>
    <clipPath
       clipPathUnits="userSpaceOnUse"
       id="clipPath64">
      <path
         d="m 241.793,2325.11 h 5466.41 V 5584.9 H 241.793 Z"
         transform="translate(0,2.5000001e-5)"
         id="path64" />
    </clipPath>
    <clipPath
       clipPathUnits="userSpaceOnUse"
       id="clipPath65">
      <path
         d="m 241.793,2325.11 h 5466.41 V 5584.9 H 241.793 Z"
         transform="translate(0,2.5000001e-5)"
         id="path65" />
    </clipPath>
    <clipPath
       clipPathUnits="userSpaceOnUse"
       id="clipPath66">
      <path
         d="m 241.793,2325.11 h 5466.41 V 5584.9 H 241.793 Z"
         transform="translate(0,2.5000001e-5)"
         id="path66" />
    </clipPath>
    <clipPath
       clipPathUnits="userSpaceOnUse"
       id="clipPath67">
      <path
         d="m 241.793,2325.11 h 5466.41 V 5584.9 H 241.793 Z"
         transform="translate(0,2.5000001e-5)"
         id="path67" />
    </clipPath>
    <clipPath
       clipPathUnits="userSpaceOnUse"
       id="clipPath68">
      <path
         d="m 241.793,2325.11 h 5466.41 V 5584.9 H 241.793 Z"
         transform="translate(0,2.5000001e-5)"
         id="path68" />
    </clipPath>
    <clipPath
       clipPathUnits="userSpaceOnUse"
       id="clipPath69">
      <path
         d="m 241.793,2325.11 h 5466.41 V 5584.9 H 241.793 Z"
         transform="translate(0,2.5000001e-5)"
         id="path69" />
    </clipPath>
    <clipPath
       clipPathUnits="userSpaceOnUse"
       id="clipPath70">
      <path
         d="m 241.793,2325.11 h 5466.41 V 5584.9 H 241.793 Z"
         transform="translate(0,2.5000001e-5)"
         id="path70" />
    </clipPath>
    <clipPath
       clipPathUnits="userSpaceOnUse"
       id="clipPath71">
      <path
         d="m 241.793,2325.11 h 5466.41 V 5584.9 H 241.793 Z"
         transform="translate(0,2.5000001e-5)"
         id="path71" />
    </clipPath>
    <clipPath
       clipPathUnits="userSpaceOnUse"
       id="clipPath72">
      <path
         d="m 241.793,2325.11 h 5466.41 V 5584.9 H 241.793 Z"
         transform="translate(0,2.5000001e-5)"
         id="path72" />
    </clipPath>
    <clipPath
       clipPathUnits="userSpaceOnUse"
       id="clipPath73">
      <path
         d="m 241.793,2325.11 h 5466.41 V 5584.9 H 241.793 Z"
         transform="translate(0,2.5000001e-5)"
         id="path73" />
    </clipPath>
    <clipPath
       clipPathUnits="userSpaceOnUse"
       id="clipPath74">
      <path
         d="m 241.793,2325.11 h 5466.41 V 5584.9 H 241.793 Z"
         transform="translate(0,2.5000001e-5)"
         id="path74" />
    </clipPath>
    <clipPath
       clipPathUnits="userSpaceOnUse"
       id="clipPath75">
      <path
         d="m 241.793,2325.11 h 5466.41 V 5584.9 H 241.793 Z"
         transform="translate(0,2.5000001e-5)"
         id="path75" />
    </clipPath>
    <clipPath
       clipPathUnits="userSpaceOnUse"
       id="clipPath76">
      <path
         d="m 241.793,2325.11 h 5466.41 V 5584.9 H 241.793 Z"
         transform="translate(0,2.5000001e-5)"
         id="path76" />
    </clipPath>
    <clipPath
       clipPathUnits="userSpaceOnUse"
       id="clipPath77">
      <path
         d="m 241.793,2325.11 h 5466.41 V 5584.9 H 241.793 Z"
         transform="translate(0,2.5000001e-5)"
         id="path77" />
    </clipPath>
    <clipPath
       clipPathUnits="userSpaceOnUse"
       id="clipPath78">
      <path
         d="m 241.793,2325.11 h 5466.41 V 5584.9 H 241.793 Z"
         transform="translate(0,2.5000001e-5)"
         id="path78" />
    </clipPath>
    <clipPath
       clipPathUnits="userSpaceOnUse"
       id="clipPath79">
      <path
         d="m 241.793,2325.11 h 5466.41 V 5584.9 H 241.793 Z"
         transform="translate(0,2.5000001e-5)"
         id="path79" />
    </clipPath>
    <clipPath
       clipPathUnits="userSpaceOnUse"
       id="clipPath80">
      <path
         d="m 241.793,2325.11 h 5466.41 V 5584.9 H 241.793 Z"
         transform="translate(0,2.5000001e-5)"
         id="path80" />
    </clipPath>
    <clipPath
       clipPathUnits="userSpaceOnUse"
       id="clipPath81">
      <path
         d="m 241.793,2325.11 h 5466.41 V 5584.9 H 241.793 Z"
         transform="translate(0,2.5000001e-5)"
         id="path81" />
    </clipPath>
    <clipPath
       clipPathUnits="userSpaceOnUse"
       id="clipPath82">
      <path
         d="m 241.793,2325.11 h 5466.41 V 5584.9 H 241.793 Z"
         transform="translate(0,2.5000001e-5)"
         id="path82" />
    </clipPath>
    <clipPath
       clipPathUnits="userSpaceOnUse"
       id="clipPath83">
      <path
         d="m 241.793,2325.11 h 5466.41 V 5584.9 H 241.793 Z"
         transform="translate(0,2.5000001e-5)"
         id="path83" />
    </clipPath>
    <clipPath
       clipPathUnits="userSpaceOnUse"
       id="clipPath84">
      <path
         d="m 241.793,2325.11 h 5466.41 V 5584.9 H 241.793 Z"
         transform="translate(0,2.5000001e-5)"
         id="path84" />
    </clipPath>
    <clipPath
       clipPathUnits="userSpaceOnUse"
       id="clipPath85">
      <path
         d="m 241.793,2325.11 h 5466.41 V 5584.9 H 241.793 Z"
         transform="translate(0,2.5000001e-5)"
         id="path85" />
    </clipPath>
    <clipPath
       clipPathUnits="userSpaceOnUse"
       id="clipPath86">
      <path
         d="M 0,0 H 612 V 792 H 0 Z"
         transform="matrix(1.3333333,0,0,-1.3333333,-36,734.66667)"
         id="path86" />
    </clipPath>
    <clipPath
       clipPathUnits="userSpaceOnUse"
       id="clipPath87">
      <path
         d="m 1896.76,2383.61 h 83.5859 v 175.527 H 1896.76 Z"
         transform="translate(0,2.5000001e-5)"
         id="path87" />
    </clipPath>
    <clipPath
       clipPathUnits="userSpaceOnUse"
       id="clipPath88">
      <path
         d="M 0,0 H 612 V 792 H 0 Z"
         transform="matrix(1.3333333,0,0,-1.3333333,-36,734.66667)"
         id="path88" />
    </clipPath>
    <clipPath
       clipPathUnits="userSpaceOnUse"
       id="clipPath89">
      <path
         d="m 241.793,2325.11 h 5466.41 V 5584.9 H 241.793 Z"
         transform="translate(0,2.5000001e-5)"
         id="path89" />
    </clipPath>
    <clipPath
       clipPathUnits="userSpaceOnUse"
       id="clipPath90">
      <path
         d="m 241.793,2325.11 h 5466.41 V 5584.9 H 241.793 Z"
         transform="translate(0,2.5000001e-5)"
         id="path90" />
    </clipPath>
    <clipPath
       clipPathUnits="userSpaceOnUse"
       id="clipPath91">
      <path
         d="M 0,0 H 612 V 792 H 0 Z"
         transform="matrix(1.3333333,0,0,-1.3333333,-36,734.66667)"
         id="path91" />
    </clipPath>
    <clipPath
       clipPathUnits="userSpaceOnUse"
       id="clipPath92">
      <path
         d="m 1896.76,2926.91 h 83.5859 v 175.527 H 1896.76 Z"
         transform="translate(0,2.5000001e-5)"
         id="path92" />
    </clipPath>
    <clipPath
       clipPathUnits="userSpaceOnUse"
       id="clipPath93">
      <path
         d="M 0,0 H 612 V 792 H 0 Z"
         transform="matrix(1.3333333,0,0,-1.3333333,-36,734.66667)"
         id="path93" />
    </clipPath>
    <clipPath
       clipPathUnits="userSpaceOnUse"
       id="clipPath94">
      <path
         d="m 241.793,2325.11 h 5466.41 V 5584.9 H 241.793 Z"
         transform="translate(0,2.5000001e-5)"
         id="path94" />
    </clipPath>
    <clipPath
       clipPathUnits="userSpaceOnUse"
       id="clipPath95">
      <path
         d="m 241.793,2325.11 h 5466.41 V 5584.9 H 241.793 Z"
         transform="translate(0,2.5000001e-5)"
         id="path95" />
    </clipPath>
    <clipPath
       clipPathUnits="userSpaceOnUse"
       id="clipPath96">
      <path
         d="m 241.793,2325.11 h 5466.41 V 5584.9 H 241.793 Z"
         transform="translate(0,2.5000001e-5)"
         id="path96" />
    </clipPath>
    <clipPath
       clipPathUnits="userSpaceOnUse"
       id="clipPath97">
      <path
         d="m 241.793,2325.11 h 5466.41 V 5584.9 H 241.793 Z"
         transform="translate(0,2.5000001e-5)"
         id="path97" />
    </clipPath>
    <clipPath
       clipPathUnits="userSpaceOnUse"
       id="clipPath98">
      <path
         d="m 241.793,2325.11 h 5466.41 V 5584.9 H 241.793 Z"
         transform="translate(0,2.5000001e-5)"
         id="path98" />
    </clipPath>
    <clipPath
       clipPathUnits="userSpaceOnUse"
       id="clipPath99">
      <path
         d="m 241.793,2325.11 h 5466.41 V 5584.9 H 241.793 Z"
         transform="translate(0,2.5000001e-5)"
         id="path99" />
    </clipPath>
    <clipPath
       clipPathUnits="userSpaceOnUse"
       id="clipPath100">
      <path
         d="m 241.793,2325.11 h 5466.41 V 5584.9 H 241.793 Z"
         transform="translate(0,2.5000001e-5)"
         id="path100" />
    </clipPath>
    <clipPath
       clipPathUnits="userSpaceOnUse"
       id="clipPath101">
      <path
         d="m 241.793,2325.11 h 5466.41 V 5584.9 H 241.793 Z"
         transform="translate(0,2.5000001e-5)"
         id="path101" />
    </clipPath>
    <clipPath
       clipPathUnits="userSpaceOnUse"
       id="clipPath102">
      <path
         d="m 241.793,2325.11 h 5466.41 V 5584.9 H 241.793 Z"
         transform="translate(0,2.5000001e-5)"
         id="path102" />
    </clipPath>
    <clipPath
       clipPathUnits="userSpaceOnUse"
       id="clipPath103">
      <path
         d="m 241.793,2325.11 h 5466.41 V 5584.9 H 241.793 Z"
         transform="translate(0,2.5000001e-5)"
         id="path103" />
    </clipPath>
    <clipPath
       clipPathUnits="userSpaceOnUse"
       id="clipPath104">
      <path
         d="m 241.793,2325.11 h 5466.41 V 5584.9 H 241.793 Z"
         transform="translate(0,2.5000001e-5)"
         id="path104" />
    </clipPath>
    <clipPath
       clipPathUnits="userSpaceOnUse"
       id="clipPath105">
      <path
         d="m 241.793,2325.11 h 5466.41 V 5584.9 H 241.793 Z"
         transform="translate(0,2.5000001e-5)"
         id="path105" />
    </clipPath>
    <clipPath
       clipPathUnits="userSpaceOnUse"
       id="clipPath106">
      <path
         d="m 241.793,2325.11 h 5466.41 V 5584.9 H 241.793 Z"
         transform="translate(0,2.5000001e-5)"
         id="path106" />
    </clipPath>
    <clipPath
       clipPathUnits="userSpaceOnUse"
       id="clipPath107">
      <path
         d="m 241.793,2325.11 h 5466.41 V 5584.9 H 241.793 Z"
         transform="translate(0,2.5000001e-5)"
         id="path107" />
    </clipPath>
    <clipPath
       clipPathUnits="userSpaceOnUse"
       id="clipPath108">
      <path
         d="M 0,0 H 612 V 792 H 0 Z"
         transform="matrix(1.3333333,0,0,-1.3333333,-36,734.66667)"
         id="path108" />
    </clipPath>
    <clipPath
       clipPathUnits="userSpaceOnUse"
       id="clipPath109">
      <path
         d="M 0,0 H 540 V 318 H 0 Z"
         transform="matrix(1.3333333,0,0,-1.3333333,0,424)"
         id="path109" />
    </clipPath>
  </defs>
  <sodipodi:namedview
     id="namedview1"
     pagecolor="#ffffff"
     bordercolor="#000000"
     borderopacity="0.25"
     inkscape:showpageshadow="2"
     inkscape:pageopacity="0.0"
     inkscape:pagecheckerboard="0"
     inkscape:deskcolor="#d1d1d1"
     inkscape:zoom="1.1863208"
     inkscape:cx="360.35785"
     inkscape:cy="212"
     inkscape:window-width="1366"
     inkscape:window-height="705"
     inkscape:window-x="-8"
     inkscape:window-y="-8"
     inkscape:window-maximized="1"
     inkscape:current-layer="g1">
    <inkscape:page
       x="0"
       y="0"
       inkscape:label="1"
       id="page1"
       width="720"
       height="424"
       margin="0"
       bleed="0" />
  </sodipodi:namedview>
  <g
     id="g1"
     inkscape:groupmode="layer"
     inkscape:label="1">
    <g
       id="g200">
      <g
         clip-path="url(#clipPath109)"
         id="g199">
        <path
           d="M 200,2283.31 H 5750 V 5626.69 H 200 Z"
           style="fill:#ffffff;fill-opacity:1;fill-rule:nonzero;stroke:none"
           transform="matrix(0.13333333,0,0,-0.13333333,-36,734.66667)"
           clip-path="url(#clipPath1)"
           id="path110" />
        <g
           clip-path="url(#clipPath3)"
           id="g111">
          <path
             d="m 346.273,2475.99 26.09,59.21 22.707,51 25.532,56.77 25.703,56.53 25.578,55.65 23.715,51.03 24.558,52.3 25.395,53.49 25.316,52.71 26.039,53.58 22.934,46.69 25.82,51.94 25.926,51.54 24.984,49.07 22.688,44.05 26.976,51.75 22.856,43.3 26.586,49.75 23.531,43.49 25.816,47.12 24.586,44.28 25.653,45.6 23.558,41.32 25.407,43.99 26.394,45.06 22.977,38.68 24.812,41.23 25.63,41.98 25.09,40.47 24.25,38.6 26.95,42.21 24.21,37.34 25.84,39.27 23.43,35.04 25.6,37.71 24.1,34.92 25.18,35.93 24.63,34.54 25.77,35.56 24.83,33.65 25.39,33.81 25.18,32.94 23.14,29.74 26.51,33.47 23.72,29.37 25.29,30.74 24.2,28.86 26.88,31.39 23.27,26.64 26.41,29.61 24.07,26.42 26.34,28.29 22.72,23.87 25.88,26.6 24.99,25.09 24.98,24.5 24.88,23.82 23.91,22.33 25.85,23.54 24.63,21.86 25.93,22.38 23.46,19.71 25.94,21.2 24.84,19.69 24.78,19.08 25.89,19.31 23.84,17.23 24.42,17.09 26.96,18.22 24.41,15.9 24.96,15.69 25.39,15.36 23.33,13.57 24.88,13.91 24.68,13.23 26.4,13.52 23.31,11.39 26.89,12.5 24.26,10.7 24.01,10.04 25.81,10.19 25.92,9.61 23.58,8.18 25.04,8.13 24.44,7.36 26.49,7.35 22.93,5.82 26.32,6.08 24.76,5.12 24.51,4.5 24.53,3.94 25.02,3.44 26.52,3.01 24.32,2.17 24,1.6 25.66,1.1 25.6,0.5 22.99,-0.09 27.22,-0.74 22.78,-1.15 26.63,-1.98 25.44,-2.5 22.7,-2.75 25.53,-3.66 25.7,-4.32 25.59,-4.91 23.71,-5.09 24.56,-5.84 25.39,-6.64 25.32,-7.21 26.03,-8.05 22.94,-7.62 25.82,-9.17 25.92,-9.83 24.99,-10.08 22.69,-9.66 26.97,-12.12 22.85,-10.8 26.59,-13.17 23.53,-12.22 25.82,-14.01 24.59,-13.92 25.65,-15.13 23.56,-14.43 25.41,-16.16 26.39,-17.42 22.97,-15.7 24.82,-17.52 25.64,-18.7 25.07,-18.9 24.27,-18.84 26.94,-21.57 24.21,-19.97 25.85,-21.92 23.42,-20.41 25.6,-22.9 24.1,-22.12 25.18,-23.69 24.63,-23.75 25.78,-25.46 24.82,-25.12 25.39,-26.29 25.18,-26.67 23.13,-25.03 26.53,-29.31 23.72,-26.77 25.28,-29.13 24.21,-28.43 26.87,-32.23 23.27,-28.46 26.41,-32.9 24.08,-30.57 26.33,-34.06 22.72,-29.92 25.88,-34.65 24.99,-34.07 24.98,-34.64 24.89,-35.09 23.91,-34.27 25.84,-37.63 24.64,-36.46 25.92,-39 23.47,-35.83 25.93,-40.21 24.84,-39.11 24.79,-39.58 25.88,-41.97 23.85,-39.21 24.41,-40.71 26.96,-45.61 24.42,-41.87 24.95,-43.41 25.39,-44.74 23.34,-41.66 24.87,-44.98 24.69,-45.21 26.4,-48.99 23.3,-43.77 26.89,-51.14 24.26,-46.75 24.01,-46.78 25.81,-50.92 25.92,-51.74 23.59,-47.64 25.04,-51.16 24.44,-50.49 26.49,-55.37 22.92,-48.45 26.33,-56.25 24.75,-53.47 24.51,-53.51 24.53,-54.14 25.03,-55.79 26.52,-59.77 24.31,-55.4 24.01,-55.22 25.65,-59.63 25.61,-60.12"
             style="fill:none;stroke:#000000;stroke-width:12.5377;stroke-linecap:butt;stroke-linejoin:round;stroke-miterlimit:10;stroke-dasharray:125.377, 41.7922;stroke-dashoffset:0;stroke-opacity:1"
             transform="matrix(0.13333333,0,0,-0.13333333,-36,734.66667)"
             clip-path="url(#clipPath2)"
             id="path111" />
        </g>
        <g
           clip-path="url(#clipPath22)"
           id="g129">
          <path
             d="m 3645.66,4941.58 c 0,-36.93 -29.93,-66.87 -66.86,-66.87 -36.93,0 -66.87,29.94 -66.87,66.87 0,36.93 29.94,66.87 66.87,66.87 36.93,0 66.86,-29.94 66.86,-66.87 z"
             style="fill:none;stroke:#ff0000;stroke-width:8.35843;stroke-linecap:square;stroke-linejoin:miter;stroke-miterlimit:10;stroke-dasharray:none;stroke-opacity:1"
             transform="matrix(0.13333333,0,0,-0.13333333,-36,734.66667)"
             clip-path="url(#clipPath4)"
             id="path112" />
          <path
             d="m 3645.66,4941.58 c 0,-36.93 -29.93,-66.87 -66.86,-66.87 -36.93,0 -66.87,29.94 -66.87,66.87 0,36.93 29.94,66.87 66.87,66.87 36.93,0 66.86,-29.94 66.86,-66.87"
             style="fill:#ff0000;fill-opacity:1;fill-rule:nonzero;stroke:none"
             transform="matrix(0.13333333,0,0,-0.13333333,-36,734.66667)"
             clip-path="url(#clipPath5)"
             id="path113" />
          <path
             d="m 4185.11,4394.61 c 0,-36.93 -29.94,-66.87 -66.87,-66.87 -36.93,0 -66.86,29.94 -66.86,66.87 0,36.93 29.93,66.86 66.86,66.86 36.93,0 66.87,-29.93 66.87,-66.86 z"
             style="fill:none;stroke:#ff0000;stroke-width:8.35843;stroke-linecap:square;stroke-linejoin:miter;stroke-miterlimit:10;stroke-dasharray:none;stroke-opacity:1"
             transform="matrix(0.13333333,0,0,-0.13333333,-36,734.66667)"
             clip-path="url(#clipPath6)"
             id="path114" />
          <path
             d="m 4185.11,4394.61 c 0,-36.93 -29.94,-66.87 -66.87,-66.87 -36.93,0 -66.86,29.94 -66.86,66.87 0,36.93 29.93,66.86 66.86,66.86 36.93,0 66.87,-29.93 66.87,-66.86"
             style="fill:#ff0000;fill-opacity:1;fill-rule:nonzero;stroke:none"
             transform="matrix(0.13333333,0,0,-0.13333333,-36,734.66667)"
             clip-path="url(#clipPath7)"
             id="path115" />
          <path
             d="m 4724.56,3574.13 c 0,-36.93 -29.93,-66.86 -66.86,-66.86 -36.93,0 -66.87,29.93 -66.87,66.86 0,36.93 29.94,66.87 66.87,66.87 36.93,0 66.86,-29.94 66.86,-66.87 z"
             style="fill:none;stroke:#ff0000;stroke-width:8.35843;stroke-linecap:square;stroke-linejoin:miter;stroke-miterlimit:10;stroke-dasharray:none;stroke-opacity:1"
             transform="matrix(0.13333333,0,0,-0.13333333,-36,734.66667)"
             clip-path="url(#clipPath8)"
             id="path116" />
          <path
             d="m 4724.56,3574.13 c 0,-36.93 -29.93,-66.86 -66.86,-66.86 -36.93,0 -66.87,29.93 -66.87,66.86 0,36.93 29.94,66.87 66.87,66.87 36.93,0 66.86,-29.94 66.86,-66.87"
             style="fill:#ff0000;fill-opacity:1;fill-rule:nonzero;stroke:none"
             transform="matrix(0.13333333,0,0,-0.13333333,-36,734.66667)"
             clip-path="url(#clipPath9)"
             id="path117" />
          <path
             d="m 5264.02,2480.17 c 0,-36.93 -29.94,-66.87 -66.87,-66.87 -36.93,0 -66.87,29.94 -66.87,66.87 0,36.93 29.94,66.87 66.87,66.87 36.93,0 66.87,-29.94 66.87,-66.87 z"
             style="fill:none;stroke:#ff0000;stroke-width:8.35843;stroke-linecap:square;stroke-linejoin:miter;stroke-miterlimit:10;stroke-dasharray:none;stroke-opacity:1"
             transform="matrix(0.13333333,0,0,-0.13333333,-36,734.66667)"
             clip-path="url(#clipPath10)"
             id="path118" />
          <path
             d="m 5264.02,2480.17 c 0,-36.93 -29.94,-66.87 -66.87,-66.87 -36.93,0 -66.87,29.94 -66.87,66.87 0,36.93 29.94,66.87 66.87,66.87 36.93,0 66.87,-29.94 66.87,-66.87"
             style="fill:#ff0000;fill-opacity:1;fill-rule:nonzero;stroke:none"
             transform="matrix(0.13333333,0,0,-0.13333333,-36,734.66667)"
             clip-path="url(#clipPath11)"
             id="path119" />
          <path
             d="m 2027.31,4941.58 c 0,-36.93 -29.93,-66.87 -66.86,-66.87 -36.93,0 -66.87,29.94 -66.87,66.87 0,36.93 29.94,66.87 66.87,66.87 36.93,0 66.86,-29.94 66.86,-66.87 z"
             style="fill:none;stroke:#ff0000;stroke-width:8.35843;stroke-linecap:square;stroke-linejoin:miter;stroke-miterlimit:10;stroke-dasharray:none;stroke-opacity:1"
             transform="matrix(0.13333333,0,0,-0.13333333,-36,734.66667)"
             clip-path="url(#clipPath12)"
             id="path120" />
          <path
             d="m 2027.31,4941.58 c 0,-36.93 -29.93,-66.87 -66.86,-66.87 -36.93,0 -66.87,29.94 -66.87,66.87 0,36.93 29.94,66.87 66.87,66.87 36.93,0 66.86,-29.94 66.86,-66.87"
             style="fill:#ff0000;fill-opacity:1;fill-rule:nonzero;stroke:none"
             transform="matrix(0.13333333,0,0,-0.13333333,-36,734.66667)"
             clip-path="url(#clipPath13)"
             id="path121" />
          <path
             d="m 2566.76,5215.07 c 0,-36.93 -29.94,-66.87 -66.87,-66.87 -36.93,0 -66.87,29.94 -66.87,66.87 0,36.93 29.94,66.86 66.87,66.86 36.93,0 66.87,-29.93 66.87,-66.86 z"
             style="fill:none;stroke:#ff0000;stroke-width:8.35843;stroke-linecap:square;stroke-linejoin:miter;stroke-miterlimit:10;stroke-dasharray:none;stroke-opacity:1"
             transform="matrix(0.13333333,0,0,-0.13333333,-36,734.66667)"
             clip-path="url(#clipPath14)"
             id="path122" />
          <path
             d="m 2566.76,5215.07 c 0,-36.93 -29.94,-66.87 -66.87,-66.87 -36.93,0 -66.87,29.94 -66.87,66.87 0,36.93 29.94,66.86 66.87,66.86 36.93,0 66.87,-29.93 66.87,-66.86"
             style="fill:#ff0000;fill-opacity:1;fill-rule:nonzero;stroke:none"
             transform="matrix(0.13333333,0,0,-0.13333333,-36,734.66667)"
             clip-path="url(#clipPath15)"
             id="path123" />
          <path
             d="m 1487.86,4394.61 c 0,-36.93 -29.94,-66.87 -66.87,-66.87 -36.93,0 -66.86,29.94 -66.86,66.87 0,36.93 29.93,66.86 66.86,66.86 36.93,0 66.87,-29.93 66.87,-66.86 z"
             style="fill:none;stroke:#ff0000;stroke-width:8.35843;stroke-linecap:square;stroke-linejoin:miter;stroke-miterlimit:10;stroke-dasharray:none;stroke-opacity:1"
             transform="matrix(0.13333333,0,0,-0.13333333,-36,734.66667)"
             clip-path="url(#clipPath16)"
             id="path124" />
          <path
             d="m 1487.86,4394.61 c 0,-36.93 -29.94,-66.87 -66.87,-66.87 -36.93,0 -66.86,29.94 -66.86,66.87 0,36.93 29.93,66.86 66.86,66.86 36.93,0 66.87,-29.93 66.87,-66.86"
             style="fill:#ff0000;fill-opacity:1;fill-rule:nonzero;stroke:none"
             transform="matrix(0.13333333,0,0,-0.13333333,-36,734.66667)"
             clip-path="url(#clipPath17)"
             id="path125" />
          <path
             d="m 948.41,3574.13 c 0,-36.93 -29.937,-66.86 -66.867,-66.86 -36.93,0 -66.867,29.93 -66.867,66.86 0,36.93 29.937,66.87 66.867,66.87 36.93,0 66.867,-29.94 66.867,-66.87 z"
             style="fill:none;stroke:#ff0000;stroke-width:8.35843;stroke-linecap:square;stroke-linejoin:miter;stroke-miterlimit:10;stroke-dasharray:none;stroke-opacity:1"
             transform="matrix(0.13333333,0,0,-0.13333333,-36,734.66667)"
             clip-path="url(#clipPath18)"
             id="path126" />
          <path
             d="m 948.41,3574.13 c 0,-36.93 -29.937,-66.86 -66.867,-66.86 -36.93,0 -66.867,29.93 -66.867,66.86 0,36.93 29.937,66.87 66.867,66.87 36.93,0 66.867,-29.94 66.867,-66.87"
             style="fill:#ff0000;fill-opacity:1;fill-rule:nonzero;stroke:none"
             transform="matrix(0.13333333,0,0,-0.13333333,-36,734.66667)"
             clip-path="url(#clipPath19)"
             id="path127" />
          <path
             d="m 3106.21,5215.07 c 0,-36.93 -29.94,-66.87 -66.87,-66.87 -36.93,0 -66.86,29.94 -66.86,66.87 0,36.93 29.93,66.86 66.86,66.86 36.93,0 66.87,-29.93 66.87,-66.86 z"
             style="fill:none;stroke:#ff0000;stroke-width:8.35843;stroke-linecap:square;stroke-linejoin:miter;stroke-miterlimit:10;stroke-dasharray:none;stroke-opacity:1"
             transform="matrix(0.13333333,0,0,-0.13333333,-36,734.66667)"
             clip-path="url(#clipPath20)"
             id="path128" />
          <path
             d="m 3106.21,5215.07 c 0,-36.93 -29.94,-66.87 -66.87,-66.87 -36.93,0 -66.86,29.94 -66.86,66.87 0,36.93 29.93,66.86 66.86,66.86 36.93,0 66.87,-29.93 66.87,-66.86"
             style="fill:#ff0000;fill-opacity:1;fill-rule:nonzero;stroke:none"
             transform="matrix(0.13333333,0,0,-0.13333333,-36,734.66667)"
             clip-path="url(#clipPath21)"
             id="path129" />
        </g>
        <g
           clip-path="url(#clipPath24)"
           id="g130">
          <path
             d="m 5620.18,3502.34 c 2.7,-2.88 4.7,-5.7 6.01,-8.48 0.96,-2.01 2.56,-7.15 4.83,-15.41 l 7.19,10.7 c 1.91,2.62 4.22,5.09 6.92,7.45 2.7,2.35 5.09,3.96 7.18,4.83 1.3,0.61 2.74,0.91 4.31,0.91 2.35,0 4.22,-0.63 5.62,-1.89 1.39,-1.26 2.08,-2.81 2.08,-4.64 0,-2 -0.39,-3.39 -1.17,-4.18 -1.57,-1.39 -3.31,-2.09 -5.23,-2.09 -1.12,0 -2.35,0.26 -3.66,0.79 -2.6,0.87 -4.34,1.3 -5.22,1.3 -1.31,0 -2.83,-0.78 -4.56,-2.34 -3.41,-2.8 -7.45,-8.24 -12.16,-16.33 l 6.66,-28.08 c 1.05,-4.36 1.92,-6.95 2.62,-7.77 0.69,-0.82 1.44,-1.24 2.22,-1.24 1.13,0 2.43,0.61 3.91,1.83 3.06,2.52 5.62,5.79 7.71,9.79 l 2.88,-1.44 c -3.49,-6.44 -7.84,-11.75 -13.07,-15.92 -3.04,-2.45 -5.57,-3.67 -7.57,-3.67 -3.05,0 -5.48,1.7 -7.31,5.09 -1.13,2.18 -3.49,11.33 -7.06,27.43 -8.53,-14.71 -15.36,-24.2 -20.5,-28.47 -3.31,-2.69 -6.49,-4.05 -9.53,-4.05 -2.18,0 -4.18,0.79 -6.01,2.35 -1.31,1.22 -1.97,2.83 -1.97,4.83 0,1.83 0.6,3.34 1.77,4.52 1.18,1.17 2.68,1.75 4.5,1.75 1.75,0 3.58,-0.87 5.5,-2.61 1.38,-1.22 2.48,-1.83 3.25,-1.83 0.71,0 1.54,0.44 2.49,1.31 2.62,2.09 6.12,6.55 10.51,13.39 4.4,6.83 7.29,11.78 8.69,14.82 -3.4,13.24 -5.22,20.24 -5.49,21.03 -1.3,3.48 -2.95,5.96 -4.96,7.44 -2.01,1.49 -4.97,2.22 -8.88,2.22 -1.22,0 -2.66,-0.04 -4.31,-0.13 v 2.87 l 21.81,3.92"
             style="fill:#000000;fill-opacity:1;fill-rule:nonzero;stroke:none"
             transform="matrix(0.13333333,0,0,-0.13333333,-36,734.66667)"
             clip-path="url(#clipPath23)"
             id="path130" />
        </g>
        <g
           clip-path="url(#clipPath26)"
           id="g131">
          <path
             d="m 2383.11,5500 c 1.92,-3.21 3.22,-6.2 3.93,-8.94 0.69,-2.74 1.38,-8.12 2.09,-16.13 l 3.65,-40.22 c 3.22,3.91 7.92,10.14 14.11,18.67 3.04,4.09 6.74,9.71 11.09,16.85 2.71,4.35 4.36,7.4 4.97,9.14 0.34,0.87 0.52,1.79 0.52,2.74 0,0.61 -0.19,1.09 -0.59,1.44 -0.39,0.35 -1.39,0.78 -3,1.31 -1.61,0.52 -2.94,1.48 -3.99,2.87 -1.04,1.39 -1.57,3 -1.57,4.83 0,2.18 0.66,3.96 1.97,5.35 1.3,1.4 2.92,2.09 4.83,2.09 2.44,0 4.48,-1 6.13,-3 1.66,-2 2.49,-4.74 2.49,-8.23 0,-4.26 -1.45,-9.16 -4.37,-14.69 -2.92,-5.53 -8.58,-14.02 -16.99,-25.47 -8.4,-11.45 -18.56,-23.92 -30.49,-37.41 -8.18,-9.32 -14.26,-15.17 -18.22,-17.57 -3.96,-2.39 -7.37,-3.59 -10.25,-3.59 -1.65,0 -3.13,0.63 -4.44,1.89 -1.31,1.27 -1.96,2.72 -1.96,4.38 0,2.17 0.89,4.14 2.68,5.88 1.78,1.74 3.72,2.61 5.81,2.61 1.04,0 1.92,-0.26 2.61,-0.78 0.43,-0.27 0.92,-1.03 1.44,-2.29 0.52,-1.27 1,-2.11 1.44,-2.55 0.34,-0.26 0.69,-0.39 1.04,-0.39 0.35,0 0.91,0.26 1.69,0.78 2.97,1.83 6.45,4.75 10.45,8.75 5.23,5.4 9.11,9.75 11.63,13.06 l -4.57,51.85 c -0.79,8.54 -1.94,13.72 -3.46,15.54 -1.52,1.83 -4.07,2.75 -7.64,2.75 -1.14,0 -3.18,-0.13 -6.14,-0.39 l -0.78,3 23.89,5.87"
             style="fill:#000000;fill-opacity:1;fill-rule:nonzero;stroke:none"
             transform="matrix(0.13333333,0,0,-0.13333333,-36,734.66667)"
             clip-path="url(#clipPath25)"
             id="path131" />
        </g>
        <g
           clip-path="url(#clipPath33)"
           id="g137">
          <path
             d="m 3712.11,5090.44 c 1.91,-3.22 3.21,-6.2 3.92,-8.94 0.69,-2.75 1.38,-8.12 2.08,-16.13 l 3.66,-40.23 c 3.22,3.92 7.92,10.15 14.11,18.68 3.04,4.09 6.74,9.71 11.1,16.84 2.7,4.36 4.35,7.41 4.96,9.15 0.35,0.87 0.52,1.78 0.52,2.74 0,0.61 -0.19,1.09 -0.58,1.43 -0.4,0.36 -1.4,0.79 -3.01,1.31 -1.61,0.53 -2.94,1.48 -3.98,2.87 -1.05,1.4 -1.57,3.01 -1.57,4.84 0,2.18 0.66,3.96 1.96,5.35 1.31,1.4 2.92,2.09 4.83,2.09 2.44,0 4.48,-1 6.14,-3 1.65,-2.01 2.48,-4.75 2.48,-8.23 0,-4.26 -1.46,-9.16 -4.37,-14.69 -2.92,-5.53 -8.58,-14.02 -16.99,-25.47 -8.4,-11.45 -18.56,-23.92 -30.49,-37.42 -8.18,-9.31 -14.26,-15.17 -18.22,-17.56 -3.96,-2.39 -7.37,-3.59 -10.25,-3.59 -1.65,0 -3.13,0.63 -4.44,1.89 -1.31,1.26 -1.96,2.72 -1.96,4.38 0,2.17 0.9,4.13 2.67,5.87 1.79,1.74 3.73,2.61 5.82,2.61 1.05,0 1.92,-0.26 2.61,-0.78 0.43,-0.26 0.92,-1.02 1.44,-2.29 0.52,-1.26 1,-2.11 1.43,-2.54 0.36,-0.26 0.7,-0.39 1.05,-0.39 0.35,0 0.91,0.26 1.7,0.78 2.96,1.83 6.44,4.74 10.45,8.75 5.22,5.4 9.1,9.75 11.62,13.06 l -4.57,51.85 c -0.78,8.53 -1.94,13.71 -3.46,15.54 -1.52,1.83 -4.07,2.74 -7.64,2.74 -1.14,0 -3.18,-0.13 -6.15,-0.39 l -0.77,3.01 23.9,5.87"
             style="fill:#ff0000;fill-opacity:1;fill-rule:nonzero;stroke:none"
             transform="matrix(0.13333333,0,0,-0.13333333,-36,734.66667)"
             clip-path="url(#clipPath27)"
             id="path132" />
          <path
             d="m 3797.13,5088.61 h 88.16 v -6.66 h -88.16 z m 0,-26.64 h 88.16 v -6.66 h -88.16 v 6.66"
             style="fill:#ff0000;fill-opacity:1;fill-rule:nonzero;stroke:none"
             transform="matrix(0.13333333,0,0,-0.13333333,-36,734.66667)"
             clip-path="url(#clipPath28)"
             id="path133" />
          <path
             d="m 3977.35,5088.48 -1.43,-5.48 h -11.88 l -9.01,-35.66 c -3.92,-15.67 -7.93,-27.81 -12.02,-36.43 -5.66,-12.2 -11.8,-20.59 -18.42,-25.21 -5.04,-3.48 -10.05,-5.22 -15.02,-5.22 -3.31,0 -6.09,0.95 -8.36,2.87 -1.65,1.39 -2.48,3.18 -2.48,5.35 0,1.75 0.7,3.25 2.09,4.51 1.4,1.26 3.09,1.89 5.1,1.89 1.48,0 2.72,-0.45 3.72,-1.37 1,-0.91 1.5,-1.98 1.5,-3.2 0,-1.22 -0.56,-2.3 -1.7,-3.26 -0.87,-0.79 -1.3,-1.39 -1.3,-1.83 0,-0.44 0.17,-0.78 0.52,-1.05 0.52,-0.43 1.3,-0.65 2.35,-0.65 2.27,0 4.7,0.74 7.31,2.22 2.61,1.48 4.92,3.68 6.93,6.6 2,2.91 3.91,7.12 5.75,12.6 0.77,2.26 2.82,9.79 6.13,22.59 l 14.1,55.25 h -14.1 l 1.05,5.48 c 4.53,0 7.7,0.31 9.53,0.92 1.83,0.61 3.48,1.8 4.96,3.59 1.48,1.78 3.4,5.07 5.75,9.86 3.22,6.53 6.31,11.62 9.27,15.28 4,4.79 8.23,8.4 12.67,10.84 4.44,2.44 8.62,3.66 12.54,3.66 4.18,0 7.51,-1.05 9.99,-3.14 2.48,-2.09 3.72,-4.35 3.72,-6.79 0,-1.91 -0.63,-3.52 -1.89,-4.83 -1.26,-1.31 -2.85,-1.96 -4.77,-1.96 -1.65,0 -3.02,0.48 -4.12,1.43 -1.08,0.96 -1.63,2.14 -1.63,3.53 0,0.87 0.35,1.94 1.05,3.2 0.69,1.27 1.04,2.11 1.04,2.55 0,0.78 -0.22,1.35 -0.65,1.7 -0.69,0.61 -1.74,0.91 -3.14,0.91 -3.39,0 -6.48,-1.09 -9.27,-3.27 -3.57,-2.96 -6.83,-7.48 -9.79,-13.58 -1.4,-3.22 -4.05,-11.18 -7.97,-23.9 h 11.88"
             style="fill:#ff0000;fill-opacity:1;fill-rule:nonzero;stroke:none"
             transform="matrix(0.13333333,0,0,-0.13333333,-36,734.66667)"
             clip-path="url(#clipPath29)"
             id="path134" />
          <path
             d="m 4107.3,5090.44 c 2.7,-2.87 4.71,-5.7 6.01,-8.49 0.96,-2 2.57,-7.14 4.83,-15.41 l 7.19,10.71 c 1.91,2.61 4.22,5.09 6.92,7.45 2.7,2.35 5.09,3.96 7.18,4.83 1.3,0.61 2.74,0.91 4.31,0.91 2.35,0 4.22,-0.63 5.62,-1.89 1.39,-1.26 2.09,-2.81 2.09,-4.64 0,-2 -0.39,-3.39 -1.18,-4.18 -1.57,-1.39 -3.31,-2.09 -5.22,-2.09 -1.13,0 -2.35,0.27 -3.66,0.79 -2.61,0.87 -4.35,1.3 -5.23,1.3 -1.3,0 -2.82,-0.78 -4.56,-2.35 -3.4,-2.78 -7.45,-8.23 -12.15,-16.32 l 6.66,-28.08 c 1.04,-4.35 1.91,-6.94 2.61,-7.77 0.7,-0.83 1.44,-1.25 2.22,-1.25 1.13,0 2.44,0.61 3.92,1.83 3.05,2.53 5.62,5.8 7.71,9.8 l 2.87,-1.44 c -3.49,-6.44 -7.84,-11.75 -13.06,-15.93 -3.05,-2.44 -5.57,-3.66 -7.58,-3.66 -3.05,0 -5.48,1.7 -7.31,5.1 -1.13,2.17 -3.49,11.32 -7.06,27.42 -8.53,-14.71 -15.36,-24.2 -20.5,-28.47 -3.31,-2.7 -6.48,-4.05 -9.53,-4.05 -2.18,0 -4.18,0.79 -6.01,2.35 -1.3,1.22 -1.96,2.83 -1.96,4.84 0,1.82 0.59,3.33 1.76,4.5 1.18,1.18 2.69,1.77 4.51,1.77 1.75,0 3.57,-0.88 5.49,-2.62 1.39,-1.22 2.48,-1.83 3.26,-1.83 0.7,0 1.53,0.44 2.48,1.31 2.62,2.09 6.12,6.55 10.52,13.39 4.39,6.83 7.28,11.77 8.68,14.82 -3.39,13.23 -5.22,20.24 -5.48,21.03 -1.31,3.48 -2.96,5.96 -4.97,7.44 -2,1.48 -4.96,2.22 -8.88,2.22 -1.21,0 -2.65,-0.04 -4.31,-0.13 v 2.87 l 21.81,3.92"
             style="fill:#ff0000;fill-opacity:1;fill-rule:nonzero;stroke:none"
             transform="matrix(0.13333333,0,0,-0.13333333,-36,734.66667)"
             clip-path="url(#clipPath30)"
             id="path135" />
          <path
             d="m 4053.13,4986.93 -2.43,-3.84 c -20.59,12.79 -30.9,38.36 -30.9,76.73 v -3.01 c 0,38.5 10.31,64.07 30.9,76.73 l 2.43,-3.63 c -9.16,-7.81 -15.29,-18.78 -18.38,-32.92 -1.89,-8.76 -2.83,-21.14 -2.83,-37.17 v -3.01 c 0,-15.89 0.94,-28.22 2.83,-36.97 3.09,-14.13 9.22,-25.11 18.38,-32.91"
             style="fill:#ff0000;fill-opacity:1;fill-rule:nonzero;stroke:none"
             transform="matrix(0.13333333,0,0,-0.13333333,-36,734.66667)"
             clip-path="url(#clipPath31)"
             id="path136" />
          <path
             d="m 4170.26,5129.7 2.42,3.84 c 20.6,-12.79 30.9,-38.37 30.9,-76.73 v 3.01 c 0,-38.5 -10.3,-64.08 -30.9,-76.73 l -2.42,3.63 c 9.15,7.81 15.28,18.78 18.37,32.92 1.89,8.75 2.83,21.14 2.83,37.17 v 3.01 c 0,15.89 -0.94,28.22 -2.83,36.97 -3.09,14.13 -9.22,25.1 -18.37,32.91"
             style="fill:#ff0000;fill-opacity:1;fill-rule:nonzero;stroke:none"
             transform="matrix(0.13333333,0,0,-0.13333333,-36,734.66667)"
             clip-path="url(#clipPath32)"
             id="path137" />
        </g>
        <g
           clip-path="url(#clipPath40)"
           id="g143">
          <path
             d="m 4456.01,4129.22 c 1.91,-3.21 3.21,-6.2 3.92,-8.94 0.69,-2.74 1.38,-8.12 2.09,-16.13 l 3.65,-40.22 c 3.22,3.91 7.92,10.14 14.11,18.67 3.04,4.1 6.74,9.71 11.1,16.85 2.7,4.35 4.35,7.4 4.96,9.14 0.34,0.87 0.52,1.79 0.52,2.75 0,0.6 -0.19,1.08 -0.59,1.43 -0.39,0.35 -1.39,0.78 -3,1.31 -1.61,0.52 -2.94,1.48 -3.98,2.87 -1.05,1.39 -1.58,3 -1.58,4.84 0,2.17 0.67,3.96 1.97,5.34 1.3,1.4 2.92,2.09 4.83,2.09 2.44,0 4.48,-1 6.14,-3 1.65,-2 2.48,-4.74 2.48,-8.23 0,-4.26 -1.45,-9.16 -4.37,-14.69 -2.92,-5.53 -8.58,-14.01 -16.99,-25.46 -8.39,-11.45 -18.56,-23.93 -30.49,-37.43 -8.18,-9.3 -14.26,-15.16 -18.22,-17.55 -3.96,-2.4 -7.37,-3.6 -10.25,-3.6 -1.65,0 -3.13,0.63 -4.43,1.9 -1.32,1.26 -1.97,2.72 -1.97,4.37 0,2.17 0.89,4.14 2.68,5.88 1.79,1.73 3.72,2.61 5.81,2.61 1.05,0 1.92,-0.27 2.61,-0.79 0.44,-0.25 0.92,-1.02 1.44,-2.28 0.53,-1.27 1,-2.11 1.44,-2.54 0.35,-0.27 0.69,-0.4 1.04,-0.4 0.35,0 0.91,0.26 1.7,0.79 2.96,1.82 6.44,4.74 10.44,8.74 5.23,5.4 9.11,9.75 11.63,13.07 l -4.57,51.84 c -0.79,8.53 -1.94,13.72 -3.46,15.54 -1.52,1.83 -4.07,2.75 -7.64,2.75 -1.14,0 -3.17,-0.13 -6.14,-0.39 l -0.78,3 23.9,5.87"
             style="fill:#000000;fill-opacity:1;fill-rule:nonzero;stroke:none"
             transform="matrix(0.13333333,0,0,-0.13333333,-36,734.66667)"
             clip-path="url(#clipPath34)"
             id="path138" />
          <path
             d="m 4541.03,4127.39 h 88.15 v -6.65 h -88.15 z m 0,-26.64 h 88.15 v -6.66 h -88.15 v 6.66"
             style="fill:#000000;fill-opacity:1;fill-rule:nonzero;stroke:none"
             transform="matrix(0.13333333,0,0,-0.13333333,-36,734.66667)"
             clip-path="url(#clipPath35)"
             id="path139" />
          <path
             d="m 4708.71,4129.22 -5.6,-18.8 c 5.91,6.97 11.21,11.84 15.86,14.62 4.66,2.8 9.43,4.18 14.3,4.18 4.79,0 8.9,-1.91 12.34,-5.74 3.44,-3.84 5.16,-8.84 5.16,-15.02 0,-12.02 -4.88,-24.21 -14.62,-36.57 -9.76,-12.36 -21.08,-18.54 -33.96,-18.54 -2.79,0 -5.23,0.31 -7.31,0.91 -2.09,0.61 -4.45,1.65 -7.06,3.13 l -5.88,-21.02 c -1.22,-4.18 -1.82,-6.88 -1.82,-8.1 0,-1.22 0.3,-2.24 0.91,-3.07 0.61,-0.82 1.63,-1.48 3.07,-1.95 1.44,-0.49 4.24,-0.72 8.42,-0.72 l -0.78,-3.01 h -38.4 l 0.79,3.01 c 5.05,0.26 8.46,1.15 10.25,2.67 1.78,1.52 3.64,5.73 5.55,12.61 l 20.64,71.56 c 1.3,4.53 1.95,7.32 1.95,8.36 0,1.48 -0.43,2.63 -1.3,3.46 -0.87,0.83 -2.18,1.25 -3.92,1.25 -1.57,0 -3.75,-0.22 -6.53,-0.65 v 3.25 z m -18.93,-65.29 c 3.31,-4.1 7.83,-6.14 13.59,-6.14 2.78,0 5.65,0.8 8.61,2.41 2.96,1.61 5.84,3.96 8.62,7.05 2.79,3.1 5.32,6.67 7.58,10.71 2.26,4.06 4.27,8.82 6,14.3 1.75,5.49 2.62,10.94 2.62,16.33 0,4.35 -0.98,7.69 -2.94,9.99 -1.96,2.31 -4.29,3.46 -6.99,3.46 -5.92,0 -11.73,-3.37 -17.44,-10.12 -5.7,-6.74 -9.9,-14.61 -12.59,-23.57 l -7.06,-24.42"
             style="fill:#000000;fill-opacity:1;fill-rule:nonzero;stroke:none"
             transform="matrix(0.13333333,0,0,-0.13333333,-36,734.66667)"
             clip-path="url(#clipPath36)"
             id="path140" />
          <path
             d="m 4867.92,4129.22 c 2.7,-2.87 4.71,-5.7 6.01,-8.48 0.96,-2.01 2.56,-7.15 4.83,-15.41 l 7.19,10.71 c 1.91,2.61 4.22,5.09 6.92,7.44 2.7,2.35 5.09,3.97 7.18,4.83 1.3,0.61 2.74,0.91 4.31,0.91 2.35,0 4.22,-0.62 5.62,-1.88 1.38,-1.27 2.09,-2.81 2.09,-4.64 0,-2.01 -0.39,-3.4 -1.18,-4.18 -1.57,-1.4 -3.31,-2.09 -5.23,-2.09 -1.12,0 -2.34,0.26 -3.66,0.78 -2.61,0.87 -4.34,1.31 -5.22,1.31 -1.3,0 -2.83,-0.79 -4.57,-2.35 -3.4,-2.79 -7.44,-8.24 -12.15,-16.33 l 6.66,-28.08 c 1.05,-4.35 1.92,-6.95 2.62,-7.76 0.7,-0.83 1.44,-1.25 2.21,-1.25 1.14,0 2.45,0.61 3.93,1.83 3.05,2.53 5.61,5.79 7.7,9.8 l 2.88,-1.44 c -3.49,-6.45 -7.84,-11.75 -13.07,-15.93 -3.04,-2.44 -5.56,-3.66 -7.57,-3.66 -3.05,0 -5.48,1.69 -7.31,5.09 -1.13,2.18 -3.49,11.32 -7.06,27.43 -8.53,-14.72 -15.36,-24.21 -20.5,-28.48 -3.31,-2.69 -6.49,-4.04 -9.53,-4.04 -2.18,0 -4.18,0.78 -6.01,2.35 -1.3,1.21 -1.96,2.83 -1.96,4.83 0,1.83 0.59,3.33 1.76,4.51 1.18,1.17 2.68,1.75 4.51,1.75 1.74,0 3.57,-0.86 5.49,-2.6 1.39,-1.23 2.48,-1.83 3.26,-1.83 0.7,0 1.53,0.43 2.48,1.3 2.61,2.09 6.12,6.55 10.51,13.39 4.4,6.84 7.29,11.78 8.69,14.82 -3.39,13.24 -5.23,20.24 -5.48,21.03 -1.31,3.49 -2.97,5.97 -4.97,7.45 -2.01,1.48 -4.96,2.21 -8.88,2.21 -1.22,0 -2.65,-0.04 -4.31,-0.12 v 2.86 l 21.81,3.92"
             style="fill:#000000;fill-opacity:1;fill-rule:nonzero;stroke:none"
             transform="matrix(0.13333333,0,0,-0.13333333,-36,734.66667)"
             clip-path="url(#clipPath37)"
             id="path141" />
          <path
             d="m 4813.74,4025.71 -2.42,-3.84 c -20.6,12.79 -30.9,38.36 -30.9,76.73 v -3.01 c 0,38.5 10.3,64.07 30.9,76.73 l 2.42,-3.64 c -9.15,-7.8 -15.28,-18.78 -18.37,-32.91 -1.89,-8.75 -2.83,-21.14 -2.83,-37.17 v -3.01 c 0,-15.89 0.94,-28.21 2.83,-36.96 3.09,-14.14 9.22,-25.11 18.37,-32.92"
             style="fill:#000000;fill-opacity:1;fill-rule:nonzero;stroke:none"
             transform="matrix(0.13333333,0,0,-0.13333333,-36,734.66667)"
             clip-path="url(#clipPath38)"
             id="path142" />
          <path
             d="m 4930.88,4168.48 2.42,3.84 c 20.59,-12.79 30.9,-38.37 30.9,-76.73 v 3.01 c 0,-38.5 -10.31,-64.08 -30.9,-76.73 l -2.42,3.63 c 9.15,7.81 15.28,18.79 18.37,32.92 1.89,8.75 2.83,21.14 2.83,37.17 v 3.01 c 0,15.89 -0.94,28.21 -2.83,36.97 -3.09,14.13 -9.22,25.11 -18.37,32.91"
             style="fill:#000000;fill-opacity:1;fill-rule:nonzero;stroke:none"
             transform="matrix(0.13333333,0,0,-0.13333333,-36,734.66667)"
             clip-path="url(#clipPath39)"
             id="path143" />
        </g>
        <g
           clip-path="url(#clipPath43)"
           id="g145">
          <path
             d="M 346.273,3569.95 H 5632.89"
             style="fill:none;stroke:#000000;stroke-width:8.35843;stroke-linecap:butt;stroke-linejoin:round;stroke-miterlimit:10;stroke-dasharray:none;stroke-opacity:1"
             transform="matrix(0.13333333,0,0,-0.13333333,-36,734.66667)"
             clip-path="url(#clipPath41)"
             id="path144" />
          <path
             d="m 346.273,3569.95 v -44.47"
             style="fill:none;stroke:#000000;stroke-width:1;stroke-linecap:butt;stroke-linejoin:round;stroke-miterlimit:10;stroke-dasharray:none;stroke-opacity:1"
             transform="matrix(0.13333333,0,0,-0.13333333,-36,734.66667)"
             clip-path="url(#clipPath42)"
             id="path145" />
        </g>
        <g
           clip-path="url(#clipPath45)"
           id="g146">
          <path
             d="m 278.621,3399.04 h 110.227 v 8.6172 H 278.621 Z"
             style="fill:#000000;fill-opacity:1;fill-rule:nonzero;stroke:none"
             transform="matrix(0.13333333,0,0,-0.13333333,-36,734.66667)"
             clip-path="url(#clipPath44)"
             id="path146" />
        </g>
        <g
           clip-path="url(#clipPath48)"
           id="g148">
          <path
             d="m 436.648,3394.07 v -11.62 h -14.89 v -29.26 h -13.449 v 29.26 h -46.887 v 10.44 l 51.328,73.27 h 9.008 v -72.09 z m -28.339,0 v 54.86 l -38.918,-54.86 h 38.918"
             style="fill:#000000;fill-opacity:1;fill-rule:nonzero;stroke:none"
             transform="matrix(0.13333333,0,0,-0.13333333,-36,734.66667)"
             clip-path="url(#clipPath46)"
             id="path147" />
          <path
             d="m 885.723,3569.95 v -44.47"
             style="fill:none;stroke:#000000;stroke-width:1;stroke-linecap:butt;stroke-linejoin:round;stroke-miterlimit:10;stroke-dasharray:none;stroke-opacity:1"
             transform="matrix(0.13333333,0,0,-0.13333333,-36,734.66667)"
             clip-path="url(#clipPath47)"
             id="path148" />
        </g>
        <g
           clip-path="url(#clipPath50)"
           id="g149">
          <path
             d="m 821.918,3399.04 h 110.227 v 8.6172 H 821.918 Z"
             style="fill:#000000;fill-opacity:1;fill-rule:nonzero;stroke:none"
             transform="matrix(0.13333333,0,0,-0.13333333,-36,734.66667)"
             clip-path="url(#clipPath49)"
             id="path149" />
        </g>
        <g
           clip-path="url(#clipPath53)"
           id="g151">
          <path
             d="m 910.598,3442.79 c 3.132,7.49 7.117,13.25 11.949,17.31 4.832,4.04 10.816,6.06 17.957,6.06 8.883,0 15.715,-2.87 20.504,-8.61 3.57,-4.35 5.355,-8.97 5.355,-13.84 0,-8.02 -5.05,-16.33 -15.148,-24.95 6.789,-2.7 11.926,-6.51 15.41,-11.43 3.484,-4.92 5.223,-10.73 5.223,-17.44 0,-9.57 -3.047,-17.89 -9.141,-24.94 -7.922,-9.14 -19.461,-13.71 -34.609,-13.71 -7.403,0 -12.45,0.93 -15.149,2.81 -2.699,1.87 -4.051,3.85 -4.051,5.94 0,1.56 0.633,2.96 1.895,4.18 1.262,1.22 2.809,1.83 4.637,1.83 1.394,0 2.785,-0.22 4.179,-0.65 0.871,-0.35 2.938,-1.37 6.204,-3.08 3.265,-1.7 5.55,-2.72 6.855,-3.07 2.004,-0.61 4.137,-0.91 6.398,-0.91 5.575,0 10.407,2.16 14.5,6.46 4.09,4.32 6.137,9.43 6.137,15.35 0,4.27 -0.957,8.45 -2.875,12.54 -1.39,3.05 -2.914,5.36 -4.57,6.92 -2.352,2.18 -5.57,4.16 -9.664,5.94 -4.094,1.79 -8.27,2.68 -12.539,2.68 h -2.61 v 2.35 c 4.352,0.61 8.684,2.18 12.993,4.7 4.312,2.52 7.445,5.6 9.406,9.21 1.957,3.61 2.937,7.56 2.937,11.82 0,5.66 -1.742,10.2 -5.222,13.65 -3.485,3.43 -7.836,5.16 -13.063,5.16 -8.445,0 -15.496,-4.53 -21.156,-13.59 l -2.742,1.31"
             style="fill:#000000;fill-opacity:1;fill-rule:nonzero;stroke:none"
             transform="matrix(0.13333333,0,0,-0.13333333,-36,734.66667)"
             clip-path="url(#clipPath51)"
             id="path150" />
          <path
             d="m 1425.17,3569.95 v -44.47"
             style="fill:none;stroke:#000000;stroke-width:1;stroke-linecap:butt;stroke-linejoin:round;stroke-miterlimit:10;stroke-dasharray:none;stroke-opacity:1"
             transform="matrix(0.13333333,0,0,-0.13333333,-36,734.66667)"
             clip-path="url(#clipPath52)"
             id="path151" />
        </g>
        <g
           clip-path="url(#clipPath55)"
           id="g152">
          <path
             d="m 1356.86,3399.04 h 110.223 v 8.6172 H 1356.86 Z"
             style="fill:#000000;fill-opacity:1;fill-rule:nonzero;stroke:none"
             transform="matrix(0.13333333,0,0,-0.13333333,-36,734.66667)"
             clip-path="url(#clipPath54)"
             id="path152" />
        </g>
        <g
           clip-path="url(#clipPath58)"
           id="g154">
          <path
             d="m 1513.7,3374.48 -7.7,-21.29 h -65.3 v 3.01 c 19.16,17.5 32.65,31.81 40.49,42.91 7.83,11.1 11.75,21.26 11.75,30.49 0,7.05 -2.15,12.82 -6.46,17.3 -4.31,4.49 -9.43,6.73 -15.35,6.73 -5.49,0 -10.38,-1.59 -14.69,-4.77 -4.31,-3.17 -7.51,-7.81 -9.6,-13.9 h -3 c 1.39,10.01 4.89,17.71 10.51,23.11 5.62,5.39 12.65,8.09 21.09,8.09 8.97,0 16.45,-2.87 22.47,-8.61 6,-5.75 9.01,-12.54 9.01,-20.38 0,-5.66 -1.31,-11.28 -3.92,-16.84 -4.01,-8.79 -10.54,-18.16 -19.6,-28.09 -13.58,-14.8 -22.02,-23.72 -25.33,-26.77 h 28.86 c 5.84,0 9.95,0.22 12.35,0.66 2.39,0.43 4.54,1.32 6.46,2.68 1.91,1.34 3.57,3.24 4.96,5.67 h 3"
             style="fill:#000000;fill-opacity:1;fill-rule:nonzero;stroke:none"
             transform="matrix(0.13333333,0,0,-0.13333333,-36,734.66667)"
             clip-path="url(#clipPath56)"
             id="path153" />
          <path
             d="m 1964.63,3569.95 v -44.47"
             style="fill:none;stroke:#000000;stroke-width:1;stroke-linecap:butt;stroke-linejoin:round;stroke-miterlimit:10;stroke-dasharray:none;stroke-opacity:1"
             transform="matrix(0.13333333,0,0,-0.13333333,-36,734.66667)"
             clip-path="url(#clipPath57)"
             id="path154" />
        </g>
        <g
           clip-path="url(#clipPath60)"
           id="g155">
          <path
             d="m 1900.16,3399.04 h 110.223 v 8.6172 H 1900.16 Z"
             style="fill:#000000;fill-opacity:1;fill-rule:nonzero;stroke:none"
             transform="matrix(0.13333333,0,0,-0.13333333,-36,734.66667)"
             clip-path="url(#clipPath59)"
             id="path155" />
        </g>
        <g
           clip-path="url(#clipPath86)"
           id="g180">
          <path
             d="m 1999.93,3452.98 26.91,13.18 h 2.74 v -93.5 c 0,-6.18 0.26,-10.04 0.78,-11.56 0.52,-1.53 1.59,-2.7 3.21,-3.53 1.6,-0.82 4.93,-1.28 9.98,-1.37 v -3.01 h -41.66 v 3.01 c 5.23,0.09 8.6,0.55 10.13,1.37 1.52,0.83 2.59,1.89 3.19,3.2 0.61,1.31 0.92,5.27 0.92,11.89 v 59.81 c 0,8.01 -0.26,13.19 -0.79,15.54 -0.43,1.75 -1.15,3.01 -2.15,3.79 -1.01,0.78 -2.2,1.18 -3.59,1.18 -2.01,0 -4.84,-0.83 -8.49,-2.49 l -1.18,2.49"
             style="fill:#000000;fill-opacity:1;fill-rule:nonzero;stroke:none"
             transform="matrix(0.13333333,0,0,-0.13333333,-36,734.66667)"
             clip-path="url(#clipPath61)"
             id="path156" />
          <path
             d="m 2504.07,3569.95 v -44.47"
             style="fill:none;stroke:#000000;stroke-width:1;stroke-linecap:butt;stroke-linejoin:round;stroke-miterlimit:10;stroke-dasharray:none;stroke-opacity:1"
             transform="matrix(0.13333333,0,0,-0.13333333,-36,734.66667)"
             clip-path="url(#clipPath62)"
             id="path157" />
          <path
             d="m 2404.27,3424.63 c 0,12.63 1.91,23.49 5.75,32.59 3.83,9.1 8.88,15.87 15.14,20.3 4.97,3.58 10.06,5.36 15.29,5.36 8.44,0 16.06,-4.31 22.85,-12.93 8.36,-10.7 12.54,-25.25 12.54,-43.62 0,-12.88 -1.85,-23.81 -5.55,-32.78 -3.7,-8.96 -8.4,-15.48 -14.11,-19.52 -5.7,-4.05 -11.25,-6.08 -16.64,-6.08 -10.54,0 -19.33,6.23 -26.38,18.68 -5.93,10.54 -8.89,23.2 -8.89,38 z m 16.07,-2.09 c 0,-15.24 1.87,-27.64 5.61,-37.22 3.14,-8.18 7.75,-12.28 13.84,-12.28 2.96,0 6.01,1.34 9.15,3.99 3.13,2.66 5.53,7.07 7.18,13.26 2.53,9.4 3.79,22.59 3.79,39.57 0,12.63 -1.31,23.16 -3.92,31.61 -2.01,6.27 -4.53,10.71 -7.57,13.32 -2.27,1.82 -4.97,2.73 -8.1,2.73 -3.75,0 -7.05,-1.64 -9.93,-4.95 -3.91,-4.53 -6.57,-11.65 -7.96,-21.36 -1.39,-9.7 -2.09,-19.26 -2.09,-28.67"
             style="fill:#000000;fill-opacity:1;fill-rule:nonzero;stroke:none"
             transform="matrix(0.13333333,0,0,-0.13333333,-36,734.66667)"
             clip-path="url(#clipPath63)"
             id="path158" />
          <path
             d="m 3043.52,3569.95 v -44.47"
             style="fill:none;stroke:#000000;stroke-width:1;stroke-linecap:butt;stroke-linejoin:round;stroke-miterlimit:10;stroke-dasharray:none;stroke-opacity:1"
             transform="matrix(0.13333333,0,0,-0.13333333,-36,734.66667)"
             clip-path="url(#clipPath64)"
             id="path159" />
          <path
             d="m 3019.66,3452.98 26.91,13.18 h 2.74 v -93.5 c 0,-6.18 0.26,-10.04 0.78,-11.56 0.52,-1.53 1.59,-2.7 3.2,-3.53 1.61,-0.82 4.94,-1.28 9.99,-1.37 v -3.01 h -41.65 v 3.01 c 5.22,0.09 8.58,0.55 10.12,1.37 1.52,0.83 2.59,1.89 3.19,3.2 0.61,1.31 0.92,5.27 0.92,11.89 v 59.81 c 0,8.01 -0.26,13.19 -0.79,15.54 -0.43,1.75 -1.15,3.01 -2.16,3.79 -1,0.78 -2.19,1.18 -3.58,1.18 -2.01,0 -4.84,-0.83 -8.49,-2.49 l -1.18,2.49"
             style="fill:#000000;fill-opacity:1;fill-rule:nonzero;stroke:none"
             transform="matrix(0.13333333,0,0,-0.13333333,-36,734.66667)"
             clip-path="url(#clipPath65)"
             id="path160" />
          <path
             d="m 3582.98,3569.95 v -44.47"
             style="fill:none;stroke:#000000;stroke-width:1;stroke-linecap:butt;stroke-linejoin:round;stroke-miterlimit:10;stroke-dasharray:none;stroke-opacity:1"
             transform="matrix(0.13333333,0,0,-0.13333333,-36,734.66667)"
             clip-path="url(#clipPath66)"
             id="path161" />
          <path
             d="m 3611.67,3374.48 -7.7,-21.29 h -65.3 v 3.01 c 19.15,17.5 32.65,31.81 40.49,42.91 7.83,11.1 11.75,21.26 11.75,30.49 0,7.05 -2.16,12.82 -6.46,17.3 -4.32,4.49 -9.43,6.73 -15.35,6.73 -5.49,0 -10.39,-1.59 -14.69,-4.77 -4.32,-3.17 -7.52,-7.81 -9.61,-13.9 h -3 c 1.4,10.01 4.9,17.71 10.52,23.11 5.61,5.39 12.64,8.09 21.09,8.09 8.97,0 16.45,-2.87 22.46,-8.61 6.01,-5.75 9.01,-12.54 9.01,-20.38 0,-5.66 -1.3,-11.28 -3.92,-16.84 -4,-8.79 -10.53,-18.16 -19.59,-28.09 -13.58,-14.8 -22.02,-23.72 -25.33,-26.77 h 28.86 c 5.83,0 9.94,0.22 12.34,0.66 2.39,0.43 4.55,1.32 6.46,2.68 1.92,1.34 3.57,3.24 4.97,5.67 h 3"
             style="fill:#000000;fill-opacity:1;fill-rule:nonzero;stroke:none"
             transform="matrix(0.13333333,0,0,-0.13333333,-36,734.66667)"
             clip-path="url(#clipPath67)"
             id="path162" />
          <path
             d="m 4122.42,3569.95 v -44.47"
             style="fill:none;stroke:#000000;stroke-width:1;stroke-linecap:butt;stroke-linejoin:round;stroke-miterlimit:10;stroke-dasharray:none;stroke-opacity:1"
             transform="matrix(0.13333333,0,0,-0.13333333,-36,734.66667)"
             clip-path="url(#clipPath68)"
             id="path163" />
          <path
             d="m 4086.8,3442.79 c 3.13,7.49 7.12,13.25 11.95,17.31 4.83,4.04 10.82,6.06 17.95,6.06 8.89,0 15.73,-2.87 20.51,-8.61 3.58,-4.35 5.36,-8.97 5.36,-13.84 0,-8.02 -5.05,-16.33 -15.15,-24.95 6.79,-2.7 11.93,-6.51 15.4,-11.43 3.49,-4.92 5.23,-10.73 5.23,-17.44 0,-9.57 -3.05,-17.89 -9.14,-24.94 -7.92,-9.14 -19.46,-13.71 -34.61,-13.71 -7.4,0 -12.46,0.93 -15.16,2.81 -2.69,1.87 -4.04,3.85 -4.04,5.94 0,1.56 0.63,2.96 1.9,4.18 1.26,1.22 2.8,1.83 4.63,1.83 1.39,0 2.79,-0.22 4.18,-0.65 0.87,-0.35 2.94,-1.37 6.2,-3.08 3.27,-1.7 5.56,-2.72 6.86,-3.07 2,-0.61 4.14,-0.91 6.4,-0.91 5.57,0 10.4,2.16 14.5,6.46 4.09,4.32 6.13,9.43 6.13,15.35 0,4.27 -0.95,8.45 -2.87,12.54 -1.39,3.05 -2.92,5.36 -4.57,6.92 -2.35,2.18 -5.57,4.16 -9.67,5.94 -4.08,1.79 -8.26,2.68 -12.54,2.68 h -2.6 v 2.35 c 4.35,0.61 8.68,2.18 12.99,4.7 4.31,2.52 7.45,5.6 9.4,9.21 1.96,3.61 2.94,7.56 2.94,11.82 0,5.66 -1.74,10.2 -5.22,13.65 -3.49,3.43 -7.83,5.16 -13.06,5.16 -8.45,0 -15.5,-4.53 -21.16,-13.59 l -2.74,1.31"
             style="fill:#000000;fill-opacity:1;fill-rule:nonzero;stroke:none"
             transform="matrix(0.13333333,0,0,-0.13333333,-36,734.66667)"
             clip-path="url(#clipPath69)"
             id="path164" />
          <path
             d="m 4661.88,3569.95 v -44.47"
             style="fill:none;stroke:#000000;stroke-width:1;stroke-linecap:butt;stroke-linejoin:round;stroke-miterlimit:10;stroke-dasharray:none;stroke-opacity:1"
             transform="matrix(0.13333333,0,0,-0.13333333,-36,734.66667)"
             clip-path="url(#clipPath70)"
             id="path165" />
          <path
             d="m 4691.09,3394.07 v -11.62 h -14.89 v -29.26 h -13.46 v 29.26 h -46.88 v 10.44 l 51.33,73.27 h 9.01 v -72.09 z m -28.35,0 v 54.86 l -38.91,-54.86 h 38.91"
             style="fill:#000000;fill-opacity:1;fill-rule:nonzero;stroke:none"
             transform="matrix(0.13333333,0,0,-0.13333333,-36,734.66667)"
             clip-path="url(#clipPath71)"
             id="path166" />
          <path
             d="m 5201.33,3569.95 v -44.47"
             style="fill:none;stroke:#000000;stroke-width:1;stroke-linecap:butt;stroke-linejoin:round;stroke-miterlimit:10;stroke-dasharray:none;stroke-opacity:1"
             transform="matrix(0.13333333,0,0,-0.13333333,-36,734.66667)"
             clip-path="url(#clipPath72)"
             id="path167" />
          <path
             d="m 5229.16,3463.94 -6.4,-13.96 h -33.3 l -7.32,-14.77 c 14.46,-2.17 25.91,-7.57 34.35,-16.19 7.23,-7.4 10.84,-16.11 10.84,-26.13 0,-5.74 -1.17,-11.09 -3.53,-16.05 -2.35,-4.96 -5.33,-9.19 -8.94,-12.67 -3.61,-3.49 -7.64,-6.31 -12.08,-8.49 -6.18,-2.97 -12.58,-4.44 -19.2,-4.44 -6.62,0 -11.45,1.13 -14.49,3.39 -3.05,2.26 -4.57,4.75 -4.57,7.45 0,1.56 0.62,2.94 1.89,4.11 1.26,1.18 2.85,1.76 4.77,1.76 1.39,0 2.63,-0.21 3.72,-0.65 1.08,-0.43 2.89,-1.57 5.42,-3.39 4.09,-2.87 8.23,-4.32 12.41,-4.32 6.35,0 11.94,2.42 16.77,7.25 4.84,4.83 7.26,10.69 7.26,17.57 0,6.71 -2.16,12.95 -6.47,18.74 -4.31,5.8 -10.25,10.3 -17.83,13.52 -5.92,2.44 -14.02,3.83 -24.29,4.18 l 21.29,43.09 h 39.7"
             style="fill:#000000;fill-opacity:1;fill-rule:nonzero;stroke:none"
             transform="matrix(0.13333333,0,0,-0.13333333,-36,734.66667)"
             clip-path="url(#clipPath73)"
             id="path168" />
          <path
             d="m 615.996,3569.95 v -22.23"
             style="fill:none;stroke:#000000;stroke-width:1;stroke-linecap:butt;stroke-linejoin:round;stroke-miterlimit:10;stroke-dasharray:none;stroke-opacity:1"
             transform="matrix(0.13333333,0,0,-0.13333333,-36,734.66667)"
             clip-path="url(#clipPath74)"
             id="path169" />
          <path
             d="m 1155.45,3569.95 v -22.23"
             style="fill:none;stroke:#000000;stroke-width:1;stroke-linecap:butt;stroke-linejoin:round;stroke-miterlimit:10;stroke-dasharray:none;stroke-opacity:1"
             transform="matrix(0.13333333,0,0,-0.13333333,-36,734.66667)"
             clip-path="url(#clipPath75)"
             id="path170" />
          <path
             d="m 1694.9,3569.95 v -22.23"
             style="fill:none;stroke:#000000;stroke-width:1;stroke-linecap:butt;stroke-linejoin:round;stroke-miterlimit:10;stroke-dasharray:none;stroke-opacity:1"
             transform="matrix(0.13333333,0,0,-0.13333333,-36,734.66667)"
             clip-path="url(#clipPath76)"
             id="path171" />
          <path
             d="m 2234.35,3569.95 v -22.23"
             style="fill:none;stroke:#000000;stroke-width:1;stroke-linecap:butt;stroke-linejoin:round;stroke-miterlimit:10;stroke-dasharray:none;stroke-opacity:1"
             transform="matrix(0.13333333,0,0,-0.13333333,-36,734.66667)"
             clip-path="url(#clipPath77)"
             id="path172" />
          <path
             d="m 2773.8,3569.95 v -22.23"
             style="fill:none;stroke:#000000;stroke-width:1;stroke-linecap:butt;stroke-linejoin:round;stroke-miterlimit:10;stroke-dasharray:none;stroke-opacity:1"
             transform="matrix(0.13333333,0,0,-0.13333333,-36,734.66667)"
             clip-path="url(#clipPath78)"
             id="path173" />
          <path
             d="m 3313.25,3569.95 v -22.23"
             style="fill:none;stroke:#000000;stroke-width:1;stroke-linecap:butt;stroke-linejoin:round;stroke-miterlimit:10;stroke-dasharray:none;stroke-opacity:1"
             transform="matrix(0.13333333,0,0,-0.13333333,-36,734.66667)"
             clip-path="url(#clipPath79)"
             id="path174" />
          <path
             d="m 3852.7,3569.95 v -22.23"
             style="fill:none;stroke:#000000;stroke-width:1;stroke-linecap:butt;stroke-linejoin:round;stroke-miterlimit:10;stroke-dasharray:none;stroke-opacity:1"
             transform="matrix(0.13333333,0,0,-0.13333333,-36,734.66667)"
             clip-path="url(#clipPath80)"
             id="path175" />
          <path
             d="m 4392.15,3569.95 v -22.23"
             style="fill:none;stroke:#000000;stroke-width:1;stroke-linecap:butt;stroke-linejoin:round;stroke-miterlimit:10;stroke-dasharray:none;stroke-opacity:1"
             transform="matrix(0.13333333,0,0,-0.13333333,-36,734.66667)"
             clip-path="url(#clipPath81)"
             id="path176" />
          <path
             d="m 4931.6,3569.95 v -22.23"
             style="fill:none;stroke:#000000;stroke-width:1;stroke-linecap:butt;stroke-linejoin:round;stroke-miterlimit:10;stroke-dasharray:none;stroke-opacity:1"
             transform="matrix(0.13333333,0,0,-0.13333333,-36,734.66667)"
             clip-path="url(#clipPath82)"
             id="path177" />
          <path
             d="m 5471.05,3569.95 v -22.23"
             style="fill:none;stroke:#000000;stroke-width:1;stroke-linecap:butt;stroke-linejoin:round;stroke-miterlimit:10;stroke-dasharray:none;stroke-opacity:1"
             transform="matrix(0.13333333,0,0,-0.13333333,-36,734.66667)"
             clip-path="url(#clipPath83)"
             id="path178" />
          <path
             d="M 2504.07,2339.25 V 5484.38"
             style="fill:none;stroke:#000000;stroke-width:8.35843;stroke-linecap:butt;stroke-linejoin:round;stroke-miterlimit:10;stroke-dasharray:none;stroke-opacity:1"
             transform="matrix(0.13333333,0,0,-0.13333333,-36,734.66667)"
             clip-path="url(#clipPath84)"
             id="path179" />
          <path
             d="M 2504.07,2475.99 H 2459.6"
             style="fill:none;stroke:#000000;stroke-width:1;stroke-linecap:butt;stroke-linejoin:round;stroke-miterlimit:10;stroke-dasharray:none;stroke-opacity:1"
             transform="matrix(0.13333333,0,0,-0.13333333,-36,734.66667)"
             clip-path="url(#clipPath85)"
             id="path180" />
        </g>
        <g
           clip-path="url(#clipPath88)"
           id="g181">
          <path
             d="m 1925.23,2462.89 h 110.223 v 8.6172 H 1925.23 Z"
             style="fill:#000000;fill-opacity:1;fill-rule:nonzero;stroke:none"
             transform="matrix(0.13333333,0,0,-0.13333333,-36,734.66667)"
             clip-path="url(#clipPath87)"
             id="path181" />
        </g>
        <g
           clip-path="url(#clipPath91)"
           id="g183">
          <path
             d="m 2083.25,2457.93 v -11.63 h -14.88 v -29.25 h -13.46 v 29.25 h -46.88 v 10.45 l 51.33,73.27 h 9.01 v -72.09 z m -28.34,0 v 54.86 L 2016,2457.93 Z m 40.1,13.84 c 0,12.63 1.91,23.49 5.75,32.59 3.83,9.09 8.88,15.87 15.14,20.3 4.97,3.58 10.06,5.36 15.28,5.36 8.45,0 16.07,-4.31 22.86,-12.93 8.36,-10.71 12.54,-25.25 12.54,-43.62 0,-12.88 -1.85,-23.81 -5.55,-32.77 -3.7,-8.97 -8.4,-15.49 -14.11,-19.53 -5.7,-4.05 -11.25,-6.08 -16.65,-6.08 -10.53,0 -19.32,6.23 -26.38,18.68 -5.93,10.53 -8.88,23.2 -8.88,38 z m 16.06,-2.09 c 0,-15.23 1.88,-27.64 5.62,-37.22 3.13,-8.18 7.75,-12.28 13.84,-12.28 2.96,0 6.01,1.33 9.15,3.99 3.13,2.66 5.53,7.07 7.18,13.26 2.53,9.4 3.79,22.59 3.79,39.57 0,12.63 -1.31,23.16 -3.92,31.61 -2.01,6.27 -4.53,10.7 -7.57,13.31 -2.27,1.83 -4.97,2.74 -8.1,2.74 -3.75,0 -7.06,-1.64 -9.93,-4.95 -3.92,-4.53 -6.57,-11.66 -7.97,-21.36 -1.39,-9.7 -2.09,-19.26 -2.09,-28.67 z m 67.52,2.09 c 0,12.63 1.92,23.49 5.75,32.59 3.83,9.09 8.88,15.87 15.15,20.3 4.96,3.58 10.05,5.36 15.28,5.36 8.45,0 16.06,-4.31 22.86,-12.93 8.35,-10.71 12.53,-25.25 12.53,-43.62 0,-12.88 -1.85,-23.81 -5.55,-32.77 -3.7,-8.97 -8.4,-15.49 -14.1,-19.53 -5.71,-4.05 -11.26,-6.08 -16.65,-6.08 -10.54,0 -19.33,6.23 -26.38,18.68 -5.93,10.53 -8.89,23.2 -8.89,38 z m 16.07,-2.09 c 0,-15.23 1.87,-27.64 5.61,-37.22 3.14,-8.18 7.75,-12.28 13.85,-12.28 2.95,0 6.01,1.33 9.14,3.99 3.13,2.66 5.53,7.07 7.18,13.26 2.53,9.4 3.79,22.59 3.79,39.57 0,12.63 -1.31,23.16 -3.92,31.61 -2,6.27 -4.52,10.7 -7.57,13.31 -2.26,1.83 -4.96,2.74 -8.1,2.74 -3.74,0 -7.05,-1.64 -9.93,-4.95 -3.91,-4.53 -6.57,-11.66 -7.96,-21.36 -1.39,-9.7 -2.09,-19.26 -2.09,-28.67 z m 67.52,2.09 c 0,12.63 1.91,23.49 5.75,32.59 3.82,9.09 8.87,15.87 15.14,20.3 4.97,3.58 10.06,5.36 15.28,5.36 8.45,0 16.07,-4.31 22.86,-12.93 8.36,-10.71 12.54,-25.25 12.54,-43.62 0,-12.88 -1.86,-23.81 -5.55,-32.77 -3.7,-8.97 -8.4,-15.49 -14.11,-19.53 -5.7,-4.05 -11.25,-6.08 -16.65,-6.08 -10.53,0 -19.32,6.23 -26.38,18.68 -5.92,10.53 -8.88,23.2 -8.88,38 z m 16.06,-2.09 c 0,-15.23 1.87,-27.64 5.62,-37.22 3.13,-8.18 7.75,-12.28 13.84,-12.28 2.96,0 6.01,1.33 9.14,3.99 3.14,2.66 5.54,7.07 7.18,13.26 2.53,9.4 3.8,22.59 3.8,39.57 0,12.63 -1.31,23.16 -3.92,31.61 -2.01,6.27 -4.53,10.7 -7.58,13.31 -2.26,1.83 -4.96,2.74 -8.09,2.74 -3.75,0 -7.06,-1.64 -9.93,-4.95 -3.92,-4.53 -6.57,-11.66 -7.97,-21.36 -1.39,-9.7 -2.09,-19.26 -2.09,-28.67 z m 67.52,2.09 c 0,12.63 1.92,23.49 5.75,32.59 3.83,9.09 8.88,15.87 15.15,20.3 4.96,3.58 10.05,5.36 15.28,5.36 8.45,0 16.06,-4.31 22.86,-12.93 8.36,-10.71 12.53,-25.25 12.53,-43.62 0,-12.88 -1.85,-23.81 -5.54,-32.77 -3.71,-8.97 -8.41,-15.49 -14.11,-19.53 -5.71,-4.05 -11.25,-6.08 -16.66,-6.08 -10.53,0 -19.32,6.23 -26.38,18.68 -5.92,10.53 -8.88,23.2 -8.88,38 z m 16.06,-2.09 c 0,-15.23 1.88,-27.64 5.62,-37.22 3.14,-8.18 7.75,-12.28 13.85,-12.28 2.95,0 6,1.33 9.14,3.99 3.13,2.66 5.53,7.07 7.18,13.26 2.53,9.4 3.79,22.59 3.79,39.57 0,12.63 -1.31,23.16 -3.92,31.61 -2,6.27 -4.53,10.7 -7.57,13.31 -2.27,1.83 -4.96,2.74 -8.1,2.74 -3.74,0 -7.05,-1.64 -9.93,-4.95 -3.91,-4.53 -6.57,-11.66 -7.97,-21.36 -1.38,-9.7 -2.09,-19.26 -2.09,-28.67"
             style="fill:#000000;fill-opacity:1;fill-rule:nonzero;stroke:none"
             transform="matrix(0.13333333,0,0,-0.13333333,-36,734.66667)"
             clip-path="url(#clipPath89)"
             id="path182" />
          <path
             d="M 2504.07,3022.97 H 2459.6"
             style="fill:none;stroke:#000000;stroke-width:1;stroke-linecap:butt;stroke-linejoin:round;stroke-miterlimit:10;stroke-dasharray:none;stroke-opacity:1"
             transform="matrix(0.13333333,0,0,-0.13333333,-36,734.66667)"
             clip-path="url(#clipPath90)"
             id="path183" />
        </g>
        <g
           clip-path="url(#clipPath93)"
           id="g184">
          <path
             d="m 1925.23,3006.19 h 110.223 v 8.6172 H 1925.23 Z"
             style="fill:#000000;fill-opacity:1;fill-rule:nonzero;stroke:none"
             transform="matrix(0.13333333,0,0,-0.13333333,-36,734.66667)"
             clip-path="url(#clipPath92)"
             id="path184" />
        </g>
        <g
           clip-path="url(#clipPath108)"
           id="g198">
          <path
             d="m 2082.08,2981.64 -7.7,-21.29 h -65.31 v 3.01 c 19.16,17.5 32.65,31.8 40.49,42.9 7.83,11.1 11.76,21.26 11.76,30.49 0,7.05 -2.16,12.82 -6.46,17.3 -4.32,4.49 -9.43,6.73 -15.35,6.73 -5.49,0 -10.39,-1.58 -14.7,-4.76 -4.31,-3.18 -7.51,-7.82 -9.6,-13.91 h -3 c 1.4,10.01 4.9,17.71 10.51,23.11 5.62,5.4 12.65,8.1 21.09,8.1 8.97,0 16.46,-2.87 22.47,-8.62 6.01,-5.75 9.01,-12.54 9.01,-20.38 0,-5.66 -1.31,-11.27 -3.92,-16.84 -4,-8.79 -10.53,-18.15 -19.59,-28.08 -13.58,-14.81 -22.03,-23.72 -25.34,-26.77 h 28.86 c 5.84,0 9.95,0.21 12.35,0.65 2.39,0.43 4.55,1.33 6.46,2.68 1.92,1.34 3.57,3.24 4.97,5.68 z m 12.93,33.43 c 0,12.63 1.91,23.48 5.75,32.59 3.83,9.09 8.88,15.86 15.14,20.3 4.97,3.58 10.06,5.36 15.28,5.36 8.45,0 16.07,-4.31 22.86,-12.93 8.36,-10.71 12.54,-25.25 12.54,-43.62 0,-12.88 -1.85,-23.82 -5.55,-32.78 -3.7,-8.97 -8.4,-15.48 -14.11,-19.52 -5.7,-4.06 -11.25,-6.08 -16.65,-6.08 -10.53,0 -19.32,6.23 -26.38,18.67 -5.93,10.54 -8.88,23.21 -8.88,38.01 z m 16.06,-2.09 c 0,-15.24 1.88,-27.64 5.62,-37.22 3.13,-8.18 7.75,-12.28 13.84,-12.28 2.96,0 6.01,1.33 9.15,3.99 3.13,2.66 5.53,7.07 7.18,13.25 2.53,9.41 3.79,22.6 3.79,39.57 0,12.63 -1.31,23.16 -3.92,31.62 -2.01,6.27 -4.53,10.7 -7.57,13.31 -2.27,1.83 -4.97,2.74 -8.1,2.74 -3.75,0 -7.06,-1.64 -9.93,-4.96 -3.92,-4.52 -6.57,-11.65 -7.97,-21.35 -1.39,-9.7 -2.09,-19.27 -2.09,-28.67 z m 67.52,2.09 c 0,12.63 1.92,23.48 5.75,32.59 3.83,9.09 8.88,15.86 15.15,20.3 4.96,3.58 10.05,5.36 15.28,5.36 8.45,0 16.06,-4.31 22.86,-12.93 8.35,-10.71 12.53,-25.25 12.53,-43.62 0,-12.88 -1.85,-23.82 -5.55,-32.78 -3.7,-8.97 -8.4,-15.48 -14.1,-19.52 -5.71,-4.06 -11.26,-6.08 -16.65,-6.08 -10.54,0 -19.33,6.23 -26.38,18.67 -5.93,10.54 -8.89,23.21 -8.89,38.01 z m 16.07,-2.09 c 0,-15.24 1.87,-27.64 5.61,-37.22 3.14,-8.18 7.75,-12.28 13.85,-12.28 2.95,0 6.01,1.33 9.14,3.99 3.13,2.66 5.53,7.07 7.18,13.25 2.53,9.41 3.79,22.6 3.79,39.57 0,12.63 -1.31,23.16 -3.92,31.62 -2,6.27 -4.52,10.7 -7.57,13.31 -2.26,1.83 -4.96,2.74 -8.1,2.74 -3.74,0 -7.05,-1.64 -9.93,-4.96 -3.91,-4.52 -6.57,-11.65 -7.96,-21.35 -1.39,-9.7 -2.09,-19.27 -2.09,-28.67 z m 67.52,2.09 c 0,12.63 1.91,23.48 5.75,32.59 3.82,9.09 8.87,15.86 15.14,20.3 4.97,3.58 10.06,5.36 15.28,5.36 8.45,0 16.07,-4.31 22.86,-12.93 8.36,-10.71 12.54,-25.25 12.54,-43.62 0,-12.88 -1.86,-23.82 -5.55,-32.78 -3.7,-8.97 -8.4,-15.48 -14.11,-19.52 -5.7,-4.06 -11.25,-6.08 -16.65,-6.08 -10.53,0 -19.32,6.23 -26.38,18.67 -5.92,10.54 -8.88,23.21 -8.88,38.01 z m 16.06,-2.09 c 0,-15.24 1.87,-27.64 5.62,-37.22 3.13,-8.18 7.75,-12.28 13.84,-12.28 2.96,0 6.01,1.33 9.14,3.99 3.14,2.66 5.54,7.07 7.18,13.25 2.53,9.41 3.8,22.6 3.8,39.57 0,12.63 -1.31,23.16 -3.92,31.62 -2.01,6.27 -4.53,10.7 -7.58,13.31 -2.26,1.83 -4.96,2.74 -8.09,2.74 -3.75,0 -7.06,-1.64 -9.93,-4.96 -3.92,-4.52 -6.57,-11.65 -7.97,-21.35 -1.39,-9.7 -2.09,-19.27 -2.09,-28.67 z m 67.52,2.09 c 0,12.63 1.92,23.48 5.75,32.59 3.83,9.09 8.88,15.86 15.15,20.3 4.96,3.58 10.05,5.36 15.28,5.36 8.45,0 16.06,-4.31 22.86,-12.93 8.36,-10.71 12.53,-25.25 12.53,-43.62 0,-12.88 -1.85,-23.82 -5.54,-32.78 -3.71,-8.97 -8.41,-15.48 -14.11,-19.52 -5.71,-4.06 -11.25,-6.08 -16.66,-6.08 -10.53,0 -19.32,6.23 -26.38,18.67 -5.92,10.54 -8.88,23.21 -8.88,38.01 z m 16.06,-2.09 c 0,-15.24 1.88,-27.64 5.62,-37.22 3.14,-8.18 7.75,-12.28 13.85,-12.28 2.95,0 6,1.33 9.14,3.99 3.13,2.66 5.53,7.07 7.18,13.25 2.53,9.41 3.79,22.6 3.79,39.57 0,12.63 -1.31,23.16 -3.92,31.62 -2,6.27 -4.53,10.7 -7.57,13.31 -2.27,1.83 -4.96,2.74 -8.1,2.74 -3.74,0 -7.05,-1.64 -9.93,-4.96 -3.91,-4.52 -6.57,-11.65 -7.97,-21.35 -1.38,-9.7 -2.09,-19.27 -2.09,-28.67"
             style="fill:#000000;fill-opacity:1;fill-rule:nonzero;stroke:none"
             transform="matrix(0.13333333,0,0,-0.13333333,-36,734.66667)"
             clip-path="url(#clipPath94)"
             id="path185" />
          <path
             d="M 2504.07,3569.95 H 2459.6"
             style="fill:none;stroke:#000000;stroke-width:1;stroke-linecap:butt;stroke-linejoin:round;stroke-miterlimit:10;stroke-dasharray:none;stroke-opacity:1"
             transform="matrix(0.13333333,0,0,-0.13333333,-36,734.66667)"
             clip-path="url(#clipPath95)"
             id="path186" />
          <path
             d="M 2504.07,4116.93 H 2459.6"
             style="fill:none;stroke:#000000;stroke-width:1;stroke-linecap:butt;stroke-linejoin:round;stroke-miterlimit:10;stroke-dasharray:none;stroke-opacity:1"
             transform="matrix(0.13333333,0,0,-0.13333333,-36,734.66667)"
             clip-path="url(#clipPath96)"
             id="path187" />
          <path
             d="m 2082.08,4076.59 -7.7,-21.29 h -65.31 v 3.01 c 19.16,17.5 32.65,31.8 40.49,42.9 7.83,11.11 11.76,21.27 11.76,30.5 0,7.05 -2.16,12.82 -6.46,17.3 -4.32,4.49 -9.43,6.73 -15.35,6.73 -5.49,0 -10.39,-1.59 -14.7,-4.77 -4.31,-3.17 -7.51,-7.81 -9.6,-13.91 h -3 c 1.4,10.02 4.9,17.72 10.51,23.12 5.62,5.39 12.65,8.09 21.09,8.09 8.97,0 16.46,-2.87 22.47,-8.61 6.01,-5.75 9.01,-12.54 9.01,-20.38 0,-5.66 -1.31,-11.28 -3.92,-16.84 -4,-8.8 -10.53,-18.16 -19.59,-28.09 -13.58,-14.8 -22.03,-23.72 -25.34,-26.77 h 28.86 c 5.84,0 9.95,0.22 12.35,0.65 2.39,0.44 4.55,1.33 6.46,2.68 1.92,1.35 3.57,3.25 4.97,5.68 z m 12.93,33.43 c 0,12.63 1.91,23.49 5.75,32.59 3.83,9.1 8.88,15.87 15.14,20.31 4.97,3.57 10.06,5.35 15.28,5.35 8.45,0 16.07,-4.31 22.86,-12.93 8.36,-10.7 12.54,-25.25 12.54,-43.62 0,-12.88 -1.85,-23.81 -5.55,-32.77 -3.7,-8.97 -8.4,-15.48 -14.11,-19.53 -5.7,-4.05 -11.25,-6.07 -16.65,-6.07 -10.53,0 -19.32,6.22 -26.38,18.67 -5.93,10.54 -8.88,23.2 -8.88,38 z m 16.06,-2.09 c 0,-15.23 1.88,-27.64 5.62,-37.22 3.13,-8.18 7.75,-12.27 13.84,-12.27 2.96,0 6.01,1.33 9.15,3.98 3.13,2.66 5.53,7.08 7.18,13.26 2.53,9.4 3.79,22.59 3.79,39.57 0,12.63 -1.31,23.16 -3.92,31.61 -2.01,6.27 -4.53,10.71 -7.57,13.32 -2.27,1.82 -4.97,2.74 -8.1,2.74 -3.75,0 -7.06,-1.65 -9.93,-4.96 -3.92,-4.53 -6.57,-11.65 -7.97,-21.35 -1.39,-9.71 -2.09,-19.27 -2.09,-28.68 z m 67.52,2.09 c 0,12.63 1.92,23.49 5.75,32.59 3.83,9.1 8.88,15.87 15.15,20.31 4.96,3.57 10.05,5.35 15.28,5.35 8.45,0 16.06,-4.31 22.86,-12.93 8.35,-10.7 12.53,-25.25 12.53,-43.62 0,-12.88 -1.85,-23.81 -5.55,-32.77 -3.7,-8.97 -8.4,-15.48 -14.1,-19.53 -5.71,-4.05 -11.26,-6.07 -16.65,-6.07 -10.54,0 -19.33,6.22 -26.38,18.67 -5.93,10.54 -8.89,23.2 -8.89,38 z m 16.07,-2.09 c 0,-15.23 1.87,-27.64 5.61,-37.22 3.14,-8.18 7.75,-12.27 13.85,-12.27 2.95,0 6.01,1.33 9.14,3.98 3.13,2.66 5.53,7.08 7.18,13.26 2.53,9.4 3.79,22.59 3.79,39.57 0,12.63 -1.31,23.16 -3.92,31.61 -2,6.27 -4.52,10.71 -7.57,13.32 -2.26,1.82 -4.96,2.74 -8.1,2.74 -3.74,0 -7.05,-1.65 -9.93,-4.96 -3.91,-4.53 -6.57,-11.65 -7.96,-21.35 -1.39,-9.71 -2.09,-19.27 -2.09,-28.68 z m 67.52,2.09 c 0,12.63 1.91,23.49 5.75,32.59 3.82,9.1 8.87,15.87 15.14,20.31 4.97,3.57 10.06,5.35 15.28,5.35 8.45,0 16.07,-4.31 22.86,-12.93 8.36,-10.7 12.54,-25.25 12.54,-43.62 0,-12.88 -1.86,-23.81 -5.55,-32.77 -3.7,-8.97 -8.4,-15.48 -14.11,-19.53 -5.7,-4.05 -11.25,-6.07 -16.65,-6.07 -10.53,0 -19.32,6.22 -26.38,18.67 -5.92,10.54 -8.88,23.2 -8.88,38 z m 16.06,-2.09 c 0,-15.23 1.87,-27.64 5.62,-37.22 3.13,-8.18 7.75,-12.27 13.84,-12.27 2.96,0 6.01,1.33 9.14,3.98 3.14,2.66 5.54,7.08 7.18,13.26 2.53,9.4 3.8,22.59 3.8,39.57 0,12.63 -1.31,23.16 -3.92,31.61 -2.01,6.27 -4.53,10.71 -7.58,13.32 -2.26,1.82 -4.96,2.74 -8.09,2.74 -3.75,0 -7.06,-1.65 -9.93,-4.96 -3.92,-4.53 -6.57,-11.65 -7.97,-21.35 -1.39,-9.71 -2.09,-19.27 -2.09,-28.68 z m 67.52,2.09 c 0,12.63 1.92,23.49 5.75,32.59 3.83,9.1 8.88,15.87 15.15,20.31 4.96,3.57 10.05,5.35 15.28,5.35 8.45,0 16.06,-4.31 22.86,-12.93 8.36,-10.7 12.53,-25.25 12.53,-43.62 0,-12.88 -1.85,-23.81 -5.54,-32.77 -3.71,-8.97 -8.41,-15.48 -14.11,-19.53 -5.71,-4.05 -11.25,-6.07 -16.66,-6.07 -10.53,0 -19.32,6.22 -26.38,18.67 -5.92,10.54 -8.88,23.2 -8.88,38 z m 16.06,-2.09 c 0,-15.23 1.88,-27.64 5.62,-37.22 3.14,-8.18 7.75,-12.27 13.85,-12.27 2.95,0 6,1.33 9.14,3.98 3.13,2.66 5.53,7.08 7.18,13.26 2.53,9.4 3.79,22.59 3.79,39.57 0,12.63 -1.31,23.16 -3.92,31.61 -2,6.27 -4.53,10.71 -7.57,13.32 -2.27,1.82 -4.96,2.74 -8.1,2.74 -3.74,0 -7.05,-1.65 -9.93,-4.96 -3.91,-4.53 -6.57,-11.65 -7.97,-21.35 -1.38,-9.71 -2.09,-19.27 -2.09,-28.68"
             style="fill:#000000;fill-opacity:1;fill-rule:nonzero;stroke:none"
             transform="matrix(0.13333333,0,0,-0.13333333,-36,734.66667)"
             clip-path="url(#clipPath97)"
             id="path188" />
          <path
             d="M 2504.07,4663.91 H 2459.6"
             style="fill:none;stroke:#000000;stroke-width:1;stroke-linecap:butt;stroke-linejoin:round;stroke-miterlimit:10;stroke-dasharray:none;stroke-opacity:1"
             transform="matrix(0.13333333,0,0,-0.13333333,-36,734.66667)"
             clip-path="url(#clipPath98)"
             id="path189" />
          <path
             d="m 2083.25,4639.48 v -11.62 h -14.88 v -29.26 h -13.46 v 29.26 h -46.88 v 10.44 l 51.33,73.27 h 9.01 v -72.09 z m -28.34,0 v 54.86 L 2016,4639.48 Z m 40.1,13.84 c 0,12.63 1.91,23.49 5.75,32.59 3.83,9.1 8.88,15.87 15.14,20.3 4.97,3.58 10.06,5.36 15.28,5.36 8.45,0 16.07,-4.31 22.86,-12.93 8.36,-10.71 12.54,-25.25 12.54,-43.62 0,-12.88 -1.85,-23.81 -5.55,-32.77 -3.7,-8.97 -8.4,-15.48 -14.11,-19.53 -5.7,-4.05 -11.25,-6.08 -16.65,-6.08 -10.53,0 -19.32,6.23 -26.38,18.68 -5.93,10.54 -8.88,23.2 -8.88,38 z m 16.06,-2.09 c 0,-15.23 1.88,-27.64 5.62,-37.22 3.13,-8.18 7.75,-12.28 13.84,-12.28 2.96,0 6.01,1.33 9.15,3.99 3.13,2.66 5.53,7.07 7.18,13.26 2.53,9.4 3.79,22.59 3.79,39.57 0,12.63 -1.31,23.16 -3.92,31.61 -2.01,6.27 -4.53,10.71 -7.57,13.31 -2.27,1.83 -4.97,2.74 -8.1,2.74 -3.75,0 -7.06,-1.64 -9.93,-4.95 -3.92,-4.53 -6.57,-11.65 -7.97,-21.36 -1.39,-9.7 -2.09,-19.26 -2.09,-28.67 z m 67.52,2.09 c 0,12.63 1.92,23.49 5.75,32.59 3.83,9.1 8.88,15.87 15.15,20.3 4.96,3.58 10.05,5.36 15.28,5.36 8.45,0 16.06,-4.31 22.86,-12.93 8.35,-10.71 12.53,-25.25 12.53,-43.62 0,-12.88 -1.85,-23.81 -5.55,-32.77 -3.7,-8.97 -8.4,-15.48 -14.1,-19.53 -5.71,-4.05 -11.26,-6.08 -16.65,-6.08 -10.54,0 -19.33,6.23 -26.38,18.68 -5.93,10.54 -8.89,23.2 -8.89,38 z m 16.07,-2.09 c 0,-15.23 1.87,-27.64 5.61,-37.22 3.14,-8.18 7.75,-12.28 13.85,-12.28 2.95,0 6.01,1.33 9.14,3.99 3.13,2.66 5.53,7.07 7.18,13.26 2.53,9.4 3.79,22.59 3.79,39.57 0,12.63 -1.31,23.16 -3.92,31.61 -2,6.27 -4.52,10.71 -7.57,13.31 -2.26,1.83 -4.96,2.74 -8.1,2.74 -3.74,0 -7.05,-1.64 -9.93,-4.95 -3.91,-4.53 -6.57,-11.65 -7.96,-21.36 -1.39,-9.7 -2.09,-19.26 -2.09,-28.67 z m 67.52,2.09 c 0,12.63 1.91,23.49 5.75,32.59 3.82,9.1 8.87,15.87 15.14,20.3 4.97,3.58 10.06,5.36 15.28,5.36 8.45,0 16.07,-4.31 22.86,-12.93 8.36,-10.71 12.54,-25.25 12.54,-43.62 0,-12.88 -1.86,-23.81 -5.55,-32.77 -3.7,-8.97 -8.4,-15.48 -14.11,-19.53 -5.7,-4.05 -11.25,-6.08 -16.65,-6.08 -10.53,0 -19.32,6.23 -26.38,18.68 -5.92,10.54 -8.88,23.2 -8.88,38 z m 16.06,-2.09 c 0,-15.23 1.87,-27.64 5.62,-37.22 3.13,-8.18 7.75,-12.28 13.84,-12.28 2.96,0 6.01,1.33 9.14,3.99 3.14,2.66 5.54,7.07 7.18,13.26 2.53,9.4 3.8,22.59 3.8,39.57 0,12.63 -1.31,23.16 -3.92,31.61 -2.01,6.27 -4.53,10.71 -7.58,13.31 -2.26,1.83 -4.96,2.74 -8.09,2.74 -3.75,0 -7.06,-1.64 -9.93,-4.95 -3.92,-4.53 -6.57,-11.65 -7.97,-21.36 -1.39,-9.7 -2.09,-19.26 -2.09,-28.67 z m 67.52,2.09 c 0,12.63 1.92,23.49 5.75,32.59 3.83,9.1 8.88,15.87 15.15,20.3 4.96,3.58 10.05,5.36 15.28,5.36 8.45,0 16.06,-4.31 22.86,-12.93 8.36,-10.71 12.53,-25.25 12.53,-43.62 0,-12.88 -1.85,-23.81 -5.54,-32.77 -3.71,-8.97 -8.41,-15.48 -14.11,-19.53 -5.71,-4.05 -11.25,-6.08 -16.66,-6.08 -10.53,0 -19.32,6.23 -26.38,18.68 -5.92,10.54 -8.88,23.2 -8.88,38 z m 16.06,-2.09 c 0,-15.23 1.88,-27.64 5.62,-37.22 3.14,-8.18 7.75,-12.28 13.85,-12.28 2.95,0 6,1.33 9.14,3.99 3.13,2.66 5.53,7.07 7.18,13.26 2.53,9.4 3.79,22.59 3.79,39.57 0,12.63 -1.31,23.16 -3.92,31.61 -2,6.27 -4.53,10.71 -7.57,13.31 -2.27,1.83 -4.96,2.74 -8.1,2.74 -3.74,0 -7.05,-1.64 -9.93,-4.95 -3.91,-4.53 -6.57,-11.65 -7.97,-21.36 -1.38,-9.7 -2.09,-19.26 -2.09,-28.67"
             style="fill:#000000;fill-opacity:1;fill-rule:nonzero;stroke:none"
             transform="matrix(0.13333333,0,0,-0.13333333,-36,734.66667)"
             clip-path="url(#clipPath99)"
             id="path190" />
          <path
             d="M 2504.07,5210.89 H 2459.6"
             style="fill:none;stroke:#000000;stroke-width:1;stroke-linecap:butt;stroke-linejoin:round;stroke-miterlimit:10;stroke-dasharray:none;stroke-opacity:1"
             transform="matrix(0.13333333,0,0,-0.13333333,-36,734.66667)"
             clip-path="url(#clipPath100)"
             id="path191" />
          <path
             d="m 2080.38,5263.23 v -3.01 c -7.22,-0.69 -13.1,-2.13 -17.63,-4.31 -4.53,-2.17 -9.01,-5.46 -13.45,-9.86 -4.44,-4.39 -8.12,-9.29 -11.04,-14.69 -2.92,-5.4 -5.33,-11.84 -7.24,-19.33 7.84,5.4 15.67,8.1 23.51,8.1 7.57,0 14.14,-3.05 19.72,-9.14 5.57,-6.1 8.36,-13.94 8.36,-23.51 0,-9.23 -2.84,-17.68 -8.5,-25.34 -6.7,-9.23 -15.62,-13.84 -26.77,-13.84 -7.57,0 -13.98,2.52 -19.2,7.57 -10.35,9.67 -15.54,22.29 -15.54,37.88 0,9.84 1.98,19.21 5.94,28.14 3.97,8.93 9.65,16.85 17.05,23.77 7.39,6.92 14.47,11.58 21.22,13.98 6.74,2.39 13.04,3.59 18.87,3.59 z m -50.8,-57.08 c -0.95,-7.4 -1.44,-13.36 -1.44,-17.89 0,-5.22 0.96,-10.88 2.88,-16.97 1.91,-6.1 4.78,-10.98 8.61,-14.63 2.8,-2.53 6.15,-3.79 10.06,-3.79 4.79,0 9.03,2.24 12.74,6.72 3.7,4.49 5.55,10.87 5.55,19.14 0,9.23 -1.85,17.26 -5.55,24.09 -3.71,6.84 -8.95,10.25 -15.74,10.25 -2.01,0 -4.21,-0.43 -6.6,-1.3 -2.39,-0.87 -5.9,-2.74 -10.51,-5.62 z m 65.43,-1.17 c 0,12.62 1.91,23.48 5.75,32.58 3.83,9.1 8.88,15.87 15.14,20.31 4.97,3.57 10.06,5.36 15.28,5.36 8.45,0 16.07,-4.31 22.86,-12.93 8.36,-10.71 12.54,-25.25 12.54,-43.62 0,-12.89 -1.85,-23.82 -5.55,-32.79 -3.7,-8.96 -8.4,-15.47 -14.11,-19.52 -5.7,-4.05 -11.25,-6.07 -16.65,-6.07 -10.53,0 -19.32,6.22 -26.38,18.67 -5.93,10.54 -8.88,23.21 -8.88,38.01 z m 16.06,-2.09 c 0,-15.24 1.88,-27.64 5.62,-37.22 3.13,-8.19 7.75,-12.28 13.84,-12.28 2.96,0 6.01,1.33 9.15,3.99 3.13,2.65 5.53,7.07 7.18,13.25 2.53,9.41 3.79,22.6 3.79,39.57 0,12.63 -1.31,23.16 -3.92,31.61 -2.01,6.27 -4.53,10.71 -7.57,13.32 -2.27,1.83 -4.97,2.74 -8.1,2.74 -3.75,0 -7.06,-1.65 -9.93,-4.96 -3.92,-4.53 -6.57,-11.64 -7.97,-21.36 -1.39,-9.7 -2.09,-19.26 -2.09,-28.66 z m 67.52,2.09 c 0,12.62 1.92,23.48 5.75,32.58 3.83,9.1 8.88,15.87 15.15,20.31 4.96,3.57 10.05,5.36 15.28,5.36 8.45,0 16.06,-4.31 22.86,-12.93 8.35,-10.71 12.53,-25.25 12.53,-43.62 0,-12.89 -1.85,-23.82 -5.55,-32.79 -3.7,-8.96 -8.4,-15.47 -14.1,-19.52 -5.71,-4.05 -11.26,-6.07 -16.65,-6.07 -10.54,0 -19.33,6.22 -26.38,18.67 -5.93,10.54 -8.89,23.21 -8.89,38.01 z m 16.07,-2.09 c 0,-15.24 1.87,-27.64 5.61,-37.22 3.14,-8.19 7.75,-12.28 13.85,-12.28 2.95,0 6.01,1.33 9.14,3.99 3.13,2.65 5.53,7.07 7.18,13.25 2.53,9.41 3.79,22.6 3.79,39.57 0,12.63 -1.31,23.16 -3.92,31.61 -2,6.27 -4.52,10.71 -7.57,13.32 -2.26,1.83 -4.96,2.74 -8.1,2.74 -3.74,0 -7.05,-1.65 -9.93,-4.96 -3.91,-4.53 -6.57,-11.64 -7.96,-21.36 -1.39,-9.7 -2.09,-19.26 -2.09,-28.66 z m 67.52,2.09 c 0,12.62 1.91,23.48 5.75,32.58 3.82,9.1 8.87,15.87 15.14,20.31 4.97,3.57 10.06,5.36 15.28,5.36 8.45,0 16.07,-4.31 22.86,-12.93 8.36,-10.71 12.54,-25.25 12.54,-43.62 0,-12.89 -1.86,-23.82 -5.55,-32.79 -3.7,-8.96 -8.4,-15.47 -14.11,-19.52 -5.7,-4.05 -11.25,-6.07 -16.65,-6.07 -10.53,0 -19.32,6.22 -26.38,18.67 -5.92,10.54 -8.88,23.21 -8.88,38.01 z m 16.06,-2.09 c 0,-15.24 1.87,-27.64 5.62,-37.22 3.13,-8.19 7.75,-12.28 13.84,-12.28 2.96,0 6.01,1.33 9.14,3.99 3.14,2.65 5.54,7.07 7.18,13.25 2.53,9.41 3.8,22.6 3.8,39.57 0,12.63 -1.31,23.16 -3.92,31.61 -2.01,6.27 -4.53,10.71 -7.58,13.32 -2.26,1.83 -4.96,2.74 -8.09,2.74 -3.75,0 -7.06,-1.65 -9.93,-4.96 -3.92,-4.53 -6.57,-11.64 -7.97,-21.36 -1.39,-9.7 -2.09,-19.26 -2.09,-28.66 z m 67.52,2.09 c 0,12.62 1.92,23.48 5.75,32.58 3.83,9.1 8.88,15.87 15.15,20.31 4.96,3.57 10.05,5.36 15.28,5.36 8.45,0 16.06,-4.31 22.86,-12.93 8.36,-10.71 12.53,-25.25 12.53,-43.62 0,-12.89 -1.85,-23.82 -5.54,-32.79 -3.71,-8.96 -8.41,-15.47 -14.11,-19.52 -5.71,-4.05 -11.25,-6.07 -16.66,-6.07 -10.53,0 -19.32,6.22 -26.38,18.67 -5.92,10.54 -8.88,23.21 -8.88,38.01 z m 16.06,-2.09 c 0,-15.24 1.88,-27.64 5.62,-37.22 3.14,-8.19 7.75,-12.28 13.85,-12.28 2.95,0 6,1.33 9.14,3.99 3.13,2.65 5.53,7.07 7.18,13.25 2.53,9.41 3.79,22.6 3.79,39.57 0,12.63 -1.31,23.16 -3.92,31.61 -2,6.27 -4.53,10.71 -7.57,13.32 -2.27,1.83 -4.96,2.74 -8.1,2.74 -3.74,0 -7.05,-1.65 -9.93,-4.96 -3.91,-4.53 -6.57,-11.64 -7.97,-21.36 -1.38,-9.7 -2.09,-19.26 -2.09,-28.66"
             style="fill:#000000;fill-opacity:1;fill-rule:nonzero;stroke:none"
             transform="matrix(0.13333333,0,0,-0.13333333,-36,734.66667)"
             clip-path="url(#clipPath101)"
             id="path192" />
          <path
             d="m 2504.07,2749.48 h -22.23"
             style="fill:none;stroke:#000000;stroke-width:1;stroke-linecap:butt;stroke-linejoin:round;stroke-miterlimit:10;stroke-dasharray:none;stroke-opacity:1"
             transform="matrix(0.13333333,0,0,-0.13333333,-36,734.66667)"
             clip-path="url(#clipPath102)"
             id="path193" />
          <path
             d="m 2504.07,3296.46 h -22.23"
             style="fill:none;stroke:#000000;stroke-width:1;stroke-linecap:butt;stroke-linejoin:round;stroke-miterlimit:10;stroke-dasharray:none;stroke-opacity:1"
             transform="matrix(0.13333333,0,0,-0.13333333,-36,734.66667)"
             clip-path="url(#clipPath103)"
             id="path194" />
          <path
             d="m 2504.07,3843.44 h -22.23"
             style="fill:none;stroke:#000000;stroke-width:1;stroke-linecap:butt;stroke-linejoin:round;stroke-miterlimit:10;stroke-dasharray:none;stroke-opacity:1"
             transform="matrix(0.13333333,0,0,-0.13333333,-36,734.66667)"
             clip-path="url(#clipPath104)"
             id="path195" />
          <path
             d="m 2504.07,4390.43 h -22.23"
             style="fill:none;stroke:#000000;stroke-width:1;stroke-linecap:butt;stroke-linejoin:round;stroke-miterlimit:10;stroke-dasharray:none;stroke-opacity:1"
             transform="matrix(0.13333333,0,0,-0.13333333,-36,734.66667)"
             clip-path="url(#clipPath105)"
             id="path196" />
          <path
             d="m 2504.07,4937.4 h -22.23"
             style="fill:none;stroke:#000000;stroke-width:1;stroke-linecap:butt;stroke-linejoin:round;stroke-miterlimit:10;stroke-dasharray:none;stroke-opacity:1"
             transform="matrix(0.13333333,0,0,-0.13333333,-36,734.66667)"
             clip-path="url(#clipPath106)"
             id="path197" />
          <path
             d="m 2504.07,5484.38 h -22.23"
             style="fill:none;stroke:#000000;stroke-width:1;stroke-linecap:butt;stroke-linejoin:round;stroke-miterlimit:10;stroke-dasharray:none;stroke-opacity:1"
             transform="matrix(0.13333333,0,0,-0.13333333,-36,734.66667)"
             clip-path="url(#clipPath107)"
             id="path198" />
        </g>
      </g>
    </g>
  </g>
</svg>
