<?xml version="1.0" encoding="UTF-8" standalone="no"?>
<!-- Created with Inkscape (http://www.inkscape.org/) -->

<svg
   version="1.1"
   id="svg1"
   width="705.33331"
   height="425.33334"
   viewBox="0 0 705.33331 425.33334"
   sodipodi:docname="taxi1.svg"
   inkscape:version="1.4.2 (f4327f4, 2025-05-13)"
   xmlns:inkscape="http://www.inkscape.org/namespaces/inkscape"
   xmlns:sodipodi="http://sodipodi.sourceforge.net/DTD/sodipodi-0.dtd"
   xmlns="http://www.w3.org/2000/svg"
   xmlns:svg="http://www.w3.org/2000/svg">
  <defs
     id="defs1">
    <clipPath
       clipPathUnits="userSpaceOnUse"
       id="clipPath1">
      <path
         d="M 0,0 H 612 V 792 H 0 Z"
         transform="matrix(10,0,0,10,2.5000001e-6,2.5000001e-5)"
         id="path1" />
    </clipPath>
    <clipPath
       clipPathUnits="userSpaceOnUse"
       id="clipPath2">
      <path
         d="M 449,2325 H 5650 V 5502 H 449 Z"
         transform="translate(2.5000001e-6,2.5000001e-5)"
         id="path2" />
    </clipPath>
    <clipPath
       clipPathUnits="userSpaceOnUse"
       id="clipPath3">
      <path
         d="M 0,0 H 612 V 792 H 0 Z"
         transform="matrix(1.3333333,0,0,-1.3333333,-50.666667,734.66667)"
         id="path3" />
    </clipPath>
    <clipPath
       clipPathUnits="userSpaceOnUse"
       id="clipPath4">
      <path
         d="m 241.793,2325.11 h 5466.41 V 5584.9 H 241.793 Z"
         transform="translate(2.5000001e-6,2.5000001e-5)"
         id="path4" />
    </clipPath>
    <clipPath
       clipPathUnits="userSpaceOnUse"
       id="clipPath5">
      <path
         d="m 241.793,2325.11 h 5466.41 V 5584.9 H 241.793 Z"
         transform="translate(2.5000001e-6,2.5000001e-5)"
         id="path5" />
    </clipPath>
    <clipPath
       clipPathUnits="userSpaceOnUse"
       id="clipPath6">
      <path
         d="m 241.793,2325.11 h 5466.41 V 5584.9 H 241.793 Z"
         transform="translate(2.5000001e-6,2.5000001e-5)"
         id="path6" />
    </clipPath>
    <clipPath
       clipPathUnits="userSpaceOnUse"
       id="clipPath7">
      <path
         d="m 241.793,2325.11 h 5466.41 V 5584.9 H 241.793 Z"
         transform="translate(2.5000001e-6,2.5000001e-5)"
         id="path7" />
    </clipPath>
    <clipPath
       clipPathUnits="userSpaceOnUse"
       id="clipPath8">
      <path
         d="m 241.793,2325.11 h 5466.41 V 5584.9 H 241.793 Z"
         transform="translate(2.5000001e-6,2.5000001e-5)"
         id="path8" />
    </clipPath>
    <clipPath
       clipPathUnits="userSpaceOnUse"
       id="clipPath9">
      <path
         d="m 241.793,2325.11 h 5466.41 V 5584.9 H 241.793 Z"
         transform="translate(2.5000001e-6,2.5000001e-5)"
         id="path9" />
    </clipPath>
    <clipPath
       clipPathUnits="userSpaceOnUse"
       id="clipPath10">
      <path
         d="m 241.793,2325.11 h 5466.41 V 5584.9 H 241.793 Z"
         transform="translate(2.5000001e-6,2.5000001e-5)"
         id="path10" />
    </clipPath>
    <clipPath
       clipPathUnits="userSpaceOnUse"
       id="clipPath11">
      <path
         d="m 241.793,2325.11 h 5466.41 V 5584.9 H 241.793 Z"
         transform="translate(2.5000001e-6,2.5000001e-5)"
         id="path11" />
    </clipPath>
    <clipPath
       clipPathUnits="userSpaceOnUse"
       id="clipPath12">
      <path
         d="m 241.793,2325.11 h 5466.41 V 5584.9 H 241.793 Z"
         transform="translate(2.5000001e-6,2.5000001e-5)"
         id="path12" />
    </clipPath>
    <clipPath
       clipPathUnits="userSpaceOnUse"
       id="clipPath13">
      <path
         d="m 241.793,2325.11 h 5466.41 V 5584.9 H 241.793 Z"
         transform="translate(2.5000001e-6,2.5000001e-5)"
         id="path13" />
    </clipPath>
    <clipPath
       clipPathUnits="userSpaceOnUse"
       id="clipPath14">
      <path
         d="m 241.793,2325.11 h 5466.41 V 5584.9 H 241.793 Z"
         transform="translate(2.5000001e-6,2.5000001e-5)"
         id="path14" />
    </clipPath>
    <clipPath
       clipPathUnits="userSpaceOnUse"
       id="clipPath15">
      <path
         d="m 241.793,2325.11 h 5466.41 V 5584.9 H 241.793 Z"
         transform="translate(2.5000001e-6,2.5000001e-5)"
         id="path15" />
    </clipPath>
    <clipPath
       clipPathUnits="userSpaceOnUse"
       id="clipPath16">
      <path
         d="m 241.793,2325.11 h 5466.41 V 5584.9 H 241.793 Z"
         transform="translate(2.5000001e-6,2.5000001e-5)"
         id="path16" />
    </clipPath>
    <clipPath
       clipPathUnits="userSpaceOnUse"
       id="clipPath17">
      <path
         d="m 241.793,2325.11 h 5466.41 V 5584.9 H 241.793 Z"
         transform="translate(2.5000001e-6,2.5000001e-5)"
         id="path17" />
    </clipPath>
    <clipPath
       clipPathUnits="userSpaceOnUse"
       id="clipPath18">
      <path
         d="m 241.793,2325.11 h 5466.41 V 5584.9 H 241.793 Z"
         transform="translate(2.5000001e-6,2.5000001e-5)"
         id="path18" />
    </clipPath>
    <clipPath
       clipPathUnits="userSpaceOnUse"
       id="clipPath19">
      <path
         d="m 241.793,2325.11 h 5466.41 V 5584.9 H 241.793 Z"
         transform="translate(2.5000001e-6,2.5000001e-5)"
         id="path19" />
    </clipPath>
    <clipPath
       clipPathUnits="userSpaceOnUse"
       id="clipPath20">
      <path
         d="M 0,0 H 612 V 792 H 0 Z"
         transform="matrix(1.3333333,0,0,-1.3333333,-50.666667,734.66667)"
         id="path20" />
    </clipPath>
    <clipPath
       clipPathUnits="userSpaceOnUse"
       id="clipPath21">
      <path
         d="m 5557.76,3386.63 h 133.734 v 192.242 H 5557.76 Z"
         transform="translate(2.5000001e-6,2.5000001e-5)"
         id="path21" />
    </clipPath>
    <clipPath
       clipPathUnits="userSpaceOnUse"
       id="clipPath22">
      <path
         d="M 0,0 H 612 V 792 H 0 Z"
         transform="matrix(1.3333333,0,0,-1.3333333,-50.666667,734.66667)"
         id="path22" />
    </clipPath>
    <clipPath
       clipPathUnits="userSpaceOnUse"
       id="clipPath23">
      <path
         d="m 810.164,5392.65 h 133.738 v 192.242 H 810.164 Z"
         transform="translate(2.5000001e-6,2.5000001e-5)"
         id="path23" />
    </clipPath>
    <clipPath
       clipPathUnits="userSpaceOnUse"
       id="clipPath24">
      <path
         d="M 0,0 H 612 V 792 H 0 Z"
         transform="matrix(1.3333333,0,0,-1.3333333,-50.666667,734.66667)"
         id="path24" />
    </clipPath>
    <clipPath
       clipPathUnits="userSpaceOnUse"
       id="clipPath25">
      <path
         d="m 3685.47,4983.09 h 610.164 v 192.242 H 3685.47 Z"
         transform="translate(2.5000001e-6,2.5000001e-5)"
         id="path25" />
    </clipPath>
    <clipPath
       clipPathUnits="userSpaceOnUse"
       id="clipPath26">
      <path
         d="m 3685.47,4983.09 h 610.164 v 192.242 H 3685.47 Z"
         transform="translate(2.5000001e-6,2.5000001e-5)"
         id="path26" />
    </clipPath>
    <clipPath
       clipPathUnits="userSpaceOnUse"
       id="clipPath27">
      <path
         d="m 3685.47,4983.09 h 610.164 v 192.242 H 3685.47 Z"
         transform="translate(2.5000001e-6,2.5000001e-5)"
         id="path27" />
    </clipPath>
    <clipPath
       clipPathUnits="userSpaceOnUse"
       id="clipPath28">
      <path
         d="m 3685.47,4983.09 h 610.164 v 192.242 H 3685.47 Z"
         transform="translate(2.5000001e-6,2.5000001e-5)"
         id="path28" />
    </clipPath>
    <clipPath
       clipPathUnits="userSpaceOnUse"
       id="clipPath29">
      <path
         d="m 3685.47,4983.09 h 610.164 v 192.242 H 3685.47 Z"
         transform="translate(2.5000001e-6,2.5000001e-5)"
         id="path29" />
    </clipPath>
    <clipPath
       clipPathUnits="userSpaceOnUse"
       id="clipPath30">
      <path
         d="m 3685.47,4983.09 h 610.164 v 192.242 H 3685.47 Z"
         transform="translate(2.5000001e-6,2.5000001e-5)"
         id="path30" />
    </clipPath>
    <clipPath
       clipPathUnits="userSpaceOnUse"
       id="clipPath31">
      <path
         d="M 0,0 H 612 V 792 H 0 Z"
         transform="matrix(1.3333333,0,0,-1.3333333,-50.666667,734.66667)"
         id="path31" />
    </clipPath>
    <clipPath
       clipPathUnits="userSpaceOnUse"
       id="clipPath32">
      <path
         d="m 4421.01,4021.87 h 626.883 v 192.246 H 4421.01 Z"
         transform="translate(2.5000001e-6,2.5000001e-5)"
         id="path32" />
    </clipPath>
    <clipPath
       clipPathUnits="userSpaceOnUse"
       id="clipPath33">
      <path
         d="m 4421.01,4021.87 h 626.883 v 192.246 H 4421.01 Z"
         transform="translate(2.5000001e-6,2.5000001e-5)"
         id="path33" />
    </clipPath>
    <clipPath
       clipPathUnits="userSpaceOnUse"
       id="clipPath34">
      <path
         d="m 4421.01,4021.87 h 626.883 v 192.246 H 4421.01 Z"
         transform="translate(2.5000001e-6,2.5000001e-5)"
         id="path34" />
    </clipPath>
    <clipPath
       clipPathUnits="userSpaceOnUse"
       id="clipPath35">
      <path
         d="m 4421.01,4021.87 h 626.883 v 192.246 H 4421.01 Z"
         transform="translate(2.5000001e-6,2.5000001e-5)"
         id="path35" />
    </clipPath>
    <clipPath
       clipPathUnits="userSpaceOnUse"
       id="clipPath36">
      <path
         d="m 4421.01,4021.87 h 626.883 v 192.246 H 4421.01 Z"
         transform="translate(2.5000001e-6,2.5000001e-5)"
         id="path36" />
    </clipPath>
    <clipPath
       clipPathUnits="userSpaceOnUse"
       id="clipPath37">
      <path
         d="m 4421.01,4021.87 h 626.883 v 192.246 H 4421.01 Z"
         transform="translate(2.5000001e-6,2.5000001e-5)"
         id="path37" />
    </clipPath>
    <clipPath
       clipPathUnits="userSpaceOnUse"
       id="clipPath38">
      <path
         d="M 0,0 H 612 V 792 H 0 Z"
         transform="matrix(1.3333333,0,0,-1.3333333,-50.666667,734.66667)"
         id="path38" />
    </clipPath>
    <clipPath
       clipPathUnits="userSpaceOnUse"
       id="clipPath39">
      <path
         d="m 241.793,2325.11 h 5466.41 V 5584.9 H 241.793 Z"
         transform="translate(2.5000001e-6,2.5000001e-5)"
         id="path39" />
    </clipPath>
    <clipPath
       clipPathUnits="userSpaceOnUse"
       id="clipPath40">
      <path
         d="m 241.793,2325.11 h 5466.41 V 5584.9 H 241.793 Z"
         transform="translate(2.5000001e-6,2.5000001e-5)"
         id="path40" />
    </clipPath>
    <clipPath
       clipPathUnits="userSpaceOnUse"
       id="clipPath41">
      <path
         d="M 0,0 H 612 V 792 H 0 Z"
         transform="matrix(1.3333333,0,0,-1.3333333,-50.666667,734.66667)"
         id="path41" />
    </clipPath>
    <clipPath
       clipPathUnits="userSpaceOnUse"
       id="clipPath42">
      <path
         d="m 358.809,3311.4 h 83.5859 v 175.527 H 358.809 Z"
         transform="translate(2.5000001e-6,2.5000001e-5)"
         id="path42" />
    </clipPath>
    <clipPath
       clipPathUnits="userSpaceOnUse"
       id="clipPath43">
      <path
         d="M 0,0 H 612 V 792 H 0 Z"
         transform="matrix(1.3333333,0,0,-1.3333333,-50.666667,734.66667)"
         id="path43" />
    </clipPath>
    <clipPath
       clipPathUnits="userSpaceOnUse"
       id="clipPath44">
      <path
         d="m 241.793,2325.11 h 5466.41 V 5584.9 H 241.793 Z"
         transform="translate(2.5000001e-6,2.5000001e-5)"
         id="path44" />
    </clipPath>
    <clipPath
       clipPathUnits="userSpaceOnUse"
       id="clipPath45">
      <path
         d="m 241.793,2325.11 h 5466.41 V 5584.9 H 241.793 Z"
         transform="translate(2.5000001e-6,2.5000001e-5)"
         id="path45" />
    </clipPath>
    <clipPath
       clipPathUnits="userSpaceOnUse"
       id="clipPath46">
      <path
         d="m 241.793,2325.11 h 5466.41 V 5584.9 H 241.793 Z"
         transform="translate(2.5000001e-6,2.5000001e-5)"
         id="path46" />
    </clipPath>
    <clipPath
       clipPathUnits="userSpaceOnUse"
       id="clipPath47">
      <path
         d="m 241.793,2325.11 h 5466.41 V 5584.9 H 241.793 Z"
         transform="translate(2.5000001e-6,2.5000001e-5)"
         id="path47" />
    </clipPath>
    <clipPath
       clipPathUnits="userSpaceOnUse"
       id="clipPath48">
      <path
         d="m 241.793,2325.11 h 5466.41 V 5584.9 H 241.793 Z"
         transform="translate(2.5000001e-6,2.5000001e-5)"
         id="path48" />
    </clipPath>
    <clipPath
       clipPathUnits="userSpaceOnUse"
       id="clipPath49">
      <path
         d="m 241.793,2325.11 h 5466.41 V 5584.9 H 241.793 Z"
         transform="translate(2.5000001e-6,2.5000001e-5)"
         id="path49" />
    </clipPath>
    <clipPath
       clipPathUnits="userSpaceOnUse"
       id="clipPath50">
      <path
         d="m 241.793,2325.11 h 5466.41 V 5584.9 H 241.793 Z"
         transform="translate(2.5000001e-6,2.5000001e-5)"
         id="path50" />
    </clipPath>
    <clipPath
       clipPathUnits="userSpaceOnUse"
       id="clipPath51">
      <path
         d="m 241.793,2325.11 h 5466.41 V 5584.9 H 241.793 Z"
         transform="translate(2.5000001e-6,2.5000001e-5)"
         id="path51" />
    </clipPath>
    <clipPath
       clipPathUnits="userSpaceOnUse"
       id="clipPath52">
      <path
         d="m 241.793,2325.11 h 5466.41 V 5584.9 H 241.793 Z"
         transform="translate(2.5000001e-6,2.5000001e-5)"
         id="path52" />
    </clipPath>
    <clipPath
       clipPathUnits="userSpaceOnUse"
       id="clipPath53">
      <path
         d="m 241.793,2325.11 h 5466.41 V 5584.9 H 241.793 Z"
         transform="translate(2.5000001e-6,2.5000001e-5)"
         id="path53" />
    </clipPath>
    <clipPath
       clipPathUnits="userSpaceOnUse"
       id="clipPath54">
      <path
         d="m 241.793,2325.11 h 5466.41 V 5584.9 H 241.793 Z"
         transform="translate(2.5000001e-6,2.5000001e-5)"
         id="path54" />
    </clipPath>
    <clipPath
       clipPathUnits="userSpaceOnUse"
       id="clipPath55">
      <path
         d="m 241.793,2325.11 h 5466.41 V 5584.9 H 241.793 Z"
         transform="translate(2.5000001e-6,2.5000001e-5)"
         id="path55" />
    </clipPath>
    <clipPath
       clipPathUnits="userSpaceOnUse"
       id="clipPath56">
      <path
         d="m 241.793,2325.11 h 5466.41 V 5584.9 H 241.793 Z"
         transform="translate(2.5000001e-6,2.5000001e-5)"
         id="path56" />
    </clipPath>
    <clipPath
       clipPathUnits="userSpaceOnUse"
       id="clipPath57">
      <path
         d="m 241.793,2325.11 h 5466.41 V 5584.9 H 241.793 Z"
         transform="translate(2.5000001e-6,2.5000001e-5)"
         id="path57" />
    </clipPath>
    <clipPath
       clipPathUnits="userSpaceOnUse"
       id="clipPath58">
      <path
         d="m 241.793,2325.11 h 5466.41 V 5584.9 H 241.793 Z"
         transform="translate(2.5000001e-6,2.5000001e-5)"
         id="path58" />
    </clipPath>
    <clipPath
       clipPathUnits="userSpaceOnUse"
       id="clipPath59">
      <path
         d="m 241.793,2325.11 h 5466.41 V 5584.9 H 241.793 Z"
         transform="translate(2.5000001e-6,2.5000001e-5)"
         id="path59" />
    </clipPath>
    <clipPath
       clipPathUnits="userSpaceOnUse"
       id="clipPath60">
      <path
         d="m 241.793,2325.11 h 5466.41 V 5584.9 H 241.793 Z"
         transform="translate(2.5000001e-6,2.5000001e-5)"
         id="path60" />
    </clipPath>
    <clipPath
       clipPathUnits="userSpaceOnUse"
       id="clipPath61">
      <path
         d="m 241.793,2325.11 h 5466.41 V 5584.9 H 241.793 Z"
         transform="translate(2.5000001e-6,2.5000001e-5)"
         id="path61" />
    </clipPath>
    <clipPath
       clipPathUnits="userSpaceOnUse"
       id="clipPath62">
      <path
         d="m 241.793,2325.11 h 5466.41 V 5584.9 H 241.793 Z"
         transform="translate(2.5000001e-6,2.5000001e-5)"
         id="path62" />
    </clipPath>
    <clipPath
       clipPathUnits="userSpaceOnUse"
       id="clipPath63">
      <path
         d="m 241.793,2325.11 h 5466.41 V 5584.9 H 241.793 Z"
         transform="translate(2.5000001e-6,2.5000001e-5)"
         id="path63" />
    </clipPath>
    <clipPath
       clipPathUnits="userSpaceOnUse"
       id="clipPath64">
      <path
         d="m 241.793,2325.11 h 5466.41 V 5584.9 H 241.793 Z"
         transform="translate(2.5000001e-6,2.5000001e-5)"
         id="path64" />
    </clipPath>
    <clipPath
       clipPathUnits="userSpaceOnUse"
       id="clipPath65">
      <path
         d="m 241.793,2325.11 h 5466.41 V 5584.9 H 241.793 Z"
         transform="translate(2.5000001e-6,2.5000001e-5)"
         id="path65" />
    </clipPath>
    <clipPath
       clipPathUnits="userSpaceOnUse"
       id="clipPath66">
      <path
         d="m 241.793,2325.11 h 5466.41 V 5584.9 H 241.793 Z"
         transform="translate(2.5000001e-6,2.5000001e-5)"
         id="path66" />
    </clipPath>
    <clipPath
       clipPathUnits="userSpaceOnUse"
       id="clipPath67">
      <path
         d="m 241.793,2325.11 h 5466.41 V 5584.9 H 241.793 Z"
         transform="translate(2.5000001e-6,2.5000001e-5)"
         id="path67" />
    </clipPath>
    <clipPath
       clipPathUnits="userSpaceOnUse"
       id="clipPath68">
      <path
         d="m 241.793,2325.11 h 5466.41 V 5584.9 H 241.793 Z"
         transform="translate(2.5000001e-6,2.5000001e-5)"
         id="path68" />
    </clipPath>
    <clipPath
       clipPathUnits="userSpaceOnUse"
       id="clipPath69">
      <path
         d="m 241.793,2325.11 h 5466.41 V 5584.9 H 241.793 Z"
         transform="translate(2.5000001e-6,2.5000001e-5)"
         id="path69" />
    </clipPath>
    <clipPath
       clipPathUnits="userSpaceOnUse"
       id="clipPath70">
      <path
         d="m 241.793,2325.11 h 5466.41 V 5584.9 H 241.793 Z"
         transform="translate(2.5000001e-6,2.5000001e-5)"
         id="path70" />
    </clipPath>
    <clipPath
       clipPathUnits="userSpaceOnUse"
       id="clipPath71">
      <path
         d="m 241.793,2325.11 h 5466.41 V 5584.9 H 241.793 Z"
         transform="translate(2.5000001e-6,2.5000001e-5)"
         id="path71" />
    </clipPath>
    <clipPath
       clipPathUnits="userSpaceOnUse"
       id="clipPath72">
      <path
         d="m 241.793,2325.11 h 5466.41 V 5584.9 H 241.793 Z"
         transform="translate(2.5000001e-6,2.5000001e-5)"
         id="path72" />
    </clipPath>
    <clipPath
       clipPathUnits="userSpaceOnUse"
       id="clipPath73">
      <path
         d="m 241.793,2325.11 h 5466.41 V 5584.9 H 241.793 Z"
         transform="translate(2.5000001e-6,2.5000001e-5)"
         id="path73" />
    </clipPath>
    <clipPath
       clipPathUnits="userSpaceOnUse"
       id="clipPath74">
      <path
         d="m 241.793,2325.11 h 5466.41 V 5584.9 H 241.793 Z"
         transform="translate(2.5000001e-6,2.5000001e-5)"
         id="path74" />
    </clipPath>
    <clipPath
       clipPathUnits="userSpaceOnUse"
       id="clipPath75">
      <path
         d="M 0,0 H 612 V 792 H 0 Z"
         transform="matrix(1.3333333,0,0,-1.3333333,-50.666667,734.66667)"
         id="path75" />
    </clipPath>
    <clipPath
       clipPathUnits="userSpaceOnUse"
       id="clipPath76">
      <path
         d="m 383.887,2366.9 h 83.582 v 175.527 h -83.582 z"
         transform="translate(2.5000001e-6,2.5000001e-5)"
         id="path76" />
    </clipPath>
    <clipPath
       clipPathUnits="userSpaceOnUse"
       id="clipPath77">
      <path
         d="M 0,0 H 612 V 792 H 0 Z"
         transform="matrix(1.3333333,0,0,-1.3333333,-50.666667,734.66667)"
         id="path77" />
    </clipPath>
    <clipPath
       clipPathUnits="userSpaceOnUse"
       id="clipPath78">
      <path
         d="m 241.793,2325.11 h 5466.41 V 5584.9 H 241.793 Z"
         transform="translate(2.5000001e-6,2.5000001e-5)"
         id="path78" />
    </clipPath>
    <clipPath
       clipPathUnits="userSpaceOnUse"
       id="clipPath79">
      <path
         d="m 241.793,2325.11 h 5466.41 V 5584.9 H 241.793 Z"
         transform="translate(2.5000001e-6,2.5000001e-5)"
         id="path79" />
    </clipPath>
    <clipPath
       clipPathUnits="userSpaceOnUse"
       id="clipPath80">
      <path
         d="M 0,0 H 612 V 792 H 0 Z"
         transform="matrix(1.3333333,0,0,-1.3333333,-50.666667,734.66667)"
         id="path80" />
    </clipPath>
    <clipPath
       clipPathUnits="userSpaceOnUse"
       id="clipPath81">
      <path
         d="m 383.887,2918.55 h 83.582 v 175.527 h -83.582 z"
         transform="translate(2.5000001e-6,2.5000001e-5)"
         id="path81" />
    </clipPath>
    <clipPath
       clipPathUnits="userSpaceOnUse"
       id="clipPath82">
      <path
         d="M 0,0 H 612 V 792 H 0 Z"
         transform="matrix(1.3333333,0,0,-1.3333333,-50.666667,734.66667)"
         id="path82" />
    </clipPath>
    <clipPath
       clipPathUnits="userSpaceOnUse"
       id="clipPath83">
      <path
         d="m 241.793,2325.11 h 5466.41 V 5584.9 H 241.793 Z"
         transform="translate(2.5000001e-6,2.5000001e-5)"
         id="path83" />
    </clipPath>
    <clipPath
       clipPathUnits="userSpaceOnUse"
       id="clipPath84">
      <path
         d="m 241.793,2325.11 h 5466.41 V 5584.9 H 241.793 Z"
         transform="translate(2.5000001e-6,2.5000001e-5)"
         id="path84" />
    </clipPath>
    <clipPath
       clipPathUnits="userSpaceOnUse"
       id="clipPath85">
      <path
         d="m 241.793,2325.11 h 5466.41 V 5584.9 H 241.793 Z"
         transform="translate(2.5000001e-6,2.5000001e-5)"
         id="path85" />
    </clipPath>
    <clipPath
       clipPathUnits="userSpaceOnUse"
       id="clipPath86">
      <path
         d="m 241.793,2325.11 h 5466.41 V 5584.9 H 241.793 Z"
         transform="translate(2.5000001e-6,2.5000001e-5)"
         id="path86" />
    </clipPath>
    <clipPath
       clipPathUnits="userSpaceOnUse"
       id="clipPath87">
      <path
         d="m 241.793,2325.11 h 5466.41 V 5584.9 H 241.793 Z"
         transform="translate(2.5000001e-6,2.5000001e-5)"
         id="path87" />
    </clipPath>
    <clipPath
       clipPathUnits="userSpaceOnUse"
       id="clipPath88">
      <path
         d="m 241.793,2325.11 h 5466.41 V 5584.9 H 241.793 Z"
         transform="translate(2.5000001e-6,2.5000001e-5)"
         id="path88" />
    </clipPath>
    <clipPath
       clipPathUnits="userSpaceOnUse"
       id="clipPath89">
      <path
         d="m 241.793,2325.11 h 5466.41 V 5584.9 H 241.793 Z"
         transform="translate(2.5000001e-6,2.5000001e-5)"
         id="path89" />
    </clipPath>
    <clipPath
       clipPathUnits="userSpaceOnUse"
       id="clipPath90">
      <path
         d="m 241.793,2325.11 h 5466.41 V 5584.9 H 241.793 Z"
         transform="translate(2.5000001e-6,2.5000001e-5)"
         id="path90" />
    </clipPath>
    <clipPath
       clipPathUnits="userSpaceOnUse"
       id="clipPath91">
      <path
         d="m 241.793,2325.11 h 5466.41 V 5584.9 H 241.793 Z"
         transform="translate(2.5000001e-6,2.5000001e-5)"
         id="path91" />
    </clipPath>
    <clipPath
       clipPathUnits="userSpaceOnUse"
       id="clipPath92">
      <path
         d="m 241.793,2325.11 h 5466.41 V 5584.9 H 241.793 Z"
         transform="translate(2.5000001e-6,2.5000001e-5)"
         id="path92" />
    </clipPath>
    <clipPath
       clipPathUnits="userSpaceOnUse"
       id="clipPath93">
      <path
         d="m 241.793,2325.11 h 5466.41 V 5584.9 H 241.793 Z"
         transform="translate(2.5000001e-6,2.5000001e-5)"
         id="path93" />
    </clipPath>
    <clipPath
       clipPathUnits="userSpaceOnUse"
       id="clipPath94">
      <path
         d="m 241.793,2325.11 h 5466.41 V 5584.9 H 241.793 Z"
         transform="translate(2.5000001e-6,2.5000001e-5)"
         id="path94" />
    </clipPath>
    <clipPath
       clipPathUnits="userSpaceOnUse"
       id="clipPath95">
      <path
         d="m 241.793,2325.11 h 5466.41 V 5584.9 H 241.793 Z"
         transform="translate(2.5000001e-6,2.5000001e-5)"
         id="path95" />
    </clipPath>
    <clipPath
       clipPathUnits="userSpaceOnUse"
       id="clipPath96">
      <path
         d="m 241.793,2325.11 h 5466.41 V 5584.9 H 241.793 Z"
         transform="translate(2.5000001e-6,2.5000001e-5)"
         id="path96" />
    </clipPath>
    <clipPath
       clipPathUnits="userSpaceOnUse"
       id="clipPath97">
      <path
         d="M 0,0 H 612 V 792 H 0 Z"
         transform="matrix(1.3333333,0,0,-1.3333333,-50.666667,734.66667)"
         id="path97" />
    </clipPath>
    <clipPath
       clipPathUnits="userSpaceOnUse"
       id="clipPath98">
      <path
         d="M 0,0 H 529 V 319 H 0 Z"
         transform="matrix(1.3333333,0,0,-1.3333333,0,425.33333)"
         id="path98" />
    </clipPath>
  </defs>
  <sodipodi:namedview
     id="namedview1"
     pagecolor="#ffffff"
     bordercolor="#000000"
     borderopacity="0.25"
     inkscape:showpageshadow="2"
     inkscape:pageopacity="0.0"
     inkscape:pagecheckerboard="0"
     inkscape:deskcolor="#d1d1d1"
     inkscape:zoom="1.1826018"
     inkscape:cx="353.03513"
     inkscape:cy="212.66667"
     inkscape:window-width="1366"
     inkscape:window-height="705"
     inkscape:window-x="-8"
     inkscape:window-y="-8"
     inkscape:window-maximized="1"
     inkscape:current-layer="g1">
    <inkscape:page
       x="0"
       y="0"
       inkscape:label="1"
       id="page1"
       width="705.33331"
       height="425.33334"
       margin="0"
       bleed="0" />
  </sodipodi:namedview>
  <g
     id="g1"
     inkscape:groupmode="layer"
     inkscape:label="1">
    <g
       id="g184">
      <g
         clip-path="url(#clipPath98)"
         id="g183">
        <path
           d="M 200,2283.31 H 5750 V 5626.69 H 200 Z"
           style="fill:#ffffff;fill-opacity:1;fill-rule:nonzero;stroke:none"
           transform="matrix(0.13333333,0,0,-0.13333333,-50.666667,734.66667)"
           clip-path="url(#clipPath1)"
           id="path99" />
        <g
           clip-path="url(#clipPath3)"
           id="g100">
          <path
             d="m 775.141,3154.77 23.875,48.16 20.773,41.45 23.363,46.1 23.516,45.87 23.406,45.11 21.696,41.34 22.468,42.32 23.239,43.24 23.16,42.57 23.823,43.24 20.99,37.63 23.62,41.83 23.72,41.45 22.86,39.43 20.76,35.35 24.68,41.49 20.91,34.67 24.33,39.79 21.53,34.74 23.62,37.59 22.49,35.28 23.48,36.27 21.55,32.85 23.25,34.9 24.15,35.69 21.02,30.61 22.71,32.56 23.45,33.11 22.94,31.87 22.2,30.33 24.66,33.12 22.15,29.25 23.65,30.69 21.43,27.34 23.43,29.36 22.05,27.14 23.04,27.86 22.53,26.72 23.58,27.45 22.72,25.92 23.23,25.97 23.03,25.24 21.17,22.73 24.27,25.5 21.7,22.33 23.14,23.28 22.14,21.8 24.59,23.63 21.29,19.99 24.17,22.14 22.03,19.68 24.09,20.98 20.79,17.64 23.68,19.57 22.86,18.38 22.86,17.86 22.77,17.27 21.88,16.12 23.64,16.89 22.54,15.59 23.72,15.86 21.47,13.88 23.74,14.82 22.73,13.67 22.67,13.13 23.68,13.17 21.82,11.64 22.34,11.44 24.67,12.05 22.33,10.4 22.84,10.13 23.23,9.77 21.35,8.52 22.76,8.58 22.59,8.01 24.16,8.01 21.32,6.59 24.6,7.05 22.19,5.85 21.97,5.31 23.62,5.18 23.71,4.65 21.58,3.75 22.91,3.48 22.36,2.89 24.25,2.58 20.97,1.77 24.09,1.49 22.64,0.89 22.44,0.37 22.44,-0.12 22.89,-0.63 24.27,-1.23 22.25,-1.64 21.96,-2.11 23.47,-2.77 23.43,-3.3 21.03,-3.43 24.9,-4.62 20.85,-4.34 24.37,-5.61 23.27,-5.91 20.77,-5.73 23.36,-6.94 23.52,-7.54 23.41,-8.04 21.7,-7.94 22.46,-8.7 23.24,-9.53 23.16,-10.03 23.82,-10.87 20.99,-10.03 23.62,-11.81 23.72,-12.42 22.86,-12.49 20.77,-11.79 24.68,-14.57 20.91,-12.81 24.32,-15.45 21.53,-14.16 23.63,-16.06 22.49,-15.81 23.47,-17.01 21.56,-16.12 23.25,-17.88 24.15,-19.15 21.02,-17.14 22.7,-18.99 23.45,-20.16 22.95,-20.24 22.21,-20.08 24.64,-22.87 22.16,-21.05 23.64,-23.02 21.43,-21.33 23.43,-23.83 22.05,-22.93 23.04,-24.48 22.53,-24.44 23.59,-26.11 22.72,-25.67 23.22,-26.78 23.04,-27.08 21.17,-25.35 24.27,-29.59 21.69,-26.96 23.14,-29.26 22.15,-28.49 24.59,-32.22 21.29,-28.36 24.17,-32.74 22.03,-30.34 24.09,-33.74 20.78,-29.57 23.68,-34.19 22.87,-33.56 22.86,-34.05 22.77,-34.43 21.87,-33.56 23.65,-36.82 22.53,-35.59 23.73,-38.01 21.47,-34.88 23.74,-39.07 22.72,-37.96 22.68,-38.36 23.68,-40.62 21.82,-37.9 22.34,-39.29 24.66,-43.96 22.34,-40.32 22.84,-41.74 23.23,-42.98 21.35,-39.97 22.76,-43.11 22.58,-43.28 24.17,-46.86 21.32,-41.81 24.6,-48.83 22.19,-44.56 21.96,-44.56 23.62,-48.46 23.72,-49.21 21.58,-45.25 22.91,-48.56 22.36,-47.89 24.25,-52.47 20.97,-45.86 24.09,-53.21 22.64,-50.55 22.43,-50.55 22.44,-51.09 22.9,-52.63 24.27,-56.33 22.25,-52.17 21.95,-51.98 23.48,-56.08"
             style="fill:none;stroke:#000000;stroke-width:12.5377;stroke-linecap:butt;stroke-linejoin:round;stroke-miterlimit:10;stroke-dasharray:125.377, 41.7922;stroke-dashoffset:0;stroke-opacity:1"
             transform="matrix(0.13333333,0,0,-0.13333333,-50.666667,734.66667)"
             clip-path="url(#clipPath2)"
             id="path100" />
        </g>
        <g
           clip-path="url(#clipPath20)"
           id="g116">
          <path
             d="m 3161.1,5213.84 c 0,-36.93 -29.94,-66.87 -66.87,-66.87 -36.93,0 -66.86,29.94 -66.86,66.87 0,36.93 29.93,66.87 66.86,66.87 36.93,0 66.87,-29.94 66.87,-66.87 z"
             style="fill:none;stroke:#ff0000;stroke-width:8.35843;stroke-linecap:square;stroke-linejoin:miter;stroke-miterlimit:10;stroke-dasharray:none;stroke-opacity:1"
             transform="matrix(0.13333333,0,0,-0.13333333,-50.666667,734.66667)"
             clip-path="url(#clipPath4)"
             id="path101" />
          <path
             d="m 3161.1,5213.84 c 0,-36.93 -29.94,-66.87 -66.87,-66.87 -36.93,0 -66.86,29.94 -66.86,66.87 0,36.93 29.93,66.87 66.86,66.87 36.93,0 66.87,-29.94 66.87,-66.87"
             style="fill:#ff0000;fill-opacity:1;fill-rule:nonzero;stroke:none"
             transform="matrix(0.13333333,0,0,-0.13333333,-50.666667,734.66667)"
             clip-path="url(#clipPath5)"
             id="path102" />
          <path
             d="m 3689.11,4939.12 c 0,-36.93 -29.94,-66.87 -66.87,-66.87 -36.93,0 -66.86,29.94 -66.86,66.87 0,36.93 29.93,66.87 66.86,66.87 36.93,0 66.87,-29.94 66.87,-66.87 z"
             style="fill:none;stroke:#ff0000;stroke-width:8.35843;stroke-linecap:square;stroke-linejoin:miter;stroke-miterlimit:10;stroke-dasharray:none;stroke-opacity:1"
             transform="matrix(0.13333333,0,0,-0.13333333,-50.666667,734.66667)"
             clip-path="url(#clipPath6)"
             id="path103" />
          <path
             d="m 3689.11,4939.12 c 0,-36.93 -29.94,-66.87 -66.87,-66.87 -36.93,0 -66.86,29.94 -66.86,66.87 0,36.93 29.93,66.87 66.86,66.87 36.93,0 66.87,-29.94 66.87,-66.87"
             style="fill:#ff0000;fill-opacity:1;fill-rule:nonzero;stroke:none"
             transform="matrix(0.13333333,0,0,-0.13333333,-50.666667,734.66667)"
             clip-path="url(#clipPath7)"
             id="path104" />
          <path
             d="m 4217.13,4389.68 c 0,-36.93 -29.94,-66.87 -66.87,-66.87 -36.93,0 -66.87,29.94 -66.87,66.87 0,36.93 29.94,66.87 66.87,66.87 36.93,0 66.87,-29.94 66.87,-66.87 z"
             style="fill:none;stroke:#ff0000;stroke-width:8.35843;stroke-linecap:square;stroke-linejoin:miter;stroke-miterlimit:10;stroke-dasharray:none;stroke-opacity:1"
             transform="matrix(0.13333333,0,0,-0.13333333,-50.666667,734.66667)"
             clip-path="url(#clipPath8)"
             id="path105" />
          <path
             d="m 4217.13,4389.68 c 0,-36.93 -29.94,-66.87 -66.87,-66.87 -36.93,0 -66.87,29.94 -66.87,66.87 0,36.93 29.94,66.87 66.87,66.87 36.93,0 66.87,-29.94 66.87,-66.87"
             style="fill:#ff0000;fill-opacity:1;fill-rule:nonzero;stroke:none"
             transform="matrix(0.13333333,0,0,-0.13333333,-50.666667,734.66667)"
             clip-path="url(#clipPath9)"
             id="path106" />
          <path
             d="m 4745.14,3565.52 c 0,-36.93 -29.94,-66.86 -66.87,-66.86 -36.93,0 -66.86,29.93 -66.86,66.86 0,36.93 29.93,66.87 66.86,66.87 36.93,0 66.87,-29.94 66.87,-66.87 z"
             style="fill:none;stroke:#ff0000;stroke-width:8.35843;stroke-linecap:square;stroke-linejoin:miter;stroke-miterlimit:10;stroke-dasharray:none;stroke-opacity:1"
             transform="matrix(0.13333333,0,0,-0.13333333,-50.666667,734.66667)"
             clip-path="url(#clipPath10)"
             id="path107" />
          <path
             d="m 4745.14,3565.52 c 0,-36.93 -29.94,-66.86 -66.87,-66.86 -36.93,0 -66.86,29.93 -66.86,66.86 0,36.93 29.93,66.87 66.86,66.87 36.93,0 66.87,-29.94 66.87,-66.87"
             style="fill:#ff0000;fill-opacity:1;fill-rule:nonzero;stroke:none"
             transform="matrix(0.13333333,0,0,-0.13333333,-50.666667,734.66667)"
             clip-path="url(#clipPath11)"
             id="path108" />
          <path
             d="m 5273.16,2466.65 c 0,-36.93 -29.94,-66.87 -66.87,-66.87 -36.93,0 -66.86,29.94 -66.86,66.87 0,36.93 29.93,66.87 66.86,66.87 36.93,0 66.87,-29.94 66.87,-66.87 z"
             style="fill:none;stroke:#ff0000;stroke-width:8.35843;stroke-linecap:square;stroke-linejoin:miter;stroke-miterlimit:10;stroke-dasharray:none;stroke-opacity:1"
             transform="matrix(0.13333333,0,0,-0.13333333,-50.666667,734.66667)"
             clip-path="url(#clipPath12)"
             id="path109" />
          <path
             d="m 5273.16,2466.65 c 0,-36.93 -29.94,-66.87 -66.87,-66.87 -36.93,0 -66.86,29.94 -66.86,66.87 0,36.93 29.93,66.87 66.86,66.87 36.93,0 66.87,-29.94 66.87,-66.87"
             style="fill:#ff0000;fill-opacity:1;fill-rule:nonzero;stroke:none"
             transform="matrix(0.13333333,0,0,-0.13333333,-50.666667,734.66667)"
             clip-path="url(#clipPath13)"
             id="path110" />
          <path
             d="m 2105.06,4939.12 c 0,-36.93 -29.93,-66.87 -66.86,-66.87 -36.93,0 -66.87,29.94 -66.87,66.87 0,36.93 29.94,66.87 66.87,66.87 36.93,0 66.86,-29.94 66.86,-66.87 z"
             style="fill:none;stroke:#ff0000;stroke-width:8.35843;stroke-linecap:square;stroke-linejoin:miter;stroke-miterlimit:10;stroke-dasharray:none;stroke-opacity:1"
             transform="matrix(0.13333333,0,0,-0.13333333,-50.666667,734.66667)"
             clip-path="url(#clipPath14)"
             id="path111" />
          <path
             d="m 2105.06,4939.12 c 0,-36.93 -29.93,-66.87 -66.86,-66.87 -36.93,0 -66.87,29.94 -66.87,66.87 0,36.93 29.94,66.87 66.87,66.87 36.93,0 66.86,-29.94 66.86,-66.87"
             style="fill:#ff0000;fill-opacity:1;fill-rule:nonzero;stroke:none"
             transform="matrix(0.13333333,0,0,-0.13333333,-50.666667,734.66667)"
             clip-path="url(#clipPath15)"
             id="path112" />
          <path
             d="m 2633.08,5213.84 c 0,-36.93 -29.94,-66.87 -66.87,-66.87 -36.92,0 -66.86,29.94 -66.86,66.87 0,36.93 29.94,66.87 66.86,66.87 36.93,0 66.87,-29.94 66.87,-66.87 z"
             style="fill:none;stroke:#ff0000;stroke-width:8.35843;stroke-linecap:square;stroke-linejoin:miter;stroke-miterlimit:10;stroke-dasharray:none;stroke-opacity:1"
             transform="matrix(0.13333333,0,0,-0.13333333,-50.666667,734.66667)"
             clip-path="url(#clipPath16)"
             id="path113" />
          <path
             d="m 2633.08,5213.84 c 0,-36.93 -29.94,-66.87 -66.87,-66.87 -36.92,0 -66.86,29.94 -66.86,66.87 0,36.93 29.94,66.87 66.86,66.87 36.93,0 66.87,-29.94 66.87,-66.87"
             style="fill:#ff0000;fill-opacity:1;fill-rule:nonzero;stroke:none"
             transform="matrix(0.13333333,0,0,-0.13333333,-50.666667,734.66667)"
             clip-path="url(#clipPath17)"
             id="path114" />
          <path
             d="m 1577.05,4389.68 c 0,-36.93 -29.94,-66.87 -66.87,-66.87 -36.93,0 -66.86,29.94 -66.86,66.87 0,36.93 29.93,66.87 66.86,66.87 36.93,0 66.87,-29.94 66.87,-66.87 z"
             style="fill:none;stroke:#ff0000;stroke-width:8.35843;stroke-linecap:square;stroke-linejoin:miter;stroke-miterlimit:10;stroke-dasharray:none;stroke-opacity:1"
             transform="matrix(0.13333333,0,0,-0.13333333,-50.666667,734.66667)"
             clip-path="url(#clipPath18)"
             id="path115" />
          <path
             d="m 1577.05,4389.68 c 0,-36.93 -29.94,-66.87 -66.87,-66.87 -36.93,0 -66.86,29.94 -66.86,66.87 0,36.93 29.93,66.87 66.86,66.87 36.93,0 66.87,-29.94 66.87,-66.87"
             style="fill:#ff0000;fill-opacity:1;fill-rule:nonzero;stroke:none"
             transform="matrix(0.13333333,0,0,-0.13333333,-50.666667,734.66667)"
             clip-path="url(#clipPath19)"
             id="path116" />
        </g>
        <g
           clip-path="url(#clipPath22)"
           id="g117">
          <path
             d="m 5620.18,3493.98 c 2.7,-2.87 4.7,-5.7 6.01,-8.48 0.96,-2.01 2.56,-7.15 4.83,-15.41 l 7.19,10.7 c 1.91,2.62 4.22,5.09 6.92,7.45 2.7,2.35 5.09,3.96 7.18,4.83 1.3,0.61 2.74,0.91 4.31,0.91 2.35,0 4.22,-0.62 5.62,-1.89 1.39,-1.26 2.08,-2.8 2.08,-4.64 0,-2 -0.39,-3.39 -1.17,-4.17 -1.57,-1.4 -3.31,-2.09 -5.23,-2.09 -1.12,0 -2.35,0.26 -3.66,0.78 -2.6,0.87 -4.34,1.31 -5.22,1.31 -1.31,0 -2.83,-0.79 -4.56,-2.35 -3.41,-2.79 -7.45,-8.23 -12.16,-16.33 l 6.66,-28.08 c 1.05,-4.36 1.92,-6.95 2.62,-7.77 0.69,-0.82 1.44,-1.24 2.22,-1.24 1.13,0 2.43,0.61 3.91,1.83 3.06,2.52 5.62,5.79 7.71,9.8 l 2.88,-1.44 c -3.49,-6.45 -7.84,-11.75 -13.07,-15.93 -3.04,-2.45 -5.57,-3.66 -7.57,-3.66 -3.05,0 -5.48,1.69 -7.31,5.09 -1.13,2.18 -3.49,11.32 -7.06,27.43 -8.53,-14.72 -15.36,-24.21 -20.5,-28.48 -3.31,-2.69 -6.49,-4.04 -9.53,-4.04 -2.18,0 -4.18,0.78 -6.01,2.34 -1.31,1.23 -1.97,2.84 -1.97,4.84 0,1.83 0.6,3.33 1.77,4.51 1.18,1.17 2.68,1.75 4.5,1.75 1.75,0 3.58,-0.87 5.5,-2.6 1.38,-1.22 2.48,-1.83 3.25,-1.83 0.71,0 1.54,0.43 2.49,1.3 2.62,2.09 6.12,6.55 10.51,13.39 4.4,6.84 7.29,11.78 8.69,14.82 -3.4,13.24 -5.22,20.25 -5.49,21.03 -1.3,3.48 -2.95,5.97 -4.96,7.45 -2.01,1.48 -4.97,2.21 -8.88,2.21 -1.22,0 -2.66,-0.04 -4.31,-0.12 v 2.86 l 21.81,3.92"
             style="fill:#000000;fill-opacity:1;fill-rule:nonzero;stroke:none"
             transform="matrix(0.13333333,0,0,-0.13333333,-50.666667,734.66667)"
             clip-path="url(#clipPath21)"
             id="path117" />
        </g>
        <g
           clip-path="url(#clipPath24)"
           id="g118">
          <path
             d="m 870.242,5500 c 1.914,-3.21 3.223,-6.2 3.918,-8.94 0.695,-2.74 1.395,-8.12 2.09,-16.13 l 3.656,-40.22 c 3.223,3.91 7.922,10.14 14.106,18.67 3.047,4.09 6.746,9.71 11.101,16.85 2.7,4.35 4.352,7.4 4.961,9.14 0.348,0.87 0.524,1.79 0.524,2.74 0,0.61 -0.196,1.09 -0.59,1.44 -0.391,0.35 -1.391,0.78 -3.004,1.31 -1.609,0.52 -2.938,1.48 -3.981,2.87 -1.046,1.39 -1.57,3 -1.57,4.83 0,2.18 0.656,3.96 1.961,5.35 1.305,1.4 2.918,2.09 4.832,2.09 2.438,0 4.484,-1 6.137,-3 1.656,-2 2.484,-4.74 2.484,-8.23 0,-4.26 -1.461,-9.16 -4.375,-14.69 -2.918,-5.53 -8.578,-14.02 -16.98,-25.47 -8.403,-11.45 -18.567,-23.92 -30.492,-37.41 -8.188,-9.32 -14.258,-15.17 -18.219,-17.57 -3.965,-2.39 -7.379,-3.59 -10.254,-3.59 -1.656,0 -3.133,0.63 -4.442,1.89 -1.304,1.27 -1.957,2.72 -1.957,4.38 0,2.17 0.891,4.14 2.676,5.88 1.785,1.74 3.723,2.61 5.813,2.61 1.043,0 1.914,-0.26 2.613,-0.78 0.434,-0.27 0.914,-1.03 1.434,-2.29 0.523,-1.27 1.004,-2.11 1.437,-2.55 0.348,-0.26 0.695,-0.39 1.047,-0.39 0.348,0 0.914,0.26 1.695,0.78 2.961,1.83 6.446,4.75 10.45,8.75 5.222,5.4 9.097,9.75 11.621,13.06 l -4.571,51.85 c -0.781,8.54 -1.937,13.72 -3.461,15.54 -1.523,1.83 -4.07,2.75 -7.64,2.75 -1.129,0 -3.176,-0.13 -6.137,-0.39 l -0.781,3 23.898,5.87"
             style="fill:#000000;fill-opacity:1;fill-rule:nonzero;stroke:none"
             transform="matrix(0.13333333,0,0,-0.13333333,-50.666667,734.66667)"
             clip-path="url(#clipPath23)"
             id="path118" />
        </g>
        <g
           clip-path="url(#clipPath31)"
           id="g124">
          <path
             d="m 3745.54,5090.44 c 1.91,-3.22 3.22,-6.2 3.92,-8.94 0.69,-2.75 1.39,-8.12 2.09,-16.13 l 3.65,-40.23 c 3.23,3.92 7.93,10.15 14.11,18.68 3.04,4.09 6.74,9.71 11.1,16.84 2.7,4.36 4.36,7.41 4.97,9.15 0.34,0.87 0.51,1.78 0.51,2.74 0,0.61 -0.19,1.09 -0.58,1.43 -0.4,0.36 -1.4,0.79 -3.01,1.31 -1.6,0.53 -2.93,1.48 -3.98,2.87 -1.04,1.4 -1.57,3.01 -1.57,4.84 0,2.18 0.66,3.96 1.96,5.35 1.31,1.4 2.92,2.09 4.84,2.09 2.43,0 4.47,-1 6.13,-3 1.66,-2.01 2.48,-4.75 2.48,-8.23 0,-4.26 -1.45,-9.16 -4.37,-14.69 -2.91,-5.53 -8.58,-14.02 -16.99,-25.47 -8.39,-11.45 -18.56,-23.92 -30.48,-37.42 -8.19,-9.31 -14.27,-15.17 -18.23,-17.56 -3.96,-2.39 -7.37,-3.59 -10.24,-3.59 -1.66,0 -3.14,0.63 -4.44,1.89 -1.32,1.26 -1.96,2.72 -1.96,4.38 0,2.17 0.89,4.13 2.67,5.87 1.79,1.74 3.73,2.61 5.82,2.61 1.04,0 1.91,-0.26 2.6,-0.78 0.44,-0.26 0.92,-1.02 1.44,-2.29 0.53,-1.26 1,-2.11 1.44,-2.54 0.35,-0.26 0.69,-0.39 1.04,-0.39 0.36,0 0.92,0.26 1.7,0.78 2.96,1.83 6.45,4.74 10.45,8.75 5.22,5.4 9.1,9.75 11.62,13.06 l -4.57,51.85 c -0.78,8.53 -1.94,13.71 -3.46,15.54 -1.52,1.83 -4.07,2.74 -7.64,2.74 -1.13,0 -3.17,-0.13 -6.14,-0.39 l -0.78,3.01 23.9,5.87"
             style="fill:#ff0000;fill-opacity:1;fill-rule:nonzero;stroke:none"
             transform="matrix(0.13333333,0,0,-0.13333333,-50.666667,734.66667)"
             clip-path="url(#clipPath25)"
             id="path119" />
          <path
             d="m 3830.56,5088.61 h 88.16 v -6.66 h -88.16 z m 0,-26.64 h 88.16 v -6.66 h -88.16 v 6.66"
             style="fill:#ff0000;fill-opacity:1;fill-rule:nonzero;stroke:none"
             transform="matrix(0.13333333,0,0,-0.13333333,-50.666667,734.66667)"
             clip-path="url(#clipPath26)"
             id="path120" />
          <path
             d="m 4010.79,5088.48 -1.43,-5.48 h -11.89 l -9.01,-35.66 c -3.92,-15.67 -7.92,-27.81 -12.02,-36.43 -5.66,-12.2 -11.79,-20.59 -18.41,-25.21 -5.05,-3.48 -10.06,-5.22 -15.02,-5.22 -3.31,0 -6.1,0.95 -8.36,2.87 -1.66,1.39 -2.48,3.18 -2.48,5.35 0,1.75 0.7,3.25 2.09,4.51 1.39,1.26 3.09,1.89 5.1,1.89 1.47,0 2.71,-0.45 3.71,-1.37 1.01,-0.91 1.51,-1.98 1.51,-3.2 0,-1.22 -0.57,-2.3 -1.7,-3.26 -0.88,-0.79 -1.31,-1.39 -1.31,-1.83 0,-0.44 0.18,-0.78 0.53,-1.05 0.51,-0.43 1.3,-0.65 2.35,-0.65 2.26,0 4.69,0.74 7.31,2.22 2.61,1.48 4.91,3.68 6.92,6.6 2,2.91 3.92,7.12 5.75,12.6 0.78,2.26 2.82,9.79 6.14,22.59 l 14.09,55.25 h -14.09 l 1.04,5.48 c 4.53,0 7.71,0.31 9.54,0.92 1.82,0.61 3.48,1.8 4.95,3.59 1.48,1.78 3.4,5.07 5.76,9.86 3.21,6.53 6.3,11.62 9.27,15.28 4,4.79 8.23,8.4 12.66,10.84 4.44,2.44 8.62,3.66 12.54,3.66 4.18,0 7.51,-1.05 9.99,-3.14 2.48,-2.09 3.72,-4.35 3.72,-6.79 0,-1.91 -0.63,-3.52 -1.89,-4.83 -1.26,-1.31 -2.85,-1.96 -4.76,-1.96 -1.66,0 -3.03,0.48 -4.12,1.43 -1.09,0.96 -1.63,2.14 -1.63,3.53 0,0.87 0.35,1.94 1.04,3.2 0.7,1.27 1.05,2.11 1.05,2.55 0,0.78 -0.22,1.35 -0.66,1.7 -0.69,0.61 -1.73,0.91 -3.13,0.91 -3.39,0 -6.49,-1.09 -9.27,-3.27 -3.58,-2.96 -6.84,-7.48 -9.79,-13.58 -1.4,-3.22 -4.06,-11.18 -7.97,-23.9 h 11.88"
             style="fill:#ff0000;fill-opacity:1;fill-rule:nonzero;stroke:none"
             transform="matrix(0.13333333,0,0,-0.13333333,-50.666667,734.66667)"
             clip-path="url(#clipPath27)"
             id="path121" />
          <path
             d="m 4140.73,5090.44 c 2.7,-2.87 4.71,-5.7 6.01,-8.49 0.97,-2 2.57,-7.14 4.83,-15.41 l 7.19,10.71 c 1.92,2.61 4.22,5.09 6.92,7.45 2.7,2.35 5.09,3.96 7.18,4.83 1.31,0.61 2.75,0.91 4.32,0.91 2.35,0 4.22,-0.63 5.61,-1.89 1.39,-1.26 2.09,-2.81 2.09,-4.64 0,-2 -0.39,-3.39 -1.18,-4.18 -1.57,-1.39 -3.31,-2.09 -5.22,-2.09 -1.13,0 -2.35,0.27 -3.66,0.79 -2.61,0.87 -4.35,1.3 -5.22,1.3 -1.31,0 -2.83,-0.78 -4.57,-2.35 -3.4,-2.78 -7.44,-8.23 -12.15,-16.32 l 6.66,-28.08 c 1.05,-4.35 1.91,-6.94 2.62,-7.77 0.69,-0.83 1.43,-1.25 2.21,-1.25 1.14,0 2.44,0.61 3.92,1.83 3.05,2.53 5.62,5.8 7.71,9.8 l 2.88,-1.44 c -3.49,-6.44 -7.84,-11.75 -13.07,-15.93 -3.04,-2.44 -5.57,-3.66 -7.57,-3.66 -3.05,0 -5.49,1.7 -7.32,5.1 -1.13,2.17 -3.48,11.32 -7.05,27.42 -8.53,-14.71 -15.36,-24.2 -20.5,-28.47 -3.32,-2.7 -6.49,-4.05 -9.53,-4.05 -2.18,0 -4.18,0.79 -6.01,2.35 -1.31,1.22 -1.97,2.83 -1.97,4.84 0,1.82 0.6,3.33 1.77,4.5 1.17,1.18 2.68,1.77 4.5,1.77 1.75,0 3.58,-0.88 5.5,-2.62 1.38,-1.22 2.48,-1.83 3.25,-1.83 0.71,0 1.53,0.44 2.49,1.31 2.61,2.09 6.11,6.55 10.51,13.39 4.4,6.83 7.29,11.77 8.69,14.82 -3.4,13.23 -5.23,20.24 -5.49,21.03 -1.3,3.48 -2.96,5.96 -4.96,7.44 -2.01,1.48 -4.97,2.22 -8.88,2.22 -1.22,0 -2.66,-0.04 -4.31,-0.13 v 2.87 l 21.8,3.92"
             style="fill:#ff0000;fill-opacity:1;fill-rule:nonzero;stroke:none"
             transform="matrix(0.13333333,0,0,-0.13333333,-50.666667,734.66667)"
             clip-path="url(#clipPath28)"
             id="path122" />
          <path
             d="m 4086.56,4986.93 -2.42,-3.84 c -20.6,12.79 -30.9,38.36 -30.9,76.73 v -3.01 c 0,38.5 10.3,64.07 30.9,76.73 l 2.42,-3.63 c -9.15,-7.81 -15.28,-18.78 -18.38,-32.92 -1.88,-8.76 -2.82,-21.14 -2.82,-37.17 v -3.01 c 0,-15.89 0.94,-28.22 2.82,-36.97 3.1,-14.13 9.23,-25.11 18.38,-32.91"
             style="fill:#ff0000;fill-opacity:1;fill-rule:nonzero;stroke:none"
             transform="matrix(0.13333333,0,0,-0.13333333,-50.666667,734.66667)"
             clip-path="url(#clipPath29)"
             id="path123" />
          <path
             d="m 4203.69,5129.7 2.42,3.84 c 20.6,-12.79 30.9,-38.37 30.9,-76.73 v 3.01 c 0,-38.5 -10.3,-64.08 -30.9,-76.73 l -2.42,3.63 c 9.15,7.81 15.28,18.78 18.38,32.92 1.88,8.75 2.82,21.14 2.82,37.17 v 3.01 c 0,15.89 -0.94,28.22 -2.82,36.97 -3.1,14.13 -9.23,25.1 -18.38,32.91"
             style="fill:#ff0000;fill-opacity:1;fill-rule:nonzero;stroke:none"
             transform="matrix(0.13333333,0,0,-0.13333333,-50.666667,734.66667)"
             clip-path="url(#clipPath30)"
             id="path124" />
        </g>
        <g
           clip-path="url(#clipPath38)"
           id="g130">
          <path
             d="m 4481.08,4129.22 c 1.92,-3.21 3.22,-6.2 3.92,-8.94 0.7,-2.74 1.39,-8.12 2.09,-16.13 l 3.65,-40.22 c 3.23,3.91 7.93,10.14 14.11,18.67 3.04,4.1 6.75,9.71 11.1,16.85 2.7,4.35 4.36,7.4 4.97,9.14 0.34,0.87 0.52,1.79 0.52,2.75 0,0.6 -0.2,1.08 -0.59,1.43 -0.39,0.35 -1.4,0.78 -3.01,1.31 -1.6,0.52 -2.93,1.48 -3.98,2.87 -1.04,1.39 -1.57,3 -1.57,4.84 0,2.17 0.66,3.96 1.96,5.34 1.31,1.4 2.92,2.09 4.84,2.09 2.44,0 4.48,-1 6.13,-3 1.66,-2 2.48,-4.74 2.48,-8.23 0,-4.26 -1.45,-9.16 -4.37,-14.69 -2.92,-5.53 -8.57,-14.01 -16.98,-25.46 -8.4,-11.45 -18.56,-23.93 -30.49,-37.43 -8.18,-9.3 -14.26,-15.16 -18.22,-17.55 -3.97,-2.4 -7.38,-3.6 -10.25,-3.6 -1.66,0 -3.14,0.63 -4.44,1.9 -1.31,1.26 -1.97,2.72 -1.97,4.37 0,2.17 0.9,4.14 2.68,5.88 1.79,1.73 3.73,2.61 5.82,2.61 1.04,0 1.91,-0.27 2.61,-0.79 0.43,-0.25 0.91,-1.02 1.43,-2.28 0.53,-1.27 1.01,-2.11 1.44,-2.54 0.35,-0.27 0.7,-0.4 1.05,-0.4 0.35,0 0.91,0.26 1.69,0.79 2.96,1.82 6.45,4.74 10.45,8.74 5.23,5.4 9.1,9.75 11.63,13.07 l -4.57,51.84 c -0.79,8.53 -1.94,13.72 -3.46,15.54 -1.53,1.83 -4.07,2.75 -7.64,2.75 -1.14,0 -3.18,-0.13 -6.15,-0.39 l -0.78,3 23.9,5.87"
             style="fill:#000000;fill-opacity:1;fill-rule:nonzero;stroke:none"
             transform="matrix(0.13333333,0,0,-0.13333333,-50.666667,734.66667)"
             clip-path="url(#clipPath32)"
             id="path125" />
          <path
             d="m 4566.1,4127.39 h 88.16 v -6.65 h -88.16 z m 0,-26.64 h 88.16 v -6.66 h -88.16 v 6.66"
             style="fill:#000000;fill-opacity:1;fill-rule:nonzero;stroke:none"
             transform="matrix(0.13333333,0,0,-0.13333333,-50.666667,734.66667)"
             clip-path="url(#clipPath33)"
             id="path126" />
          <path
             d="m 4733.79,4129.22 -5.61,-18.8 c 5.92,6.97 11.21,11.84 15.87,14.62 4.65,2.8 9.42,4.18 14.3,4.18 4.79,0 8.9,-1.91 12.33,-5.74 3.45,-3.84 5.17,-8.84 5.17,-15.02 0,-12.02 -4.88,-24.21 -14.63,-36.57 -9.75,-12.36 -21.07,-18.54 -33.96,-18.54 -2.78,0 -5.22,0.31 -7.31,0.91 -2.09,0.61 -4.44,1.65 -7.06,3.13 l -5.87,-21.02 c -1.22,-4.18 -1.82,-6.88 -1.82,-8.1 0,-1.22 0.3,-2.24 0.91,-3.07 0.61,-0.82 1.63,-1.48 3.07,-1.95 1.43,-0.49 4.24,-0.72 8.42,-0.72 l -0.79,-3.01 h -38.4 l 0.79,3.01 c 5.05,0.26 8.47,1.15 10.26,2.67 1.78,1.52 3.63,5.73 5.55,12.61 l 20.63,71.56 c 1.31,4.53 1.96,7.32 1.96,8.36 0,1.48 -0.44,2.63 -1.3,3.46 -0.87,0.83 -2.19,1.25 -3.92,1.25 -1.58,0 -3.75,-0.22 -6.53,-0.65 v 3.25 z m -18.93,-65.29 c 3.31,-4.1 7.83,-6.14 13.58,-6.14 2.78,0 5.66,0.8 8.62,2.41 2.96,1.61 5.83,3.96 8.62,7.05 2.79,3.1 5.31,6.67 7.58,10.71 2.26,4.06 4.26,8.82 6,14.3 1.74,5.49 2.62,10.94 2.62,16.33 0,4.35 -0.99,7.69 -2.95,9.99 -1.95,2.31 -4.29,3.46 -6.98,3.46 -5.92,0 -11.73,-3.37 -17.44,-10.12 -5.7,-6.74 -9.9,-14.61 -12.6,-23.57 l -7.05,-24.42"
             style="fill:#000000;fill-opacity:1;fill-rule:nonzero;stroke:none"
             transform="matrix(0.13333333,0,0,-0.13333333,-50.666667,734.66667)"
             clip-path="url(#clipPath34)"
             id="path127" />
          <path
             d="m 4892.99,4129.22 c 2.7,-2.87 4.71,-5.7 6.01,-8.48 0.96,-2.01 2.57,-7.15 4.84,-15.41 l 7.18,10.71 c 1.92,2.61 4.22,5.09 6.92,7.44 2.7,2.35 5.1,3.97 7.19,4.83 1.3,0.61 2.73,0.91 4.31,0.91 2.35,0 4.22,-0.62 5.61,-1.88 1.39,-1.27 2.09,-2.81 2.09,-4.64 0,-2.01 -0.39,-3.4 -1.18,-4.18 -1.57,-1.4 -3.31,-2.09 -5.22,-2.09 -1.13,0 -2.35,0.26 -3.66,0.78 -2.61,0.87 -4.35,1.31 -5.22,1.31 -1.31,0 -2.83,-0.79 -4.57,-2.35 -3.4,-2.79 -7.45,-8.24 -12.15,-16.33 l 6.66,-28.08 c 1.04,-4.35 1.91,-6.95 2.61,-7.76 0.7,-0.83 1.44,-1.25 2.22,-1.25 1.14,0 2.44,0.61 3.92,1.83 3.05,2.53 5.62,5.79 7.71,9.8 l 2.87,-1.44 c -3.48,-6.45 -7.84,-11.75 -13.06,-15.93 -3.04,-2.44 -5.57,-3.66 -7.57,-3.66 -3.05,0 -5.49,1.69 -7.32,5.09 -1.13,2.18 -3.48,11.32 -7.05,27.43 -8.54,-14.72 -15.36,-24.21 -20.5,-28.48 -3.31,-2.69 -6.49,-4.04 -9.54,-4.04 -2.18,0 -4.17,0.78 -6,2.35 -1.31,1.21 -1.97,2.83 -1.97,4.83 0,1.83 0.59,3.33 1.77,4.51 1.17,1.17 2.68,1.75 4.5,1.75 1.75,0 3.58,-0.86 5.49,-2.6 1.39,-1.23 2.48,-1.83 3.26,-1.83 0.7,0 1.53,0.43 2.49,1.3 2.61,2.09 6.11,6.55 10.51,13.39 4.4,6.84 7.29,11.78 8.68,14.82 -3.39,13.24 -5.22,20.24 -5.48,21.03 -1.3,3.49 -2.96,5.97 -4.96,7.45 -2.01,1.48 -4.97,2.21 -8.88,2.21 -1.22,0 -2.66,-0.04 -4.31,-0.12 v 2.86 l 21.8,3.92"
             style="fill:#000000;fill-opacity:1;fill-rule:nonzero;stroke:none"
             transform="matrix(0.13333333,0,0,-0.13333333,-50.666667,734.66667)"
             clip-path="url(#clipPath35)"
             id="path128" />
          <path
             d="m 4838.82,4025.71 -2.43,-3.84 c -20.59,12.79 -30.89,38.36 -30.89,76.73 v -3.01 c 0,38.5 10.3,64.07 30.89,76.73 l 2.43,-3.64 c -9.16,-7.8 -15.28,-18.78 -18.38,-32.91 -1.89,-8.75 -2.83,-21.14 -2.83,-37.17 v -3.01 c 0,-15.89 0.94,-28.21 2.83,-36.96 3.1,-14.14 9.22,-25.11 18.38,-32.92"
             style="fill:#000000;fill-opacity:1;fill-rule:nonzero;stroke:none"
             transform="matrix(0.13333333,0,0,-0.13333333,-50.666667,734.66667)"
             clip-path="url(#clipPath36)"
             id="path129" />
          <path
             d="m 4955.95,4168.48 2.42,3.84 c 20.6,-12.79 30.9,-38.37 30.9,-76.73 v 3.01 c 0,-38.5 -10.3,-64.08 -30.9,-76.73 l -2.42,3.63 c 9.16,7.81 15.28,18.79 18.38,32.92 1.88,8.75 2.82,21.14 2.82,37.17 v 3.01 c 0,15.89 -0.94,28.21 -2.82,36.97 -3.1,14.13 -9.22,25.11 -18.38,32.91"
             style="fill:#000000;fill-opacity:1;fill-rule:nonzero;stroke:none"
             transform="matrix(0.13333333,0,0,-0.13333333,-50.666667,734.66667)"
             clip-path="url(#clipPath37)"
             id="path130" />
        </g>
        <g
           clip-path="url(#clipPath41)"
           id="g132">
          <path
             d="M 458.332,3561.34 H 5632.88"
             style="fill:none;stroke:#000000;stroke-width:8.35843;stroke-linecap:butt;stroke-linejoin:round;stroke-miterlimit:10;stroke-dasharray:none;stroke-opacity:1"
             transform="matrix(0.13333333,0,0,-0.13333333,-50.666667,734.66667)"
             clip-path="url(#clipPath39)"
             id="path131" />
          <path
             d="m 458.332,3561.34 v -44.46"
             style="fill:none;stroke:#000000;stroke-width:1;stroke-linecap:butt;stroke-linejoin:round;stroke-miterlimit:10;stroke-dasharray:none;stroke-opacity:1"
             transform="matrix(0.13333333,0,0,-0.13333333,-50.666667,734.66667)"
             clip-path="url(#clipPath40)"
             id="path132" />
        </g>
        <g
           clip-path="url(#clipPath43)"
           id="g133">
          <path
             d="m 387.281,3390.68 h 110.227 v 8.6172 H 387.281 Z"
             style="fill:#000000;fill-opacity:1;fill-rule:nonzero;stroke:none"
             transform="matrix(0.13333333,0,0,-0.13333333,-50.666667,734.66667)"
             clip-path="url(#clipPath42)"
             id="path133" />
        </g>
        <g
           clip-path="url(#clipPath75)"
           id="g164">
          <path
             d="m 487.059,3444.62 26.906,13.19 h 2.742 v -93.51 c 0,-6.18 0.262,-10.04 0.781,-11.56 0.524,-1.53 1.59,-2.7 3.2,-3.53 1.613,-0.82 4.941,-1.28 9.992,-1.37 v -3 h -41.66 v 3 c 5.222,0.09 8.597,0.55 10.121,1.37 1.523,0.83 2.589,1.9 3.199,3.2 0.609,1.31 0.914,5.27 0.914,11.89 v 59.81 c 0,8.01 -0.262,13.19 -0.781,15.54 -0.438,1.75 -1.157,3.01 -2.157,3.79 -1,0.79 -2.199,1.18 -3.593,1.18 -2,0 -4.832,-0.83 -8.489,-2.48 l -1.175,2.48"
             style="fill:#000000;fill-opacity:1;fill-rule:nonzero;stroke:none"
             transform="matrix(0.13333333,0,0,-0.13333333,-50.666667,734.66667)"
             clip-path="url(#clipPath44)"
             id="path134" />
          <path
             d="m 986.348,3561.34 v -44.46"
             style="fill:none;stroke:#000000;stroke-width:1;stroke-linecap:butt;stroke-linejoin:round;stroke-miterlimit:10;stroke-dasharray:none;stroke-opacity:1"
             transform="matrix(0.13333333,0,0,-0.13333333,-50.666667,734.66667)"
             clip-path="url(#clipPath45)"
             id="path135" />
          <path
             d="m 891.398,3416.27 c 0,12.63 1.918,23.49 5.747,32.59 3.832,9.1 8.882,15.87 15.148,20.31 4.965,3.57 10.059,5.35 15.281,5.35 8.446,0 16.067,-4.31 22.856,-12.93 8.359,-10.7 12.539,-25.25 12.539,-43.62 0,-12.88 -1.852,-23.81 -5.551,-32.77 -3.703,-8.97 -8.402,-15.48 -14.105,-19.53 -5.704,-4.05 -11.254,-6.08 -16.653,-6.08 -10.535,0 -19.328,6.23 -26.379,18.68 -5.922,10.54 -8.883,23.2 -8.883,38 z m 16.067,-2.09 c 0,-15.23 1.871,-27.64 5.613,-37.22 3.137,-8.18 7.75,-12.27 13.844,-12.27 2.961,0 6.008,1.33 9.144,3.98 3.133,2.66 5.528,7.08 7.18,13.26 2.527,9.4 3.789,22.59 3.789,39.57 0,12.63 -1.305,23.16 -3.918,31.61 -2.004,6.27 -4.527,10.71 -7.574,13.32 -2.266,1.82 -4.965,2.74 -8.098,2.74 -3.746,0 -7.054,-1.65 -9.925,-4.96 -3.918,-4.53 -6.575,-11.65 -7.969,-21.35 -1.391,-9.71 -2.086,-19.27 -2.086,-28.68"
             style="fill:#000000;fill-opacity:1;fill-rule:nonzero;stroke:none"
             transform="matrix(0.13333333,0,0,-0.13333333,-50.666667,734.66667)"
             clip-path="url(#clipPath46)"
             id="path136" />
          <path
             d="m 1514.36,3561.34 v -44.46"
             style="fill:none;stroke:#000000;stroke-width:1;stroke-linecap:butt;stroke-linejoin:round;stroke-miterlimit:10;stroke-dasharray:none;stroke-opacity:1"
             transform="matrix(0.13333333,0,0,-0.13333333,-50.666667,734.66667)"
             clip-path="url(#clipPath47)"
             id="path137" />
          <path
             d="m 1490.07,3444.62 26.9,13.19 h 2.74 v -93.51 c 0,-6.18 0.26,-10.04 0.79,-11.56 0.52,-1.53 1.59,-2.7 3.2,-3.53 1.6,-0.82 4.94,-1.28 9.99,-1.37 v -3 h -41.66 v 3 c 5.22,0.09 8.59,0.55 10.12,1.37 1.52,0.83 2.59,1.9 3.19,3.2 0.62,1.31 0.93,5.27 0.93,11.89 v 59.81 c 0,8.01 -0.27,13.19 -0.79,15.54 -0.44,1.75 -1.16,3.01 -2.16,3.79 -1,0.79 -2.19,1.18 -3.58,1.18 -2.01,0 -4.84,-0.83 -8.49,-2.48 l -1.18,2.48"
             style="fill:#000000;fill-opacity:1;fill-rule:nonzero;stroke:none"
             transform="matrix(0.13333333,0,0,-0.13333333,-50.666667,734.66667)"
             clip-path="url(#clipPath48)"
             id="path138" />
          <path
             d="m 2042.38,3561.34 v -44.46"
             style="fill:none;stroke:#000000;stroke-width:1;stroke-linecap:butt;stroke-linejoin:round;stroke-miterlimit:10;stroke-dasharray:none;stroke-opacity:1"
             transform="matrix(0.13333333,0,0,-0.13333333,-50.666667,734.66667)"
             clip-path="url(#clipPath49)"
             id="path139" />
          <path
             d="m 2073.72,3366.13 -7.7,-21.29 h -65.31 v 3 c 19.17,17.51 32.65,31.81 40.49,42.91 7.84,11.1 11.76,21.26 11.76,30.49 0,7.05 -2.16,12.82 -6.46,17.3 -4.32,4.49 -9.43,6.73 -15.35,6.73 -5.49,0 -10.39,-1.59 -14.7,-4.77 -4.31,-3.17 -7.51,-7.81 -9.6,-13.9 h -3 c 1.4,10.01 4.9,17.71 10.52,23.11 5.61,5.4 12.64,8.1 21.08,8.1 8.97,0 16.46,-2.88 22.47,-8.62 6.01,-5.75 9.01,-12.54 9.01,-20.38 0,-5.66 -1.3,-11.27 -3.92,-16.84 -4,-8.79 -10.53,-18.15 -19.59,-28.08 -13.58,-14.81 -22.03,-23.73 -25.33,-26.78 h 28.86 c 5.83,0 9.94,0.22 12.34,0.66 2.39,0.43 4.55,1.32 6.46,2.68 1.92,1.34 3.57,3.24 4.97,5.68 h 3"
             style="fill:#000000;fill-opacity:1;fill-rule:nonzero;stroke:none"
             transform="matrix(0.13333333,0,0,-0.13333333,-50.666667,734.66667)"
             clip-path="url(#clipPath50)"
             id="path140" />
          <path
             d="m 2570.39,3561.34 v -44.46"
             style="fill:none;stroke:#000000;stroke-width:1;stroke-linecap:butt;stroke-linejoin:round;stroke-miterlimit:10;stroke-dasharray:none;stroke-opacity:1"
             transform="matrix(0.13333333,0,0,-0.13333333,-50.666667,734.66667)"
             clip-path="url(#clipPath51)"
             id="path141" />
          <path
             d="m 2532.13,3434.43 c 3.13,7.49 7.12,13.25 11.95,17.31 4.83,4.05 10.82,6.07 17.96,6.07 8.88,0 15.72,-2.88 20.5,-8.62 3.58,-4.35 5.35,-8.97 5.35,-13.84 0,-8.02 -5.04,-16.33 -15.14,-24.95 6.79,-2.7 11.93,-6.51 15.41,-11.43 3.48,-4.92 5.22,-10.73 5.22,-17.43 0,-9.58 -3.04,-17.9 -9.14,-24.95 -7.92,-9.14 -19.46,-13.71 -34.61,-13.71 -7.4,0 -12.45,0.94 -15.15,2.81 -2.69,1.87 -4.05,3.85 -4.05,5.94 0,1.56 0.64,2.96 1.9,4.18 1.26,1.22 2.81,1.83 4.63,1.83 1.4,0 2.79,-0.22 4.18,-0.65 0.87,-0.35 2.94,-1.37 6.2,-3.08 3.27,-1.7 5.56,-2.71 6.86,-3.07 2,-0.61 4.14,-0.91 6.4,-0.91 5.57,0 10.4,2.16 14.5,6.46 4.09,4.32 6.13,9.43 6.13,15.35 0,4.27 -0.95,8.45 -2.87,12.54 -1.39,3.05 -2.92,5.36 -4.56,6.92 -2.36,2.18 -5.58,4.16 -9.67,5.94 -4.09,1.79 -8.27,2.68 -12.54,2.68 h -2.61 v 2.35 c 4.35,0.62 8.68,2.18 12.99,4.7 4.31,2.52 7.44,5.6 9.4,9.21 1.97,3.61 2.94,7.56 2.94,11.82 0,5.66 -1.74,10.21 -5.22,13.65 -3.48,3.43 -7.83,5.16 -13.05,5.16 -8.46,0 -15.51,-4.53 -21.17,-13.58 l -2.74,1.3"
             style="fill:#000000;fill-opacity:1;fill-rule:nonzero;stroke:none"
             transform="matrix(0.13333333,0,0,-0.13333333,-50.666667,734.66667)"
             clip-path="url(#clipPath52)"
             id="path142" />
          <path
             d="m 3098.41,3561.34 v -44.46"
             style="fill:none;stroke:#000000;stroke-width:1;stroke-linecap:butt;stroke-linejoin:round;stroke-miterlimit:10;stroke-dasharray:none;stroke-opacity:1"
             transform="matrix(0.13333333,0,0,-0.13333333,-50.666667,734.66667)"
             clip-path="url(#clipPath53)"
             id="path143" />
          <path
             d="m 3128.06,3385.71 v -11.62 h -14.89 v -29.25 h -13.46 v 29.25 h -46.88 v 10.45 l 51.33,73.27 h 9.01 v -72.1 z m -28.35,0 v 54.86 l -38.91,-54.86 h 38.91"
             style="fill:#000000;fill-opacity:1;fill-rule:nonzero;stroke:none"
             transform="matrix(0.13333333,0,0,-0.13333333,-50.666667,734.66667)"
             clip-path="url(#clipPath54)"
             id="path144" />
          <path
             d="m 3626.42,3561.34 v -44.46"
             style="fill:none;stroke:#000000;stroke-width:1;stroke-linecap:butt;stroke-linejoin:round;stroke-miterlimit:10;stroke-dasharray:none;stroke-opacity:1"
             transform="matrix(0.13333333,0,0,-0.13333333,-50.666667,734.66667)"
             clip-path="url(#clipPath55)"
             id="path145" />
          <path
             d="m 3649.42,3455.58 -6.4,-13.96 h -33.31 l -7.31,-14.76 c 14.45,-2.18 25.9,-7.57 34.35,-16.2 7.23,-7.4 10.84,-16.11 10.84,-26.12 0,-5.74 -1.17,-11.1 -3.53,-16.06 -2.35,-4.96 -5.33,-9.19 -8.94,-12.67 -3.62,-3.49 -7.64,-6.31 -12.08,-8.49 -6.19,-2.96 -12.58,-4.44 -19.2,-4.44 -6.62,0 -11.45,1.13 -14.5,3.39 -3.05,2.27 -4.57,4.75 -4.57,7.45 0,1.56 0.63,2.94 1.89,4.11 1.27,1.18 2.85,1.76 4.77,1.76 1.39,0 2.64,-0.21 3.72,-0.64 1.09,-0.44 2.9,-1.58 5.42,-3.4 4.1,-2.87 8.23,-4.31 12.41,-4.31 6.36,0 11.95,2.41 16.78,7.24 4.84,4.84 7.25,10.7 7.25,17.57 0,6.71 -2.15,12.95 -6.47,18.74 -4.3,5.8 -10.24,10.3 -17.83,13.52 -5.91,2.44 -14.01,3.83 -24.28,4.18 l 21.28,43.09 h 39.71"
             style="fill:#000000;fill-opacity:1;fill-rule:nonzero;stroke:none"
             transform="matrix(0.13333333,0,0,-0.13333333,-50.666667,734.66667)"
             clip-path="url(#clipPath56)"
             id="path146" />
          <path
             d="m 4154.44,3561.34 v -44.46"
             style="fill:none;stroke:#000000;stroke-width:1;stroke-linecap:butt;stroke-linejoin:round;stroke-miterlimit:10;stroke-dasharray:none;stroke-opacity:1"
             transform="matrix(0.13333333,0,0,-0.13333333,-50.666667,734.66667)"
             clip-path="url(#clipPath57)"
             id="path147" />
          <path
             d="m 4186.71,3457.81 v -3 c -7.23,-0.7 -13.1,-2.14 -17.63,-4.32 -4.53,-2.17 -9.01,-5.46 -13.45,-9.86 -4.45,-4.4 -8.13,-9.29 -11.04,-14.68 -2.92,-5.4 -5.34,-11.85 -7.25,-19.34 7.84,5.4 15.67,8.1 23.51,8.1 7.58,0 14.15,-3.05 19.72,-9.14 5.57,-6.1 8.36,-13.94 8.36,-23.51 0,-9.23 -2.84,-17.67 -8.49,-25.34 -6.71,-9.23 -15.62,-13.84 -26.78,-13.84 -7.57,0 -13.97,2.52 -19.2,7.57 -10.35,9.67 -15.53,22.29 -15.53,37.88 0,9.84 1.98,19.22 5.94,28.15 3.96,8.91 9.65,16.84 17.04,23.77 7.4,6.92 14.48,11.57 21.23,13.96 6.74,2.4 13.04,3.6 18.87,3.6 z m -50.81,-57.08 c -0.95,-7.39 -1.44,-13.36 -1.44,-17.89 0,-5.22 0.97,-10.88 2.88,-16.98 1.91,-6.09 4.79,-10.96 8.62,-14.62 2.79,-2.53 6.14,-3.79 10.05,-3.79 4.79,0 9.04,2.24 12.74,6.73 3.7,4.48 5.55,10.86 5.55,19.13 0,9.23 -1.85,17.26 -5.55,24.1 -3.7,6.83 -8.94,10.25 -15.74,10.25 -2,0 -4.2,-0.44 -6.59,-1.31 -2.39,-0.87 -5.9,-2.74 -10.52,-5.62"
             style="fill:#000000;fill-opacity:1;fill-rule:nonzero;stroke:none"
             transform="matrix(0.13333333,0,0,-0.13333333,-50.666667,734.66667)"
             clip-path="url(#clipPath58)"
             id="path148" />
          <path
             d="m 4682.45,3561.34 v -44.46"
             style="fill:none;stroke:#000000;stroke-width:1;stroke-linecap:butt;stroke-linejoin:round;stroke-miterlimit:10;stroke-dasharray:none;stroke-opacity:1"
             transform="matrix(0.13333333,0,0,-0.13333333,-50.666667,734.66667)"
             clip-path="url(#clipPath59)"
             id="path149" />
          <path
             d="m 4655.17,3455.58 h 59.29 v -3.13 l -36.82,-109.97 h -9.14 l 33.04,99.79 h -30.44 c -6.17,0 -10.57,-0.75 -13.19,-2.22 -4.52,-2.53 -8.18,-6.41 -10.96,-11.63 l -2.35,0.92 10.57,26.24"
             style="fill:#000000;fill-opacity:1;fill-rule:nonzero;stroke:none"
             transform="matrix(0.13333333,0,0,-0.13333333,-50.666667,734.66667)"
             clip-path="url(#clipPath60)"
             id="path150" />
          <path
             d="m 5210.47,3561.34 v -44.46"
             style="fill:none;stroke:#000000;stroke-width:1;stroke-linecap:butt;stroke-linejoin:round;stroke-miterlimit:10;stroke-dasharray:none;stroke-opacity:1"
             transform="matrix(0.13333333,0,0,-0.13333333,-50.666667,734.66667)"
             clip-path="url(#clipPath61)"
             id="path151" />
          <path
             d="m 5197.03,3400.6 c -8.79,7.14 -14.45,12.89 -16.98,17.24 -2.52,4.36 -3.78,8.88 -3.78,13.59 0,7.22 2.77,13.43 8.29,18.61 5.53,5.17 12.9,7.77 22.14,7.77 8.96,0 16.17,-2.42 21.61,-7.25 5.45,-4.83 8.17,-10.34 8.17,-16.52 0,-4.18 -1.48,-8.42 -4.44,-12.74 -2.96,-4.31 -9.11,-9.38 -18.42,-15.21 9.58,-7.4 15.93,-13.2 19.07,-17.38 4.1,-5.56 6.13,-11.44 6.13,-17.62 0,-7.75 -2.96,-14.39 -8.87,-19.92 -5.93,-5.53 -13.72,-8.29 -23.38,-8.29 -10.45,0 -18.63,3.31 -24.56,9.93 -4.61,5.22 -6.92,10.96 -6.92,17.23 0,4.88 1.64,9.73 4.9,14.57 3.27,4.82 8.95,10.16 17.04,15.99 z m 12.81,8.75 c 6.52,5.84 10.66,10.45 12.4,13.85 1.74,3.4 2.61,7.27 2.61,11.62 0,5.66 -1.61,10.13 -4.83,13.39 -3.22,3.26 -7.62,4.9 -13.19,4.9 -5.49,0 -9.97,-1.61 -13.45,-4.84 -3.49,-3.22 -5.22,-6.96 -5.22,-11.22 0,-2.88 0.72,-5.73 2.15,-8.57 1.43,-2.82 3.46,-5.5 6.07,-8.03 z m -9.02,-11.88 c -4.52,-3.83 -7.87,-7.99 -10.06,-12.47 -2.17,-4.48 -3.26,-9.34 -3.26,-14.56 0,-6.97 1.92,-12.56 5.75,-16.79 3.83,-4.22 8.7,-6.33 14.62,-6.33 5.93,0 10.65,1.65 14.17,4.96 3.53,3.31 5.29,7.31 5.29,12.02 0,3.91 -1.04,7.44 -3.13,10.58 -3.83,5.75 -11.62,13.28 -23.38,22.59"
             style="fill:#000000;fill-opacity:1;fill-rule:nonzero;stroke:none"
             transform="matrix(0.13333333,0,0,-0.13333333,-50.666667,734.66667)"
             clip-path="url(#clipPath62)"
             id="path152" />
          <path
             d="m 722.34,3561.34 v -22.23"
             style="fill:none;stroke:#000000;stroke-width:1;stroke-linecap:butt;stroke-linejoin:round;stroke-miterlimit:10;stroke-dasharray:none;stroke-opacity:1"
             transform="matrix(0.13333333,0,0,-0.13333333,-50.666667,734.66667)"
             clip-path="url(#clipPath63)"
             id="path153" />
          <path
             d="m 1250.36,3561.34 v -22.23"
             style="fill:none;stroke:#000000;stroke-width:1;stroke-linecap:butt;stroke-linejoin:round;stroke-miterlimit:10;stroke-dasharray:none;stroke-opacity:1"
             transform="matrix(0.13333333,0,0,-0.13333333,-50.666667,734.66667)"
             clip-path="url(#clipPath64)"
             id="path154" />
          <path
             d="m 1778.38,3561.34 v -22.23"
             style="fill:none;stroke:#000000;stroke-width:1;stroke-linecap:butt;stroke-linejoin:round;stroke-miterlimit:10;stroke-dasharray:none;stroke-opacity:1"
             transform="matrix(0.13333333,0,0,-0.13333333,-50.666667,734.66667)"
             clip-path="url(#clipPath65)"
             id="path155" />
          <path
             d="m 2306.38,3561.34 v -22.23"
             style="fill:none;stroke:#000000;stroke-width:1;stroke-linecap:butt;stroke-linejoin:round;stroke-miterlimit:10;stroke-dasharray:none;stroke-opacity:1"
             transform="matrix(0.13333333,0,0,-0.13333333,-50.666667,734.66667)"
             clip-path="url(#clipPath66)"
             id="path156" />
          <path
             d="m 2834.4,3561.34 v -22.23"
             style="fill:none;stroke:#000000;stroke-width:1;stroke-linecap:butt;stroke-linejoin:round;stroke-miterlimit:10;stroke-dasharray:none;stroke-opacity:1"
             transform="matrix(0.13333333,0,0,-0.13333333,-50.666667,734.66667)"
             clip-path="url(#clipPath67)"
             id="path157" />
          <path
             d="m 3362.41,3561.34 v -22.23"
             style="fill:none;stroke:#000000;stroke-width:1;stroke-linecap:butt;stroke-linejoin:round;stroke-miterlimit:10;stroke-dasharray:none;stroke-opacity:1"
             transform="matrix(0.13333333,0,0,-0.13333333,-50.666667,734.66667)"
             clip-path="url(#clipPath68)"
             id="path158" />
          <path
             d="m 3890.43,3561.34 v -22.23"
             style="fill:none;stroke:#000000;stroke-width:1;stroke-linecap:butt;stroke-linejoin:round;stroke-miterlimit:10;stroke-dasharray:none;stroke-opacity:1"
             transform="matrix(0.13333333,0,0,-0.13333333,-50.666667,734.66667)"
             clip-path="url(#clipPath69)"
             id="path159" />
          <path
             d="m 4418.45,3561.34 v -22.23"
             style="fill:none;stroke:#000000;stroke-width:1;stroke-linecap:butt;stroke-linejoin:round;stroke-miterlimit:10;stroke-dasharray:none;stroke-opacity:1"
             transform="matrix(0.13333333,0,0,-0.13333333,-50.666667,734.66667)"
             clip-path="url(#clipPath70)"
             id="path160" />
          <path
             d="m 4946.46,3561.34 v -22.23"
             style="fill:none;stroke:#000000;stroke-width:1;stroke-linecap:butt;stroke-linejoin:round;stroke-miterlimit:10;stroke-dasharray:none;stroke-opacity:1"
             transform="matrix(0.13333333,0,0,-0.13333333,-50.666667,734.66667)"
             clip-path="url(#clipPath71)"
             id="path161" />
          <path
             d="m 5474.48,3561.34 v -22.23"
             style="fill:none;stroke:#000000;stroke-width:1;stroke-linecap:butt;stroke-linejoin:round;stroke-miterlimit:10;stroke-dasharray:none;stroke-opacity:1"
             transform="matrix(0.13333333,0,0,-0.13333333,-50.666667,734.66667)"
             clip-path="url(#clipPath72)"
             id="path162" />
          <path
             d="M 986.348,2325.11 V 5484.38"
             style="fill:none;stroke:#000000;stroke-width:8.35843;stroke-linecap:butt;stroke-linejoin:round;stroke-miterlimit:10;stroke-dasharray:none;stroke-opacity:1"
             transform="matrix(0.13333333,0,0,-0.13333333,-50.666667,734.66667)"
             clip-path="url(#clipPath73)"
             id="path163" />
          <path
             d="M 986.348,2462.47 H 941.883"
             style="fill:none;stroke:#000000;stroke-width:1;stroke-linecap:butt;stroke-linejoin:round;stroke-miterlimit:10;stroke-dasharray:none;stroke-opacity:1"
             transform="matrix(0.13333333,0,0,-0.13333333,-50.666667,734.66667)"
             clip-path="url(#clipPath74)"
             id="path164" />
        </g>
        <g
           clip-path="url(#clipPath77)"
           id="g165">
          <path
             d="m 412.355,2446.18 h 110.227 v 8.6211 H 412.355 Z"
             style="fill:#000000;fill-opacity:1;fill-rule:nonzero;stroke:none"
             transform="matrix(0.13333333,0,0,-0.13333333,-50.666667,734.66667)"
             clip-path="url(#clipPath76)"
             id="path165" />
        </g>
        <g
           clip-path="url(#clipPath80)"
           id="g167">
          <path
             d="m 570.383,2441.21 v -11.62 h -14.887 v -29.26 h -13.453 v 29.26 h -46.887 v 10.45 l 51.328,73.26 h 9.012 v -72.09 z m -28.34,0 v 54.86 l -38.918,-54.86 z m 40.094,13.84 c 0,12.63 1.914,23.49 5.746,32.59 3.832,9.1 8.883,15.87 15.148,20.31 4.965,3.57 10.059,5.35 15.282,5.35 8.445,0 16.066,-4.31 22.855,-12.92 8.359,-10.71 12.539,-25.26 12.539,-43.63 0,-12.88 -1.852,-23.81 -5.551,-32.77 -3.703,-8.97 -8.402,-15.48 -14.105,-19.53 -5.703,-4.05 -11.254,-6.07 -16.653,-6.07 -10.535,0 -19.328,6.22 -26.378,18.67 -5.922,10.54 -8.883,23.2 -8.883,38 z m 16.062,-2.09 c 0,-15.23 1.875,-27.64 5.617,-37.21 3.137,-8.19 7.75,-12.29 13.844,-12.29 2.961,0 6.008,1.34 9.141,3.99 3.137,2.66 5.531,7.07 7.183,13.26 2.528,9.4 3.789,22.59 3.789,39.57 0,12.63 -1.308,23.16 -3.918,31.61 -2.003,6.27 -4.527,10.71 -7.574,13.31 -2.265,1.84 -4.965,2.75 -8.097,2.75 -3.746,0 -7.055,-1.65 -9.926,-4.96 -3.918,-4.53 -6.574,-11.65 -7.969,-21.36 -1.391,-9.7 -2.09,-19.26 -2.09,-28.67 z m 67.524,2.09 c 0,12.63 1.914,23.49 5.746,32.59 3.828,9.1 8.879,15.87 15.148,20.31 4.965,3.57 10.055,5.35 15.281,5.35 8.446,0 16.063,-4.31 22.856,-12.92 8.355,-10.71 12.535,-25.26 12.535,-43.63 0,-12.88 -1.848,-23.81 -5.551,-32.77 -3.699,-8.97 -8.402,-15.48 -14.105,-19.53 -5.699,-4.05 -11.25,-6.07 -16.649,-6.07 -10.535,0 -19.328,6.22 -26.382,18.67 -5.918,10.54 -8.879,23.2 -8.879,38 z m 16.062,-2.09 c 0,-15.23 1.871,-27.64 5.617,-37.21 3.133,-8.19 7.746,-12.29 13.844,-12.29 2.957,0 6.008,1.34 9.141,3.99 3.133,2.66 5.527,7.07 7.183,13.26 2.524,9.4 3.785,22.59 3.785,39.57 0,12.63 -1.304,23.16 -3.917,31.61 -2,6.27 -4.528,10.71 -7.575,13.31 -2.261,1.84 -4.961,2.75 -8.097,2.75 -3.743,0 -7.051,-1.65 -9.926,-4.96 -3.918,-4.53 -6.574,-11.65 -7.965,-21.36 -1.395,-9.7 -2.09,-19.26 -2.09,-28.67 z m 67.52,2.09 c 0,12.63 1.918,23.49 5.746,32.59 3.832,9.1 8.883,15.87 15.152,20.31 4.961,3.57 10.055,5.35 15.277,5.35 8.446,0 16.067,-4.31 22.856,-12.92 8.359,-10.71 12.539,-25.26 12.539,-43.63 0,-12.88 -1.852,-23.81 -5.551,-32.77 -3.699,-8.97 -8.402,-15.48 -14.105,-19.53 -5.703,-4.05 -11.254,-6.07 -16.653,-6.07 -10.535,0 -19.328,6.22 -26.378,18.67 -5.922,10.54 -8.883,23.2 -8.883,38 z m 16.066,-2.09 c 0,-15.23 1.871,-27.64 5.613,-37.21 3.137,-8.19 7.75,-12.29 13.844,-12.29 2.961,0 6.008,1.34 9.145,3.99 3.132,2.66 5.527,7.07 7.179,13.26 2.528,9.4 3.789,22.59 3.789,39.57 0,12.63 -1.304,23.16 -3.918,31.61 -2.003,6.27 -4.527,10.71 -7.574,13.31 -2.265,1.84 -4.965,2.75 -8.097,2.75 -3.747,0 -7.051,-1.65 -9.926,-4.96 -3.918,-4.53 -6.574,-11.65 -7.965,-21.36 -1.395,-9.7 -2.09,-19.26 -2.09,-28.67 z m 67.52,2.09 c 0,12.63 1.914,23.49 5.746,32.59 3.832,9.1 8.879,15.87 15.148,20.31 4.965,3.57 10.059,5.35 15.281,5.35 8.446,0 16.063,-4.31 22.856,-12.92 8.359,-10.71 12.535,-25.26 12.535,-43.63 0,-12.88 -1.848,-23.81 -5.551,-32.77 -3.699,-8.97 -8.398,-15.48 -14.101,-19.53 -5.703,-4.05 -11.254,-6.07 -16.653,-6.07 -10.535,0 -19.328,6.22 -26.382,18.67 -5.918,10.54 -8.879,23.2 -8.879,38 z m 16.062,-2.09 c 0,-15.23 1.871,-27.64 5.617,-37.21 3.133,-8.19 7.746,-12.29 13.844,-12.29 2.961,0 6.008,1.34 9.141,3.99 3.136,2.66 5.527,7.07 7.183,13.26 2.524,9.4 3.789,22.59 3.789,39.57 0,12.63 -1.308,23.16 -3.918,31.61 -2.004,6.27 -4.531,10.71 -7.578,13.31 -2.261,1.84 -4.961,2.75 -8.097,2.75 -3.743,0 -7.051,-1.65 -9.922,-4.96 -3.918,-4.53 -6.574,-11.65 -7.969,-21.36 -1.395,-9.7 -2.09,-19.26 -2.09,-28.67"
             style="fill:#000000;fill-opacity:1;fill-rule:nonzero;stroke:none"
             transform="matrix(0.13333333,0,0,-0.13333333,-50.666667,734.66667)"
             clip-path="url(#clipPath78)"
             id="path166" />
          <path
             d="M 986.348,3011.91 H 941.883"
             style="fill:none;stroke:#000000;stroke-width:1;stroke-linecap:butt;stroke-linejoin:round;stroke-miterlimit:10;stroke-dasharray:none;stroke-opacity:1"
             transform="matrix(0.13333333,0,0,-0.13333333,-50.666667,734.66667)"
             clip-path="url(#clipPath79)"
             id="path167" />
        </g>
        <g
           clip-path="url(#clipPath82)"
           id="g168">
          <path
             d="m 412.355,2997.84 h 110.227 v 8.6172 H 412.355 Z"
             style="fill:#000000;fill-opacity:1;fill-rule:nonzero;stroke:none"
             transform="matrix(0.13333333,0,0,-0.13333333,-50.666667,734.66667)"
             clip-path="url(#clipPath81)"
             id="path168" />
        </g>
        <g
           clip-path="url(#clipPath97)"
           id="g182">
          <path
             d="m 569.207,2973.28 -7.703,-21.29 h -65.301 v 3.01 c 19.152,17.5 32.649,31.8 40.485,42.9 7.835,11.1 11.753,21.26 11.753,30.49 0,7.06 -2.156,12.82 -6.464,17.31 -4.309,4.48 -9.426,6.72 -15.344,6.72 -5.488,0 -10.383,-1.58 -14.695,-4.76 -4.309,-3.18 -7.508,-7.82 -9.598,-13.91 h -3.004 c 1.394,10.02 4.898,17.71 10.516,23.11 5.613,5.4 12.644,8.1 21.089,8.1 8.969,0 16.457,-2.87 22.465,-8.62 6.008,-5.75 9.008,-12.54 9.008,-20.38 0,-5.65 -1.305,-11.27 -3.914,-16.83 -4.008,-8.8 -10.535,-18.16 -19.594,-28.09 -13.582,-14.81 -22.027,-23.72 -25.336,-26.77 h 28.864 c 5.832,0 9.949,0.21 12.343,0.65 2.395,0.43 4.547,1.33 6.465,2.68 1.914,1.35 3.571,3.24 4.961,5.68 z m 12.93,33.43 c 0,12.63 1.914,23.49 5.746,32.59 3.832,9.09 8.883,15.86 15.148,20.3 4.965,3.58 10.059,5.36 15.282,5.36 8.445,0 16.066,-4.31 22.855,-12.93 8.359,-10.71 12.539,-25.25 12.539,-43.62 0,-12.88 -1.852,-23.82 -5.551,-32.78 -3.703,-8.97 -8.402,-15.47 -14.105,-19.52 -5.703,-4.06 -11.254,-6.08 -16.653,-6.08 -10.535,0 -19.328,6.23 -26.378,18.68 -5.922,10.54 -8.883,23.2 -8.883,38 z m 16.062,-2.09 c 0,-15.24 1.875,-27.64 5.617,-37.22 3.137,-8.18 7.75,-12.28 13.844,-12.28 2.961,0 6.008,1.33 9.141,3.99 3.137,2.66 5.531,7.07 7.183,13.26 2.528,9.4 3.789,22.59 3.789,39.56 0,12.64 -1.308,23.17 -3.918,31.62 -2.003,6.27 -4.527,10.7 -7.574,13.31 -2.265,1.83 -4.965,2.74 -8.097,2.74 -3.746,0 -7.055,-1.64 -9.926,-4.95 -3.918,-4.53 -6.574,-11.65 -7.969,-21.36 -1.391,-9.7 -2.09,-19.27 -2.09,-28.67 z m 67.524,2.09 c 0,12.63 1.914,23.49 5.746,32.59 3.828,9.09 8.879,15.86 15.148,20.3 4.965,3.58 10.055,5.36 15.281,5.36 8.446,0 16.063,-4.31 22.856,-12.93 8.355,-10.71 12.535,-25.25 12.535,-43.62 0,-12.88 -1.848,-23.82 -5.551,-32.78 -3.699,-8.97 -8.402,-15.47 -14.105,-19.52 -5.699,-4.06 -11.25,-6.08 -16.649,-6.08 -10.535,0 -19.328,6.23 -26.382,18.68 -5.918,10.54 -8.879,23.2 -8.879,38 z m 16.062,-2.09 c 0,-15.24 1.871,-27.64 5.617,-37.22 3.133,-8.18 7.746,-12.28 13.844,-12.28 2.957,0 6.008,1.33 9.141,3.99 3.133,2.66 5.527,7.07 7.183,13.26 2.524,9.4 3.785,22.59 3.785,39.56 0,12.64 -1.304,23.17 -3.917,31.62 -2,6.27 -4.528,10.7 -7.575,13.31 -2.261,1.83 -4.961,2.74 -8.097,2.74 -3.743,0 -7.051,-1.64 -9.926,-4.95 -3.918,-4.53 -6.574,-11.65 -7.965,-21.36 -1.395,-9.7 -2.09,-19.27 -2.09,-28.67 z m 67.52,2.09 c 0,12.63 1.918,23.49 5.746,32.59 3.832,9.09 8.883,15.86 15.152,20.3 4.961,3.58 10.055,5.36 15.277,5.36 8.446,0 16.067,-4.31 22.856,-12.93 8.359,-10.71 12.539,-25.25 12.539,-43.62 0,-12.88 -1.852,-23.82 -5.551,-32.78 -3.699,-8.97 -8.402,-15.47 -14.105,-19.52 -5.703,-4.06 -11.254,-6.08 -16.653,-6.08 -10.535,0 -19.328,6.23 -26.378,18.68 -5.922,10.54 -8.883,23.2 -8.883,38 z m 16.066,-2.09 c 0,-15.24 1.871,-27.64 5.613,-37.22 3.137,-8.18 7.75,-12.28 13.844,-12.28 2.961,0 6.008,1.33 9.145,3.99 3.132,2.66 5.527,7.07 7.179,13.26 2.528,9.4 3.789,22.59 3.789,39.56 0,12.64 -1.304,23.17 -3.918,31.62 -2.003,6.27 -4.527,10.7 -7.574,13.31 -2.265,1.83 -4.965,2.74 -8.097,2.74 -3.747,0 -7.051,-1.64 -9.926,-4.95 -3.918,-4.53 -6.574,-11.65 -7.965,-21.36 -1.395,-9.7 -2.09,-19.27 -2.09,-28.67 z m 67.52,2.09 c 0,12.63 1.914,23.49 5.746,32.59 3.832,9.09 8.879,15.86 15.148,20.3 4.965,3.58 10.059,5.36 15.281,5.36 8.446,0 16.063,-4.31 22.856,-12.93 8.359,-10.71 12.535,-25.25 12.535,-43.62 0,-12.88 -1.848,-23.82 -5.551,-32.78 -3.699,-8.97 -8.398,-15.47 -14.101,-19.52 -5.703,-4.06 -11.254,-6.08 -16.653,-6.08 -10.535,0 -19.328,6.23 -26.382,18.68 -5.918,10.54 -8.879,23.2 -8.879,38 z m 16.062,-2.09 c 0,-15.24 1.871,-27.64 5.617,-37.22 3.133,-8.18 7.746,-12.28 13.844,-12.28 2.961,0 6.008,1.33 9.141,3.99 3.136,2.66 5.527,7.07 7.183,13.26 2.524,9.4 3.789,22.59 3.789,39.56 0,12.64 -1.308,23.17 -3.918,31.62 -2.004,6.27 -4.531,10.7 -7.578,13.31 -2.261,1.83 -4.961,2.74 -8.097,2.74 -3.743,0 -7.051,-1.64 -9.922,-4.95 -3.918,-4.53 -6.574,-11.65 -7.969,-21.36 -1.395,-9.7 -2.09,-19.27 -2.09,-28.67"
             style="fill:#000000;fill-opacity:1;fill-rule:nonzero;stroke:none"
             transform="matrix(0.13333333,0,0,-0.13333333,-50.666667,734.66667)"
             clip-path="url(#clipPath83)"
             id="path169" />
          <path
             d="M 986.348,3561.34 H 941.883"
             style="fill:none;stroke:#000000;stroke-width:1;stroke-linecap:butt;stroke-linejoin:round;stroke-miterlimit:10;stroke-dasharray:none;stroke-opacity:1"
             transform="matrix(0.13333333,0,0,-0.13333333,-50.666667,734.66667)"
             clip-path="url(#clipPath84)"
             id="path170" />
          <path
             d="M 986.348,4110.79 H 941.883"
             style="fill:none;stroke:#000000;stroke-width:1;stroke-linecap:butt;stroke-linejoin:round;stroke-miterlimit:10;stroke-dasharray:none;stroke-opacity:1"
             transform="matrix(0.13333333,0,0,-0.13333333,-50.666667,734.66667)"
             clip-path="url(#clipPath85)"
             id="path171" />
          <path
             d="m 569.207,4068.23 -7.703,-21.29 h -65.301 v 3.01 c 19.152,17.5 32.649,31.81 40.485,42.91 7.835,11.1 11.753,21.26 11.753,30.49 0,7.05 -2.156,12.82 -6.464,17.3 -4.309,4.49 -9.426,6.73 -15.344,6.73 -5.488,0 -10.383,-1.59 -14.695,-4.77 -4.309,-3.17 -7.508,-7.81 -9.598,-13.9 h -3.004 c 1.394,10.01 4.898,17.71 10.516,23.11 5.613,5.39 12.644,8.09 21.089,8.09 8.969,0 16.457,-2.87 22.465,-8.61 6.008,-5.75 9.008,-12.54 9.008,-20.38 0,-5.66 -1.305,-11.28 -3.914,-16.84 -4.008,-8.79 -10.535,-18.16 -19.594,-28.09 -13.582,-14.8 -22.027,-23.72 -25.336,-26.77 h 28.864 c 5.832,0 9.949,0.22 12.343,0.66 2.395,0.43 4.547,1.32 6.465,2.68 1.914,1.34 3.571,3.24 4.961,5.67 z m 12.93,33.43 c 0,12.64 1.914,23.49 5.746,32.59 3.832,9.1 8.883,15.87 15.148,20.31 4.965,3.58 10.059,5.35 15.282,5.35 8.445,0 16.066,-4.31 22.855,-12.93 8.359,-10.7 12.539,-25.25 12.539,-43.62 0,-12.88 -1.852,-23.81 -5.551,-32.77 -3.703,-8.97 -8.402,-15.48 -14.105,-19.53 -5.703,-4.05 -11.254,-6.07 -16.653,-6.07 -10.535,0 -19.328,6.22 -26.378,18.67 -5.922,10.54 -8.883,23.2 -8.883,38 z m 16.062,-2.08 c 0,-15.24 1.875,-27.65 5.617,-37.22 3.137,-8.19 7.75,-12.28 13.844,-12.28 2.961,0 6.008,1.33 9.141,3.99 3.137,2.65 5.531,7.07 7.183,13.25 2.528,9.4 3.789,22.59 3.789,39.57 0,12.63 -1.308,23.16 -3.918,31.61 -2.003,6.27 -4.527,10.71 -7.574,13.32 -2.265,1.83 -4.965,2.74 -8.097,2.74 -3.746,0 -7.055,-1.65 -9.926,-4.96 -3.918,-4.53 -6.574,-11.65 -7.969,-21.35 -1.391,-9.71 -2.09,-19.27 -2.09,-28.67 z m 67.524,2.08 c 0,12.64 1.914,23.49 5.746,32.59 3.828,9.1 8.879,15.87 15.148,20.31 4.965,3.58 10.055,5.35 15.281,5.35 8.446,0 16.063,-4.31 22.856,-12.93 8.355,-10.7 12.535,-25.25 12.535,-43.62 0,-12.88 -1.848,-23.81 -5.551,-32.77 -3.699,-8.97 -8.402,-15.48 -14.105,-19.53 -5.699,-4.05 -11.25,-6.07 -16.649,-6.07 -10.535,0 -19.328,6.22 -26.382,18.67 -5.918,10.54 -8.879,23.2 -8.879,38 z m 16.062,-2.08 c 0,-15.24 1.871,-27.65 5.617,-37.22 3.133,-8.19 7.746,-12.28 13.844,-12.28 2.957,0 6.008,1.33 9.141,3.99 3.133,2.65 5.527,7.07 7.183,13.25 2.524,9.4 3.785,22.59 3.785,39.57 0,12.63 -1.304,23.16 -3.917,31.61 -2,6.27 -4.528,10.71 -7.575,13.32 -2.261,1.83 -4.961,2.74 -8.097,2.74 -3.743,0 -7.051,-1.65 -9.926,-4.96 -3.918,-4.53 -6.574,-11.65 -7.965,-21.35 -1.395,-9.71 -2.09,-19.27 -2.09,-28.67 z m 67.52,2.08 c 0,12.64 1.918,23.49 5.746,32.59 3.832,9.1 8.883,15.87 15.152,20.31 4.961,3.58 10.055,5.35 15.277,5.35 8.446,0 16.067,-4.31 22.856,-12.93 8.359,-10.7 12.539,-25.25 12.539,-43.62 0,-12.88 -1.852,-23.81 -5.551,-32.77 -3.699,-8.97 -8.402,-15.48 -14.105,-19.53 -5.703,-4.05 -11.254,-6.07 -16.653,-6.07 -10.535,0 -19.328,6.22 -26.378,18.67 -5.922,10.54 -8.883,23.2 -8.883,38 z m 16.066,-2.08 c 0,-15.24 1.871,-27.65 5.613,-37.22 3.137,-8.19 7.75,-12.28 13.844,-12.28 2.961,0 6.008,1.33 9.145,3.99 3.132,2.65 5.527,7.07 7.179,13.25 2.528,9.4 3.789,22.59 3.789,39.57 0,12.63 -1.304,23.16 -3.918,31.61 -2.003,6.27 -4.527,10.71 -7.574,13.32 -2.265,1.83 -4.965,2.74 -8.097,2.74 -3.747,0 -7.051,-1.65 -9.926,-4.96 -3.918,-4.53 -6.574,-11.65 -7.965,-21.35 -1.395,-9.71 -2.09,-19.27 -2.09,-28.67 z m 67.52,2.08 c 0,12.64 1.914,23.49 5.746,32.59 3.832,9.1 8.879,15.87 15.148,20.31 4.965,3.58 10.059,5.35 15.281,5.35 8.446,0 16.063,-4.31 22.856,-12.93 8.359,-10.7 12.535,-25.25 12.535,-43.62 0,-12.88 -1.848,-23.81 -5.551,-32.77 -3.699,-8.97 -8.398,-15.48 -14.101,-19.53 -5.703,-4.05 -11.254,-6.07 -16.653,-6.07 -10.535,0 -19.328,6.22 -26.382,18.67 -5.918,10.54 -8.879,23.2 -8.879,38 z m 16.062,-2.08 c 0,-15.24 1.871,-27.65 5.617,-37.22 3.133,-8.19 7.746,-12.28 13.844,-12.28 2.961,0 6.008,1.33 9.141,3.99 3.136,2.65 5.527,7.07 7.183,13.25 2.524,9.4 3.789,22.59 3.789,39.57 0,12.63 -1.308,23.16 -3.918,31.61 -2.004,6.27 -4.531,10.71 -7.578,13.32 -2.261,1.83 -4.961,2.74 -8.097,2.74 -3.743,0 -7.051,-1.65 -9.922,-4.96 -3.918,-4.53 -6.574,-11.65 -7.969,-21.35 -1.395,-9.71 -2.09,-19.27 -2.09,-28.67"
             style="fill:#000000;fill-opacity:1;fill-rule:nonzero;stroke:none"
             transform="matrix(0.13333333,0,0,-0.13333333,-50.666667,734.66667)"
             clip-path="url(#clipPath86)"
             id="path172" />
          <path
             d="M 986.348,4660.23 H 941.883"
             style="fill:none;stroke:#000000;stroke-width:1;stroke-linecap:butt;stroke-linejoin:round;stroke-miterlimit:10;stroke-dasharray:none;stroke-opacity:1"
             transform="matrix(0.13333333,0,0,-0.13333333,-50.666667,734.66667)"
             clip-path="url(#clipPath87)"
             id="path173" />
          <path
             d="m 570.383,4639.48 v -11.62 h -14.887 v -29.26 h -13.453 v 29.26 h -46.887 v 10.44 l 51.328,73.27 h 9.012 v -72.09 z m -28.34,0 v 54.86 l -38.918,-54.86 z m 40.094,13.84 c 0,12.63 1.914,23.49 5.746,32.59 3.832,9.1 8.883,15.87 15.148,20.3 4.965,3.58 10.059,5.36 15.282,5.36 8.445,0 16.066,-4.31 22.855,-12.93 8.359,-10.71 12.539,-25.25 12.539,-43.62 0,-12.88 -1.852,-23.81 -5.551,-32.77 -3.703,-8.97 -8.402,-15.48 -14.105,-19.53 -5.703,-4.05 -11.254,-6.08 -16.653,-6.08 -10.535,0 -19.328,6.23 -26.378,18.68 -5.922,10.54 -8.883,23.2 -8.883,38 z m 16.062,-2.09 c 0,-15.23 1.875,-27.64 5.617,-37.22 3.137,-8.18 7.75,-12.28 13.844,-12.28 2.961,0 6.008,1.33 9.141,3.99 3.137,2.66 5.531,7.07 7.183,13.26 2.528,9.4 3.789,22.59 3.789,39.57 0,12.63 -1.308,23.16 -3.918,31.61 -2.003,6.27 -4.527,10.71 -7.574,13.31 -2.265,1.83 -4.965,2.74 -8.097,2.74 -3.746,0 -7.055,-1.64 -9.926,-4.95 -3.918,-4.53 -6.574,-11.65 -7.969,-21.36 -1.391,-9.7 -2.09,-19.26 -2.09,-28.67 z m 67.524,2.09 c 0,12.63 1.914,23.49 5.746,32.59 3.828,9.1 8.879,15.87 15.148,20.3 4.965,3.58 10.055,5.36 15.281,5.36 8.446,0 16.063,-4.31 22.856,-12.93 8.355,-10.71 12.535,-25.25 12.535,-43.62 0,-12.88 -1.848,-23.81 -5.551,-32.77 -3.699,-8.97 -8.402,-15.48 -14.105,-19.53 -5.699,-4.05 -11.25,-6.08 -16.649,-6.08 -10.535,0 -19.328,6.23 -26.382,18.68 -5.918,10.54 -8.879,23.2 -8.879,38 z m 16.062,-2.09 c 0,-15.23 1.871,-27.64 5.617,-37.22 3.133,-8.18 7.746,-12.28 13.844,-12.28 2.957,0 6.008,1.33 9.141,3.99 3.133,2.66 5.527,7.07 7.183,13.26 2.524,9.4 3.785,22.59 3.785,39.57 0,12.63 -1.304,23.16 -3.917,31.61 -2,6.27 -4.528,10.71 -7.575,13.31 -2.261,1.83 -4.961,2.74 -8.097,2.74 -3.743,0 -7.051,-1.64 -9.926,-4.95 -3.918,-4.53 -6.574,-11.65 -7.965,-21.36 -1.395,-9.7 -2.09,-19.26 -2.09,-28.67 z m 67.52,2.09 c 0,12.63 1.918,23.49 5.746,32.59 3.832,9.1 8.883,15.87 15.152,20.3 4.961,3.58 10.055,5.36 15.277,5.36 8.446,0 16.067,-4.31 22.856,-12.93 8.359,-10.71 12.539,-25.25 12.539,-43.62 0,-12.88 -1.852,-23.81 -5.551,-32.77 -3.699,-8.97 -8.402,-15.48 -14.105,-19.53 -5.703,-4.05 -11.254,-6.08 -16.653,-6.08 -10.535,0 -19.328,6.23 -26.378,18.68 -5.922,10.54 -8.883,23.2 -8.883,38 z m 16.066,-2.09 c 0,-15.23 1.871,-27.64 5.613,-37.22 3.137,-8.18 7.75,-12.28 13.844,-12.28 2.961,0 6.008,1.33 9.145,3.99 3.132,2.66 5.527,7.07 7.179,13.26 2.528,9.4 3.789,22.59 3.789,39.57 0,12.63 -1.304,23.16 -3.918,31.61 -2.003,6.27 -4.527,10.71 -7.574,13.31 -2.265,1.83 -4.965,2.74 -8.097,2.74 -3.747,0 -7.051,-1.64 -9.926,-4.95 -3.918,-4.53 -6.574,-11.65 -7.965,-21.36 -1.395,-9.7 -2.09,-19.26 -2.09,-28.67 z m 67.52,2.09 c 0,12.63 1.914,23.49 5.746,32.59 3.832,9.1 8.879,15.87 15.148,20.3 4.965,3.58 10.059,5.36 15.281,5.36 8.446,0 16.063,-4.31 22.856,-12.93 8.359,-10.71 12.535,-25.25 12.535,-43.62 0,-12.88 -1.848,-23.81 -5.551,-32.77 -3.699,-8.97 -8.398,-15.48 -14.101,-19.53 -5.703,-4.05 -11.254,-6.08 -16.653,-6.08 -10.535,0 -19.328,6.23 -26.382,18.68 -5.918,10.54 -8.879,23.2 -8.879,38 z m 16.062,-2.09 c 0,-15.23 1.871,-27.64 5.617,-37.22 3.133,-8.18 7.746,-12.28 13.844,-12.28 2.961,0 6.008,1.33 9.141,3.99 3.136,2.66 5.527,7.07 7.183,13.26 2.524,9.4 3.789,22.59 3.789,39.57 0,12.63 -1.308,23.16 -3.918,31.61 -2.004,6.27 -4.531,10.71 -7.578,13.31 -2.261,1.83 -4.961,2.74 -8.097,2.74 -3.743,0 -7.051,-1.64 -9.922,-4.95 -3.918,-4.53 -6.574,-11.65 -7.969,-21.36 -1.395,-9.7 -2.09,-19.26 -2.09,-28.67"
             style="fill:#000000;fill-opacity:1;fill-rule:nonzero;stroke:none"
             transform="matrix(0.13333333,0,0,-0.13333333,-50.666667,734.66667)"
             clip-path="url(#clipPath88)"
             id="path174" />
          <path
             d="M 986.348,5209.66 H 941.883"
             style="fill:none;stroke:#000000;stroke-width:1;stroke-linecap:butt;stroke-linejoin:round;stroke-miterlimit:10;stroke-dasharray:none;stroke-opacity:1"
             transform="matrix(0.13333333,0,0,-0.13333333,-50.666667,734.66667)"
             clip-path="url(#clipPath89)"
             id="path175" />
          <path
             d="m 567.508,5263.23 v -3.01 c -7.227,-0.69 -13.102,-2.13 -17.629,-4.31 -4.527,-2.17 -9.012,-5.46 -13.453,-9.86 -4.442,-4.39 -8.117,-9.29 -11.035,-14.69 -2.918,-5.4 -5.332,-11.84 -7.246,-19.33 7.835,5.4 15.671,8.1 23.507,8.1 7.575,0 14.149,-3.05 19.719,-9.14 5.574,-6.1 8.359,-13.94 8.359,-23.51 0,-9.23 -2.832,-17.68 -8.488,-25.34 -6.707,-9.23 -15.629,-13.84 -26.773,-13.84 -7.578,0 -13.977,2.52 -19.199,7.57 -10.364,9.67 -15.543,22.29 -15.543,37.88 0,9.84 1.98,19.21 5.945,28.14 3.961,8.93 9.641,16.85 17.043,23.77 7.398,6.92 14.473,11.58 21.223,13.98 6.746,2.39 13.035,3.59 18.871,3.59 z m -50.801,-57.08 c -0.957,-7.4 -1.437,-13.36 -1.437,-17.89 0,-5.22 0.957,-10.88 2.875,-16.97 1.914,-6.1 4.785,-10.98 8.617,-14.63 2.785,-2.53 6.14,-3.79 10.054,-3.79 4.789,0 9.036,2.24 12.735,6.72 3.703,4.49 5.551,10.87 5.551,19.14 0,9.23 -1.848,17.26 -5.551,24.09 -3.699,6.84 -8.946,10.25 -15.735,10.25 -2.003,0 -4.203,-0.43 -6.597,-1.3 -2.395,-0.87 -5.899,-2.74 -10.512,-5.62 z m 65.43,-1.17 c 0,12.62 1.914,23.48 5.746,32.58 3.832,9.1 8.883,15.87 15.148,20.31 4.965,3.57 10.059,5.36 15.282,5.36 8.445,0 16.066,-4.31 22.855,-12.93 8.359,-10.71 12.539,-25.25 12.539,-43.62 0,-12.89 -1.852,-23.82 -5.551,-32.79 -3.703,-8.96 -8.402,-15.47 -14.105,-19.52 -5.703,-4.05 -11.254,-6.07 -16.653,-6.07 -10.535,0 -19.328,6.22 -26.378,18.67 -5.922,10.54 -8.883,23.21 -8.883,38.01 z m 16.062,-2.09 c 0,-15.24 1.875,-27.64 5.617,-37.22 3.137,-8.19 7.75,-12.28 13.844,-12.28 2.961,0 6.008,1.33 9.141,3.99 3.137,2.65 5.531,7.07 7.183,13.25 2.528,9.41 3.789,22.6 3.789,39.57 0,12.63 -1.308,23.16 -3.918,31.61 -2.003,6.27 -4.527,10.71 -7.574,13.32 -2.265,1.83 -4.965,2.74 -8.097,2.74 -3.746,0 -7.055,-1.65 -9.926,-4.96 -3.918,-4.53 -6.574,-11.64 -7.969,-21.36 -1.391,-9.7 -2.09,-19.26 -2.09,-28.66 z m 67.524,2.09 c 0,12.62 1.914,23.48 5.746,32.58 3.828,9.1 8.879,15.87 15.148,20.31 4.965,3.57 10.055,5.36 15.281,5.36 8.446,0 16.063,-4.31 22.856,-12.93 8.355,-10.71 12.535,-25.25 12.535,-43.62 0,-12.89 -1.848,-23.82 -5.551,-32.79 -3.699,-8.96 -8.402,-15.47 -14.105,-19.52 -5.699,-4.05 -11.25,-6.07 -16.649,-6.07 -10.535,0 -19.328,6.22 -26.382,18.67 -5.918,10.54 -8.879,23.21 -8.879,38.01 z m 16.062,-2.09 c 0,-15.24 1.871,-27.64 5.617,-37.22 3.133,-8.19 7.746,-12.28 13.844,-12.28 2.957,0 6.008,1.33 9.141,3.99 3.133,2.65 5.527,7.07 7.183,13.25 2.524,9.41 3.785,22.6 3.785,39.57 0,12.63 -1.304,23.16 -3.917,31.61 -2,6.27 -4.528,10.71 -7.575,13.32 -2.261,1.83 -4.961,2.74 -8.097,2.74 -3.743,0 -7.051,-1.65 -9.926,-4.96 -3.918,-4.53 -6.574,-11.64 -7.965,-21.36 -1.395,-9.7 -2.09,-19.26 -2.09,-28.66 z m 67.52,2.09 c 0,12.62 1.918,23.48 5.746,32.58 3.832,9.1 8.883,15.87 15.152,20.31 4.961,3.57 10.055,5.36 15.277,5.36 8.446,0 16.067,-4.31 22.856,-12.93 8.359,-10.71 12.539,-25.25 12.539,-43.62 0,-12.89 -1.852,-23.82 -5.551,-32.79 -3.699,-8.96 -8.402,-15.47 -14.105,-19.52 -5.703,-4.05 -11.254,-6.07 -16.653,-6.07 -10.535,0 -19.328,6.22 -26.378,18.67 -5.922,10.54 -8.883,23.21 -8.883,38.01 z m 16.066,-2.09 c 0,-15.24 1.871,-27.64 5.613,-37.22 3.137,-8.19 7.75,-12.28 13.844,-12.28 2.961,0 6.008,1.33 9.145,3.99 3.132,2.65 5.527,7.07 7.179,13.25 2.528,9.41 3.789,22.6 3.789,39.57 0,12.63 -1.304,23.16 -3.918,31.61 -2.003,6.27 -4.527,10.71 -7.574,13.32 -2.265,1.83 -4.965,2.74 -8.097,2.74 -3.747,0 -7.051,-1.65 -9.926,-4.96 -3.918,-4.53 -6.574,-11.64 -7.965,-21.36 -1.395,-9.7 -2.09,-19.26 -2.09,-28.66 z m 67.52,2.09 c 0,12.62 1.914,23.48 5.746,32.58 3.832,9.1 8.879,15.87 15.148,20.31 4.965,3.57 10.059,5.36 15.281,5.36 8.446,0 16.063,-4.31 22.856,-12.93 8.359,-10.71 12.535,-25.25 12.535,-43.62 0,-12.89 -1.848,-23.82 -5.551,-32.79 -3.699,-8.96 -8.398,-15.47 -14.101,-19.52 -5.703,-4.05 -11.254,-6.07 -16.653,-6.07 -10.535,0 -19.328,6.22 -26.382,18.67 -5.918,10.54 -8.879,23.21 -8.879,38.01 z m 16.062,-2.09 c 0,-15.24 1.871,-27.64 5.617,-37.22 3.133,-8.19 7.746,-12.28 13.844,-12.28 2.961,0 6.008,1.33 9.141,3.99 3.136,2.65 5.527,7.07 7.183,13.25 2.524,9.41 3.789,22.6 3.789,39.57 0,12.63 -1.308,23.16 -3.918,31.61 -2.004,6.27 -4.531,10.71 -7.578,13.32 -2.261,1.83 -4.961,2.74 -8.097,2.74 -3.743,0 -7.051,-1.65 -9.922,-4.96 -3.918,-4.53 -6.574,-11.64 -7.969,-21.36 -1.395,-9.7 -2.09,-19.26 -2.09,-28.66"
             style="fill:#000000;fill-opacity:1;fill-rule:nonzero;stroke:none"
             transform="matrix(0.13333333,0,0,-0.13333333,-50.666667,734.66667)"
             clip-path="url(#clipPath90)"
             id="path176" />
          <path
             d="M 986.348,2737.18 H 964.117"
             style="fill:none;stroke:#000000;stroke-width:1;stroke-linecap:butt;stroke-linejoin:round;stroke-miterlimit:10;stroke-dasharray:none;stroke-opacity:1"
             transform="matrix(0.13333333,0,0,-0.13333333,-50.666667,734.66667)"
             clip-path="url(#clipPath91)"
             id="path177" />
          <path
             d="M 986.348,3286.63 H 964.117"
             style="fill:none;stroke:#000000;stroke-width:1;stroke-linecap:butt;stroke-linejoin:round;stroke-miterlimit:10;stroke-dasharray:none;stroke-opacity:1"
             transform="matrix(0.13333333,0,0,-0.13333333,-50.666667,734.66667)"
             clip-path="url(#clipPath92)"
             id="path178" />
          <path
             d="M 986.348,3836.07 H 964.117"
             style="fill:none;stroke:#000000;stroke-width:1;stroke-linecap:butt;stroke-linejoin:round;stroke-miterlimit:10;stroke-dasharray:none;stroke-opacity:1"
             transform="matrix(0.13333333,0,0,-0.13333333,-50.666667,734.66667)"
             clip-path="url(#clipPath93)"
             id="path179" />
          <path
             d="M 986.348,4385.5 H 964.117"
             style="fill:none;stroke:#000000;stroke-width:1;stroke-linecap:butt;stroke-linejoin:round;stroke-miterlimit:10;stroke-dasharray:none;stroke-opacity:1"
             transform="matrix(0.13333333,0,0,-0.13333333,-50.666667,734.66667)"
             clip-path="url(#clipPath94)"
             id="path180" />
          <path
             d="M 986.348,4934.94 H 964.117"
             style="fill:none;stroke:#000000;stroke-width:1;stroke-linecap:butt;stroke-linejoin:round;stroke-miterlimit:10;stroke-dasharray:none;stroke-opacity:1"
             transform="matrix(0.13333333,0,0,-0.13333333,-50.666667,734.66667)"
             clip-path="url(#clipPath95)"
             id="path181" />
          <path
             d="M 986.348,5484.38 H 964.117"
             style="fill:none;stroke:#000000;stroke-width:1;stroke-linecap:butt;stroke-linejoin:round;stroke-miterlimit:10;stroke-dasharray:none;stroke-opacity:1"
             transform="matrix(0.13333333,0,0,-0.13333333,-50.666667,734.66667)"
             clip-path="url(#clipPath96)"
             id="path182" />
        </g>
      </g>
    </g>
  </g>
</svg>
