<?xml version="1.0" encoding="UTF-8" standalone="no"?>
<!-- Created with Inkscape (http://www.inkscape.org/) -->

<svg
   version="1.1"
   id="svg1"
   width="725.33331"
   height="396"
   viewBox="0 0 725.33331 396"
   sodipodi:docname="taxi2.svg"
   inkscape:version="1.4.2 (f4327f4, 2025-05-13)"
   xmlns:inkscape="http://www.inkscape.org/namespaces/inkscape"
   xmlns:sodipodi="http://sodipodi.sourceforge.net/DTD/sodipodi-0.dtd"
   xmlns="http://www.w3.org/2000/svg"
   xmlns:svg="http://www.w3.org/2000/svg">
  <defs
     id="defs1">
    <clipPath
       clipPathUnits="userSpaceOnUse"
       id="clipPath1">
      <path
         d="M 0,0 H 612 V 792 H 0 Z"
         transform="matrix(10,0,0,10,-2.5e-6,2.5000001e-5)"
         id="path1" />
    </clipPath>
    <clipPath
       clipPathUnits="userSpaceOnUse"
       id="clipPath2">
      <path
         d="m 250.152,2532.05 h 5452.3 v 2969.03 h -5452.3 z"
         transform="translate(-2.5e-6,2.5000001e-5)"
         id="path2" />
    </clipPath>
    <clipPath
       clipPathUnits="userSpaceOnUse"
       id="clipPath3">
      <path
         d="M 0,0 H 612 V 792 H 0 Z"
         transform="matrix(1.3333333,0,0,-1.3333333,-33.333333,734.66667)"
         id="path3" />
    </clipPath>
    <clipPath
       clipPathUnits="userSpaceOnUse"
       id="clipPath4">
      <path
         d="m 241.793,2325.11 h 5466.41 V 5584.9 H 241.793 Z"
         transform="translate(-2.5e-6,2.5000001e-5)"
         id="path4" />
    </clipPath>
    <clipPath
       clipPathUnits="userSpaceOnUse"
       id="clipPath5">
      <path
         d="m 241.793,2325.11 h 5466.41 V 5584.9 H 241.793 Z"
         transform="translate(-2.5e-6,2.5000001e-5)"
         id="path5" />
    </clipPath>
    <clipPath
       clipPathUnits="userSpaceOnUse"
       id="clipPath6">
      <path
         d="m 241.793,2325.11 h 5466.41 V 5584.9 H 241.793 Z"
         transform="translate(-2.5e-6,2.5000001e-5)"
         id="path6" />
    </clipPath>
    <clipPath
       clipPathUnits="userSpaceOnUse"
       id="clipPath7">
      <path
         d="m 241.793,2325.11 h 5466.41 V 5584.9 H 241.793 Z"
         transform="translate(-2.5e-6,2.5000001e-5)"
         id="path7" />
    </clipPath>
    <clipPath
       clipPathUnits="userSpaceOnUse"
       id="clipPath8">
      <path
         d="m 241.793,2325.11 h 5466.41 V 5584.9 H 241.793 Z"
         transform="translate(-2.5e-6,2.5000001e-5)"
         id="path8" />
    </clipPath>
    <clipPath
       clipPathUnits="userSpaceOnUse"
       id="clipPath9">
      <path
         d="m 241.793,2325.11 h 5466.41 V 5584.9 H 241.793 Z"
         transform="translate(-2.5e-6,2.5000001e-5)"
         id="path9" />
    </clipPath>
    <clipPath
       clipPathUnits="userSpaceOnUse"
       id="clipPath10">
      <path
         d="m 241.793,2325.11 h 5466.41 V 5584.9 H 241.793 Z"
         transform="translate(-2.5e-6,2.5000001e-5)"
         id="path10" />
    </clipPath>
    <clipPath
       clipPathUnits="userSpaceOnUse"
       id="clipPath11">
      <path
         d="m 241.793,2325.11 h 5466.41 V 5584.9 H 241.793 Z"
         transform="translate(-2.5e-6,2.5000001e-5)"
         id="path11" />
    </clipPath>
    <clipPath
       clipPathUnits="userSpaceOnUse"
       id="clipPath12">
      <path
         d="m 241.793,2325.11 h 5466.41 V 5584.9 H 241.793 Z"
         transform="translate(-2.5e-6,2.5000001e-5)"
         id="path12" />
    </clipPath>
    <clipPath
       clipPathUnits="userSpaceOnUse"
       id="clipPath13">
      <path
         d="m 241.793,2325.11 h 5466.41 V 5584.9 H 241.793 Z"
         transform="translate(-2.5e-6,2.5000001e-5)"
         id="path13" />
    </clipPath>
    <clipPath
       clipPathUnits="userSpaceOnUse"
       id="clipPath14">
      <path
         d="m 241.793,2325.11 h 5466.41 V 5584.9 H 241.793 Z"
         transform="translate(-2.5e-6,2.5000001e-5)"
         id="path14" />
    </clipPath>
    <clipPath
       clipPathUnits="userSpaceOnUse"
       id="clipPath15">
      <path
         d="m 241.793,2325.11 h 5466.41 V 5584.9 H 241.793 Z"
         transform="translate(-2.5e-6,2.5000001e-5)"
         id="path15" />
    </clipPath>
    <clipPath
       clipPathUnits="userSpaceOnUse"
       id="clipPath16">
      <path
         d="m 241.793,2325.11 h 5466.41 V 5584.9 H 241.793 Z"
         transform="translate(-2.5e-6,2.5000001e-5)"
         id="path16" />
    </clipPath>
    <clipPath
       clipPathUnits="userSpaceOnUse"
       id="clipPath17">
      <path
         d="m 241.793,2325.11 h 5466.41 V 5584.9 H 241.793 Z"
         transform="translate(-2.5e-6,2.5000001e-5)"
         id="path17" />
    </clipPath>
    <clipPath
       clipPathUnits="userSpaceOnUse"
       id="clipPath18">
      <path
         d="m 241.793,2325.11 h 5466.41 V 5584.9 H 241.793 Z"
         transform="translate(-2.5e-6,2.5000001e-5)"
         id="path18" />
    </clipPath>
    <clipPath
       clipPathUnits="userSpaceOnUse"
       id="clipPath19">
      <path
         d="m 241.793,2325.11 h 5466.41 V 5584.9 H 241.793 Z"
         transform="translate(-2.5e-6,2.5000001e-5)"
         id="path19" />
    </clipPath>
    <clipPath
       clipPathUnits="userSpaceOnUse"
       id="clipPath20">
      <path
         d="m 241.793,2325.11 h 5466.41 V 5584.9 H 241.793 Z"
         transform="translate(-2.5e-6,2.5000001e-5)"
         id="path20" />
    </clipPath>
    <clipPath
       clipPathUnits="userSpaceOnUse"
       id="clipPath21">
      <path
         d="m 241.793,2325.11 h 5466.41 V 5584.9 H 241.793 Z"
         transform="translate(-2.5e-6,2.5000001e-5)"
         id="path21" />
    </clipPath>
    <clipPath
       clipPathUnits="userSpaceOnUse"
       id="clipPath22">
      <path
         d="m 241.793,2325.11 h 5466.41 V 5584.9 H 241.793 Z"
         transform="translate(-2.5e-6,2.5000001e-5)"
         id="path22" />
    </clipPath>
    <clipPath
       clipPathUnits="userSpaceOnUse"
       id="clipPath23">
      <path
         d="m 241.793,2325.11 h 5466.41 V 5584.9 H 241.793 Z"
         transform="translate(-2.5e-6,2.5000001e-5)"
         id="path23" />
    </clipPath>
    <clipPath
       clipPathUnits="userSpaceOnUse"
       id="clipPath24">
      <path
         d="M 0,0 H 612 V 792 H 0 Z"
         transform="matrix(1.3333333,0,0,-1.3333333,-33.333333,734.66667)"
         id="path24" />
    </clipPath>
    <clipPath
       clipPathUnits="userSpaceOnUse"
       id="clipPath25">
      <path
         d="m 250.152,2532.05 h 5452.3 v 2969.03 h -5452.3 z"
         transform="translate(-2.5e-6,2.5000001e-5)"
         id="path25" />
    </clipPath>
    <clipPath
       clipPathUnits="userSpaceOnUse"
       id="clipPath26">
      <path
         d="m 250.152,2532.05 h 5452.3 v 2969.03 h -5452.3 z"
         transform="translate(-2.5e-6,2.5000001e-5)"
         id="path26" />
    </clipPath>
    <clipPath
       clipPathUnits="userSpaceOnUse"
       id="clipPath27">
      <path
         d="M 0,0 H 612 V 792 H 0 Z"
         transform="matrix(1.3333333,0,0,-1.3333333,-33.333333,734.66667)"
         id="path27" />
    </clipPath>
    <clipPath
       clipPathUnits="userSpaceOnUse"
       id="clipPath28">
      <path
         d="m 2816.19,2517.35 h 200.602 v 275.828 H 2816.19 Z"
         transform="translate(-2.5e-6,2.5000001e-5)"
         id="path28" />
    </clipPath>
    <clipPath
       clipPathUnits="userSpaceOnUse"
       id="clipPath29">
      <path
         d="m 2816.19,2517.35 h 200.602 v 275.828 H 2816.19 Z"
         transform="translate(-2.5e-6,2.5000001e-5)"
         id="path29" />
    </clipPath>
    <clipPath
       clipPathUnits="userSpaceOnUse"
       id="clipPath30">
      <path
         d="M 0,0 H 612 V 792 H 0 Z"
         transform="matrix(1.3333333,0,0,-1.3333333,-33.333333,734.66667)"
         id="path30" />
    </clipPath>
    <clipPath
       clipPathUnits="userSpaceOnUse"
       id="clipPath31">
      <path
         d="m 4554.74,4498.3 h 626.883 v 192.242 H 4554.74 Z"
         transform="translate(-2.5e-6,2.5000001e-5)"
         id="path31" />
    </clipPath>
    <clipPath
       clipPathUnits="userSpaceOnUse"
       id="clipPath32">
      <path
         d="m 4554.74,4498.3 h 626.883 v 192.242 H 4554.74 Z"
         transform="translate(-2.5e-6,2.5000001e-5)"
         id="path32" />
    </clipPath>
    <clipPath
       clipPathUnits="userSpaceOnUse"
       id="clipPath33">
      <path
         d="m 4554.74,4498.3 h 626.883 v 192.242 H 4554.74 Z"
         transform="translate(-2.5e-6,2.5000001e-5)"
         id="path33" />
    </clipPath>
    <clipPath
       clipPathUnits="userSpaceOnUse"
       id="clipPath34">
      <path
         d="m 4554.74,4498.3 h 626.883 v 192.242 H 4554.74 Z"
         transform="translate(-2.5e-6,2.5000001e-5)"
         id="path34" />
    </clipPath>
    <clipPath
       clipPathUnits="userSpaceOnUse"
       id="clipPath35">
      <path
         d="m 4554.74,4498.3 h 626.883 v 192.242 H 4554.74 Z"
         transform="translate(-2.5e-6,2.5000001e-5)"
         id="path35" />
    </clipPath>
    <clipPath
       clipPathUnits="userSpaceOnUse"
       id="clipPath36">
      <path
         d="m 4554.74,4498.3 h 626.883 v 192.242 H 4554.74 Z"
         transform="translate(-2.5e-6,2.5000001e-5)"
         id="path36" />
    </clipPath>
    <clipPath
       clipPathUnits="userSpaceOnUse"
       id="clipPath37">
      <path
         d="M 0,0 H 612 V 792 H 0 Z"
         transform="matrix(1.3333333,0,0,-1.3333333,-33.333333,734.66667)"
         id="path37" />
    </clipPath>
    <clipPath
       clipPathUnits="userSpaceOnUse"
       id="clipPath38">
      <path
         d="m 5566.11,2609.29 h 133.734 v 192.242 H 5566.11 Z"
         transform="translate(-2.5e-6,2.5000001e-5)"
         id="path38" />
    </clipPath>
    <clipPath
       clipPathUnits="userSpaceOnUse"
       id="clipPath39">
      <path
         d="M 0,0 H 612 V 792 H 0 Z"
         transform="matrix(1.3333333,0,0,-1.3333333,-33.333333,734.66667)"
         id="path39" />
    </clipPath>
    <clipPath
       clipPathUnits="userSpaceOnUse"
       id="clipPath40">
      <path
         d="m 902.109,5392.65 h 133.734 v 192.242 H 902.109 Z"
         transform="translate(-2.5e-6,2.5000001e-5)"
         id="path40" />
    </clipPath>
    <clipPath
       clipPathUnits="userSpaceOnUse"
       id="clipPath41">
      <path
         d="M 0,0 H 612 V 792 H 0 Z"
         transform="matrix(1.3333333,0,0,-1.3333333,-33.333333,734.66667)"
         id="path41" />
    </clipPath>
    <clipPath
       clipPathUnits="userSpaceOnUse"
       id="clipPath42">
      <path
         d="m 241.793,2325.11 h 5466.41 V 5584.9 H 241.793 Z"
         transform="translate(-2.5e-6,2.5000001e-5)"
         id="path42" />
    </clipPath>
    <clipPath
       clipPathUnits="userSpaceOnUse"
       id="clipPath43">
      <path
         d="m 241.793,2325.11 h 5466.41 V 5584.9 H 241.793 Z"
         transform="translate(-2.5e-6,2.5000001e-5)"
         id="path43" />
    </clipPath>
    <clipPath
       clipPathUnits="userSpaceOnUse"
       id="clipPath44">
      <path
         d="M 0,0 H 612 V 792 H 0 Z"
         transform="matrix(1.3333333,0,0,-1.3333333,-33.333333,734.66667)"
         id="path44" />
    </clipPath>
    <clipPath
       clipPathUnits="userSpaceOnUse"
       id="clipPath45">
      <path
         d="m 425.676,2525.71 h 83.5859 v 175.527 H 425.676 Z"
         transform="translate(-2.5e-6,2.5000001e-5)"
         id="path45" />
    </clipPath>
    <clipPath
       clipPathUnits="userSpaceOnUse"
       id="clipPath46">
      <path
         d="M 0,0 H 612 V 792 H 0 Z"
         transform="matrix(1.3333333,0,0,-1.3333333,-33.333333,734.66667)"
         id="path46" />
    </clipPath>
    <clipPath
       clipPathUnits="userSpaceOnUse"
       id="clipPath47">
      <path
         d="m 241.793,2325.11 h 5466.41 V 5584.9 H 241.793 Z"
         transform="translate(-2.5e-6,2.5000001e-5)"
         id="path47" />
    </clipPath>
    <clipPath
       clipPathUnits="userSpaceOnUse"
       id="clipPath48">
      <path
         d="m 241.793,2325.11 h 5466.41 V 5584.9 H 241.793 Z"
         transform="translate(-2.5e-6,2.5000001e-5)"
         id="path48" />
    </clipPath>
    <clipPath
       clipPathUnits="userSpaceOnUse"
       id="clipPath49">
      <path
         d="m 241.793,2325.11 h 5466.41 V 5584.9 H 241.793 Z"
         transform="translate(-2.5e-6,2.5000001e-5)"
         id="path49" />
    </clipPath>
    <clipPath
       clipPathUnits="userSpaceOnUse"
       id="clipPath50">
      <path
         d="m 241.793,2325.11 h 5466.41 V 5584.9 H 241.793 Z"
         transform="translate(-2.5e-6,2.5000001e-5)"
         id="path50" />
    </clipPath>
    <clipPath
       clipPathUnits="userSpaceOnUse"
       id="clipPath51">
      <path
         d="m 241.793,2325.11 h 5466.41 V 5584.9 H 241.793 Z"
         transform="translate(-2.5e-6,2.5000001e-5)"
         id="path51" />
    </clipPath>
    <clipPath
       clipPathUnits="userSpaceOnUse"
       id="clipPath52">
      <path
         d="m 241.793,2325.11 h 5466.41 V 5584.9 H 241.793 Z"
         transform="translate(-2.5e-6,2.5000001e-5)"
         id="path52" />
    </clipPath>
    <clipPath
       clipPathUnits="userSpaceOnUse"
       id="clipPath53">
      <path
         d="m 241.793,2325.11 h 5466.41 V 5584.9 H 241.793 Z"
         transform="translate(-2.5e-6,2.5000001e-5)"
         id="path53" />
    </clipPath>
    <clipPath
       clipPathUnits="userSpaceOnUse"
       id="clipPath54">
      <path
         d="m 241.793,2325.11 h 5466.41 V 5584.9 H 241.793 Z"
         transform="translate(-2.5e-6,2.5000001e-5)"
         id="path54" />
    </clipPath>
    <clipPath
       clipPathUnits="userSpaceOnUse"
       id="clipPath55">
      <path
         d="m 241.793,2325.11 h 5466.41 V 5584.9 H 241.793 Z"
         transform="translate(-2.5e-6,2.5000001e-5)"
         id="path55" />
    </clipPath>
    <clipPath
       clipPathUnits="userSpaceOnUse"
       id="clipPath56">
      <path
         d="m 241.793,2325.11 h 5466.41 V 5584.9 H 241.793 Z"
         transform="translate(-2.5e-6,2.5000001e-5)"
         id="path56" />
    </clipPath>
    <clipPath
       clipPathUnits="userSpaceOnUse"
       id="clipPath57">
      <path
         d="m 241.793,2325.11 h 5466.41 V 5584.9 H 241.793 Z"
         transform="translate(-2.5e-6,2.5000001e-5)"
         id="path57" />
    </clipPath>
    <clipPath
       clipPathUnits="userSpaceOnUse"
       id="clipPath58">
      <path
         d="m 241.793,2325.11 h 5466.41 V 5584.9 H 241.793 Z"
         transform="translate(-2.5e-6,2.5000001e-5)"
         id="path58" />
    </clipPath>
    <clipPath
       clipPathUnits="userSpaceOnUse"
       id="clipPath59">
      <path
         d="m 241.793,2325.11 h 5466.41 V 5584.9 H 241.793 Z"
         transform="translate(-2.5e-6,2.5000001e-5)"
         id="path59" />
    </clipPath>
    <clipPath
       clipPathUnits="userSpaceOnUse"
       id="clipPath60">
      <path
         d="m 241.793,2325.11 h 5466.41 V 5584.9 H 241.793 Z"
         transform="translate(-2.5e-6,2.5000001e-5)"
         id="path60" />
    </clipPath>
    <clipPath
       clipPathUnits="userSpaceOnUse"
       id="clipPath61">
      <path
         d="m 241.793,2325.11 h 5466.41 V 5584.9 H 241.793 Z"
         transform="translate(-2.5e-6,2.5000001e-5)"
         id="path61" />
    </clipPath>
    <clipPath
       clipPathUnits="userSpaceOnUse"
       id="clipPath62">
      <path
         d="m 241.793,2325.11 h 5466.41 V 5584.9 H 241.793 Z"
         transform="translate(-2.5e-6,2.5000001e-5)"
         id="path62" />
    </clipPath>
    <clipPath
       clipPathUnits="userSpaceOnUse"
       id="clipPath63">
      <path
         d="m 241.793,2325.11 h 5466.41 V 5584.9 H 241.793 Z"
         transform="translate(-2.5e-6,2.5000001e-5)"
         id="path63" />
    </clipPath>
    <clipPath
       clipPathUnits="userSpaceOnUse"
       id="clipPath64">
      <path
         d="m 241.793,2325.11 h 5466.41 V 5584.9 H 241.793 Z"
         transform="translate(-2.5e-6,2.5000001e-5)"
         id="path64" />
    </clipPath>
    <clipPath
       clipPathUnits="userSpaceOnUse"
       id="clipPath65">
      <path
         d="m 241.793,2325.11 h 5466.41 V 5584.9 H 241.793 Z"
         transform="translate(-2.5e-6,2.5000001e-5)"
         id="path65" />
    </clipPath>
    <clipPath
       clipPathUnits="userSpaceOnUse"
       id="clipPath66">
      <path
         d="m 241.793,2325.11 h 5466.41 V 5584.9 H 241.793 Z"
         transform="translate(-2.5e-6,2.5000001e-5)"
         id="path66" />
    </clipPath>
    <clipPath
       clipPathUnits="userSpaceOnUse"
       id="clipPath67">
      <path
         d="m 241.793,2325.11 h 5466.41 V 5584.9 H 241.793 Z"
         transform="translate(-2.5e-6,2.5000001e-5)"
         id="path67" />
    </clipPath>
    <clipPath
       clipPathUnits="userSpaceOnUse"
       id="clipPath68">
      <path
         d="m 241.793,2325.11 h 5466.41 V 5584.9 H 241.793 Z"
         transform="translate(-2.5e-6,2.5000001e-5)"
         id="path68" />
    </clipPath>
    <clipPath
       clipPathUnits="userSpaceOnUse"
       id="clipPath69">
      <path
         d="m 241.793,2325.11 h 5466.41 V 5584.9 H 241.793 Z"
         transform="translate(-2.5e-6,2.5000001e-5)"
         id="path69" />
    </clipPath>
    <clipPath
       clipPathUnits="userSpaceOnUse"
       id="clipPath70">
      <path
         d="m 241.793,2325.11 h 5466.41 V 5584.9 H 241.793 Z"
         transform="translate(-2.5e-6,2.5000001e-5)"
         id="path70" />
    </clipPath>
    <clipPath
       clipPathUnits="userSpaceOnUse"
       id="clipPath71">
      <path
         d="m 241.793,2325.11 h 5466.41 V 5584.9 H 241.793 Z"
         transform="translate(-2.5e-6,2.5000001e-5)"
         id="path71" />
    </clipPath>
    <clipPath
       clipPathUnits="userSpaceOnUse"
       id="clipPath72">
      <path
         d="m 241.793,2325.11 h 5466.41 V 5584.9 H 241.793 Z"
         transform="translate(-2.5e-6,2.5000001e-5)"
         id="path72" />
    </clipPath>
    <clipPath
       clipPathUnits="userSpaceOnUse"
       id="clipPath73">
      <path
         d="m 241.793,2325.11 h 5466.41 V 5584.9 H 241.793 Z"
         transform="translate(-2.5e-6,2.5000001e-5)"
         id="path73" />
    </clipPath>
    <clipPath
       clipPathUnits="userSpaceOnUse"
       id="clipPath74">
      <path
         d="m 241.793,2325.11 h 5466.41 V 5584.9 H 241.793 Z"
         transform="translate(-2.5e-6,2.5000001e-5)"
         id="path74" />
    </clipPath>
    <clipPath
       clipPathUnits="userSpaceOnUse"
       id="clipPath75">
      <path
         d="m 241.793,2325.11 h 5466.41 V 5584.9 H 241.793 Z"
         transform="translate(-2.5e-6,2.5000001e-5)"
         id="path75" />
    </clipPath>
    <clipPath
       clipPathUnits="userSpaceOnUse"
       id="clipPath76">
      <path
         d="m 241.793,2325.11 h 5466.41 V 5584.9 H 241.793 Z"
         transform="translate(-2.5e-6,2.5000001e-5)"
         id="path76" />
    </clipPath>
    <clipPath
       clipPathUnits="userSpaceOnUse"
       id="clipPath77">
      <path
         d="m 241.793,2325.11 h 5466.41 V 5584.9 H 241.793 Z"
         transform="translate(-2.5e-6,2.5000001e-5)"
         id="path77" />
    </clipPath>
    <clipPath
       clipPathUnits="userSpaceOnUse"
       id="clipPath78">
      <path
         d="m 241.793,2325.11 h 5466.41 V 5584.9 H 241.793 Z"
         transform="translate(-2.5e-6,2.5000001e-5)"
         id="path78" />
    </clipPath>
    <clipPath
       clipPathUnits="userSpaceOnUse"
       id="clipPath79">
      <path
         d="m 241.793,2325.11 h 5466.41 V 5584.9 H 241.793 Z"
         transform="translate(-2.5e-6,2.5000001e-5)"
         id="path79" />
    </clipPath>
    <clipPath
       clipPathUnits="userSpaceOnUse"
       id="clipPath80">
      <path
         d="m 241.793,2325.11 h 5466.41 V 5584.9 H 241.793 Z"
         transform="translate(-2.5e-6,2.5000001e-5)"
         id="path80" />
    </clipPath>
    <clipPath
       clipPathUnits="userSpaceOnUse"
       id="clipPath81">
      <path
         d="m 241.793,2325.11 h 5466.41 V 5584.9 H 241.793 Z"
         transform="translate(-2.5e-6,2.5000001e-5)"
         id="path81" />
    </clipPath>
    <clipPath
       clipPathUnits="userSpaceOnUse"
       id="clipPath82">
      <path
         d="m 241.793,2325.11 h 5466.41 V 5584.9 H 241.793 Z"
         transform="translate(-2.5e-6,2.5000001e-5)"
         id="path82" />
    </clipPath>
    <clipPath
       clipPathUnits="userSpaceOnUse"
       id="clipPath83">
      <path
         d="m 241.793,2325.11 h 5466.41 V 5584.9 H 241.793 Z"
         transform="translate(-2.5e-6,2.5000001e-5)"
         id="path83" />
    </clipPath>
    <clipPath
       clipPathUnits="userSpaceOnUse"
       id="clipPath84">
      <path
         d="m 241.793,2325.11 h 5466.41 V 5584.9 H 241.793 Z"
         transform="translate(-2.5e-6,2.5000001e-5)"
         id="path84" />
    </clipPath>
    <clipPath
       clipPathUnits="userSpaceOnUse"
       id="clipPath85">
      <path
         d="m 241.793,2325.11 h 5466.41 V 5584.9 H 241.793 Z"
         transform="translate(-2.5e-6,2.5000001e-5)"
         id="path85" />
    </clipPath>
    <clipPath
       clipPathUnits="userSpaceOnUse"
       id="clipPath86">
      <path
         d="m 241.793,2325.11 h 5466.41 V 5584.9 H 241.793 Z"
         transform="translate(-2.5e-6,2.5000001e-5)"
         id="path86" />
    </clipPath>
    <clipPath
       clipPathUnits="userSpaceOnUse"
       id="clipPath87">
      <path
         d="m 241.793,2325.11 h 5466.41 V 5584.9 H 241.793 Z"
         transform="translate(-2.5e-6,2.5000001e-5)"
         id="path87" />
    </clipPath>
    <clipPath
       clipPathUnits="userSpaceOnUse"
       id="clipPath88">
      <path
         d="m 241.793,2325.11 h 5466.41 V 5584.9 H 241.793 Z"
         transform="translate(-2.5e-6,2.5000001e-5)"
         id="path88" />
    </clipPath>
    <clipPath
       clipPathUnits="userSpaceOnUse"
       id="clipPath89">
      <path
         d="m 241.793,2325.11 h 5466.41 V 5584.9 H 241.793 Z"
         transform="translate(-2.5e-6,2.5000001e-5)"
         id="path89" />
    </clipPath>
    <clipPath
       clipPathUnits="userSpaceOnUse"
       id="clipPath90">
      <path
         d="m 241.793,2325.11 h 5466.41 V 5584.9 H 241.793 Z"
         transform="translate(-2.5e-6,2.5000001e-5)"
         id="path90" />
    </clipPath>
    <clipPath
       clipPathUnits="userSpaceOnUse"
       id="clipPath91">
      <path
         d="m 241.793,2325.11 h 5466.41 V 5584.9 H 241.793 Z"
         transform="translate(-2.5e-6,2.5000001e-5)"
         id="path91" />
    </clipPath>
    <clipPath
       clipPathUnits="userSpaceOnUse"
       id="clipPath92">
      <path
         d="m 241.793,2325.11 h 5466.41 V 5584.9 H 241.793 Z"
         transform="translate(-2.5e-6,2.5000001e-5)"
         id="path92" />
    </clipPath>
    <clipPath
       clipPathUnits="userSpaceOnUse"
       id="clipPath93">
      <path
         d="m 241.793,2325.11 h 5466.41 V 5584.9 H 241.793 Z"
         transform="translate(-2.5e-6,2.5000001e-5)"
         id="path93" />
    </clipPath>
    <clipPath
       clipPathUnits="userSpaceOnUse"
       id="clipPath94">
      <path
         d="m 241.793,2325.11 h 5466.41 V 5584.9 H 241.793 Z"
         transform="translate(-2.5e-6,2.5000001e-5)"
         id="path94" />
    </clipPath>
    <clipPath
       clipPathUnits="userSpaceOnUse"
       id="clipPath95">
      <path
         d="m 241.793,2325.11 h 5466.41 V 5584.9 H 241.793 Z"
         transform="translate(-2.5e-6,2.5000001e-5)"
         id="path95" />
    </clipPath>
    <clipPath
       clipPathUnits="userSpaceOnUse"
       id="clipPath96">
      <path
         d="M 0,0 H 612 V 792 H 0 Z"
         transform="matrix(1.3333333,0,0,-1.3333333,-33.333333,734.66667)"
         id="path96" />
    </clipPath>
    <clipPath
       clipPathUnits="userSpaceOnUse"
       id="clipPath97">
      <path
         d="M 0,0 H 544 V 297 H 0 Z"
         transform="matrix(1.3333333,0,0,-1.3333333,0,396)"
         id="path97" />
    </clipPath>
  </defs>
  <sodipodi:namedview
     id="namedview1"
     pagecolor="#ffffff"
     bordercolor="#000000"
     borderopacity="0.25"
     inkscape:showpageshadow="2"
     inkscape:pageopacity="0.0"
     inkscape:pagecheckerboard="0"
     inkscape:deskcolor="#d1d1d1"
     inkscape:zoom="1.270202"
     inkscape:cx="362.54076"
     inkscape:cy="198"
     inkscape:window-width="1366"
     inkscape:window-height="705"
     inkscape:window-x="-8"
     inkscape:window-y="-8"
     inkscape:window-maximized="1"
     inkscape:current-layer="g1">
    <inkscape:page
       x="0"
       y="0"
       inkscape:label="1"
       id="page1"
       width="725.33331"
       height="396"
       margin="0"
       bleed="0" />
  </sodipodi:namedview>
  <g
     id="g1"
     inkscape:groupmode="layer"
     inkscape:label="1">
    <g
       id="g185">
      <g
         clip-path="url(#clipPath97)"
         id="g184">
        <path
           d="M 200,2283.31 H 5750 V 5626.69 H 200 Z"
           style="fill:#ffffff;fill-opacity:1;fill-rule:nonzero;stroke:none"
           transform="matrix(0.13333333,0,0,-0.13333333,-33.333333,734.66667)"
           clip-path="url(#clipPath1)"
           id="path98" />
        <g
           clip-path="url(#clipPath3)"
           id="g99">
          <path
             d="m 258.508,2831.09 27.703,1.03 24.105,0.92 27.11,1.06 27.285,1.1 27.16,1.12 25.176,1.06 26.074,1.13 26.961,1.2 26.879,1.22 27.644,1.3 24.352,1.17 27.41,1.36 27.528,1.4 26.523,1.39 24.09,1.29 28.64,1.59 24.266,1.37 28.227,1.66 24.98,1.51 27.414,1.7 26.102,1.67 27.234,1.8 25.012,1.7 26.976,1.9 28.02,2.03 24.394,1.82 26.344,2.04 27.215,2.17 26.628,2.2 25.76,2.2 28.61,2.53 25.7,2.35 27.44,2.61 24.87,2.44 27.18,2.78 25.58,2.7 26.74,2.93 26.15,2.98 27.36,3.24 26.36,3.25 26.95,3.46 26.74,3.58 24.56,3.42 28.16,4.08 25.18,3.82 26.85,4.24 25.69,4.25 28.54,4.93 24.71,4.48 28.04,5.32 25.56,5.1 27.96,5.86 24.12,5.31 27.46,6.35 26.54,6.47 26.53,6.82 26.41,7.18 25.39,7.28 27.44,8.34 26.16,8.41 27.52,9.42 24.92,9.06 27.53,10.66 26.38,10.9 26.31,11.62 27.48,12.99 25.31,12.84 25.93,14.1 28.62,16.78 25.92,16.43 26.49,18.17 26.96,20.02 24.77,19.96 26.42,23.11 26.2,25.01 28.04,29.35 24.74,28.41 28.54,36.09 25.76,36.03 25.49,39.3 27.4,46.88 27.53,52.54 25.03,53.24 26.59,62.96 25.94,68.65 28.13,83.5 24.34,80.74 27.96,103.48 26.27,108.57 26.03,118.87 26.04,130.27 26.57,143.66 28.16,161.75 25.81,152.86 25.48,149.4 27.25,149.55 27.18,128.03 24.4,87.55 14.45,36.57 14.45,23.84 6.05,6.02 6.04,3.66 3.03,0.95 3.02,0.34 3.02,-0.25 3.02,-0.83 14.15,-11.61 14.14,-23.81 27,-75.46 24.1,-93.95 27.11,-125.32 27.29,-136.52 27.15,-137.04 25.18,-122.23 26.07,-117.84 26.97,-110.27 26.88,-97.17 27.64,-86.59 24.35,-65.44 27.41,-62.32 27.53,-51.39 26.52,-39.84 24.09,-28.66 28.65,-25.57 24.26,-15.03 14.11,-6.13 14.11,-4.31 12.5,-2.36 12.48,-1.04 13.71,0.35 13.71,1.83 13.05,3.1 13.05,4.38 27.23,13.13 25.02,16.63 26.98,22.68 28.01,28.62 24.4,28.97 26.34,35.44 27.22,41.02 26.62,44.35 25.77,46.76 28.61,56.14 25.7,54.01 27.44,61.09 24.86,58.05 27.19,65.93 25.58,63.82 26.74,67.86 26.15,66.64 27.36,69.02 26.36,64.62 26.96,62.88 26.73,57.82 24.57,47.9 28.14,47.33 25.19,34.29 26.85,27.07 12.84,9.22 12.85,6.69 7.14,2.59 7.13,1.79 7.14,0.97 7.13,0.15 6.17,-0.53 6.18,-1.15 6.18,-1.76 6.17,-2.38 14.03,-7.66 14.02,-10.77 25.56,-27.37 27.96,-40.67 24.12,-43.25 27.47,-57.29 26.53,-62.17 26.52,-67.47 26.43,-71.21 25.38,-71.03 27.44,-78.44 26.15,-75.38 27.53,-79.02 24.91,-70.6 27.54,-76.35 26.37,-71.05 26.32,-68.49 27.48,-68.73 25.31,-60.62 25.93,-59.33 28.62,-62.25 25.92,-53.42 26.5,-51.81 26.95,-49.81 24.77,-43.33 26.41,-43.71 26.21,-40.94 28.04,-41.27 24.74,-34.34 28.54,-37.35 25.76,-31.74 25.48,-29.68 27.41,-30.09 27.52,-28.47 25.04,-24.45 26.59,-24.56 25.94,-22.65 28.14,-23.2 24.33,-18.98 27.96,-20.65 26.28,-18.36 26.02,-17.23 26.04,-16.37 26.56,-15.84 28.16,-15.91 25.82,-13.84 25.48,-13.01 27.25,-13.22 27.18,-12.54 25.62,-11.26"
             style="fill:none;stroke:#000000;stroke-width:12.5377;stroke-linecap:butt;stroke-linejoin:round;stroke-miterlimit:10;stroke-dasharray:125.377, 41.7922;stroke-dashoffset:0;stroke-opacity:1"
             transform="matrix(0.13333333,0,0,-0.13333333,-33.333333,734.66667)"
             clip-path="url(#clipPath2)"
             id="path99" />
        </g>
        <g
           clip-path="url(#clipPath24)"
           id="g119">
          <path
             d="m 4260.53,5142.71 c 0,-30 -24.33,-54.33 -54.33,-54.33 -30.01,0 -54.33,24.33 -54.33,54.33 0,30.01 24.32,54.33 54.33,54.33 30,0 54.33,-24.32 54.33,-54.33 z"
             style="fill:none;stroke:#ff0000;stroke-width:8.35843;stroke-linecap:square;stroke-linejoin:miter;stroke-miterlimit:10;stroke-dasharray:none;stroke-opacity:1"
             transform="matrix(0.13333333,0,0,-0.13333333,-33.333333,734.66667)"
             clip-path="url(#clipPath4)"
             id="path100" />
          <path
             d="m 4260.53,5142.71 c 0,-30 -24.33,-54.33 -54.33,-54.33 -30.01,0 -54.33,24.33 -54.33,54.33 0,30.01 24.32,54.33 54.33,54.33 30,0 54.33,-24.32 54.33,-54.33"
             style="fill:#ff0000;fill-opacity:1;fill-rule:nonzero;stroke:none"
             transform="matrix(0.13333333,0,0,-0.13333333,-33.333333,734.66667)"
             clip-path="url(#clipPath5)"
             id="path101" />
          <path
             d="m 3206.7,4370.3 c 0,-30 -24.33,-54.32 -54.33,-54.32 -30.01,0 -54.33,24.32 -54.33,54.32 0,30.01 24.32,54.34 54.33,54.34 30,0 54.33,-24.33 54.33,-54.34 z"
             style="fill:none;stroke:#ff0000;stroke-width:8.35843;stroke-linecap:square;stroke-linejoin:miter;stroke-miterlimit:10;stroke-dasharray:none;stroke-opacity:1"
             transform="matrix(0.13333333,0,0,-0.13333333,-33.333333,734.66667)"
             clip-path="url(#clipPath6)"
             id="path102" />
          <path
             d="m 3206.7,4370.3 c 0,-30 -24.33,-54.32 -54.33,-54.32 -30.01,0 -54.33,24.32 -54.33,54.32 0,30.01 24.32,54.34 54.33,54.34 30,0 54.33,-24.33 54.33,-54.34"
             style="fill:#ff0000;fill-opacity:1;fill-rule:nonzero;stroke:none"
             transform="matrix(0.13333333,0,0,-0.13333333,-33.333333,734.66667)"
             clip-path="url(#clipPath7)"
             id="path103" />
          <path
             d="m 3733.61,4142.09 c 0,-30.01 -24.32,-54.33 -54.33,-54.33 -30,0 -54.33,24.32 -54.33,54.33 0,30 24.33,54.33 54.33,54.33 30.01,0 54.33,-24.33 54.33,-54.33 z"
             style="fill:none;stroke:#ff0000;stroke-width:8.35843;stroke-linecap:square;stroke-linejoin:miter;stroke-miterlimit:10;stroke-dasharray:none;stroke-opacity:1"
             transform="matrix(0.13333333,0,0,-0.13333333,-33.333333,734.66667)"
             clip-path="url(#clipPath8)"
             id="path104" />
          <path
             d="m 3733.61,4142.09 c 0,-30.01 -24.32,-54.33 -54.33,-54.33 -30,0 -54.33,24.32 -54.33,54.33 0,30 24.33,54.33 54.33,54.33 30.01,0 54.33,-24.33 54.33,-54.33"
             style="fill:#ff0000;fill-opacity:1;fill-rule:nonzero;stroke:none"
             transform="matrix(0.13333333,0,0,-0.13333333,-33.333333,734.66667)"
             clip-path="url(#clipPath9)"
             id="path105" />
          <path
             d="m 5314.36,3257.07 c 0,-30 -24.32,-54.33 -54.33,-54.33 -30.01,0 -54.33,24.33 -54.33,54.33 0,30.01 24.32,54.33 54.33,54.33 30.01,0 54.33,-24.32 54.33,-54.33 z"
             style="fill:none;stroke:#ff0000;stroke-width:8.35843;stroke-linecap:square;stroke-linejoin:miter;stroke-miterlimit:10;stroke-dasharray:none;stroke-opacity:1"
             transform="matrix(0.13333333,0,0,-0.13333333,-33.333333,734.66667)"
             clip-path="url(#clipPath10)"
             id="path106" />
          <path
             d="m 5314.36,3257.07 c 0,-30 -24.32,-54.33 -54.33,-54.33 -30.01,0 -54.33,24.33 -54.33,54.33 0,30.01 24.32,54.33 54.33,54.33 30.01,0 54.33,-24.32 54.33,-54.33"
             style="fill:#ff0000;fill-opacity:1;fill-rule:nonzero;stroke:none"
             transform="matrix(0.13333333,0,0,-0.13333333,-33.333333,734.66667)"
             clip-path="url(#clipPath11)"
             id="path107" />
          <path
             d="m 2679.78,4142.09 c 0,-30.01 -24.32,-54.33 -54.33,-54.33 -30,0 -54.33,24.32 -54.33,54.33 0,30 24.33,54.33 54.33,54.33 30.01,0 54.33,-24.33 54.33,-54.33 z"
             style="fill:none;stroke:#ff0000;stroke-width:8.35843;stroke-linecap:square;stroke-linejoin:miter;stroke-miterlimit:10;stroke-dasharray:none;stroke-opacity:1"
             transform="matrix(0.13333333,0,0,-0.13333333,-33.333333,734.66667)"
             clip-path="url(#clipPath12)"
             id="path108" />
          <path
             d="m 2679.78,4142.09 c 0,-30.01 -24.32,-54.33 -54.33,-54.33 -30,0 -54.33,24.32 -54.33,54.33 0,30 24.33,54.33 54.33,54.33 30.01,0 54.33,-24.33 54.33,-54.33"
             style="fill:#ff0000;fill-opacity:1;fill-rule:nonzero;stroke:none"
             transform="matrix(0.13333333,0,0,-0.13333333,-33.333333,734.66667)"
             clip-path="url(#clipPath13)"
             id="path109" />
          <path
             d="m 1099.04,2880.13 c 0,-30 -24.33,-54.33 -54.34,-54.33 -30,0 -54.325,24.33 -54.325,54.33 0,30.01 24.325,54.33 54.325,54.33 30.01,0 54.34,-24.32 54.34,-54.33 z"
             style="fill:none;stroke:#ff0000;stroke-width:8.35843;stroke-linecap:square;stroke-linejoin:miter;stroke-miterlimit:10;stroke-dasharray:none;stroke-opacity:1"
             transform="matrix(0.13333333,0,0,-0.13333333,-33.333333,734.66667)"
             clip-path="url(#clipPath14)"
             id="path110" />
          <path
             d="m 1099.04,2880.13 c 0,-30 -24.33,-54.33 -54.34,-54.33 -30,0 -54.325,24.33 -54.325,54.33 0,30.01 24.325,54.33 54.325,54.33 30.01,0 54.34,-24.32 54.34,-54.33"
             style="fill:#ff0000;fill-opacity:1;fill-rule:nonzero;stroke:none"
             transform="matrix(0.13333333,0,0,-0.13333333,-33.333333,734.66667)"
             clip-path="url(#clipPath15)"
             id="path111" />
          <path
             d="m 572.117,2846.29 c 0,-30.01 -24.324,-54.33 -54.328,-54.33 -30.008,0 -54.332,24.32 -54.332,54.33 0,30 24.324,54.33 54.332,54.33 30.004,0 54.328,-24.33 54.328,-54.33 z"
             style="fill:none;stroke:#ff0000;stroke-width:8.35843;stroke-linecap:square;stroke-linejoin:miter;stroke-miterlimit:10;stroke-dasharray:none;stroke-opacity:1"
             transform="matrix(0.13333333,0,0,-0.13333333,-33.333333,734.66667)"
             clip-path="url(#clipPath16)"
             id="path112" />
          <path
             d="m 572.117,2846.29 c 0,-30.01 -24.324,-54.33 -54.328,-54.33 -30.008,0 -54.332,24.32 -54.332,54.33 0,30 24.324,54.33 54.332,54.33 30.004,0 54.328,-24.33 54.328,-54.33"
             style="fill:#ff0000;fill-opacity:1;fill-rule:nonzero;stroke:none"
             transform="matrix(0.13333333,0,0,-0.13333333,-33.333333,734.66667)"
             clip-path="url(#clipPath17)"
             id="path113" />
          <path
             d="m 1625.95,2948.36 c 0,-30 -24.32,-54.33 -54.33,-54.33 -30.01,0 -54.33,24.33 -54.33,54.33 0,30.01 24.32,54.33 54.33,54.33 30.01,0 54.33,-24.32 54.33,-54.33 z"
             style="fill:none;stroke:#ff0000;stroke-width:8.35843;stroke-linecap:square;stroke-linejoin:miter;stroke-miterlimit:10;stroke-dasharray:none;stroke-opacity:1"
             transform="matrix(0.13333333,0,0,-0.13333333,-33.333333,734.66667)"
             clip-path="url(#clipPath18)"
             id="path114" />
          <path
             d="m 1625.95,2948.36 c 0,-30 -24.32,-54.33 -54.33,-54.33 -30.01,0 -54.33,24.33 -54.33,54.33 0,30.01 24.32,54.33 54.33,54.33 30.01,0 54.33,-24.32 54.33,-54.33"
             style="fill:#ff0000;fill-opacity:1;fill-rule:nonzero;stroke:none"
             transform="matrix(0.13333333,0,0,-0.13333333,-33.333333,734.66667)"
             clip-path="url(#clipPath19)"
             id="path115" />
          <path
             d="m 2152.86,3135.27 c 0,-30.01 -24.32,-54.34 -54.32,-54.34 -30.01,0 -54.34,24.33 -54.34,54.34 0,30 24.33,54.32 54.34,54.32 30,0 54.32,-24.32 54.32,-54.32 z"
             style="fill:none;stroke:#ff0000;stroke-width:8.35843;stroke-linecap:square;stroke-linejoin:miter;stroke-miterlimit:10;stroke-dasharray:none;stroke-opacity:1"
             transform="matrix(0.13333333,0,0,-0.13333333,-33.333333,734.66667)"
             clip-path="url(#clipPath20)"
             id="path116" />
          <path
             d="m 2152.86,3135.27 c 0,-30.01 -24.32,-54.34 -54.32,-54.34 -30.01,0 -54.34,24.33 -54.34,54.34 0,30 24.33,54.32 54.34,54.32 30,0 54.32,-24.32 54.32,-54.32"
             style="fill:#ff0000;fill-opacity:1;fill-rule:nonzero;stroke:none"
             transform="matrix(0.13333333,0,0,-0.13333333,-33.333333,734.66667)"
             clip-path="url(#clipPath21)"
             id="path117" />
          <path
             d="m 4787.44,3959.52 c 0,-30 -24.32,-54.33 -54.33,-54.33 -30,0 -54.32,24.33 -54.32,54.33 0,30.01 24.32,54.33 54.32,54.33 30.01,0 54.33,-24.32 54.33,-54.33 z"
             style="fill:none;stroke:#ff0000;stroke-width:8.35843;stroke-linecap:square;stroke-linejoin:miter;stroke-miterlimit:10;stroke-dasharray:none;stroke-opacity:1"
             transform="matrix(0.13333333,0,0,-0.13333333,-33.333333,734.66667)"
             clip-path="url(#clipPath22)"
             id="path118" />
          <path
             d="m 4787.44,3959.52 c 0,-30 -24.32,-54.33 -54.33,-54.33 -30,0 -54.32,24.33 -54.32,54.33 0,30.01 24.32,54.33 54.32,54.33 30.01,0 54.33,-24.32 54.33,-54.33"
             style="fill:#ff0000;fill-opacity:1;fill-rule:nonzero;stroke:none"
             transform="matrix(0.13333333,0,0,-0.13333333,-33.333333,734.66667)"
             clip-path="url(#clipPath23)"
             id="path119" />
        </g>
        <g
           clip-path="url(#clipPath27)"
           id="g121">
          <path
             d="M 2899.43,2768.63 V 5366.84"
             style="fill:none;stroke:#000000;stroke-width:12.5377;stroke-linecap:butt;stroke-linejoin:round;stroke-miterlimit:10;stroke-dasharray:16.7169, 41.7922;stroke-dashoffset:0;stroke-opacity:1"
             transform="matrix(0.13333333,0,0,-0.13333333,-33.333333,734.66667)"
             clip-path="url(#clipPath25)"
             id="path120" />
          <path
             d="M 1048.88,5366.84 H 2899.43"
             style="fill:none;stroke:#000000;stroke-width:12.5377;stroke-linecap:butt;stroke-linejoin:round;stroke-miterlimit:10;stroke-dasharray:16.7169, 41.7922;stroke-dashoffset:0;stroke-opacity:1"
             transform="matrix(0.13333333,0,0,-0.13333333,-33.333333,734.66667)"
             clip-path="url(#clipPath26)"
             id="path121" />
        </g>
        <g
           clip-path="url(#clipPath30)"
           id="g123">
          <path
             d="m 2878.61,2708.29 c 2.7,-2.88 4.71,-5.7 6.01,-8.49 0.96,-2 2.57,-7.14 4.83,-15.41 l 7.19,10.71 c 1.91,2.61 4.22,5.09 6.92,7.45 2.7,2.34 5.09,3.96 7.18,4.83 1.3,0.61 2.74,0.91 4.31,0.91 2.35,0 4.22,-0.63 5.62,-1.89 1.39,-1.26 2.09,-2.81 2.09,-4.64 0,-2 -0.39,-3.39 -1.18,-4.18 -1.57,-1.39 -3.31,-2.09 -5.22,-2.09 -1.13,0 -2.35,0.26 -3.66,0.79 -2.61,0.87 -4.35,1.3 -5.23,1.3 -1.3,0 -2.82,-0.78 -4.56,-2.35 -3.4,-2.79 -7.45,-8.23 -12.16,-16.32 l 6.67,-28.09 c 1.04,-4.35 1.91,-6.94 2.62,-7.76 0.69,-0.83 1.43,-1.24 2.21,-1.24 1.14,0 2.44,0.61 3.92,1.82 3.05,2.53 5.62,5.8 7.71,9.8 l 2.87,-1.44 c -3.48,-6.44 -7.84,-11.75 -13.06,-15.93 -3.05,-2.44 -5.57,-3.66 -7.58,-3.66 -3.05,0 -5.48,1.7 -7.31,5.09 -1.13,2.18 -3.49,11.33 -7.05,27.43 -8.54,-14.72 -15.37,-24.2 -20.51,-28.47 -3.31,-2.69 -6.48,-4.05 -9.53,-4.05 -2.18,0 -4.17,0.79 -6.01,2.35 -1.3,1.22 -1.96,2.83 -1.96,4.83 0,1.83 0.59,3.34 1.76,4.52 1.18,1.17 2.69,1.75 4.51,1.75 1.74,0 3.58,-0.87 5.49,-2.61 1.39,-1.22 2.48,-1.83 3.26,-1.83 0.7,0 1.53,0.44 2.48,1.31 2.62,2.09 6.12,6.55 10.52,13.39 4.39,6.83 7.29,11.77 8.68,14.82 -3.39,13.24 -5.22,20.24 -5.48,21.02 -1.31,3.49 -2.96,5.97 -4.97,7.45 -2,1.48 -4.96,2.22 -8.87,2.22 -1.23,0 -2.66,-0.04 -4.32,-0.13 v 2.87 l 21.81,3.92"
             style="fill:#000000;fill-opacity:1;fill-rule:nonzero;stroke:none"
             transform="matrix(0.13333333,0,0,-0.13333333,-33.333333,734.66667)"
             clip-path="url(#clipPath28)"
             id="path122" />
          <path
             d="m 2921.32,2586.18 c 0,10.1 1.52,18.81 4.57,26.12 3.05,7.32 7.1,12.75 12.15,16.33 3.91,2.78 7.96,4.17 12.14,4.17 6.79,0 12.88,-3.44 18.28,-10.31 6.8,-8.63 10.19,-20.24 10.19,-34.87 0,-10.27 -1.48,-19.01 -4.44,-26.19 -2.96,-7.18 -6.74,-12.4 -11.36,-15.67 -4.62,-3.27 -9.05,-4.9 -13.32,-4.9 -8.45,0 -15.45,5.01 -21.03,15.02 -4.79,8.36 -7.18,18.46 -7.18,30.3 z m 12.8,-1.57 c 0,-12.19 1.52,-22.16 4.57,-29.91 2.44,-6.44 6.14,-9.66 11.1,-9.66 2.35,0 4.79,1.05 7.32,3.14 2.52,2.09 4.43,5.61 5.74,10.58 2,7.48 3.01,18.06 3.01,31.72 0,10.11 -1.05,18.51 -3.14,25.22 -1.57,5.04 -3.61,8.61 -6.14,10.7 -1.74,1.4 -3.87,2.09 -6.4,2.09 -2.95,0 -5.61,-1.3 -7.96,-3.91 -3.13,-3.66 -5.27,-9.36 -6.4,-17.11 -1.13,-7.75 -1.7,-15.37 -1.7,-22.86"
             style="fill:#000000;fill-opacity:1;fill-rule:nonzero;stroke:none"
             transform="matrix(0.13333333,0,0,-0.13333333,-33.333333,734.66667)"
             clip-path="url(#clipPath29)"
             id="path123" />
        </g>
        <g
           clip-path="url(#clipPath37)"
           id="g129">
          <path
             d="m 4614.82,4605.66 c 1.91,-3.22 3.22,-6.21 3.91,-8.95 0.7,-2.74 1.4,-8.12 2.09,-16.13 l 3.66,-40.22 c 3.22,3.91 7.92,10.14 14.11,18.67 3.04,4.1 6.74,9.71 11.1,16.85 2.7,4.36 4.35,7.4 4.96,9.14 0.35,0.87 0.52,1.78 0.52,2.75 0,0.6 -0.19,1.09 -0.58,1.43 -0.4,0.35 -1.4,0.78 -3.01,1.31 -1.61,0.52 -2.94,1.48 -3.98,2.87 -1.05,1.39 -1.57,3.01 -1.57,4.83 0,2.18 0.66,3.97 1.96,5.36 1.3,1.39 2.92,2.09 4.83,2.09 2.44,0 4.48,-1.01 6.14,-3.01 1.65,-2 2.48,-4.74 2.48,-8.23 0,-4.26 -1.46,-9.16 -4.37,-14.69 -2.92,-5.53 -8.58,-14.01 -16.99,-25.46 -8.4,-11.45 -18.56,-23.93 -30.49,-37.42 -8.18,-9.31 -14.26,-15.17 -18.22,-17.56 -3.96,-2.4 -7.37,-3.6 -10.24,-3.6 -1.66,0 -3.14,0.63 -4.45,1.9 -1.31,1.26 -1.96,2.71 -1.96,4.37 0,2.17 0.89,4.14 2.67,5.88 1.79,1.73 3.74,2.61 5.82,2.61 1.05,0 1.92,-0.27 2.61,-0.78 0.43,-0.26 0.92,-1.03 1.44,-2.29 0.53,-1.27 1,-2.11 1.44,-2.54 0.35,-0.27 0.69,-0.4 1.04,-0.4 0.35,0 0.91,0.26 1.7,0.79 2.96,1.82 6.44,4.74 10.45,8.74 5.22,5.4 9.1,9.76 11.62,13.07 l -4.57,51.84 c -0.78,8.54 -1.94,13.72 -3.46,15.54 -1.52,1.83 -4.07,2.75 -7.64,2.75 -1.14,0 -3.18,-0.13 -6.14,-0.39 l -0.78,3 23.9,5.88"
             style="fill:#000000;fill-opacity:1;fill-rule:nonzero;stroke:none"
             transform="matrix(0.13333333,0,0,-0.13333333,-33.333333,734.66667)"
             clip-path="url(#clipPath31)"
             id="path124" />
          <path
             d="M 4699.84,4603.82 H 4788 v -6.65 h -88.16 z m 0,-26.63 H 4788 v -6.67 h -88.16 v 6.67"
             style="fill:#000000;fill-opacity:1;fill-rule:nonzero;stroke:none"
             transform="matrix(0.13333333,0,0,-0.13333333,-33.333333,734.66667)"
             clip-path="url(#clipPath32)"
             id="path125" />
          <path
             d="m 4917.68,4600.56 -2.35,-8.49 h -13.71 c 1.04,-2.96 1.56,-5.7 1.56,-8.22 0,-7.23 -3.05,-13.63 -9.14,-19.2 -6.09,-5.58 -14.5,-8.67 -25.2,-9.27 -5.84,-1.75 -10.19,-3.84 -13.07,-6.27 -1.04,-0.88 -1.56,-1.75 -1.56,-2.62 0,-1.12 0.48,-2.15 1.44,-3.06 0.95,-0.91 3.43,-1.81 7.44,-2.68 l 15.8,-3.66 c 8.8,-2.09 14.59,-4.57 17.37,-7.45 2.78,-2.86 4.18,-6.18 4.18,-9.92 0,-4.43 -1.65,-8.51 -4.96,-12.21 -3.32,-3.7 -8.12,-6.6 -14.43,-8.69 -6.32,-2.09 -13.31,-3.13 -20.96,-3.13 -6.8,0 -12.96,0.8 -18.48,2.42 -5.54,1.61 -9.5,3.77 -11.89,6.46 -2.39,2.7 -3.59,5.49 -3.59,8.36 0,2.36 0.76,4.78 2.28,7.31 1.53,2.53 3.47,4.62 5.82,6.27 1.47,1.04 5.65,3.48 12.53,7.31 -2.52,2.01 -3.78,4.18 -3.78,6.54 0,2.17 1.11,4.48 3.32,6.92 2.23,2.43 6.91,5.13 14.04,8.1 -6,1.13 -10.77,3.63 -14.3,7.5 -3.52,3.88 -5.29,8.17 -5.29,12.87 0,7.75 3.41,14.67 10.19,20.76 6.8,6.1 15.81,9.15 27.03,9.15 4.1,0 7.45,-0.41 10.07,-1.24 2.6,-0.83 5.13,-2.12 7.57,-3.86 z m -28.34,-12.79 c 0,4.34 -1.22,7.76 -3.66,10.25 -2.43,2.48 -5.62,3.71 -9.53,3.71 -6.09,0 -11.15,-3.08 -15.15,-9.27 -4.01,-6.18 -6.01,-12.57 -6.01,-19.19 0,-4.27 1.28,-7.73 3.85,-10.39 2.57,-2.65 5.68,-3.98 9.34,-3.98 2.87,0 5.66,0.78 8.36,2.35 2.69,1.57 4.96,3.75 6.79,6.53 1.83,2.79 3.29,6.34 4.37,10.64 1.1,4.31 1.64,7.42 1.64,9.35 z m -39.05,-56.04 c -4.44,-2 -7.79,-4.59 -10.06,-7.76 -2.26,-3.18 -3.39,-6.3 -3.39,-9.34 0,-3.58 1.65,-6.54 4.96,-8.88 4.61,-3.4 11.45,-5.09 20.5,-5.09 7.84,0 14.5,1.32 19.99,3.97 5.48,2.66 8.22,6.08 8.22,10.26 0,2.17 -0.99,4.2 -3,6.07 -2.01,1.87 -5.96,3.42 -11.88,4.64 -3.22,0.69 -11.67,2.74 -25.34,6.13"
             style="fill:#000000;fill-opacity:1;fill-rule:nonzero;stroke:none"
             transform="matrix(0.13333333,0,0,-0.13333333,-33.333333,734.66667)"
             clip-path="url(#clipPath33)"
             id="path126" />
          <path
             d="m 5026.73,4605.66 c 2.7,-2.88 4.7,-5.71 6.01,-8.49 0.96,-2.01 2.56,-7.15 4.83,-15.41 l 7.19,10.7 c 1.91,2.62 4.22,5.09 6.92,7.45 2.7,2.35 5.09,3.97 7.18,4.83 1.3,0.62 2.74,0.92 4.31,0.92 2.35,0 4.22,-0.63 5.62,-1.89 1.39,-1.27 2.09,-2.81 2.09,-4.64 0,-2.01 -0.4,-3.4 -1.18,-4.18 -1.57,-1.4 -3.31,-2.09 -5.22,-2.09 -1.13,0 -2.35,0.26 -3.67,0.78 -2.6,0.87 -4.34,1.31 -5.22,1.31 -1.3,0 -2.82,-0.79 -4.56,-2.35 -3.4,-2.79 -7.45,-8.23 -12.15,-16.33 l 6.66,-28.08 c 1.04,-4.35 1.91,-6.94 2.61,-7.76 0.69,-0.83 1.44,-1.25 2.22,-1.25 1.13,0 2.43,0.61 3.92,1.83 3.05,2.53 5.61,5.79 7.7,9.79 l 2.88,-1.43 c -3.49,-6.44 -7.84,-11.75 -13.07,-15.93 -3.04,-2.44 -5.56,-3.66 -7.57,-3.66 -3.05,0 -5.48,1.69 -7.31,5.09 -1.13,2.18 -3.49,11.32 -7.06,27.43 -8.53,-14.72 -15.36,-24.21 -20.5,-28.48 -3.31,-2.69 -6.48,-4.04 -9.53,-4.04 -2.18,0 -4.18,0.78 -6.01,2.35 -1.3,1.22 -1.96,2.83 -1.96,4.83 0,1.83 0.59,3.33 1.76,4.51 1.18,1.17 2.68,1.76 4.51,1.76 1.74,0 3.57,-0.87 5.49,-2.61 1.38,-1.22 2.48,-1.83 3.26,-1.83 0.7,0 1.53,0.43 2.48,1.3 2.62,2.09 6.12,6.55 10.52,13.39 4.39,6.84 7.28,11.78 8.68,14.82 -3.4,13.24 -5.22,20.24 -5.49,21.03 -1.3,3.49 -2.95,5.97 -4.96,7.45 -2,1.48 -4.97,2.21 -8.88,2.21 -1.22,0 -2.66,-0.04 -4.31,-0.12 v 2.86 l 21.81,3.93"
             style="fill:#000000;fill-opacity:1;fill-rule:nonzero;stroke:none"
             transform="matrix(0.13333333,0,0,-0.13333333,-33.333333,734.66667)"
             clip-path="url(#clipPath34)"
             id="path127" />
          <path
             d="m 4972.55,4502.14 -2.42,-3.84 c -20.6,12.79 -30.9,38.36 -30.9,76.73 v -3.01 c 0,38.5 10.3,64.07 30.9,76.73 l 2.42,-3.63 c -9.15,-7.81 -15.28,-18.78 -18.37,-32.92 -1.89,-8.75 -2.83,-21.14 -2.83,-37.17 v -3.01 c 0,-15.89 0.94,-28.22 2.83,-36.97 3.09,-14.13 9.22,-25.1 18.37,-32.91"
             style="fill:#000000;fill-opacity:1;fill-rule:nonzero;stroke:none"
             transform="matrix(0.13333333,0,0,-0.13333333,-33.333333,734.66667)"
             clip-path="url(#clipPath35)"
             id="path128" />
          <path
             d="m 5089.68,4644.91 2.43,3.84 c 20.6,-12.79 30.89,-38.37 30.89,-76.73 v 3.01 c 0,-38.5 -10.29,-64.08 -30.89,-76.73 l -2.43,3.63 c 9.16,7.81 15.28,18.78 18.38,32.92 1.89,8.75 2.83,21.14 2.83,37.17 v 3.01 c 0,15.89 -0.94,28.22 -2.83,36.97 -3.1,14.13 -9.22,25.11 -18.38,32.91"
             style="fill:#000000;fill-opacity:1;fill-rule:nonzero;stroke:none"
             transform="matrix(0.13333333,0,0,-0.13333333,-33.333333,734.66667)"
             clip-path="url(#clipPath36)"
             id="path129" />
        </g>
        <g
           clip-path="url(#clipPath39)"
           id="g130">
          <path
             d="m 5628.54,2716.65 c 2.69,-2.88 4.7,-5.7 6.01,-8.49 0.96,-2 2.56,-7.14 4.83,-15.41 l 7.18,10.71 c 1.92,2.61 4.23,5.09 6.92,7.45 2.7,2.34 5.09,3.96 7.18,4.83 1.31,0.61 2.75,0.91 4.32,0.91 2.35,0 4.22,-0.63 5.61,-1.89 1.39,-1.26 2.09,-2.81 2.09,-4.64 0,-2.01 -0.39,-3.39 -1.17,-4.18 -1.58,-1.39 -3.31,-2.09 -5.23,-2.09 -1.13,0 -2.35,0.26 -3.66,0.79 -2.61,0.87 -4.35,1.3 -5.22,1.3 -1.31,0 -2.83,-0.78 -4.57,-2.35 -3.4,-2.79 -7.44,-8.23 -12.15,-16.32 l 6.66,-28.09 c 1.05,-4.35 1.92,-6.94 2.62,-7.76 0.69,-0.83 1.43,-1.25 2.21,-1.25 1.14,0 2.44,0.62 3.92,1.83 3.05,2.53 5.62,5.8 7.71,9.8 l 2.88,-1.44 c -3.49,-6.44 -7.84,-11.75 -13.07,-15.93 -3.04,-2.44 -5.57,-3.66 -7.57,-3.66 -3.05,0 -5.49,1.7 -7.32,5.09 -1.12,2.18 -3.48,11.33 -7.05,27.43 -8.53,-14.72 -15.36,-24.2 -20.5,-28.47 -3.31,-2.69 -6.49,-4.05 -9.53,-4.05 -2.18,0 -4.18,0.78 -6.01,2.35 -1.31,1.22 -1.97,2.83 -1.97,4.83 0,1.83 0.6,3.34 1.77,4.51 1.18,1.17 2.68,1.76 4.5,1.76 1.75,0 3.58,-0.87 5.5,-2.61 1.38,-1.22 2.48,-1.83 3.25,-1.83 0.71,0 1.53,0.43 2.49,1.31 2.61,2.09 6.12,6.55 10.51,13.39 4.4,6.83 7.29,11.77 8.69,14.81 -3.4,13.25 -5.23,20.25 -5.49,21.03 -1.3,3.49 -2.96,5.97 -4.96,7.45 -2.01,1.48 -4.97,2.22 -8.88,2.22 -1.22,0 -2.66,-0.04 -4.31,-0.13 v 2.87 l 21.81,3.92"
             style="fill:#000000;fill-opacity:1;fill-rule:nonzero;stroke:none"
             transform="matrix(0.13333333,0,0,-0.13333333,-33.333333,734.66667)"
             clip-path="url(#clipPath38)"
             id="path130" />
        </g>
        <g
           clip-path="url(#clipPath41)"
           id="g131">
          <path
             d="m 962.184,5500 c 1.918,-3.21 3.222,-6.2 3.918,-8.94 0.695,-2.74 1.394,-8.12 2.089,-16.13 l 3.657,-40.22 c 3.222,3.91 7.925,10.14 14.105,18.67 3.047,4.09 6.75,9.71 11.102,16.85 2.699,4.35 4.355,7.4 4.965,9.14 0.35,0.87 0.52,1.79 0.52,2.74 0,0.61 -0.2,1.09 -0.59,1.44 -0.39,0.35 -1.39,0.78 -3.001,1.31 -1.613,0.52 -2.941,1.48 -3.984,2.87 -1.043,1.39 -1.567,3 -1.567,4.83 0,2.18 0.653,3.96 1.957,5.35 1.309,1.4 2.918,2.09 4.835,2.09 2.44,0 4.48,-1 6.14,-3 1.65,-2 2.48,-4.74 2.48,-8.23 0,-4.26 -1.46,-9.16 -4.38,-14.69 -2.91,-5.53 -8.571,-14.02 -16.973,-25.47 -8.402,-11.45 -18.57,-23.92 -30.496,-37.41 -8.184,-9.32 -14.258,-15.17 -18.219,-17.57 -3.961,-2.39 -7.379,-3.59 -10.254,-3.59 -1.652,0 -3.133,0.63 -4.437,1.89 -1.309,1.27 -1.961,2.72 -1.961,4.38 0,2.17 0.894,4.14 2.676,5.88 1.785,1.74 3.722,2.61 5.812,2.61 1.047,0 1.918,-0.26 2.613,-0.78 0.434,-0.27 0.914,-1.03 1.438,-2.29 0.519,-1.27 1,-2.11 1.437,-2.55 0.348,-0.26 0.696,-0.39 1.043,-0.39 0.348,0 0.914,0.26 1.7,0.78 2.957,1.83 6.441,4.75 10.445,8.75 5.226,5.4 9.098,9.75 11.625,13.06 l -4.57,51.85 c -0.786,8.54 -1.938,13.72 -3.461,15.54 -1.524,1.83 -4.071,2.75 -7.641,2.75 -1.133,0 -3.18,-0.13 -6.141,-0.39 l -0.781,3 23.899,5.87"
             style="fill:#000000;fill-opacity:1;fill-rule:nonzero;stroke:none"
             transform="matrix(0.13333333,0,0,-0.13333333,-33.333333,734.66667)"
             clip-path="url(#clipPath40)"
             id="path131" />
        </g>
        <g
           clip-path="url(#clipPath44)"
           id="g133">
          <path
             d="M 258.508,2768.63 H 5685.74"
             style="fill:none;stroke:#000000;stroke-width:8.35843;stroke-linecap:butt;stroke-linejoin:round;stroke-miterlimit:10;stroke-dasharray:none;stroke-opacity:1"
             transform="matrix(0.13333333,0,0,-0.13333333,-33.333333,734.66667)"
             clip-path="url(#clipPath42)"
             id="path132" />
          <path
             d="m 521.969,2768.63 v -44.47"
             style="fill:none;stroke:#000000;stroke-width:1;stroke-linecap:butt;stroke-linejoin:round;stroke-miterlimit:10;stroke-dasharray:none;stroke-opacity:1"
             transform="matrix(0.13333333,0,0,-0.13333333,-33.333333,734.66667)"
             clip-path="url(#clipPath43)"
             id="path133" />
        </g>
        <g
           clip-path="url(#clipPath46)"
           id="g134">
          <path
             d="m 454.148,2604.99 h 110.227 v 8.6172 H 454.148 Z"
             style="fill:#000000;fill-opacity:1;fill-rule:nonzero;stroke:none"
             transform="matrix(0.13333333,0,0,-0.13333333,-33.333333,734.66667)"
             clip-path="url(#clipPath45)"
             id="path134" />
        </g>
        <g
           clip-path="url(#clipPath96)"
           id="g183">
          <path
             d="m 553.926,2658.93 26.906,13.18 h 2.742 v -93.5 c 0,-6.19 0.262,-10.04 0.781,-11.56 0.524,-1.53 1.59,-2.7 3.2,-3.53 1.613,-0.82 4.941,-1.29 9.992,-1.37 v -3.01 h -41.66 v 3.01 c 5.222,0.08 8.597,0.55 10.121,1.37 1.523,0.83 2.59,1.89 3.199,3.2 0.609,1.31 0.914,5.27 0.914,11.89 v 59.81 c 0,8.01 -0.262,13.19 -0.781,15.54 -0.438,1.75 -1.156,3.01 -2.156,3.79 -1,0.78 -2.2,1.18 -3.59,1.18 -2.004,0 -4.836,-0.83 -8.492,-2.49 l -1.176,2.49"
             style="fill:#000000;fill-opacity:1;fill-rule:nonzero;stroke:none"
             transform="matrix(0.13333333,0,0,-0.13333333,-33.333333,734.66667)"
             clip-path="url(#clipPath47)"
             id="path135" />
          <path
             d="m 1048.88,2768.63 v -44.47"
             style="fill:none;stroke:#000000;stroke-width:1;stroke-linecap:butt;stroke-linejoin:round;stroke-miterlimit:10;stroke-dasharray:none;stroke-opacity:1"
             transform="matrix(0.13333333,0,0,-0.13333333,-33.333333,734.66667)"
             clip-path="url(#clipPath48)"
             id="path136" />
          <path
             d="m 949.906,2630.58 c 0,12.63 1.918,23.49 5.746,32.59 3.832,9.1 8.883,15.87 15.153,20.3 4.961,3.58 10.054,5.36 15.277,5.36 8.449,0 16.068,-4.31 22.858,-12.93 8.36,-10.7 12.54,-25.25 12.54,-43.62 0,-12.88 -1.85,-23.82 -5.55,-32.78 -3.7,-8.96 -8.41,-15.48 -14.11,-19.52 -5.703,-4.05 -11.254,-6.08 -16.648,-6.08 -10.539,0 -19.332,6.23 -26.383,18.67 -5.922,10.55 -8.883,23.21 -8.883,38.01 z m 16.067,-2.09 c 0,-15.24 1.871,-27.64 5.617,-37.22 3.133,-8.18 7.746,-12.28 13.84,-12.28 2.961,0 6.008,1.33 9.144,3.99 3.133,2.66 5.526,7.07 7.186,13.26 2.52,9.4 3.78,22.59 3.78,39.56 0,12.63 -1.3,23.16 -3.91,31.62 -2.009,6.27 -4.532,10.71 -7.579,13.31 -2.266,1.83 -4.961,2.74 -8.098,2.74 -3.742,0 -7.051,-1.64 -9.926,-4.95 -3.918,-4.53 -6.574,-11.65 -7.964,-21.36 -1.395,-9.7 -2.09,-19.27 -2.09,-28.67"
             style="fill:#000000;fill-opacity:1;fill-rule:nonzero;stroke:none"
             transform="matrix(0.13333333,0,0,-0.13333333,-33.333333,734.66667)"
             clip-path="url(#clipPath49)"
             id="path137" />
          <path
             d="m 1575.8,2768.63 v -44.47"
             style="fill:none;stroke:#000000;stroke-width:1;stroke-linecap:butt;stroke-linejoin:round;stroke-miterlimit:10;stroke-dasharray:none;stroke-opacity:1"
             transform="matrix(0.13333333,0,0,-0.13333333,-33.333333,734.66667)"
             clip-path="url(#clipPath50)"
             id="path138" />
          <path
             d="m 1548.57,2658.93 26.91,13.18 h 2.74 v -93.5 c 0,-6.19 0.26,-10.04 0.79,-11.56 0.52,-1.53 1.59,-2.7 3.2,-3.53 1.6,-0.82 4.94,-1.29 9.99,-1.37 v -3.01 h -41.66 v 3.01 c 5.22,0.08 8.59,0.55 10.12,1.37 1.52,0.83 2.59,1.89 3.2,3.2 0.6,1.31 0.91,5.27 0.91,11.89 v 59.81 c 0,8.01 -0.25,13.19 -0.78,15.54 -0.44,1.75 -1.15,3.01 -2.16,3.79 -1,0.78 -2.2,1.18 -3.58,1.18 -2.01,0 -4.84,-0.83 -8.5,-2.49 l -1.18,2.49"
             style="fill:#000000;fill-opacity:1;fill-rule:nonzero;stroke:none"
             transform="matrix(0.13333333,0,0,-0.13333333,-33.333333,734.66667)"
             clip-path="url(#clipPath51)"
             id="path139" />
          <path
             d="m 2102.71,2768.63 v -44.47"
             style="fill:none;stroke:#000000;stroke-width:1;stroke-linecap:butt;stroke-linejoin:round;stroke-miterlimit:10;stroke-dasharray:none;stroke-opacity:1"
             transform="matrix(0.13333333,0,0,-0.13333333,-33.333333,734.66667)"
             clip-path="url(#clipPath52)"
             id="path140" />
          <path
             d="m 2132.23,2580.43 -7.7,-21.29 h -65.3 v 3.01 c 19.15,17.5 32.65,31.8 40.48,42.9 7.84,11.11 11.75,21.27 11.75,30.5 0,7.05 -2.15,12.82 -6.46,17.3 -4.31,4.49 -9.43,6.73 -15.34,6.73 -5.49,0 -10.39,-1.59 -14.7,-4.77 -4.31,-3.17 -7.51,-7.81 -9.6,-13.91 h -3 c 1.39,10.02 4.9,17.72 10.52,23.12 5.61,5.39 12.64,8.09 21.08,8.09 8.97,0 16.46,-2.87 22.47,-8.61 6.01,-5.75 9.01,-12.54 9.01,-20.38 0,-5.66 -1.3,-11.28 -3.92,-16.84 -4,-8.8 -10.53,-18.16 -19.59,-28.09 -13.58,-14.8 -22.03,-23.72 -25.34,-26.77 h 28.87 c 5.83,0 9.94,0.22 12.34,0.65 2.39,0.44 4.55,1.33 6.46,2.68 1.92,1.35 3.57,3.25 4.97,5.68 h 3"
             style="fill:#000000;fill-opacity:1;fill-rule:nonzero;stroke:none"
             transform="matrix(0.13333333,0,0,-0.13333333,-33.333333,734.66667)"
             clip-path="url(#clipPath53)"
             id="path141" />
          <path
             d="m 2629.63,2768.63 v -44.47"
             style="fill:none;stroke:#000000;stroke-width:1;stroke-linecap:butt;stroke-linejoin:round;stroke-miterlimit:10;stroke-dasharray:none;stroke-opacity:1"
             transform="matrix(0.13333333,0,0,-0.13333333,-33.333333,734.66667)"
             clip-path="url(#clipPath54)"
             id="path142" />
          <path
             d="m 2590.64,2648.73 c 3.13,7.5 7.12,13.26 11.95,17.32 4.83,4.04 10.82,6.06 17.95,6.06 8.89,0 15.73,-2.87 20.51,-8.61 3.58,-4.36 5.36,-8.97 5.36,-13.84 0,-8.02 -5.05,-16.34 -15.15,-24.95 6.79,-2.71 11.93,-6.51 15.4,-11.43 3.49,-4.92 5.23,-10.73 5.23,-17.44 0,-9.57 -3.04,-17.89 -9.14,-24.94 -7.92,-9.14 -19.46,-13.71 -34.61,-13.71 -7.4,0 -12.45,0.93 -15.16,2.81 -2.69,1.87 -4.04,3.85 -4.04,5.94 0,1.56 0.63,2.95 1.9,4.18 1.26,1.22 2.81,1.83 4.63,1.83 1.39,0 2.79,-0.22 4.18,-0.65 0.87,-0.35 2.94,-1.37 6.2,-3.08 3.27,-1.7 5.56,-2.72 6.86,-3.07 2,-0.61 4.14,-0.91 6.4,-0.91 5.57,0 10.4,2.16 14.5,6.46 4.09,4.32 6.13,9.43 6.13,15.35 0,4.27 -0.95,8.45 -2.87,12.54 -1.39,3.05 -2.92,5.35 -4.57,6.92 -2.35,2.18 -5.57,4.16 -9.67,5.94 -4.08,1.79 -8.26,2.68 -12.53,2.68 h -2.61 v 2.35 c 4.35,0.61 8.68,2.17 12.99,4.7 4.31,2.52 7.45,5.6 9.4,9.21 1.96,3.61 2.94,7.56 2.94,11.82 0,5.66 -1.73,10.2 -5.22,13.65 -3.49,3.43 -7.83,5.16 -13.06,5.16 -8.45,0 -15.5,-4.54 -21.16,-13.59 l -2.74,1.3"
             style="fill:#000000;fill-opacity:1;fill-rule:nonzero;stroke:none"
             transform="matrix(0.13333333,0,0,-0.13333333,-33.333333,734.66667)"
             clip-path="url(#clipPath55)"
             id="path143" />
          <path
             d="m 3156.55,2768.63 v -44.47"
             style="fill:none;stroke:#000000;stroke-width:1;stroke-linecap:butt;stroke-linejoin:round;stroke-miterlimit:10;stroke-dasharray:none;stroke-opacity:1"
             transform="matrix(0.13333333,0,0,-0.13333333,-33.333333,734.66667)"
             clip-path="url(#clipPath56)"
             id="path144" />
          <path
             d="m 3186.57,2600.02 v -11.63 h -14.89 v -29.25 h -13.45 v 29.25 h -46.89 v 10.45 l 51.33,73.27 h 9.01 v -72.09 z m -28.34,0 v 54.86 l -38.92,-54.86 h 38.92"
             style="fill:#000000;fill-opacity:1;fill-rule:nonzero;stroke:none"
             transform="matrix(0.13333333,0,0,-0.13333333,-33.333333,734.66667)"
             clip-path="url(#clipPath57)"
             id="path145" />
          <path
             d="m 3683.46,2768.63 v -44.47"
             style="fill:none;stroke:#000000;stroke-width:1;stroke-linecap:butt;stroke-linejoin:round;stroke-miterlimit:10;stroke-dasharray:none;stroke-opacity:1"
             transform="matrix(0.13333333,0,0,-0.13333333,-33.333333,734.66667)"
             clip-path="url(#clipPath58)"
             id="path146" />
          <path
             d="m 3707.93,2669.89 -6.41,-13.96 h -33.3 l -7.31,-14.77 c 14.45,-2.17 25.9,-7.57 34.34,-16.2 7.23,-7.39 10.84,-16.1 10.84,-26.12 0,-5.74 -1.16,-11.09 -3.52,-16.05 -2.35,-4.97 -5.34,-9.19 -8.94,-12.67 -3.61,-3.49 -7.65,-6.32 -12.08,-8.49 -6.19,-2.97 -12.58,-4.44 -19.2,-4.44 -6.62,0 -11.45,1.13 -14.49,3.39 -3.06,2.26 -4.58,4.75 -4.58,7.45 0,1.56 0.63,2.94 1.89,4.11 1.26,1.18 2.85,1.76 4.78,1.76 1.38,0 2.63,-0.21 3.71,-0.65 1.09,-0.43 2.89,-1.57 5.42,-3.39 4.1,-2.88 8.23,-4.32 12.41,-4.32 6.35,0 11.95,2.42 16.78,7.25 4.84,4.83 7.25,10.69 7.25,17.57 0,6.7 -2.15,12.95 -6.47,18.74 -4.3,5.79 -10.25,10.3 -17.83,13.52 -5.92,2.43 -14.01,3.83 -24.29,4.18 l 21.29,43.09 h 39.71"
             style="fill:#000000;fill-opacity:1;fill-rule:nonzero;stroke:none"
             transform="matrix(0.13333333,0,0,-0.13333333,-33.333333,734.66667)"
             clip-path="url(#clipPath59)"
             id="path147" />
          <path
             d="m 4210.38,2768.63 v -44.47"
             style="fill:none;stroke:#000000;stroke-width:1;stroke-linecap:butt;stroke-linejoin:round;stroke-miterlimit:10;stroke-dasharray:none;stroke-opacity:1"
             transform="matrix(0.13333333,0,0,-0.13333333,-33.333333,734.66667)"
             clip-path="url(#clipPath60)"
             id="path148" />
          <path
             d="m 4236.86,2672.11 v -3 c -7.23,-0.7 -13.1,-2.14 -17.63,-4.31 -4.53,-2.17 -9.01,-5.46 -13.45,-9.86 -4.45,-4.4 -8.12,-9.3 -11.04,-14.69 -2.92,-5.4 -5.33,-11.84 -7.25,-19.33 7.84,5.4 15.67,8.1 23.51,8.1 7.58,0 14.14,-3.05 19.72,-9.14 5.58,-6.1 8.36,-13.94 8.36,-23.51 0,-9.24 -2.83,-17.68 -8.49,-25.34 -6.71,-9.23 -15.63,-13.84 -26.77,-13.84 -7.58,0 -13.98,2.52 -19.2,7.57 -10.36,9.67 -15.54,22.29 -15.54,37.88 0,9.84 1.98,19.22 5.94,28.14 3.96,8.92 9.65,16.85 17.04,23.77 7.4,6.92 14.48,11.58 21.23,13.97 6.74,2.4 13.03,3.59 18.87,3.59 z m -50.81,-57.07 c -0.95,-7.4 -1.43,-13.36 -1.43,-17.89 0,-5.23 0.96,-10.88 2.87,-16.98 1.92,-6.09 4.79,-10.96 8.62,-14.63 2.79,-2.52 6.14,-3.78 10.05,-3.78 4.79,0 9.04,2.24 12.74,6.73 3.71,4.47 5.55,10.85 5.55,19.13 0,9.23 -1.84,17.26 -5.55,24.09 -3.7,6.84 -8.94,10.25 -15.74,10.25 -2,0 -4.2,-0.43 -6.59,-1.3 -2.39,-0.87 -5.9,-2.74 -10.52,-5.62"
             style="fill:#000000;fill-opacity:1;fill-rule:nonzero;stroke:none"
             transform="matrix(0.13333333,0,0,-0.13333333,-33.333333,734.66667)"
             clip-path="url(#clipPath61)"
             id="path149" />
          <path
             d="m 4737.29,2768.63 v -44.47"
             style="fill:none;stroke:#000000;stroke-width:1;stroke-linecap:butt;stroke-linejoin:round;stroke-miterlimit:10;stroke-dasharray:none;stroke-opacity:1"
             transform="matrix(0.13333333,0,0,-0.13333333,-33.333333,734.66667)"
             clip-path="url(#clipPath62)"
             id="path150" />
          <path
             d="m 4705.32,2669.89 h 59.3 v -3.13 l -36.83,-109.97 h -9.15 l 33.05,99.79 h -30.44 c -6.18,0 -10.57,-0.75 -13.19,-2.23 -4.52,-2.52 -8.18,-6.4 -10.96,-11.62 l -2.35,0.91 10.57,26.25"
             style="fill:#000000;fill-opacity:1;fill-rule:nonzero;stroke:none"
             transform="matrix(0.13333333,0,0,-0.13333333,-33.333333,734.66667)"
             clip-path="url(#clipPath63)"
             id="path151" />
          <path
             d="m 5264.21,2768.63 v -44.47"
             style="fill:none;stroke:#000000;stroke-width:1;stroke-linecap:butt;stroke-linejoin:round;stroke-miterlimit:10;stroke-dasharray:none;stroke-opacity:1"
             transform="matrix(0.13333333,0,0,-0.13333333,-33.333333,734.66667)"
             clip-path="url(#clipPath64)"
             id="path152" />
          <path
             d="m 5247.18,2614.91 c -8.79,7.14 -14.45,12.89 -16.97,17.24 -2.53,4.36 -3.79,8.88 -3.79,13.58 0,7.23 2.77,13.44 8.29,18.61 5.54,5.18 12.91,7.77 22.14,7.77 8.96,0 16.17,-2.41 21.61,-7.24 5.45,-4.83 8.17,-10.34 8.17,-16.53 0,-4.18 -1.49,-8.41 -4.44,-12.73 -2.96,-4.31 -9.1,-9.38 -18.42,-15.21 9.58,-7.4 15.93,-13.2 19.07,-17.38 4.09,-5.56 6.13,-11.44 6.13,-17.63 0,-7.74 -2.95,-14.38 -8.87,-19.91 -5.93,-5.53 -13.72,-8.29 -23.38,-8.29 -10.45,0 -18.63,3.31 -24.56,9.93 -4.61,5.22 -6.92,10.96 -6.92,17.23 0,4.87 1.64,9.73 4.9,14.56 3.27,4.83 8.95,10.16 17.04,16 z m 12.81,8.75 c 6.53,5.84 10.66,10.45 12.4,13.84 1.74,3.4 2.61,7.27 2.61,11.63 0,5.66 -1.61,10.12 -4.83,13.39 -3.22,3.26 -7.62,4.9 -13.19,4.9 -5.48,0 -9.97,-1.62 -13.45,-4.84 -3.49,-3.22 -5.23,-6.97 -5.23,-11.23 0,-2.87 0.72,-5.72 2.16,-8.56 1.43,-2.82 3.46,-5.5 6.07,-8.03 z m -9.02,-11.89 c -4.52,-3.82 -7.88,-7.98 -10.06,-12.47 -2.17,-4.48 -3.26,-9.33 -3.26,-14.56 0,-6.96 1.92,-12.56 5.74,-16.78 3.84,-4.22 8.72,-6.33 14.63,-6.33 5.93,0 10.65,1.65 14.17,4.96 3.53,3.31 5.29,7.31 5.29,12.02 0,3.91 -1.04,7.44 -3.13,10.57 -3.83,5.75 -11.62,13.28 -23.38,22.59"
             style="fill:#000000;fill-opacity:1;fill-rule:nonzero;stroke:none"
             transform="matrix(0.13333333,0,0,-0.13333333,-33.333333,734.66667)"
             clip-path="url(#clipPath65)"
             id="path153" />
          <path
             d="m 258.508,2768.63 v -22.24"
             style="fill:none;stroke:#000000;stroke-width:1;stroke-linecap:butt;stroke-linejoin:round;stroke-miterlimit:10;stroke-dasharray:none;stroke-opacity:1"
             transform="matrix(0.13333333,0,0,-0.13333333,-33.333333,734.66667)"
             clip-path="url(#clipPath66)"
             id="path154" />
          <path
             d="m 785.426,2768.63 v -22.24"
             style="fill:none;stroke:#000000;stroke-width:1;stroke-linecap:butt;stroke-linejoin:round;stroke-miterlimit:10;stroke-dasharray:none;stroke-opacity:1"
             transform="matrix(0.13333333,0,0,-0.13333333,-33.333333,734.66667)"
             clip-path="url(#clipPath67)"
             id="path155" />
          <path
             d="m 1312.34,2768.63 v -22.24"
             style="fill:none;stroke:#000000;stroke-width:1;stroke-linecap:butt;stroke-linejoin:round;stroke-miterlimit:10;stroke-dasharray:none;stroke-opacity:1"
             transform="matrix(0.13333333,0,0,-0.13333333,-33.333333,734.66667)"
             clip-path="url(#clipPath68)"
             id="path156" />
          <path
             d="m 1839.26,2768.63 v -22.24"
             style="fill:none;stroke:#000000;stroke-width:1;stroke-linecap:butt;stroke-linejoin:round;stroke-miterlimit:10;stroke-dasharray:none;stroke-opacity:1"
             transform="matrix(0.13333333,0,0,-0.13333333,-33.333333,734.66667)"
             clip-path="url(#clipPath69)"
             id="path157" />
          <path
             d="m 2366.17,2768.63 v -22.24"
             style="fill:none;stroke:#000000;stroke-width:1;stroke-linecap:butt;stroke-linejoin:round;stroke-miterlimit:10;stroke-dasharray:none;stroke-opacity:1"
             transform="matrix(0.13333333,0,0,-0.13333333,-33.333333,734.66667)"
             clip-path="url(#clipPath70)"
             id="path158" />
          <path
             d="m 2893.09,2768.63 v -22.24"
             style="fill:none;stroke:#000000;stroke-width:1;stroke-linecap:butt;stroke-linejoin:round;stroke-miterlimit:10;stroke-dasharray:none;stroke-opacity:1"
             transform="matrix(0.13333333,0,0,-0.13333333,-33.333333,734.66667)"
             clip-path="url(#clipPath71)"
             id="path159" />
          <path
             d="m 3420,2768.63 v -22.24"
             style="fill:none;stroke:#000000;stroke-width:1;stroke-linecap:butt;stroke-linejoin:round;stroke-miterlimit:10;stroke-dasharray:none;stroke-opacity:1"
             transform="matrix(0.13333333,0,0,-0.13333333,-33.333333,734.66667)"
             clip-path="url(#clipPath72)"
             id="path160" />
          <path
             d="m 3946.92,2768.63 v -22.24"
             style="fill:none;stroke:#000000;stroke-width:1;stroke-linecap:butt;stroke-linejoin:round;stroke-miterlimit:10;stroke-dasharray:none;stroke-opacity:1"
             transform="matrix(0.13333333,0,0,-0.13333333,-33.333333,734.66667)"
             clip-path="url(#clipPath73)"
             id="path161" />
          <path
             d="m 4473.84,2768.63 v -22.24"
             style="fill:none;stroke:#000000;stroke-width:1;stroke-linecap:butt;stroke-linejoin:round;stroke-miterlimit:10;stroke-dasharray:none;stroke-opacity:1"
             transform="matrix(0.13333333,0,0,-0.13333333,-33.333333,734.66667)"
             clip-path="url(#clipPath74)"
             id="path162" />
          <path
             d="m 5000.75,2768.63 v -22.24"
             style="fill:none;stroke:#000000;stroke-width:1;stroke-linecap:butt;stroke-linejoin:round;stroke-miterlimit:10;stroke-dasharray:none;stroke-opacity:1"
             transform="matrix(0.13333333,0,0,-0.13333333,-33.333333,734.66667)"
             clip-path="url(#clipPath75)"
             id="path163" />
          <path
             d="m 5527.66,2768.63 v -22.24"
             style="fill:none;stroke:#000000;stroke-width:1;stroke-linecap:butt;stroke-linejoin:round;stroke-miterlimit:10;stroke-dasharray:none;stroke-opacity:1"
             transform="matrix(0.13333333,0,0,-0.13333333,-33.333333,734.66667)"
             clip-path="url(#clipPath76)"
             id="path164" />
          <path
             d="M 1048.88,2540.42 V 5484.36"
             style="fill:none;stroke:#000000;stroke-width:8.35843;stroke-linecap:butt;stroke-linejoin:round;stroke-miterlimit:10;stroke-dasharray:none;stroke-opacity:1"
             transform="matrix(0.13333333,0,0,-0.13333333,-33.333333,734.66667)"
             clip-path="url(#clipPath77)"
             id="path165" />
          <path
             d="m 1048.88,2768.63 h -44.46"
             style="fill:none;stroke:#000000;stroke-width:1;stroke-linecap:butt;stroke-linejoin:round;stroke-miterlimit:10;stroke-dasharray:none;stroke-opacity:1"
             transform="matrix(0.13333333,0,0,-0.13333333,-33.333333,734.66667)"
             clip-path="url(#clipPath78)"
             id="path166" />
          <path
             d="m 1048.88,3225.06 h -44.46"
             style="fill:none;stroke:#000000;stroke-width:1;stroke-linecap:butt;stroke-linejoin:round;stroke-miterlimit:10;stroke-dasharray:none;stroke-opacity:1"
             transform="matrix(0.13333333,0,0,-0.13333333,-33.333333,734.66667)"
             clip-path="url(#clipPath79)"
             id="path167" />
          <path
             d="m 766.023,3215.67 c 0,12.63 1.915,23.49 5.747,32.59 3.828,9.1 8.878,15.87 15.148,20.3 4.965,3.58 10.055,5.36 15.281,5.36 8.446,0 16.063,-4.31 22.856,-12.93 8.359,-10.7 12.535,-25.25 12.535,-43.62 0,-12.88 -1.848,-23.82 -5.551,-32.78 -3.699,-8.96 -8.402,-15.47 -14.101,-19.52 -5.704,-4.05 -11.254,-6.08 -16.653,-6.08 -10.535,0 -19.328,6.23 -26.383,18.68 -5.918,10.54 -8.879,23.2 -8.879,38 z m 16.063,-2.09 c 0,-15.24 1.871,-27.64 5.617,-37.22 3.133,-8.18 7.746,-12.28 13.844,-12.28 2.961,0 6.008,1.33 9.141,3.99 3.136,2.66 5.527,7.07 7.183,13.26 2.524,9.4 3.789,22.59 3.789,39.56 0,12.64 -1.308,23.17 -3.922,31.62 -2,6.27 -4.527,10.7 -7.574,13.31 -2.262,1.83 -4.961,2.74 -8.098,2.74 -3.742,0 -7.05,-1.64 -9.925,-4.95 -3.914,-4.53 -6.571,-11.65 -7.965,-21.36 -1.395,-9.7 -2.09,-19.27 -2.09,-28.67 z m 82.41,-36.83 c 2.524,0 4.656,-0.86 6.399,-2.6 1.742,-1.75 2.613,-3.88 2.613,-6.4 0,-2.53 -0.871,-4.69 -2.613,-6.46 -1.743,-1.79 -3.875,-2.69 -6.399,-2.69 -2.527,0 -4.66,0.9 -6.402,2.69 -1.739,1.77 -2.61,3.93 -2.61,6.46 0,2.52 0.871,4.65 2.61,6.4 1.742,1.74 3.875,2.6 6.402,2.6 z m 97.559,5.49 -7.707,-21.29 h -65.301 v 3.01 c 19.156,17.5 32.652,31.8 40.488,42.9 7.836,11.1 11.754,21.27 11.754,30.5 0,7.05 -2.156,12.82 -6.465,17.3 -4.308,4.48 -9.426,6.72 -15.347,6.72 -5.485,0 -10.383,-1.58 -14.692,-4.76 -4.308,-3.17 -7.508,-7.82 -9.597,-13.91 h -3.004 c 1.39,10.02 4.894,17.71 10.511,23.11 5.618,5.4 12.649,8.1 21.094,8.1 8.965,0 16.453,-2.87 22.461,-8.62 6.008,-5.75 9.012,-12.53 9.012,-20.37 0,-5.66 -1.305,-11.28 -3.918,-16.84 -4.004,-8.8 -10.535,-18.16 -19.59,-28.09 -13.582,-14.8 -22.027,-23.72 -25.336,-26.77 h 28.863 c 5.832,0 9.946,0.22 12.34,0.65 2.395,0.43 4.551,1.33 6.465,2.68 1.918,1.35 3.57,3.24 4.965,5.68 h 3.004"
             style="fill:#000000;fill-opacity:1;fill-rule:nonzero;stroke:none"
             transform="matrix(0.13333333,0,0,-0.13333333,-33.333333,734.66667)"
             clip-path="url(#clipPath80)"
             id="path168" />
          <path
             d="m 1048.88,3681.49 h -44.46"
             style="fill:none;stroke:#000000;stroke-width:1;stroke-linecap:butt;stroke-linejoin:round;stroke-miterlimit:10;stroke-dasharray:none;stroke-opacity:1"
             transform="matrix(0.13333333,0,0,-0.13333333,-33.333333,734.66667)"
             clip-path="url(#clipPath81)"
             id="path169" />
          <path
             d="m 766.023,3675.39 c 0,12.63 1.915,23.48 5.747,32.59 3.828,9.09 8.878,15.86 15.148,20.3 4.965,3.58 10.055,5.36 15.281,5.36 8.446,0 16.063,-4.32 22.856,-12.93 8.359,-10.71 12.535,-25.26 12.535,-43.63 0,-12.88 -1.848,-23.81 -5.551,-32.77 -3.699,-8.97 -8.402,-15.48 -14.101,-19.52 -5.704,-4.06 -11.254,-6.08 -16.653,-6.08 -10.535,0 -19.328,6.22 -26.383,18.67 -5.918,10.54 -8.879,23.2 -8.879,38.01 z m 16.063,-2.09 c 0,-15.24 1.871,-27.64 5.617,-37.23 3.133,-8.18 7.746,-12.27 13.844,-12.27 2.961,0 6.008,1.33 9.141,3.99 3.136,2.65 5.527,7.07 7.183,13.25 2.524,9.41 3.789,22.59 3.789,39.57 0,12.63 -1.308,23.16 -3.922,31.61 -2,6.27 -4.527,10.71 -7.574,13.32 -2.262,1.83 -4.961,2.74 -8.098,2.74 -3.742,0 -7.05,-1.65 -9.925,-4.96 -3.914,-4.53 -6.571,-11.65 -7.965,-21.36 -1.395,-9.7 -2.09,-19.26 -2.09,-28.66 z m 82.41,-36.83 c 2.524,0 4.656,-0.87 6.399,-2.61 1.742,-1.75 2.613,-3.88 2.613,-6.4 0,-2.53 -0.871,-4.68 -2.613,-6.46 -1.743,-1.79 -3.875,-2.69 -6.399,-2.69 -2.527,0 -4.66,0.9 -6.402,2.69 -1.739,1.78 -2.61,3.93 -2.61,6.46 0,2.52 0.871,4.65 2.61,6.4 1.742,1.74 3.875,2.61 6.402,2.61 z m 98.734,25.07 v -11.62 h -14.89 v -29.26 h -13.453 v 29.26 h -46.883 v 10.45 l 51.324,73.27 h 9.012 v -72.1 z m -28.343,0 v 54.86 l -38.918,-54.86 h 38.918"
             style="fill:#000000;fill-opacity:1;fill-rule:nonzero;stroke:none"
             transform="matrix(0.13333333,0,0,-0.13333333,-33.333333,734.66667)"
             clip-path="url(#clipPath82)"
             id="path170" />
          <path
             d="m 1048.88,4137.91 h -44.46"
             style="fill:none;stroke:#000000;stroke-width:1;stroke-linecap:butt;stroke-linejoin:round;stroke-miterlimit:10;stroke-dasharray:none;stroke-opacity:1"
             transform="matrix(0.13333333,0,0,-0.13333333,-33.333333,734.66667)"
             clip-path="url(#clipPath83)"
             id="path171" />
          <path
             d="m 766.023,4126.74 c 0,12.63 1.915,23.49 5.747,32.59 3.828,9.1 8.878,15.87 15.148,20.3 4.965,3.58 10.055,5.36 15.281,5.36 8.446,0 16.063,-4.31 22.856,-12.93 8.359,-10.7 12.535,-25.25 12.535,-43.62 0,-12.88 -1.848,-23.81 -5.551,-32.78 -3.699,-8.96 -8.402,-15.48 -14.101,-19.52 -5.704,-4.05 -11.254,-6.08 -16.653,-6.08 -10.535,0 -19.328,6.23 -26.383,18.67 -5.918,10.55 -8.879,23.21 -8.879,38.01 z m 16.063,-2.09 c 0,-15.24 1.871,-27.64 5.617,-37.22 3.133,-8.18 7.746,-12.28 13.844,-12.28 2.961,0 6.008,1.33 9.141,3.99 3.136,2.66 5.527,7.07 7.183,13.25 2.524,9.41 3.789,22.6 3.789,39.57 0,12.63 -1.308,23.17 -3.922,31.62 -2,6.27 -4.527,10.71 -7.574,13.31 -2.262,1.83 -4.961,2.74 -8.098,2.74 -3.742,0 -7.05,-1.64 -9.925,-4.95 -3.914,-4.53 -6.571,-11.66 -7.965,-21.36 -1.395,-9.7 -2.09,-19.27 -2.09,-28.67 z m 82.41,-36.83 c 2.524,0 4.656,-0.87 6.399,-2.61 1.742,-1.74 2.613,-3.87 2.613,-6.4 0,-2.52 -0.871,-4.68 -2.613,-6.46 -1.743,-1.79 -3.875,-2.68 -6.399,-2.68 -2.527,0 -4.66,0.89 -6.402,2.68 -1.739,1.78 -2.61,3.94 -2.61,6.46 0,2.53 0.871,4.66 2.61,6.4 1.742,1.74 3.875,2.61 6.402,2.61 z m 95.859,97.17 v -3 c -7.226,-0.7 -13.101,-2.14 -17.632,-4.31 -4.524,-2.18 -9.008,-5.47 -13.45,-9.86 -4.441,-4.4 -8.121,-9.3 -11.035,-14.69 -2.918,-5.4 -5.336,-11.84 -7.25,-19.33 7.836,5.4 15.672,8.09 23.508,8.09 7.574,0 14.149,-3.05 19.723,-9.14 5.57,-6.09 8.355,-13.93 8.355,-23.5 0,-9.24 -2.828,-17.68 -8.488,-25.35 -6.703,-9.22 -15.629,-13.84 -26.773,-13.84 -7.575,0 -13.973,2.53 -19.196,7.58 -10.363,9.66 -15.543,22.29 -15.543,37.88 0,9.84 1.981,19.21 5.942,28.14 3.961,8.92 9.644,16.84 17.043,23.77 7.402,6.92 14.476,11.58 21.222,13.97 6.75,2.4 13.039,3.59 18.871,3.59 z m -50.804,-57.07 c -0.957,-7.4 -1.434,-13.37 -1.434,-17.9 0,-5.22 0.957,-10.88 2.871,-16.97 1.914,-6.1 4.789,-10.97 8.621,-14.63 2.786,-2.52 6.137,-3.79 10.055,-3.79 4.789,0 9.035,2.25 12.734,6.73 3.7,4.48 5.551,10.86 5.551,19.14 0,9.22 -1.851,17.26 -5.551,24.09 -3.699,6.83 -8.945,10.25 -15.738,10.25 -2,0 -4.199,-0.43 -6.594,-1.3 -2.394,-0.87 -5.898,-2.74 -10.515,-5.62"
             style="fill:#000000;fill-opacity:1;fill-rule:nonzero;stroke:none"
             transform="matrix(0.13333333,0,0,-0.13333333,-33.333333,734.66667)"
             clip-path="url(#clipPath84)"
             id="path172" />
          <path
             d="m 1048.88,4594.34 h -44.46"
             style="fill:none;stroke:#000000;stroke-width:1;stroke-linecap:butt;stroke-linejoin:round;stroke-miterlimit:10;stroke-dasharray:none;stroke-opacity:1"
             transform="matrix(0.13333333,0,0,-0.13333333,-33.333333,734.66667)"
             clip-path="url(#clipPath85)"
             id="path173" />
          <path
             d="m 766.023,4586.46 c 0,12.63 1.915,23.48 5.747,32.58 3.828,9.1 8.878,15.87 15.148,20.31 4.965,3.58 10.055,5.35 15.281,5.35 8.446,0 16.063,-4.31 22.856,-12.93 8.359,-10.7 12.535,-25.25 12.535,-43.62 0,-12.88 -1.848,-23.81 -5.551,-32.77 -3.699,-8.97 -8.402,-15.48 -14.101,-19.53 -5.704,-4.05 -11.254,-6.07 -16.653,-6.07 -10.535,0 -19.328,6.22 -26.383,18.67 -5.918,10.54 -8.879,23.2 -8.879,38.01 z m 16.063,-2.09 c 0,-15.24 1.871,-27.65 5.617,-37.23 3.133,-8.18 7.746,-12.27 13.844,-12.27 2.961,0 6.008,1.33 9.141,3.99 3.136,2.65 5.527,7.07 7.183,13.25 2.524,9.4 3.789,22.59 3.789,39.57 0,12.63 -1.308,23.16 -3.922,31.61 -2,6.27 -4.527,10.71 -7.574,13.32 -2.262,1.83 -4.961,2.74 -8.098,2.74 -3.742,0 -7.05,-1.65 -9.925,-4.96 -3.914,-4.53 -6.571,-11.65 -7.965,-21.35 -1.395,-9.71 -2.09,-19.27 -2.09,-28.67 z m 82.41,-36.83 c 2.524,0 4.656,-0.87 6.399,-2.61 1.742,-1.75 2.613,-3.88 2.613,-6.4 0,-2.53 -0.871,-4.68 -2.613,-6.46 -1.743,-1.79 -3.875,-2.69 -6.399,-2.69 -2.527,0 -4.66,0.9 -6.402,2.69 -1.739,1.78 -2.61,3.93 -2.61,6.46 0,2.52 0.871,4.65 2.61,6.4 1.742,1.74 3.875,2.61 6.402,2.61 z m 53.024,39.96 c -8.793,7.14 -14.454,12.89 -16.977,17.24 -2.527,4.36 -3.789,8.88 -3.789,13.58 0,7.23 2.766,13.44 8.293,18.61 5.527,5.18 12.906,7.77 22.137,7.77 8.968,0 16.171,-2.41 21.613,-7.24 5.441,-4.83 8.164,-10.34 8.164,-16.53 0,-4.18 -1.481,-8.41 -4.441,-12.73 -2.961,-4.31 -9.098,-9.38 -18.415,-15.21 9.579,-7.4 15.934,-13.2 19.067,-17.38 4.094,-5.56 6.141,-11.44 6.141,-17.62 0,-7.75 -2.961,-14.39 -8.883,-19.92 -5.918,-5.53 -13.711,-8.29 -23.379,-8.29 -10.446,0 -18.629,3.31 -24.551,9.93 -4.613,5.22 -6.922,10.96 -6.922,17.23 0,4.88 1.633,9.73 4.899,14.56 3.265,4.83 8.945,10.16 17.043,16 z m 12.796,8.75 c 6.532,5.84 10.668,10.45 12.407,13.84 1.742,3.41 2.613,7.27 2.613,11.63 0,5.66 -1.609,10.12 -4.832,13.39 -3.219,3.26 -7.617,4.9 -13.191,4.9 -5.485,0 -9.969,-1.62 -13.45,-4.84 -3.484,-3.22 -5.226,-6.96 -5.226,-11.23 0,-2.87 0.718,-5.72 2.156,-8.56 1.437,-2.82 3.461,-5.5 6.074,-8.03 z m -9.011,-11.88 c -4.528,-3.83 -7.879,-7.99 -10.055,-12.48 -2.176,-4.48 -3.266,-9.33 -3.266,-14.55 0,-6.97 1.914,-12.57 5.746,-16.79 3.833,-4.22 8.708,-6.34 14.629,-6.34 5.918,0 10.645,1.66 14.168,4.97 3.528,3.31 5.289,7.31 5.289,12.02 0,3.91 -1.043,7.44 -3.132,10.57 -3.832,5.75 -11.621,13.28 -23.379,22.6"
             style="fill:#000000;fill-opacity:1;fill-rule:nonzero;stroke:none"
             transform="matrix(0.13333333,0,0,-0.13333333,-33.333333,734.66667)"
             clip-path="url(#clipPath86)"
             id="path174" />
          <path
             d="m 1048.88,5050.76 h -44.46"
             style="fill:none;stroke:#000000;stroke-width:1;stroke-linecap:butt;stroke-linejoin:round;stroke-miterlimit:10;stroke-dasharray:none;stroke-opacity:1"
             transform="matrix(0.13333333,0,0,-0.13333333,-33.333333,734.66667)"
             clip-path="url(#clipPath87)"
             id="path175" />
          <path
             d="m 904.98,5091.23 26.907,13.19 h 2.742 v -93.51 c 0,-6.19 0.258,-10.04 0.781,-11.56 0.524,-1.53 1.59,-2.7 3.199,-3.53 1.614,-0.82 4.942,-1.28 9.993,-1.37 v -3 h -41.661 v 3 c 5.223,0.09 8.598,0.55 10.122,1.37 1.523,0.83 2.589,1.89 3.199,3.2 0.609,1.31 0.914,5.27 0.914,11.89 v 59.81 c 0,8.01 -0.262,13.19 -0.785,15.54 -0.434,1.74 -1.153,3.01 -2.153,3.79 -1,0.78 -2.199,1.18 -3.593,1.18 -2,0 -4.832,-0.83 -8.489,-2.48 l -1.176,2.48"
             style="fill:#000000;fill-opacity:1;fill-rule:nonzero;stroke:none"
             transform="matrix(0.13333333,0,0,-0.13333333,-33.333333,734.66667)"
             clip-path="url(#clipPath88)"
             id="path176" />
          <path
             d="m 1048.88,2540.42 h -22.23"
             style="fill:none;stroke:#000000;stroke-width:1;stroke-linecap:butt;stroke-linejoin:round;stroke-miterlimit:10;stroke-dasharray:none;stroke-opacity:1"
             transform="matrix(0.13333333,0,0,-0.13333333,-33.333333,734.66667)"
             clip-path="url(#clipPath89)"
             id="path177" />
          <path
             d="m 1048.88,2996.85 h -22.23"
             style="fill:none;stroke:#000000;stroke-width:1;stroke-linecap:butt;stroke-linejoin:round;stroke-miterlimit:10;stroke-dasharray:none;stroke-opacity:1"
             transform="matrix(0.13333333,0,0,-0.13333333,-33.333333,734.66667)"
             clip-path="url(#clipPath90)"
             id="path178" />
          <path
             d="m 1048.88,3453.27 h -22.23"
             style="fill:none;stroke:#000000;stroke-width:1;stroke-linecap:butt;stroke-linejoin:round;stroke-miterlimit:10;stroke-dasharray:none;stroke-opacity:1"
             transform="matrix(0.13333333,0,0,-0.13333333,-33.333333,734.66667)"
             clip-path="url(#clipPath91)"
             id="path179" />
          <path
             d="m 1048.88,3909.7 h -22.23"
             style="fill:none;stroke:#000000;stroke-width:1;stroke-linecap:butt;stroke-linejoin:round;stroke-miterlimit:10;stroke-dasharray:none;stroke-opacity:1"
             transform="matrix(0.13333333,0,0,-0.13333333,-33.333333,734.66667)"
             clip-path="url(#clipPath92)"
             id="path180" />
          <path
             d="m 1048.88,4366.13 h -22.23"
             style="fill:none;stroke:#000000;stroke-width:1;stroke-linecap:butt;stroke-linejoin:round;stroke-miterlimit:10;stroke-dasharray:none;stroke-opacity:1"
             transform="matrix(0.13333333,0,0,-0.13333333,-33.333333,734.66667)"
             clip-path="url(#clipPath93)"
             id="path181" />
          <path
             d="m 1048.88,4822.55 h -22.23"
             style="fill:none;stroke:#000000;stroke-width:1;stroke-linecap:butt;stroke-linejoin:round;stroke-miterlimit:10;stroke-dasharray:none;stroke-opacity:1"
             transform="matrix(0.13333333,0,0,-0.13333333,-33.333333,734.66667)"
             clip-path="url(#clipPath94)"
             id="path182" />
          <path
             d="m 1048.88,5278.97 h -22.23"
             style="fill:none;stroke:#000000;stroke-width:1;stroke-linecap:butt;stroke-linejoin:round;stroke-miterlimit:10;stroke-dasharray:none;stroke-opacity:1"
             transform="matrix(0.13333333,0,0,-0.13333333,-33.333333,734.66667)"
             clip-path="url(#clipPath95)"
             id="path183" />
        </g>
      </g>
    </g>
  </g>
</svg>
