<?xml version="1.0" encoding="UTF-8" standalone="no"?>
<!-- Created with Inkscape (http://www.inkscape.org/) -->

<svg
   version="1.1"
   id="svg1"
   width="714.66669"
   height="500"
   viewBox="0 0 714.66669 500"
   sodipodi:docname="retez_zlomek.svg"
   inkscape:version="1.4.2 (f4327f4, 2025-05-13)"
   xmlns:inkscape="http://www.inkscape.org/namespaces/inkscape"
   xmlns:sodipodi="http://sodipodi.sourceforge.net/DTD/sodipodi-0.dtd"
   xmlns="http://www.w3.org/2000/svg"
   xmlns:svg="http://www.w3.org/2000/svg">
  <defs
     id="defs1">
    <clipPath
       clipPathUnits="userSpaceOnUse"
       id="clipPath1">
      <path
         d="M 0,0 H 612 V 792 H 0 Z"
         transform="matrix(10,0,0,10,2.5000001e-6,-2.4999999e-5)"
         id="path1" />
    </clipPath>
    <clipPath
       clipPathUnits="userSpaceOnUse"
       id="clipPath2">
      <path
         d="m 271.859,2066.14 h 5406.28 V 5855.41 H 271.859 Z"
         transform="translate(2.5000001e-6,-2.4999999e-5)"
         id="path2" />
    </clipPath>
    <clipPath
       clipPathUnits="userSpaceOnUse"
       id="clipPath3">
      <path
         d="m 271.859,2066.14 h 5406.28 V 5855.41 H 271.859 Z"
         transform="translate(2.5000001e-6,-2.4999999e-5)"
         id="path3" />
    </clipPath>
    <clipPath
       clipPathUnits="userSpaceOnUse"
       id="clipPath4">
      <path
         d="m 271.859,2066.14 h 5406.28 V 5855.41 H 271.859 Z"
         transform="translate(2.5000001e-6,-2.4999999e-5)"
         id="path4" />
    </clipPath>
    <clipPath
       clipPathUnits="userSpaceOnUse"
       id="clipPath5">
      <path
         d="m 271.859,2066.14 h 5406.28 V 5855.41 H 271.859 Z"
         transform="translate(2.5000001e-6,-2.4999999e-5)"
         id="path5" />
    </clipPath>
    <clipPath
       clipPathUnits="userSpaceOnUse"
       id="clipPath6">
      <path
         d="m 271.859,2066.14 h 5406.28 V 5855.41 H 271.859 Z"
         transform="translate(2.5000001e-6,-2.4999999e-5)"
         id="path6" />
    </clipPath>
    <clipPath
       clipPathUnits="userSpaceOnUse"
       id="clipPath7">
      <path
         d="m 271.859,2066.14 h 5406.28 V 5855.41 H 271.859 Z"
         transform="translate(2.5000001e-6,-2.4999999e-5)"
         id="path7" />
    </clipPath>
    <clipPath
       clipPathUnits="userSpaceOnUse"
       id="clipPath8">
      <path
         d="m 271.859,2066.14 h 5406.28 V 5855.41 H 271.859 Z"
         transform="translate(2.5000001e-6,-2.4999999e-5)"
         id="path8" />
    </clipPath>
    <clipPath
       clipPathUnits="userSpaceOnUse"
       id="clipPath9">
      <path
         d="m 271.859,2066.14 h 5406.28 V 5855.41 H 271.859 Z"
         transform="translate(2.5000001e-6,-2.4999999e-5)"
         id="path9" />
    </clipPath>
    <clipPath
       clipPathUnits="userSpaceOnUse"
       id="clipPath10">
      <path
         d="m 271.859,2066.14 h 5406.28 V 5855.41 H 271.859 Z"
         transform="translate(2.5000001e-6,-2.4999999e-5)"
         id="path10" />
    </clipPath>
    <clipPath
       clipPathUnits="userSpaceOnUse"
       id="clipPath11">
      <path
         d="m 271.859,2066.14 h 5406.28 V 5855.41 H 271.859 Z"
         transform="translate(2.5000001e-6,-2.4999999e-5)"
         id="path11" />
    </clipPath>
    <clipPath
       clipPathUnits="userSpaceOnUse"
       id="clipPath12">
      <path
         d="m 271.859,2066.14 h 5406.28 V 5855.41 H 271.859 Z"
         transform="translate(2.5000001e-6,-2.4999999e-5)"
         id="path12" />
    </clipPath>
    <clipPath
       clipPathUnits="userSpaceOnUse"
       id="clipPath13">
      <path
         d="m 271.859,2066.14 h 5406.28 V 5855.41 H 271.859 Z"
         transform="translate(2.5000001e-6,-2.4999999e-5)"
         id="path13" />
    </clipPath>
    <clipPath
       clipPathUnits="userSpaceOnUse"
       id="clipPath14">
      <path
         d="m 271.859,2066.14 h 5406.28 V 5855.41 H 271.859 Z"
         transform="translate(2.5000001e-6,-2.4999999e-5)"
         id="path14" />
    </clipPath>
    <clipPath
       clipPathUnits="userSpaceOnUse"
       id="clipPath15">
      <path
         d="m 271.859,2066.14 h 5406.28 V 5855.41 H 271.859 Z"
         transform="translate(2.5000001e-6,-2.4999999e-5)"
         id="path15" />
    </clipPath>
    <clipPath
       clipPathUnits="userSpaceOnUse"
       id="clipPath16">
      <path
         d="m 271.859,2066.14 h 5406.28 V 5855.41 H 271.859 Z"
         transform="translate(2.5000001e-6,-2.4999999e-5)"
         id="path16" />
    </clipPath>
    <clipPath
       clipPathUnits="userSpaceOnUse"
       id="clipPath17">
      <path
         d="m 271.859,2066.14 h 5406.28 V 5855.41 H 271.859 Z"
         transform="translate(2.5000001e-6,-2.4999999e-5)"
         id="path17" />
    </clipPath>
    <clipPath
       clipPathUnits="userSpaceOnUse"
       id="clipPath18">
      <path
         d="m 271.859,2066.14 h 5406.28 V 5855.41 H 271.859 Z"
         transform="translate(2.5000001e-6,-2.4999999e-5)"
         id="path18" />
    </clipPath>
    <clipPath
       clipPathUnits="userSpaceOnUse"
       id="clipPath19">
      <path
         d="m 271.859,2066.14 h 5406.28 V 5855.41 H 271.859 Z"
         transform="translate(2.5000001e-6,-2.4999999e-5)"
         id="path19" />
    </clipPath>
    <clipPath
       clipPathUnits="userSpaceOnUse"
       id="clipPath20">
      <path
         d="m 271.859,2066.14 h 5406.28 V 5855.41 H 271.859 Z"
         transform="translate(2.5000001e-6,-2.4999999e-5)"
         id="path20" />
    </clipPath>
    <clipPath
       clipPathUnits="userSpaceOnUse"
       id="clipPath21">
      <path
         d="m 271.859,2066.14 h 5406.28 V 5855.41 H 271.859 Z"
         transform="translate(2.5000001e-6,-2.4999999e-5)"
         id="path21" />
    </clipPath>
    <clipPath
       clipPathUnits="userSpaceOnUse"
       id="clipPath22">
      <path
         d="m 271.859,2066.14 h 5406.28 V 5855.41 H 271.859 Z"
         transform="translate(2.5000001e-6,-2.4999999e-5)"
         id="path22" />
    </clipPath>
    <clipPath
       clipPathUnits="userSpaceOnUse"
       id="clipPath23">
      <path
         d="m 271.859,2066.14 h 5406.28 V 5855.41 H 271.859 Z"
         transform="translate(2.5000001e-6,-2.4999999e-5)"
         id="path23" />
    </clipPath>
    <clipPath
       clipPathUnits="userSpaceOnUse"
       id="clipPath24">
      <path
         d="m 271.859,2066.14 h 5406.28 V 5855.41 H 271.859 Z"
         transform="translate(2.5000001e-6,-2.4999999e-5)"
         id="path24" />
    </clipPath>
    <clipPath
       clipPathUnits="userSpaceOnUse"
       id="clipPath25">
      <path
         d="m 271.859,2066.14 h 5406.28 V 5855.41 H 271.859 Z"
         transform="translate(2.5000001e-6,-2.4999999e-5)"
         id="path25" />
    </clipPath>
    <clipPath
       clipPathUnits="userSpaceOnUse"
       id="clipPath26">
      <path
         d="m 271.859,2066.14 h 5406.28 V 5855.41 H 271.859 Z"
         transform="translate(2.5000001e-6,-2.4999999e-5)"
         id="path26" />
    </clipPath>
    <clipPath
       clipPathUnits="userSpaceOnUse"
       id="clipPath27">
      <path
         d="m 271.859,2066.14 h 5406.28 V 5855.41 H 271.859 Z"
         transform="translate(2.5000001e-6,-2.4999999e-5)"
         id="path27" />
    </clipPath>
    <clipPath
       clipPathUnits="userSpaceOnUse"
       id="clipPath28">
      <path
         d="m 271.859,2066.14 h 5406.28 V 5855.41 H 271.859 Z"
         transform="translate(2.5000001e-6,-2.4999999e-5)"
         id="path28" />
    </clipPath>
    <clipPath
       clipPathUnits="userSpaceOnUse"
       id="clipPath29">
      <path
         d="m 271.859,2066.14 h 5406.28 V 5855.41 H 271.859 Z"
         transform="translate(2.5000001e-6,-2.4999999e-5)"
         id="path29" />
    </clipPath>
    <clipPath
       clipPathUnits="userSpaceOnUse"
       id="clipPath30">
      <path
         d="m 271.859,2066.14 h 5406.28 V 5855.41 H 271.859 Z"
         transform="translate(2.5000001e-6,-2.4999999e-5)"
         id="path30" />
    </clipPath>
    <clipPath
       clipPathUnits="userSpaceOnUse"
       id="clipPath31">
      <path
         d="m 271.859,2066.14 h 5406.28 V 5855.41 H 271.859 Z"
         transform="translate(2.5000001e-6,-2.4999999e-5)"
         id="path31" />
    </clipPath>
    <clipPath
       clipPathUnits="userSpaceOnUse"
       id="clipPath32">
      <path
         d="m 271.859,2066.14 h 5406.28 V 5855.41 H 271.859 Z"
         transform="translate(2.5000001e-6,-2.4999999e-5)"
         id="path32" />
    </clipPath>
    <clipPath
       clipPathUnits="userSpaceOnUse"
       id="clipPath33">
      <path
         d="m 271.859,2066.14 h 5406.28 V 5855.41 H 271.859 Z"
         transform="translate(2.5000001e-6,-2.4999999e-5)"
         id="path33" />
    </clipPath>
    <clipPath
       clipPathUnits="userSpaceOnUse"
       id="clipPath34">
      <path
         d="M 0,0 H 612 V 792 H 0 Z"
         transform="matrix(1.3333333,0,0,-1.3333333,-38.666667,777.33333)"
         id="path34" />
    </clipPath>
    <clipPath
       clipPathUnits="userSpaceOnUse"
       id="clipPath35">
      <path
         d="M 0,0 H 536 V 375 H 0 Z"
         transform="matrix(1.3333333,0,0,-1.3333333,0,500)"
         id="path35" />
    </clipPath>
  </defs>
  <sodipodi:namedview
     id="namedview1"
     pagecolor="#ffffff"
     bordercolor="#000000"
     borderopacity="0.25"
     inkscape:showpageshadow="2"
     inkscape:pageopacity="0.0"
     inkscape:pagecheckerboard="0"
     inkscape:deskcolor="#d1d1d1"
     inkscape:zoom="1.006"
     inkscape:cx="356.85885"
     inkscape:cy="250"
     inkscape:window-width="1366"
     inkscape:window-height="705"
     inkscape:window-x="-8"
     inkscape:window-y="-8"
     inkscape:window-maximized="1"
     inkscape:current-layer="g1">
    <inkscape:page
       x="0"
       y="0"
       inkscape:label="1"
       id="page1"
       width="714.66669"
       height="500"
       margin="0"
       bleed="0" />
  </sodipodi:namedview>
  <g
     id="g1"
     inkscape:groupmode="layer"
     inkscape:label="1">
    <g
       id="g70">
      <g
         clip-path="url(#clipPath35)"
         id="g69">
        <path
           d="M 200,1996.18 H 5750 V 5913.83 H 200 Z"
           style="fill:#ffffff;fill-opacity:1;fill-rule:nonzero;stroke:none"
           transform="matrix(0.13333333,0,0,-0.13333333,-38.666667,777.33333)"
           clip-path="url(#clipPath1)"
           id="path36" />
        <g
           clip-path="url(#clipPath34)"
           id="g68">
          <path
             d="M 318.496,2112.77 H 5619.84 V 5797.12 H 318.496 V 2112.77"
             style="fill:#000000;fill-opacity:1;fill-rule:nonzero;stroke:none"
             transform="matrix(0.13333333,0,0,-0.13333333,-38.666667,777.33333)"
             clip-path="url(#clipPath2)"
             id="path37" />
          <path
             d="M 318.496,2112.77 H 5619.84 V 5797.12 H 318.496 Z"
             style="fill:none;stroke:#000000;stroke-width:46.6387;stroke-linecap:butt;stroke-linejoin:round;stroke-miterlimit:10;stroke-dasharray:none;stroke-opacity:1"
             transform="matrix(0.13333333,0,0,-0.13333333,-38.666667,777.33333)"
             clip-path="url(#clipPath3)"
             id="path38" />
          <path
             d="M 318.496,2112.77 H 5619.84 V 5797.12 H 318.496 V 2112.77"
             style="fill:#00ff00;fill-opacity:1;fill-rule:nonzero;stroke:none"
             transform="matrix(0.13333333,0,0,-0.13333333,-38.666667,777.33333)"
             clip-path="url(#clipPath4)"
             id="path39" />
          <path
             d="M 318.496,2112.77 H 5619.84 V 5797.12 H 318.496 Z"
             style="fill:none;stroke:#000000;stroke-width:46.6387;stroke-linecap:butt;stroke-linejoin:round;stroke-miterlimit:10;stroke-dasharray:none;stroke-opacity:1"
             transform="matrix(0.13333333,0,0,-0.13333333,-38.666667,777.33333)"
             clip-path="url(#clipPath5)"
             id="path40" />
          <path
             d="m 5389.34,5336.57 h 230.5 v 230.28 h -230.5 v -230.28"
             style="fill:#000000;fill-opacity:1;fill-rule:nonzero;stroke:none"
             transform="matrix(0.13333333,0,0,-0.13333333,-38.666667,777.33333)"
             clip-path="url(#clipPath6)"
             id="path41" />
          <path
             d="m 5389.34,5336.57 h 230.5 v 230.28 h -230.5 z"
             style="fill:none;stroke:#000000;stroke-width:46.6387;stroke-linecap:butt;stroke-linejoin:round;stroke-miterlimit:10;stroke-dasharray:none;stroke-opacity:1"
             transform="matrix(0.13333333,0,0,-0.13333333,-38.666667,777.33333)"
             clip-path="url(#clipPath7)"
             id="path42" />
          <path
             d="m 5389.34,5336.57 h 230.5 v 230.28 h -230.5 v -230.28"
             style="fill:#00ff00;fill-opacity:1;fill-rule:nonzero;stroke:none"
             transform="matrix(0.13333333,0,0,-0.13333333,-38.666667,777.33333)"
             clip-path="url(#clipPath8)"
             id="path43" />
          <path
             d="m 5389.34,5336.57 h 230.5 v 230.28 h -230.5 z"
             style="fill:none;stroke:#000000;stroke-width:46.6387;stroke-linecap:butt;stroke-linejoin:round;stroke-miterlimit:10;stroke-dasharray:none;stroke-opacity:1"
             transform="matrix(0.13333333,0,0,-0.13333333,-38.666667,777.33333)"
             clip-path="url(#clipPath9)"
             id="path44" />
          <path
             d="m 4928.36,5336.57 h 460.98 v 460.55 h -460.98 v -460.55"
             style="fill:#000000;fill-opacity:1;fill-rule:nonzero;stroke:none"
             transform="matrix(0.13333333,0,0,-0.13333333,-38.666667,777.33333)"
             clip-path="url(#clipPath10)"
             id="path45" />
          <path
             d="m 4928.36,5336.57 h 460.98 v 460.55 h -460.98 z"
             style="fill:none;stroke:#000000;stroke-width:46.6387;stroke-linecap:butt;stroke-linejoin:round;stroke-miterlimit:10;stroke-dasharray:none;stroke-opacity:1"
             transform="matrix(0.13333333,0,0,-0.13333333,-38.666667,777.33333)"
             clip-path="url(#clipPath11)"
             id="path46" />
          <path
             d="m 4928.36,5336.57 h 460.98 v 460.55 h -460.98 v -460.55"
             style="fill:#ff0000;fill-opacity:1;fill-rule:nonzero;stroke:none"
             transform="matrix(0.13333333,0,0,-0.13333333,-38.666667,777.33333)"
             clip-path="url(#clipPath12)"
             id="path47" />
          <path
             d="m 4928.36,5336.57 h 460.98 v 460.55 h -460.98 z"
             style="fill:none;stroke:#000000;stroke-width:46.6387;stroke-linecap:butt;stroke-linejoin:round;stroke-miterlimit:10;stroke-dasharray:none;stroke-opacity:1"
             transform="matrix(0.13333333,0,0,-0.13333333,-38.666667,777.33333)"
             clip-path="url(#clipPath13)"
             id="path48" />
          <path
             d="m 4467.37,5336.57 h 460.99 v 460.55 h -460.99 v -460.55"
             style="fill:#000000;fill-opacity:1;fill-rule:nonzero;stroke:none"
             transform="matrix(0.13333333,0,0,-0.13333333,-38.666667,777.33333)"
             clip-path="url(#clipPath14)"
             id="path49" />
          <path
             d="m 4467.37,5336.57 h 460.99 v 460.55 h -460.99 z"
             style="fill:none;stroke:#000000;stroke-width:46.6387;stroke-linecap:butt;stroke-linejoin:round;stroke-miterlimit:10;stroke-dasharray:none;stroke-opacity:1"
             transform="matrix(0.13333333,0,0,-0.13333333,-38.666667,777.33333)"
             clip-path="url(#clipPath15)"
             id="path50" />
          <path
             d="m 4467.37,5336.57 h 460.99 v 460.55 h -460.99 v -460.55"
             style="fill:#ff0000;fill-opacity:1;fill-rule:nonzero;stroke:none"
             transform="matrix(0.13333333,0,0,-0.13333333,-38.666667,777.33333)"
             clip-path="url(#clipPath16)"
             id="path51" />
          <path
             d="m 4467.37,5336.57 h 460.99 v 460.55 h -460.99 z"
             style="fill:none;stroke:#000000;stroke-width:46.6387;stroke-linecap:butt;stroke-linejoin:round;stroke-miterlimit:10;stroke-dasharray:none;stroke-opacity:1"
             transform="matrix(0.13333333,0,0,-0.13333333,-38.666667,777.33333)"
             clip-path="url(#clipPath17)"
             id="path52" />
          <path
             d="m 4006.39,5336.57 h 460.98 v 460.55 h -460.98 v -460.55"
             style="fill:#000000;fill-opacity:1;fill-rule:nonzero;stroke:none"
             transform="matrix(0.13333333,0,0,-0.13333333,-38.666667,777.33333)"
             clip-path="url(#clipPath18)"
             id="path53" />
          <path
             d="m 4006.39,5336.57 h 460.98 v 460.55 h -460.98 z"
             style="fill:none;stroke:#000000;stroke-width:46.6387;stroke-linecap:butt;stroke-linejoin:round;stroke-miterlimit:10;stroke-dasharray:none;stroke-opacity:1"
             transform="matrix(0.13333333,0,0,-0.13333333,-38.666667,777.33333)"
             clip-path="url(#clipPath19)"
             id="path54" />
          <path
             d="m 4006.39,5336.57 h 460.98 v 460.55 h -460.98 v -460.55"
             style="fill:#ff0000;fill-opacity:1;fill-rule:nonzero;stroke:none"
             transform="matrix(0.13333333,0,0,-0.13333333,-38.666667,777.33333)"
             clip-path="url(#clipPath20)"
             id="path55" />
          <path
             d="m 4006.39,5336.57 h 460.98 v 460.55 h -460.98 z"
             style="fill:none;stroke:#000000;stroke-width:46.6387;stroke-linecap:butt;stroke-linejoin:round;stroke-miterlimit:10;stroke-dasharray:none;stroke-opacity:1"
             transform="matrix(0.13333333,0,0,-0.13333333,-38.666667,777.33333)"
             clip-path="url(#clipPath21)"
             id="path56" />
          <path
             d="M 4006.39,3724.68 H 5619.84 V 5336.57 H 4006.39 V 3724.68"
             style="fill:#000000;fill-opacity:1;fill-rule:nonzero;stroke:none"
             transform="matrix(0.13333333,0,0,-0.13333333,-38.666667,777.33333)"
             clip-path="url(#clipPath22)"
             id="path57" />
          <path
             d="M 4006.39,3724.68 H 5619.84 V 5336.57 H 4006.39 Z"
             style="fill:none;stroke:#000000;stroke-width:46.6387;stroke-linecap:butt;stroke-linejoin:round;stroke-miterlimit:10;stroke-dasharray:none;stroke-opacity:1"
             transform="matrix(0.13333333,0,0,-0.13333333,-38.666667,777.33333)"
             clip-path="url(#clipPath23)"
             id="path58" />
          <path
             d="M 4006.39,3724.68 H 5619.84 V 5336.57 H 4006.39 V 3724.68"
             style="fill:#c0c0c0;fill-opacity:1;fill-rule:nonzero;stroke:none"
             transform="matrix(0.13333333,0,0,-0.13333333,-38.666667,777.33333)"
             clip-path="url(#clipPath24)"
             id="path59" />
          <path
             d="M 4006.39,3724.68 H 5619.84 V 5336.57 H 4006.39 Z"
             style="fill:none;stroke:#000000;stroke-width:46.6387;stroke-linecap:butt;stroke-linejoin:round;stroke-miterlimit:10;stroke-dasharray:none;stroke-opacity:1"
             transform="matrix(0.13333333,0,0,-0.13333333,-38.666667,777.33333)"
             clip-path="url(#clipPath25)"
             id="path60" />
          <path
             d="M 4006.39,2112.77 H 5619.84 V 3724.68 H 4006.39 V 2112.77"
             style="fill:#000000;fill-opacity:1;fill-rule:nonzero;stroke:none"
             transform="matrix(0.13333333,0,0,-0.13333333,-38.666667,777.33333)"
             clip-path="url(#clipPath26)"
             id="path61" />
          <path
             d="M 4006.39,2112.77 H 5619.84 V 3724.68 H 4006.39 Z"
             style="fill:none;stroke:#000000;stroke-width:46.6387;stroke-linecap:butt;stroke-linejoin:round;stroke-miterlimit:10;stroke-dasharray:none;stroke-opacity:1"
             transform="matrix(0.13333333,0,0,-0.13333333,-38.666667,777.33333)"
             clip-path="url(#clipPath27)"
             id="path62" />
          <path
             d="M 4006.39,2112.77 H 5619.84 V 3724.68 H 4006.39 V 2112.77"
             style="fill:#c0c0c0;fill-opacity:1;fill-rule:nonzero;stroke:none"
             transform="matrix(0.13333333,0,0,-0.13333333,-38.666667,777.33333)"
             clip-path="url(#clipPath28)"
             id="path63" />
          <path
             d="M 4006.39,2112.77 H 5619.84 V 3724.68 H 4006.39 Z"
             style="fill:none;stroke:#000000;stroke-width:46.6387;stroke-linecap:butt;stroke-linejoin:round;stroke-miterlimit:10;stroke-dasharray:none;stroke-opacity:1"
             transform="matrix(0.13333333,0,0,-0.13333333,-38.666667,777.33333)"
             clip-path="url(#clipPath29)"
             id="path64" />
          <path
             d="M 318.496,2112.77 H 4006.39 V 5797.12 H 318.496 V 2112.77"
             style="fill:#000000;fill-opacity:1;fill-rule:nonzero;stroke:none"
             transform="matrix(0.13333333,0,0,-0.13333333,-38.666667,777.33333)"
             clip-path="url(#clipPath30)"
             id="path65" />
          <path
             d="M 318.496,2112.77 H 4006.39 V 5797.12 H 318.496 Z"
             style="fill:none;stroke:#000000;stroke-width:46.6387;stroke-linecap:butt;stroke-linejoin:round;stroke-miterlimit:10;stroke-dasharray:none;stroke-opacity:1"
             transform="matrix(0.13333333,0,0,-0.13333333,-38.666667,777.33333)"
             clip-path="url(#clipPath31)"
             id="path66" />
          <path
             d="M 318.496,2112.77 H 4006.39 V 5797.12 H 318.496 V 2112.77"
             style="fill:#ffff00;fill-opacity:1;fill-rule:nonzero;stroke:none"
             transform="matrix(0.13333333,0,0,-0.13333333,-38.666667,777.33333)"
             clip-path="url(#clipPath32)"
             id="path67" />
          <path
             d="M 318.496,2112.77 H 4006.39 V 5797.12 H 318.496 Z"
             style="fill:none;stroke:#000000;stroke-width:46.6387;stroke-linecap:butt;stroke-linejoin:round;stroke-miterlimit:10;stroke-dasharray:none;stroke-opacity:1"
             transform="matrix(0.13333333,0,0,-0.13333333,-38.666667,777.33333)"
             clip-path="url(#clipPath33)"
             id="path68" />
        </g>
      </g>
    </g>
  </g>
</svg>
