<?xml version="1.0" encoding="UTF-8" standalone="no"?>
<!-- Created with Inkscape (http://www.inkscape.org/) -->

<svg
   version="1.1"
   id="svg1"
   width="710.66669"
   height="442.66666"
   viewBox="0 0 710.66669 442.66666"
   sodipodi:docname="zlaty_obdelnik.svg"
   inkscape:version="1.4.2 (f4327f4, 2025-05-13)"
   xmlns:inkscape="http://www.inkscape.org/namespaces/inkscape"
   xmlns:sodipodi="http://sodipodi.sourceforge.net/DTD/sodipodi-0.dtd"
   xmlns="http://www.w3.org/2000/svg"
   xmlns:svg="http://www.w3.org/2000/svg">
  <defs
     id="defs1">
    <clipPath
       clipPathUnits="userSpaceOnUse"
       id="clipPath1">
      <path
         d="M 0,0 H 612 V 792 H 0 Z"
         transform="matrix(10,0,0,10,-2.5e-6,0)"
         id="path1" />
    </clipPath>
    <clipPath
       clipPathUnits="userSpaceOnUse"
       id="clipPath2">
      <path
         d="M 283.25,2265.96 H 5680.52 V 5644.05 H 283.25 Z"
         transform="translate(-2.5e-6)"
         id="path2" />
    </clipPath>
    <clipPath
       clipPathUnits="userSpaceOnUse"
       id="clipPath3">
      <path
         d="M 283.25,2265.96 H 5680.52 V 5644.05 H 283.25 Z"
         transform="translate(-2.5e-6)"
         id="path3" />
    </clipPath>
    <clipPath
       clipPathUnits="userSpaceOnUse"
       id="clipPath4">
      <path
         d="M 283.25,2265.96 H 5680.52 V 5644.05 H 283.25 Z"
         transform="translate(-2.5e-6)"
         id="path4" />
    </clipPath>
    <clipPath
       clipPathUnits="userSpaceOnUse"
       id="clipPath5">
      <path
         d="M 283.25,2265.96 H 5680.52 V 5644.05 H 283.25 Z"
         transform="translate(-2.5e-6)"
         id="path5" />
    </clipPath>
    <clipPath
       clipPathUnits="userSpaceOnUse"
       id="clipPath6">
      <path
         d="M 283.25,2265.96 H 5680.52 V 5644.05 H 283.25 Z"
         transform="translate(-2.5e-6)"
         id="path6" />
    </clipPath>
    <clipPath
       clipPathUnits="userSpaceOnUse"
       id="clipPath7">
      <path
         d="M 283.25,2265.96 H 5680.52 V 5644.05 H 283.25 Z"
         transform="translate(-2.5e-6)"
         id="path7" />
    </clipPath>
    <clipPath
       clipPathUnits="userSpaceOnUse"
       id="clipPath8">
      <path
         d="M 283.25,2265.96 H 5680.52 V 5644.05 H 283.25 Z"
         transform="translate(-2.5e-6)"
         id="path8" />
    </clipPath>
    <clipPath
       clipPathUnits="userSpaceOnUse"
       id="clipPath9">
      <path
         d="M 283.25,2265.96 H 5680.52 V 5644.05 H 283.25 Z"
         transform="translate(-2.5e-6)"
         id="path9" />
    </clipPath>
    <clipPath
       clipPathUnits="userSpaceOnUse"
       id="clipPath10">
      <path
         d="M 283.25,2265.96 H 5680.52 V 5644.05 H 283.25 Z"
         transform="translate(-2.5e-6)"
         id="path10" />
    </clipPath>
    <clipPath
       clipPathUnits="userSpaceOnUse"
       id="clipPath11">
      <path
         d="M 283.25,2265.96 H 5680.52 V 5644.05 H 283.25 Z"
         transform="translate(-2.5e-6)"
         id="path11" />
    </clipPath>
    <clipPath
       clipPathUnits="userSpaceOnUse"
       id="clipPath12">
      <path
         d="M 283.25,2265.96 H 5680.52 V 5644.05 H 283.25 Z"
         transform="translate(-2.5e-6)"
         id="path12" />
    </clipPath>
    <clipPath
       clipPathUnits="userSpaceOnUse"
       id="clipPath13">
      <path
         d="M 283.25,2265.96 H 5680.52 V 5644.05 H 283.25 Z"
         transform="translate(-2.5e-6)"
         id="path13" />
    </clipPath>
    <clipPath
       clipPathUnits="userSpaceOnUse"
       id="clipPath14">
      <path
         d="M 283.25,2265.96 H 5680.52 V 5644.05 H 283.25 Z"
         transform="translate(-2.5e-6)"
         id="path14" />
    </clipPath>
    <clipPath
       clipPathUnits="userSpaceOnUse"
       id="clipPath15">
      <path
         d="M 283.25,2265.96 H 5680.52 V 5644.05 H 283.25 Z"
         transform="translate(-2.5e-6)"
         id="path15" />
    </clipPath>
    <clipPath
       clipPathUnits="userSpaceOnUse"
       id="clipPath16">
      <path
         d="M 283.25,2265.96 H 5680.52 V 5644.05 H 283.25 Z"
         transform="translate(-2.5e-6)"
         id="path16" />
    </clipPath>
    <clipPath
       clipPathUnits="userSpaceOnUse"
       id="clipPath17">
      <path
         d="M 283.25,2265.96 H 5680.52 V 5644.05 H 283.25 Z"
         transform="translate(-2.5e-6)"
         id="path17" />
    </clipPath>
    <clipPath
       clipPathUnits="userSpaceOnUse"
       id="clipPath18">
      <path
         d="M 0,0 H 612 V 792 H 0 Z"
         transform="matrix(1.3333333,0,0,-1.3333333,-41.333333,748)"
         id="path18" />
    </clipPath>
    <clipPath
       clipPathUnits="userSpaceOnUse"
       id="clipPath19">
      <path
         d="M 0,0 H 533 V 332 H 0 Z"
         transform="matrix(1.3333333,0,0,-1.3333333,0,442.66667)"
         id="path19" />
    </clipPath>
  </defs>
  <sodipodi:namedview
     id="namedview1"
     pagecolor="#ffffff"
     bordercolor="#000000"
     borderopacity="0.25"
     inkscape:showpageshadow="2"
     inkscape:pageopacity="0.0"
     inkscape:pagecheckerboard="0"
     inkscape:deskcolor="#d1d1d1"
     inkscape:zoom="1.1362952"
     inkscape:cx="355.54141"
     inkscape:cy="221.33333"
     inkscape:window-width="1366"
     inkscape:window-height="705"
     inkscape:window-x="-8"
     inkscape:window-y="-8"
     inkscape:window-maximized="1"
     inkscape:current-layer="g1">
    <inkscape:page
       x="0"
       y="0"
       inkscape:label="1"
       id="page1"
       width="710.66669"
       height="442.66666"
       margin="0"
       bleed="0" />
  </sodipodi:namedview>
  <g
     id="g1"
     inkscape:groupmode="layer"
     inkscape:label="1">
    <g
       id="g38">
      <g
         clip-path="url(#clipPath19)"
         id="g37">
        <path
           d="M 200,1943.13 H 5750 V 5966.88 H 200 Z"
           style="fill:#ffffff;fill-opacity:1;fill-rule:nonzero;stroke:none"
           transform="matrix(0.13333333,0,0,-0.13333333,-41.333333,748)"
           clip-path="url(#clipPath1)"
           id="path20" />
        <g
           clip-path="url(#clipPath18)"
           id="g36">
          <path
             d="M 338.75,2321.45 H 5611.14 V 5574.67 H 338.75 V 2321.45"
             style="fill:#000000;fill-opacity:1;fill-rule:nonzero;stroke:none"
             transform="matrix(0.13333333,0,0,-0.13333333,-41.333333,748)"
             clip-path="url(#clipPath2)"
             id="path21" />
          <path
             d="M 338.75,2321.45 H 5611.14 V 5574.67 H 338.75 Z"
             style="fill:none;stroke:#000000;stroke-width:55.5;stroke-linecap:butt;stroke-linejoin:round;stroke-miterlimit:10;stroke-dasharray:none;stroke-opacity:1"
             transform="matrix(0.13333333,0,0,-0.13333333,-41.333333,748)"
             clip-path="url(#clipPath3)"
             id="path22" />
          <path
             d="m 5317.31,5393.38 h 181.6 v 181.29 h -181.6 v -181.29"
             style="fill:#ff00ff;fill-opacity:1;fill-rule:nonzero;stroke:none"
             transform="matrix(0.13333333,0,0,-0.13333333,-41.333333,748)"
             clip-path="url(#clipPath4)"
             id="path23" />
          <path
             d="m 5317.31,5393.38 h 181.6 v 181.29 h -181.6 z"
             style="fill:none;stroke:#000000;stroke-width:55.5;stroke-linecap:butt;stroke-linejoin:round;stroke-miterlimit:10;stroke-dasharray:none;stroke-opacity:1"
             transform="matrix(0.13333333,0,0,-0.13333333,-41.333333,748)"
             clip-path="url(#clipPath5)"
             id="path24" />
          <path
             d="m 5317.31,5100.04 h 293.83 v 293.34 h -293.83 v -293.34"
             style="fill:#00ffff;fill-opacity:1;fill-rule:nonzero;stroke:none"
             transform="matrix(0.13333333,0,0,-0.13333333,-41.333333,748)"
             clip-path="url(#clipPath6)"
             id="path25" />
          <path
             d="m 5317.31,5100.04 h 293.83 v 293.34 h -293.83 z"
             style="fill:none;stroke:#000000;stroke-width:55.5;stroke-linecap:butt;stroke-linejoin:round;stroke-miterlimit:10;stroke-dasharray:none;stroke-opacity:1"
             transform="matrix(0.13333333,0,0,-0.13333333,-41.333333,748)"
             clip-path="url(#clipPath7)"
             id="path26" />
          <path
             d="m 4841.91,5100.04 h 475.4 v 474.63 h -475.4 v -474.63"
             style="fill:#00ff00;fill-opacity:1;fill-rule:nonzero;stroke:none"
             transform="matrix(0.13333333,0,0,-0.13333333,-41.333333,748)"
             clip-path="url(#clipPath8)"
             id="path27" />
          <path
             d="m 4841.91,5100.04 h 475.4 v 474.63 h -475.4 z"
             style="fill:none;stroke:#000000;stroke-width:55.5;stroke-linecap:butt;stroke-linejoin:round;stroke-miterlimit:10;stroke-dasharray:none;stroke-opacity:1"
             transform="matrix(0.13333333,0,0,-0.13333333,-41.333333,748)"
             clip-path="url(#clipPath9)"
             id="path28" />
          <path
             d="m 4841.91,4332.05 h 769.23 v 767.99 h -769.23 v -767.99"
             style="fill:#ff0000;fill-opacity:1;fill-rule:nonzero;stroke:none"
             transform="matrix(0.13333333,0,0,-0.13333333,-41.333333,748)"
             clip-path="url(#clipPath10)"
             id="path29" />
          <path
             d="m 4841.91,4332.05 h 769.23 v 767.99 h -769.23 z"
             style="fill:none;stroke:#000000;stroke-width:55.5;stroke-linecap:butt;stroke-linejoin:round;stroke-miterlimit:10;stroke-dasharray:none;stroke-opacity:1"
             transform="matrix(0.13333333,0,0,-0.13333333,-41.333333,748)"
             clip-path="url(#clipPath11)"
             id="path30" />
          <path
             d="M 3597.27,4332.05 H 4841.91 V 5574.67 H 3597.27 V 4332.05"
             style="fill:#0000ff;fill-opacity:1;fill-rule:nonzero;stroke:none"
             transform="matrix(0.13333333,0,0,-0.13333333,-41.333333,748)"
             clip-path="url(#clipPath12)"
             id="path31" />
          <path
             d="M 3597.27,4332.05 H 4841.91 V 5574.67 H 3597.27 Z"
             style="fill:none;stroke:#000000;stroke-width:55.5;stroke-linecap:butt;stroke-linejoin:round;stroke-miterlimit:10;stroke-dasharray:none;stroke-opacity:1"
             transform="matrix(0.13333333,0,0,-0.13333333,-41.333333,748)"
             clip-path="url(#clipPath13)"
             id="path32" />
          <path
             d="m 3597.27,2321.45 h 2013.87 v 2010.6 H 3597.27 v -2010.6"
             style="fill:#c0c0c0;fill-opacity:1;fill-rule:nonzero;stroke:none"
             transform="matrix(0.13333333,0,0,-0.13333333,-41.333333,748)"
             clip-path="url(#clipPath14)"
             id="path33" />
          <path
             d="m 3597.27,2321.45 h 2013.87 v 2010.6 H 3597.27 Z"
             style="fill:none;stroke:#000000;stroke-width:55.5;stroke-linecap:butt;stroke-linejoin:round;stroke-miterlimit:10;stroke-dasharray:none;stroke-opacity:1"
             transform="matrix(0.13333333,0,0,-0.13333333,-41.333333,748)"
             clip-path="url(#clipPath15)"
             id="path34" />
          <path
             d="M 338.75,2321.45 H 3597.27 V 5574.67 H 338.75 V 2321.45"
             style="fill:#ffff00;fill-opacity:1;fill-rule:nonzero;stroke:none"
             transform="matrix(0.13333333,0,0,-0.13333333,-41.333333,748)"
             clip-path="url(#clipPath16)"
             id="path35" />
          <path
             d="M 338.75,2321.45 H 3597.27 V 5574.67 H 338.75 Z"
             style="fill:none;stroke:#000000;stroke-width:55.5;stroke-linecap:butt;stroke-linejoin:round;stroke-miterlimit:10;stroke-dasharray:none;stroke-opacity:1"
             transform="matrix(0.13333333,0,0,-0.13333333,-41.333333,748)"
             clip-path="url(#clipPath17)"
             id="path36" />
        </g>
      </g>
    </g>
  </g>
</svg>
