<?xml version="1.0" encoding="UTF-8" standalone="no"?>
<!DOCTYPE svg PUBLIC "-//W3C//DTD SVG 1.1//EN" "http://www.w3.org/Graphics/SVG/1.1/DTD/svg11.dtd">
<svg xmlns="http://www.w3.org/2000/svg" xmlns:xlink="http://www.w3.org/1999/xlink" version="1.1" width="1415.9583pt" height="1578.811pt" viewBox="0 0 1415.9583 1578.811">
<g enable-background="new">
<path transform="matrix(2.7777777,0,0,-2.7777777,37.452775,1555.7556)" stroke-width=".19925" stroke-linecap="round" stroke-linejoin="round" fill="none" stroke="#929292" d="M 56.69365 4.96094 L 56.69365 9.21321 M 85.04047 4.96094 L 85.04047 9.21321 M 113.3873 4.96094 L 113.3873 9.21321 M 141.73412 4.96094 L 141.73412 9.21321 M 170.08095 4.96094 L 170.08095 9.21321 M 198.42777 4.96094 L 198.42777 9.21321 M 226.7746 4.96094 L 226.7746 9.21321 M 255.12142 4.96094 L 255.12142 9.21321 M 283.46827 4.96094 L 283.46827 9.21321 M 311.81507 4.96094 L 311.81507 9.21321 M 340.1619 4.96094 L 340.1619 9.21321 M 368.5087 4.96094 L 368.5087 9.21321 M 396.85557 4.96094 L 396.85557 9.21321 M 425.20237 4.96094 L 425.20237 9.21321 M 453.5492 4.96094 L 453.5492 9.21321 M 481.896 4.96094 L 481.896 9.21321 "/>
<path transform="matrix(2.7777777,0,0,-2.7777777,37.452775,1555.7556)" stroke-width=".19925" stroke-linecap="round" stroke-linejoin="round" fill="none" stroke="#929292" d="M 26.22084 35.43542 L 30.47278 35.43542 M 26.22084 63.78377 L 30.47278 63.78377 M 26.22084 92.13211 L 30.47278 92.13211 M 26.22084 120.48045 L 30.47278 120.48045 M 26.22084 148.82881 L 30.47278 148.82881 M 26.22084 177.17716 L 30.47278 177.17716 M 26.22084 205.5255 L 30.47278 205.5255 M 26.22084 233.87384 L 30.47278 233.87384 M 26.22084 262.22218 L 30.47278 262.22218 M 26.22084 290.57054 L 30.47278 290.57054 M 26.22084 318.91889 L 30.47278 318.91889 M 26.22084 347.26725 L 30.47278 347.26725 M 26.22084 375.61558 L 30.47278 375.61558 M 26.22084 403.9639 L 30.47278 403.9639 M 26.22084 432.31227 L 30.47278 432.31227 M 26.22084 460.6606 L 30.47278 460.6606 M 26.22084 489.00895 L 30.47278 489.00895 M 26.22084 517.3573 L 30.47278 517.3573 M 26.22084 545.7056 L 30.47278 545.7056 "/>
<path transform="matrix(2.7777777,0,0,-2.7777777,37.452775,1555.7556)" stroke-width=".3985" stroke-linecap="round" stroke-linejoin="round" fill="none" stroke="#000000" d="M 0 7.08708 L 494.0769 7.08708 "/>
<path transform="matrix(2.7777777,0,0,-2.7777777,1409.8886,1536.0692)" d="M 1.99252 0 L -1.19551 1.59401 L 0 0 L -1.19551 -1.59401 "/>
<path transform="matrix(2.7777777,0,0,-2.7777777,37.452775,1555.7556)" stroke-width=".3985" stroke-linecap="round" stroke-linejoin="round" fill="none" stroke="#000000" d="M 28.34682 0 L 28.34682 557.88729 "/>
<path transform="matrix(0,-2.7777777,-2.7777777,-0,116.19394,6.0687596)" d="M 1.99252 0 L -1.19551 1.59401 L 0 0 L -1.19551 -1.59401 "/>
<symbol id="font_0_2">
<path d="M .205 .64000007 C .205 .66400006 .205 .666 .18200003 .666 C .120000008 .60200008 .032000007 .60200008 0 .60200008 L 0 .57100006 C .020000004 .57100006 .07900001 .57100006 .13100001 .597 L .13100001 .079 C .13100001 .043 .128 .031000002 .038000004 .031000002 L .0060000049 .031000002 L .0060000049 0 C .04100001 .003 .128 .003 .168 .003 C .20800002 .003 .29500003 .003 .33000005 0 L .33000005 .031000002 L .29800005 .031000002 C .20800002 .031000002 .205 .042000005 .205 .079 L .205 .64000007 Z "/>
</symbol>
<use xlink:href="#font_0_2" transform="matrix(27.673888,0,0,-27.673888,190.47686,1569.586)"/>
<symbol id="font_0_3">
<path d="M .07700001 .07700001 L .18300002 .18 C .33900003 .31800003 .39900003 .372 .39900003 .47200004 C .39900003 .586 .30900003 .666 .18700002 .666 C .074 .666 0 .574 0 .485 C 0 .42900003 .05 .42900003 .053000008 .42900003 C .07000001 .42900003 .105000007 .441 .105000007 .48200003 C .105000007 .508 .08700001 .53400006 .052000006 .53400006 C .044000005 .53400006 .042000008 .53400006 .039 .53300008 C .062000004 .59800007 .11600001 .63500007 .17400001 .63500007 C .26500003 .63500007 .308 .554 .308 .47200004 C .308 .39200003 .25800003 .31300003 .20300003 .25100003 L .011000004 .037 C 0 .026 0 .024 0 0 L .37100003 0 L .39900003 .17400001 L .374 .17400001 C .36900003 .14400001 .36200003 .1 .352 .085 C .345 .07700001 .279 .07700001 .257 .07700001 L .07700001 .07700001 Z "/>
</symbol>
<use xlink:href="#font_0_3" transform="matrix(27.673888,0,0,-27.673888,268.13648,1569.586)"/>
<symbol id="font_0_4">
<path d="M .24800003 .37400005 C .33 .40100003 .388 .47100006 .388 .55 C .388 .632 .3 .688 .204 .688 C .10300001 .688 .027000003 .628 .027000003 .55200007 C .027000003 .519 .049000004 .5 .078 .5 C .109000008 .5 .12900001 .522 .12900001 .55100008 C .12900001 .6010001 .082 .6010001 .067 .6010001 C .098 .65000006 .164 .66300007 .20000002 .66300007 C .24100003 .66300007 .29600004 .64100006 .29600004 .55100008 C .29600004 .53900006 .29400004 .48100005 .268 .43700005 C .238 .38900004 .204 .38600005 .17900002 .38500003 C .171 .38400004 .14700002 .38200004 .14000002 .38200004 C .132 .38100005 .125 .38000003 .125 .37000004 C .125 .35900004 .132 .35900004 .14900002 .35900004 L .19300002 .35900004 C .275 .35900004 .312 .29100005 .312 .193 C .312 .057000005 .24300003 .028 .199 .028 C .15600002 .028 .081 .045 .046000005 .104 C .081 .09900001 .11200001 .12100001 .11200001 .15900001 C .11200001 .19500001 .085 .215 .056 .215 C .031999999 .215 0 .201 0 .157 C 0 .06600001 .093 0 .20200002 0 C .32400004 0 .41500003 .091000009 .41500003 .193 C .41500003 .27500005 .35200004 .35300005 .24800003 .37400005 Z "/>
</symbol>
<use xlink:href="#font_0_4" transform="matrix(27.673888,0,0,-27.673888,346.6567,1570.1948)"/>
<symbol id="font_0_5">
<path d="M .266 .165 L .266 .078 C .266 .042000005 .26400004 .031000002 .19000001 .031000002 L .16900002 .031000002 L .16900002 0 C .21000001 .003 .26200003 .003 .30400003 .003 C .34600003 .003 .39900003 .003 .44000004 0 L .44000004 .031000002 L .41900004 .031000002 C .34500004 .031000002 .34300003 .042000005 .34300003 .078 L .34300003 .165 L .44300003 .165 L .44300003 .19600001 L .34300003 .19600001 L .34300003 .651 C .34300003 .671 .34300003 .67700007 .32700003 .67700007 C .31800003 .67700007 .31500004 .67700007 .307 .665 L 0 .19600001 L 0 .165 L .266 .165 M .272 .19600001 L .028 .19600001 L .272 .569 L .272 .19600001 Z "/>
</symbol>
<use xlink:href="#font_0_5" transform="matrix(27.673888,0,0,-27.673888,425.00819,1569.586)"/>
<symbol id="font_0_6">
<path d="M .39900003 .223 C .39900003 .34200005 .317 .44200004 .209 .44200004 C .16100002 .44200004 .118000019 .42600004 .082 .39100004 L .082 .586 C .10200001 .58000007 .135 .573 .16700001 .573 C .29 .573 .36 .66400006 .36 .67700007 C .36 .683 .357 .688 .35 .688 C .349 .688 .347 .688 .342 .68500009 C .322 .67600008 .273 .656 .20600002 .656 C .16600001 .656 .120000008 .66300007 .073 .6840001 C .065 .68700006 .06300001 .68700006 .061000009 .68700006 C .051000004 .68700006 .051000004 .679 .051000004 .66300007 L .051000004 .36700005 C .051000004 .34900005 .051000004 .34100003 .065 .34100003 C .07200001 .34100003 .074 .34400005 .07800001 .35000003 C .08900002 .36600004 .12600002 .42000006 .207 .42000006 C .259 .42000006 .284 .37400005 .292 .35600005 C .308 .31900005 .31 .28000004 .31 .23 C .31 .19500001 .31 .135 .286 .093 C .262 .054000006 .22500001 .028 .17900002 .028 C .106000009 .028 .049000008 .08100001 .032 .14000002 C .035 .13900002 .038000008 .13800001 .049000008 .13800001 C .082 .13800001 .09900001 .163 .09900001 .187 C .09900001 .21100001 .082 .23600002 .049000008 .23600002 C .035 .23600002 0 .22900002 0 .18300002 C 0 .097 .069000009 0 .18100001 0 C .297 0 .39900003 .096 .39900003 .223 Z "/>
</symbol>
<use xlink:href="#font_0_6" transform="matrix(27.673888,0,0,-27.673888,504.35868,1570.1948)"/>
<symbol id="font_0_7">
<path d="M .089999999 .35000003 L .089999999 .37400005 C .089999999 .62700006 .21400002 .66300007 .26500003 .66300007 C .28900004 .66300007 .33100004 .65700009 .35300002 .623 C .33800004 .623 .298 .623 .298 .57800009 C .298 .54700008 .32200004 .53200009 .344 .53200009 C .36 .53200009 .39000003 .54100009 .39000003 .58000007 C .39000003 .64000007 .34600003 .688 .263 .688 C .13499999 .688 0 .559 0 .33800004 C 0 .071 .116000007 0 .20900002 0 C .32000003 0 .41500003 .094000007 .41500003 .22600001 C .41500003 .35300005 .32600004 .44900004 .215 .44900004 C .14700002 .44900004 .11000001 .39800004 .089999999 .35000003 M .20900002 .028 C .146 .028 .116000007 .088 .11000001 .103 C .092 .15 .092 .23 .092 .24800001 C .092 .32600004 .124000009 .42600004 .21400002 .42600004 C .23000002 .42600004 .27600003 .42600004 .307 .36400003 C .32500003 .32700003 .32500003 .27600003 .32500003 .22700002 C .32500003 .179 .32500003 .12900001 .30800004 .093 C .27800004 .033000005 .23200003 .028 .20900002 .028 Z "/>
</symbol>
<use xlink:href="#font_0_7" transform="matrix(27.673888,0,0,-27.673888,582.87619,1570.1948)"/>
<symbol id="font_0_8">
<path d="M .42000003 .63100007 C .42900003 .64300009 .42900003 .64500007 .42900003 .66600009 L .18600002 .66600009 C .064 .66600009 .062000008 .679 .058000007 .6980001 L .033 .6980001 L 0 .49200005 L .024999999 .49200005 C .028000005 .508 .037 .57100006 .050000006 .58300009 C .057000005 .58900007 .13500002 .58900007 .148 .58900007 L .35500003 .58900007 C .344 .573 .26500003 .46400006 .24300003 .43100003 C .153 .29600004 .12000001 .157 .12000001 .055 C .12000001 .045 .12000001 0 .16600001 0 C .21200001 0 .21200001 .045 .21200001 .055 L .21200001 .106000009 C .21200001 .16100002 .21500004 .216 .22300002 .27 C .22700003 .29300005 .24100003 .37900005 .28500004 .44100005 L .42000003 .63100007 Z "/>
</symbol>
<use xlink:href="#font_0_8" transform="matrix(27.673888,0,0,-27.673888,662.0053,1570.1948)"/>
<symbol id="font_0_9">
<path d="M .121 .47900004 C .075 .509 .071 .54300007 .071 .56000009 C .071 .62100008 .136 .66300007 .20700002 .66300007 C .28000004 .66300007 .344 .61100009 .344 .53900006 C .344 .48200003 .305 .43400005 .245 .39900003 L .121 .47900004 M .26700003 .38400004 C .33900003 .42100004 .388 .47300006 .388 .53900006 C .388 .63100007 .29900003 .688 .208 .688 C .108 .688 .027000003 .614 .027000003 .521 C .027000003 .503 .029 .45800004 .071 .41100005 C .082 .39900003 .11900001 .37400005 .144 .35700003 C .086 .32800005 0 .272 0 .17300001 C 0 .067 .102000009 0 .20700002 0 C .32000003 0 .41500003 .083000008 .41500003 .19000001 C .41500003 .22600001 .404 .27100004 .36600004 .31300003 C .34700004 .33400003 .33100004 .34400005 .26700003 .38400004 M .167 .34200005 L .29000003 .26400004 C .31800003 .245 .365 .215 .365 .154 C .365 .080000009 .29000003 .028 .208 .028 C .122 .028 .050000006 .09 .050000006 .17300001 C .050000006 .231 .082 .29500003 .167 .34200005 Z "/>
</symbol>
<use xlink:href="#font_0_9" transform="matrix(27.673888,0,0,-27.673888,740.3567,1570.1948)"/>
<symbol id="font_0_a">
<path d="M .32500003 .34000004 L .32500003 .30800004 C .32500003 .074 .22100002 .028 .16300002 .028 C .146 .028 .092 .030000002 .065000008 .064 C .109000008 .064 .117000009 .093 .117000009 .11000001 C .117000009 .141 .093 .156 .071 .156 C .055 .156 .024999999 .147 .024999999 .108 C .024999999 .041 .079 0 .164 0 C .293 0 .41500003 .136 .41500003 .35100005 C .41500003 .62000009 .3 .688 .21100003 .688 C .15600002 .688 .107 .67 .064 .62500008 C .023000002 .58000007 0 .53800007 0 .46300004 C 0 .33800004 .08800001 .24000001 .20000002 .24000001 C .261 .24000001 .30200003 .28200004 .32500003 .34000004 M .201 .263 C .185 .263 .139 .263 .108 .32600004 C .089999999 .36300005 .089999999 .41300006 .089999999 .46200005 C .089999999 .51600006 .089999999 .563 .11100001 .6 C .13800001 .65000006 .176 .66300007 .21100003 .66300007 C .25700004 .66300007 .29000003 .62900009 .307 .58400008 C .31900005 .55200007 .323 .48900003 .323 .44300006 C .323 .36000005 .28900004 .263 .201 .263 Z "/>
</symbol>
<use xlink:href="#font_0_a" transform="matrix(27.673888,0,0,-27.673888,819.0984,1570.1948)"/>
<symbol id="font_0_1">
<path d="M .421 .34200005 C .421 .42200003 .416 .50200006 .381 .57600006 C .335 .67200008 .25300003 .688 .211 .688 C .15100001 .688 .07800001 .66200008 .037000006 .56900009 C .0050000029 .5 0 .42200003 0 .34200005 C 0 .26700003 .0040000008 .177 .045000007 .101 C .088 .020000002 .161 0 .21000001 0 C .264 0 .34 .021000002 .384 .116000007 C .416 .185 .421 .263 .421 .34200005 M .21000001 .022000002 C .171 .022000002 .112 .047000003 .094 .143 C .083000008 .20300001 .083000008 .29500003 .083000008 .35400004 C .083000008 .41800005 .083000008 .48400004 .091000009 .53800007 C .11 .65700009 .185 .66600009 .21000001 .66600009 C .243 .66600009 .30900003 .64800009 .328 .549 C .338 .49300004 .338 .41700004 .338 .35400004 C .338 .279 .338 .21100001 .32700003 .147 C .312 .052 .255 .022000002 .21000001 .022000002 Z "/>
</symbol>
<use xlink:href="#font_0_2" transform="matrix(27.673888,0,0,-27.673888,892.2185,1569.586)"/>
<use xlink:href="#font_0_1" transform="matrix(27.673888,0,0,-27.673888,904.67178,1570.1948)"/>
<use xlink:href="#font_0_2" transform="matrix(27.673888,0,0,-27.673888,970.96017,1569.586)"/>
<use xlink:href="#font_0_2" transform="matrix(27.673888,0,0,-27.673888,984.79708,1569.586)"/>
<use xlink:href="#font_0_2" transform="matrix(27.673888,0,0,-27.673888,1049.6991,1569.586)"/>
<use xlink:href="#font_0_3" transform="matrix(27.673888,0,0,-27.673888,1062.4567,1569.586)"/>
<use xlink:href="#font_0_2" transform="matrix(27.673888,0,0,-27.673888,1128.4407,1569.586)"/>
<use xlink:href="#font_0_4" transform="matrix(27.673888,0,0,-27.673888,1140.9769,1570.1948)"/>
<use xlink:href="#font_0_2" transform="matrix(27.673888,0,0,-27.673888,1207.1797,1569.586)"/>
<use xlink:href="#font_0_5" transform="matrix(27.673888,0,0,-27.673888,1219.3285,1569.586)"/>
<use xlink:href="#font_0_2" transform="matrix(27.673888,0,0,-27.673888,1285.9214,1569.586)"/>
<use xlink:href="#font_0_6" transform="matrix(27.673888,0,0,-27.673888,1298.679,1570.1948)"/>
<use xlink:href="#font_0_2" transform="matrix(27.673888,0,0,-27.673888,1364.6602,1569.586)"/>
<use xlink:href="#font_0_7" transform="matrix(27.673888,0,0,-27.673888,1377.1964,1570.1948)"/>
<use xlink:href="#font_0_3" transform="matrix(27.673888,0,0,-27.673888,74.21981,1466.2418)"/>
<use xlink:href="#font_0_1" transform="matrix(27.673888,0,0,-27.673888,87.75234,1466.8506)"/>
<use xlink:href="#font_0_5" transform="matrix(27.673888,0,0,-27.673888,73.610988,1387.4972)"/>
<use xlink:href="#font_0_1" transform="matrix(27.673888,0,0,-27.673888,87.75234,1388.106)"/>
<use xlink:href="#font_0_7" transform="matrix(27.673888,0,0,-27.673888,73.99841,1309.3615)"/>
<use xlink:href="#font_0_1" transform="matrix(27.673888,0,0,-27.673888,87.75234,1309.3615)"/>
<use xlink:href="#font_0_9" transform="matrix(27.673888,0,0,-27.673888,73.99841,1230.6173)"/>
<use xlink:href="#font_0_1" transform="matrix(27.673888,0,0,-27.673888,87.75234,1230.6173)"/>
<use xlink:href="#font_0_2" transform="matrix(27.673888,0,0,-27.673888,61.46297,1151.2638)"/>
<use xlink:href="#font_0_1" transform="matrix(27.673888,0,0,-27.673888,73.91623,1151.8726)"/>
<use xlink:href="#font_0_1" transform="matrix(27.673888,0,0,-27.673888,87.753177,1151.8726)"/>
<use xlink:href="#font_0_2" transform="matrix(27.673888,0,0,-27.673888,61.46297,1072.5194)"/>
<use xlink:href="#font_0_3" transform="matrix(27.673888,0,0,-27.673888,74.22064,1072.5194)"/>
<use xlink:href="#font_0_1" transform="matrix(27.673888,0,0,-27.673888,87.753177,1073.1282)"/>
<use xlink:href="#font_0_2" transform="matrix(27.673888,0,0,-27.673888,61.46297,993.77517)"/>
<use xlink:href="#font_0_5" transform="matrix(27.673888,0,0,-27.673888,73.61182,993.77517)"/>
<use xlink:href="#font_0_1" transform="matrix(27.673888,0,0,-27.673888,87.753177,994.384)"/>
<use xlink:href="#font_0_2" transform="matrix(27.673888,0,0,-27.673888,61.46297,915.0305)"/>
<use xlink:href="#font_0_7" transform="matrix(27.673888,0,0,-27.673888,73.999248,915.63937)"/>
<use xlink:href="#font_0_1" transform="matrix(27.673888,0,0,-27.673888,87.753177,915.63937)"/>
<use xlink:href="#font_0_2" transform="matrix(27.673888,0,0,-27.673888,61.46297,836.2861)"/>
<use xlink:href="#font_0_9" transform="matrix(27.673888,0,0,-27.673888,73.999248,836.8949)"/>
<use xlink:href="#font_0_1" transform="matrix(27.673888,0,0,-27.673888,87.753177,836.8949)"/>
<use xlink:href="#font_0_3" transform="matrix(27.673888,0,0,-27.673888,60.38369,757.5418)"/>
<use xlink:href="#font_0_1" transform="matrix(27.673888,0,0,-27.673888,73.91623,758.15066)"/>
<use xlink:href="#font_0_1" transform="matrix(27.673888,0,0,-27.673888,87.753177,758.15066)"/>
<use xlink:href="#font_0_3" transform="matrix(27.673888,0,0,-27.673888,60.38369,678.7974)"/>
<use xlink:href="#font_0_3" transform="matrix(27.673888,0,0,-27.673888,74.22064,678.7974)"/>
<use xlink:href="#font_0_1" transform="matrix(27.673888,0,0,-27.673888,87.753177,679.40628)"/>
<use xlink:href="#font_0_3" transform="matrix(27.673888,0,0,-27.673888,60.38369,600.05276)"/>
<use xlink:href="#font_0_5" transform="matrix(27.673888,0,0,-27.673888,73.61182,600.05276)"/>
<use xlink:href="#font_0_1" transform="matrix(27.673888,0,0,-27.673888,87.753177,600.66159)"/>
<use xlink:href="#font_0_3" transform="matrix(27.673888,0,0,-27.673888,60.38369,521.30838)"/>
<use xlink:href="#font_0_7" transform="matrix(27.673888,0,0,-27.673888,73.999248,521.9172)"/>
<use xlink:href="#font_0_1" transform="matrix(27.673888,0,0,-27.673888,87.753177,521.9172)"/>
<use xlink:href="#font_0_3" transform="matrix(27.673888,0,0,-27.673888,60.38369,442.5641)"/>
<use xlink:href="#font_0_9" transform="matrix(27.673888,0,0,-27.673888,73.999248,443.1729)"/>
<use xlink:href="#font_0_1" transform="matrix(27.673888,0,0,-27.673888,87.753177,443.1729)"/>
<use xlink:href="#font_0_4" transform="matrix(27.673888,0,0,-27.673888,60.1623,364.42854)"/>
<use xlink:href="#font_0_1" transform="matrix(27.673888,0,0,-27.673888,73.91623,364.42854)"/>
<use xlink:href="#font_0_1" transform="matrix(27.673888,0,0,-27.673888,87.753177,364.42854)"/>
<use xlink:href="#font_0_4" transform="matrix(27.673888,0,0,-27.673888,60.1623,285.68659)"/>
<use xlink:href="#font_0_3" transform="matrix(27.673888,0,0,-27.673888,74.22064,285.07777)"/>
<use xlink:href="#font_0_1" transform="matrix(27.673888,0,0,-27.673888,87.753177,285.68659)"/>
<use xlink:href="#font_0_4" transform="matrix(27.673888,0,0,-27.673888,60.1623,206.94232)"/>
<use xlink:href="#font_0_5" transform="matrix(27.673888,0,0,-27.673888,73.61182,206.3335)"/>
<use xlink:href="#font_0_1" transform="matrix(27.673888,0,0,-27.673888,87.753177,206.94232)"/>
<use xlink:href="#font_0_4" transform="matrix(27.673888,0,0,-27.673888,60.1623,128.1977)"/>
<use xlink:href="#font_0_7" transform="matrix(27.673888,0,0,-27.673888,73.999248,128.1977)"/>
<use xlink:href="#font_0_1" transform="matrix(27.673888,0,0,-27.673888,87.753177,128.1977)"/>
<use xlink:href="#font_0_4" transform="matrix(27.673888,0,0,-27.673888,60.1623,49.45343)"/>
<use xlink:href="#font_0_9" transform="matrix(27.673888,0,0,-27.673888,73.999248,49.45343)"/>
<use xlink:href="#font_0_1" transform="matrix(27.673888,0,0,-27.673888,87.753177,49.45343)"/>
<clipPath id="cp1">
<path transform="matrix(2.7777777,0,0,-2.7777777,37.452775,1555.7556)" d="M 0 0 L 496.06944 0 L 496.06944 559.8798 L 0 559.8798 Z "/>
</clipPath>
<g clip-path="url(#cp1)">
<clipPath id="cp2">
<path transform="matrix(2.7777777,0,0,-2.7777777,37.452775,1555.7556)" d="M 0 0 L 0 559.8798 L 552.76309 559.8798 L 552.76309 0 Z M 552.76309 559.8798 "/>
</clipPath>
<g clip-path="url(#cp2)">
<path transform="matrix(2.7777777,0,0,-2.7777777,37.452775,1555.7556)" stroke-width="1.19553" stroke-linecap="round" stroke-linejoin="round" fill="none" stroke="#1565c0" d="M 28.34682 9.92192 C 28.34682 9.92192 30.0139 9.97931 30.65424 10.0018 C 31.29457 10.02428 32.32158 10.06084 32.96196 10.08397 C 33.60234 10.10709 34.62933 10.14476 35.26968 10.16853 C 35.91002 10.1923 36.93675 10.231 37.57709 10.25543 C 38.21744 10.27986 39.24448 10.31958 39.88481 10.34471 C 40.52515 10.36984 41.5519 10.41075 42.19223 10.43658 C 42.83257 10.46243 43.85957 10.50444 44.49995 10.531 C 45.14034 10.55759 46.16734 10.60088 46.80768 10.62822 C 47.44801 10.65555 48.4748 10.69994 49.11514 10.72803 C 49.75548 10.75612 50.78247 10.80183 51.4228 10.83072 C 52.06316 10.8596 53.08994 10.90657 53.73027 10.93628 C 54.3706 10.96599 55.39766 11.0143 56.038 11.04483 C 56.67833 11.07538 57.70508 11.12509 58.34541 11.15648 C 58.98575 11.18787 60.0128 11.2389 60.65314 11.2712 C 61.29347 11.30348 62.32022 11.35602 62.96056 11.38922 C 63.60089 11.42242 64.62788 11.47646 65.26828 11.51057 C 65.90866 11.54471 66.93565 11.60017 67.57599 11.63528 C 68.21634 11.67038 69.24312 11.72754 69.8834 11.76361 C 70.5237 11.7997 71.55049 11.85828 72.19083 11.89537 C 72.83116 11.93246 73.85817 11.99283 74.49855 12.03099 C 75.13893 12.06915 76.16594 12.13121 76.80627 12.17046 C 77.44661 12.20969 78.47334 12.27347 79.1137 12.3138 C 79.75403 12.35413 80.78102 12.41975 81.4214 12.46123 C 82.0618 12.50269 83.08879 12.57011 83.72913 12.61273 C 84.36946 12.65536 85.39621 12.72466 86.03654 12.7685 C 86.67688 12.81235 87.70393 12.88367 88.34427 12.92874 C 88.9846 12.97382 90.0114 13.04707 90.65173 13.09343 C 91.29207 13.13977 92.31906 13.21523 92.95941 13.26288 C 93.59975 13.31055 94.62653 13.38799 95.26688 13.437 C 95.90721 13.48601 96.93425 13.5658 97.57458 13.6162 C 98.21492 13.66658 99.24167 13.74841 99.882 13.80022 C 100.52234 13.852 101.54935 13.93628 102.18973 13.98956 C 102.83011 14.04285 103.85712 14.1295 104.49745 14.18428 C 105.13779 14.23904 106.16455 14.32808 106.80489 14.38438 C 107.44522 14.44067 108.47226 14.53215 109.11261 14.59006 C 109.75294 14.64796 110.77968 14.7422 111.42001 14.80176 C 112.06036 14.86133 113.0874 14.95818 113.72774 15.01938 C 114.36807 15.08058 115.39482 15.18004 116.03516 15.24297 C 116.67549 15.30591 117.7025 15.40831 118.34288 15.47304 C 118.98326 15.53777 120.01027 15.64299 120.6506 15.70952 C 121.29094 15.77605 122.31767 15.88411 122.95802 15.95253 C 123.59836 16.02094 124.6254 16.13226 125.26573 16.20262 C 125.90608 16.273 126.93282 16.38742 127.57315 16.45976 C 128.21349 16.53212 129.24054 16.64972 129.88088 16.72408 C 130.52121 16.79842 131.548 16.91928 132.18834 16.99573 C 132.82868 17.07217 133.85565 17.1965 134.49602 17.27515 C 135.13639 17.35378 136.16339 17.4817 136.80374 17.56258 C 137.44408 17.64345 138.47086 17.7749 139.1112 17.85803 C 139.75154 17.94115 140.77854 18.0763 141.41887 18.16176 C 142.05922 18.24724 143.086 18.38625 143.72634 18.4741 C 144.36667 18.56195 145.39369 18.70465 146.03406 18.79498 C 146.67443 18.88533 147.7014 19.03232 148.34174 19.12529 C 148.98207 19.21828 150.00891 19.36955 150.6492 19.46509 C 151.28949 19.56064 152.31627 19.71579 152.95662 19.81398 C 153.59696 19.91217 154.62395 20.07181 155.26433 20.17279 C 155.90473 20.27377 156.93172 20.43799 157.57205 20.54185 C 158.21239 20.6457 159.23914 20.81467 159.87947 20.92143 C 160.5198 21.02818 161.54686 21.20158 162.1872 21.31134 C 162.82753 21.4211 163.85428 21.5996 164.49462 21.7125 C 165.13495 21.82538 166.16199 22.00894 166.80234 22.12503 C 167.44268 22.2411 168.46942 22.42989 169.10977 22.5492 C 169.7501 22.6685 170.7771 22.86224 171.41748 22.98495 C 172.05786 23.10767 173.08487 23.30751 173.7252 23.43369 C 174.36554 23.55986 175.39229 23.76471 176.03263 23.89441 C 176.67296 24.02412 177.70001 24.2352 178.34035 24.36859 C 178.98069 24.502 180.00748 24.7188 180.64781 24.85594 C 181.28815 24.99309 182.31514 25.21616 182.95549 25.35712 C 183.59583 25.4981 184.6226 25.72704 185.26294 25.87198 C 185.90329 26.01694 186.9303 26.25273 187.57067 26.40184 C 188.21103 26.55096 189.238 26.79344 189.87834 26.94673 C 190.51868 27.1 191.54552 27.34909 192.1858 27.50668 C 192.8261 27.66426 193.85289 27.92047 194.49323 28.0825 C 195.13356 28.24452 196.16056 28.50784 196.80095 28.67447 C 197.44133 28.8411 198.46833 29.11221 199.10866 29.28355 C 199.74901 29.4549 200.77574 29.73332 201.41608 29.90945 C 202.05641 30.08559 203.08347 30.37187 203.7238 30.553 C 204.36414 30.7341 205.39089 31.0286 206.03122 31.21483 C 206.67156 31.40105 207.69857 31.70377 208.33895 31.89525 C 208.97933 32.08673 210.00632 32.3981 210.64667 32.595 C 211.287 32.79189 212.31374 33.11198 212.95409 33.31436 C 213.59442 33.51675 214.62146 33.84554 215.2618 34.05368 C 215.90215 34.26183 216.92888 34.60045 217.56922 34.81458 C 218.20955 35.0287 219.2366 35.3769 219.87694 35.59702 C 220.51728 35.81712 221.54407 36.17471 222.1844 36.40097 C 222.82474 36.62724 223.85172 36.99525 224.49208 37.22786 C 225.13245 37.46046 226.15946 37.83832 226.7998 38.0775 C 227.44014 38.31667 228.46692 38.70581 229.10726 38.95175 C 229.7476 39.1977 230.7746 39.59727 231.41493 39.8501 C 232.05527 40.10292 233.0821 40.51402 233.7224 40.77396 C 234.36269 41.0339 235.38948 41.4563 236.02982 41.72365 C 236.67015 41.99098 237.69716 42.42587 238.33754 42.7008 C 238.97792 42.97572 240.00492 43.42265 240.64527 43.70522 C 241.2856 43.98776 242.31235 44.44681 242.9527 44.73735 C 243.59304 45.0279 244.62003 45.50044 245.2604 45.79929 C 245.90079 46.09813 246.9278 46.58414 247.56813 46.89128 C 248.20847 47.19843 249.23522 47.69714 249.87555 48.01302 C 250.51589 48.32887 251.54294 48.84302 252.18328 49.16791 C 252.82361 49.49278 253.85036 50.02074 254.49069 50.35458 C 255.13103 50.68843 256.15809 51.2308 256.79844 51.5741 C 257.43876 51.91739 258.46549 52.47577 259.10585 52.82884 C 259.74617 53.18193 260.77317 53.75601 261.41355 54.11896 C 262.05393 54.4819 263.08094 55.07166 263.72129 55.4448 C 264.3616 55.81795 265.38835 56.42462 266.0287 56.80835 C 266.669 57.19208 267.69609 57.81573 268.3364 58.21046 C 268.97676 58.6052 270.0035 59.24762 270.6439 59.65341 C 271.2842 60.05919 272.3112 60.71803 272.95155 61.1352 C 273.5919 61.55235 274.61869 62.23122 275.259 62.66005 C 275.89936 63.08888 276.9264 63.78514 277.56675 64.22601 C 278.20707 64.66689 279.2338 65.38402 279.87416 65.8376 C 280.51448 66.29118 281.5415 67.02884 282.1819 67.49513 C 282.82225 67.96143 283.84925 68.719 284.4896 69.1983 C 285.12995 69.67761 286.15666 70.45683 286.797 70.94966 C 287.43736 71.44249 288.4644 72.24345 289.1047 72.75032 C 289.74507 73.25719 290.7718 74.08174 291.41215 74.60289 C 292.05247 75.12405 293.07954 75.97073 293.71986 76.50652 C 294.3602 77.0423 295.38697 77.91359 296.02729 78.46451 C 296.66764 79.01543 297.69465 79.91095 298.335 80.47726 C 298.9754 81.04356 300.00239 81.96361 300.64274 82.54611 C 301.28309 83.12862 302.3098 84.07681 302.95014 84.67564 C 303.59049 85.27449 304.61753 86.2465 305.25788 86.86217 C 305.8982 87.47783 306.92494 88.47987 307.56529 89.113 C 308.2056 89.74614 309.2326 90.77472 309.873 91.42538 C 310.51338 92.07607 311.54039 93.13318 312.18074 93.80266 C 312.82106 94.47214 313.84785 95.56229 314.48817 96.25058 C 315.12846 96.93886 316.15528 98.056 316.79563 98.76335 C 317.43595 99.4707 318.46296 100.62105 319.10334 101.34874 C 319.74369 102.07643 320.7707 103.25975 321.411 104.00809 C 322.05137 104.75641 323.07814 105.97319 323.71849 106.74226 C 324.3588 107.51134 325.38587 108.7606 326.0262 109.55106 C 326.66654 110.34152 327.69328 111.62628 328.33363 112.43944 C 328.97395 113.2526 330.00099 114.5754 330.64134 115.41179 C 331.28169 116.24818 332.3084 117.60818 332.94877 118.4677 C 333.5891 119.32722 334.6161 120.7228 335.25648 121.60672 C 335.89686 122.49063 336.92387 123.92953 337.5642 124.83842 C 338.20454 125.74731 339.2313 127.22314 339.8716 128.15746 C 340.51197 129.09177 341.539 130.61119 342.17936 131.57233 C 342.81968 132.53345 343.8464 134.0967 344.48677 135.08469 C 345.12709 136.07268 346.15415 137.67763 346.79447 138.69315 C 347.4348 139.70867 348.46156 141.35973 349.10188 142.40392 C 349.74223 143.4481 350.76924 145.14517 351.4096 146.21907 C 352.05 147.29297 353.077 149.03969 353.71733 150.14386 C 354.35768 151.24805 355.38447 153.04219 356.02476 154.17729 C 356.66505 155.3124 357.6919 157.15712 358.3322 158.3249 C 358.97257 159.49269 359.99958 161.39334 360.63996 162.59389 C 361.2803 163.79444 362.30729 165.74402 362.9476 166.97769 C 363.58796 168.21137 364.61473 170.21649 365.25508 171.48537 C 365.8954 172.75423 366.92247 174.81819 367.5628 176.12287 C 368.20314 177.42752 369.22987 179.54723 369.8702 180.88852 C 370.51054 182.2298 371.53755 184.4108 372.17793 185.78992 C 372.8183 187.16905 373.8453 189.41005 374.48567 190.8283 C 375.12599 192.24655 376.15275 194.55329 376.79307 196.01178 C 377.4334 197.47028 378.46046 199.84087 379.10078 201.34015 C 379.74113 202.83943 380.76789 205.27594 381.4082 206.81758 C 382.04856 208.35924 383.0756 210.86626 383.71595 212.45128 C 384.35627 214.03629 385.38304 216.61177 386.02336 218.24141 C 386.6637 219.87104 387.6907 222.52045 388.3311 224.19657 C 388.97148 225.8727 389.99848 228.5988 390.6388 230.32176 C 391.27915 232.04473 392.30589 234.84288 392.9462 236.61455 C 393.58656 238.38622 394.6136 241.26927 395.25395 243.09073 C 395.89427 244.91219 396.92103 247.8698 397.56138 249.7424 C 398.2017 251.61499 399.22874 254.66147 399.86909 256.5871 C 400.5094 258.51277 401.53623 261.64134 402.17655 263.62117 C 402.8169 265.60099 403.84388 268.8202 404.48423 270.85627 C 405.12458 272.8923 406.15135 276.2022 406.79167 278.2957 C 407.432 280.38917 408.459 283.7908 409.0994 285.94465 C 409.73979 288.09846 410.76679 291.6055 411.40715 293.81907 C 412.04747 296.03263 413.0742 299.62345 413.71455 301.89845 C 414.35487 304.17347 415.38194 307.87544 416.02226 310.21574 C 416.6626 312.55604 417.68934 316.3605 418.32969 318.76576 C 418.97004 321.171 419.99708 325.07783 420.6374 327.55107 C 421.27775 330.0243 422.30448 334.0483 422.94483 336.59117 C 423.58515 339.13404 424.61216 343.26423 425.25254 345.87828 C 425.8929 348.4923 426.91993 352.7426 427.56028 355.43138 C 428.2006 358.12016 429.22734 362.49308 429.86769 365.25703 C 430.508 368.02098 431.535 372.50996 432.1754 375.35215 C 432.81578 378.19429 433.84278 382.81864 434.48313 385.7414 C 435.12348 388.66416 436.15025 393.4128 436.79054 396.41743 C 437.43083 399.42207 438.4576 404.3063 439.09797 407.3967 C 439.73829 410.4871 440.7653 415.51359 441.40568 418.6909 C 442.04606 421.8682 443.07307 427.03034 443.7134 430.2965 C 444.35374 433.5627 445.3805 438.8735 446.0208 442.23133 C 446.66117 445.58915 447.6882 451.0448 448.32856 454.49748 C 448.96888 457.95014 449.99565 463.56434 450.636 467.1157 C 451.27635 470.6671 452.30339 476.44258 452.9437 480.0934 C 453.58406 483.74427 454.6108 489.67454 455.25114 493.4284 C 455.89146 497.1823 456.91853 503.28993 457.55885 507.14884 C 458.1992 511.00776 459.22596 517.27297 459.8663 521.2408 C 460.50663 525.20877 461.53364 531.66519 462.174 535.74679 C 462.8144 539.82839 463.84138 546.46279 464.48173 550.658 C 465.12208 554.8533 466.1488 561.6688 466.78916 565.9833 C 467.42948 570.29769 468.45655 577.3192 469.09687 581.75357 C 469.7372 586.1879 470.76396 593.3836 471.40428 597.94308 C 472.04463 602.5025 473.07164 609.9244 473.712 614.6148 C 474.3524 619.3053 475.3794 626.928 476.01976 631.7486 C 476.66007 636.5692 477.68684 644.4019 478.32716 649.3586 C 478.96745 654.3153 479.99424 662.377 480.63456 667.47299 C 481.2749 672.5689 482.3019 680.84579 482.9423 686.08657 C 483.58268 691.3273 484.60966 699.8545 485.25 705.2447 C 485.89036 710.6349 487.55744 724.9353 487.55744 724.9353 "/>
<path transform="matrix(2.7777777,0,0,-2.7777777,37.452775,1555.7556)" stroke-width="1.19553" stroke-linecap="round" stroke-linejoin="round" fill="none" stroke="#c75000" d="M 28.34682 9.92192 C 28.34682 9.92192 30.0139 9.97621 30.65424 9.99747 C 31.29457 10.01872 32.32158 10.05328 32.96196 10.07512 C 33.60234 10.09695 34.62933 10.13246 35.26968 10.15486 C 35.91002 10.17728 36.93675 10.21368 37.57709 10.23668 C 38.21744 10.25969 39.24448 10.29709 39.88481 10.3207 C 40.52515 10.3443 41.5519 10.38268 42.19223 10.40694 C 42.83257 10.4312 43.85957 10.47069 44.49995 10.4956 C 45.14034 10.52052 46.16734 10.56096 46.80768 10.58652 C 47.44801 10.61206 48.4748 10.65364 49.11514 10.67989 C 49.75548 10.70612 50.78247 10.74876 51.4228 10.7757 C 52.06316 10.80264 53.08994 10.84644 53.73027 10.8741 C 54.3706 10.90178 55.39766 10.9468 56.038 10.9752 C 56.67833 11.0036 57.70508 11.04971 58.34541 11.07887 C 58.98575 11.10803 60.0128 11.15547 60.65314 11.18541 C 61.29347 11.21535 62.32022 11.26396 62.96056 11.29468 C 63.60089 11.32541 64.62788 11.3754 65.26828 11.40695 C 65.90866 11.4385 66.93565 11.48978 67.57599 11.52217 C 68.21634 11.55457 69.24312 11.60724 69.8834 11.64052 C 70.5237 11.67378 71.55049 11.72787 72.19083 11.76202 C 72.83116 11.79616 73.85817 11.8516 74.49855 11.88666 C 75.13893 11.92174 76.16594 11.97882 76.80627 12.01482 C 77.44661 12.05081 78.47334 12.10925 79.1137 12.14622 C 79.75403 12.1832 80.78102 12.24335 81.4214 12.2813 C 82.0618 12.31923 83.08879 12.38078 83.72913 12.41974 C 84.36946 12.45868 85.39621 12.52211 86.03654 12.5621 C 86.67688 12.6021 87.70393 12.66698 88.34427 12.70804 C 88.9846 12.7491 90.0114 12.81596 90.65173 12.85812 C 91.29207 12.9003 92.31906 12.9688 92.95941 13.01208 C 93.59975 13.05536 94.62653 13.12569 95.26688 13.17014 C 95.90721 13.21458 96.93425 13.2869 97.57458 13.33252 C 98.21492 13.37814 99.24167 13.45216 99.882 13.49901 C 100.52234 13.54587 101.54935 13.62215 102.18973 13.67024 C 102.83011 13.71835 103.85712 13.79636 104.49745 13.84572 C 105.13779 13.89507 106.16455 13.97533 106.80489 14.02602 C 107.44522 14.07672 108.47226 14.15909 109.11261 14.21114 C 109.75294 14.26318 110.77968 14.34784 111.42001 14.40126 C 112.06036 14.4547 113.0874 14.5414 113.72774 14.59628 C 114.36807 14.65115 115.39482 14.74046 116.03516 14.79683 C 116.67549 14.85318 117.7025 14.94467 118.34288 15.00249 C 118.98326 15.0603 120.01027 15.15417 120.6506 15.21356 C 121.29094 15.27293 122.31767 15.36957 122.95802 15.43053 C 123.59836 15.49149 124.6254 15.59038 125.26573 15.65295 C 125.90608 15.71553 126.93282 15.81737 127.57315 15.8816 C 128.21349 15.94585 129.24054 16.0501 129.88088 16.11604 C 130.52121 16.182 131.548 16.2893 132.18834 16.35706 C 132.82868 16.42482 133.85565 16.53493 134.49602 16.60446 C 135.13639 16.674 136.16339 16.78685 136.80374 16.85825 C 137.44408 16.92963 138.47086 17.04573 139.1112 17.11903 C 139.75154 17.19234 140.77854 17.31136 141.41887 17.38661 C 142.05922 17.46188 143.086 17.5843 143.72634 17.66158 C 144.36667 17.73885 145.39369 17.86426 146.03406 17.94359 C 146.67443 18.0229 147.7014 18.15187 148.34174 18.23329 C 148.98207 18.31471 150.00891 18.44687 150.6492 18.53049 C 151.28949 18.61412 152.31627 18.75021 152.95662 18.83604 C 153.59696 18.92188 154.62395 19.06105 155.26433 19.14919 C 155.90473 19.2373 156.93172 19.3807 157.57205 19.47122 C 158.21239 19.56174 159.23914 19.70868 159.87947 19.80157 C 160.5198 19.89447 161.54686 20.04547 162.1872 20.14087 C 162.82753 20.23625 163.85428 20.39131 164.49462 20.4892 C 165.13495 20.58708 166.16199 20.74585 166.80234 20.84637 C 167.44268 20.9469 168.46942 21.11057 169.10977 21.21384 C 169.7501 21.31711 170.7771 21.48473 171.41748 21.59068 C 172.05786 21.69664 173.08487 21.86885 173.7252 21.97762 C 174.36554 22.08638 175.39229 22.26291 176.03263 22.37463 C 176.67296 22.48634 177.70001 22.66812 178.34035 22.78282 C 178.98069 22.89752 180.00748 23.08366 180.64781 23.20137 C 181.28815 23.31908 182.31514 23.51035 182.95549 23.63121 C 183.59583 23.75208 184.6226 23.94843 185.26294 24.07257 C 185.90329 24.1967 186.9303 24.39847 187.57067 24.52592 C 188.21103 24.65338 189.238 24.86044 189.87834 24.99124 C 190.51868 25.12204 191.54552 25.3344 192.1858 25.4687 C 192.8261 25.60301 193.85289 25.82135 194.49323 25.95926 C 195.13356 26.09717 196.16056 26.32112 196.80095 26.46272 C 197.44133 26.60434 198.46833 26.83453 199.10866 26.97989 C 199.74901 27.12523 200.77574 27.36108 201.41608 27.51035 C 202.05641 27.65959 203.08347 27.9024 203.7238 28.0556 C 204.36414 28.20882 205.39089 28.45732 206.03122 28.61461 C 206.67156 28.77191 207.69857 29.02774 208.33895 29.18932 C 208.97933 29.35088 210.00632 29.6134 210.64667 29.77916 C 211.287 29.94493 212.31374 30.21384 212.95409 30.38405 C 213.59442 30.55426 214.62146 30.83128 215.2618 31.00606 C 215.90215 31.18083 216.92888 31.46439 217.56922 31.64378 C 218.20955 31.82317 219.2366 32.1148 219.87694 32.29903 C 220.51728 32.48325 221.54407 32.7824 222.1844 32.97156 C 222.82474 33.16074 223.85172 33.46823 224.49208 33.66248 C 225.13245 33.85674 226.15946 34.17226 226.7998 34.37158 C 227.44014 34.57092 228.46692 34.89435 229.10726 35.09914 C 229.7476 35.30392 230.7746 35.63733 231.41493 35.84761 C 232.05527 36.05788 233.0821 36.39893 233.7224 36.6147 C 234.36269 36.83047 235.38948 37.18135 236.02982 37.40279 C 236.67015 37.62422 237.69716 37.9834 238.33754 38.21072 C 238.97792 38.43806 240.00492 38.80774 240.64527 39.04134 C 241.2856 39.27493 242.31235 39.65459 242.9527 39.89435 C 243.59304 40.13411 244.62003 40.52338 245.2604 40.76947 C 245.90079 41.01555 246.9278 41.41548 247.56813 41.66806 C 248.20847 41.92065 249.23522 42.33058 249.87555 42.58998 C 250.51589 42.84937 251.54294 43.27129 252.18328 43.53764 C 252.82361 43.80399 253.85036 44.2363 254.49069 44.50974 C 255.13103 44.78317 256.15809 45.22777 256.79844 45.50844 C 257.43876 45.78911 258.46549 46.24452 259.10585 46.53265 C 259.74617 46.8208 260.77317 47.28923 261.41355 47.58524 C 262.05393 47.88126 263.08094 48.36223 263.72129 48.66618 C 264.3616 48.97012 265.38835 49.4641 266.0287 49.776 C 266.669 50.08789 267.69609 50.594 268.3364 50.9142 C 268.97676 51.2344 270.0035 51.75494 270.6439 52.08385 C 271.2842 52.41273 272.3112 52.94708 272.95155 53.28467 C 273.5919 53.62227 274.61869 54.17046 275.259 54.51697 C 275.89936 54.86348 276.9264 55.42651 277.56675 55.78215 C 278.20707 56.13779 279.2338 56.71495 279.87416 57.08023 C 280.51448 57.4455 281.5415 58.03967 282.1819 58.41486 C 282.82225 58.79004 283.84925 59.39929 284.4896 59.7844 C 285.12995 60.16948 286.15666 60.79514 286.797 61.19046 C 287.43736 61.58578 288.4644 62.22783 289.1047 62.63367 C 289.74507 63.03949 290.7718 63.69873 291.41215 64.11545 C 292.05247 64.53217 293.07954 65.20935 293.71986 65.63716 C 294.3602 66.06497 295.38697 66.75974 296.02729 67.19888 C 296.66764 67.63802 297.69465 68.35121 298.335 68.80225 C 298.9754 69.25328 300.00239 69.98648 300.64274 70.44958 C 301.28309 70.91267 302.3098 71.66464 302.95014 72.13998 C 303.59049 72.61531 304.61753 73.38747 305.25788 73.87552 C 305.8982 74.36356 306.92494 75.15648 307.56529 75.65749 C 308.2056 76.1585 309.2326 76.97226 309.873 77.48648 C 310.51338 78.0007 311.54039 78.83556 312.18074 79.36371 C 312.82106 79.89188 313.84785 80.75069 314.48817 81.29312 C 315.12846 81.83556 316.15528 82.71643 316.79563 83.27325 C 317.43595 83.83008 318.46296 84.7348 319.10334 85.30638 C 319.74369 85.87796 320.7707 86.806 321.411 87.39284 C 322.05137 87.97968 323.07814 88.93356 323.71849 89.53596 C 324.3588 90.13838 325.38587 91.11618 326.0262 91.73468 C 326.66654 92.35316 327.69328 93.35875 328.33363 93.99371 C 328.97395 94.6287 330.00099 95.65947 330.64134 96.31122 C 331.28169 96.96295 332.3084 98.02193 332.94877 98.69109 C 333.5891 99.36024 334.6161 100.44685 335.25648 101.13416 C 335.89686 101.82144 336.92387 102.9388 337.5642 103.64465 C 338.20454 104.35051 339.2313 105.49715 339.8716 106.2215 C 340.51197 106.94583 341.539 108.1216 342.17936 108.86526 C 342.81968 109.60893 343.8464 110.81776 344.48677 111.58133 C 345.12709 112.3449 346.15415 113.58447 346.79447 114.36853 C 347.4348 115.15259 348.46156 116.42743 349.10188 117.2323 C 349.74223 118.03717 350.76924 119.3433 351.4096 120.1695 C 352.05 120.99567 353.077 122.33829 353.71733 123.18686 C 354.35768 124.03542 355.38447 125.41428 356.02476 126.28534 C 356.66505 127.15639 357.6919 128.57062 358.3322 129.46489 C 358.97257 130.35916 359.99958 131.81273 360.63996 132.73064 C 361.2803 133.64855 362.30729 135.13802 362.9476 136.08057 C 363.58796 137.02312 364.61473 138.55603 365.25508 139.524 C 365.8954 140.49198 366.92247 142.06339 367.5628 143.05709 C 368.20314 144.05078 369.22987 145.666 369.8702 146.68593 C 370.51054 147.70587 371.53755 149.36116 372.17793 150.40808 C 372.8183 151.45499 373.8453 153.15627 374.48567 154.23145 C 375.12599 155.30664 376.15275 157.05324 376.79307 158.15738 C 377.4334 159.2615 378.46046 161.0562 379.10078 162.18936 C 379.74113 163.32254 380.76789 165.16083 381.4082 166.32457 C 382.04856 167.48831 383.0756 169.38178 383.71595 170.57682 C 384.35627 171.77187 385.38304 173.7111 386.02336 174.93764 C 386.6637 176.16419 387.6907 178.15785 388.3311 179.41695 C 388.97148 180.67606 389.99848 182.72005 390.6388 184.01248 C 391.27915 185.3049 392.30589 187.40439 392.9462 188.73195 C 393.58656 190.05951 394.6136 192.21793 395.25395 193.58065 C 395.89427 194.94338 396.92103 197.15448 397.56138 198.5535 C 398.2017 199.95253 399.22874 202.22739 399.86909 203.66388 C 400.5094 205.10037 401.53623 207.4322 402.17655 208.90686 C 402.8169 210.38152 403.84388 212.77782 404.48423 214.2922 C 405.12458 215.8066 406.15135 218.26665 406.79167 219.82157 C 407.432 221.37647 408.459 223.90265 409.0994 225.49889 C 409.73979 227.09513 410.76679 229.68828 411.40715 231.32617 C 412.04747 232.96407 413.0742 235.6218 413.71455 237.3037 C 414.35487 238.9856 415.38194 241.72077 416.02226 243.44818 C 416.6626 245.1756 417.68934 247.98036 418.32969 249.75373 C 418.97004 251.52709 419.99708 254.4089 420.6374 256.22935 C 421.27775 258.04978 422.30448 261.00517 422.94483 262.87419 C 423.58515 264.7432 424.61216 267.7805 425.25254 269.69993 C 425.8929 271.61936 426.91993 274.73747 427.56028 276.7082 C 428.2006 278.67893 429.22734 281.87947 429.86769 283.90354 C 430.508 285.9276 431.535 289.2189 432.1754 291.29637 C 432.81578 293.37385 433.84278 296.74513 434.48313 298.87657 C 435.12348 301.008 436.15025 304.47026 436.79054 306.65834 C 437.43083 308.84645 438.4576 312.39945 439.09797 314.6469 C 439.73829 316.89436 440.7653 320.54884 441.40568 322.85649 C 442.04606 325.16413 443.07307 328.9099 443.7134 331.27888 C 444.35374 333.64787 445.3805 337.49824 446.0208 339.93055 C 446.66117 342.36286 447.6882 346.3124 448.32856 348.8093 C 448.96888 351.30619 449.99565 355.36308 450.636 357.9264 C 451.27635 360.48973 452.30339 364.65306 452.9437 367.284 C 453.58406 369.91496 454.6108 374.18647 455.25114 376.88859 C 455.89146 379.5907 456.91853 383.9839 457.55885 386.75923 C 458.1992 389.53453 459.22596 394.04264 459.8663 396.89109 C 460.50663 399.73957 461.53364 404.36506 462.174 407.28904 C 462.8144 410.21299 463.84138 414.96318 464.48173 417.96507 C 465.12208 420.96693 466.1488 425.8419 466.78916 428.92445 C 467.42948 432.00697 468.45655 437.0163 469.09687 440.18186 C 469.7372 443.34739 470.76396 448.48976 471.40428 451.73945 C 472.04463 454.9891 473.07164 460.26753 473.712 463.60334 C 474.3524 466.93913 475.3794 472.35697 476.01976 475.78166 C 476.66007 479.20634 477.68684 484.77137 478.32716 488.28614 C 478.96745 491.8009 479.99424 497.50379 480.63456 501.11375 C 481.2749 504.72373 482.3019 510.59678 482.9423 514.30429 C 483.58268 518.0118 484.60966 524.0301 485.25 527.8348 C 485.89036 531.63949 487.55744 541.72567 487.55744 541.72567 "/>
<path transform="matrix(2.7777777,0,0,-2.7777777,37.452775,1555.7556)" stroke-width="1.19553" stroke-linecap="round" stroke-linejoin="round" fill="none" stroke="#000000" d="M 28.34682 9.8462 C 28.34682 9.8462 30.0139 9.90144 30.65424 9.92305 C 31.29457 9.94467 32.32158 9.97978 32.96196 10.00201 C 33.60234 10.02423 34.62933 10.06046 35.26968 10.0833 C 35.91002 10.10614 36.93675 10.14326 37.57709 10.16675 C 38.21744 10.19022 39.24448 10.22841 39.88481 10.25255 C 40.52515 10.27667 41.5519 10.31589 42.19223 10.3407 C 42.83257 10.36551 43.85957 10.40587 44.49995 10.43138 C 45.14034 10.45688 46.16734 10.49832 46.80768 10.52455 C 47.44801 10.55077 48.4748 10.59344 49.11514 10.62038 C 49.75548 10.64732 50.78247 10.69109 51.4228 10.71877 C 52.06316 10.74646 53.08994 10.79152 53.73027 10.81998 C 54.3706 10.84843 55.39766 10.89467 56.038 10.92393 C 56.67833 10.9532 57.70508 11.00084 58.34541 11.03091 C 58.98575 11.06099 60.0128 11.10988 60.65314 11.14076 C 61.29347 11.17165 62.32022 11.22188 62.96056 11.25365 C 63.60089 11.28543 64.62788 11.33717 65.26828 11.36983 C 65.90866 11.40248 66.93565 11.45549 67.57599 11.48904 C 68.21634 11.52258 69.24312 11.57718 69.8834 11.6117 C 70.5237 11.6462 71.55049 11.7023 72.19083 11.73778 C 72.83116 11.77324 73.85817 11.83092 74.49855 11.86737 C 75.13893 11.90382 76.16594 11.96307 76.80627 12.00053 C 77.44661 12.03801 78.47334 12.09897 79.1137 12.13748 C 79.75403 12.17598 80.78102 12.23857 81.4214 12.27815 C 82.0618 12.31775 83.08879 12.38216 83.72913 12.42285 C 84.36946 12.46355 85.39621 12.52966 86.03654 12.57149 C 86.67688 12.6133 87.70393 12.68129 88.34427 12.72427 C 88.9846 12.76727 90.0114 12.83716 90.65173 12.88135 C 91.29207 12.92554 92.31906 12.99739 92.95941 13.04282 C 93.59975 13.08824 94.62653 13.16211 95.26688 13.2088 C 95.90721 13.25548 96.93425 13.3314 97.57458 13.3794 C 98.21492 13.42737 99.24167 13.50537 99.882 13.55467 C 100.52234 13.60397 101.54935 13.68408 102.18973 13.73477 C 102.83011 13.78545 103.85712 13.86787 104.49745 13.91998 C 105.13779 13.9721 106.16455 14.05684 106.80489 14.1104 C 107.44522 14.16396 108.47226 14.25104 109.11261 14.30609 C 109.75294 14.36113 110.77968 14.45058 111.42001 14.50717 C 112.06036 14.56375 113.0874 14.65575 113.72774 14.71391 C 114.36807 14.77208 115.39482 14.86662 116.03516 14.92642 C 116.67549 14.9862 117.7025 15.08345 118.34288 15.14491 C 118.98326 15.20638 120.01027 15.3063 120.6506 15.36945 C 121.29094 15.4326 122.31767 15.5352 122.95802 15.60011 C 123.59836 15.66502 124.6254 15.77066 125.26573 15.8374 C 125.90608 15.90413 126.93282 16.01257 127.57315 16.08116 C 128.21349 16.14975 129.24054 16.26137 129.88088 16.33185 C 130.52121 16.40231 131.548 16.5167 132.18834 16.58916 C 132.82868 16.6616 133.85565 16.77965 134.49602 16.85414 C 135.13639 16.92862 136.16339 17.04955 136.80374 17.1261 C 137.44408 17.20265 138.47086 17.32726 139.1112 17.40596 C 139.75154 17.48465 140.77854 17.61252 141.41887 17.69339 C 142.05922 17.77426 143.086 17.90573 143.72634 17.98889 C 144.36667 18.07204 145.39369 18.20724 146.03406 18.29272 C 146.67443 18.3782 147.7014 18.5172 148.34174 18.60504 C 148.98207 18.69287 150.00891 18.83556 150.6492 18.92581 C 151.28949 19.01607 152.31627 19.16281 152.95662 19.25562 C 153.59696 19.3484 154.62395 19.49924 155.26433 19.59464 C 155.90473 19.69002 156.93172 19.84518 157.57205 19.94322 C 158.21239 20.04126 159.23914 20.20055 159.87947 20.30132 C 160.5198 20.4021 161.54686 20.56604 162.1872 20.66963 C 162.82753 20.77324 163.85428 20.9416 164.49462 21.04808 C 165.13495 21.15454 166.16199 21.32764 166.80234 21.43706 C 167.44268 21.5465 168.46942 21.72429 169.10977 21.83676 C 169.7501 21.94925 170.7771 22.1322 171.41748 22.24782 C 172.05786 22.36342 173.08487 22.55124 173.7252 22.67009 C 174.36554 22.78894 175.39229 22.98225 176.03263 23.10442 C 176.67296 23.22658 177.70001 23.42503 178.34035 23.55058 C 178.98069 23.67612 180.00748 23.88017 180.64781 24.00923 C 181.28815 24.1383 182.31514 24.34814 182.95549 24.4808 C 183.59583 24.61345 184.6226 24.82906 185.26294 24.9654 C 185.90329 25.10175 186.9303 25.32336 187.57067 25.46353 C 188.21103 25.60371 189.238 25.83163 189.87834 25.97571 C 190.51868 26.11977 191.54552 26.35382 192.1858 26.5019 C 192.8261 26.65 193.85289 26.89078 194.49323 27.043 C 195.13356 27.19524 196.16056 27.44269 196.80095 27.59909 C 197.44133 27.7555 198.46833 28.00946 199.10866 28.17021 C 199.74901 28.33098 200.77574 28.59245 201.41608 28.75777 C 202.05641 28.9231 203.08347 29.19193 203.7238 29.36182 C 204.36414 29.53172 205.39089 29.80775 206.03122 29.98235 C 206.67156 30.15695 207.69857 30.4407 208.33895 30.62025 C 208.97933 30.7998 210.00632 31.092 210.64667 31.27646 C 211.287 31.4609 212.31374 31.76022 212.95409 31.94974 C 213.59442 32.13924 214.62146 32.44742 215.2618 32.64232 C 215.90215 32.83722 216.92888 33.15408 217.56922 33.35452 C 218.20955 33.55495 219.2366 33.88095 219.87694 34.08699 C 220.51728 34.29305 221.54407 34.62796 222.1844 34.83965 C 222.82474 35.05133 223.85172 35.39516 224.49208 35.61275 C 225.13245 35.83032 226.15946 36.18434 226.7998 36.40794 C 227.44014 36.63155 228.46692 36.99457 229.10726 37.22438 C 229.7476 37.4542 230.7746 37.828 231.41493 38.06427 C 232.05527 38.30054 233.0821 38.68456 233.7224 38.92734 C 234.36269 39.1701 235.38948 39.56448 236.02982 39.81412 C 236.67015 40.06374 237.69716 40.47006 238.33754 40.72658 C 238.97792 40.9831 240.00492 41.39949 240.64527 41.66302 C 241.2856 41.92654 242.31235 42.35493 242.9527 42.62598 C 243.59304 42.89702 244.62003 43.33772 245.2604 43.61647 C 245.90079 43.89523 246.9278 44.34874 247.56813 44.63516 C 248.20847 44.92159 249.23522 45.38657 249.87555 45.68088 C 250.51589 45.97519 251.54294 46.45393 252.18328 46.7564 C 252.82361 47.05885 253.85036 47.54987 254.49069 47.86087 C 255.13103 48.17188 256.15809 48.67833 256.79844 48.99794 C 257.43876 49.31757 258.46549 49.83607 259.10585 50.16449 C 259.74617 50.49289 260.77317 51.0271 261.41355 51.36499 C 262.05393 51.70287 263.08094 52.25255 263.72129 52.59969 C 264.3616 52.94682 265.38835 53.51031 266.0287 53.86699 C 266.669 54.22365 267.69609 54.8037 268.3364 55.17041 C 268.97676 55.53711 270.0035 56.13315 270.6439 56.51 C 271.2842 56.88683 272.3112 57.49911 272.95155 57.88652 C 273.5919 58.27394 274.61869 58.90396 275.259 59.30222 C 275.89936 59.70045 276.9264 60.34766 277.56675 60.75684 C 278.20707 61.16603 279.2338 61.8307 279.87416 62.25146 C 280.51448 62.67223 281.5415 63.35683 282.1819 63.78946 C 282.82225 64.22209 283.84925 64.92516 284.4896 65.3696 C 285.12995 65.81404 286.15666 66.5359 286.797 66.9928 C 287.43736 67.44969 288.4644 68.19289 289.1047 68.66261 C 289.74507 69.13234 290.7718 69.89555 291.41215 70.3783 C 292.05247 70.86104 293.07954 71.64574 293.71986 72.1419 C 294.3602 72.63809 295.38697 73.44446 296.02729 73.9544 C 296.66764 74.46436 297.69465 75.29329 298.335 75.81738 C 298.9754 76.34148 300.00239 77.1929 300.64274 77.73167 C 301.28309 78.27045 302.3098 79.14684 302.95014 79.70059 C 303.59049 80.25433 304.61753 81.15353 305.25788 81.72276 C 305.8982 82.29198 306.92494 83.21811 307.56529 83.80318 C 308.2056 84.38824 309.2326 85.33807 309.873 85.93956 C 310.51338 86.54105 311.54039 87.52011 312.18074 88.13832 C 312.82106 88.75655 313.84785 89.76004 314.48817 90.39531 C 315.12846 91.03056 316.15528 92.06378 316.79563 92.71684 C 317.43595 93.3699 318.46296 94.43094 319.10334 95.10214 C 319.74369 95.77333 320.7707 96.86455 321.411 97.55443 C 322.05137 98.24431 323.07814 99.36519 323.71849 100.0744 C 324.3588 100.78362 325.38587 101.93695 326.0262 102.66603 C 326.66654 103.39513 327.69328 104.57974 328.33363 105.3292 C 328.97395 106.07866 330.00099 107.2974 330.64134 108.06763 C 331.28169 108.83788 332.3084 110.08916 332.94877 110.88058 C 333.5891 111.672 334.6161 112.95816 335.25648 113.7716 C 335.89686 114.58507 336.92387 115.90718 337.5642 116.74352 C 338.20454 117.57983 339.2313 118.93948 339.8716 119.79926 C 340.51197 120.65904 341.539 122.0565 342.17936 122.94026 C 342.81968 123.82402 343.8464 125.2606 344.48677 126.16873 C 345.12709 127.07687 346.15415 128.55197 346.79447 129.48548 C 347.4348 130.41898 348.46156 131.93752 349.10188 132.89688 C 349.74223 133.85626 350.76924 135.41355 351.4096 136.39994 C 352.05 137.3863 353.077 138.9922 353.71733 140.0061 C 354.35768 141.02002 355.38447 142.66553 356.02476 143.7075 C 356.66505 144.74948 357.6919 146.44472 358.3322 147.51595 C 358.97257 148.58718 359.99958 150.32732 360.63996 151.42816 C 361.2803 152.529 362.30729 154.31871 362.9476 155.45015 C 363.58796 156.58159 364.61473 158.41985 365.25508 159.5828 C 365.8954 160.74575 366.92247 162.63655 367.5628 163.83191 C 368.20314 165.02727 369.22987 166.96929 369.8702 168.19821 C 370.51054 169.42714 371.53755 171.42621 372.17793 172.68927 C 372.8183 173.95233 373.8453 176.00334 374.48567 177.30146 C 375.12599 178.59957 376.15275 180.71103 376.79307 182.04524 C 377.4334 183.37947 378.46046 185.54622 379.10078 186.91762 C 379.74113 188.28902 380.76789 190.51958 381.4082 191.92937 C 382.04856 193.33914 383.0756 195.62926 383.71595 197.07848 C 384.35627 198.5277 385.38304 200.88492 386.02336 202.37439 C 386.6637 203.86385 387.6907 206.28267 388.3311 207.81349 C 388.97148 209.3443 389.99848 211.83394 390.6388 213.4074 C 391.27915 214.98084 392.30589 217.53646 392.9462 219.15386 C 393.58656 220.77126 394.6136 223.40154 395.25395 225.06449 C 395.89427 226.72742 396.92103 229.43042 397.56138 231.13932 C 398.2017 232.84819 399.22874 235.62458 399.86909 237.38101 C 400.5094 239.13745 401.53623 241.9932 402.17655 243.79853 C 402.8169 245.60385 403.84388 248.53719 404.48423 250.39261 C 405.12458 252.24805 406.15135 255.26393 406.79167 257.1713 C 407.432 259.07865 408.459 262.17884 409.0994 264.1395 C 409.73979 266.10017 410.76679 269.2872 411.40715 271.30253 C 412.04747 273.31788 413.0742 276.59254 413.71455 278.66477 C 414.35487 280.737 415.38194 284.1079 416.02226 286.23789 C 416.6626 288.36784 417.68934 291.82746 418.32969 294.01609 C 418.97004 296.20469 419.99708 299.76246 420.6374 302.01194 C 421.27775 304.2614 422.30448 307.91773 422.94483 310.22883 C 423.58515 312.53993 424.61216 316.2927 425.25254 318.66886 C 425.8929 321.04505 426.91993 324.9119 427.56028 327.35475 C 428.2006 329.79759 429.22734 333.76499 429.86769 336.27516 C 430.508 338.78535 431.535 342.86628 432.1754 345.4465 C 432.81578 348.02674 433.84278 352.2191 434.48313 354.8717 C 435.12348 357.5243 436.15025 361.83818 436.79054 364.56465 C 437.43083 367.29115 438.4576 371.72056 439.09797 374.52247 C 439.73829 377.32435 440.7653 381.87858 441.40568 384.7589 C 442.04606 387.63929 443.07307 392.32139 443.7134 395.28215 C 444.35374 398.24287 445.3805 403.0548 446.0208 406.09794 C 446.66117 409.14103 447.6882 414.0874 448.32856 417.21476 C 448.96888 420.34208 449.99565 425.42308 450.636 428.63764 C 451.27635 431.8522 452.30339 437.07774 452.9437 440.383 C 453.58406 443.6883 454.6108 449.06297 455.25114 452.45979 C 455.89146 455.85658 456.91853 461.37355 457.55885 464.8649 C 458.1992 468.3563 459.22596 474.03425 459.8663 477.62324 C 460.50663 481.21223 461.53364 487.04295 462.174 490.73188 C 462.8144 494.4208 463.84138 500.41868 464.48173 504.21058 C 465.12208 508.0025 466.1488 514.1654 466.78916 518.06149 C 467.42948 521.95748 468.45655 528.286 469.09687 532.2904 C 469.7372 536.2948 470.76396 542.8046 471.40428 546.92227 C 472.04463 551.0399 473.07164 557.7354 473.712 561.9675 C 474.3524 566.1997 475.3794 573.07418 476.01976 577.42459 C 476.66007 581.775 477.68684 588.851 478.32716 593.32247 C 478.96745 597.7938 479.99424 605.05557 480.63456 609.65139 C 481.2749 614.2472 482.3019 621.7231 482.9423 626.4459 C 483.58268 631.1688 484.60966 638.83639 485.25 643.6906 C 485.89036 648.54489 487.55744 661.43209 487.55744 661.43209 "/>
<symbol id="font_3_3">
<path d="M .45700003 .586 C .461 .6 .461 .602 .461 .609 C .461 .62700006 .447 .63600006 .432 .63600006 C .42200003 .63600006 .40600003 .63 .397 .615 C .395 .61 .387 .579 .38300003 .561 C .37600003 .535 .36900003 .508 .363 .48100005 L .318 .301 C .314 .286 .271 .21600002 .20500002 .21600002 C .15400002 .21600002 .143 .26000003 .143 .29700003 C .143 .34300003 .16000001 .40500004 .194 .49300004 C .21000001 .53400006 .21400002 .545 .21400002 .56500008 C .21400002 .61 .18200001 .6470001 .13200002 .6470001 C .037 .6470001 0 .50200006 0 .49300004 C 0 .48300005 .01 .48300005 .012 .48300005 C .022000002 .48300005 .023 .485 .028000003 .50100007 C .055000009 .595 .095000009 .625 .12900001 .625 C .13700001 .625 .15400002 .625 .15400002 .59300008 C .15400002 .568 .14400001 .54200008 .13700001 .523 C .097 .41700004 .079 .36 .079 .31300003 C .079 .224 .142 .194 .201 .194 C .24000003 .194 .274 .21100001 .30200003 .23900002 C .289 .187 .277 .13800001 .237 .08500001 C .21100001 .051 .17300001 .022 .127 .022 C .113000009 .022 .068 .025000006 .051000008 .06400001 C .067 .06400001 .080000009 .06400001 .094000007 .076000008 C .104 .08500001 .11400001 .098000008 .11400001 .117000009 C .11400001 .148 .087000008 .15200001 .07700001 .15200001 C .054000006 .15200001 .021 .136 .021 .087000008 C .021 .037 .065000008 0 .127 0 C .23 0 .333 .091000009 .361 .20400001 L .45700003 .586 Z "/>
</symbol>
<use xlink:href="#font_3_3" transform="matrix(27.673888,0,0,-27.673888,180.4692,1075.7788)" fill="#1565c0"/>
<symbol id="font_0_b">
<path d="M .63100007 .19400002 C .646 .19400002 .665 .19400002 .665 .214 C .665 .23400001 .646 .23400001 .632 .23400001 L .033 .23400001 C .019000002 .23400001 0 .23400001 0 .214 C 0 .19400002 .019000002 .19400002 .034 .19400002 L .63100007 .19400002 M .632 0 C .646 0 .665 0 .665 .02000001 C .665 .040000008 .646 .040000008 .63100007 .040000008 L .034 .040000008 C .019000002 .040000008 0 .040000008 0 .02000001 C 0 0 .019000002 0 .033 0 L .632 0 Z "/>
</symbol>
<use xlink:href="#font_0_b" transform="matrix(27.673888,0,0,-27.673888,203.46364,1066.425)" fill="#1565c0"/>
<use xlink:href="#font_0_3" transform="matrix(27.673888,0,0,-27.673888,232.5212,1070.1057)" fill="#1565c0"/>
<symbol id="font_4_1">
<path d="M .106 .05299999 C .106 .082 .08200001 .10599999 .05300001 .10599999 C .024000004 .10599999 0 .082 0 .05299999 C 0 .024000004 .024000004 0 .05300001 0 C .08200001 0 .106 .024000004 .106 .05299999 Z "/>
</symbol>
<use xlink:href="#font_4_1" transform="matrix(27.673888,0,0,-27.673888,253.49106,1064.6539)" fill="#1565c0"/>
<use xlink:href="#font_0_2" transform="matrix(27.673888,0,0,-27.673888,267.413,1070.1057)" fill="#1565c0"/>
<symbol id="font_3_1">
<path d="M .117000009 .194 C .117000009 .26 .092 .29900003 .05300001 .29900003 C .020000004 .29900003 0 .274 0 .246 C 0 .21900001 .020000004 .193 .05300001 .193 C .065000008 .193 .078 .197 .08800001 .206 C .091 .208 .092 .209 .093 .209 C .094000007 .209 .095000009 .208 .095000009 .194 C .095000009 .12 .06000001 .060000004 .027000003 .026999996 C .016000003 .016000003 .016000003 .013999999 .016000003 .0109999929 C .016000003 .003999993 .021000006 0 .026 0 C .037 0 .117000009 .077 .117000009 .194 Z "/>
</symbol>
<use xlink:href="#font_3_1" transform="matrix(27.673888,0,0,-27.673888,281.16609,1075.4468)" fill="#1565c0"/>
<use xlink:href="#font_0_5" transform="matrix(27.673888,0,0,-27.673888,287.2471,1070.1057)" fill="#1565c0"/>
<use xlink:href="#font_0_1" transform="matrix(27.673888,0,0,-27.673888,301.38847,1070.7145)" fill="#1565c0"/>
<use xlink:href="#font_0_8" transform="matrix(27.673888,0,0,-27.673888,315.69587,1070.7145)" fill="#1565c0"/>
<use xlink:href="#font_0_4" transform="matrix(27.673888,0,0,-27.673888,329.14537,1070.7145)" fill="#1565c0"/>
<use xlink:href="#font_0_2" transform="matrix(27.673888,0,0,-27.673888,344.283,1070.1057)" fill="#1565c0"/>
<use xlink:href="#font_0_4" transform="matrix(27.673888,0,0,-27.673888,356.8192,1070.7145)" fill="#1565c0"/>
<symbol id="font_5_2">
<path d="M .201 .116000007 C .19100002 .082 .15800002 .028 .107 .028 C .10400001 .028 .07400001 .028 .053000004 .042000005 C .094000007 .055000005 .09700001 .091 .09700001 .097 C .09700001 .119 .080000009 .134 .057000005 .134 C .029000007 .134 0 .11 0 .073 C 0 .023000002 .056 0 .10500001 0 C .15100003 0 .192 .029000003 .21700001 .071 C .241 .018000002 .296 0 .336 0 C .451 0 .512 .125 .512 .15300001 C .512 .16600001 .49900005 .16600001 .49600003 .16600001 C .48200003 .16600001 .48100005 .16100002 .47700004 .14900002 C .456 .08 .39600004 .028 .34 .028 C .3 .028 .279 .055000005 .279 .093 C .279 .119 .303 .21000001 .331 .321 C .351 .398 .39600004 .423 .42900003 .423 C .43100003 .423 .46200005 .423 .483 .409 C .451 .4 .439 .372 .439 .354 C .439 .33200003 .456 .317 .479 .317 C .50200006 .317 .535 .336 .535 .37800003 C .535 .43400003 .47100006 .451 .43100003 .451 C .381 .451 .34100003 .418 .319 .38 C .301 .421 .255 .451 .199 .451 C .087000008 .451 .023000002 .328 .023000002 .298 C .023000002 .285 .037 .285 .040000008 .285 C .053000004 .285 .054000006 .289 .059000009 .30200003 C .084 .38 .14700002 .423 .19600001 .423 C .229 .423 .256 .405 .256 .357 C .256 .337 .24400002 .287 .23500002 .25300003 L .201 .116000007 Z "/>
</symbol>
<use xlink:href="#font_5_2" transform="matrix(19.371666,0,0,-19.371666,370.4243,1060.255)" fill="#1565c0"/>
<use xlink:href="#font_3_3" transform="matrix(27.673888,0,0,-27.673888,179.51364,1154.5231)" fill="#c75000"/>
<use xlink:href="#font_0_b" transform="matrix(27.673888,0,0,-27.673888,202.50807,1145.1693)" fill="#c75000"/>
<use xlink:href="#font_0_3" transform="matrix(27.673888,0,0,-27.673888,231.56565,1148.85)" fill="#c75000"/>
<use xlink:href="#font_4_1" transform="matrix(27.673888,0,0,-27.673888,252.5355,1143.3982)" fill="#c75000"/>
<use xlink:href="#font_0_2" transform="matrix(27.673888,0,0,-27.673888,266.45744,1148.85)" fill="#c75000"/>
<use xlink:href="#font_3_1" transform="matrix(27.673888,0,0,-27.673888,280.2105,1154.191)" fill="#c75000"/>
<use xlink:href="#font_0_4" transform="matrix(27.673888,0,0,-27.673888,286.67897,1149.4588)" fill="#c75000"/>
<use xlink:href="#font_0_9" transform="matrix(27.673888,0,0,-27.673888,300.5159,1149.4588)" fill="#c75000"/>
<use xlink:href="#font_0_2" transform="matrix(27.673888,0,0,-27.673888,315.65354,1148.85)" fill="#c75000"/>
<use xlink:href="#font_0_a" transform="matrix(27.673888,0,0,-27.673888,328.1898,1149.4588)" fill="#c75000"/>
<use xlink:href="#font_0_2" transform="matrix(27.673888,0,0,-27.673888,343.32743,1148.85)" fill="#c75000"/>
<use xlink:href="#font_5_2" transform="matrix(19.371666,0,0,-19.371666,355.6326,1138.9993)" fill="#c75000"/>
<use xlink:href="#font_3_3" transform="matrix(27.673888,0,0,-27.673888,179.95809,1117.2205)"/>
<use xlink:href="#font_0_b" transform="matrix(27.673888,0,0,-27.673888,202.95253,1107.8667)"/>
<use xlink:href="#font_0_2" transform="matrix(27.673888,0,0,-27.673888,233.08937,1111.5474)"/>
<use xlink:href="#font_3_1" transform="matrix(27.673888,0,0,-27.673888,246.83275,1116.8884)"/>
<use xlink:href="#font_0_a" transform="matrix(27.673888,0,0,-27.673888,253.3012,1112.1561)"/>
<use xlink:href="#font_0_5" transform="matrix(27.673888,0,0,-27.673888,266.7507,1111.5474)"/>
<use xlink:href="#font_0_7" transform="matrix(27.673888,0,0,-27.673888,280.97508,1112.1561)"/>
<use xlink:href="#font_0_7" transform="matrix(27.673888,0,0,-27.673888,294.812,1112.1561)"/>
<use xlink:href="#font_4_1" transform="matrix(27.673888,0,0,-27.673888,316.01606,1106.0956)"/>
<symbol id="font_0_c">
<path d="M .08400001 .263 C .09 .41200004 .17400001 .43700005 .20800002 .43700005 C .31100003 .43700005 .321 .30200003 .321 .263 L .08400001 .263 M .083000008 .24200002 L .36200003 .24200002 C .38400004 .24200002 .38700003 .24200002 .38700003 .263 C .38700003 .36200003 .33300004 .45900003 .20800002 .45900003 C .09200001 .45900003 0 .35600005 0 .23100002 C 0 .097 .105000007 0 .22000002 0 C .342 0 .38700003 .111 .38700003 .13000001 C .38700003 .14000002 .379 .14200002 .374 .14200002 C .365 .14200002 .36300005 .136 .36100004 .128 C .326 .025000003 .236 .025000003 .22600001 .025000003 C .17600002 .025000003 .136 .055000005 .113000009 .092 C .083000008 .14000002 .083000008 .20600002 .083000008 .24200002 Z "/>
</symbol>
<use xlink:href="#font_0_c" transform="matrix(27.673888,0,0,-27.673888,328.24989,1111.8518)"/>
<symbol id="font_6_1">
<path d="M .46400006 .33900003 C .46400006 .44900004 .45100004 .528 .40500004 .598 C .374 .644 .31200005 .684 .23200001 .684 C 0 .684 0 .41100005 0 .33900003 C 0 .26700003 0 0 .23200001 0 C .46400006 0 .46400006 .26700003 .46400006 .33900003 M .23200001 .028 C .186 .028 .125 .055 .105000007 .13700001 C .091000009 .19600001 .091000009 .27800004 .091000009 .35200004 C .091000009 .42500005 .091000009 .50100007 .106000009 .556 C .127 .635 .19100002 .656 .23200001 .656 C .286 .656 .338 .623 .356 .565 C .37200005 .51100006 .37300004 .43900005 .37300004 .35200004 C .37300004 .27800004 .37300004 .20400001 .36 .141 C .34000004 .050000006 .272 .028 .23200001 .028 Z "/>
</symbol>
<use xlink:href="#font_6_1" transform="matrix(19.371666,0,0,-19.371666,340.77958,1101.8932)"/>
<symbol id="font_5_1">
<path d="M .09900001 .209 C .09900001 .154 .089 .089999999 .020999998 .025999994 C .017000005 .022 .013999999 .018999994 .013999999 .013999999 C .013999999 .0069999995 .022 0 .027999998 0 C .04200001 0 .127 .08 .127 .199 C .127 .261 .103 .308 .05700001 .308 C .024000004 .308 0 .282 0 .25100003 C 0 .21900001 .023000002 .193 .058 .193 C .082 .193 .098000008 .209 .09900001 .209 Z "/>
</symbol>
<use xlink:href="#font_5_1" transform="matrix(19.371666,0,0,-19.371666,352.9752,1105.2445)"/>
<symbol id="font_6_2">
<path d="M .219 .35400004 C .29700003 .35400004 .35300002 .3 .35300002 .193 C .35300002 .069000009 .28100003 .032 .223 .032 C .18300002 .032 .095 .043000007 .053000008 .102000009 C .10000001 .10400001 .111 .13700001 .111 .158 C .111 .19 .087 .213 .056000007 .213 C .028 .213 0 .19600001 0 .155 C 0 .061000006 .104 0 .22500001 0 C .36400003 0 .46 .09300001 .46 .193 C .46 .27100004 .39600004 .34900005 .286 .37200005 C .39100004 .41000004 .42900003 .48500005 .42900003 .546 C .42900003 .625 .33800004 .684 .22700002 .684 C .116 .684 .031 .63 .031 .55 C .031 .51600006 .053000008 .49700005 .083000008 .49700005 C .11400001 .49700005 .134 .52 .134 .548 C .134 .577 .11400001 .598 .083000008 .6 C .118 .644 .187 .65500006 .22400002 .65500006 C .26900003 .65500006 .33200003 .633 .33200003 .546 C .33200003 .504 .31800003 .45800004 .29200004 .42700003 C .25900004 .38900004 .23100002 .38700003 .18100001 .38400004 C .156 .38200004 .154 .38200004 .149 .38100005 C .147 .38100005 .139 .37900005 .139 .36800004 C .139 .35400004 .148 .35400004 .165 .35400004 L .219 .35400004 Z "/>
</symbol>
<symbol id="font_6_4">
<path d="M .46500004 .624 C .47500003 .63600006 .47500003 .638 .47500003 .66400006 L .21300003 .66400006 C .17300001 .66400006 .162 .665 .12600002 .668 C .07400001 .672 .072000008 .679 .06900001 .69600006 L .035000005 .69600006 L 0 .48200003 L .034 .48200003 C .036000007 .49700005 .046000005 .563 .062 .573 C .07 .579 .15100003 .579 .16600001 .579 L .38400004 .579 C .35200004 .537 .30100004 .47500003 .28000004 .44700004 C .14900002 .27500005 .13700003 .116000007 .13700003 .057000005 C .13700003 .046000005 .13700003 0 .18400002 0 C .23200003 0 .23200003 .045 .23200003 .058000007 L .23200003 .098000008 C .23200003 .29200004 .272 .38100005 .31500004 .43500004 L .46500004 .624 Z "/>
</symbol>
<symbol id="font_6_3">
<path d="M .096 .34700004 C .096 .42900003 .103 .503 .141 .564 C .17500001 .61800006 .22900002 .65500006 .293 .65500006 C .323 .65500006 .36300005 .647 .38300003 .62 C .35800005 .61800006 .33700005 .601 .33700005 .572 C .33700005 .547 .35400004 .525 .38400004 .525 C .41400004 .525 .43200005 .545 .43200005 .574 C .43200005 .632 .39000006 .684 .29100005 .684 C .147 .684 0 .552 0 .337 C 0 .078 .12200001 0 .23200001 0 C .35400004 0 .46 .09300001 .46 .224 C .46 .35100005 .35900004 .44500003 .242 .44500003 C .162 .44500003 .118 .39200003 .096 .34700004 M .23200001 .032 C .18200001 .032 .143 .061000006 .12200001 .105000007 C .10700001 .135 .09900001 .185 .09900001 .245 C .09900001 .34200005 .157 .41700004 .237 .41700004 C .28300003 .41700004 .31400005 .39900003 .33900003 .36200003 C .36300005 .32400004 .36400003 .28200004 .36400003 .224 C .36400003 .167 .36400003 .125 .33700005 .086 C .31300003 .051000004 .28100003 .032 .23200001 .032 Z "/>
</symbol>
<use xlink:href="#font_6_2" transform="matrix(19.371666,0,0,-19.371666,358.42387,1101.8932)"/>
<use xlink:href="#font_6_2" transform="matrix(19.371666,0,0,-19.371666,369.46574,1101.8932)"/>
<use xlink:href="#font_6_4" transform="matrix(19.371666,0,0,-19.371666,380.8175,1101.8932)"/>
<use xlink:href="#font_6_3" transform="matrix(19.371666,0,0,-19.371666,391.5494,1101.8932)"/>
<use xlink:href="#font_5_2" transform="matrix(19.371666,0,0,-19.371666,402.43263,1101.6995)"/>
<path transform="matrix(2.7777777,0,0,-2.7777777,37.452775,1555.7556)" stroke-width=".3985" stroke-linecap="round" stroke-linejoin="round" fill="none" stroke="#000000" d="M 59.18434 11.33932 C 59.18434 12.7149 58.06923 13.83002 56.69365 13.83002 C 55.31805 13.83002 54.20296 12.7149 54.20296 11.33932 C 54.20296 9.96375 55.31805 8.84863 56.69365 8.84863 C 58.06923 8.84863 59.18434 9.96375 59.18434 11.33932 Z M 56.69365 11.33932 "/>
<path transform="matrix(2.7777777,0,0,-2.7777777,37.452775,1555.7556)" stroke-width=".3985" stroke-linecap="round" stroke-linejoin="round" fill="none" stroke="#000000" d="M 87.53116 11.33932 C 87.53116 12.7149 86.41605 13.83002 85.04047 13.83002 C 83.66489 13.83002 82.54977 12.7149 82.54977 11.33932 C 82.54977 9.96375 83.66489 8.84863 85.04047 8.84863 C 86.41605 8.84863 87.53116 9.96375 87.53116 11.33932 Z M 85.04047 11.33932 "/>
<path transform="matrix(2.7777777,0,0,-2.7777777,37.452775,1555.7556)" stroke-width=".3985" stroke-linecap="round" stroke-linejoin="round" fill="none" stroke="#000000" d="M 115.87799 14.17416 C 115.87799 15.54974 114.76288 16.66486 113.3873 16.66486 C 112.01172 16.66486 110.8966 15.54974 110.8966 14.17416 C 110.8966 12.79858 112.01172 11.68347 113.3873 11.68347 C 114.76288 11.68347 115.87799 12.79858 115.87799 14.17416 Z M 113.3873 14.17416 "/>
<path transform="matrix(2.7777777,0,0,-2.7777777,37.452775,1555.7556)" stroke-width=".3985" stroke-linecap="round" stroke-linejoin="round" fill="none" stroke="#000000" d="M 144.22481 15.59158 C 144.22481 16.96716 143.1097 18.08228 141.73412 18.08228 C 140.35854 18.08228 139.24343 16.96716 139.24343 15.59158 C 139.24343 14.216 140.35854 13.10089 141.73412 13.10089 C 143.1097 13.10089 144.22481 14.216 144.22481 15.59158 Z M 141.73412 15.59158 "/>
<path transform="matrix(2.7777777,0,0,-2.7777777,37.452775,1555.7556)" stroke-width=".3985" stroke-linecap="round" stroke-linejoin="round" fill="none" stroke="#000000" d="M 172.57164 19.84384 C 172.57164 21.21942 171.45653 22.33453 170.08095 22.33453 C 168.70537 22.33453 167.59026 21.21942 167.59026 19.84384 C 167.59026 18.46825 168.70537 17.35315 170.08095 17.35315 C 171.45653 17.35315 172.57164 18.46825 172.57164 19.84384 Z M 170.08095 19.84384 "/>
<path transform="matrix(2.7777777,0,0,-2.7777777,37.452775,1555.7556)" stroke-width=".3985" stroke-linecap="round" stroke-linejoin="round" fill="none" stroke="#000000" d="M 200.91846 35.43542 C 200.91846 36.811 199.80335 37.92612 198.42777 37.92612 C 197.05219 37.92612 195.93708 36.811 195.93708 35.43542 C 195.93708 34.05984 197.05219 32.94473 198.42777 32.94473 C 199.80335 32.94473 200.91846 34.05984 200.91846 35.43542 Z M 198.42777 35.43542 "/>
<path transform="matrix(2.7777777,0,0,-2.7777777,37.452775,1555.7556)" stroke-width=".3985" stroke-linecap="round" stroke-linejoin="round" fill="none" stroke="#000000" d="M 229.26529 45.35735 C 229.26529 46.73293 228.15018 47.84804 226.7746 47.84804 C 225.39902 47.84804 224.2839 46.73293 224.2839 45.35735 C 224.2839 43.98177 225.39902 42.86665 226.7746 42.86665 C 228.15018 42.86665 229.26529 43.98177 229.26529 45.35735 Z M 226.7746 45.35735 "/>
<path transform="matrix(2.7777777,0,0,-2.7777777,37.452775,1555.7556)" stroke-width=".3985" stroke-linecap="round" stroke-linejoin="round" fill="none" stroke="#000000" d="M 257.6121 53.86185 C 257.6121 55.23743 256.497 56.35254 255.12142 56.35254 C 253.74584 56.35254 252.63072 55.23743 252.63072 53.86185 C 252.63072 52.48627 253.74584 51.37115 255.12142 51.37115 C 256.497 51.37115 257.6121 52.48627 257.6121 53.86185 Z M 255.12142 53.86185 "/>
<path transform="matrix(2.7777777,0,0,-2.7777777,37.452775,1555.7556)" stroke-width=".3985" stroke-linecap="round" stroke-linejoin="round" fill="none" stroke="#000000" d="M 285.95896 62.36635 C 285.95896 63.74193 284.84385 64.85704 283.46827 64.85704 C 282.09269 64.85704 280.97755 63.74193 280.97755 62.36635 C 280.97755 60.99077 282.09269 59.87566 283.46827 59.87566 C 284.84385 59.87566 285.95896 60.99077 285.95896 62.36635 Z M 283.46827 62.36635 "/>
<path transform="matrix(2.7777777,0,0,-2.7777777,37.452775,1555.7556)" stroke-width=".3985" stroke-linecap="round" stroke-linejoin="round" fill="none" stroke="#000000" d="M 314.30577 97.80179 C 314.30577 99.17737 313.19065 100.29248 311.81507 100.29248 C 310.43949 100.29248 309.32438 99.17737 309.32438 97.80179 C 309.32438 96.42621 310.43949 95.3111 311.81507 95.3111 C 313.19065 95.3111 314.30577 96.42621 314.30577 97.80179 Z M 311.81507 97.80179 "/>
<path transform="matrix(2.7777777,0,0,-2.7777777,37.452775,1555.7556)" stroke-width=".3985" stroke-linecap="round" stroke-linejoin="round" fill="none" stroke="#000000" d="M 342.6526 141.74172 C 342.6526 143.1173 341.53749 144.2324 340.1619 144.2324 C 338.78633 144.2324 337.6712 143.1173 337.6712 141.74172 C 337.6712 140.36614 338.78633 139.25102 340.1619 139.25102 C 341.53749 139.25102 342.6526 140.36614 342.6526 141.74172 Z M 340.1619 141.74172 "/>
<path transform="matrix(2.7777777,0,0,-2.7777777,37.452775,1555.7556)" stroke-width=".3985" stroke-linecap="round" stroke-linejoin="round" fill="none" stroke="#000000" d="M 370.9994 172.9249 C 370.9994 174.30048 369.8843 175.41559 368.5087 175.41559 C 367.13313 175.41559 366.018 174.30048 366.018 172.9249 C 366.018 171.54932 367.13313 170.4342 368.5087 170.4342 C 369.8843 170.4342 370.9994 171.54932 370.9994 172.9249 Z M 368.5087 172.9249 "/>
<path transform="matrix(2.7777777,0,0,-2.7777777,37.452775,1555.7556)" stroke-width=".3985" stroke-linecap="round" stroke-linejoin="round" fill="none" stroke="#000000" d="M 399.34626 208.36034 C 399.34626 209.73592 398.2311 210.85103 396.85557 210.85103 C 395.47999 210.85103 394.36485 209.73592 394.36485 208.36034 C 394.36485 206.98474 395.47999 205.86965 396.85557 205.86965 C 398.2311 205.86965 399.34626 206.98474 399.34626 208.36034 Z M 396.85557 208.36034 "/>
<path transform="matrix(2.7777777,0,0,-2.7777777,37.452775,1555.7556)" stroke-width=".3985" stroke-linecap="round" stroke-linejoin="round" fill="none" stroke="#000000" d="M 427.69306 276.39637 C 427.69306 277.77195 426.57798 278.88706 425.20237 278.88706 C 423.82679 278.88706 422.71168 277.77195 422.71168 276.39637 C 422.71168 275.02079 423.82679 273.90568 425.20237 273.90568 C 426.57798 273.90568 427.69306 275.02079 427.69306 276.39637 Z M 425.20237 276.39637 "/>
<path transform="matrix(2.7777777,0,0,-2.7777777,37.452775,1555.7556)" stroke-width=".3985" stroke-linecap="round" stroke-linejoin="round" fill="none" stroke="#000000" d="M 456.0399 430.89485 C 456.0399 432.27043 454.92478 433.38554 453.5492 433.38554 C 452.1736 433.38554 451.0585 432.27043 451.0585 430.89485 C 451.0585 429.51927 452.1736 428.40415 453.5492 428.40415 C 454.92478 428.40415 456.0399 429.51927 456.0399 430.89485 Z M 453.5492 430.89485 "/>
<path transform="matrix(2.7777777,0,0,-2.7777777,37.452775,1555.7556)" stroke-width=".3985" stroke-linecap="round" stroke-linejoin="round" fill="none" stroke="#000000" d="M 484.3867 551.3753 C 484.3867 552.7509 483.2716 553.866 481.896 553.866 C 480.52043 553.866 479.40534 552.7509 479.40534 551.3753 C 479.40534 549.99978 480.52043 548.8846 481.896 548.8846 C 483.2716 548.8846 484.3867 549.99978 484.3867 551.3753 Z M 481.896 551.3753 "/>
<use xlink:href="#font_3_3" transform="matrix(27.673888,0,0,-27.673888,137.27474,29.181448)"/>
<symbol id="font_3_2">
<path d="M .305 .31300003 C .311 .33900003 .334 .43100003 .404 .43100003 C .409 .43100003 .433 .43100003 .454 .418 C .426 .41300003 .40600003 .388 .40600003 .36400003 C .40600003 .34800003 .417 .32900004 .444 .32900004 C .46600003 .32900004 .498 .34700004 .498 .38700003 C .498 .43900005 .439 .45300005 .405 .45300005 C .347 .45300005 .312 .40000005 .3 .37700004 C .275 .44300003 .221 .45300005 .19200002 .45300005 C .08800001 .45300005 .031000002 .32400004 .031000002 .29900003 C .031000002 .28900004 .041 .28900004 .043000007 .28900004 C .051000008 .28900004 .054000006 .291 .056 .3 C .09 .40600003 .156 .43100003 .19000001 .43100003 C .209 .43100003 .244 .42200003 .244 .36400003 C .244 .33300004 .22700002 .26600004 .19000001 .126 C .17400001 .064 .13900002 .022000002 .095000009 .022000002 C .08900001 .022000002 .06600001 .022000002 .045 .035 C .07000001 .040000004 .09200001 .061 .09200001 .089 C .09200001 .116000007 .07000001 .124000009 .055000009 .124000009 C .025 .124000009 0 .098000008 0 .06600001 C 0 .020000002 .050000006 0 .094000007 0 C .16000001 0 .19600001 .07000001 .19900002 .076000008 C .21100001 .039 .24700003 0 .307 0 C .41 0 .467 .12900001 .467 .15400002 C .467 .16400002 .458 .16400002 .455 .16400002 C .446 .16400002 .444 .16000001 .442 .15300001 C .409 .046 .341 .022000002 .30900003 .022000002 C .27 .022000002 .254 .054 .254 .08800001 C .254 .11000001 .26 .13200002 .271 .17600002 L .305 .31300003 Z "/>
</symbol>
<use xlink:href="#font_3_2" transform="matrix(27.673888,0,0,-27.673888,1396.4885,1528.5516)"/>
</g>
</g>
</g>
</svg>
