<?xml version="1.0" encoding="UTF-8" standalone="no"?>
<!DOCTYPE svg PUBLIC "-//W3C//DTD SVG 1.1//EN" "http://www.w3.org/Graphics/SVG/1.1/DTD/svg11.dtd">
<svg xmlns="http://www.w3.org/2000/svg" xmlns:xlink="http://www.w3.org/1999/xlink" version="1.1" width="1415.9583pt" height="1578.811pt" viewBox="0 0 1415.9583 1578.811">
<g enable-background="new">
<path transform="matrix(2.7777777,0,0,-2.7777777,37.452775,1555.7556)" stroke-width=".19925" stroke-linecap="round" stroke-linejoin="round" fill="none" stroke="#929292" d="M 56.69365 4.96094 L 56.69365 9.21321 M 85.04047 4.96094 L 85.04047 9.21321 M 113.3873 4.96094 L 113.3873 9.21321 M 141.73412 4.96094 L 141.73412 9.21321 M 170.08095 4.96094 L 170.08095 9.21321 M 198.42777 4.96094 L 198.42777 9.21321 M 226.7746 4.96094 L 226.7746 9.21321 M 255.12142 4.96094 L 255.12142 9.21321 M 283.46827 4.96094 L 283.46827 9.21321 M 311.81507 4.96094 L 311.81507 9.21321 M 340.1619 4.96094 L 340.1619 9.21321 M 368.5087 4.96094 L 368.5087 9.21321 M 396.85557 4.96094 L 396.85557 9.21321 M 425.20237 4.96094 L 425.20237 9.21321 M 453.5492 4.96094 L 453.5492 9.21321 M 481.896 4.96094 L 481.896 9.21321 "/>
<path transform="matrix(2.7777777,0,0,-2.7777777,37.452775,1555.7556)" stroke-width=".19925" stroke-linecap="round" stroke-linejoin="round" fill="none" stroke="#929292" d="M 26.22084 35.43542 L 30.47278 35.43542 M 26.22084 63.78377 L 30.47278 63.78377 M 26.22084 92.13211 L 30.47278 92.13211 M 26.22084 120.48045 L 30.47278 120.48045 M 26.22084 148.82881 L 30.47278 148.82881 M 26.22084 177.17716 L 30.47278 177.17716 M 26.22084 205.5255 L 30.47278 205.5255 M 26.22084 233.87384 L 30.47278 233.87384 M 26.22084 262.22218 L 30.47278 262.22218 M 26.22084 290.57054 L 30.47278 290.57054 M 26.22084 318.91889 L 30.47278 318.91889 M 26.22084 347.26725 L 30.47278 347.26725 M 26.22084 375.61558 L 30.47278 375.61558 M 26.22084 403.9639 L 30.47278 403.9639 M 26.22084 432.31227 L 30.47278 432.31227 M 26.22084 460.6606 L 30.47278 460.6606 M 26.22084 489.00895 L 30.47278 489.00895 M 26.22084 517.3573 L 30.47278 517.3573 M 26.22084 545.7056 L 30.47278 545.7056 "/>
<path transform="matrix(2.7777777,0,0,-2.7777777,37.452775,1555.7556)" stroke-width=".3985" stroke-linecap="round" stroke-linejoin="round" fill="none" stroke="#000000" d="M 0 7.08708 L 494.0769 7.08708 "/>
<path transform="matrix(2.7777777,0,0,-2.7777777,1409.8886,1536.0692)" d="M 1.99252 0 L -1.19551 1.59401 L 0 0 L -1.19551 -1.59401 "/>
<path transform="matrix(2.7777777,0,0,-2.7777777,37.452775,1555.7556)" stroke-width=".3985" stroke-linecap="round" stroke-linejoin="round" fill="none" stroke="#000000" d="M 28.34682 0 L 28.34682 557.88729 "/>
<path transform="matrix(0,-2.7777777,-2.7777777,-0,116.19394,6.0687596)" d="M 1.99252 0 L -1.19551 1.59401 L 0 0 L -1.19551 -1.59401 "/>
<symbol id="font_0_2">
<path d="M .205 .64000007 C .205 .66400006 .205 .666 .18200003 .666 C .120000008 .60200008 .032000007 .60200008 0 .60200008 L 0 .57100006 C .020000004 .57100006 .07900001 .57100006 .13100001 .597 L .13100001 .079 C .13100001 .043 .128 .031000002 .038000004 .031000002 L .0060000049 .031000002 L .0060000049 0 C .04100001 .003 .128 .003 .168 .003 C .20800002 .003 .29500003 .003 .33000005 0 L .33000005 .031000002 L .29800005 .031000002 C .20800002 .031000002 .205 .042000005 .205 .079 L .205 .64000007 Z "/>
</symbol>
<use xlink:href="#font_0_2" transform="matrix(27.673888,0,0,-27.673888,190.47686,1569.586)"/>
<symbol id="font_0_3">
<path d="M .07700001 .07700001 L .18300002 .18 C .33900003 .31800003 .39900003 .372 .39900003 .47200004 C .39900003 .586 .30900003 .666 .18700002 .666 C .074 .666 0 .574 0 .485 C 0 .42900003 .05 .42900003 .053000008 .42900003 C .07000001 .42900003 .105000007 .441 .105000007 .48200003 C .105000007 .508 .08700001 .53400006 .052000006 .53400006 C .044000005 .53400006 .042000008 .53400006 .039 .53300008 C .062000004 .59800007 .11600001 .63500007 .17400001 .63500007 C .26500003 .63500007 .308 .554 .308 .47200004 C .308 .39200003 .25800003 .31300003 .20300003 .25100003 L .011000004 .037 C 0 .026 0 .024 0 0 L .37100003 0 L .39900003 .17400001 L .374 .17400001 C .36900003 .14400001 .36200003 .1 .352 .085 C .345 .07700001 .279 .07700001 .257 .07700001 L .07700001 .07700001 Z "/>
</symbol>
<use xlink:href="#font_0_3" transform="matrix(27.673888,0,0,-27.673888,268.13648,1569.586)"/>
<symbol id="font_0_4">
<path d="M .24800003 .37400005 C .33 .40100003 .388 .47100006 .388 .55 C .388 .632 .3 .688 .204 .688 C .10300001 .688 .027000003 .628 .027000003 .55200007 C .027000003 .519 .049000004 .5 .078 .5 C .109000008 .5 .12900001 .522 .12900001 .55100008 C .12900001 .6010001 .082 .6010001 .067 .6010001 C .098 .65000006 .164 .66300007 .20000002 .66300007 C .24100003 .66300007 .29600004 .64100006 .29600004 .55100008 C .29600004 .53900006 .29400004 .48100005 .268 .43700005 C .238 .38900004 .204 .38600005 .17900002 .38500003 C .171 .38400004 .14700002 .38200004 .14000002 .38200004 C .132 .38100005 .125 .38000003 .125 .37000004 C .125 .35900004 .132 .35900004 .14900002 .35900004 L .19300002 .35900004 C .275 .35900004 .312 .29100005 .312 .193 C .312 .057000005 .24300003 .028 .199 .028 C .15600002 .028 .081 .045 .046000005 .104 C .081 .09900001 .11200001 .12100001 .11200001 .15900001 C .11200001 .19500001 .085 .215 .056 .215 C .031999999 .215 0 .201 0 .157 C 0 .06600001 .093 0 .20200002 0 C .32400004 0 .41500003 .091000009 .41500003 .193 C .41500003 .27500005 .35200004 .35300005 .24800003 .37400005 Z "/>
</symbol>
<use xlink:href="#font_0_4" transform="matrix(27.673888,0,0,-27.673888,346.6567,1570.1948)"/>
<symbol id="font_0_5">
<path d="M .266 .165 L .266 .078 C .266 .042000005 .26400004 .031000002 .19000001 .031000002 L .16900002 .031000002 L .16900002 0 C .21000001 .003 .26200003 .003 .30400003 .003 C .34600003 .003 .39900003 .003 .44000004 0 L .44000004 .031000002 L .41900004 .031000002 C .34500004 .031000002 .34300003 .042000005 .34300003 .078 L .34300003 .165 L .44300003 .165 L .44300003 .19600001 L .34300003 .19600001 L .34300003 .651 C .34300003 .671 .34300003 .67700007 .32700003 .67700007 C .31800003 .67700007 .31500004 .67700007 .307 .665 L 0 .19600001 L 0 .165 L .266 .165 M .272 .19600001 L .028 .19600001 L .272 .569 L .272 .19600001 Z "/>
</symbol>
<use xlink:href="#font_0_5" transform="matrix(27.673888,0,0,-27.673888,425.00819,1569.586)"/>
<symbol id="font_0_6">
<path d="M .39900003 .223 C .39900003 .34200005 .317 .44200004 .209 .44200004 C .16100002 .44200004 .118000019 .42600004 .082 .39100004 L .082 .586 C .10200001 .58000007 .135 .573 .16700001 .573 C .29 .573 .36 .66400006 .36 .67700007 C .36 .683 .357 .688 .35 .688 C .349 .688 .347 .688 .342 .68500009 C .322 .67600008 .273 .656 .20600002 .656 C .16600001 .656 .120000008 .66300007 .073 .6840001 C .065 .68700006 .06300001 .68700006 .061000009 .68700006 C .051000004 .68700006 .051000004 .679 .051000004 .66300007 L .051000004 .36700005 C .051000004 .34900005 .051000004 .34100003 .065 .34100003 C .07200001 .34100003 .074 .34400005 .07800001 .35000003 C .08900002 .36600004 .12600002 .42000006 .207 .42000006 C .259 .42000006 .284 .37400005 .292 .35600005 C .308 .31900005 .31 .28000004 .31 .23 C .31 .19500001 .31 .135 .286 .093 C .262 .054000006 .22500001 .028 .17900002 .028 C .106000009 .028 .049000008 .08100001 .032 .14000002 C .035 .13900002 .038000008 .13800001 .049000008 .13800001 C .082 .13800001 .09900001 .163 .09900001 .187 C .09900001 .21100001 .082 .23600002 .049000008 .23600002 C .035 .23600002 0 .22900002 0 .18300002 C 0 .097 .069000009 0 .18100001 0 C .297 0 .39900003 .096 .39900003 .223 Z "/>
</symbol>
<use xlink:href="#font_0_6" transform="matrix(27.673888,0,0,-27.673888,504.35868,1570.1948)"/>
<symbol id="font_0_7">
<path d="M .089999999 .35000003 L .089999999 .37400005 C .089999999 .62700006 .21400002 .66300007 .26500003 .66300007 C .28900004 .66300007 .33100004 .65700009 .35300002 .623 C .33800004 .623 .298 .623 .298 .57800009 C .298 .54700008 .32200004 .53200009 .344 .53200009 C .36 .53200009 .39000003 .54100009 .39000003 .58000007 C .39000003 .64000007 .34600003 .688 .263 .688 C .13499999 .688 0 .559 0 .33800004 C 0 .071 .116000007 0 .20900002 0 C .32000003 0 .41500003 .094000007 .41500003 .22600001 C .41500003 .35300005 .32600004 .44900004 .215 .44900004 C .14700002 .44900004 .11000001 .39800004 .089999999 .35000003 M .20900002 .028 C .146 .028 .116000007 .088 .11000001 .103 C .092 .15 .092 .23 .092 .24800001 C .092 .32600004 .124000009 .42600004 .21400002 .42600004 C .23000002 .42600004 .27600003 .42600004 .307 .36400003 C .32500003 .32700003 .32500003 .27600003 .32500003 .22700002 C .32500003 .179 .32500003 .12900001 .30800004 .093 C .27800004 .033000005 .23200003 .028 .20900002 .028 Z "/>
</symbol>
<use xlink:href="#font_0_7" transform="matrix(27.673888,0,0,-27.673888,582.87619,1570.1948)"/>
<symbol id="font_0_8">
<path d="M .42000003 .63100007 C .42900003 .64300009 .42900003 .64500007 .42900003 .66600009 L .18600002 .66600009 C .064 .66600009 .062000008 .679 .058000007 .6980001 L .033 .6980001 L 0 .49200005 L .024999999 .49200005 C .028000005 .508 .037 .57100006 .050000006 .58300009 C .057000005 .58900007 .13500002 .58900007 .148 .58900007 L .35500003 .58900007 C .344 .573 .26500003 .46400006 .24300003 .43100003 C .153 .29600004 .12000001 .157 .12000001 .055 C .12000001 .045 .12000001 0 .16600001 0 C .21200001 0 .21200001 .045 .21200001 .055 L .21200001 .106000009 C .21200001 .16100002 .21500004 .216 .22300002 .27 C .22700003 .29300005 .24100003 .37900005 .28500004 .44100005 L .42000003 .63100007 Z "/>
</symbol>
<use xlink:href="#font_0_8" transform="matrix(27.673888,0,0,-27.673888,662.0053,1570.1948)"/>
<symbol id="font_0_9">
<path d="M .121 .47900004 C .075 .509 .071 .54300007 .071 .56000009 C .071 .62100008 .136 .66300007 .20700002 .66300007 C .28000004 .66300007 .344 .61100009 .344 .53900006 C .344 .48200003 .305 .43400005 .245 .39900003 L .121 .47900004 M .26700003 .38400004 C .33900003 .42100004 .388 .47300006 .388 .53900006 C .388 .63100007 .29900003 .688 .208 .688 C .108 .688 .027000003 .614 .027000003 .521 C .027000003 .503 .029 .45800004 .071 .41100005 C .082 .39900003 .11900001 .37400005 .144 .35700003 C .086 .32800005 0 .272 0 .17300001 C 0 .067 .102000009 0 .20700002 0 C .32000003 0 .41500003 .083000008 .41500003 .19000001 C .41500003 .22600001 .404 .27100004 .36600004 .31300003 C .34700004 .33400003 .33100004 .34400005 .26700003 .38400004 M .167 .34200005 L .29000003 .26400004 C .31800003 .245 .365 .215 .365 .154 C .365 .080000009 .29000003 .028 .208 .028 C .122 .028 .050000006 .09 .050000006 .17300001 C .050000006 .231 .082 .29500003 .167 .34200005 Z "/>
</symbol>
<use xlink:href="#font_0_9" transform="matrix(27.673888,0,0,-27.673888,740.3567,1570.1948)"/>
<symbol id="font_0_a">
<path d="M .32500003 .34000004 L .32500003 .30800004 C .32500003 .074 .22100002 .028 .16300002 .028 C .146 .028 .092 .030000002 .065000008 .064 C .109000008 .064 .117000009 .093 .117000009 .11000001 C .117000009 .141 .093 .156 .071 .156 C .055 .156 .024999999 .147 .024999999 .108 C .024999999 .041 .079 0 .164 0 C .293 0 .41500003 .136 .41500003 .35100005 C .41500003 .62000009 .3 .688 .21100003 .688 C .15600002 .688 .107 .67 .064 .62500008 C .023000002 .58000007 0 .53800007 0 .46300004 C 0 .33800004 .08800001 .24000001 .20000002 .24000001 C .261 .24000001 .30200003 .28200004 .32500003 .34000004 M .201 .263 C .185 .263 .139 .263 .108 .32600004 C .089999999 .36300005 .089999999 .41300006 .089999999 .46200005 C .089999999 .51600006 .089999999 .563 .11100001 .6 C .13800001 .65000006 .176 .66300007 .21100003 .66300007 C .25700004 .66300007 .29000003 .62900009 .307 .58400008 C .31900005 .55200007 .323 .48900003 .323 .44300006 C .323 .36000005 .28900004 .263 .201 .263 Z "/>
</symbol>
<use xlink:href="#font_0_a" transform="matrix(27.673888,0,0,-27.673888,819.0984,1570.1948)"/>
<symbol id="font_0_1">
<path d="M .421 .34200005 C .421 .42200003 .416 .50200006 .381 .57600006 C .335 .67200008 .25300003 .688 .211 .688 C .15100001 .688 .07800001 .66200008 .037000006 .56900009 C .0050000029 .5 0 .42200003 0 .34200005 C 0 .26700003 .0040000008 .177 .045000007 .101 C .088 .020000002 .161 0 .21000001 0 C .264 0 .34 .021000002 .384 .116000007 C .416 .185 .421 .263 .421 .34200005 M .21000001 .022000002 C .171 .022000002 .112 .047000003 .094 .143 C .083000008 .20300001 .083000008 .29500003 .083000008 .35400004 C .083000008 .41800005 .083000008 .48400004 .091000009 .53800007 C .11 .65700009 .185 .66600009 .21000001 .66600009 C .243 .66600009 .30900003 .64800009 .328 .549 C .338 .49300004 .338 .41700004 .338 .35400004 C .338 .279 .338 .21100001 .32700003 .147 C .312 .052 .255 .022000002 .21000001 .022000002 Z "/>
</symbol>
<use xlink:href="#font_0_2" transform="matrix(27.673888,0,0,-27.673888,892.2185,1569.586)"/>
<use xlink:href="#font_0_1" transform="matrix(27.673888,0,0,-27.673888,904.67178,1570.1948)"/>
<use xlink:href="#font_0_2" transform="matrix(27.673888,0,0,-27.673888,970.96017,1569.586)"/>
<use xlink:href="#font_0_2" transform="matrix(27.673888,0,0,-27.673888,984.79708,1569.586)"/>
<use xlink:href="#font_0_2" transform="matrix(27.673888,0,0,-27.673888,1049.6991,1569.586)"/>
<use xlink:href="#font_0_3" transform="matrix(27.673888,0,0,-27.673888,1062.4567,1569.586)"/>
<use xlink:href="#font_0_2" transform="matrix(27.673888,0,0,-27.673888,1128.4407,1569.586)"/>
<use xlink:href="#font_0_4" transform="matrix(27.673888,0,0,-27.673888,1140.9769,1570.1948)"/>
<use xlink:href="#font_0_2" transform="matrix(27.673888,0,0,-27.673888,1207.1797,1569.586)"/>
<use xlink:href="#font_0_5" transform="matrix(27.673888,0,0,-27.673888,1219.3285,1569.586)"/>
<use xlink:href="#font_0_2" transform="matrix(27.673888,0,0,-27.673888,1285.9214,1569.586)"/>
<use xlink:href="#font_0_6" transform="matrix(27.673888,0,0,-27.673888,1298.679,1570.1948)"/>
<use xlink:href="#font_0_2" transform="matrix(27.673888,0,0,-27.673888,1364.6602,1569.586)"/>
<use xlink:href="#font_0_7" transform="matrix(27.673888,0,0,-27.673888,1377.1964,1570.1948)"/>
<use xlink:href="#font_0_3" transform="matrix(27.673888,0,0,-27.673888,74.21981,1466.2418)"/>
<use xlink:href="#font_0_1" transform="matrix(27.673888,0,0,-27.673888,87.75234,1466.8506)"/>
<use xlink:href="#font_0_5" transform="matrix(27.673888,0,0,-27.673888,73.610988,1387.4972)"/>
<use xlink:href="#font_0_1" transform="matrix(27.673888,0,0,-27.673888,87.75234,1388.106)"/>
<use xlink:href="#font_0_7" transform="matrix(27.673888,0,0,-27.673888,73.99841,1309.3615)"/>
<use xlink:href="#font_0_1" transform="matrix(27.673888,0,0,-27.673888,87.75234,1309.3615)"/>
<use xlink:href="#font_0_9" transform="matrix(27.673888,0,0,-27.673888,73.99841,1230.6173)"/>
<use xlink:href="#font_0_1" transform="matrix(27.673888,0,0,-27.673888,87.75234,1230.6173)"/>
<use xlink:href="#font_0_2" transform="matrix(27.673888,0,0,-27.673888,61.46297,1151.2638)"/>
<use xlink:href="#font_0_1" transform="matrix(27.673888,0,0,-27.673888,73.91623,1151.8726)"/>
<use xlink:href="#font_0_1" transform="matrix(27.673888,0,0,-27.673888,87.753177,1151.8726)"/>
<use xlink:href="#font_0_2" transform="matrix(27.673888,0,0,-27.673888,61.46297,1072.5194)"/>
<use xlink:href="#font_0_3" transform="matrix(27.673888,0,0,-27.673888,74.22064,1072.5194)"/>
<use xlink:href="#font_0_1" transform="matrix(27.673888,0,0,-27.673888,87.753177,1073.1282)"/>
<use xlink:href="#font_0_2" transform="matrix(27.673888,0,0,-27.673888,61.46297,993.77517)"/>
<use xlink:href="#font_0_5" transform="matrix(27.673888,0,0,-27.673888,73.61182,993.77517)"/>
<use xlink:href="#font_0_1" transform="matrix(27.673888,0,0,-27.673888,87.753177,994.384)"/>
<use xlink:href="#font_0_2" transform="matrix(27.673888,0,0,-27.673888,61.46297,915.0305)"/>
<use xlink:href="#font_0_7" transform="matrix(27.673888,0,0,-27.673888,73.999248,915.63937)"/>
<use xlink:href="#font_0_1" transform="matrix(27.673888,0,0,-27.673888,87.753177,915.63937)"/>
<use xlink:href="#font_0_2" transform="matrix(27.673888,0,0,-27.673888,61.46297,836.2861)"/>
<use xlink:href="#font_0_9" transform="matrix(27.673888,0,0,-27.673888,73.999248,836.8949)"/>
<use xlink:href="#font_0_1" transform="matrix(27.673888,0,0,-27.673888,87.753177,836.8949)"/>
<use xlink:href="#font_0_3" transform="matrix(27.673888,0,0,-27.673888,60.38369,757.5418)"/>
<use xlink:href="#font_0_1" transform="matrix(27.673888,0,0,-27.673888,73.91623,758.15066)"/>
<use xlink:href="#font_0_1" transform="matrix(27.673888,0,0,-27.673888,87.753177,758.15066)"/>
<use xlink:href="#font_0_3" transform="matrix(27.673888,0,0,-27.673888,60.38369,678.7974)"/>
<use xlink:href="#font_0_3" transform="matrix(27.673888,0,0,-27.673888,74.22064,678.7974)"/>
<use xlink:href="#font_0_1" transform="matrix(27.673888,0,0,-27.673888,87.753177,679.40628)"/>
<use xlink:href="#font_0_3" transform="matrix(27.673888,0,0,-27.673888,60.38369,600.05276)"/>
<use xlink:href="#font_0_5" transform="matrix(27.673888,0,0,-27.673888,73.61182,600.05276)"/>
<use xlink:href="#font_0_1" transform="matrix(27.673888,0,0,-27.673888,87.753177,600.66159)"/>
<use xlink:href="#font_0_3" transform="matrix(27.673888,0,0,-27.673888,60.38369,521.30838)"/>
<use xlink:href="#font_0_7" transform="matrix(27.673888,0,0,-27.673888,73.999248,521.9172)"/>
<use xlink:href="#font_0_1" transform="matrix(27.673888,0,0,-27.673888,87.753177,521.9172)"/>
<use xlink:href="#font_0_3" transform="matrix(27.673888,0,0,-27.673888,60.38369,442.5641)"/>
<use xlink:href="#font_0_9" transform="matrix(27.673888,0,0,-27.673888,73.999248,443.1729)"/>
<use xlink:href="#font_0_1" transform="matrix(27.673888,0,0,-27.673888,87.753177,443.1729)"/>
<use xlink:href="#font_0_4" transform="matrix(27.673888,0,0,-27.673888,60.1623,364.42854)"/>
<use xlink:href="#font_0_1" transform="matrix(27.673888,0,0,-27.673888,73.91623,364.42854)"/>
<use xlink:href="#font_0_1" transform="matrix(27.673888,0,0,-27.673888,87.753177,364.42854)"/>
<use xlink:href="#font_0_4" transform="matrix(27.673888,0,0,-27.673888,60.1623,285.68659)"/>
<use xlink:href="#font_0_3" transform="matrix(27.673888,0,0,-27.673888,74.22064,285.07777)"/>
<use xlink:href="#font_0_1" transform="matrix(27.673888,0,0,-27.673888,87.753177,285.68659)"/>
<use xlink:href="#font_0_4" transform="matrix(27.673888,0,0,-27.673888,60.1623,206.94232)"/>
<use xlink:href="#font_0_5" transform="matrix(27.673888,0,0,-27.673888,73.61182,206.3335)"/>
<use xlink:href="#font_0_1" transform="matrix(27.673888,0,0,-27.673888,87.753177,206.94232)"/>
<use xlink:href="#font_0_4" transform="matrix(27.673888,0,0,-27.673888,60.1623,128.1977)"/>
<use xlink:href="#font_0_7" transform="matrix(27.673888,0,0,-27.673888,73.999248,128.1977)"/>
<use xlink:href="#font_0_1" transform="matrix(27.673888,0,0,-27.673888,87.753177,128.1977)"/>
<use xlink:href="#font_0_4" transform="matrix(27.673888,0,0,-27.673888,60.1623,49.45343)"/>
<use xlink:href="#font_0_9" transform="matrix(27.673888,0,0,-27.673888,73.999248,49.45343)"/>
<use xlink:href="#font_0_1" transform="matrix(27.673888,0,0,-27.673888,87.753177,49.45343)"/>
<clipPath id="cp1">
<path transform="matrix(2.7777777,0,0,-2.7777777,37.452775,1555.7556)" d="M 0 0 L 496.06944 0 L 496.06944 559.8798 L 0 559.8798 Z "/>
</clipPath>
<g clip-path="url(#cp1)">
<clipPath id="cp2">
<path transform="matrix(2.7777777,0,0,-2.7777777,37.452775,1555.7556)" d="M 0 0 L 0 559.8798 L 552.76309 559.8798 L 552.76309 0 Z M 552.76309 559.8798 "/>
</clipPath>
<g clip-path="url(#cp2)">
<path transform="matrix(2.7777777,0,0,-2.7777777,37.452775,1555.7556)" stroke-width="1.19553" stroke-linecap="round" stroke-linejoin="round" fill="none" stroke="#2e7d32" d="M 28.34682 8.5045 C 28.34682 8.5045 30.0139 8.5332 30.65424 8.54443 C 31.29457 8.55566 32.32158 8.57396 32.96196 8.58553 C 33.60234 8.59709 34.62933 8.61592 35.26968 8.6278 C 35.91002 8.63971 36.93675 8.65903 37.57709 8.67125 C 38.21744 8.68347 39.24448 8.70335 39.88481 8.71591 C 40.52515 8.72847 41.5519 8.74892 42.19223 8.76184 C 42.83257 8.77475 43.85957 8.79576 44.49995 8.80905 C 45.14034 8.82234 46.16734 8.844 46.80768 8.85764 C 47.44801 8.87129 48.4748 8.8935 49.11514 8.90755 C 49.75548 8.92159 50.78247 8.94446 51.4228 8.9589 C 52.06316 8.97334 53.08994 8.99684 53.73027 9.01169 C 54.3706 9.02655 55.39766 9.05069 56.038 9.06595 C 56.67833 9.0812 57.70508 9.10608 58.34541 9.12177 C 58.98575 9.13747 60.0128 9.163 60.65314 9.17912 C 61.29347 9.19525 62.32022 9.22153 62.96056 9.23813 C 63.60089 9.25473 64.62788 9.28175 65.26828 9.29883 C 65.90866 9.3159 66.93565 9.34363 67.57599 9.36118 C 68.21634 9.37872 69.24312 9.40732 69.8834 9.42534 C 70.5237 9.44337 71.55049 9.47269 72.19083 9.49123 C 72.83116 9.50977 73.85817 9.53995 74.49855 9.55902 C 75.13893 9.57811 76.16594 9.60915 76.80627 9.62875 C 77.44661 9.64836 78.47334 9.68028 79.1137 9.70044 C 79.75403 9.7206 80.78102 9.75342 81.4214 9.77415 C 82.0618 9.79489 83.08879 9.82858 83.72913 9.8499 C 84.36946 9.87122 85.39621 9.90585 86.03654 9.92778 C 86.67688 9.9497 87.70393 9.9854 88.34427 10.00792 C 88.9846 10.03046 90.0114 10.0671 90.65173 10.09026 C 91.29207 10.11343 92.31906 10.15115 92.95941 10.17499 C 93.59975 10.1988 94.62653 10.23752 95.26688 10.26202 C 95.90721 10.28653 96.93425 10.32643 97.57458 10.35162 C 98.21492 10.37682 99.24167 10.41776 99.882 10.44365 C 100.52234 10.46953 101.54935 10.51167 102.18973 10.53831 C 102.83011 10.56494 103.85712 10.60829 104.49745 10.63568 C 105.13779 10.66306 106.16455 10.70758 106.80489 10.73572 C 107.44522 10.76385 108.47226 10.80962 109.11261 10.83856 C 109.75294 10.86751 110.77968 10.91463 111.42001 10.94441 C 112.06036 10.9742 113.0874 11.02263 113.72774 11.05322 C 114.36807 11.08383 115.39482 11.13356 116.03516 11.16502 C 116.67549 11.19649 117.7025 11.2477 118.34288 11.28004 C 118.98326 11.3124 120.01027 11.36502 120.6506 11.39828 C 121.29094 11.43155 122.31767 11.48561 122.95802 11.5198 C 123.59836 11.55402 124.6254 11.60966 125.26573 11.64485 C 125.90608 11.68002 126.93282 11.73726 127.57315 11.77342 C 128.21349 11.80959 129.24054 11.86841 129.88088 11.90558 C 130.52121 11.94275 131.548 12.00317 132.18834 12.04138 C 132.82868 12.0796 133.85565 12.1418 134.49602 12.1811 C 135.13639 12.22043 136.16339 12.28441 136.80374 12.32483 C 137.44408 12.36525 138.47086 12.43098 139.1112 12.47255 C 139.75154 12.51411 140.77854 12.58168 141.41887 12.62442 C 142.05922 12.66714 143.086 12.73665 143.72634 12.78056 C 144.36667 12.8245 145.39369 12.89586 146.03406 12.94102 C 146.67443 12.98619 147.7014 13.0597 148.34174 13.10619 C 148.98207 13.15266 150.00891 13.22832 150.6492 13.27608 C 151.28949 13.32384 152.31627 13.40143 152.95662 13.45052 C 153.59696 13.4996 154.62395 13.57945 155.26433 13.62993 C 155.90473 13.68042 156.93172 13.76253 157.57205 13.81445 C 158.21239 13.86638 159.23914 13.95088 159.87947 14.00426 C 160.5198 14.05763 161.54686 14.14433 162.1872 14.1992 C 162.82753 14.25407 163.85428 14.34334 164.49462 14.39978 C 165.13495 14.45622 166.16199 14.54802 166.80234 14.60605 C 167.44268 14.6641 168.46942 14.75848 169.10977 14.81813 C 169.7501 14.87779 170.7771 14.97466 171.41748 15.03601 C 172.05786 15.09737 173.08487 15.1973 173.7252 15.26038 C 174.36554 15.32347 175.39229 15.4259 176.03263 15.49075 C 176.67296 15.5556 177.70001 15.66115 178.34035 15.72784 C 178.98069 15.79453 180.00748 15.90292 180.64781 15.9715 C 181.28815 16.04007 182.31514 16.15163 182.95549 16.2221 C 183.59583 16.29257 184.6226 16.40706 185.26294 16.47952 C 185.90329 16.552 186.9303 16.6699 187.57067 16.74446 C 188.21103 16.819 189.238 16.94028 189.87834 17.0169 C 190.51868 17.09354 191.54552 17.21808 192.1858 17.29686 C 192.8261 17.37566 193.85289 17.50378 194.49323 17.5848 C 195.13356 17.6658 196.16056 17.79745 196.80095 17.88075 C 197.44133 17.96407 198.46833 18.09962 199.10866 18.1853 C 199.74901 18.27098 200.77574 18.41022 201.41608 18.49828 C 202.05641 18.58633 203.08347 18.72946 203.7238 18.82 C 204.36414 18.91055 205.39089 19.05783 206.03122 19.15094 C 206.67156 19.24405 207.69857 19.39542 208.33895 19.49117 C 208.97933 19.5869 210.00632 19.74258 210.64667 19.84103 C 211.287 19.93948 212.31374 20.09953 212.95409 20.20071 C 213.59442 20.3019 214.62146 20.46631 215.2618 20.57039 C 215.90215 20.67445 216.92888 20.8438 217.56922 20.95084 C 218.20955 21.05789 219.2366 21.23201 219.87694 21.34206 C 220.51728 21.4521 221.54407 21.63089 222.1844 21.74402 C 222.82474 21.85715 223.85172 22.04117 224.49208 22.15747 C 225.13245 22.27376 226.15946 22.4627 226.7998 22.58229 C 227.44014 22.70187 228.46692 22.89644 229.10726 23.01941 C 229.7476 23.14238 230.7746 23.34218 231.41493 23.46858 C 232.05527 23.59499 233.0821 23.80055 233.7224 23.93053 C 234.36269 24.06049 235.38948 24.27168 236.02982 24.40535 C 236.67015 24.53903 237.69716 24.75647 238.33754 24.89394 C 238.97792 25.03139 240.00492 25.25487 240.64527 25.39615 C 241.2856 25.53741 242.31235 25.76694 242.9527 25.9122 C 243.59304 26.05748 244.62003 26.29376 245.2604 26.44318 C 245.90079 26.5926 246.9278 26.8356 247.56813 26.98918 C 248.20847 27.14275 249.23522 27.3921 249.87555 27.55003 C 250.51589 27.70796 251.54294 27.96506 252.18328 28.12749 C 252.82361 28.28992 253.85036 28.55391 254.49069 28.72083 C 255.13103 28.88776 256.15809 29.15894 256.79844 29.33058 C 257.43876 29.50223 258.46549 29.78142 259.10585 29.95795 C 259.74617 30.13449 260.77317 30.42155 261.41355 30.60301 C 262.05393 30.78448 263.08094 31.07938 263.72129 31.26593 C 264.3616 31.45248 265.38835 31.75584 266.0287 31.94771 C 266.669 32.13957 267.69609 32.4514 268.3364 32.64876 C 268.97676 32.84613 270.0035 33.16733 270.6439 33.37024 C 271.2842 33.57314 272.3112 33.90256 272.95155 34.11113 C 273.5919 34.3197 274.61869 34.65915 275.259 34.87357 C 275.89936 35.08797 276.9264 35.43611 277.56675 35.65654 C 278.20707 35.87697 279.2338 36.23555 279.87416 36.46233 C 280.51448 36.68912 281.5415 37.05797 282.1819 37.29109 C 282.82225 37.52423 283.84925 37.90305 284.4896 38.14268 C 285.12995 38.38232 286.15666 38.77196 286.797 39.01836 C 287.43736 39.26477 288.4644 39.66527 289.1047 39.9187 C 289.74507 40.17213 290.7718 40.58441 291.41215 40.84499 C 292.05247 41.10556 293.07954 41.52892 293.71986 41.7968 C 294.3602 42.06468 295.38697 42.50034 296.02729 42.77579 C 296.66764 43.05125 297.69465 43.49901 298.335 43.78217 C 298.9754 44.0653 300.00239 44.52534 300.64274 44.81659 C 301.28309 45.10785 302.3098 45.58194 302.95014 45.88136 C 303.59049 46.18077 304.61753 46.6668 305.25788 46.97462 C 305.8982 47.28244 306.92494 47.78348 307.56529 48.10004 C 308.2056 48.41661 309.2326 48.9309 309.873 49.25623 C 310.51338 49.58156 311.54039 50.11014 312.18074 50.44487 C 312.82106 50.7796 313.84785 51.32468 314.48817 51.66882 C 315.12846 52.01297 316.15528 52.57153 316.79563 52.9252 C 317.43595 53.27888 318.46296 53.85406 319.10334 54.21791 C 319.74369 54.58176 320.7707 55.17342 321.411 55.54758 C 322.05137 55.92175 323.07814 56.53014 323.71849 56.91466 C 324.3588 57.2992 325.38587 57.92383 326.0262 58.31906 C 326.66654 58.71431 327.69328 59.35667 328.33363 59.76326 C 328.97395 60.16983 330.00099 60.83124 330.64134 61.24944 C 331.28169 61.66762 332.3084 62.34763 332.94877 62.77739 C 333.5891 63.20714 334.6161 63.90494 335.25648 64.3469 C 335.89686 64.78885 336.92387 65.5083 337.5642 65.96274 C 338.20454 66.41719 339.2313 67.1551 339.8716 67.62227 C 340.51197 68.08943 341.539 68.84914 342.17936 69.3297 C 342.81968 69.81026 343.8464 70.59189 344.48677 71.08588 C 345.12709 71.57986 346.15415 72.38234 346.79447 72.8901 C 347.4348 73.39786 348.46156 74.22339 349.10188 74.74548 C 349.74223 75.2676 350.76924 76.11612 351.4096 76.65306 C 352.05 77.19002 353.077 78.06339 353.71733 78.61548 C 354.35768 79.16756 355.38447 80.06464 356.02476 80.63219 C 356.66505 81.19974 357.6919 82.1221 358.3322 82.706 C 358.97257 83.28989 359.99958 84.24022 360.63996 84.84048 C 361.2803 85.44075 362.30729 86.41554 362.9476 87.03238 C 363.58796 87.64922 364.61473 88.6518 365.25508 89.28621 C 365.8954 89.92064 366.92247 90.95264 367.5628 91.60497 C 368.20314 92.25731 369.22987 93.31715 369.8702 93.9878 C 370.51054 94.65843 371.53755 95.74893 372.17793 96.4385 C 372.8183 97.12807 373.8453 98.24855 374.48567 98.95769 C 375.12599 99.66681 376.15275 100.82018 376.79307 101.54942 C 377.4334 102.27866 378.46046 103.46397 379.10078 104.21361 C 379.74113 104.96326 380.76789 106.1815 381.4082 106.95233 C 382.04856 107.72314 383.0756 108.97667 383.71595 109.76918 C 384.35627 110.56169 385.38304 111.84943 386.02336 112.66425 C 386.6637 113.47905 387.6907 114.80377 388.3311 115.64182 C 388.97148 116.47987 389.99848 117.84293 390.6388 118.7044 C 391.27915 119.56589 392.30589 120.96498 392.9462 121.85081 C 393.58656 122.73665 394.6136 124.17818 395.25395 125.0889 C 395.89427 125.99962 396.92103 127.47845 397.56138 128.41474 C 398.2017 129.35103 399.22874 130.87429 399.86909 131.8371 C 400.5094 132.79991 401.53623 134.36421 402.17655 135.35413 C 402.8169 136.34403 403.84388 137.95365 404.48423 138.97167 C 405.12458 139.98967 406.15135 141.64464 406.79167 142.69138 C 407.432 143.7381 408.459 145.43894 409.0994 146.51586 C 409.73979 147.59278 410.76679 149.34638 411.40715 150.45316 C 412.04747 151.55994 413.0742 153.3553 413.71455 154.4928 C 414.35487 155.63031 415.38194 157.48134 416.02226 158.65149 C 416.6626 159.82163 417.68934 161.72383 418.32969 162.92644 C 418.97004 164.12903 419.99708 166.08238 420.6374 167.319 C 421.27775 168.55562 422.30448 170.5677 422.94483 171.83914 C 423.58515 173.11058 424.61216 175.17559 425.25254 176.4826 C 425.8929 177.78963 426.91993 179.91492 427.56028 181.25931 C 428.2006 182.6037 429.22734 184.79012 429.86769 186.17208 C 430.508 187.55402 431.535 189.7984 432.1754 191.2195 C 432.81578 192.6406 433.84278 194.95294 434.48313 196.41434 C 435.12348 197.87574 436.15025 200.25002 436.79054 201.75232 C 437.43083 203.25463 438.4576 205.6968 439.09797 207.24198 C 439.73829 208.78717 440.7653 211.30034 441.40568 212.88898 C 442.04606 214.47763 443.07307 217.05879 443.7134 218.69188 C 444.35374 220.32497 445.3805 222.98029 446.0208 224.6592 C 446.66117 226.3381 447.6882 229.06607 448.32856 230.79238 C 448.96888 232.51868 449.99565 235.3256 450.636 237.10129 C 451.27635 238.87696 452.30339 241.76477 452.9437 243.59021 C 453.58406 245.41565 454.6108 248.38082 455.25114 250.25777 C 455.89146 252.13474 456.91853 255.1886 457.55885 257.11808 C 458.1992 259.04753 459.22596 262.18009 459.8663 264.16404 C 460.50663 266.14796 461.53364 269.3762 462.174 271.41697 C 462.8144 273.45774 463.84138 276.77497 464.48173 278.87257 C 465.12208 280.97019 466.1488 284.37794 466.78916 286.53514 C 467.42948 288.69236 468.45655 292.20307 469.09687 294.42024 C 469.7372 296.6374 470.76396 300.23539 471.40428 302.5151 C 472.04463 304.79484 473.07164 308.5057 473.712 310.85093 C 474.3524 313.19615 475.3794 317.0075 476.01976 319.4178 C 476.66007 321.82814 477.68684 325.74446 478.32716 328.2228 C 478.96745 330.70115 479.99424 334.73213 480.63456 337.2801 C 481.2749 339.82807 482.3019 343.9665 482.9423 346.58686 C 483.58268 349.2072 484.60966 353.47068 485.25 356.16578 C 485.89036 358.86085 487.55744 366.01115 487.55744 366.01115 "/>
<path transform="matrix(2.7777777,0,0,-2.7777777,37.452775,1555.7556)" stroke-width="1.19553" stroke-linecap="round" stroke-linejoin="round" fill="none" stroke="#1565c0" d="M 28.34682 9.92192 C 28.34682 9.92192 30.0139 9.97931 30.65424 10.0018 C 31.29457 10.02428 32.32158 10.06084 32.96196 10.08397 C 33.60234 10.10709 34.62933 10.14476 35.26968 10.16853 C 35.91002 10.1923 36.93675 10.231 37.57709 10.25543 C 38.21744 10.27986 39.24448 10.31958 39.88481 10.34471 C 40.52515 10.36984 41.5519 10.41075 42.19223 10.43658 C 42.83257 10.46243 43.85957 10.50444 44.49995 10.531 C 45.14034 10.55759 46.16734 10.60088 46.80768 10.62822 C 47.44801 10.65555 48.4748 10.69994 49.11514 10.72803 C 49.75548 10.75612 50.78247 10.80183 51.4228 10.83072 C 52.06316 10.8596 53.08994 10.90657 53.73027 10.93628 C 54.3706 10.96599 55.39766 11.0143 56.038 11.04483 C 56.67833 11.07538 57.70508 11.12509 58.34541 11.15648 C 58.98575 11.18787 60.0128 11.2389 60.65314 11.2712 C 61.29347 11.30348 62.32022 11.35602 62.96056 11.38922 C 63.60089 11.42242 64.62788 11.47646 65.26828 11.51057 C 65.90866 11.54471 66.93565 11.60017 67.57599 11.63528 C 68.21634 11.67038 69.24312 11.72754 69.8834 11.76361 C 70.5237 11.7997 71.55049 11.85828 72.19083 11.89537 C 72.83116 11.93246 73.85817 11.99283 74.49855 12.03099 C 75.13893 12.06915 76.16594 12.13121 76.80627 12.17046 C 77.44661 12.20969 78.47334 12.27347 79.1137 12.3138 C 79.75403 12.35413 80.78102 12.41975 81.4214 12.46123 C 82.0618 12.50269 83.08879 12.57011 83.72913 12.61273 C 84.36946 12.65536 85.39621 12.72466 86.03654 12.7685 C 86.67688 12.81235 87.70393 12.88367 88.34427 12.92874 C 88.9846 12.97382 90.0114 13.04707 90.65173 13.09343 C 91.29207 13.13977 92.31906 13.21523 92.95941 13.26288 C 93.59975 13.31055 94.62653 13.38799 95.26688 13.437 C 95.90721 13.48601 96.93425 13.5658 97.57458 13.6162 C 98.21492 13.66658 99.24167 13.74841 99.882 13.80022 C 100.52234 13.852 101.54935 13.93628 102.18973 13.98956 C 102.83011 14.04285 103.85712 14.1295 104.49745 14.18428 C 105.13779 14.23904 106.16455 14.32808 106.80489 14.38438 C 107.44522 14.44067 108.47226 14.53215 109.11261 14.59006 C 109.75294 14.64796 110.77968 14.7422 111.42001 14.80176 C 112.06036 14.86133 113.0874 14.95818 113.72774 15.01938 C 114.36807 15.08058 115.39482 15.18004 116.03516 15.24297 C 116.67549 15.30591 117.7025 15.40831 118.34288 15.47304 C 118.98326 15.53777 120.01027 15.64299 120.6506 15.70952 C 121.29094 15.77605 122.31767 15.88411 122.95802 15.95253 C 123.59836 16.02094 124.6254 16.13226 125.26573 16.20262 C 125.90608 16.273 126.93282 16.38742 127.57315 16.45976 C 128.21349 16.53212 129.24054 16.64972 129.88088 16.72408 C 130.52121 16.79842 131.548 16.91928 132.18834 16.99573 C 132.82868 17.07217 133.85565 17.1965 134.49602 17.27515 C 135.13639 17.35378 136.16339 17.4817 136.80374 17.56258 C 137.44408 17.64345 138.47086 17.7749 139.1112 17.85803 C 139.75154 17.94115 140.77854 18.0763 141.41887 18.16176 C 142.05922 18.24724 143.086 18.38625 143.72634 18.4741 C 144.36667 18.56195 145.39369 18.70465 146.03406 18.79498 C 146.67443 18.88533 147.7014 19.03232 148.34174 19.12529 C 148.98207 19.21828 150.00891 19.36955 150.6492 19.46509 C 151.28949 19.56064 152.31627 19.71579 152.95662 19.81398 C 153.59696 19.91217 154.62395 20.07181 155.26433 20.17279 C 155.90473 20.27377 156.93172 20.43799 157.57205 20.54185 C 158.21239 20.6457 159.23914 20.81467 159.87947 20.92143 C 160.5198 21.02818 161.54686 21.20158 162.1872 21.31134 C 162.82753 21.4211 163.85428 21.5996 164.49462 21.7125 C 165.13495 21.82538 166.16199 22.00894 166.80234 22.12503 C 167.44268 22.2411 168.46942 22.42989 169.10977 22.5492 C 169.7501 22.6685 170.7771 22.86224 171.41748 22.98495 C 172.05786 23.10767 173.08487 23.30751 173.7252 23.43369 C 174.36554 23.55986 175.39229 23.76471 176.03263 23.89441 C 176.67296 24.02412 177.70001 24.2352 178.34035 24.36859 C 178.98069 24.502 180.00748 24.7188 180.64781 24.85594 C 181.28815 24.99309 182.31514 25.21616 182.95549 25.35712 C 183.59583 25.4981 184.6226 25.72704 185.26294 25.87198 C 185.90329 26.01694 186.9303 26.25273 187.57067 26.40184 C 188.21103 26.55096 189.238 26.79344 189.87834 26.94673 C 190.51868 27.1 191.54552 27.34909 192.1858 27.50668 C 192.8261 27.66426 193.85289 27.92047 194.49323 28.0825 C 195.13356 28.24452 196.16056 28.50784 196.80095 28.67447 C 197.44133 28.8411 198.46833 29.11221 199.10866 29.28355 C 199.74901 29.4549 200.77574 29.73332 201.41608 29.90945 C 202.05641 30.08559 203.08347 30.37187 203.7238 30.553 C 204.36414 30.7341 205.39089 31.0286 206.03122 31.21483 C 206.67156 31.40105 207.69857 31.70377 208.33895 31.89525 C 208.97933 32.08673 210.00632 32.3981 210.64667 32.595 C 211.287 32.79189 212.31374 33.11198 212.95409 33.31436 C 213.59442 33.51675 214.62146 33.84554 215.2618 34.05368 C 215.90215 34.26183 216.92888 34.60045 217.56922 34.81458 C 218.20955 35.0287 219.2366 35.3769 219.87694 35.59702 C 220.51728 35.81712 221.54407 36.17471 222.1844 36.40097 C 222.82474 36.62724 223.85172 36.99525 224.49208 37.22786 C 225.13245 37.46046 226.15946 37.83832 226.7998 38.0775 C 227.44014 38.31667 228.46692 38.70581 229.10726 38.95175 C 229.7476 39.1977 230.7746 39.59727 231.41493 39.8501 C 232.05527 40.10292 233.0821 40.51402 233.7224 40.77396 C 234.36269 41.0339 235.38948 41.4563 236.02982 41.72365 C 236.67015 41.99098 237.69716 42.42587 238.33754 42.7008 C 238.97792 42.97572 240.00492 43.42265 240.64527 43.70522 C 241.2856 43.98776 242.31235 44.44681 242.9527 44.73735 C 243.59304 45.0279 244.62003 45.50044 245.2604 45.79929 C 245.90079 46.09813 246.9278 46.58414 247.56813 46.89128 C 248.20847 47.19843 249.23522 47.69714 249.87555 48.01302 C 250.51589 48.32887 251.54294 48.84302 252.18328 49.16791 C 252.82361 49.49278 253.85036 50.02074 254.49069 50.35458 C 255.13103 50.68843 256.15809 51.2308 256.79844 51.5741 C 257.43876 51.91739 258.46549 52.47577 259.10585 52.82884 C 259.74617 53.18193 260.77317 53.75601 261.41355 54.11896 C 262.05393 54.4819 263.08094 55.07166 263.72129 55.4448 C 264.3616 55.81795 265.38835 56.42462 266.0287 56.80835 C 266.669 57.19208 267.69609 57.81573 268.3364 58.21046 C 268.97676 58.6052 270.0035 59.24762 270.6439 59.65341 C 271.2842 60.05919 272.3112 60.71803 272.95155 61.1352 C 273.5919 61.55235 274.61869 62.23122 275.259 62.66005 C 275.89936 63.08888 276.9264 63.78514 277.56675 64.22601 C 278.20707 64.66689 279.2338 65.38402 279.87416 65.8376 C 280.51448 66.29118 281.5415 67.02884 282.1819 67.49513 C 282.82225 67.96143 283.84925 68.719 284.4896 69.1983 C 285.12995 69.67761 286.15666 70.45683 286.797 70.94966 C 287.43736 71.44249 288.4644 72.24345 289.1047 72.75032 C 289.74507 73.25719 290.7718 74.08174 291.41215 74.60289 C 292.05247 75.12405 293.07954 75.97073 293.71986 76.50652 C 294.3602 77.0423 295.38697 77.91359 296.02729 78.46451 C 296.66764 79.01543 297.69465 79.91095 298.335 80.47726 C 298.9754 81.04356 300.00239 81.96361 300.64274 82.54611 C 301.28309 83.12862 302.3098 84.07681 302.95014 84.67564 C 303.59049 85.27449 304.61753 86.2465 305.25788 86.86217 C 305.8982 87.47783 306.92494 88.47987 307.56529 89.113 C 308.2056 89.74614 309.2326 90.77472 309.873 91.42538 C 310.51338 92.07607 311.54039 93.13318 312.18074 93.80266 C 312.82106 94.47214 313.84785 95.56229 314.48817 96.25058 C 315.12846 96.93886 316.15528 98.056 316.79563 98.76335 C 317.43595 99.4707 318.46296 100.62105 319.10334 101.34874 C 319.74369 102.07643 320.7707 103.25975 321.411 104.00809 C 322.05137 104.75641 323.07814 105.97319 323.71849 106.74226 C 324.3588 107.51134 325.38587 108.7606 326.0262 109.55106 C 326.66654 110.34152 327.69328 111.62628 328.33363 112.43944 C 328.97395 113.2526 330.00099 114.5754 330.64134 115.41179 C 331.28169 116.24818 332.3084 117.60818 332.94877 118.4677 C 333.5891 119.32722 334.6161 120.7228 335.25648 121.60672 C 335.89686 122.49063 336.92387 123.92953 337.5642 124.83842 C 338.20454 125.74731 339.2313 127.22314 339.8716 128.15746 C 340.51197 129.09177 341.539 130.61119 342.17936 131.57233 C 342.81968 132.53345 343.8464 134.0967 344.48677 135.08469 C 345.12709 136.07268 346.15415 137.67763 346.79447 138.69315 C 347.4348 139.70867 348.46156 141.35973 349.10188 142.40392 C 349.74223 143.4481 350.76924 145.14517 351.4096 146.21907 C 352.05 147.29297 353.077 149.03969 353.71733 150.14386 C 354.35768 151.24805 355.38447 153.04219 356.02476 154.17729 C 356.66505 155.3124 357.6919 157.15712 358.3322 158.3249 C 358.97257 159.49269 359.99958 161.39334 360.63996 162.59389 C 361.2803 163.79444 362.30729 165.74402 362.9476 166.97769 C 363.58796 168.21137 364.61473 170.21649 365.25508 171.48537 C 365.8954 172.75423 366.92247 174.81819 367.5628 176.12287 C 368.20314 177.42752 369.22987 179.54723 369.8702 180.88852 C 370.51054 182.2298 371.53755 184.4108 372.17793 185.78992 C 372.8183 187.16905 373.8453 189.41005 374.48567 190.8283 C 375.12599 192.24655 376.15275 194.55329 376.79307 196.01178 C 377.4334 197.47028 378.46046 199.84087 379.10078 201.34015 C 379.74113 202.83943 380.76789 205.27594 381.4082 206.81758 C 382.04856 208.35924 383.0756 210.86626 383.71595 212.45128 C 384.35627 214.03629 385.38304 216.61177 386.02336 218.24141 C 386.6637 219.87104 387.6907 222.52045 388.3311 224.19657 C 388.97148 225.8727 389.99848 228.5988 390.6388 230.32176 C 391.27915 232.04473 392.30589 234.84288 392.9462 236.61455 C 393.58656 238.38622 394.6136 241.26927 395.25395 243.09073 C 395.89427 244.91219 396.92103 247.8698 397.56138 249.7424 C 398.2017 251.61499 399.22874 254.66147 399.86909 256.5871 C 400.5094 258.51277 401.53623 261.64134 402.17655 263.62117 C 402.8169 265.60099 403.84388 268.8202 404.48423 270.85627 C 405.12458 272.8923 406.15135 276.2022 406.79167 278.2957 C 407.432 280.38917 408.459 283.7908 409.0994 285.94465 C 409.73979 288.09846 410.76679 291.6055 411.40715 293.81907 C 412.04747 296.03263 413.0742 299.62345 413.71455 301.89845 C 414.35487 304.17347 415.38194 307.87544 416.02226 310.21574 C 416.6626 312.55604 417.68934 316.3605 418.32969 318.76576 C 418.97004 321.171 419.99708 325.07783 420.6374 327.55107 C 421.27775 330.0243 422.30448 334.0483 422.94483 336.59117 C 423.58515 339.13404 424.61216 343.26423 425.25254 345.87828 C 425.8929 348.4923 426.91993 352.7426 427.56028 355.43138 C 428.2006 358.12016 429.22734 362.49308 429.86769 365.25703 C 430.508 368.02098 431.535 372.50996 432.1754 375.35215 C 432.81578 378.19429 433.84278 382.81864 434.48313 385.7414 C 435.12348 388.66416 436.15025 393.4128 436.79054 396.41743 C 437.43083 399.42207 438.4576 404.3063 439.09797 407.3967 C 439.73829 410.4871 440.7653 415.51359 441.40568 418.6909 C 442.04606 421.8682 443.07307 427.03034 443.7134 430.2965 C 444.35374 433.5627 445.3805 438.8735 446.0208 442.23133 C 446.66117 445.58915 447.6882 451.0448 448.32856 454.49748 C 448.96888 457.95014 449.99565 463.56434 450.636 467.1157 C 451.27635 470.6671 452.30339 476.44258 452.9437 480.0934 C 453.58406 483.74427 454.6108 489.67454 455.25114 493.4284 C 455.89146 497.1823 456.91853 503.28993 457.55885 507.14884 C 458.1992 511.00776 459.22596 517.27297 459.8663 521.2408 C 460.50663 525.20877 461.53364 531.66519 462.174 535.74679 C 462.8144 539.82839 463.84138 546.46279 464.48173 550.658 C 465.12208 554.8533 466.1488 561.6688 466.78916 565.9833 C 467.42948 570.29769 468.45655 577.3192 469.09687 581.75357 C 469.7372 586.1879 470.76396 593.3836 471.40428 597.94308 C 472.04463 602.5025 473.07164 609.9244 473.712 614.6148 C 474.3524 619.3053 475.3794 626.928 476.01976 631.7486 C 476.66007 636.5692 477.68684 644.4019 478.32716 649.3586 C 478.96745 654.3153 479.99424 662.377 480.63456 667.47299 C 481.2749 672.5689 482.3019 680.84579 482.9423 686.08657 C 483.58268 691.3273 484.60966 699.8545 485.25 705.2447 C 485.89036 710.6349 487.55744 724.9353 487.55744 724.9353 "/>
<path transform="matrix(2.7777777,0,0,-2.7777777,37.452775,1555.7556)" stroke-width="1.19553" stroke-linecap="round" stroke-linejoin="round" fill="none" stroke="#d32f2f" d="M 28.34682 8.5045 C 28.34682 8.5045 30.0139 8.53165 30.65424 8.54227 C 31.29457 8.5529 32.32158 8.57019 32.96196 8.5811 C 33.60234 8.59201 34.62933 8.60977 35.26968 8.62097 C 35.91002 8.63217 36.93675 8.65039 37.57709 8.66188 C 38.21744 8.67337 39.24448 8.6921 39.88481 8.70389 C 40.52515 8.71568 41.5519 8.73486 42.19223 8.747 C 42.83257 8.75912 43.85957 8.77888 44.49995 8.79134 C 45.14034 8.80379 46.16734 8.824 46.80768 8.83678 C 47.44801 8.84955 48.4748 8.87036 49.11514 8.88348 C 49.75548 8.8966 50.78247 8.91791 51.4228 8.93138 C 52.06316 8.94485 53.08994 8.96675 53.73027 8.98059 C 54.3706 8.99443 55.39766 9.01694 56.038 9.03114 C 56.67833 9.04533 57.70508 9.0684 58.34541 9.08298 C 58.98575 9.09755 60.0128 9.12129 60.65314 9.13625 C 61.29347 9.1512 62.32022 9.1755 62.96056 9.19089 C 63.60089 9.20625 64.62788 9.23125 65.26828 9.24702 C 65.90866 9.2628 66.93565 9.28844 67.57599 9.30463 C 68.21634 9.32082 69.24312 9.34715 69.8834 9.36378 C 70.5237 9.38042 71.55049 9.40747 72.19083 9.42455 C 72.83116 9.44162 73.85817 9.46935 74.49855 9.48688 C 75.13893 9.50441 76.16594 9.53294 76.80627 9.55093 C 77.44661 9.56894 78.47334 9.59818 79.1137 9.61664 C 79.75403 9.63512 80.78102 9.66519 81.4214 9.68417 C 82.0618 9.70314 83.08879 9.73393 83.72913 9.7534 C 84.36946 9.77287 85.39621 9.80458 86.03654 9.82457 C 86.67688 9.84456 87.70393 9.87703 88.34427 9.89755 C 88.9846 9.91808 90.0114 9.9515 90.65173 9.9726 C 91.29207 9.99368 92.31906 10.02795 92.95941 10.04958 C 93.59975 10.07121 94.62653 10.10637 95.26688 10.1286 C 95.90721 10.15082 96.93425 10.187 97.57458 10.2098 C 98.21492 10.23259 99.24167 10.2696 99.882 10.29305 C 100.52234 10.31647 101.54935 10.3546 102.18973 10.37865 C 102.83011 10.4027 103.85712 10.44171 104.49745 10.46638 C 105.13779 10.49106 106.16455 10.53122 106.80489 10.55656 C 107.44522 10.58191 108.47226 10.62308 109.11261 10.6491 C 109.75294 10.67513 110.77968 10.71748 111.42001 10.74419 C 112.06036 10.7709 113.0874 10.81424 113.72774 10.84166 C 114.36807 10.8691 115.39482 10.91379 116.03516 10.94196 C 116.67549 10.97012 117.7025 11.0159 118.34288 11.04478 C 118.98326 11.07368 120.01027 11.12062 120.6506 11.15031 C 121.29094 11.18 122.31767 11.22833 122.95802 11.2588 C 123.59836 11.28929 124.6254 11.33873 125.26573 11.37001 C 125.90608 11.40129 126.93282 11.45222 127.57315 11.48434 C 128.21349 11.51646 129.24054 11.56859 129.88088 11.60156 C 130.52121 11.63454 131.548 11.6882 132.18834 11.72208 C 132.82868 11.75594 133.85565 11.811 134.49602 11.84576 C 135.13639 11.88054 136.16339 11.93697 136.80374 11.97266 C 137.44408 12.00836 138.47086 12.06639 139.1112 12.10304 C 139.75154 12.1397 140.77854 12.19922 141.41887 12.23685 C 142.05922 12.27446 143.086 12.33568 143.72634 12.37431 C 144.36667 12.41293 145.39369 12.47566 146.03406 12.51532 C 146.67443 12.555 147.7014 12.61949 148.34174 12.6602 C 148.98207 12.70091 150.00891 12.76698 150.6492 12.80878 C 151.28949 12.85059 152.31627 12.91866 152.95662 12.96156 C 153.59696 13.00449 154.62395 13.07408 155.26433 13.11813 C 155.90473 13.16219 156.93172 13.23389 157.57205 13.27914 C 158.21239 13.3244 159.23914 13.39787 159.87947 13.44432 C 160.5198 13.49075 161.54686 13.56627 162.1872 13.61397 C 162.82753 13.66168 163.85428 13.73921 164.49462 13.78815 C 165.13495 13.83708 166.16199 13.91646 166.80234 13.96672 C 167.44268 14.01698 168.46942 14.09883 169.10977 14.15045 C 169.7501 14.20207 170.7771 14.2859 171.41748 14.33888 C 172.05786 14.39186 173.08487 14.47797 173.7252 14.53233 C 174.36554 14.58672 175.39229 14.67499 176.03263 14.73085 C 176.67296 14.7867 177.70001 14.87761 178.34035 14.93495 C 178.98069 14.9923 180.00748 15.08537 180.64781 15.14421 C 181.28815 15.20306 182.31514 15.29872 182.95549 15.35915 C 183.59583 15.41957 184.6226 15.51778 185.26294 15.57983 C 185.90329 15.64189 186.9303 15.74277 187.57067 15.80649 C 188.21103 15.87022 189.238 15.97374 189.87834 16.03914 C 190.51868 16.10454 191.54552 16.21074 192.1858 16.2779 C 192.8261 16.34503 193.85289 16.45421 194.49323 16.52316 C 195.13356 16.59212 196.16056 16.7041 196.80095 16.7749 C 197.44133 16.8457 198.46833 16.96082 199.10866 17.03348 C 199.74901 17.10614 200.77574 17.22409 201.41608 17.29872 C 202.05641 17.37335 203.08347 17.49474 203.7238 17.57133 C 204.36414 17.64793 205.39089 17.7722 206.03122 17.85085 C 206.67156 17.92947 207.69857 18.0574 208.33895 18.13818 C 208.97933 18.21896 210.00632 18.35023 210.64667 18.43312 C 211.287 18.516 212.31374 18.65047 212.95409 18.73557 C 213.59442 18.82066 214.62146 18.95917 215.2618 19.04655 C 215.90215 19.13393 216.92888 19.27573 217.56922 19.36542 C 218.20955 19.45511 219.2366 19.60092 219.87694 19.69302 C 220.51728 19.78514 221.54407 19.93474 222.1844 20.02933 C 222.82474 20.12392 223.85172 20.27766 224.49208 20.37477 C 225.13245 20.4719 226.15946 20.62965 226.7998 20.72932 C 227.44014 20.82898 228.46692 20.99072 229.10726 21.09311 C 229.7476 21.19548 230.7746 21.36221 231.41493 21.46735 C 232.05527 21.57248 233.0821 21.74301 233.7224 21.85089 C 234.36269 21.95877 235.38948 22.13422 236.02982 22.24492 C 236.67015 22.35564 237.69716 22.53523 238.33754 22.64891 C 238.97792 22.76257 240.00492 22.9474 240.64527 23.06421 C 241.2856 23.181 242.31235 23.37083 242.9527 23.4907 C 243.59304 23.6106 244.62003 23.80522 245.2604 23.92827 C 245.90079 24.05132 246.9278 24.25128 247.56813 24.37756 C 248.20847 24.50385 249.23522 24.70883 249.87555 24.83852 C 250.51589 24.9682 251.54294 25.17918 252.18328 25.31235 C 252.82361 25.44553 253.85036 25.6617 254.49069 25.7984 C 255.13103 25.93512 256.15809 26.15742 256.79844 26.29776 C 257.43876 26.43808 258.46549 26.6658 259.10585 26.80986 C 259.74617 26.95393 260.77317 27.18816 261.41355 27.33617 C 262.05393 27.48416 263.08094 27.72464 263.72129 27.87662 C 264.3616 28.0286 265.38835 28.27559 266.0287 28.43153 C 266.669 28.58748 267.69609 28.84055 268.3364 29.00064 C 268.97676 29.16074 270.0035 29.42102 270.6439 29.58546 C 271.2842 29.7499 272.3112 30.01709 272.95155 30.18588 C 273.5919 30.35466 274.61869 30.62875 275.259 30.80202 C 275.89936 30.97527 276.9264 31.25679 277.56675 31.43462 C 278.20707 31.61243 279.2338 31.90102 279.87416 32.08365 C 280.51448 32.26628 281.5415 32.56337 282.1819 32.75096 C 282.82225 32.93855 283.84925 33.24318 284.4896 33.43573 C 285.12995 33.62828 286.15666 33.94112 286.797 34.13878 C 287.43736 34.33643 288.4644 34.65744 289.1047 34.86037 C 289.74507 35.06328 290.7718 35.3929 291.41215 35.60126 C 292.05247 35.80962 293.07954 36.14821 293.71986 36.36212 C 294.3602 36.57603 295.38697 36.92342 296.02729 37.14297 C 296.66764 37.36253 297.69465 37.71916 298.335 37.94466 C 298.9754 38.17017 300.00239 38.53677 300.64274 38.76833 C 301.28309 38.99986 302.3098 39.37585 302.95014 39.61353 C 303.59049 39.85118 304.61753 40.23727 305.25788 40.4813 C 305.8982 40.72531 306.92494 41.12178 307.56529 41.37228 C 308.2056 41.62279 309.2326 42.02966 309.873 42.28677 C 310.51338 42.54388 311.54039 42.96132 312.18074 43.22539 C 312.82106 43.48946 313.84785 43.91887 314.48817 44.1901 C 315.12846 44.4613 316.15528 44.90176 316.79563 45.18016 C 317.43595 45.45857 318.46296 45.91093 319.10334 46.19672 C 319.74369 46.4825 320.7707 46.94655 321.411 47.23996 C 322.05137 47.53337 323.07814 48.01031 323.71849 48.31151 C 324.3588 48.61272 325.38587 49.10164 326.0262 49.41087 C 326.66654 49.72011 327.69328 50.22292 328.33363 50.5404 C 328.97395 50.85788 330.00099 51.37328 330.64134 51.69914 C 331.28169 52.02501 332.3084 52.55449 332.94877 52.88907 C 333.5891 53.22365 334.6161 53.76697 335.25648 54.11061 C 335.89686 54.45425 336.92387 55.01292 337.5642 55.36586 C 338.20454 55.71878 339.2313 56.29211 339.8716 56.65428 C 340.51197 57.01645 341.539 57.60435 342.17936 57.97617 C 342.81968 58.34799 343.8464 58.95241 344.48677 59.3342 C 345.12709 59.71597 346.15415 60.33578 346.79447 60.72781 C 347.4348 61.11984 348.46156 61.75725 349.10188 62.15968 C 349.74223 62.5621 350.76924 63.2152 351.4096 63.62828 C 352.05 64.04137 353.077 64.71269 353.71733 65.13696 C 354.35768 65.56123 355.38447 66.25069 356.02476 66.6862 C 356.66505 67.12173 357.6919 67.82884 358.3322 68.27599 C 358.97257 68.72311 359.99958 69.4499 360.63996 69.90886 C 361.2803 70.36781 362.30729 71.11253 362.9476 71.58382 C 363.58796 72.05508 364.61473 72.82156 365.25508 73.30554 C 365.8954 73.78954 366.92247 74.57523 367.5628 75.07207 C 368.20314 75.56892 369.22987 76.37654 369.8702 76.8865 C 370.51054 77.39647 371.53755 78.22412 372.17793 78.74757 C 372.8183 79.27103 373.8453 80.12167 374.48567 80.65926 C 375.12599 81.19684 376.15275 82.07018 376.79307 82.62222 C 377.4334 83.17429 378.46046 84.07164 379.10078 84.63823 C 379.74113 85.2048 380.76789 86.12395 381.4082 86.70581 C 382.04856 87.28769 383.0756 88.23444 383.71595 88.83195 C 384.35627 89.42946 385.38304 90.3991 386.02336 91.01234 C 386.6637 91.62561 387.6907 92.62247 388.3311 93.25201 C 388.97148 93.88156 389.99848 94.90356 390.6388 95.54977 C 391.27915 96.19598 392.30589 97.24573 392.9462 97.9095 C 393.58656 98.57329 394.6136 99.6525 395.25395 100.33386 C 395.89427 101.01521 396.92103 102.12079 397.56138 102.8203 C 398.2017 103.51979 399.22874 104.65723 399.86909 105.37547 C 400.5094 106.09372 401.53623 107.25963 402.17655 107.99696 C 402.8169 108.73428 403.84388 109.93245 404.48423 110.68964 C 405.12458 111.44684 406.15135 112.67688 406.79167 113.45432 C 407.432 114.23177 408.459 115.49486 409.0994 116.29298 C 409.73979 117.09111 410.76679 118.38768 411.40715 119.20662 C 412.04747 120.02557 413.0742 121.35443 413.71455 122.19537 C 414.35487 123.03632 415.38194 124.40393 416.02226 125.26762 C 416.6626 126.13132 417.68934 127.53372 418.32969 128.4204 C 418.97004 129.30707 419.99708 130.74799 420.6374 131.6582 C 421.27775 132.56842 422.30448 134.04613 422.94483 134.98062 C 423.58515 135.91512 424.61216 137.43378 425.25254 138.3935 C 425.8929 139.35321 426.91993 140.91226 427.56028 141.89763 C 428.2006 142.883 429.22734 144.48328 429.86769 145.4953 C 430.508 146.50733 431.535 148.15291 432.1754 149.19165 C 432.81578 150.23038 433.84278 151.91609 434.48313 152.98181 C 435.12348 154.04753 436.15025 155.7786 436.79054 156.87265 C 437.43083 157.96669 438.4576 159.74318 439.09797 160.86692 C 439.73829 161.99065 440.7653 163.81797 441.40568 164.97177 C 442.04606 166.12558 443.07307 167.99843 443.7134 169.18292 C 444.35374 170.36742 445.3805 172.29271 446.0208 173.50887 C 446.66117 174.72502 447.6882 176.69982 448.32856 177.94823 C 448.96888 179.19664 449.99565 181.22498 450.636 182.50662 C 451.27635 183.78829 452.30339 185.87007 452.9437 187.18555 C 453.58406 188.501 454.6108 190.63666 455.25114 191.98773 C 455.89146 193.33882 456.91853 195.53554 457.55885 196.92319 C 458.1992 198.31084 459.22596 200.56482 459.8663 201.98905 C 460.50663 203.41327 461.53364 205.72614 462.174 207.18813 C 462.8144 208.65012 463.84138 211.02516 464.48173 212.5261 C 465.12208 214.02704 466.1488 216.46459 466.78916 218.00583 C 467.42948 219.54709 468.45655 222.05167 469.09687 223.63442 C 469.7372 225.21715 470.76396 227.78838 471.40428 229.41321 C 472.04463 231.03806 473.07164 233.6772 473.712 235.34511 C 474.3524 237.013 475.3794 239.72199 476.01976 241.43433 C 476.66007 243.14669 477.68684 245.92919 478.32716 247.68656 C 478.96745 249.44394 479.99424 252.2954 480.63456 254.10037 C 481.2749 255.90535 482.3019 258.84187 482.9423 260.69563 C 483.58268 262.54936 484.60966 265.55867 485.25 267.46095 C 485.89036 269.36329 487.55744 274.40629 487.55744 274.40629 "/>
<path transform="matrix(2.7777777,0,0,-2.7777777,37.452775,1555.7556)" stroke-width="1.19553" stroke-linecap="round" stroke-linejoin="round" fill="none" stroke="#c75000" d="M 28.34682 9.92192 C 28.34682 9.92192 30.0139 9.97621 30.65424 9.99747 C 31.29457 10.01872 32.32158 10.05328 32.96196 10.07512 C 33.60234 10.09695 34.62933 10.13246 35.26968 10.15486 C 35.91002 10.17728 36.93675 10.21368 37.57709 10.23668 C 38.21744 10.25969 39.24448 10.29709 39.88481 10.3207 C 40.52515 10.3443 41.5519 10.38268 42.19223 10.40694 C 42.83257 10.4312 43.85957 10.47069 44.49995 10.4956 C 45.14034 10.52052 46.16734 10.56096 46.80768 10.58652 C 47.44801 10.61206 48.4748 10.65364 49.11514 10.67989 C 49.75548 10.70612 50.78247 10.74876 51.4228 10.7757 C 52.06316 10.80264 53.08994 10.84644 53.73027 10.8741 C 54.3706 10.90178 55.39766 10.9468 56.038 10.9752 C 56.67833 11.0036 57.70508 11.04971 58.34541 11.07887 C 58.98575 11.10803 60.0128 11.15547 60.65314 11.18541 C 61.29347 11.21535 62.32022 11.26396 62.96056 11.29468 C 63.60089 11.32541 64.62788 11.3754 65.26828 11.40695 C 65.90866 11.4385 66.93565 11.48978 67.57599 11.52217 C 68.21634 11.55457 69.24312 11.60724 69.8834 11.64052 C 70.5237 11.67378 71.55049 11.72787 72.19083 11.76202 C 72.83116 11.79616 73.85817 11.8516 74.49855 11.88666 C 75.13893 11.92174 76.16594 11.97882 76.80627 12.01482 C 77.44661 12.05081 78.47334 12.10925 79.1137 12.14622 C 79.75403 12.1832 80.78102 12.24335 81.4214 12.2813 C 82.0618 12.31923 83.08879 12.38078 83.72913 12.41974 C 84.36946 12.45868 85.39621 12.52211 86.03654 12.5621 C 86.67688 12.6021 87.70393 12.66698 88.34427 12.70804 C 88.9846 12.7491 90.0114 12.81596 90.65173 12.85812 C 91.29207 12.9003 92.31906 12.9688 92.95941 13.01208 C 93.59975 13.05536 94.62653 13.12569 95.26688 13.17014 C 95.90721 13.21458 96.93425 13.2869 97.57458 13.33252 C 98.21492 13.37814 99.24167 13.45216 99.882 13.49901 C 100.52234 13.54587 101.54935 13.62215 102.18973 13.67024 C 102.83011 13.71835 103.85712 13.79636 104.49745 13.84572 C 105.13779 13.89507 106.16455 13.97533 106.80489 14.02602 C 107.44522 14.07672 108.47226 14.15909 109.11261 14.21114 C 109.75294 14.26318 110.77968 14.34784 111.42001 14.40126 C 112.06036 14.4547 113.0874 14.5414 113.72774 14.59628 C 114.36807 14.65115 115.39482 14.74046 116.03516 14.79683 C 116.67549 14.85318 117.7025 14.94467 118.34288 15.00249 C 118.98326 15.0603 120.01027 15.15417 120.6506 15.21356 C 121.29094 15.27293 122.31767 15.36957 122.95802 15.43053 C 123.59836 15.49149 124.6254 15.59038 125.26573 15.65295 C 125.90608 15.71553 126.93282 15.81737 127.57315 15.8816 C 128.21349 15.94585 129.24054 16.0501 129.88088 16.11604 C 130.52121 16.182 131.548 16.2893 132.18834 16.35706 C 132.82868 16.42482 133.85565 16.53493 134.49602 16.60446 C 135.13639 16.674 136.16339 16.78685 136.80374 16.85825 C 137.44408 16.92963 138.47086 17.04573 139.1112 17.11903 C 139.75154 17.19234 140.77854 17.31136 141.41887 17.38661 C 142.05922 17.46188 143.086 17.5843 143.72634 17.66158 C 144.36667 17.73885 145.39369 17.86426 146.03406 17.94359 C 146.67443 18.0229 147.7014 18.15187 148.34174 18.23329 C 148.98207 18.31471 150.00891 18.44687 150.6492 18.53049 C 151.28949 18.61412 152.31627 18.75021 152.95662 18.83604 C 153.59696 18.92188 154.62395 19.06105 155.26433 19.14919 C 155.90473 19.2373 156.93172 19.3807 157.57205 19.47122 C 158.21239 19.56174 159.23914 19.70868 159.87947 19.80157 C 160.5198 19.89447 161.54686 20.04547 162.1872 20.14087 C 162.82753 20.23625 163.85428 20.39131 164.49462 20.4892 C 165.13495 20.58708 166.16199 20.74585 166.80234 20.84637 C 167.44268 20.9469 168.46942 21.11057 169.10977 21.21384 C 169.7501 21.31711 170.7771 21.48473 171.41748 21.59068 C 172.05786 21.69664 173.08487 21.86885 173.7252 21.97762 C 174.36554 22.08638 175.39229 22.26291 176.03263 22.37463 C 176.67296 22.48634 177.70001 22.66812 178.34035 22.78282 C 178.98069 22.89752 180.00748 23.08366 180.64781 23.20137 C 181.28815 23.31908 182.31514 23.51035 182.95549 23.63121 C 183.59583 23.75208 184.6226 23.94843 185.26294 24.07257 C 185.90329 24.1967 186.9303 24.39847 187.57067 24.52592 C 188.21103 24.65338 189.238 24.86044 189.87834 24.99124 C 190.51868 25.12204 191.54552 25.3344 192.1858 25.4687 C 192.8261 25.60301 193.85289 25.82135 194.49323 25.95926 C 195.13356 26.09717 196.16056 26.32112 196.80095 26.46272 C 197.44133 26.60434 198.46833 26.83453 199.10866 26.97989 C 199.74901 27.12523 200.77574 27.36108 201.41608 27.51035 C 202.05641 27.65959 203.08347 27.9024 203.7238 28.0556 C 204.36414 28.20882 205.39089 28.45732 206.03122 28.61461 C 206.67156 28.77191 207.69857 29.02774 208.33895 29.18932 C 208.97933 29.35088 210.00632 29.6134 210.64667 29.77916 C 211.287 29.94493 212.31374 30.21384 212.95409 30.38405 C 213.59442 30.55426 214.62146 30.83128 215.2618 31.00606 C 215.90215 31.18083 216.92888 31.46439 217.56922 31.64378 C 218.20955 31.82317 219.2366 32.1148 219.87694 32.29903 C 220.51728 32.48325 221.54407 32.7824 222.1844 32.97156 C 222.82474 33.16074 223.85172 33.46823 224.49208 33.66248 C 225.13245 33.85674 226.15946 34.17226 226.7998 34.37158 C 227.44014 34.57092 228.46692 34.89435 229.10726 35.09914 C 229.7476 35.30392 230.7746 35.63733 231.41493 35.84761 C 232.05527 36.05788 233.0821 36.39893 233.7224 36.6147 C 234.36269 36.83047 235.38948 37.18135 236.02982 37.40279 C 236.67015 37.62422 237.69716 37.9834 238.33754 38.21072 C 238.97792 38.43806 240.00492 38.80774 240.64527 39.04134 C 241.2856 39.27493 242.31235 39.65459 242.9527 39.89435 C 243.59304 40.13411 244.62003 40.52338 245.2604 40.76947 C 245.90079 41.01555 246.9278 41.41548 247.56813 41.66806 C 248.20847 41.92065 249.23522 42.33058 249.87555 42.58998 C 250.51589 42.84937 251.54294 43.27129 252.18328 43.53764 C 252.82361 43.80399 253.85036 44.2363 254.49069 44.50974 C 255.13103 44.78317 256.15809 45.22777 256.79844 45.50844 C 257.43876 45.78911 258.46549 46.24452 259.10585 46.53265 C 259.74617 46.8208 260.77317 47.28923 261.41355 47.58524 C 262.05393 47.88126 263.08094 48.36223 263.72129 48.66618 C 264.3616 48.97012 265.38835 49.4641 266.0287 49.776 C 266.669 50.08789 267.69609 50.594 268.3364 50.9142 C 268.97676 51.2344 270.0035 51.75494 270.6439 52.08385 C 271.2842 52.41273 272.3112 52.94708 272.95155 53.28467 C 273.5919 53.62227 274.61869 54.17046 275.259 54.51697 C 275.89936 54.86348 276.9264 55.42651 277.56675 55.78215 C 278.20707 56.13779 279.2338 56.71495 279.87416 57.08023 C 280.51448 57.4455 281.5415 58.03967 282.1819 58.41486 C 282.82225 58.79004 283.84925 59.39929 284.4896 59.7844 C 285.12995 60.16948 286.15666 60.79514 286.797 61.19046 C 287.43736 61.58578 288.4644 62.22783 289.1047 62.63367 C 289.74507 63.03949 290.7718 63.69873 291.41215 64.11545 C 292.05247 64.53217 293.07954 65.20935 293.71986 65.63716 C 294.3602 66.06497 295.38697 66.75974 296.02729 67.19888 C 296.66764 67.63802 297.69465 68.35121 298.335 68.80225 C 298.9754 69.25328 300.00239 69.98648 300.64274 70.44958 C 301.28309 70.91267 302.3098 71.66464 302.95014 72.13998 C 303.59049 72.61531 304.61753 73.38747 305.25788 73.87552 C 305.8982 74.36356 306.92494 75.15648 307.56529 75.65749 C 308.2056 76.1585 309.2326 76.97226 309.873 77.48648 C 310.51338 78.0007 311.54039 78.83556 312.18074 79.36371 C 312.82106 79.89188 313.84785 80.75069 314.48817 81.29312 C 315.12846 81.83556 316.15528 82.71643 316.79563 83.27325 C 317.43595 83.83008 318.46296 84.7348 319.10334 85.30638 C 319.74369 85.87796 320.7707 86.806 321.411 87.39284 C 322.05137 87.97968 323.07814 88.93356 323.71849 89.53596 C 324.3588 90.13838 325.38587 91.11618 326.0262 91.73468 C 326.66654 92.35316 327.69328 93.35875 328.33363 93.99371 C 328.97395 94.6287 330.00099 95.65947 330.64134 96.31122 C 331.28169 96.96295 332.3084 98.02193 332.94877 98.69109 C 333.5891 99.36024 334.6161 100.44685 335.25648 101.13416 C 335.89686 101.82144 336.92387 102.9388 337.5642 103.64465 C 338.20454 104.35051 339.2313 105.49715 339.8716 106.2215 C 340.51197 106.94583 341.539 108.1216 342.17936 108.86526 C 342.81968 109.60893 343.8464 110.81776 344.48677 111.58133 C 345.12709 112.3449 346.15415 113.58447 346.79447 114.36853 C 347.4348 115.15259 348.46156 116.42743 349.10188 117.2323 C 349.74223 118.03717 350.76924 119.3433 351.4096 120.1695 C 352.05 120.99567 353.077 122.33829 353.71733 123.18686 C 354.35768 124.03542 355.38447 125.41428 356.02476 126.28534 C 356.66505 127.15639 357.6919 128.57062 358.3322 129.46489 C 358.97257 130.35916 359.99958 131.81273 360.63996 132.73064 C 361.2803 133.64855 362.30729 135.13802 362.9476 136.08057 C 363.58796 137.02312 364.61473 138.55603 365.25508 139.524 C 365.8954 140.49198 366.92247 142.06339 367.5628 143.05709 C 368.20314 144.05078 369.22987 145.666 369.8702 146.68593 C 370.51054 147.70587 371.53755 149.36116 372.17793 150.40808 C 372.8183 151.45499 373.8453 153.15627 374.48567 154.23145 C 375.12599 155.30664 376.15275 157.05324 376.79307 158.15738 C 377.4334 159.2615 378.46046 161.0562 379.10078 162.18936 C 379.74113 163.32254 380.76789 165.16083 381.4082 166.32457 C 382.04856 167.48831 383.0756 169.38178 383.71595 170.57682 C 384.35627 171.77187 385.38304 173.7111 386.02336 174.93764 C 386.6637 176.16419 387.6907 178.15785 388.3311 179.41695 C 388.97148 180.67606 389.99848 182.72005 390.6388 184.01248 C 391.27915 185.3049 392.30589 187.40439 392.9462 188.73195 C 393.58656 190.05951 394.6136 192.21793 395.25395 193.58065 C 395.89427 194.94338 396.92103 197.15448 397.56138 198.5535 C 398.2017 199.95253 399.22874 202.22739 399.86909 203.66388 C 400.5094 205.10037 401.53623 207.4322 402.17655 208.90686 C 402.8169 210.38152 403.84388 212.77782 404.48423 214.2922 C 405.12458 215.8066 406.15135 218.26665 406.79167 219.82157 C 407.432 221.37647 408.459 223.90265 409.0994 225.49889 C 409.73979 227.09513 410.76679 229.68828 411.40715 231.32617 C 412.04747 232.96407 413.0742 235.6218 413.71455 237.3037 C 414.35487 238.9856 415.38194 241.72077 416.02226 243.44818 C 416.6626 245.1756 417.68934 247.98036 418.32969 249.75373 C 418.97004 251.52709 419.99708 254.4089 420.6374 256.22935 C 421.27775 258.04978 422.30448 261.00517 422.94483 262.87419 C 423.58515 264.7432 424.61216 267.7805 425.25254 269.69993 C 425.8929 271.61936 426.91993 274.73747 427.56028 276.7082 C 428.2006 278.67893 429.22734 281.87947 429.86769 283.90354 C 430.508 285.9276 431.535 289.2189 432.1754 291.29637 C 432.81578 293.37385 433.84278 296.74513 434.48313 298.87657 C 435.12348 301.008 436.15025 304.47026 436.79054 306.65834 C 437.43083 308.84645 438.4576 312.39945 439.09797 314.6469 C 439.73829 316.89436 440.7653 320.54884 441.40568 322.85649 C 442.04606 325.16413 443.07307 328.9099 443.7134 331.27888 C 444.35374 333.64787 445.3805 337.49824 446.0208 339.93055 C 446.66117 342.36286 447.6882 346.3124 448.32856 348.8093 C 448.96888 351.30619 449.99565 355.36308 450.636 357.9264 C 451.27635 360.48973 452.30339 364.65306 452.9437 367.284 C 453.58406 369.91496 454.6108 374.18647 455.25114 376.88859 C 455.89146 379.5907 456.91853 383.9839 457.55885 386.75923 C 458.1992 389.53453 459.22596 394.04264 459.8663 396.89109 C 460.50663 399.73957 461.53364 404.36506 462.174 407.28904 C 462.8144 410.21299 463.84138 414.96318 464.48173 417.96507 C 465.12208 420.96693 466.1488 425.8419 466.78916 428.92445 C 467.42948 432.00697 468.45655 437.0163 469.09687 440.18186 C 469.7372 443.34739 470.76396 448.48976 471.40428 451.73945 C 472.04463 454.9891 473.07164 460.26753 473.712 463.60334 C 474.3524 466.93913 475.3794 472.35697 476.01976 475.78166 C 476.66007 479.20634 477.68684 484.77137 478.32716 488.28614 C 478.96745 491.8009 479.99424 497.50379 480.63456 501.11375 C 481.2749 504.72373 482.3019 510.59678 482.9423 514.30429 C 483.58268 518.0118 484.60966 524.0301 485.25 527.8348 C 485.89036 531.63949 487.55744 541.72567 487.55744 541.72567 "/>
<symbol id="font_3_3">
<path d="M .45700003 .586 C .461 .6 .461 .602 .461 .609 C .461 .62700006 .447 .63600006 .432 .63600006 C .42200003 .63600006 .40600003 .63 .397 .615 C .395 .61 .387 .579 .38300003 .561 C .37600003 .535 .36900003 .508 .363 .48100005 L .318 .301 C .314 .286 .271 .21600002 .20500002 .21600002 C .15400002 .21600002 .143 .26000003 .143 .29700003 C .143 .34300003 .16000001 .40500004 .194 .49300004 C .21000001 .53400006 .21400002 .545 .21400002 .56500008 C .21400002 .61 .18200001 .6470001 .13200002 .6470001 C .037 .6470001 0 .50200006 0 .49300004 C 0 .48300005 .01 .48300005 .012 .48300005 C .022000002 .48300005 .023 .485 .028000003 .50100007 C .055000009 .595 .095000009 .625 .12900001 .625 C .13700001 .625 .15400002 .625 .15400002 .59300008 C .15400002 .568 .14400001 .54200008 .13700001 .523 C .097 .41700004 .079 .36 .079 .31300003 C .079 .224 .142 .194 .201 .194 C .24000003 .194 .274 .21100001 .30200003 .23900002 C .289 .187 .277 .13800001 .237 .08500001 C .21100001 .051 .17300001 .022 .127 .022 C .113000009 .022 .068 .025000006 .051000008 .06400001 C .067 .06400001 .080000009 .06400001 .094000007 .076000008 C .104 .08500001 .11400001 .098000008 .11400001 .117000009 C .11400001 .148 .087000008 .15200001 .07700001 .15200001 C .054000006 .15200001 .021 .136 .021 .087000008 C .021 .037 .065000008 0 .127 0 C .23 0 .333 .091000009 .361 .20400001 L .45700003 .586 Z "/>
</symbol>
<use xlink:href="#font_3_3" transform="matrix(27.673888,0,0,-27.673888,178.48307,1193.8953)" fill="#2e7d32"/>
<symbol id="font_0_b">
<path d="M .63100007 .19400002 C .646 .19400002 .665 .19400002 .665 .214 C .665 .23400001 .646 .23400001 .632 .23400001 L .033 .23400001 C .019000002 .23400001 0 .23400001 0 .214 C 0 .19400002 .019000002 .19400002 .034 .19400002 L .63100007 .19400002 M .632 0 C .646 0 .665 0 .665 .02000001 C .665 .040000008 .646 .040000008 .63100007 .040000008 L .034 .040000008 C .019000002 .040000008 0 .040000008 0 .02000001 C 0 0 .019000002 0 .033 0 L .632 0 Z "/>
</symbol>
<use xlink:href="#font_0_b" transform="matrix(27.673888,0,0,-27.673888,201.4775,1184.5415)" fill="#2e7d32"/>
<use xlink:href="#font_0_2" transform="matrix(27.673888,0,0,-27.673888,231.61435,1188.2222)" fill="#2e7d32"/>
<symbol id="font_3_1">
<path d="M .117000009 .194 C .117000009 .26 .092 .29900003 .05300001 .29900003 C .020000004 .29900003 0 .274 0 .246 C 0 .21900001 .020000004 .193 .05300001 .193 C .065000008 .193 .078 .197 .08800001 .206 C .091 .208 .092 .209 .093 .209 C .094000007 .209 .095000009 .208 .095000009 .194 C .095000009 .12 .06000001 .060000004 .027000003 .026999996 C .016000003 .016000003 .016000003 .013999999 .016000003 .0109999929 C .016000003 .003999993 .021000006 0 .026 0 C .037 0 .117000009 .077 .117000009 .194 Z "/>
</symbol>
<use xlink:href="#font_3_1" transform="matrix(27.673888,0,0,-27.673888,245.35771,1193.5632)" fill="#2e7d32"/>
<use xlink:href="#font_0_5" transform="matrix(27.673888,0,0,-27.673888,251.43874,1188.2222)" fill="#2e7d32"/>
<use xlink:href="#font_0_1" transform="matrix(27.673888,0,0,-27.673888,265.5801,1188.8309)" fill="#2e7d32"/>
<use xlink:href="#font_0_8" transform="matrix(27.673888,0,0,-27.673888,279.8875,1188.8309)" fill="#2e7d32"/>
<use xlink:href="#font_0_4" transform="matrix(27.673888,0,0,-27.673888,293.337,1188.8309)" fill="#2e7d32"/>
<use xlink:href="#font_0_2" transform="matrix(27.673888,0,0,-27.673888,308.47465,1188.2222)" fill="#2e7d32"/>
<use xlink:href="#font_0_4" transform="matrix(27.673888,0,0,-27.673888,321.0109,1188.8309)" fill="#2e7d32"/>
<symbol id="font_4_1">
<path d="M .201 .116000007 C .19100002 .082 .15800002 .028 .107 .028 C .10400001 .028 .07400001 .028 .053000004 .042000005 C .094000007 .055000005 .09700001 .091 .09700001 .097 C .09700001 .119 .080000009 .134 .057000005 .134 C .029000007 .134 0 .11 0 .073 C 0 .023000002 .056 0 .10500001 0 C .15100003 0 .192 .029000003 .21700001 .071 C .241 .018000002 .296 0 .336 0 C .451 0 .512 .125 .512 .15300001 C .512 .16600001 .49900005 .16600001 .49600003 .16600001 C .48200003 .16600001 .48100005 .16100002 .47700004 .14900002 C .456 .08 .39600004 .028 .34 .028 C .3 .028 .279 .055000005 .279 .093 C .279 .119 .303 .21000001 .331 .321 C .351 .398 .39600004 .423 .42900003 .423 C .43100003 .423 .46200005 .423 .483 .409 C .451 .4 .439 .372 .439 .354 C .439 .33200003 .456 .317 .479 .317 C .50200006 .317 .535 .336 .535 .37800003 C .535 .43400003 .47100006 .451 .43100003 .451 C .381 .451 .34100003 .418 .319 .38 C .301 .421 .255 .451 .199 .451 C .087000008 .451 .023000002 .328 .023000002 .298 C .023000002 .285 .037 .285 .040000008 .285 C .053000004 .285 .054000006 .289 .059000009 .30200003 C .084 .38 .14700002 .423 .19600001 .423 C .229 .423 .256 .405 .256 .357 C .256 .337 .24400002 .287 .23500002 .25300003 L .201 .116000007 Z "/>
</symbol>
<use xlink:href="#font_4_1" transform="matrix(19.371666,0,0,-19.371666,334.61595,1178.3715)" fill="#2e7d32"/>
<use xlink:href="#font_3_3" transform="matrix(27.673888,0,0,-27.673888,178.31365,1233.2675)" fill="#d32f2f"/>
<use xlink:href="#font_0_b" transform="matrix(27.673888,0,0,-27.673888,201.31085,1223.9137)" fill="#d32f2f"/>
<use xlink:href="#font_0_2" transform="matrix(27.673888,0,0,-27.673888,231.4477,1227.5944)" fill="#d32f2f"/>
<use xlink:href="#font_3_1" transform="matrix(27.673888,0,0,-27.673888,245.1883,1232.9354)" fill="#d32f2f"/>
<use xlink:href="#font_0_4" transform="matrix(27.673888,0,0,-27.673888,251.65676,1228.2031)" fill="#d32f2f"/>
<use xlink:href="#font_0_9" transform="matrix(27.673888,0,0,-27.673888,265.49369,1228.2031)" fill="#d32f2f"/>
<use xlink:href="#font_0_2" transform="matrix(27.673888,0,0,-27.673888,280.63133,1227.5944)" fill="#d32f2f"/>
<use xlink:href="#font_0_a" transform="matrix(27.673888,0,0,-27.673888,293.16758,1228.2031)" fill="#d32f2f"/>
<use xlink:href="#font_0_2" transform="matrix(27.673888,0,0,-27.673888,308.3052,1227.5944)" fill="#d32f2f"/>
<use xlink:href="#font_4_1" transform="matrix(19.371666,0,0,-19.371666,320.61039,1217.7437)" fill="#d32f2f"/>
<use xlink:href="#font_3_3" transform="matrix(27.673888,0,0,-27.673888,180.4692,1115.1508)" fill="#1565c0"/>
<use xlink:href="#font_0_b" transform="matrix(27.673888,0,0,-27.673888,203.46364,1105.797)" fill="#1565c0"/>
<use xlink:href="#font_0_3" transform="matrix(27.673888,0,0,-27.673888,232.5212,1109.4777)" fill="#1565c0"/>
<symbol id="font_5_1">
<path d="M .106 .05299999 C .106 .082 .08200001 .10599999 .05300001 .10599999 C .024000004 .10599999 0 .082 0 .05299999 C 0 .024000004 .024000004 0 .05300001 0 C .08200001 0 .106 .024000004 .106 .05299999 Z "/>
</symbol>
<use xlink:href="#font_5_1" transform="matrix(27.673888,0,0,-27.673888,253.49106,1104.0259)" fill="#1565c0"/>
<use xlink:href="#font_0_2" transform="matrix(27.673888,0,0,-27.673888,267.413,1109.4777)" fill="#1565c0"/>
<use xlink:href="#font_3_1" transform="matrix(27.673888,0,0,-27.673888,281.16609,1114.8187)" fill="#1565c0"/>
<use xlink:href="#font_0_5" transform="matrix(27.673888,0,0,-27.673888,287.2471,1109.4777)" fill="#1565c0"/>
<use xlink:href="#font_0_1" transform="matrix(27.673888,0,0,-27.673888,301.38847,1110.0864)" fill="#1565c0"/>
<use xlink:href="#font_0_8" transform="matrix(27.673888,0,0,-27.673888,315.69587,1110.0864)" fill="#1565c0"/>
<use xlink:href="#font_0_4" transform="matrix(27.673888,0,0,-27.673888,329.14537,1110.0864)" fill="#1565c0"/>
<use xlink:href="#font_0_2" transform="matrix(27.673888,0,0,-27.673888,344.283,1109.4777)" fill="#1565c0"/>
<use xlink:href="#font_0_4" transform="matrix(27.673888,0,0,-27.673888,356.8192,1110.0864)" fill="#1565c0"/>
<use xlink:href="#font_4_1" transform="matrix(19.371666,0,0,-19.371666,370.4243,1099.627)" fill="#1565c0"/>
<use xlink:href="#font_3_3" transform="matrix(27.673888,0,0,-27.673888,179.51364,1154.5231)" fill="#c75000"/>
<use xlink:href="#font_0_b" transform="matrix(27.673888,0,0,-27.673888,202.50807,1145.1693)" fill="#c75000"/>
<use xlink:href="#font_0_3" transform="matrix(27.673888,0,0,-27.673888,231.56565,1148.85)" fill="#c75000"/>
<use xlink:href="#font_5_1" transform="matrix(27.673888,0,0,-27.673888,252.5355,1143.3982)" fill="#c75000"/>
<use xlink:href="#font_0_2" transform="matrix(27.673888,0,0,-27.673888,266.45744,1148.85)" fill="#c75000"/>
<use xlink:href="#font_3_1" transform="matrix(27.673888,0,0,-27.673888,280.2105,1154.191)" fill="#c75000"/>
<use xlink:href="#font_0_4" transform="matrix(27.673888,0,0,-27.673888,286.67897,1149.4588)" fill="#c75000"/>
<use xlink:href="#font_0_9" transform="matrix(27.673888,0,0,-27.673888,300.5159,1149.4588)" fill="#c75000"/>
<use xlink:href="#font_0_2" transform="matrix(27.673888,0,0,-27.673888,315.65354,1148.85)" fill="#c75000"/>
<use xlink:href="#font_0_a" transform="matrix(27.673888,0,0,-27.673888,328.1898,1149.4588)" fill="#c75000"/>
<use xlink:href="#font_0_2" transform="matrix(27.673888,0,0,-27.673888,343.32743,1148.85)" fill="#c75000"/>
<use xlink:href="#font_4_1" transform="matrix(19.371666,0,0,-19.371666,355.6326,1138.9993)" fill="#c75000"/>
<path transform="matrix(2.7777777,0,0,-2.7777777,37.452775,1555.7556)" stroke-width=".3985" stroke-linecap="round" stroke-linejoin="round" fill="none" stroke="#000000" d="M 59.18434 11.33932 C 59.18434 12.7149 58.06923 13.83002 56.69365 13.83002 C 55.31805 13.83002 54.20296 12.7149 54.20296 11.33932 C 54.20296 9.96375 55.31805 8.84863 56.69365 8.84863 C 58.06923 8.84863 59.18434 9.96375 59.18434 11.33932 Z M 56.69365 11.33932 "/>
<path transform="matrix(2.7777777,0,0,-2.7777777,37.452775,1555.7556)" stroke-width=".3985" stroke-linecap="round" stroke-linejoin="round" fill="none" stroke="#000000" d="M 87.53116 11.33932 C 87.53116 12.7149 86.41605 13.83002 85.04047 13.83002 C 83.66489 13.83002 82.54977 12.7149 82.54977 11.33932 C 82.54977 9.96375 83.66489 8.84863 85.04047 8.84863 C 86.41605 8.84863 87.53116 9.96375 87.53116 11.33932 Z M 85.04047 11.33932 "/>
<path transform="matrix(2.7777777,0,0,-2.7777777,37.452775,1555.7556)" stroke-width=".3985" stroke-linecap="round" stroke-linejoin="round" fill="none" stroke="#000000" d="M 115.87799 14.17416 C 115.87799 15.54974 114.76288 16.66486 113.3873 16.66486 C 112.01172 16.66486 110.8966 15.54974 110.8966 14.17416 C 110.8966 12.79858 112.01172 11.68347 113.3873 11.68347 C 114.76288 11.68347 115.87799 12.79858 115.87799 14.17416 Z M 113.3873 14.17416 "/>
<path transform="matrix(2.7777777,0,0,-2.7777777,37.452775,1555.7556)" stroke-width=".3985" stroke-linecap="round" stroke-linejoin="round" fill="none" stroke="#000000" d="M 144.22481 15.59158 C 144.22481 16.96716 143.1097 18.08228 141.73412 18.08228 C 140.35854 18.08228 139.24343 16.96716 139.24343 15.59158 C 139.24343 14.216 140.35854 13.10089 141.73412 13.10089 C 143.1097 13.10089 144.22481 14.216 144.22481 15.59158 Z M 141.73412 15.59158 "/>
<path transform="matrix(2.7777777,0,0,-2.7777777,37.452775,1555.7556)" stroke-width=".3985" stroke-linecap="round" stroke-linejoin="round" fill="none" stroke="#000000" d="M 172.57164 19.84384 C 172.57164 21.21942 171.45653 22.33453 170.08095 22.33453 C 168.70537 22.33453 167.59026 21.21942 167.59026 19.84384 C 167.59026 18.46825 168.70537 17.35315 170.08095 17.35315 C 171.45653 17.35315 172.57164 18.46825 172.57164 19.84384 Z M 170.08095 19.84384 "/>
<path transform="matrix(2.7777777,0,0,-2.7777777,37.452775,1555.7556)" stroke-width=".3985" stroke-linecap="round" stroke-linejoin="round" fill="none" stroke="#000000" d="M 200.91846 35.43542 C 200.91846 36.811 199.80335 37.92612 198.42777 37.92612 C 197.05219 37.92612 195.93708 36.811 195.93708 35.43542 C 195.93708 34.05984 197.05219 32.94473 198.42777 32.94473 C 199.80335 32.94473 200.91846 34.05984 200.91846 35.43542 Z M 198.42777 35.43542 "/>
<path transform="matrix(2.7777777,0,0,-2.7777777,37.452775,1555.7556)" stroke-width=".3985" stroke-linecap="round" stroke-linejoin="round" fill="none" stroke="#000000" d="M 229.26529 45.35735 C 229.26529 46.73293 228.15018 47.84804 226.7746 47.84804 C 225.39902 47.84804 224.2839 46.73293 224.2839 45.35735 C 224.2839 43.98177 225.39902 42.86665 226.7746 42.86665 C 228.15018 42.86665 229.26529 43.98177 229.26529 45.35735 Z M 226.7746 45.35735 "/>
<path transform="matrix(2.7777777,0,0,-2.7777777,37.452775,1555.7556)" stroke-width=".3985" stroke-linecap="round" stroke-linejoin="round" fill="none" stroke="#000000" d="M 257.6121 53.86185 C 257.6121 55.23743 256.497 56.35254 255.12142 56.35254 C 253.74584 56.35254 252.63072 55.23743 252.63072 53.86185 C 252.63072 52.48627 253.74584 51.37115 255.12142 51.37115 C 256.497 51.37115 257.6121 52.48627 257.6121 53.86185 Z M 255.12142 53.86185 "/>
<path transform="matrix(2.7777777,0,0,-2.7777777,37.452775,1555.7556)" stroke-width=".3985" stroke-linecap="round" stroke-linejoin="round" fill="none" stroke="#000000" d="M 285.95896 62.36635 C 285.95896 63.74193 284.84385 64.85704 283.46827 64.85704 C 282.09269 64.85704 280.97755 63.74193 280.97755 62.36635 C 280.97755 60.99077 282.09269 59.87566 283.46827 59.87566 C 284.84385 59.87566 285.95896 60.99077 285.95896 62.36635 Z M 283.46827 62.36635 "/>
<path transform="matrix(2.7777777,0,0,-2.7777777,37.452775,1555.7556)" stroke-width=".3985" stroke-linecap="round" stroke-linejoin="round" fill="none" stroke="#000000" d="M 314.30577 97.80179 C 314.30577 99.17737 313.19065 100.29248 311.81507 100.29248 C 310.43949 100.29248 309.32438 99.17737 309.32438 97.80179 C 309.32438 96.42621 310.43949 95.3111 311.81507 95.3111 C 313.19065 95.3111 314.30577 96.42621 314.30577 97.80179 Z M 311.81507 97.80179 "/>
<path transform="matrix(2.7777777,0,0,-2.7777777,37.452775,1555.7556)" stroke-width=".3985" stroke-linecap="round" stroke-linejoin="round" fill="none" stroke="#000000" d="M 342.6526 141.74172 C 342.6526 143.1173 341.53749 144.2324 340.1619 144.2324 C 338.78633 144.2324 337.6712 143.1173 337.6712 141.74172 C 337.6712 140.36614 338.78633 139.25102 340.1619 139.25102 C 341.53749 139.25102 342.6526 140.36614 342.6526 141.74172 Z M 340.1619 141.74172 "/>
<path transform="matrix(2.7777777,0,0,-2.7777777,37.452775,1555.7556)" stroke-width=".3985" stroke-linecap="round" stroke-linejoin="round" fill="none" stroke="#000000" d="M 370.9994 172.9249 C 370.9994 174.30048 369.8843 175.41559 368.5087 175.41559 C 367.13313 175.41559 366.018 174.30048 366.018 172.9249 C 366.018 171.54932 367.13313 170.4342 368.5087 170.4342 C 369.8843 170.4342 370.9994 171.54932 370.9994 172.9249 Z M 368.5087 172.9249 "/>
<path transform="matrix(2.7777777,0,0,-2.7777777,37.452775,1555.7556)" stroke-width=".3985" stroke-linecap="round" stroke-linejoin="round" fill="none" stroke="#000000" d="M 399.34626 208.36034 C 399.34626 209.73592 398.2311 210.85103 396.85557 210.85103 C 395.47999 210.85103 394.36485 209.73592 394.36485 208.36034 C 394.36485 206.98474 395.47999 205.86965 396.85557 205.86965 C 398.2311 205.86965 399.34626 206.98474 399.34626 208.36034 Z M 396.85557 208.36034 "/>
<path transform="matrix(2.7777777,0,0,-2.7777777,37.452775,1555.7556)" stroke-width=".3985" stroke-linecap="round" stroke-linejoin="round" fill="none" stroke="#000000" d="M 427.69306 276.39637 C 427.69306 277.77195 426.57798 278.88706 425.20237 278.88706 C 423.82679 278.88706 422.71168 277.77195 422.71168 276.39637 C 422.71168 275.02079 423.82679 273.90568 425.20237 273.90568 C 426.57798 273.90568 427.69306 275.02079 427.69306 276.39637 Z M 425.20237 276.39637 "/>
<path transform="matrix(2.7777777,0,0,-2.7777777,37.452775,1555.7556)" stroke-width=".3985" stroke-linecap="round" stroke-linejoin="round" fill="none" stroke="#000000" d="M 456.0399 430.89485 C 456.0399 432.27043 454.92478 433.38554 453.5492 433.38554 C 452.1736 433.38554 451.0585 432.27043 451.0585 430.89485 C 451.0585 429.51927 452.1736 428.40415 453.5492 428.40415 C 454.92478 428.40415 456.0399 429.51927 456.0399 430.89485 Z M 453.5492 430.89485 "/>
<path transform="matrix(2.7777777,0,0,-2.7777777,37.452775,1555.7556)" stroke-width=".3985" stroke-linecap="round" stroke-linejoin="round" fill="none" stroke="#000000" d="M 484.3867 551.3753 C 484.3867 552.7509 483.2716 553.866 481.896 553.866 C 480.52043 553.866 479.40534 552.7509 479.40534 551.3753 C 479.40534 549.99978 480.52043 548.8846 481.896 548.8846 C 483.2716 548.8846 484.3867 549.99978 484.3867 551.3753 Z M 481.896 551.3753 "/>
<use xlink:href="#font_3_3" transform="matrix(27.673888,0,0,-27.673888,137.27474,29.181448)"/>
<symbol id="font_3_2">
<path d="M .305 .31300003 C .311 .33900003 .334 .43100003 .404 .43100003 C .409 .43100003 .433 .43100003 .454 .418 C .426 .41300003 .40600003 .388 .40600003 .36400003 C .40600003 .34800003 .417 .32900004 .444 .32900004 C .46600003 .32900004 .498 .34700004 .498 .38700003 C .498 .43900005 .439 .45300005 .405 .45300005 C .347 .45300005 .312 .40000005 .3 .37700004 C .275 .44300003 .221 .45300005 .19200002 .45300005 C .08800001 .45300005 .031000002 .32400004 .031000002 .29900003 C .031000002 .28900004 .041 .28900004 .043000007 .28900004 C .051000008 .28900004 .054000006 .291 .056 .3 C .09 .40600003 .156 .43100003 .19000001 .43100003 C .209 .43100003 .244 .42200003 .244 .36400003 C .244 .33300004 .22700002 .26600004 .19000001 .126 C .17400001 .064 .13900002 .022000002 .095000009 .022000002 C .08900001 .022000002 .06600001 .022000002 .045 .035 C .07000001 .040000004 .09200001 .061 .09200001 .089 C .09200001 .116000007 .07000001 .124000009 .055000009 .124000009 C .025 .124000009 0 .098000008 0 .06600001 C 0 .020000002 .050000006 0 .094000007 0 C .16000001 0 .19600001 .07000001 .19900002 .076000008 C .21100001 .039 .24700003 0 .307 0 C .41 0 .467 .12900001 .467 .15400002 C .467 .16400002 .458 .16400002 .455 .16400002 C .446 .16400002 .444 .16000001 .442 .15300001 C .409 .046 .341 .022000002 .30900003 .022000002 C .27 .022000002 .254 .054 .254 .08800001 C .254 .11000001 .26 .13200002 .271 .17600002 L .305 .31300003 Z "/>
</symbol>
<use xlink:href="#font_3_2" transform="matrix(27.673888,0,0,-27.673888,1396.4885,1528.5516)"/>
</g>
</g>
</g>
</svg>
