<svg xmlns="http://www.w3.org/2000/svg" xmlns:xlink="http://www.w3.org/1999/xlink" version="1.1" width="208.372" height="199.848" viewBox="0 0 208.372 199.848">
<defs>
<clipPath id="clip_0">
<path transform="matrix(1,0,0,-1,9.736,198.63501)" d="M0 0H198.43842V198.43842H0Z"/>
</clipPath>
<clipPath id="clip_1">
<path transform="matrix(1,0,0,-1,9.736,198.63501)" d="M0 0V198.43842H198.43842V0ZM198.43842 198.43842"/>
</clipPath>
<clipPath id="clip_2">
<path transform="matrix(1,0,0,-1,9.736,198.63501)" d="M14.17416 14.17416H179.445L135.66706 119.46802 14.17416 184.26424Z"/>
</clipPath>
<g id="pattern_tile_3">
<path transform="matrix(1,0,0,-1,0,199.848)" stroke-width=".3985" stroke-linecap="butt" stroke-miterlimit="10" stroke-linejoin="miter" fill="none" stroke="#ffbfbf" d="M0 0 3.08846 3.08846"/>
</g>
<pattern id="pattern_3" patternUnits="userSpaceOnUse" patternContentUnits="userSpaceOnUse" x="0" y="0" width="2.98883" height="2.98883">
<clipPath id="clip_4">
<path d="M -.99628 -.99628 L 3.9851 -.99628 L 3.9851 3.9851 L -.99628 3.9851 Z"/>
</clipPath>
<g clip-path="url(#clip_4)">
<g transform="matrix(1,0,0,-1,-0,199.848)">
<use x="0" y="0" xlink:href="#pattern_tile_3"/>
<use x="0" y="-2.98883" xlink:href="#pattern_tile_3"/>
<use x="-2.98883" y="0" xlink:href="#pattern_tile_3"/>
<use x="-2.98883" y="-2.98883" xlink:href="#pattern_tile_3"/>
</g>
</g>
</pattern>
</defs>
<path transform="matrix(1,0,0,-1,9.736,198.63501)" stroke-width=".19925" stroke-linecap="round" stroke-linejoin="round" fill="none" stroke="#929292" d="M42.5225 12.04802V16.3003M70.87085 12.04802V16.3003M99.21921 12.04802V16.3003M127.56755 12.04802V16.3003M155.9159 12.04802V16.3003M184.26424 12.04802V16.3003"/>
<path transform="matrix(1,0,0,-1,9.736,198.63501)" stroke-width=".19925" stroke-linecap="round" stroke-linejoin="round" fill="none" stroke="#929292" d="M12.04802 42.5225H16.3003M12.04802 70.87085H16.3003M12.04802 99.21921H16.3003M12.04802 127.56755H16.3003M12.04802 155.9159H16.3003M12.04802 184.26424H16.3003"/>
<path transform="matrix(1,0,0,-1,9.736,198.63501)" stroke-width=".3985" stroke-linecap="round" stroke-linejoin="round" fill="none" stroke="#000000" d="M0 14.17416H196.44589"/>
<path transform="matrix(1,0,0,-1,206.18189,184.46085)" d="M1.99252 0-1.19551 1.59401 0 0-1.19551-1.59401"/>
<path transform="matrix(1,0,0,-1,9.736,198.63501)" stroke-width=".3985" stroke-linecap="round" stroke-linejoin="round" fill="none" stroke="#000000" d="M14.17416 0V196.44589"/>
<path transform="matrix(0,-1,-1,-0,23.91016,2.1891175)" d="M1.99252 0-1.19551 1.59401 0 0-1.19551-1.59401"/>
<text xml:space="preserve" transform="matrix(1 0 -0 1 0 199.848)" font-size="9.9626" font-family="CMR10"><tspan y="-3.321" x="47.277 52.2583">20</tspan></text>
<text xml:space="preserve" transform="matrix(1 0 -0 1 0 199.848)" font-size="9.9626" font-family="CMR10"><tspan y="-3.321" x="75.625 80.6063">40</tspan></text>
<text xml:space="preserve" transform="matrix(1 0 -0 1 0 199.848)" font-size="9.9626" font-family="CMR10"><tspan y="-3.321" x="103.973 108.9543">60</tspan></text>
<text xml:space="preserve" transform="matrix(1 0 -0 1 0 199.848)" font-size="9.9626" font-family="CMR10"><tspan y="-3.321" x="132.321 137.30229">80</tspan></text>
<text xml:space="preserve" transform="matrix(1 0 -0 1 .000015258789 199.848)" font-size="9.9626" font-family="CMR10"><tspan y="-3.321" x="158.178 163.15929 168.14058">100</tspan></text>
<text xml:space="preserve" transform="matrix(1 0 -0 1 0 199.848)" font-size="9.9626" font-family="CMR10"><tspan y="-3.321" x="186.526 191.5073 196.48859">120</tspan></text>
<text xml:space="preserve" transform="matrix(1 0 -0 1 0 199.84803)" font-size="9.9626" font-family="CMR10"><tspan y="-40.525" x="8.302 13.2833">20</tspan></text>
<text xml:space="preserve" transform="matrix(1 0 -0 1 0 199.848)" font-size="9.9626" font-family="CMR10"><tspan y="-68.873" x="8.302 13.2833">40</tspan></text>
<text xml:space="preserve" transform="matrix(1 0 -0 1 0 199.848)" font-size="9.9626" font-family="CMR10"><tspan y="-97.221" x="8.302 13.2833">60</tspan></text>
<text xml:space="preserve" transform="matrix(1 0 -0 1 0 199.848)" font-size="9.9626" font-family="CMR10"><tspan y="-125.569" x="8.302 13.2833">80</tspan></text>
<text xml:space="preserve" transform="matrix(1 0 -0 1 .00000023841859 199.84803)" font-size="9.9626" font-family="CMR10"><tspan y="-153.917" x="3.32 8.3013 13.2826">100</tspan></text>
<text xml:space="preserve" transform="matrix(1 0 -0 1 .00000023841859 199.848)" font-size="9.9626" font-family="CMR10"><tspan y="-182.265" x="3.32 8.3013 13.2826">120</tspan></text>
<g clip-path="url(#clip_0)">
<g clip-path="url(#clip_1)">
<g clip-path="url(#clip_2)">
<rect transform="matrix(1,0,0,-1,0,199.848)" fill="url(#pattern_3)" x="23.91016" y="15.387161" width="165.27085" height="170.09008"/>
</g>
<path transform="matrix(1,0,0,-1,9.736,198.63501)" stroke-width=".99628" stroke-linecap="round" stroke-linejoin="round" fill="none" stroke="#0000ff" d="M0 445.06904 8.26825 425.22517 16.53651 405.38133 24.80478 385.53749 33.07303 365.69367 41.3413 345.84983 49.60956 326.00599 57.8778 306.1621 66.14607 286.31828 74.41434 266.47444 82.68259 246.6306 90.95085 226.78676 99.21912 206.94292 107.48738 187.09908 115.75563 167.25524 124.0239 147.40996 132.29216 127.56612 140.56041 107.72227 148.82868 87.87843 157.09694 68.03603 165.36519 48.19246 173.63346 28.34877 181.90172 8.50467 190.16997-11.33888 198.43824-31.18246"/>
<path transform="matrix(1,0,0,-1,9.736,198.63501)" stroke-width=".99628" stroke-linecap="round" stroke-linejoin="round" fill="none" stroke="#00ff00" d="M0 191.8233 8.26825 187.41231 16.53651 183.00273 24.80478 178.59314 33.07303 174.18357 41.3413 169.77256 49.60956 165.36582 57.8778 160.95479 66.14607 156.54523 74.41434 152.13562 82.68259 147.72463 90.95085 143.31505 99.21912 138.90546 107.48738 134.49588 115.75563 130.08487 124.0239 125.67813 132.29216 121.2671 140.56041 116.85754 148.82868 112.44794 157.09694 108.03838 165.36519 103.62737 173.63346 99.21777 181.90172 94.8082 190.16997 90.3986 198.43824 85.9876"/>
<path transform="matrix(1,0,0,-1,9.736,198.63501)" stroke-width=".99628" stroke-linecap="round" stroke-linejoin="round" fill="none" stroke="#bf8040" d="M14.17416 31.89188 15.06004 31.1721 15.94592 30.45235 16.83182 29.73257 17.7177 29.01282 18.60358 28.29305 19.48947 27.57315 20.37535 26.85338 21.26125 26.13362 22.14713 25.41385 23.033 24.6941 23.9189 23.97418 24.8048 23.25455 25.69067 22.53465 26.57657 21.81488 27.46245 21.09512 28.34834 20.37535 29.23422 19.65561 30.1201 18.93584 31.006 18.21605 31.89188 17.49629 32.77776 16.77654 33.66365 16.05663 34.54953 15.33688 35.43542 14.61711"/>
<path transform="matrix(1,0,0,-1,9.736,198.63501)" stroke-width=".99628" stroke-linecap="round" stroke-linejoin="round" fill="none" stroke="#bf8040" d="M14.17416 49.6096 15.97545 48.14539 17.77675 46.68121 19.57805 45.21701 21.37933 43.75565 23.18062 42.29004 24.98192 40.82585 26.78322 39.3645 28.58452 37.9003 30.3858 36.43611 32.18709 34.97333 33.98839 33.50916 35.78969 32.04495 37.59097 30.58331 39.39227 29.11983 41.19357 27.6562 42.99487 26.19273 44.79614 24.7291 46.59744 23.26549 48.39874 21.80199 50.20004 20.33836 52.00133 18.87474 53.80263 17.41153 55.60391 15.94792 57.40521 14.48434"/>
<path transform="matrix(1,0,0,-1,9.736,198.63501)" stroke-width=".99628" stroke-linecap="round" stroke-linejoin="round" fill="none" stroke="#bf8040" d="M14.17416 67.3273 16.89087 65.11897 19.60756 62.91064 22.32426 60.70514 25.04097 58.4968 27.75766 56.28987 30.47437 54.08296 33.19107 51.87463 35.90778 49.6677 38.62448 47.45937 41.34119 45.25386 44.05788 43.04553 46.77458 40.84003 49.49127 38.6317 52.20798 36.42337 54.9247 34.21643 57.64139 32.0081 60.3581 29.80287 63.0748 27.5954 65.79149 25.38806 68.5082 23.18071 71.2249 20.97337 73.94159 18.76616 76.65831 16.55882 79.37502 14.35162"/>
<path transform="matrix(1,0,0,-1,9.736,198.63501)" stroke-width=".99628" stroke-linecap="round" stroke-linejoin="round" fill="none" stroke="#bf8040" d="M14.17416 85.04503 17.80629 82.09254 21.43842 79.14288 25.07054 76.19043 28.70268 73.24077 32.33481 70.2883 35.96695 67.33864 39.59908 64.38617 43.23122 61.43651 46.86334 58.4826 50.49548 55.53438 54.12761 52.58192 57.75974 49.63084 61.39188 46.67838 65.024 43.72873 68.65614 40.77626 72.28827 37.82658 75.9204 34.87411 79.55252 31.92447 83.18466 28.97383 86.81679 26.02292 90.44891 23.0717 94.08105 20.12065 97.71318 17.16945 101.34532 14.21844"/>
<path transform="matrix(1,0,0,-1,9.736,198.63501)" stroke-width=".99628" stroke-linecap="round" stroke-linejoin="round" fill="none" stroke="#bf8040" d="M14.17416 102.76274 18.7217 99.06612 23.26924 95.37231 27.81677 91.67569 32.36432 87.98192 36.91185 84.28812 41.4594 80.5915 46.00694 76.8977 50.55447 73.20392 55.102 69.50728 59.64957 65.8135 64.1971 62.11688 68.74463 58.4231 73.29218 54.72931 77.83972 51.03267 82.38725 47.33888 86.9348 43.6451 91.48233 39.94849 96.02988 36.25468 100.57742 32.55806 105.12495 28.86497 109.67249 25.17035 114.22003 21.47528 118.76758 17.78049 123.31511 14.08572"/>
<path transform="matrix(1,0,0,-1,9.736,198.63501)" stroke-width=".99628" stroke-linecap="round" stroke-linejoin="round" fill="none" stroke="#bf8040" d="M14.17416 120.48045 19.60757 116.06378 25.04102 111.64995 30.47444 107.23611 35.90785 102.82085 41.3413 98.40701 46.77472 93.99034 52.20813 89.5765 57.64156 85.16125 63.075 80.74742 68.5084 76.33359 73.94183 71.91975 79.37527 67.50305 84.8087 63.08922 90.24211 58.67398 95.67554 54.25871 101.10898 49.84488 106.54239 45.43105 111.97581 41.01439 117.40926 36.60056 122.84267 32.18669 128.2761 27.77257 133.70952 23.3579 139.14295 18.94319 144.57637 14.52864"/>
<path transform="matrix(1,0,0,-1,9.736,198.63501)" stroke-width=".99628" stroke-linecap="round" stroke-linejoin="round" fill="none" stroke="#bf8040" d="M14.17416 138.19817 20.55254 133.01325 26.93092 127.83118 33.3093 122.6491 39.68768 117.46701 46.06604 112.28496 52.44443 107.10286 58.8228 101.91937 65.20119 96.73727 71.57956 91.55522 77.95795 86.37314 84.33632 81.19107 90.71469 76.00899 97.09306 70.82407 103.47145 65.642 109.84982 60.45992 116.22821 55.27927 122.60658 50.09576 128.98497 44.91368 135.36333 39.7302 141.74172 34.5481 148.12009 29.36703 154.49848 24.18451 160.87685 19.00189 167.25524 13.81978"/>
<path transform="matrix(1,0,0,-1,9.736,198.63501)" stroke-width=".99628" stroke-linecap="round" stroke-linejoin="round" fill="none" stroke="#bf8040" d="M14.17416 155.9159 21.43842 150.01375 28.70268 144.11164 35.96695 138.2095 43.23122 132.30738 50.49548 126.40524 57.75974 120.50171 65.024 114.5996 72.28827 108.69745 79.55252 102.79533 86.81679 96.8932 94.08105 90.9911 101.34532 85.08755 108.60959 79.18541 115.87386 73.2833 123.13812 67.38116 130.40238 61.47903 137.66663 55.57692 144.9309 49.6748 152.19516 43.77267 159.45943 37.87054 166.7237 31.96698 173.98796 26.06728 181.25223 20.16472 188.5165 14.2627"/>
<path transform="matrix(1,0,0,-1,9.736,198.63501)" stroke-width=".99628" stroke-linecap="round" stroke-linejoin="round" fill="none" stroke="#bf8040" d="M14.17416 173.6336 21.85182 167.39415 29.52948 161.15608 37.20714 154.91944 44.88481 148.67855 52.56247 142.44193 60.24013 136.20388 67.9178 129.96721 75.59546 123.72632 83.27312 117.4897 90.95079 111.25165 98.62843 105.01358 106.3061 98.77414 113.98378 92.53748 121.66142 86.29944 129.3391 80.06139 137.01676 73.82191 144.69441 67.58528 152.37209 61.34723 160.04975 55.10918 167.7274 48.86969 175.40508 42.63306 183.08272 36.395 190.76039 30.15709 198.43807 23.91917"/>
<path transform="matrix(1,0,0,-1,9.736,198.63501)" stroke-width=".99628" stroke-linecap="round" stroke-linejoin="round" fill="none" stroke="#bf8040" d="M14.17416 191.35132 21.85182 185.11185 29.52948 178.8738 37.20714 172.63716 44.88481 166.39626 52.56247 160.15964 60.24013 153.92157 67.9178 147.68494 75.59546 141.44405 83.27312 135.20743 90.95079 128.96936 98.62843 122.73131 106.3061 116.49184 113.98378 110.2552 121.66142 104.01714 129.3391 97.77908 137.01676 91.53963 144.69441 85.30301 152.37209 79.06496 160.04975 72.82689 167.7274 66.5874 175.40508 60.35078 183.08272 54.11273 190.76039 47.87325 198.43807 41.6352"/>
<path transform="matrix(1,0,0,-1,9.736,198.63501)" stroke-width=".99628" stroke-linecap="round" stroke-linejoin="round" fill="none" stroke="#bf8040" d="M14.17416 209.06903 21.85182 202.81822 29.52948 196.59577 37.20714 190.35486 44.88481 184.11399 52.56247 177.87735 60.24013 171.6393 67.9178 165.40264 75.59546 159.16176 83.27312 152.92513 90.95079 146.68708 98.62843 140.44902 106.3061 134.20957 113.98378 127.9729 121.66142 121.73486 129.3391 115.49681 137.01676 109.25734 144.69441 103.02072 152.37209 96.78265 160.04975 90.5446 167.7274 84.30511 175.40508 78.0685 183.08272 71.83043 190.76039 65.59096 198.43807 59.3529"/>
<path transform="matrix(1,0,0,-1,9.736,198.63501)" stroke-width=".99628" stroke-linecap="round" stroke-linejoin="round" fill="none" stroke="#bf8040" d="M14.17416 226.78676 21.85182 220.52176 29.52948 214.2993 37.20714 208.07685 44.88481 201.82604 52.56247 195.5894 60.24013 189.35701 67.9178 183.12036 75.59546 176.87949 83.27312 170.64286 90.95079 164.4048 98.62843 158.16675 106.3061 151.92728 113.98378 145.69063 121.66142 139.45258 129.3391 133.21453 137.01676 126.97507 144.69441 120.73843 152.37209 114.50038 160.04975 108.26233 167.7274 102.02284 175.40508 95.78621 183.08272 89.54816 190.76039 83.30867 198.43807 77.07062"/>
<path transform="matrix(1,0,0,-1,9.736,198.63501)" stroke-width=".99628" stroke-linecap="round" stroke-linejoin="round" fill="none" stroke="#bf8040" d="M14.17416 244.4903 21.85182 238.26784 29.52948 232.01703 37.20714 225.78037 44.88481 219.52957 52.56247 213.30712 60.24013 207.08466 67.9178 200.81964 75.59546 194.59719 83.27312 188.36057 90.95079 182.12252 98.62843 175.88445 106.3061 169.64499 113.98378 163.40834 121.66142 157.1703 129.3391 150.93224 137.01676 144.69278 144.69441 138.45615 152.37209 132.2181 160.04975 125.98003 167.7274 119.74055 175.40508 113.50392 183.08272 107.26587 190.76039 101.0264 198.43807 94.78835"/>
<path transform="matrix(1,0,0,-1,9.736,198.63501)" stroke-width=".99628" stroke-linecap="round" stroke-linejoin="round" fill="none" stroke="#bf8040" d="M14.17416 262.208 21.85182 255.98555 29.52948 249.72055 37.20714 243.4981 44.88481 237.27564 52.56247 231.01064 60.24013 224.78818 67.9178 218.53737 75.59546 212.31491 83.27312 206.06412 90.95079 199.82746 98.62843 193.605 106.3061 187.3627 113.98378 181.12607 121.66142 174.888 129.3391 168.64995 137.01676 162.41049 144.69441 156.17388 152.37209 149.9358 160.04975 143.69776 167.7274 137.45827 175.40508 131.22165 183.08272 124.9836 190.76039 118.74411 198.43807 112.50604"/>
<path transform="matrix(1,0,0,-1,9.736,198.63501)" stroke-width=".99628" stroke-linecap="round" stroke-linejoin="round" fill="none" stroke="#bf8040" d="M14.17416 279.9399 21.85182 273.6891 29.52948 267.46665 37.20714 261.2158 44.88481 254.97917 52.56247 248.72837 60.24013 242.5059 67.9178 236.28345 75.59546 230.01845 83.27312 223.79599 90.95079 217.54518 98.62843 211.30857 106.3061 205.05773 113.98378 198.83527 121.66142 192.61281 129.3391 186.36768 137.01676 180.1282 144.69441 173.89157 152.37209 167.65352 160.04975 161.41547 167.7274 155.17598 175.40508 148.93935 183.08272 142.7013 190.76039 136.46183 198.43807 130.22377"/>
<path transform="matrix(1,0,0,-1,9.736,198.63501)" stroke-width=".3985" stroke-linecap="round" stroke-linejoin="round" fill="none" stroke="#000000" d="M191.35132 21.26125V21.26125"/>
<text xml:space="preserve" transform="matrix(1 0 -0 1 0 199.848)" font-size="9.9626" font-family="CMMI10" font-style="italic"><tspan y="-20.329" x="198.238">x</tspan></text>
<path transform="matrix(1,0,0,-1,9.736,198.63501)" stroke-width=".3985" stroke-linecap="round" stroke-linejoin="round" fill="none" stroke="#000000" d="M21.26125 191.35132V191.35132"/>
<text xml:space="preserve" transform="matrix(1 0 -0 1 0 199.848)" font-size="9.9626" font-family="CMMI10" font-style="italic"><tspan y="-191.386" x="28.376">y</tspan></text>
</g>
</g>
</svg>
