<svg xmlns="http://www.w3.org/2000/svg" xmlns:xlink="http://www.w3.org/1999/xlink" width="472.399" height="171.96" viewBox="0 0 354.299 128.97"><path stroke-width=".199" stroke-linecap="round" stroke-linejoin="round" fill="none" stroke="#929292" d="M150.01 115.71v-4.253m90.709 4.253v-4.253m56.692 4.253v-4.253M11.821 45.552h4.253M11.82 34.214h4.253M11.82 22.875h4.253"/><path stroke-width=".399" stroke-linecap="round" stroke-linejoin="round" fill="none" stroke="#000" d="M2.609 113.583h349.502"/><path d="m354.104 113.583-3.188-1.594 1.195 1.594-1.195 1.594"/><path stroke-width=".399" stroke-linecap="round" stroke-linejoin="round" fill="none" stroke="#000" d="M13.948 124.922V2.191"/><path d="m13.948.198-1.594 3.188 1.594-1.195 1.594 1.195"/><symbol id="a"><path d="M.205.64c0 .024 0 .026-.023.026C.12.602.032.602 0 .602V.571a.3.3 0 0 1 .131.026V.079C.131.043.128.031.038.031H.006V0c.035.003.122.003.162.003.04 0 .127 0 .162-.003v.031H.298c-.09 0-.093.011-.093.048V.64z"/></symbol><symbol id="b"><path d="M.077.077.183.18c.156.138.216.192.216.292 0 .114-.09.194-.212.194A.185.185 0 0 1 0 .485C0 .429.05.429.053.429c.017 0 .052.012.052.053a.05.05 0 0 1-.053.052L.039.533a.144.144 0 0 0 .135.102C.265.635.308.554.308.472c0-.08-.05-.159-.105-.221L.011.037C0 .026 0 .024 0 0h.371l.028.174H.374C.369.144.362.1.352.085.345.077.279.077.257.077h-.18z"/></symbol><use xlink:href="#a" transform="matrix(9.9626 0 0 -9.9626 145.914 125.649)"/><use xlink:href="#b" transform="matrix(9.9626 0 0 -9.9626 150.506 125.649)"/><symbol id="c"><path d="M.421.342c0 .08-.005.16-.04.234A.185.185 0 0 1 .037.569.535.535 0 0 1 0 .342C0 .267.004.177.045.101A.183.183 0 0 1 .21 0c.054 0 .13.021.174.116a.533.533 0 0 1 .037.226M.21.022C.171.022.112.047.094.143.083.203.083.295.083.354c0 .064 0 .13.008.184C.11.657.185.666.21.666.243.666.309.648.328.549c.01-.056.01-.132.01-.195 0-.075 0-.143-.011-.207C.312.052.255.022.21.022z"/></symbol><use xlink:href="#b" transform="matrix(9.9626 0 0 -9.9626 236.232 125.649)"/><use xlink:href="#c" transform="matrix(9.9626 0 0 -9.9626 241.104 125.868)"/><symbol id="d"><path d="M.399.223c0 .119-.082.219-.19.219A.176.176 0 0 1 .082.391v.195A.317.317 0 0 1 .167.573C.29.573.36.664.36.677.36.683.357.688.35.688c-.001 0-.003 0-.008-.003A.33.33 0 0 0 .073.684L.061.687c-.01 0-.01-.008-.01-.024V.367c0-.018 0-.026.014-.026.007 0 .009.003.013.009.011.016.048.07.129.07C.259.42.284.374.292.356A.308.308 0 0 0 .31.23C.31.195.31.135.286.093A.125.125 0 0 0 .179.028.156.156 0 0 0 .032.14C.035.139.038.138.049.138c.033 0 .05.025.05.049a.048.048 0 0 1-.05.049C.035.236 0 .229 0 .183 0 .097.069 0 .181 0a.22.22 0 0 1 .218.223z"/></symbol><use xlink:href="#b" transform="matrix(9.9626 0 0 -9.9626 292.924 125.649)"/><use xlink:href="#d" transform="matrix(9.9626 0 0 -9.9626 297.905 125.868)"/><symbol id="e"><path d="M.09.35v.024c0 .253.124.289.175.289.024 0 .066-.006.088-.04-.015 0-.055 0-.055-.045 0-.031.024-.046.046-.046C.36.532.39.541.39.58.39.64.346.688.263.688.135.688 0 .559 0 .338 0 .071.116 0 .209 0 .32 0 .415.094.415.226c0 .127-.089.223-.2.223C.147.449.11.398.09.35M.209.028C.146.028.116.088.11.103.092.15.092.23.092.248c0 .078.032.178.122.178.016 0 .062 0 .093-.062C.325.327.325.276.325.227c0-.048 0-.098-.017-.134C.278.033.232.028.209.028z"/></symbol><use xlink:href="#e" transform="matrix(9.9626 0 0 -9.9626 3.738 48.982)"/><symbol id="f"><path d="M.42.631c.009.012.009.014.009.035H.186C.064.666.062.679.058.698H.033L0 .492h.025C.028.508.037.571.05.583c.007.006.085.006.098.006h.207C.344.573.265.464.243.431A.699.699 0 0 1 .12.055C.12.045.12 0 .166 0s.046.045.046.055v.051c0 .055.003.11.011.164.004.023.018.109.062.171l.135.19z"/></symbol><use xlink:href="#f" transform="matrix(9.9626 0 0 -9.9626 3.878 37.644)"/><symbol id="g"><path d="M.121.479C.075.509.071.543.071.56c0 .061.065.103.136.103C.28.663.344.611.344.539.344.482.305.434.245.399l-.124.08M.267.384c.072.037.121.089.121.155 0 .092-.089.149-.18.149-.1 0-.181-.074-.181-.167a.16.16 0 0 1 .044-.11C.082.399.119.374.144.357.086.328 0 .272 0 .173 0 .067.102 0 .207 0 .32 0 .415.083.415.19a.18.18 0 0 1-.049.123.422.422 0 0 1-.099.071m-.1-.042L.29.264C.318.245.365.215.365.154.365.08.29.028.208.028.122.028.05.09.05.173c0 .058.032.122.117.169z"/></symbol><use xlink:href="#g" transform="matrix(9.9626 0 0 -9.9626 3.738 26.305)"/><clipPath id="h"><path transform="matrix(1 0 0 -1 2.609 124.922)" d="M0 0h351.495v124.724H0z"/></clipPath><g clip-path="url(#h)"><clipPath id="i"><path transform="matrix(1 0 0 -1 2.609 124.922)" d="M0 0v124.724h351.495V0zm351.495 124.724"/></clipPath><g clip-path="url(#i)"><clipPath id="j"><path transform="matrix(1 0 0 -1 2.609 124.922)" d="M147.401 79.37h147.401l-81.89 32.756z"/></clipPath><g clip-path="url(#j)"><symbol id="l"><path stroke-width=".399" stroke-miterlimit="10" fill="none" stroke="#ffbfbf" d="m0 128.97 3.088-3.088"/></symbol><pattern id="m" patternUnits="userSpaceOnUse" patternContentUnits="userSpaceOnUse" x="0" y="0" width="2.989" height="2.989"><clipPath id="k"><path d="M-.996-.996h4.981v4.981H-.996z"/></clipPath><g clip-path="url(#k)"><g transform="matrix(1 0 0 -1 0 128.97)"><use xlink:href="#l"/><use y="-2.989" xlink:href="#l"/><use x="-2.989" xlink:href="#l"/><use x="-2.989" y="-2.989" xlink:href="#l"/></g></g></pattern><path transform="matrix(1 0 0 -1 0 128.97)" fill="url(#m)" d="M150.01 83.418h147.401v32.756H150.01z"/></g><path stroke-width="1.196" stroke-linecap="round" stroke-linejoin="round" fill="none" stroke="#00f" d="m13.948-67.832 14.173 5.67 14.173 5.667 14.173 5.67 14.173 5.669 14.173 5.67 14.174 5.67 14.173 5.668 14.173 5.669 14.173 5.67 14.173 5.67 14.174 5.669L184.026.198l14.173 5.67 14.173 5.669 14.173 5.67 14.174 5.67 14.173 5.667 14.173 5.67 14.173 5.669 14.173 5.67 14.173 5.67 14.174 5.668 14.173 5.669 14.173 5.67"/><path stroke-width="1.196" stroke-linecap="round" stroke-linejoin="round" fill="none" stroke="#bf8040" d="m13.948 113.583 14.173-7.086 14.173-7.087 14.173-7.086 14.173-7.087 14.173-7.086 14.174-7.087 14.173-7.087 14.173-7.086 14.173-7.087 14.173-7.086 14.174-7.087 14.173-7.087 14.173-7.086 14.173-7.087 14.173-7.086L240.72.198l14.173-7.087 14.173-7.086 14.173-7.087 14.173-7.086 14.173-7.087 14.174-7.087 14.173-7.086 14.173-7.087"/><path stroke-width="1.196" stroke-linecap="round" stroke-linejoin="round" fill="none" stroke="#0f0" d="M13.948 45.552h340.156"/><path stroke-width=".797" stroke-linecap="round" stroke-linejoin="round" fill="none" stroke="red" d="m13.948 28.544 14.173 3.544 14.173 3.543 14.173 3.543 14.173 3.544 14.173 3.543 14.174 3.543 14.173 3.543 14.173 3.544 14.173 3.543 14.173 3.543 14.174 3.544 14.173 3.543 14.173 3.543 14.173 3.544 14.173 3.543 14.174 3.543 14.173 3.543 14.173 3.544 14.173 3.543 14.173 3.543 14.173 3.544 14.174 3.543 14.173 3.543 14.173 3.543M13.948 14.371l14.173 3.543 14.173 3.544L56.467 25l14.173 3.543 14.173 3.544 14.174 3.543 14.173 3.543 14.173 3.544 14.173 3.543 14.173 3.543 14.174 3.543 14.173 3.544 14.173 3.543 14.173 3.543 14.173 3.544 14.174 3.543 14.173 3.543 14.173 3.544 14.173 3.543 14.173 3.543 14.173 3.543 14.174 3.544 14.173 3.543 14.173 3.543M13.948.198 28.12 3.741l14.173 3.544 14.173 3.543L70.64 14.37l14.173 3.543 14.174 3.544L113.16 25l14.173 3.543 14.173 3.544 14.173 3.543 14.174 3.543 14.173 3.544 14.173 3.543 14.173 3.543 14.173 3.543 14.174 3.544 14.173 3.543 14.173 3.543 14.173 3.544 14.173 3.543 14.173 3.543 14.174 3.544 14.173 3.543 14.173 3.543M13.948-13.975l14.173 3.543 14.173 3.543 14.173 3.544L70.64.198l14.173 3.543 14.174 3.544 14.173 3.543 14.173 3.543 14.173 3.543 14.173 3.544L169.853 25l14.173 3.543 14.173 3.544 14.173 3.543 14.173 3.543 14.174 3.544 14.173 3.543 14.173 3.543 14.173 3.543 14.173 3.544 14.173 3.543 14.174 3.543 14.173 3.544 14.173 3.543M13.948-28.148l14.173 3.543 14.173 3.543 14.173 3.544 14.173 3.543 14.173 3.543 14.174 3.543 14.173 3.544L127.333.198l14.173 3.543 14.173 3.544 14.174 3.543 14.173 3.543 14.173 3.543 14.173 3.544L226.545 25l14.174 3.543 14.173 3.544 14.173 3.543 14.173 3.543 14.173 3.544 14.173 3.543 14.174 3.543 14.173 3.543 14.173 3.544M13.948-42.322l14.173 3.544 14.173 3.543 14.173 3.543 14.173 3.544 14.173 3.543 14.174 3.543 14.173 3.544 14.173 3.543 14.173 3.543 14.173 3.543 14.174 3.544L184.026.198l14.173 3.543 14.173 3.544 14.173 3.543 14.174 3.543 14.173 3.543 14.173 3.544L283.238 25l14.173 3.543 14.173 3.544 14.174 3.543 14.173 3.543 14.173 3.544M13.948-56.495 28.12-52.95l14.173 3.543 14.173 3.543 14.173 3.543 14.173 3.544 14.174 3.543 14.173 3.543 14.173 3.544 14.173 3.543 14.173 3.543 14.174 3.544 14.173 3.543 14.173 3.543 14.173 3.543 14.173 3.544L240.72.198l14.173 3.543 14.173 3.544 14.173 3.543 14.173 3.543 14.173 3.543 14.174 3.544L339.93 25l14.173 3.543M13.948-70.668l14.173 3.543 14.173 3.544 14.173 3.543 14.173 3.543 14.173 3.544 14.174 3.543 14.173 3.543 14.173 3.543 14.173 3.544 14.173 3.543 14.174 3.543 14.173 3.544 14.173 3.543 14.173 3.543 14.173 3.544 14.174 3.543 14.173 3.543 14.173 3.543 14.173 3.544L297.411.198l14.173 3.543 14.174 3.544 14.173 3.543 14.173 3.543M13.948-84.841l14.173 3.543 14.173 3.543 14.173 3.544 14.173 3.543 14.173 3.543 14.174 3.544 14.173 3.543 14.173 3.543 14.173 3.544 14.173 3.543 14.174 3.543 14.173 3.543 14.173 3.544 14.173 3.543 14.173 3.543 14.174 3.544 14.173 3.543 14.173 3.543 14.173 3.544 14.173 3.543 14.173 3.543 14.174 3.543 14.173 3.544L354.104.198"/><path d="M174.182 34.214a1.494 1.494 0 1 0-2.99 0 1.494 1.494 0 0 0 2.99 0zm-1.495 0"/><path stroke-width=".399" stroke-linecap="round" stroke-linejoin="round" fill="none" stroke="#000" d="M174.182 34.214a1.494 1.494 0 1 0-2.99 0 1.494 1.494 0 0 0 2.99 0zm-1.495 0"/><path d="M162.843 45.552a1.494 1.494 0 1 0-2.989 0 1.494 1.494 0 0 0 2.99 0zm-1.494 0"/><path stroke-width=".399" stroke-linecap="round" stroke-linejoin="round" fill="none" stroke="#000" d="M162.843 45.552a1.494 1.494 0 1 0-2.989 0 1.494 1.494 0 0 0 2.99 0zm-1.494 0"/><path d="M151.505 45.552a1.494 1.494 0 1 0-2.99 0 1.494 1.494 0 0 0 2.99 0zm-1.495 0"/><path stroke-width=".399" stroke-linecap="round" stroke-linejoin="round" fill="none" stroke="#000" d="M151.505 45.552a1.494 1.494 0 1 0-2.99 0 1.494 1.494 0 0 0 2.99 0zm-1.495 0"/><path d="M174.182 45.552a1.494 1.494 0 1 0-2.99 0 1.494 1.494 0 0 0 2.99 0zm-1.495 0"/><path stroke-width=".399" stroke-linecap="round" stroke-linejoin="round" fill="none" stroke="#000" d="M174.182 45.552a1.494 1.494 0 1 0-2.99 0 1.494 1.494 0 0 0 2.99 0zm-1.495 0"/><path d="M185.52 45.552a1.494 1.494 0 1 0-2.989 0 1.494 1.494 0 0 0 2.99 0zm-1.494 0"/><path stroke-width=".399" stroke-linecap="round" stroke-linejoin="round" fill="none" stroke="#000" d="M185.52 45.552a1.494 1.494 0 1 0-2.989 0 1.494 1.494 0 0 0 2.99 0zm-1.494 0"/><path d="M196.859 45.552a1.494 1.494 0 1 0-2.99 0 1.494 1.494 0 0 0 2.99 0zm-1.495 0"/><path stroke-width=".399" stroke-linecap="round" stroke-linejoin="round" fill="none" stroke="#000" d="M196.859 45.552a1.494 1.494 0 1 0-2.99 0 1.494 1.494 0 0 0 2.99 0zm-1.495 0"/><path d="M208.197 45.552a1.494 1.494 0 1 0-2.989 0 1.494 1.494 0 0 0 2.99 0zm-1.494 0"/><path stroke-width=".399" stroke-linecap="round" stroke-linejoin="round" fill="none" stroke="#000" d="M208.197 45.552a1.494 1.494 0 1 0-2.989 0 1.494 1.494 0 0 0 2.99 0zm-1.494 0"/><path d="M219.536 45.552a1.494 1.494 0 1 0-2.989 0 1.494 1.494 0 0 0 2.989 0zm-1.495 0"/><path stroke-width=".399" stroke-linecap="round" stroke-linejoin="round" fill="none" stroke="#000" d="M219.536 45.552a1.494 1.494 0 1 0-2.989 0 1.494 1.494 0 0 0 2.989 0zm-1.495 0"/><path d="M230.874 45.552a1.494 1.494 0 1 0-2.988 0 1.494 1.494 0 0 0 2.988 0zm-1.494 0"/><path stroke-width=".399" stroke-linecap="round" stroke-linejoin="round" fill="none" stroke="#000" d="M230.874 45.552a1.494 1.494 0 1 0-2.988 0 1.494 1.494 0 0 0 2.988 0zm-1.494 0"/><path d="M242.213 45.552a1.494 1.494 0 1 0-2.989 0 1.494 1.494 0 0 0 2.989 0zm-1.494 0"/><path stroke-width=".399" stroke-linecap="round" stroke-linejoin="round" fill="none" stroke="#000" d="M242.213 45.552a1.494 1.494 0 1 0-2.989 0 1.494 1.494 0 0 0 2.989 0zm-1.494 0"/><path d="M253.551 45.552a1.494 1.494 0 1 0-2.988 0 1.494 1.494 0 0 0 2.988 0zm-1.494 0"/><path stroke-width=".399" stroke-linecap="round" stroke-linejoin="round" fill="none" stroke="#000" d="M253.551 45.552a1.494 1.494 0 1 0-2.988 0 1.494 1.494 0 0 0 2.988 0zm-1.494 0"/><path d="M264.89 45.552a1.494 1.494 0 1 0-2.989 0 1.494 1.494 0 0 0 2.989 0zm-1.494 0"/><path stroke-width=".399" stroke-linecap="round" stroke-linejoin="round" fill="none" stroke="#000" d="M264.89 45.552a1.494 1.494 0 1 0-2.989 0 1.494 1.494 0 0 0 2.989 0zm-1.494 0"/><path d="M276.229 45.552a1.494 1.494 0 1 0-2.99 0 1.494 1.494 0 0 0 2.99 0zm-1.495 0"/><path stroke-width=".399" stroke-linecap="round" stroke-linejoin="round" fill="none" stroke="#000" d="M276.229 45.552a1.494 1.494 0 1 0-2.99 0 1.494 1.494 0 0 0 2.99 0zm-1.495 0"/><path d="M287.567 45.552a1.494 1.494 0 1 0-2.989 0 1.494 1.494 0 0 0 2.99 0zm-1.494 0"/><path stroke-width=".399" stroke-linecap="round" stroke-linejoin="round" fill="none" stroke="#000" d="M287.567 45.552a1.494 1.494 0 1 0-2.989 0 1.494 1.494 0 0 0 2.99 0zm-1.494 0"/><path d="M298.906 45.552a1.494 1.494 0 1 0-2.99 0 1.494 1.494 0 0 0 2.99 0zm-1.495 0"/><path stroke-width=".399" stroke-linecap="round" stroke-linejoin="round" fill="none" stroke="#000" d="M298.906 45.552a1.494 1.494 0 1 0-2.99 0 1.494 1.494 0 0 0 2.99 0zm-1.495 0"/><path d="M264.89 34.214a1.494 1.494 0 1 0-2.989 0 1.494 1.494 0 0 0 2.989 0zm-1.494 0"/><path stroke-width=".399" stroke-linecap="round" stroke-linejoin="round" fill="none" stroke="#000" d="M264.89 34.214a1.494 1.494 0 1 0-2.989 0 1.494 1.494 0 0 0 2.989 0zm-1.494 0"/><path d="M253.551 34.214a1.494 1.494 0 1 0-2.988 0 1.494 1.494 0 0 0 2.988 0zm-1.494 0"/><path stroke-width=".399" stroke-linecap="round" stroke-linejoin="round" fill="none" stroke="#000" d="M253.551 34.214a1.494 1.494 0 1 0-2.988 0 1.494 1.494 0 0 0 2.988 0zm-1.494 0"/><path d="M242.213 34.214a1.494 1.494 0 1 0-2.989 0 1.494 1.494 0 0 0 2.989 0zm-1.494 0"/><path stroke-width=".399" stroke-linecap="round" stroke-linejoin="round" fill="none" stroke="#000" d="M242.213 34.214a1.494 1.494 0 1 0-2.989 0 1.494 1.494 0 0 0 2.989 0zm-1.494 0"/><path d="M230.874 34.214a1.494 1.494 0 1 0-2.988 0 1.494 1.494 0 0 0 2.988 0zm-1.494 0"/><path stroke-width=".399" stroke-linecap="round" stroke-linejoin="round" fill="none" stroke="#000" d="M230.874 34.214a1.494 1.494 0 1 0-2.988 0 1.494 1.494 0 0 0 2.988 0zm-1.494 0"/><path d="M219.536 34.214a1.494 1.494 0 1 0-2.989 0 1.494 1.494 0 0 0 2.989 0zm-1.495 0"/><path stroke-width=".399" stroke-linecap="round" stroke-linejoin="round" fill="none" stroke="#000" d="M219.536 34.214a1.494 1.494 0 1 0-2.989 0 1.494 1.494 0 0 0 2.989 0zm-1.495 0"/><path d="M208.197 34.214a1.494 1.494 0 1 0-2.989 0 1.494 1.494 0 0 0 2.99 0zm-1.494 0"/><path stroke-width=".399" stroke-linecap="round" stroke-linejoin="round" fill="none" stroke="#000" d="M208.197 34.214a1.494 1.494 0 1 0-2.989 0 1.494 1.494 0 0 0 2.99 0zm-1.494 0"/><path d="M196.859 34.214a1.494 1.494 0 1 0-2.99 0 1.494 1.494 0 0 0 2.99 0zm-1.495 0"/><path stroke-width=".399" stroke-linecap="round" stroke-linejoin="round" fill="none" stroke="#000" d="M196.859 34.214a1.494 1.494 0 1 0-2.99 0 1.494 1.494 0 0 0 2.99 0zm-1.495 0"/><path d="M185.52 34.214a1.494 1.494 0 1 0-2.989 0 1.494 1.494 0 0 0 2.99 0zm-1.494 0"/><path stroke-width=".399" stroke-linecap="round" stroke-linejoin="round" fill="none" stroke="#000" d="M185.52 34.214a1.494 1.494 0 1 0-2.989 0 1.494 1.494 0 0 0 2.99 0zm-1.494 0"/><path d="M196.859 22.875a1.494 1.494 0 1 0-2.99 0 1.494 1.494 0 0 0 2.99 0zm-1.495 0"/><path stroke-width=".399" stroke-linecap="round" stroke-linejoin="round" fill="none" stroke="#000" d="M196.859 22.875a1.494 1.494 0 1 0-2.99 0 1.494 1.494 0 0 0 2.99 0zm-1.495 0"/><path d="M208.197 22.875a1.494 1.494 0 1 0-2.989 0 1.494 1.494 0 0 0 2.99 0zm-1.494 0"/><path stroke-width=".399" stroke-linecap="round" stroke-linejoin="round" fill="none" stroke="#000" d="M208.197 22.875a1.494 1.494 0 1 0-2.989 0 1.494 1.494 0 0 0 2.99 0zm-1.494 0"/><path d="M219.536 22.875a1.494 1.494 0 1 0-2.989 0 1.494 1.494 0 0 0 2.989 0zm-1.495 0"/><path stroke-width=".399" stroke-linecap="round" stroke-linejoin="round" fill="none" stroke="#000" d="M219.536 22.875a1.494 1.494 0 1 0-2.989 0 1.494 1.494 0 0 0 2.989 0zm-1.495 0"/><path d="M230.874 22.875a1.494 1.494 0 1 0-2.988 0 1.494 1.494 0 0 0 2.988 0zm-1.494 0"/><path stroke-width=".399" stroke-linecap="round" stroke-linejoin="round" fill="none" stroke="#000" d="M230.874 22.875a1.494 1.494 0 1 0-2.988 0 1.494 1.494 0 0 0 2.988 0zm-1.494 0"/><path d="M242.213 22.875a1.494 1.494 0 1 0-2.989 0 1.494 1.494 0 0 0 2.989 0zm-1.494 0"/><path stroke-width=".399" stroke-linecap="round" stroke-linejoin="round" fill="none" stroke="#000" d="M242.213 22.875a1.494 1.494 0 1 0-2.989 0 1.494 1.494 0 0 0 2.989 0zm-1.494 0"/><path stroke-width=".598" stroke-linecap="round" stroke-dasharray=".59776,3.9851" stroke-linejoin="round" fill="none" stroke="#000" d="M150.01 113.583v-68.03M240.719 113.583V22.875M297.411 113.583v-68.03M13.948 22.875h226.77"/></g></g></svg>