<?xml version="1.0" encoding="utf-8" standalone="no"?>
<!DOCTYPE svg PUBLIC "-//W3C//DTD SVG 1.1//EN"
  "http://www.w3.org/Graphics/SVG/1.1/DTD/svg11.dtd">
<svg xmlns:xlink="http://www.w3.org/1999/xlink" width="864pt" height="288pt" viewBox="0 0 864 288" xmlns="http://www.w3.org/2000/svg" version="1.1">
 <metadata>
  <rdf:RDF xmlns:dc="http://purl.org/dc/elements/1.1/" xmlns:cc="http://creativecommons.org/ns#" xmlns:rdf="http://www.w3.org/1999/02/22-rdf-syntax-ns#">
   <cc:Work>
    <dc:type rdf:resource="http://purl.org/dc/dcmitype/StillImage"/>
    <dc:date>2024-03-04T08:18:15.110375</dc:date>
    <dc:format>image/svg+xml</dc:format>
    <dc:creator>
     <cc:Agent>
      <dc:title>Matplotlib v3.8.2, https://matplotlib.org/</dc:title>
     </cc:Agent>
    </dc:creator>
   </cc:Work>
  </rdf:RDF>
 </metadata>
 <defs>
  <style type="text/css">*{stroke-linejoin: round; stroke-linecap: butt}</style>
 </defs>
 <g id="figure_1">
  <g id="patch_1">
   <path d="M 0 288 
L 864 288 
L 864 0 
L 0 0 
z
" style="fill: #ffffff"/>
  </g>
  <g id="axes_1">
   <g id="patch_2">
    <path d="M 108 256.32 
L 412.363636 256.32 
L 412.363636 34.56 
L 108 34.56 
z
" style="fill: #ffffff"/>
   </g>
   <g id="matplotlib.axis_1">
    <g id="xtick_1">
     <g id="line2d_1">
      <path d="M 121.834711 256.32 
L 121.834711 34.56 
" clip-path="url(#pd7af940b63)" style="fill: none; stroke: #b0b0b0; stroke-width: 0.8; stroke-linecap: square"/>
     </g>
     <g id="line2d_2">
      <defs>
       <path id="mfe035adcf4" d="M 0 0 
L 0 3.5 
" style="stroke: #000000; stroke-width: 0.8"/>
      </defs>
      <g>
       <use xlink:href="#mfe035adcf4" x="121.834711" y="256.32" style="stroke: #000000; stroke-width: 0.8"/>
      </g>
     </g>
     <g id="text_1">
      <!-- 0 -->
      <g transform="translate(118.653461 270.918437) scale(0.1 -0.1)">
       <defs>
        <path id="DejaVuSans-30" d="M 2034 4250 
Q 1547 4250 1301 3770 
Q 1056 3291 1056 2328 
Q 1056 1369 1301 889 
Q 1547 409 2034 409 
Q 2525 409 2770 889 
Q 3016 1369 3016 2328 
Q 3016 3291 2770 3770 
Q 2525 4250 2034 4250 
z
M 2034 4750 
Q 2819 4750 3233 4129 
Q 3647 3509 3647 2328 
Q 3647 1150 3233 529 
Q 2819 -91 2034 -91 
Q 1250 -91 836 529 
Q 422 1150 422 2328 
Q 422 3509 836 4129 
Q 1250 4750 2034 4750 
z
" transform="scale(0.015625)"/>
       </defs>
       <use xlink:href="#DejaVuSans-30"/>
      </g>
     </g>
    </g>
    <g id="xtick_2">
     <g id="line2d_3">
      <path d="M 177.173554 256.32 
L 177.173554 34.56 
" clip-path="url(#pd7af940b63)" style="fill: none; stroke: #b0b0b0; stroke-width: 0.8; stroke-linecap: square"/>
     </g>
     <g id="line2d_4">
      <g>
       <use xlink:href="#mfe035adcf4" x="177.173554" y="256.32" style="stroke: #000000; stroke-width: 0.8"/>
      </g>
     </g>
     <g id="text_2">
      <!-- 2 -->
      <g transform="translate(173.992304 270.918437) scale(0.1 -0.1)">
       <defs>
        <path id="DejaVuSans-32" d="M 1228 531 
L 3431 531 
L 3431 0 
L 469 0 
L 469 531 
Q 828 903 1448 1529 
Q 2069 2156 2228 2338 
Q 2531 2678 2651 2914 
Q 2772 3150 2772 3378 
Q 2772 3750 2511 3984 
Q 2250 4219 1831 4219 
Q 1534 4219 1204 4116 
Q 875 4013 500 3803 
L 500 4441 
Q 881 4594 1212 4672 
Q 1544 4750 1819 4750 
Q 2544 4750 2975 4387 
Q 3406 4025 3406 3419 
Q 3406 3131 3298 2873 
Q 3191 2616 2906 2266 
Q 2828 2175 2409 1742 
Q 1991 1309 1228 531 
z
" transform="scale(0.015625)"/>
       </defs>
       <use xlink:href="#DejaVuSans-32"/>
      </g>
     </g>
    </g>
    <g id="xtick_3">
     <g id="line2d_5">
      <path d="M 232.512397 256.32 
L 232.512397 34.56 
" clip-path="url(#pd7af940b63)" style="fill: none; stroke: #b0b0b0; stroke-width: 0.8; stroke-linecap: square"/>
     </g>
     <g id="line2d_6">
      <g>
       <use xlink:href="#mfe035adcf4" x="232.512397" y="256.32" style="stroke: #000000; stroke-width: 0.8"/>
      </g>
     </g>
     <g id="text_3">
      <!-- 4 -->
      <g transform="translate(229.331147 270.918437) scale(0.1 -0.1)">
       <defs>
        <path id="DejaVuSans-34" d="M 2419 4116 
L 825 1625 
L 2419 1625 
L 2419 4116 
z
M 2253 4666 
L 3047 4666 
L 3047 1625 
L 3713 1625 
L 3713 1100 
L 3047 1100 
L 3047 0 
L 2419 0 
L 2419 1100 
L 313 1100 
L 313 1709 
L 2253 4666 
z
" transform="scale(0.015625)"/>
       </defs>
       <use xlink:href="#DejaVuSans-34"/>
      </g>
     </g>
    </g>
    <g id="xtick_4">
     <g id="line2d_7">
      <path d="M 287.85124 256.32 
L 287.85124 34.56 
" clip-path="url(#pd7af940b63)" style="fill: none; stroke: #b0b0b0; stroke-width: 0.8; stroke-linecap: square"/>
     </g>
     <g id="line2d_8">
      <g>
       <use xlink:href="#mfe035adcf4" x="287.85124" y="256.32" style="stroke: #000000; stroke-width: 0.8"/>
      </g>
     </g>
     <g id="text_4">
      <!-- 6 -->
      <g transform="translate(284.66999 270.918437) scale(0.1 -0.1)">
       <defs>
        <path id="DejaVuSans-36" d="M 2113 2584 
Q 1688 2584 1439 2293 
Q 1191 2003 1191 1497 
Q 1191 994 1439 701 
Q 1688 409 2113 409 
Q 2538 409 2786 701 
Q 3034 994 3034 1497 
Q 3034 2003 2786 2293 
Q 2538 2584 2113 2584 
z
M 3366 4563 
L 3366 3988 
Q 3128 4100 2886 4159 
Q 2644 4219 2406 4219 
Q 1781 4219 1451 3797 
Q 1122 3375 1075 2522 
Q 1259 2794 1537 2939 
Q 1816 3084 2150 3084 
Q 2853 3084 3261 2657 
Q 3669 2231 3669 1497 
Q 3669 778 3244 343 
Q 2819 -91 2113 -91 
Q 1303 -91 875 529 
Q 447 1150 447 2328 
Q 447 3434 972 4092 
Q 1497 4750 2381 4750 
Q 2619 4750 2861 4703 
Q 3103 4656 3366 4563 
z
" transform="scale(0.015625)"/>
       </defs>
       <use xlink:href="#DejaVuSans-36"/>
      </g>
     </g>
    </g>
    <g id="xtick_5">
     <g id="line2d_9">
      <path d="M 343.190083 256.32 
L 343.190083 34.56 
" clip-path="url(#pd7af940b63)" style="fill: none; stroke: #b0b0b0; stroke-width: 0.8; stroke-linecap: square"/>
     </g>
     <g id="line2d_10">
      <g>
       <use xlink:href="#mfe035adcf4" x="343.190083" y="256.32" style="stroke: #000000; stroke-width: 0.8"/>
      </g>
     </g>
     <g id="text_5">
      <!-- 8 -->
      <g transform="translate(340.008833 270.918437) scale(0.1 -0.1)">
       <defs>
        <path id="DejaVuSans-38" d="M 2034 2216 
Q 1584 2216 1326 1975 
Q 1069 1734 1069 1313 
Q 1069 891 1326 650 
Q 1584 409 2034 409 
Q 2484 409 2743 651 
Q 3003 894 3003 1313 
Q 3003 1734 2745 1975 
Q 2488 2216 2034 2216 
z
M 1403 2484 
Q 997 2584 770 2862 
Q 544 3141 544 3541 
Q 544 4100 942 4425 
Q 1341 4750 2034 4750 
Q 2731 4750 3128 4425 
Q 3525 4100 3525 3541 
Q 3525 3141 3298 2862 
Q 3072 2584 2669 2484 
Q 3125 2378 3379 2068 
Q 3634 1759 3634 1313 
Q 3634 634 3220 271 
Q 2806 -91 2034 -91 
Q 1263 -91 848 271 
Q 434 634 434 1313 
Q 434 1759 690 2068 
Q 947 2378 1403 2484 
z
M 1172 3481 
Q 1172 3119 1398 2916 
Q 1625 2713 2034 2713 
Q 2441 2713 2670 2916 
Q 2900 3119 2900 3481 
Q 2900 3844 2670 4047 
Q 2441 4250 2034 4250 
Q 1625 4250 1398 4047 
Q 1172 3844 1172 3481 
z
" transform="scale(0.015625)"/>
       </defs>
       <use xlink:href="#DejaVuSans-38"/>
      </g>
     </g>
    </g>
    <g id="xtick_6">
     <g id="line2d_11">
      <path d="M 398.528926 256.32 
L 398.528926 34.56 
" clip-path="url(#pd7af940b63)" style="fill: none; stroke: #b0b0b0; stroke-width: 0.8; stroke-linecap: square"/>
     </g>
     <g id="line2d_12">
      <g>
       <use xlink:href="#mfe035adcf4" x="398.528926" y="256.32" style="stroke: #000000; stroke-width: 0.8"/>
      </g>
     </g>
     <g id="text_6">
      <!-- 10 -->
      <g transform="translate(392.166426 270.918437) scale(0.1 -0.1)">
       <defs>
        <path id="DejaVuSans-31" d="M 794 531 
L 1825 531 
L 1825 4091 
L 703 3866 
L 703 4441 
L 1819 4666 
L 2450 4666 
L 2450 531 
L 3481 531 
L 3481 0 
L 794 0 
L 794 531 
z
" transform="scale(0.015625)"/>
       </defs>
       <use xlink:href="#DejaVuSans-31"/>
       <use xlink:href="#DejaVuSans-30" x="63.623047"/>
      </g>
     </g>
    </g>
   </g>
   <g id="matplotlib.axis_2">
    <g id="ytick_1">
     <g id="line2d_13">
      <path d="M 108 246.24 
L 412.363636 246.24 
" clip-path="url(#pd7af940b63)" style="fill: none; stroke: #b0b0b0; stroke-width: 0.8; stroke-linecap: square"/>
     </g>
     <g id="line2d_14">
      <defs>
       <path id="mf975c4e5e2" d="M 0 0 
L -3.5 0 
" style="stroke: #000000; stroke-width: 0.8"/>
      </defs>
      <g>
       <use xlink:href="#mf975c4e5e2" x="108" y="246.24" style="stroke: #000000; stroke-width: 0.8"/>
      </g>
     </g>
     <g id="text_7">
      <!-- 0.0 -->
      <g transform="translate(85.096875 250.039219) scale(0.1 -0.1)">
       <defs>
        <path id="DejaVuSans-2e" d="M 684 794 
L 1344 794 
L 1344 0 
L 684 0 
L 684 794 
z
" transform="scale(0.015625)"/>
       </defs>
       <use xlink:href="#DejaVuSans-30"/>
       <use xlink:href="#DejaVuSans-2e" x="63.623047"/>
       <use xlink:href="#DejaVuSans-30" x="95.410156"/>
      </g>
     </g>
    </g>
    <g id="ytick_2">
     <g id="line2d_15">
      <path d="M 108 204.3072 
L 412.363636 204.3072 
" clip-path="url(#pd7af940b63)" style="fill: none; stroke: #b0b0b0; stroke-width: 0.8; stroke-linecap: square"/>
     </g>
     <g id="line2d_16">
      <g>
       <use xlink:href="#mf975c4e5e2" x="108" y="204.3072" style="stroke: #000000; stroke-width: 0.8"/>
      </g>
     </g>
     <g id="text_8">
      <!-- 0.2 -->
      <g transform="translate(85.096875 208.106419) scale(0.1 -0.1)">
       <use xlink:href="#DejaVuSans-30"/>
       <use xlink:href="#DejaVuSans-2e" x="63.623047"/>
       <use xlink:href="#DejaVuSans-32" x="95.410156"/>
      </g>
     </g>
    </g>
    <g id="ytick_3">
     <g id="line2d_17">
      <path d="M 108 162.3744 
L 412.363636 162.3744 
" clip-path="url(#pd7af940b63)" style="fill: none; stroke: #b0b0b0; stroke-width: 0.8; stroke-linecap: square"/>
     </g>
     <g id="line2d_18">
      <g>
       <use xlink:href="#mf975c4e5e2" x="108" y="162.3744" style="stroke: #000000; stroke-width: 0.8"/>
      </g>
     </g>
     <g id="text_9">
      <!-- 0.4 -->
      <g transform="translate(85.096875 166.173619) scale(0.1 -0.1)">
       <use xlink:href="#DejaVuSans-30"/>
       <use xlink:href="#DejaVuSans-2e" x="63.623047"/>
       <use xlink:href="#DejaVuSans-34" x="95.410156"/>
      </g>
     </g>
    </g>
    <g id="ytick_4">
     <g id="line2d_19">
      <path d="M 108 120.4416 
L 412.363636 120.4416 
" clip-path="url(#pd7af940b63)" style="fill: none; stroke: #b0b0b0; stroke-width: 0.8; stroke-linecap: square"/>
     </g>
     <g id="line2d_20">
      <g>
       <use xlink:href="#mf975c4e5e2" x="108" y="120.4416" style="stroke: #000000; stroke-width: 0.8"/>
      </g>
     </g>
     <g id="text_10">
      <!-- 0.6 -->
      <g transform="translate(85.096875 124.240819) scale(0.1 -0.1)">
       <use xlink:href="#DejaVuSans-30"/>
       <use xlink:href="#DejaVuSans-2e" x="63.623047"/>
       <use xlink:href="#DejaVuSans-36" x="95.410156"/>
      </g>
     </g>
    </g>
    <g id="ytick_5">
     <g id="line2d_21">
      <path d="M 108 78.5088 
L 412.363636 78.5088 
" clip-path="url(#pd7af940b63)" style="fill: none; stroke: #b0b0b0; stroke-width: 0.8; stroke-linecap: square"/>
     </g>
     <g id="line2d_22">
      <g>
       <use xlink:href="#mf975c4e5e2" x="108" y="78.5088" style="stroke: #000000; stroke-width: 0.8"/>
      </g>
     </g>
     <g id="text_11">
      <!-- 0.8 -->
      <g transform="translate(85.096875 82.308019) scale(0.1 -0.1)">
       <use xlink:href="#DejaVuSans-30"/>
       <use xlink:href="#DejaVuSans-2e" x="63.623047"/>
       <use xlink:href="#DejaVuSans-38" x="95.410156"/>
      </g>
     </g>
    </g>
    <g id="ytick_6">
     <g id="line2d_23">
      <path d="M 108 36.576 
L 412.363636 36.576 
" clip-path="url(#pd7af940b63)" style="fill: none; stroke: #b0b0b0; stroke-width: 0.8; stroke-linecap: square"/>
     </g>
     <g id="line2d_24">
      <g>
       <use xlink:href="#mf975c4e5e2" x="108" y="36.576" style="stroke: #000000; stroke-width: 0.8"/>
      </g>
     </g>
     <g id="text_12">
      <!-- 1.0 -->
      <g transform="translate(85.096875 40.375219) scale(0.1 -0.1)">
       <use xlink:href="#DejaVuSans-31"/>
       <use xlink:href="#DejaVuSans-2e" x="63.623047"/>
       <use xlink:href="#DejaVuSans-30" x="95.410156"/>
      </g>
     </g>
    </g>
   </g>
   <g id="line2d_25">
    <path d="M 121.834711 246.24 
L 124.629602 236.16 
L 127.424493 227.004771 
L 130.219384 218.652632 
L 133.014275 211.002353 
L 135.809166 203.969032 
L 138.604057 197.48093 
L 141.398948 191.477015 
L 144.193839 185.905036 
L 146.98873 180.72 
L 149.783621 175.882953 
L 152.578512 171.36 
L 155.373403 167.121509 
L 158.168295 163.141463 
L 160.963186 159.396923 
L 163.758077 155.867586 
L 166.552968 152.535419 
L 169.347859 149.384348 
L 172.14275 146.4 
L 174.937641 143.569485 
L 177.732532 140.881206 
L 180.527423 138.324706 
L 183.322314 135.890526 
L 186.117205 133.570093 
L 188.912096 131.355616 
L 191.706987 129.24 
L 194.501878 127.216769 
L 197.296769 125.28 
L 200.09166 123.424268 
L 202.886551 121.64459 
L 205.681443 119.936386 
L 208.476334 118.295433 
L 211.271225 116.717838 
L 214.066116 115.2 
L 216.861007 113.738587 
L 219.655898 112.330511 
L 222.450789 110.972903 
L 225.24568 109.663099 
L 228.040571 108.398616 
L 230.835462 107.177143 
L 233.630353 105.996522 
L 236.425244 104.854737 
L 239.220135 103.749903 
L 242.015026 102.680255 
L 244.809917 101.644138 
L 247.604808 100.64 
L 250.399699 99.666383 
L 253.194591 98.721916 
L 255.989482 97.80531 
L 258.784373 96.915349 
L 261.579264 96.050888 
L 264.374155 95.210847 
L 267.169046 94.394206 
L 269.963937 93.6 
L 272.758828 92.827317 
L 275.553719 92.075294 
L 278.34861 91.343113 
L 281.143501 90.63 
L 283.938392 89.935219 
L 286.733283 89.258071 
L 289.528174 88.597895 
L 292.323065 87.954059 
L 295.117956 87.325966 
L 297.912847 86.713043 
L 300.707739 86.114749 
L 303.50263 85.530566 
L 306.297521 84.96 
L 309.092412 84.402581 
L 311.887303 83.857859 
L 314.682194 83.325405 
L 317.477085 82.804811 
L 320.271976 82.295683 
L 323.066867 81.797647 
L 325.861758 81.310345 
L 328.656649 80.833433 
L 331.45154 80.366582 
L 334.246431 79.909478 
L 337.041322 79.461818 
L 339.836213 79.023313 
L 342.631104 78.593684 
L 345.425995 78.172665 
L 348.220887 77.76 
L 351.015778 77.355442 
L 353.810669 76.958755 
L 356.60556 76.569711 
L 359.400451 76.188092 
L 362.195342 75.813686 
L 364.990233 75.446292 
L 367.785124 75.085714 
L 370.580015 74.731765 
L 373.374906 74.384262 
L 376.169797 74.043032 
L 378.964688 73.707907 
L 381.759579 73.378723 
L 384.55447 73.055325 
L 387.349361 72.737561 
L 390.144252 72.425285 
L 392.939144 72.118356 
L 395.734035 71.816638 
L 398.528926 71.52 
" clip-path="url(#pd7af940b63)" style="fill: none; stroke: #1f77b4; stroke-width: 1.5; stroke-linecap: square"/>
   </g>
   <g id="line2d_26">
    <path d="M 121.834711 246.24 
L 124.629602 245.706558 
L 127.424493 244.122396 
L 130.219384 241.534794 
L 133.014275 238.018688 
L 135.809166 233.671421 
L 138.604057 228.606358 
L 141.398948 222.946113 
L 144.193839 216.816055 
L 146.98873 210.33863 
L 149.783621 203.62883 
L 152.578512 196.790943 
L 155.373403 189.916561 
L 158.168295 183.08369 
L 160.963186 176.356754 
L 163.758077 169.787258 
L 166.552968 163.41489 
L 169.347859 157.268873 
L 172.14275 151.369412 
L 174.937641 145.729132 
L 177.732532 140.354439 
L 180.527423 135.246742 
L 183.322314 130.403536 
L 186.117205 125.819328 
L 188.912096 121.486411 
L 191.706987 117.39551 
L 194.501878 113.536296 
L 197.296769 109.897803 
L 200.09166 106.468754 
L 202.886551 103.237807 
L 205.681443 100.193748 
L 208.476334 97.325626 
L 211.271225 94.622859 
L 214.066116 92.075294 
L 216.861007 89.673255 
L 219.655898 87.407565 
L 222.450789 85.269559 
L 225.24568 83.251075 
L 228.040571 81.344455 
L 230.835462 79.542522 
L 233.630353 77.838562 
L 236.425244 76.226308 
L 239.220135 74.69991 
L 242.015026 73.253915 
L 244.809917 71.883243 
L 247.604808 70.583164 
L 250.399699 69.349271 
L 253.194591 68.177465 
L 255.989482 67.063928 
L 258.784373 66.005108 
L 261.579264 64.997694 
L 264.374155 64.038605 
L 267.169046 63.12497 
L 269.963937 62.254115 
L 272.758828 61.423546 
L 275.553719 60.630935 
L 278.34861 59.874113 
L 281.143501 59.151054 
L 283.938392 58.459866 
L 286.733283 57.79878 
L 289.528174 57.166143 
L 292.323065 56.560409 
L 295.117956 55.980131 
L 297.912847 55.423952 
L 300.707739 54.890604 
L 303.50263 54.378894 
L 306.297521 53.887706 
L 309.092412 53.415992 
L 311.887303 52.962766 
L 314.682194 52.527104 
L 317.477085 52.108134 
L 320.271976 51.705039 
L 323.066867 51.317048 
L 325.861758 50.943436 
L 328.656649 50.583518 
L 331.45154 50.23665 
L 334.246431 49.902223 
L 337.041322 49.579663 
L 339.836213 49.268428 
L 342.631104 48.968006 
L 345.425995 48.677913 
L 348.220887 48.397689 
L 351.015778 48.126901 
L 353.810669 47.865139 
L 356.60556 47.612014 
L 359.400451 47.367157 
L 362.195342 47.130218 
L 364.990233 46.900866 
L 367.785124 46.678786 
L 370.580015 46.463679 
L 373.374906 46.255261 
L 376.169797 46.053262 
L 378.964688 45.857425 
L 381.759579 45.667507 
L 384.55447 45.483273 
L 387.349361 45.304504 
L 390.144252 45.130989 
L 392.939144 44.962526 
L 395.734035 44.798924 
L 398.528926 44.64 
" clip-path="url(#pd7af940b63)" style="fill: none; stroke: #ff7f0e; stroke-width: 1.5; stroke-linecap: square"/>
   </g>
   <g id="patch_3">
    <path d="M 108 256.32 
L 108 34.56 
" style="fill: none; stroke: #000000; stroke-width: 0.8; stroke-linejoin: miter; stroke-linecap: square"/>
   </g>
   <g id="patch_4">
    <path d="M 412.363636 256.32 
L 412.363636 34.56 
" style="fill: none; stroke: #000000; stroke-width: 0.8; stroke-linejoin: miter; stroke-linecap: square"/>
   </g>
   <g id="patch_5">
    <path d="M 108 256.32 
L 412.363636 256.32 
" style="fill: none; stroke: #000000; stroke-width: 0.8; stroke-linejoin: miter; stroke-linecap: square"/>
   </g>
   <g id="patch_6">
    <path d="M 108 34.56 
L 412.363636 34.56 
" style="fill: none; stroke: #000000; stroke-width: 0.8; stroke-linejoin: miter; stroke-linecap: square"/>
   </g>
   <g id="legend_1">
    <g id="patch_7">
     <path d="M 115 71.91625 
L 193.6875 71.91625 
Q 195.6875 71.91625 195.6875 69.91625 
L 195.6875 41.56 
Q 195.6875 39.56 193.6875 39.56 
L 115 39.56 
Q 113 39.56 113 41.56 
L 113 69.91625 
Q 113 71.91625 115 71.91625 
z
" style="fill: #ffffff; opacity: 0.8; stroke: #cccccc; stroke-linejoin: miter"/>
    </g>
    <g id="line2d_27">
     <path d="M 117 47.658437 
L 127 47.658437 
L 137 47.658437 
" style="fill: none; stroke: #1f77b4; stroke-width: 1.5; stroke-linecap: square"/>
    </g>
    <g id="text_13">
     <!-- Holling II -->
     <g transform="translate(145 51.158437) scale(0.1 -0.1)">
      <defs>
       <path id="DejaVuSans-48" d="M 628 4666 
L 1259 4666 
L 1259 2753 
L 3553 2753 
L 3553 4666 
L 4184 4666 
L 4184 0 
L 3553 0 
L 3553 2222 
L 1259 2222 
L 1259 0 
L 628 0 
L 628 4666 
z
" transform="scale(0.015625)"/>
       <path id="DejaVuSans-6f" d="M 1959 3097 
Q 1497 3097 1228 2736 
Q 959 2375 959 1747 
Q 959 1119 1226 758 
Q 1494 397 1959 397 
Q 2419 397 2687 759 
Q 2956 1122 2956 1747 
Q 2956 2369 2687 2733 
Q 2419 3097 1959 3097 
z
M 1959 3584 
Q 2709 3584 3137 3096 
Q 3566 2609 3566 1747 
Q 3566 888 3137 398 
Q 2709 -91 1959 -91 
Q 1206 -91 779 398 
Q 353 888 353 1747 
Q 353 2609 779 3096 
Q 1206 3584 1959 3584 
z
" transform="scale(0.015625)"/>
       <path id="DejaVuSans-6c" d="M 603 4863 
L 1178 4863 
L 1178 0 
L 603 0 
L 603 4863 
z
" transform="scale(0.015625)"/>
       <path id="DejaVuSans-69" d="M 603 3500 
L 1178 3500 
L 1178 0 
L 603 0 
L 603 3500 
z
M 603 4863 
L 1178 4863 
L 1178 4134 
L 603 4134 
L 603 4863 
z
" transform="scale(0.015625)"/>
       <path id="DejaVuSans-6e" d="M 3513 2113 
L 3513 0 
L 2938 0 
L 2938 2094 
Q 2938 2591 2744 2837 
Q 2550 3084 2163 3084 
Q 1697 3084 1428 2787 
Q 1159 2491 1159 1978 
L 1159 0 
L 581 0 
L 581 3500 
L 1159 3500 
L 1159 2956 
Q 1366 3272 1645 3428 
Q 1925 3584 2291 3584 
Q 2894 3584 3203 3211 
Q 3513 2838 3513 2113 
z
" transform="scale(0.015625)"/>
       <path id="DejaVuSans-67" d="M 2906 1791 
Q 2906 2416 2648 2759 
Q 2391 3103 1925 3103 
Q 1463 3103 1205 2759 
Q 947 2416 947 1791 
Q 947 1169 1205 825 
Q 1463 481 1925 481 
Q 2391 481 2648 825 
Q 2906 1169 2906 1791 
z
M 3481 434 
Q 3481 -459 3084 -895 
Q 2688 -1331 1869 -1331 
Q 1566 -1331 1297 -1286 
Q 1028 -1241 775 -1147 
L 775 -588 
Q 1028 -725 1275 -790 
Q 1522 -856 1778 -856 
Q 2344 -856 2625 -561 
Q 2906 -266 2906 331 
L 2906 616 
Q 2728 306 2450 153 
Q 2172 0 1784 0 
Q 1141 0 747 490 
Q 353 981 353 1791 
Q 353 2603 747 3093 
Q 1141 3584 1784 3584 
Q 2172 3584 2450 3431 
Q 2728 3278 2906 2969 
L 2906 3500 
L 3481 3500 
L 3481 434 
z
" transform="scale(0.015625)"/>
       <path id="DejaVuSans-20" transform="scale(0.015625)"/>
       <path id="DejaVuSans-49" d="M 628 4666 
L 1259 4666 
L 1259 0 
L 628 0 
L 628 4666 
z
" transform="scale(0.015625)"/>
      </defs>
      <use xlink:href="#DejaVuSans-48"/>
      <use xlink:href="#DejaVuSans-6f" x="75.195312"/>
      <use xlink:href="#DejaVuSans-6c" x="136.376953"/>
      <use xlink:href="#DejaVuSans-6c" x="164.160156"/>
      <use xlink:href="#DejaVuSans-69" x="191.943359"/>
      <use xlink:href="#DejaVuSans-6e" x="219.726562"/>
      <use xlink:href="#DejaVuSans-67" x="283.105469"/>
      <use xlink:href="#DejaVuSans-20" x="346.582031"/>
      <use xlink:href="#DejaVuSans-49" x="378.369141"/>
      <use xlink:href="#DejaVuSans-49" x="407.861328"/>
     </g>
    </g>
    <g id="line2d_28">
     <path d="M 117 62.336562 
L 127 62.336562 
L 137 62.336562 
" style="fill: none; stroke: #ff7f0e; stroke-width: 1.5; stroke-linecap: square"/>
    </g>
    <g id="text_14">
     <!-- Holling III -->
     <g transform="translate(145 65.836562) scale(0.1 -0.1)">
      <use xlink:href="#DejaVuSans-48"/>
      <use xlink:href="#DejaVuSans-6f" x="75.195312"/>
      <use xlink:href="#DejaVuSans-6c" x="136.376953"/>
      <use xlink:href="#DejaVuSans-6c" x="164.160156"/>
      <use xlink:href="#DejaVuSans-69" x="191.943359"/>
      <use xlink:href="#DejaVuSans-6e" x="219.726562"/>
      <use xlink:href="#DejaVuSans-67" x="283.105469"/>
      <use xlink:href="#DejaVuSans-20" x="346.582031"/>
      <use xlink:href="#DejaVuSans-49" x="378.369141"/>
      <use xlink:href="#DejaVuSans-49" x="407.861328"/>
      <use xlink:href="#DejaVuSans-49" x="437.353516"/>
     </g>
    </g>
   </g>
  </g>
  <g id="axes_2">
   <g id="patch_8">
    <path d="M 473.236364 256.32 
L 777.6 256.32 
L 777.6 34.56 
L 473.236364 34.56 
z
" style="fill: #ffffff"/>
   </g>
   <g id="matplotlib.axis_3">
    <g id="xtick_7">
     <g id="line2d_29">
      <path d="M 512.225094 256.32 
L 512.225094 34.56 
" clip-path="url(#p53551565b8)" style="fill: none; stroke: #b0b0b0; stroke-width: 0.8; stroke-linecap: square"/>
     </g>
     <g id="line2d_30">
      <g>
       <use xlink:href="#mfe035adcf4" x="512.225094" y="256.32" style="stroke: #000000; stroke-width: 0.8"/>
      </g>
     </g>
     <g id="text_15">
      <!-- −10 -->
      <g transform="translate(501.67275 270.918437) scale(0.1 -0.1)">
       <defs>
        <path id="DejaVuSans-2212" d="M 678 2272 
L 4684 2272 
L 4684 1741 
L 678 1741 
L 678 2272 
z
" transform="scale(0.015625)"/>
       </defs>
       <use xlink:href="#DejaVuSans-2212"/>
       <use xlink:href="#DejaVuSans-31" x="83.789062"/>
       <use xlink:href="#DejaVuSans-30" x="147.412109"/>
      </g>
     </g>
    </g>
    <g id="xtick_8">
     <g id="line2d_31">
      <path d="M 575.110143 256.32 
L 575.110143 34.56 
" clip-path="url(#p53551565b8)" style="fill: none; stroke: #b0b0b0; stroke-width: 0.8; stroke-linecap: square"/>
     </g>
     <g id="line2d_32">
      <g>
       <use xlink:href="#mfe035adcf4" x="575.110143" y="256.32" style="stroke: #000000; stroke-width: 0.8"/>
      </g>
     </g>
     <g id="text_16">
      <!-- −5 -->
      <g transform="translate(567.739049 270.918437) scale(0.1 -0.1)">
       <defs>
        <path id="DejaVuSans-35" d="M 691 4666 
L 3169 4666 
L 3169 4134 
L 1269 4134 
L 1269 2991 
Q 1406 3038 1543 3061 
Q 1681 3084 1819 3084 
Q 2600 3084 3056 2656 
Q 3513 2228 3513 1497 
Q 3513 744 3044 326 
Q 2575 -91 1722 -91 
Q 1428 -91 1123 -41 
Q 819 9 494 109 
L 494 744 
Q 775 591 1075 516 
Q 1375 441 1709 441 
Q 2250 441 2565 725 
Q 2881 1009 2881 1497 
Q 2881 1984 2565 2268 
Q 2250 2553 1709 2553 
Q 1456 2553 1204 2497 
Q 953 2441 691 2322 
L 691 4666 
z
" transform="scale(0.015625)"/>
       </defs>
       <use xlink:href="#DejaVuSans-2212"/>
       <use xlink:href="#DejaVuSans-35" x="83.789062"/>
      </g>
     </g>
    </g>
    <g id="xtick_9">
     <g id="line2d_33">
      <path d="M 637.995192 256.32 
L 637.995192 34.56 
" clip-path="url(#p53551565b8)" style="fill: none; stroke: #b0b0b0; stroke-width: 0.8; stroke-linecap: square"/>
     </g>
     <g id="line2d_34">
      <g>
       <use xlink:href="#mfe035adcf4" x="637.995192" y="256.32" style="stroke: #000000; stroke-width: 0.8"/>
      </g>
     </g>
     <g id="text_17">
      <!-- 0 -->
      <g transform="translate(634.813942 270.918437) scale(0.1 -0.1)">
       <use xlink:href="#DejaVuSans-30"/>
      </g>
     </g>
    </g>
    <g id="xtick_10">
     <g id="line2d_35">
      <path d="M 700.88024 256.32 
L 700.88024 34.56 
" clip-path="url(#p53551565b8)" style="fill: none; stroke: #b0b0b0; stroke-width: 0.8; stroke-linecap: square"/>
     </g>
     <g id="line2d_36">
      <g>
       <use xlink:href="#mfe035adcf4" x="700.88024" y="256.32" style="stroke: #000000; stroke-width: 0.8"/>
      </g>
     </g>
     <g id="text_18">
      <!-- 5 -->
      <g transform="translate(697.69899 270.918437) scale(0.1 -0.1)">
       <use xlink:href="#DejaVuSans-35"/>
      </g>
     </g>
    </g>
    <g id="xtick_11">
     <g id="line2d_37">
      <path d="M 763.765289 256.32 
L 763.765289 34.56 
" clip-path="url(#p53551565b8)" style="fill: none; stroke: #b0b0b0; stroke-width: 0.8; stroke-linecap: square"/>
     </g>
     <g id="line2d_38">
      <g>
       <use xlink:href="#mfe035adcf4" x="763.765289" y="256.32" style="stroke: #000000; stroke-width: 0.8"/>
      </g>
     </g>
     <g id="text_19">
      <!-- 10 -->
      <g transform="translate(757.402789 270.918437) scale(0.1 -0.1)">
       <use xlink:href="#DejaVuSans-31"/>
       <use xlink:href="#DejaVuSans-30" x="63.623047"/>
      </g>
     </g>
    </g>
   </g>
   <g id="matplotlib.axis_4">
    <g id="ytick_7">
     <g id="line2d_39">
      <path d="M 473.236364 256.32 
L 777.6 256.32 
" clip-path="url(#p53551565b8)" style="fill: none; stroke: #b0b0b0; stroke-width: 0.8; stroke-linecap: square"/>
     </g>
     <g id="line2d_40">
      <g>
       <use xlink:href="#mf975c4e5e2" x="473.236364" y="256.32" style="stroke: #000000; stroke-width: 0.8"/>
      </g>
     </g>
     <g id="text_20">
      <!-- −2 -->
      <g transform="translate(451.494176 260.119219) scale(0.1 -0.1)">
       <use xlink:href="#DejaVuSans-2212"/>
       <use xlink:href="#DejaVuSans-32" x="83.789062"/>
      </g>
     </g>
    </g>
    <g id="ytick_8">
     <g id="line2d_41">
      <path d="M 473.236364 219.36 
L 777.6 219.36 
" clip-path="url(#p53551565b8)" style="fill: none; stroke: #b0b0b0; stroke-width: 0.8; stroke-linecap: square"/>
     </g>
     <g id="line2d_42">
      <g>
       <use xlink:href="#mf975c4e5e2" x="473.236364" y="219.36" style="stroke: #000000; stroke-width: 0.8"/>
      </g>
     </g>
     <g id="text_21">
      <!-- −1 -->
      <g transform="translate(451.494176 223.159219) scale(0.1 -0.1)">
       <use xlink:href="#DejaVuSans-2212"/>
       <use xlink:href="#DejaVuSans-31" x="83.789062"/>
      </g>
     </g>
    </g>
    <g id="ytick_9">
     <g id="line2d_43">
      <path d="M 473.236364 182.4 
L 777.6 182.4 
" clip-path="url(#p53551565b8)" style="fill: none; stroke: #b0b0b0; stroke-width: 0.8; stroke-linecap: square"/>
     </g>
     <g id="line2d_44">
      <g>
       <use xlink:href="#mf975c4e5e2" x="473.236364" y="182.4" style="stroke: #000000; stroke-width: 0.8"/>
      </g>
     </g>
     <g id="text_22">
      <!-- 0 -->
      <g transform="translate(459.873864 186.199219) scale(0.1 -0.1)">
       <use xlink:href="#DejaVuSans-30"/>
      </g>
     </g>
    </g>
    <g id="ytick_10">
     <g id="line2d_45">
      <path d="M 473.236364 145.44 
L 777.6 145.44 
" clip-path="url(#p53551565b8)" style="fill: none; stroke: #b0b0b0; stroke-width: 0.8; stroke-linecap: square"/>
     </g>
     <g id="line2d_46">
      <g>
       <use xlink:href="#mf975c4e5e2" x="473.236364" y="145.44" style="stroke: #000000; stroke-width: 0.8"/>
      </g>
     </g>
     <g id="text_23">
      <!-- 1 -->
      <g transform="translate(459.873864 149.239219) scale(0.1 -0.1)">
       <use xlink:href="#DejaVuSans-31"/>
      </g>
     </g>
    </g>
    <g id="ytick_11">
     <g id="line2d_47">
      <path d="M 473.236364 108.48 
L 777.6 108.48 
" clip-path="url(#p53551565b8)" style="fill: none; stroke: #b0b0b0; stroke-width: 0.8; stroke-linecap: square"/>
     </g>
     <g id="line2d_48">
      <g>
       <use xlink:href="#mf975c4e5e2" x="473.236364" y="108.48" style="stroke: #000000; stroke-width: 0.8"/>
      </g>
     </g>
     <g id="text_24">
      <!-- 2 -->
      <g transform="translate(459.873864 112.279219) scale(0.1 -0.1)">
       <use xlink:href="#DejaVuSans-32"/>
      </g>
     </g>
    </g>
    <g id="ytick_12">
     <g id="line2d_49">
      <path d="M 473.236364 71.52 
L 777.6 71.52 
" clip-path="url(#p53551565b8)" style="fill: none; stroke: #b0b0b0; stroke-width: 0.8; stroke-linecap: square"/>
     </g>
     <g id="line2d_50">
      <g>
       <use xlink:href="#mf975c4e5e2" x="473.236364" y="71.52" style="stroke: #000000; stroke-width: 0.8"/>
      </g>
     </g>
     <g id="text_25">
      <!-- 3 -->
      <g transform="translate(459.873864 75.319219) scale(0.1 -0.1)">
       <defs>
        <path id="DejaVuSans-33" d="M 2597 2516 
Q 3050 2419 3304 2112 
Q 3559 1806 3559 1356 
Q 3559 666 3084 287 
Q 2609 -91 1734 -91 
Q 1441 -91 1130 -33 
Q 819 25 488 141 
L 488 750 
Q 750 597 1062 519 
Q 1375 441 1716 441 
Q 2309 441 2620 675 
Q 2931 909 2931 1356 
Q 2931 1769 2642 2001 
Q 2353 2234 1838 2234 
L 1294 2234 
L 1294 2753 
L 1863 2753 
Q 2328 2753 2575 2939 
Q 2822 3125 2822 3475 
Q 2822 3834 2567 4026 
Q 2313 4219 1838 4219 
Q 1578 4219 1281 4162 
Q 984 4106 628 3988 
L 628 4550 
Q 988 4650 1302 4700 
Q 1616 4750 1894 4750 
Q 2613 4750 3031 4423 
Q 3450 4097 3450 3541 
Q 3450 3153 3228 2886 
Q 3006 2619 2597 2516 
z
" transform="scale(0.015625)"/>
       </defs>
       <use xlink:href="#DejaVuSans-33"/>
      </g>
     </g>
    </g>
    <g id="ytick_13">
     <g id="line2d_51">
      <path d="M 473.236364 34.56 
L 777.6 34.56 
" clip-path="url(#p53551565b8)" style="fill: none; stroke: #b0b0b0; stroke-width: 0.8; stroke-linecap: square"/>
     </g>
     <g id="line2d_52">
      <g>
       <use xlink:href="#mf975c4e5e2" x="473.236364" y="34.56" style="stroke: #000000; stroke-width: 0.8"/>
      </g>
     </g>
     <g id="text_26">
      <!-- 4 -->
      <g transform="translate(459.873864 38.359219) scale(0.1 -0.1)">
       <use xlink:href="#DejaVuSans-34"/>
      </g>
     </g>
    </g>
   </g>
   <g id="line2d_53">
    <path d="M 619.326791 289 
L 619.514687 284.750769 
L 620.028035 274.8 
L 620.541382 266.176 
L 621.054729 258.63 
L 621.568077 251.971765 
L 622.081424 246.053333 
L 622.594771 240.757895 
L 623.108119 235.992 
L 623.621466 231.68 
L 624.134813 227.76 
L 624.648161 224.18087 
L 625.161508 220.9 
L 625.674855 217.8816 
L 626.188203 215.095385 
L 626.70155 212.515556 
L 627.214897 210.12 
L 627.728245 207.889655 
L 628.241592 205.808 
L 628.75494 203.860645 
L 629.268287 202.035 
L 629.781634 200.32 
L 630.294982 198.705882 
L 630.808329 197.184 
L 631.321676 195.746667 
L 631.835024 194.387027 
L 632.348371 193.098947 
L 632.861718 191.876923 
L 633.375066 190.716 
L 633.888413 189.611707 
L 634.40176 188.56 
L 634.915108 187.557209 
L 635.428455 186.6 
L 635.941802 185.685333 
L 636.45515 184.810435 
L 636.968497 183.972766 
L 637.481844 183.17 
L 637.995192 182.4 
" clip-path="url(#p53551565b8)" style="fill: none; stroke: #1f77b4; stroke-width: 1.5; stroke-linecap: square"/>
   </g>
   <g id="line2d_54">
    <path d="M 487.071074 138.048 
L 489.637811 137.894 
L 492.204548 137.733447 
L 494.771284 137.565913 
L 497.338021 137.390933 
L 499.904758 137.208 
L 502.471495 137.016558 
L 505.038231 136.816 
L 507.604968 136.605659 
L 510.171705 136.3848 
L 512.738441 136.152615 
L 515.305178 135.908211 
L 517.871915 135.650595 
L 520.438651 135.378667 
L 523.005388 135.0912 
L 525.572125 134.786824 
L 528.138861 134.464 
L 530.705598 134.121 
L 533.272335 133.755871 
L 535.839071 133.3664 
L 538.405808 132.950069 
L 540.972545 132.504 
L 543.539281 132.024889 
L 546.106018 131.508923 
L 548.672755 130.95168 
L 551.239492 130.348 
L 553.806228 129.691826 
L 556.372965 128.976 
L 558.939702 128.192 
L 561.506438 127.3296 
L 564.073175 126.376421 
L 566.639912 125.317333 
L 569.206648 124.133647 
L 571.773385 122.802 
L 574.340122 121.2928 
L 576.906858 119.568 
L 579.473595 117.577846 
L 582.040332 115.256 
L 584.607068 112.512 
L 587.173805 109.2192 
L 589.740542 105.194667 
L 592.307279 100.164 
L 594.874015 93.696 
L 597.440752 85.072 
L 600.007489 72.9984 
L 602.574225 54.888 
L 605.140962 24.704 
L 606.233849 -1 
" clip-path="url(#p53551565b8)" style="fill: none; stroke: #1f77b4; stroke-width: 1.5; stroke-linecap: square"/>
   </g>
   <g id="line2d_55">
    <path d="M 637.995192 182.4 
L 640.561928 178.977778 
L 643.128665 176.135593 
L 645.695402 173.7375 
L 648.262138 171.686957 
L 650.828875 169.913514 
L 653.395612 168.364557 
L 655.962348 167 
L 658.529085 165.788764 
L 661.095822 164.706383 
L 663.662558 163.733333 
L 666.229295 162.853846 
L 668.796032 162.055046 
L 671.362769 161.326316 
L 673.929505 160.658824 
L 676.496242 160.045161 
L 679.062979 159.47907 
L 681.629715 158.955224 
L 684.196452 158.469065 
L 686.763189 158.016667 
L 689.329925 157.594631 
L 691.896662 157.2 
L 694.463399 156.830189 
L 697.030135 156.482927 
L 699.596872 156.156213 
L 702.163609 155.848276 
L 704.730345 155.557542 
L 707.297082 155.282609 
L 709.863819 155.022222 
L 712.430556 154.775258 
L 714.997292 154.540704 
L 717.564029 154.317647 
L 720.130766 154.105263 
L 722.697502 153.902804 
L 725.264239 153.709589 
L 727.830976 153.525 
L 730.397712 153.348472 
L 732.964449 153.179487 
L 735.531186 153.017573 
L 738.097922 152.862295 
L 740.664659 152.713253 
L 743.231396 152.570079 
L 745.798132 152.432432 
L 748.364869 152.3 
L 750.931606 152.172491 
L 753.498343 152.049635 
L 756.065079 151.931183 
L 758.631816 151.816901 
L 761.198553 151.706574 
L 763.765289 151.6 
" clip-path="url(#p53551565b8)" style="fill: none; stroke: #ff7f0e; stroke-width: 4; stroke-linecap: square"/>
   </g>
   <g id="LineCollection_1">
    <path d="M 612.841172 289 
L 612.841172 34.56 
" clip-path="url(#p53551565b8)" style="fill: none; stroke-dasharray: 3.7,1.6; stroke-dashoffset: 0; stroke: #808080"/>
   </g>
   <g id="patch_9">
    <path d="M 473.236364 256.32 
L 473.236364 34.56 
" style="fill: none; stroke: #000000; stroke-width: 0.8; stroke-linejoin: miter; stroke-linecap: square"/>
   </g>
   <g id="patch_10">
    <path d="M 777.6 256.32 
L 777.6 34.56 
" style="fill: none; stroke: #000000; stroke-width: 0.8; stroke-linejoin: miter; stroke-linecap: square"/>
   </g>
   <g id="patch_11">
    <path d="M 473.236364 256.32 
L 777.6 256.32 
" style="fill: none; stroke: #000000; stroke-width: 0.8; stroke-linejoin: miter; stroke-linecap: square"/>
   </g>
   <g id="patch_12">
    <path d="M 473.236364 34.56 
L 777.6 34.56 
" style="fill: none; stroke: #000000; stroke-width: 0.8; stroke-linejoin: miter; stroke-linecap: square"/>
   </g>
  </g>
 </g>
 <defs>
  <clipPath id="pd7af940b63">
   <rect x="108" y="34.56" width="304.363636" height="221.76"/>
  </clipPath>
  <clipPath id="p53551565b8">
   <rect x="473.236364" y="34.56" width="304.363636" height="221.76"/>
  </clipPath>
 </defs>
</svg>
