<?xml version="1.0" encoding="UTF-8"?>
<!DOCTYPE svg PUBLIC "-//W3C//DTD SVG 1.1//EN" "http://www.w3.org/Graphics/SVG/1.1/DTD/svg11.dtd">
<!-- Creator: CorelDRAW -->
<svg xmlns="http://www.w3.org/2000/svg" xml:space="preserve" width="210mm" height="27mm" version="1.1" style="shape-rendering:geometricPrecision; text-rendering:geometricPrecision; image-rendering:optimizeQuality; fill-rule:evenodd; clip-rule:evenodd"
viewBox="0 0 20985.75 2698.17"
 xmlns:xlink="http://www.w3.org/1999/xlink"
 xmlns:xodm="http://www.corel.com/coreldraw/odm/2003">
 <defs>
  <style type="text/css">
   <![CDATA[
    .fil3 {fill:white}
    .fil5 {fill:#ECECEC}
    .fil0 {fill:white}
    .fil4 {fill:#0F3791;fill-rule:nonzero}
    .fil6 {fill:#0F3791;fill-rule:nonzero}
    .fil2 {fill:#19C8EB;fill-rule:nonzero}
    .fil1 {fill:#E6E6E6;fill-rule:nonzero}
   ]]>
  </style>
 </defs>
 <g id="Vrstva_x0020_1">
  <metadata id="CorelCorpID_0Corel-Layer"/>
  <rect class="fil0" width="20985.75" height="2698.17"/>
  <g id="_105553415419552">
   <g>
    <path class="fil1" d="M3770.1 929.49l383.03 221.15 0.12 0.55 32.32 18.66c25.76,14.87 36.39,32.9 36.39,62.73l0 43.41 0 351.59 0 84.54c0,29.74 -10.3,47.95 -36.14,62.87l-285.67 164.93 -0.05 -0.17 -130 75.05c-25.75,14.87 -46.68,15.06 -72.51,0.15l-393.28 -227.07 0.01 -0.02 -22.69 -13.1c-25.82,-14.91 -36.13,-33.13 -36.13,-62.87l0 -56.15 0 -321.27 0 -11.12 0 -91.67c0,-29.83 10.62,-47.86 36.38,-62.73l318.89 -184.1 0.07 0.37 96.75 -55.86c25.83,-14.92 46.76,-14.73 72.51,0.14z"/>
    <path class="fil2" d="M3734.2 1022.84c27.51,-0.04 118.82,44.73 206.25,95.21 87.71,50.63 172.57,107.61 186.4,131.47 13.81,23.84 20.7,125.29 20.7,226.26 0,101.21 -6.92,203.17 -20.7,227.13 -13.72,23.85 -98.14,80.54 -185.58,131.02 -87.67,50.64 -179.46,95.65 -207.07,95.7 -27.52,0.04 -118.84,-44.73 -206.29,-95.22 -87.68,-50.66 -172.53,-107.62 -186.35,-131.46 -13.82,-23.84 -20.71,-125.3 -20.71,-226.26 0,-101.2 6.93,-203.17 20.71,-227.13 13.73,-23.87 98.14,-80.54 185.56,-131.02 87.67,-50.65 179.47,-95.66 207.08,-95.7z"/>
    <path class="fil3" d="M3631.3 1459.1c-0.14,-124.29 27.06,-134.99 104.99,-232.3 10.76,-13.44 30.29,-35.53 36.59,-47.11 27.33,-50.27 -35.67,-88.63 -73.43,-36.09 -69.17,96.26 -137.7,157.84 -144.44,268.31 -9.32,152.61 -0.69,124.37 206.18,124.37 0,29.38 -4.09,240.45 4.19,259.13 10.87,24.56 71.1,42.09 75.03,-17.73l0.27 -356.36c0,-46.48 18.91,-166.62 -53.04,-138.83 -29.47,11.38 -26.59,40.05 -26.45,73.83 0.13,34.25 0.01,68.52 0,102.77l-129.87 0z"/>
    <path class="fil4" d="M3098.44 1780.83c-13.21,0 -23.36,-3.71 -30.43,-11.13 -6.72,-7.06 -10.73,-16.42 -12.03,-28.03 -6.8,-51.64 0.56,-169.91 0.77,-228.62l-172.11 0 0 227.73c0,10.33 -3.91,19.6 -11.7,27.72 -7.87,8.21 -17.61,12.34 -29.18,12.34 -11.52,0 -21.23,-3.94 -29.08,-11.79 -3.82,-3.82 -6.74,-7.94 -8.71,-12.35 -2.05,-4.56 -3.09,-9.32 -3.09,-14.28l-1.6 -508.55c-0.03,-5.74 1.06,-11.09 3.23,-16.03 2.17,-4.96 5.39,-9.38 9.61,-13.28 4.12,-3.8 8.7,-6.69 13.7,-8.63 4.99,-1.96 10.31,-2.94 15.94,-2.94 11.52,0 21.23,3.94 29.09,11.79 7.85,7.85 11.79,17.57 11.79,29.09l0 198.25 172.11 0 0 -198.25c0,-11.52 3.94,-21.24 11.79,-29.09 3.9,-3.89 8.42,-6.86 13.56,-8.85 4.98,-1.96 10.43,-2.94 16.34,-2.94 10.34,0 19.6,3.91 27.73,11.7 8.22,7.88 12.33,17.61 12.33,29.18l-0.03 505.86c-0.95,13.1 -4.77,23.19 -11.43,30.19 -6.93,7.29 -16.47,10.93 -28.6,10.93z"/>
    <path class="fil4" d="M2564.17 1779.19c-11.08,0 -20.31,-4.03 -27.67,-12.08 -3.16,-3.44 -5.91,-6.95 -8.25,-10.5 -2.41,-3.65 -4.4,-7.36 -5.97,-11.09l-0.6 -1.44c0,-154.24 6.89,-318.12 1.61,-470.98l-113.89 0c-10.28,0 -19.63,-3.87 -28.01,-11.58 -4.23,-3.88 -7.42,-8.21 -9.58,-12.97 -2.18,-4.85 -3.29,-10.03 -3.29,-15.51 0,-5.73 1.09,-11.08 3.26,-16.04 2.17,-4.94 5.38,-9.37 9.61,-13.27 4.12,-3.78 8.49,-6.66 13.13,-8.58 4.75,-1.99 9.72,-2.99 14.88,-2.99l307.09 0c5.65,0 10.94,0.99 15.85,2.92 4.98,1.99 9.49,4.92 13.52,8.78 4.07,3.89 7.15,8.31 9.21,13.24 2.07,4.93 3.13,10.26 3.13,15.94 0,11.02 -4.13,20.49 -12.34,28.36 -8.13,7.79 -17.94,11.7 -29.37,11.7l-112.25 0 0 466.04c0,11.62 -4.18,21.27 -12.49,28.89 -4.03,3.69 -8.32,6.47 -12.85,8.3 -4.67,1.9 -9.58,2.86 -14.72,2.86z"/>
    <path class="fil4" d="M2154.38 1268.18c-6.12,0 -11.97,0.53 -17.54,1.58 -5.56,1.04 -11,2.65 -16.27,4.79 -5.22,2.09 -10.04,4.71 -14.48,7.8 -4.45,3.1 -8.61,6.78 -12.46,11 -3.88,4.26 -7.38,9.04 -10.47,14.3 -3.17,5.4 -6,11.37 -8.41,17.88 -2.39,6.45 -4.22,13.49 -5.43,21.08 -1.2,7.57 -1.81,15.85 -1.81,24.82l0 104.07 172.93 0 0 -113.89c0,-8.08 -0.58,-15.57 -1.72,-22.4 -1.13,-6.81 -2.83,-13.11 -5.09,-18.87 -2.3,-5.86 -4.96,-11.17 -7.97,-15.91 -2.96,-4.65 -6.4,-8.93 -10.28,-12.82 -3.86,-3.86 -8.02,-7.24 -12.45,-10.08 -4.49,-2.9 -9.36,-5.34 -14.58,-7.33 -5.35,-2.04 -10.74,-3.57 -16.15,-4.54 -5.42,-0.99 -11.09,-1.48 -17,-1.48l-0.82 0zm125.3 512.65c-11.08,0 -20.44,-4.16 -28.07,-12.48 -3.69,-3.99 -6.46,-8.29 -8.31,-12.86 -1.9,-4.67 -2.86,-9.58 -2.86,-14.72l0 -183.51 -172.93 0 0 183.51c0,5.22 -1.06,10.21 -3.16,14.94 -2.11,4.68 -5.13,8.99 -9.04,12.91 -3.99,3.99 -8.4,7.03 -13.22,9.08 -4.86,2.08 -10.01,3.13 -15.46,3.13 -10.32,0 -19.73,-4.05 -28.13,-12.11 -4.15,-3.98 -7.31,-8.28 -9.43,-12.88 -2.21,-4.79 -3.32,-9.8 -3.32,-15.07l0.03 -368.68c0.28,-14.35 1.52,-28 3.68,-40.89 2.21,-13.05 5.36,-25.4 9.46,-36.98 4.11,-11.64 9.24,-22.53 15.36,-32.61 6.14,-10.09 13.23,-19.33 21.26,-27.64l0.31 -0.32c7.99,-7.41 16.46,-14.06 25.34,-19.9 8.86,-5.81 18.25,-10.87 28.13,-15.16 9.99,-4.35 20.43,-7.6 31.26,-9.75 10.85,-2.15 22.11,-3.23 33.81,-3.23 10.82,0 21.53,1.01 32.04,3.02 10.44,2.01 20.73,5.04 30.77,9.04 10.16,4.08 19.74,9.11 28.71,15.09 9.04,6.03 17.59,13.07 25.6,21.08l13.86 13.87 -2.07 0c3.08,3.84 5.99,7.85 8.7,12.03 6.15,9.45 11.4,19.79 15.7,31.01 8.53,22.17 13.09,48.23 13.65,78.1 3.58,15.21 0.03,104.34 0.03,130.75 0,15.04 -0.29,31.28 -0.85,48.73l0.03 192.45c0,10.33 -3.91,19.6 -11.7,27.72 -3.89,4.06 -8.32,7.15 -13.24,9.21 -4.93,2.08 -10.25,3.13 -15.93,3.13z"/>
    <path class="fil4" d="M1822.38 1780.83c-11.56,0 -21.3,-4.12 -29.17,-12.34 -3.83,-3.98 -6.74,-8.29 -8.69,-12.88 -2.01,-4.72 -3.02,-9.67 -3.02,-14.84l0 -352.94c-18.58,38.22 -50.05,114.12 -70.97,145.94 -1.64,2.62 -3.57,5.13 -5.77,7.48 -2.13,2.29 -4.56,4.48 -7.26,6.55 -3.07,2.35 -6.49,4.13 -10.19,5.3 -3.65,1.14 -7.49,1.71 -11.52,1.71 -4.69,0 -9.08,-0.7 -13.13,-2.08 -4.18,-1.41 -7.96,-3.56 -11.34,-6.41 -2.97,-2.52 -5.75,-5.34 -8.26,-8.4 -2.57,-3.07 -4.91,-6.45 -7.03,-10.07l-64.3 -133.33 0 346.25c0,10.4 -4.08,19.7 -12.23,27.84 -3.92,3.96 -8.23,6.98 -12.86,9.02 -4.81,2.12 -9.8,3.2 -14.98,3.2 -11.49,0 -21.32,-4.08 -29.46,-12.21 -3.97,-3.97 -6.99,-8.27 -9.03,-12.89 -2.13,-4.76 -3.2,-9.76 -3.2,-14.96l0 -468.49 -22.58 0c-4.94,0 -9.72,-1.02 -14.32,-3.06 -4.4,-1.94 -8.61,-4.84 -12.59,-8.64 -4.04,-3.87 -7.11,-8.19 -9.17,-12.94 -2.1,-4.82 -3.16,-9.97 -3.16,-15.42 0,-12.87 4.26,-22.88 12.78,-29.97 3.95,-3.29 8.14,-5.79 12.52,-7.46 4.53,-1.74 9.19,-2.63 13.94,-2.63l77.07 0 1.35 0.48c6.12,2.13 11.48,4.8 16.05,7.94 4.77,3.28 8.66,7.12 11.69,11.47 10.98,15.86 94.61,193.54 101.62,214.56 29.71,-60.32 73.35,-164.52 106.86,-216.82 3.84,-5.93 9.01,-10.4 15.48,-13.37 6.14,-2.85 13.35,-4.27 21.61,-4.27 13.47,0 24.11,3.4 31.92,10.18 8.16,7.08 12.24,18.68 12.24,34.8l0 503.64c0,10.33 -3.91,19.6 -11.7,27.72 -7.87,8.21 -17.61,12.34 -29.18,12.34z"/>
    <path class="fil4" d="M4494.66 1785.74c-22.87,0 -44.02,-3.96 -63.44,-11.87 -19.42,-7.9 -37.04,-19.78 -52.82,-35.55 -7.51,-7.52 -14.11,-15.68 -19.81,-24.46 -5.7,-8.8 -10.5,-18.25 -14.38,-28.31 -3.81,-9.85 -6.96,-19.9 -9.42,-30.09 -2.48,-10.2 -4.29,-20.54 -5.41,-30.94 -1.1,-20.42 -0.07,-43.29 -0.07,-63.91 0.15,-32.19 0.47,-64.38 0.75,-96.56 0.14,-77.82 0.07,-155.64 0.07,-233.46 0,-5.26 1.11,-10.28 3.32,-15.07 2.13,-4.59 5.29,-8.89 9.42,-12.87 4.1,-3.95 8.49,-6.94 13.12,-8.95 4.83,-2.11 9.85,-3.16 15.01,-3.16 5.43,0 10.59,1.04 15.45,3.13 4.82,2.06 9.23,5.1 13.21,9.07 3.95,3.94 6.97,8.25 9.02,12.88l0.18 0.44c2.01,4.65 3.01,9.49 3.01,14.53l0 387.35c0,6.43 0.53,12.5 1.58,18.2 1.05,5.73 2.65,11.21 4.76,16.44 2.17,5.33 4.68,10.23 7.5,14.66 2.82,4.42 6.07,8.52 9.66,12.25l0.15 0.15c3.53,3.62 7.41,6.86 11.62,9.68 4.35,2.92 9.07,5.45 14.14,7.53 5.06,2.1 10.37,3.69 15.92,4.75 5.55,1.05 11.35,1.58 17.45,1.58 11.5,0 22.02,-1.98 31.49,-5.91 9.48,-3.95 18.09,-9.89 25.76,-17.82 7.66,-7.91 13.44,-16.96 17.27,-27.1 3.87,-10.24 5.81,-21.73 5.81,-34.42l0.85 -387.35c-0.03,-10.47 4.22,-19.8 12.71,-27.94 4.13,-3.96 8.6,-6.97 13.42,-8.98 4.95,-2.09 10.13,-3.13 15.53,-3.13 5.45,0 10.59,1.05 15.41,3.16 4.75,2.06 9.06,5.14 12.94,9.17 3.82,3.99 6.73,8.3 8.67,12.87 2.01,4.74 3.03,9.68 3.03,14.85l0 388.99c0,47 -16.09,86.6 -48.24,118.75 -7.66,7.66 -15.93,14.48 -24.78,20.43 -8.75,5.88 -18.04,10.84 -27.84,14.88 -9.82,4.05 -19.91,7.09 -30.2,9.08 -10.37,2.01 -20.99,3.03 -31.83,3.03z"/>
   </g>
   <path class="fil4" d="M2217.49 2501.66l-39.01 0 0 -179.18 84.96 0c8.21,0 15.66,1.29 22.33,4.11 6.68,2.83 12.32,6.68 17.2,11.55 4.62,5.14 8.21,11.3 10.78,18.23 2.57,6.94 3.85,14.89 3.85,23.36 0,12.06 -2.57,22.84 -7.95,31.83 -5.39,8.98 -13.6,15.66 -24.64,19.77l35.17 70.33 -43.38 0 -31.32 -65.72 -27.98 0 0 65.72zm41.07 -98.57c5.91,0 10.52,-1.54 13.86,-4.62 3.34,-2.83 4.88,-7.19 4.88,-13.09l0 -11.29c0,-5.91 -1.54,-10.27 -4.88,-13.35 -3.34,-2.83 -7.95,-4.37 -13.86,-4.37l-41.07 0 0 46.72 41.07 0z"/>
   <path id="_1" class="fil4" d="M2401.81 2504.74c-10.27,0 -19.51,-1.54 -27.47,-5.13 -7.95,-3.34 -14.88,-7.96 -20.28,-14.12 -5.65,-5.91 -9.75,-13.35 -12.58,-22.08 -2.82,-8.73 -4.36,-18.49 -4.36,-29.27 0,-10.52 1.28,-20.28 4.11,-29 2.82,-8.47 6.93,-15.92 12.32,-22.08 5.39,-6.17 11.8,-11.04 19.77,-14.38 7.95,-3.34 16.94,-4.88 26.95,-4.88 11.03,0 20.79,1.8 28.75,5.65 7.95,3.85 14.37,8.73 19.51,15.15 4.88,6.42 8.72,13.6 11.03,21.82 2.32,8.47 3.34,17.2 3.34,26.18l0 11.29 -86.5 0 0 2.06c0,8.98 2.31,15.92 7.19,21.05 4.88,5.4 12.32,7.96 22.59,7.96 7.95,0 14.37,-1.55 19.25,-4.89 4.88,-3.08 9.49,-6.93 13.86,-11.29l19 23.61c-5.91,6.94 -13.86,12.58 -23.36,16.43 -9.75,3.86 -20.79,5.91 -33.11,5.91zm-0.77 -112.94c-7.7,0 -13.61,2.57 -17.97,7.44 -4.37,5.14 -6.68,11.8 -6.68,20.28l0 2.06 47.23 0 0 -2.32c0,-8.21 -1.8,-14.88 -5.39,-20.02 -3.85,-4.88 -9.5,-7.44 -17.2,-7.44z"/>
   <path id="_2" class="fil4" d="M2535.55 2504.74c-13.09,0 -23.87,-2.05 -32.86,-6.42 -8.98,-4.11 -16.95,-10.01 -23.87,-17.71l22.33 -22.59c4.88,5.4 10,9.5 15.91,12.58 5.91,3.08 12.32,4.62 19.77,4.62 7.44,0 12.83,-1.28 15.66,-3.59 2.83,-2.32 4.37,-5.4 4.37,-9.24 0,-6.42 -4.63,-10.01 -13.61,-11.29l-14.63 -1.8c-30.29,-3.85 -45.43,-17.72 -45.43,-41.58 0,-6.43 1.28,-12.58 3.85,-17.98 2.31,-5.39 5.91,-10 10.52,-13.86 4.37,-3.85 10.01,-6.67 16.43,-8.98 6.42,-2.05 13.6,-3.08 21.57,-3.08 6.93,0 13.34,0.51 18.74,1.29 5.39,1.02 10.01,2.31 14.37,4.11 4.11,1.79 7.96,4.1 11.55,6.67 3.34,2.83 6.94,5.65 10.27,8.98l-21.83 22.33c-4.36,-4.36 -8.98,-7.69 -14.37,-10.26 -5.4,-2.31 -11.04,-3.6 -16.69,-3.6 -6.42,0 -11.03,1.03 -13.86,3.08 -2.82,2.06 -4.11,4.88 -4.11,8.21 0,3.6 1.03,6.42 3.08,8.21 1.8,2.06 5.65,3.6 11.04,4.37l15.14 2.05c29.52,3.86 44.41,17.46 44.41,40.56 0,6.42 -1.28,12.58 -4.11,17.97 -2.82,5.4 -6.68,10.27 -11.55,14.12 -5.13,4.11 -11.29,7.19 -18.22,9.49 -7.2,2.31 -15.15,3.34 -23.87,3.34z"/>
   <path id="_3" class="fil4" d="M2698.8 2479.08l-1.28 0c-1.28,3.33 -2.83,6.67 -4.62,9.75 -2.06,3.08 -4.63,5.9 -7.7,8.21 -3.08,2.31 -6.68,4.36 -10.78,5.65 -4.37,1.28 -9.24,2.05 -14.63,2.05 -13.86,0 -24.38,-4.62 -31.32,-13.86 -7.19,-8.98 -10.78,-22.08 -10.78,-39.27l0 -84.71 37.99 0 0 81.37c0,8.21 1.54,14.63 4.37,19 2.82,4.37 7.95,6.68 14.88,6.68 2.83,0 5.91,-0.52 8.73,-1.29 2.82,-0.77 5.39,-2.05 7.69,-3.85 2.32,-1.54 4.11,-3.6 5.4,-5.91 1.28,-2.31 2.05,-5.13 2.05,-8.46l0 -87.54 37.99 0 0 134.77 -37.99 0 0 -22.58z"/>
   <path id="_4" class="fil4" d="M2809.94 2501.66c-13.09,0 -22.58,-3.08 -28.49,-9.49 -6.16,-6.43 -9.24,-15.41 -9.24,-27.47l0 -152.99 37.99 0 0 160.43 16.94 0 0 29.52 -17.2 0z"/>
   <path id="_5" class="fil4" d="M2895.94 2501.66c-13.09,0 -23.1,-3.34 -29.78,-10.01 -6.93,-6.68 -10.26,-16.43 -10.26,-29.26l0 -65.98 -19 0 0 -29.52 9.49 0c5.14,0 8.73,-1.28 10.52,-3.85 1.8,-2.31 2.83,-5.91 2.83,-10.52l0 -22.08 34.14 0 0 36.45 26.7 0 0 29.52 -26.7 0 0 75.73 24.64 0 0 29.52 -22.58 0z"/>
   <path id="_6" class="fil4" d="M2992.72 2504.74c-13.09,0 -23.87,-2.05 -32.86,-6.42 -8.98,-4.11 -16.95,-10.01 -23.87,-17.71l22.33 -22.59c4.88,5.4 10,9.5 15.91,12.58 5.91,3.08 12.32,4.62 19.77,4.62 7.44,0 12.83,-1.28 15.66,-3.59 2.83,-2.32 4.37,-5.4 4.37,-9.24 0,-6.42 -4.63,-10.01 -13.61,-11.29l-14.63 -1.8c-30.29,-3.85 -45.43,-17.72 -45.43,-41.58 0,-6.43 1.28,-12.58 3.85,-17.98 2.31,-5.39 5.91,-10 10.52,-13.86 4.37,-3.85 10.01,-6.67 16.43,-8.98 6.42,-2.05 13.6,-3.08 21.57,-3.08 6.93,0 13.34,0.51 18.74,1.29 5.39,1.02 10.01,2.31 14.37,4.11 4.11,1.79 7.96,4.1 11.55,6.67 3.34,2.83 6.94,5.65 10.27,8.98l-21.83 22.33c-4.36,-4.36 -8.98,-7.69 -14.37,-10.26 -5.4,-2.31 -11.04,-3.6 -16.69,-3.6 -6.42,0 -11.03,1.03 -13.86,3.08 -2.82,2.06 -4.11,4.88 -4.11,8.21 0,3.6 1.03,6.42 3.08,8.21 1.8,2.06 5.65,3.6 11.04,4.37l15.14 2.05c29.52,3.86 44.41,17.46 44.41,40.56 0,6.42 -1.28,12.58 -4.11,17.97 -2.82,5.4 -6.68,10.27 -11.55,14.12 -5.13,4.11 -11.29,7.19 -18.22,9.49 -7.2,2.31 -15.15,3.34 -23.87,3.34z"/>
   <path id="_7" class="fil4" d="M3136.97 2501.66l0 -134.77 37.99 0 0 22.84 1.54 0c2.31,-7.19 6.42,-13.34 12.32,-18.48 5.91,-4.88 13.86,-7.44 23.87,-7.44 9.24,0 17.2,2.31 23.61,6.94 6.42,4.62 11.3,11.29 14.12,20.28l0.77 0c1.29,-3.85 3.08,-7.44 5.65,-10.78 2.31,-3.34 5.4,-6.16 8.98,-8.47 3.6,-2.31 7.7,-4.36 12.07,-5.9 4.36,-1.29 9.23,-2.06 14.37,-2.06 13.09,0 23.1,4.62 30.03,13.86 6.94,9.24 10.27,22.33 10.27,39.53l0 84.45 -37.99 0 0 -81.37c0,-17.2 -6.16,-25.66 -18.48,-25.66 -5.65,0 -10.78,1.54 -15.4,4.88 -4.63,3.34 -6.94,8.21 -6.94,14.88l0 87.28 -37.99 0 0 -81.37c0,-17.2 -6.16,-25.66 -18.48,-25.66 -2.83,0 -5.4,0.25 -7.95,1.02 -2.83,0.77 -5.14,2.06 -7.2,3.86 -2.31,1.79 -3.85,3.85 -5.13,6.16 -1.29,2.57 -2.06,5.39 -2.06,8.72l0 87.28 -37.99 0z"/>
   <path id="_8" class="fil4" d="M3466.06 2501.66c-6.94,0 -12.58,-2.05 -16.94,-6.42 -4.63,-4.37 -7.44,-10.01 -8.73,-17.2l-1.54 0c-2.05,8.72 -6.68,15.4 -13.6,19.77 -6.94,4.62 -15.66,6.93 -25.93,6.93 -13.6,0 -23.87,-3.59 -31.06,-10.78 -7.19,-7.19 -10.78,-16.68 -10.78,-28.49 0,-14.12 5.14,-24.9 15.66,-31.83 10.27,-6.94 24.39,-10.27 42.1,-10.27l21.31 0 0 -8.46c0,-6.42 -1.8,-11.81 -5.14,-15.66 -3.34,-3.85 -9.24,-5.65 -17.2,-5.65 -7.44,0 -13.6,1.54 -17.97,4.88 -4.37,3.34 -8.21,6.93 -11.03,11.03l-22.59 -20.02c5.4,-7.96 12.32,-14.38 20.8,-19 8.21,-4.37 19.51,-6.68 33.63,-6.68 19.25,0 33.63,4.11 43.12,12.58 9.5,8.46 14.38,20.54 14.38,36.71l0 59.04 12.57 0 0 29.52 -21.05 0zm-52.62 -23.36c6.42,0 11.81,-1.28 16.43,-4.11 4.37,-2.82 6.68,-7.19 6.68,-13.34l0 -15.92 -18.49 0c-14.88,0 -22.32,5.14 -22.32,15.15l0 3.85c0,4.88 1.54,8.47 4.62,10.78 3.08,2.31 7.44,3.59 13.09,3.59z"/>
   <path id="_9" class="fil4" d="M3558.21 2501.66c-13.09,0 -23.1,-3.34 -29.78,-10.01 -6.93,-6.68 -10.26,-16.43 -10.26,-29.26l0 -65.98 -19 0 0 -29.52 9.49 0c5.14,0 8.73,-1.28 10.52,-3.85 1.8,-2.31 2.83,-5.91 2.83,-10.52l0 -22.08 34.14 0 0 36.45 26.7 0 0 29.52 -26.7 0 0 75.73 24.64 0 0 29.52 -22.58 0z"/>
   <path id="_10" class="fil4" d="M3655.25 2501.66c-13.09,0 -23.1,-3.34 -29.78,-10.01 -6.93,-6.68 -10.26,-16.43 -10.26,-29.26l0 -65.98 -19 0 0 -29.52 9.49 0c5.14,0 8.73,-1.28 10.52,-3.85 1.8,-2.31 2.83,-5.91 2.83,-10.52l0 -22.08 34.14 0 0 36.45 26.7 0 0 29.52 -26.7 0 0 75.73 24.64 0 0 29.52 -22.58 0z"/>
   <path id="_11" class="fil4" d="M3761.52 2504.74c-10.27,0 -19.51,-1.54 -27.47,-5.13 -7.95,-3.34 -14.88,-7.96 -20.28,-14.12 -5.65,-5.91 -9.75,-13.35 -12.58,-22.08 -2.82,-8.73 -4.36,-18.49 -4.36,-29.27 0,-10.52 1.28,-20.28 4.11,-29 2.82,-8.47 6.93,-15.92 12.32,-22.08 5.39,-6.17 11.8,-11.04 19.77,-14.38 7.95,-3.34 16.94,-4.88 26.95,-4.88 11.03,0 20.79,1.8 28.75,5.65 7.95,3.85 14.37,8.73 19.51,15.15 4.88,6.42 8.72,13.6 11.03,21.82 2.32,8.47 3.34,17.2 3.34,26.18l0 11.29 -86.5 0 0 2.06c0,8.98 2.31,15.92 7.19,21.05 4.88,5.4 12.32,7.96 22.59,7.96 7.95,0 14.37,-1.55 19.25,-4.89 4.88,-3.08 9.49,-6.93 13.86,-11.29l19 23.61c-5.91,6.94 -13.86,12.58 -23.36,16.43 -9.75,3.86 -20.79,5.91 -33.11,5.91zm-0.77 -112.94c-7.7,0 -13.61,2.57 -17.97,7.44 -4.37,5.14 -6.68,11.8 -6.68,20.28l0 2.06 47.23 0 0 -2.32c0,-8.21 -1.8,-14.88 -5.39,-20.02 -3.85,-4.88 -9.5,-7.44 -17.2,-7.44z"/>
   <path id="_12" class="fil4" d="M3849.56 2501.66l0 -134.77 37.99 0 0 29.27 1.29 0c0.77,-3.86 1.79,-7.44 3.59,-11.04 1.8,-3.34 4.11,-6.42 6.94,-9.24 2.82,-2.82 6.16,-4.88 10,-6.67 3.86,-1.55 8.47,-2.32 13.87,-2.32l6.67 0 0 35.43 -9.49 0c-11.04,0 -19.26,1.54 -24.64,4.37 -5.39,2.82 -8.21,8.21 -8.21,16.17l0 78.81 -37.99 0z"/>
   <path id="_13" class="fil4" d="M3968.92 2445.19l-12.06 -72.9 0 -49.81 40.04 0 0 49.81 -11.8 72.9 -16.18 0zm7.7 59.55c-8.21,0 -14.12,-1.8 -17.46,-5.65 -3.59,-3.85 -5.39,-8.47 -5.39,-13.86l0 -6.16c0,-5.4 1.8,-10.01 5.39,-13.87 3.34,-3.85 9.24,-5.65 17.46,-5.65 8.21,0 14.12,1.8 17.71,5.65 3.34,3.86 5.14,8.47 5.14,13.87l0 6.16c0,5.39 -1.8,10.01 -5.14,13.86 -3.59,3.85 -9.49,5.65 -17.71,5.65z"/>
  </g>
  <path class="fil5" d="M6082.15 0l14903.17 0 0 2186.03 -12621.11 0c0,-0.01 -204.45,-57.67 -218.71,-65.91l-1840.28 -1062.59c-76.94,-44.42 -131.95,-95.87 -169.2,-160.89 -37.31,-65.16 -53.87,-138.41 -53.87,-226.39l0 -670.25z"/>
  <path class="fil4" d="M15921.1 1312.42l0 -277.62 78.27 0 0 47.06 3.17 0c4.77,-14.8 13.22,-27.49 25.39,-38.07 12.16,-10.04 28.55,-15.33 49.18,-15.33 19.04,0 35.43,4.76 48.65,14.27 13.22,9.52 23.27,23.27 29.09,41.78l1.58 0c2.65,-7.93 6.35,-15.34 11.64,-22.21 4.76,-6.88 11.1,-12.69 18.51,-17.45 7.39,-4.76 15.86,-8.99 24.85,-12.16 8.98,-2.65 19.04,-4.23 29.61,-4.23 26.97,0 47.6,9.51 61.87,28.55 14.28,19.04 21.16,46.01 21.16,81.43l0 173.98 -78.27 0 0 -167.64c0,-35.43 -12.69,-52.87 -38.07,-52.87 -11.63,0 -22.2,3.17 -31.73,10.04 -9.51,6.88 -14.27,16.92 -14.27,30.67l0 179.8 -78.27 0 0 -167.64c0,-35.43 -12.69,-52.87 -38.07,-52.87 -5.82,0 -11.1,0.53 -16.4,2.11 -5.82,1.59 -10.57,4.24 -14.8,7.93 -4.77,3.7 -7.93,7.93 -10.58,12.69 -2.64,5.29 -4.23,11.1 -4.23,17.98l0 179.8 -78.27 0z"/>
  <path id="_1_0" class="fil4" d="M16599.04 1312.42c-14.28,0 -25.91,-4.23 -34.9,-13.22 -9.52,-8.99 -15.34,-20.63 -17.99,-35.43l-3.17 0c-4.23,17.98 -13.75,31.73 -28.03,40.71 -14.27,9.52 -32.26,14.28 -53.4,14.28 -28.03,0 -49.19,-7.4 -63.99,-22.21 -14.81,-14.8 -22.21,-34.37 -22.21,-58.69 0,-29.09 10.58,-51.3 32.26,-65.58 21.16,-14.28 50.24,-21.16 86.73,-21.16l43.89 0 0 -17.45c0,-13.22 -3.71,-24.32 -10.58,-32.26 -6.88,-7.93 -19.04,-11.63 -35.43,-11.63 -15.34,0 -28.03,3.17 -37.01,10.04 -8.99,6.88 -16.93,14.28 -22.74,22.74l-46.53 -41.25c11.1,-16.39 25.38,-29.61 42.83,-39.13 16.92,-8.98 40.18,-13.74 69.27,-13.74 39.66,0 69.27,8.45 88.84,25.91 19.57,17.45 29.61,42.3 29.61,75.62l0 121.63 25.91 0 0 60.81 -43.36 0zm-108.41 -48.12c13.22,0 24.32,-2.65 33.85,-8.46 8.98,-5.82 13.75,-14.81 13.75,-27.5l0 -32.79 -38.07 0c-30.68,0 -46.01,10.58 -46.01,31.2l0 7.93c0,10.05 3.17,17.45 9.51,22.21 6.35,4.76 15.34,7.4 26.97,7.4z"/>
  <path id="_2_1" class="fil4" d="M16788.88 1312.42c-26.97,0 -47.6,-6.88 -61.34,-20.63 -14.28,-13.75 -21.16,-33.84 -21.16,-60.28l0 -135.91 -39.13 0 0 -60.81 19.57 0c10.57,0 17.98,-2.65 21.69,-7.93 3.7,-4.76 5.82,-12.16 5.82,-21.69l0 -45.48 70.33 0 0 75.1 54.99 0 0 60.81 -54.99 0 0 156 50.77 0 0 60.81 -46.54 0z"/>
  <path id="_3_2" class="fil4" d="M16894.11 921.09l78.27 0 0 160.76 3.17 0c4.77,-14.28 13.75,-26.97 25.91,-37.54 12.17,-10.57 29.62,-15.86 51.3,-15.86 28.56,0 50.24,9.51 65.05,28.55 14.28,19.04 21.69,46.01 21.69,81.43l0 173.98 -78.27 0 0 -167.64c0,-17.98 -2.65,-31.2 -8.46,-40.18 -5.82,-8.46 -15.86,-12.69 -30.14,-12.69 -6.35,0 -12.69,0.53 -18.51,2.11 -5.82,1.59 -11.1,4.24 -15.87,7.93 -4.76,3.7 -8.98,7.93 -11.63,12.69 -2.64,5.29 -4.23,11.1 -4.23,17.98l0 179.8 -78.27 0 0 -391.32z"/>
  <path id="_4_3" class="fil4" d="M17351.01 1312.42l0 -70.86 -162.34 0 0 -67.68 143.83 -230.56 94.13 0 0 236.91 46.54 0 0 61.34 -46.54 0 0 70.86 -75.62 0zm-98.88 -132.2l98.88 0 0 -154.94 -5.29 0 -93.6 154.94z"/>
  <path id="_5_4" class="fil4" d="M17690.51 1265.88l-2.65 0c-2.65,6.88 -5.82,13.75 -9.52,20.1 -4.23,6.35 -9.51,12.16 -15.86,16.92 -6.35,4.77 -13.75,8.99 -22.21,11.64 -8.98,2.64 -19.04,4.23 -30.14,4.23 -28.55,0 -50.24,-9.52 -64.52,-28.56 -14.8,-18.51 -22.2,-45.47 -22.2,-80.91l0 -174.5 78.26 0 0 167.63c0,16.93 3.18,30.15 8.99,39.13 5.82,8.99 16.4,13.75 30.67,13.75 5.82,0 12.16,-1.06 17.98,-2.65 5.83,-1.58 11.11,-4.23 15.87,-7.92 4.76,-3.18 8.46,-7.4 11.1,-12.16 2.65,-4.77 4.24,-10.58 4.24,-17.46l0 -180.32 78.26 0 0 277.62 -78.26 0 0 -46.54z"/>
  <path id="_6_5" class="fil4" d="M17887.22 1318.23c-15.86,0 -27.5,-3.7 -34.9,-12.16 -7.93,-7.93 -11.64,-17.98 -11.64,-30.14l0 -10.58c0,-12.16 3.71,-22.73 11.64,-30.67 7.39,-7.93 19.04,-11.63 34.9,-11.63 15.87,0 27.5,3.7 35.44,11.63 7.39,7.93 11.1,18.51 11.1,30.67l0 10.58c0,12.16 -3.71,22.2 -11.1,30.14 -7.93,8.46 -19.57,12.16 -35.44,12.16z"/>
  <polygon id="_7_6" class="fil4" points="18039.52,1312.42 17948.56,1034.8 18025.77,1034.8 18060.15,1146.9 18086.06,1247.37 18090.29,1247.37 18116.2,1146.9 18149.52,1034.8 18223.55,1034.8 18132.59,1312.42 "/>
  <path id="_8_7" class="fil4" d="M18357.86 1318.76c-26.96,0 -49.18,-4.23 -67.68,-13.22 -18.51,-8.46 -34.9,-20.63 -49.18,-36.49l46.01 -46.54c10.04,11.1 20.62,19.57 32.78,25.91 12.17,6.35 25.38,9.52 40.72,9.52 15.34,0 26.44,-2.65 32.26,-7.4 5.82,-4.77 8.99,-11.11 8.99,-19.04 0,-13.22 -9.52,-20.63 -28.03,-23.27l-30.14 -3.7c-62.4,-7.93 -93.61,-36.49 -93.61,-85.67 0,-13.22 2.65,-25.91 7.93,-37.01 4.76,-11.1 12.16,-20.63 21.69,-28.55 8.98,-7.93 20.63,-13.75 33.84,-18.51 13.22,-4.24 28.03,-6.35 44.42,-6.35 14.28,0 27.5,1.05 38.6,2.64 11.11,2.12 20.63,4.76 29.62,8.46 8.45,3.7 16.39,8.45 23.79,13.75 6.88,5.82 14.28,11.63 21.16,18.51l-44.95 46.01c-8.99,-8.99 -18.51,-15.87 -29.62,-21.16 -11.1,-4.76 -22.73,-7.4 -34.37,-7.4 -13.22,0 -22.74,2.12 -28.56,6.35 -5.82,4.23 -8.45,10.04 -8.45,16.92 0,7.4 2.11,13.22 6.35,16.93 3.7,4.23 11.63,7.4 22.73,8.98l31.2 4.24c60.82,7.92 91.49,35.96 91.49,83.55 0,13.21 -2.65,25.9 -8.46,37.01 -5.82,11.1 -13.75,21.15 -23.79,29.08 -10.57,8.46 -23.26,14.81 -37.54,19.57 -14.81,4.76 -31.2,6.88 -49.19,6.88z"/>
  <path id="_9_8" class="fil4" d="M18530.26 921.09l78.27 0 0 160.23 2.65 0c3.7,-15.33 12.69,-28.02 26.96,-38.07 13.75,-10.04 29.62,-14.8 47.6,-14.8 35.43,0 61.87,12.16 79.85,37.01 17.99,24.85 26.97,60.81 26.97,107.88 0,47.06 -8.98,83.02 -26.97,107.88 -17.98,24.85 -44.42,37.54 -79.85,37.54 -8.99,0 -17.98,-1.06 -25.91,-3.7 -7.93,-3.18 -15.34,-6.88 -21.69,-11.64 -6.88,-4.76 -12.16,-10.04 -16.92,-16.92 -4.76,-6.35 -7.93,-13.22 -10.04,-20.63l-2.65 0 0 46.54 -78.27 0 0 -391.32zm129.56 334.21c14.81,0 26.97,-5.29 37.01,-15.87 9.52,-10.04 14.28,-24.32 14.28,-41.77l0 -48.12c0,-17.46 -4.76,-31.73 -14.28,-42.31 -10.04,-10.04 -22.2,-15.33 -37.01,-15.33 -14.81,0 -26.97,3.7 -36.49,10.57 -10.05,7.4 -14.81,17.45 -14.81,30.14l0 81.96c0,12.69 4.76,22.74 14.81,29.62 9.51,7.4 21.68,11.1 36.49,11.1z"/>
  <path id="_10_9" class="fil4" d="M18889.32 1318.23c-15.86,0 -27.5,-3.7 -34.9,-12.16 -7.93,-7.93 -11.64,-17.98 -11.64,-30.14l0 -10.58c0,-12.16 3.71,-22.73 11.64,-30.67 7.39,-7.93 19.04,-11.63 34.9,-11.63 15.87,0 27.5,3.7 35.44,11.63 7.39,7.93 11.1,18.51 11.1,30.67l0 10.58c0,12.16 -3.71,22.2 -11.1,30.14 -7.93,8.46 -19.57,12.16 -35.44,12.16z"/>
  <path id="_11_10" class="fil4" d="M19111.96 1318.76c-20.63,0 -39.13,-3.17 -55.53,-10.57 -16.39,-6.88 -29.61,-16.4 -40.71,-29.09 -11.1,-12.16 -19.04,-27.49 -24.85,-45.48 -5.82,-17.98 -8.46,-38.07 -8.46,-60.28 0,-22.21 2.65,-42.31 8.46,-60.29 5.82,-17.45 13.75,-32.79 24.85,-45.48 11.1,-12.69 24.32,-22.2 40.71,-29.08 16.4,-6.88 34.91,-10.04 55.53,-10.04 28.02,0 51.82,6.35 70.86,19.04 18.51,12.69 32.25,30.67 40.18,53.4l-63.46 27.5c-2.64,-10.57 -7.4,-19.57 -15.33,-26.97 -7.93,-7.4 -18.51,-11.1 -32.26,-11.1 -15.87,0 -28.03,5.29 -35.97,15.33 -7.92,10.58 -12.16,24.86 -12.16,42.31l0 51.82c0,17.45 4.24,31.73 12.16,41.77 7.93,10.05 20.1,15.34 35.97,15.34 14.27,0 25.38,-3.71 33.84,-11.63 7.93,-7.4 14.28,-17.46 17.99,-29.62l60.81 26.44c-8.99,26.44 -23.26,46.01 -42.3,58.17 -19.57,12.16 -42.84,18.51 -70.33,18.51z"/>
  <polygon id="_12_11" class="fil4" points="19257.38,1312.42 19257.38,1250.55 19395.4,1095.61 19262.14,1095.61 19262.14,1034.8 19486.36,1034.8 19486.36,1096.14 19347.81,1251.61 19490.06,1251.61 19490.06,1312.42 "/>
  <path class="fil6" d="M17219.32 1661.18c-11.32,0 -21.55,-1.78 -31.09,-5.56 -9.55,-3.78 -17.55,-9.1 -24.43,-15.99 -6.89,-6.89 -12.22,-15.33 -15.99,-25.32 -3.78,-9.77 -5.78,-20.88 -5.78,-33.32 0,-12.43 2,-23.53 5.78,-33.54 3.77,-9.76 9.1,-18.21 15.99,-25.09 6.89,-6.89 14.88,-12.21 24.43,-15.99 9.54,-3.78 19.77,-5.56 31.09,-5.56 11.33,0 21.55,1.78 31.1,5.56 9.54,3.78 17.54,9.1 24.42,15.99 6.89,6.89 12.22,15.33 16,25.09 3.77,10 5.77,21.11 5.77,33.54 0,12.44 -2,23.54 -5.77,33.32 -3.78,9.99 -9.11,18.44 -16,25.32 -6.89,6.89 -14.88,12.21 -24.42,15.99 -9.55,3.78 -19.77,5.56 -31.1,5.56zm0 -14.22c8.88,0 17.1,-1.55 24.43,-4.66 7.33,-2.89 13.77,-7.12 19.32,-12.22 5.34,-5.11 9.55,-11.32 12.66,-18.43 2.89,-7.12 4.45,-14.89 4.45,-23.1l0 -15.1c0,-8.22 -1.56,-15.77 -4.45,-23.1 -3.11,-7.11 -7.33,-13.32 -12.66,-18.43 -5.55,-5.11 -11.99,-9.33 -19.32,-12.44 -7.34,-2.89 -15.55,-4.44 -24.43,-4.44 -8.88,0 -17.1,1.55 -24.43,4.44 -7.33,3.11 -13.77,7.34 -19.1,12.44 -5.56,5.11 -9.77,11.32 -12.66,18.43 -3.11,7.34 -4.67,14.88 -4.67,23.1l0 15.1c0,8.21 1.56,15.99 4.67,23.1 2.89,7.11 7.11,13.32 12.66,18.43 5.33,5.11 11.77,9.33 19.1,12.22 7.34,3.11 15.55,4.66 24.43,4.66zm1.56 -18.21c-7.34,0 -13.77,-1.11 -19.33,-3.56 -5.78,-2.22 -10.66,-5.33 -14.66,-9.54 -4,-4.23 -7.11,-9.11 -9.1,-15.11 -2,-5.78 -3.11,-12.21 -3.11,-19.55 0,-7.33 1.11,-13.76 3.11,-19.77 2,-5.77 5.11,-10.65 9.1,-14.88 4,-4.22 8.88,-7.33 14.66,-9.77 5.56,-2.22 11.99,-3.33 19.33,-3.33 10.88,0 19.54,2.22 25.98,6.89 6.45,4.67 11.32,10.66 14.21,18.22l-22.2 10.65c-1.78,-3.78 -4,-6.89 -6.67,-9.32 -2.67,-2.45 -6.44,-3.56 -11.32,-3.56 -4.89,0 -8.66,1.34 -11.55,4.23 -2.89,2.88 -4.22,6.89 -4.22,11.76l0 17.77c0,4.89 1.33,8.66 4.22,11.55 2.89,2.89 6.67,4.45 11.55,4.45 4.89,0 8.88,-1.34 11.99,-3.78 3.11,-2.45 5.55,-5.34 7.54,-9.1l22.43 10.43c-1.55,3.34 -3.55,6.67 -5.78,9.55 -2.44,3.11 -5.33,5.78 -8.65,8.21 -3.34,2.45 -7.34,4.22 -11.77,5.56 -4.67,1.33 -9.77,2 -15.77,2z"/>
  <path id="_1_12" class="fil6" d="M17482.06 1658.51l-109.72 0 0 -30.43 47.75 -40.86c4.22,-3.78 7.99,-7.11 10.88,-10.22 2.89,-2.89 5.34,-6 7.34,-8.88 1.77,-2.89 3.11,-5.55 4,-8.43 0.66,-2.89 1.11,-5.78 1.11,-9.1l0 -3.12c0,-2.88 -0.67,-5.55 -1.78,-7.76 -1.11,-2.23 -2.67,-4 -4.67,-5.56 -2,-1.56 -4,-2.67 -6.44,-3.33 -2.45,-0.67 -5.11,-1.12 -7.55,-1.12 -3.78,0 -6.89,0.67 -9.55,1.78 -2.88,1.11 -5.11,2.67 -7.11,4.67 -2,2 -3.78,4.45 -5.11,6.89 -1.33,2.67 -2.44,5.56 -3.11,8.44l-29.1 -11.11c1.78,-5.33 4.23,-10.43 7.34,-15.32 3.11,-4.67 7.11,-8.88 11.77,-12.66 4.67,-3.56 9.99,-6.45 16.43,-8.44 6.45,-2 13.55,-3.11 21.55,-3.11 8.44,0 15.99,1.11 22.43,3.56 6.45,2.44 11.99,5.55 16.66,9.77 4.44,4.22 7.77,9.1 10.21,14.66 2.45,5.77 3.56,11.99 3.56,18.65 0,6.67 -1.11,12.66 -3.34,18.22 -2.22,5.56 -5.11,10.66 -8.88,15.32 -3.77,4.89 -8.21,9.55 -13.32,13.77 -5.11,4.23 -10.21,8.66 -15.77,13.11l-28.87 22.65 73.29 0 0 27.98z"/>
  <path id="_2_13" class="fil6" d="M17559.58 1661.18c-20.22,0 -35.32,-7.12 -45.09,-21.11 -9.77,-13.99 -14.66,-33.76 -14.66,-59.08 0,-25.31 4.89,-45.08 14.66,-59.07 9.77,-14 24.87,-21.11 45.09,-21.11 20.21,0 35.31,7.11 45.08,21.11 9.77,13.99 14.66,33.76 14.66,59.07 0,25.32 -4.89,45.09 -14.66,59.08 -9.77,13.99 -24.87,21.11 -45.08,21.11zm0 -28.21c8.88,0 15.1,-3.33 18.43,-9.77 3.34,-6.44 5.11,-15.77 5.11,-27.54l0 -29.31c0,-11.77 -1.77,-21.11 -5.11,-27.54 -3.33,-6.45 -9.54,-9.77 -18.43,-9.77 -8.88,0 -15.11,3.33 -18.44,9.77 -3.34,6.44 -5.11,15.77 -5.11,27.54l0 29.31c0,11.77 1.77,21.11 5.11,27.54 3.33,6.45 9.55,9.77 18.44,9.77z"/>
  <polygon id="_3_14" class="fil6" points="17647.08,1658.51 17647.08,1631.64 17688.83,1631.64 17688.83,1527.69 17686.83,1527.69 17655.29,1569 17633.98,1552.35 17671.06,1503.49 17722.15,1503.49 17722.15,1631.64 17755.02,1631.64 17755.02,1658.51 "/>
  <path id="_4_15" class="fil6" d="M17826.97 1661.18c-9.1,0 -17.32,-1.34 -24.65,-4.45 -7.33,-2.89 -13.32,-6.89 -18.21,-12.43 -5.11,-5.34 -8.88,-11.77 -11.32,-19.33 -2.67,-7.55 -4.01,-15.99 -4.01,-25.32 0,-10.88 1.78,-21.1 5.12,-30.87 3.33,-9.55 7.54,-18.66 12.88,-26.87 5.11,-8.21 11.1,-15.55 17.77,-21.99 6.44,-6.45 13.1,-12 19.77,-16.44l45.97 0c-9.54,6.89 -17.99,13.32 -25.54,19.33 -7.54,6.22 -13.99,12.43 -19.54,18.65 -5.56,6.23 -10.22,12.44 -13.77,18.89 -3.78,6.44 -6.23,13.54 -7.77,20.88l2 0.66c1.33,-2.89 2.89,-5.77 4.89,-8.65 1.78,-2.89 4,-5.34 6.89,-7.55 2.66,-2 5.78,-3.78 9.54,-5.11 3.78,-1.34 8,-2 12.88,-2 6.45,0 12.44,1.11 18,3.33 5.55,2.45 10.21,5.56 14.43,9.77 4,4.22 7.12,9.1 9.55,15.1 2.22,6 3.33,12.66 3.33,20 0,7.99 -1.33,15.32 -4,21.99 -2.89,6.67 -6.66,12.43 -11.77,17.1 -5.11,4.89 -11.32,8.66 -18.43,11.33 -7.11,2.66 -15.11,4 -23.99,4zm0 -25.99c7.34,0 13.11,-2 17.33,-6.22 4.22,-4 6.22,-9.77 6.22,-17.32l0 -4.01c0,-7.54 -2,-13.32 -6.22,-17.54 -4.22,-4 -9.99,-6 -17.33,-6 -7.33,0 -13.1,2 -17.32,6 -4.22,4.22 -6.22,9.99 -6.22,17.54l0 4.01c0,7.54 2,13.32 6.22,17.32 4.22,4.22 9.99,6.22 17.32,6.22z"/>
  <polygon id="_5_16" class="fil6" points="17900.71,1604.32 17900.71,1577.67 18015.32,1577.67 18015.32,1604.32 "/>
  <path id="_6_17" class="fil6" d="M18145.69 1658.51l-109.72 0 0 -30.43 47.75 -40.86c4.22,-3.78 7.99,-7.11 10.88,-10.22 2.89,-2.89 5.34,-6 7.34,-8.88 1.77,-2.89 3.11,-5.55 4,-8.43 0.66,-2.89 1.11,-5.78 1.11,-9.1l0 -3.12c0,-2.88 -0.67,-5.55 -1.78,-7.76 -1.11,-2.23 -2.67,-4 -4.67,-5.56 -2,-1.56 -4,-2.67 -6.44,-3.33 -2.45,-0.67 -5.11,-1.12 -7.55,-1.12 -3.78,0 -6.89,0.67 -9.55,1.78 -2.88,1.11 -5.11,2.67 -7.11,4.67 -2,2 -3.78,4.45 -5.11,6.89 -1.33,2.67 -2.44,5.56 -3.11,8.44l-29.1 -11.11c1.78,-5.33 4.23,-10.43 7.34,-15.32 3.11,-4.67 7.11,-8.88 11.77,-12.66 4.67,-3.56 9.99,-6.45 16.43,-8.44 6.45,-2 13.55,-3.11 21.55,-3.11 8.44,0 15.99,1.11 22.43,3.56 6.45,2.44 11.99,5.55 16.66,9.77 4.44,4.22 7.77,9.1 10.21,14.66 2.45,5.77 3.56,11.99 3.56,18.65 0,6.67 -1.11,12.66 -3.34,18.22 -2.22,5.56 -5.11,10.66 -8.88,15.32 -3.77,4.89 -8.21,9.55 -13.32,13.77 -5.11,4.23 -10.21,8.66 -15.77,13.11l-28.87 22.65 73.29 0 0 27.98z"/>
  <path id="_7_18" class="fil6" d="M18223.21 1661.18c-20.22,0 -35.32,-7.12 -45.09,-21.11 -9.77,-13.99 -14.66,-33.76 -14.66,-59.08 0,-25.31 4.89,-45.08 14.66,-59.07 9.77,-14 24.87,-21.11 45.09,-21.11 20.21,0 35.31,7.11 45.08,21.11 9.77,13.99 14.66,33.76 14.66,59.07 0,25.32 -4.89,45.09 -14.66,59.08 -9.77,13.99 -24.87,21.11 -45.08,21.11zm0 -28.21c8.88,0 15.1,-3.33 18.43,-9.77 3.34,-6.44 5.11,-15.77 5.11,-27.54l0 -29.31c0,-11.77 -1.77,-21.11 -5.11,-27.54 -3.33,-6.45 -9.54,-9.77 -18.43,-9.77 -8.88,0 -15.11,3.33 -18.44,9.77 -3.34,6.44 -5.11,15.77 -5.11,27.54l0 29.31c0,11.77 1.77,21.11 5.11,27.54 3.33,6.45 9.55,9.77 18.44,9.77z"/>
  <path id="_8_19" class="fil6" d="M18412.21 1658.51l-109.72 0 0 -30.43 47.75 -40.86c4.22,-3.78 7.99,-7.11 10.88,-10.22 2.89,-2.89 5.34,-6 7.34,-8.88 1.77,-2.89 3.11,-5.55 4,-8.43 0.66,-2.89 1.11,-5.78 1.11,-9.1l0 -3.12c0,-2.88 -0.67,-5.55 -1.78,-7.76 -1.11,-2.23 -2.67,-4 -4.67,-5.56 -2,-1.56 -4,-2.67 -6.44,-3.33 -2.45,-0.67 -5.11,-1.12 -7.55,-1.12 -3.78,0 -6.89,0.67 -9.55,1.78 -2.88,1.11 -5.11,2.67 -7.11,4.67 -2,2 -3.78,4.45 -5.11,6.89 -1.33,2.67 -2.44,5.56 -3.11,8.44l-29.1 -11.11c1.78,-5.33 4.23,-10.43 7.34,-15.32 3.11,-4.67 7.11,-8.88 11.77,-12.66 4.67,-3.56 9.99,-6.45 16.43,-8.44 6.45,-2 13.55,-3.11 21.55,-3.11 8.44,0 15.99,1.11 22.43,3.56 6.45,2.44 11.99,5.55 16.66,9.77 4.44,4.22 7.77,9.1 10.21,14.66 2.45,5.77 3.56,11.99 3.56,18.65 0,6.67 -1.11,12.66 -3.34,18.22 -2.22,5.56 -5.11,10.66 -8.88,15.32 -3.77,4.89 -8.21,9.55 -13.32,13.77 -5.11,4.23 -10.21,8.66 -15.77,13.11l-28.87 22.65 73.29 0 0 27.98z"/>
  <path id="_9_20" class="fil6" d="M18539.02 1532.58l-70.4 0 -3.33 49.09 1.78 0c1.55,-3.78 3.11,-7.11 5.11,-10.21 1.78,-2.89 4,-5.56 6.44,-7.77 2.45,-2 5.56,-3.78 9.1,-4.89 3.56,-1.11 7.77,-1.78 12.66,-1.78 6.67,0 12.88,1.11 18.66,3.34 5.78,2.22 10.88,5.33 15.11,9.54 4.22,4.22 7.76,9.55 10.21,15.55 2.44,6.22 3.78,13.1 3.78,20.88 0,7.77 -1.34,15.1 -3.78,21.77 -2.67,6.89 -6.45,12.66 -11.55,17.55 -5.11,4.89 -11.55,8.66 -18.88,11.32 -7.33,2.89 -15.77,4.23 -25.32,4.23 -7.54,0 -14.21,-0.89 -19.99,-2.45 -5.78,-1.55 -10.88,-3.78 -15.32,-6.67 -4.45,-2.66 -8.22,-5.77 -11.55,-9.32 -3.33,-3.56 -6,-7.33 -8.44,-11.32l24.21 -19.11c3.33,6 7.55,11.1 12.21,15.33 4.67,4.22 11.11,6.44 19.11,6.44 7.99,0 13.99,-2.22 18.21,-6.89 4,-4.66 6,-10.66 6,-18.21l0 -1.78c0,-7.11 -2,-12.66 -6.22,-16.88 -4.22,-4.22 -9.77,-6.22 -17.1,-6.22 -6.01,0 -11.11,1.11 -14.89,3.55 -4,2.45 -7.11,4.89 -9.1,7.34l-27.31 -3.78 5.77 -87.73 94.84 0 0 29.09z"/>
  <polygon id="_10_21" class="fil6" points="18741.8,1556.79 18741.13,1556.79 18729.81,1579.45 18699.6,1634.3 18670.06,1579.67 18658.29,1555.23 18657.63,1555.23 18657.63,1658.51 18625.86,1658.51 18625.86,1503.49 18661.63,1503.49 18699.6,1576.12 18700.04,1576.12 18737.59,1503.49 18773.56,1503.49 18773.56,1658.51 18741.8,1658.51 "/>
  <path id="_11_22" class="fil6" d="M18903.26 1658.51l-11.1 -36.86 -51.75 0 -11.1 36.86 -34.2 0 51.08 -155.02 41.76 0 50.42 155.02 -35.1 0zm-36.65 -124.38l-1.11 0 -17.1 58.86 35.54 0 -17.33 -58.86z"/>
  <polygon id="_12_23" class="fil6" points="19010.1,1533.47 19010.1,1658.51 18976.34,1658.51 18976.34,1533.47 18934.36,1533.47 18934.36,1503.49 19052.07,1503.49 19052.07,1533.47 "/>
  <polygon id="_13_24" class="fil6" points="19168,1595 19108.93,1595 19108.93,1658.51 19075.17,1658.51 19075.17,1503.49 19108.93,1503.49 19108.93,1565.23 19168,1565.23 19168,1503.49 19201.77,1503.49 19201.77,1658.51 19168,1658.51 "/>
  <path id="_14" class="fil6" d="M19293.72 1658.51l0 -29.76 -68.18 0 0 -28.43 60.41 -96.83 39.53 0 0 99.5 19.55 0 0 25.76 -19.55 0 0 29.76 -31.76 0zm-41.53 -55.52l41.53 0 0 -65.08 -2.22 0 -39.31 65.08z"/>
  <path id="_15" class="fil6" d="M19401.22 1503.49l0 95.06c0,10.88 2.22,19.11 6.44,24.43 4.23,5.56 11.55,8.21 21.55,8.21 9.99,0 17.33,-2.66 21.55,-8.21 4.22,-5.33 6.44,-13.55 6.44,-24.43l0 -95.06 32.88 0 0 91.51c0,11.32 -1.11,21.32 -3.11,29.54 -2.23,8.43 -5.78,15.32 -10.66,20.65 -4.89,5.56 -11.1,9.55 -18.88,12 -7.77,2.66 -17.11,4 -28.21,4 -11.1,0 -20.44,-1.34 -28.2,-4 -7.77,-2.45 -14,-6.45 -18.89,-12 -4.89,-5.33 -8.43,-12.21 -10.43,-20.65 -2.22,-8.22 -3.34,-18.22 -3.34,-29.54l0 -91.51 32.88 0z"/>
 </g>
</svg>
