<?xml version="1.0" encoding="UTF-8" standalone="no"?>
<!-- Created with Inkscape (http://www.inkscape.org/) -->

<svg
   version="1.1"
   id="svg1"
   width="680.3147"
   height="188.976"
   viewBox="0 0 680.3147 188.976"
   sodipodi:docname="sikmy_vrh_upraveny.svg"
   inkscape:version="1.4.2 (f4327f4, 2025-05-13)"
   xmlns:inkscape="http://www.inkscape.org/namespaces/inkscape"
   xmlns:sodipodi="http://sodipodi.sourceforge.net/DTD/sodipodi-0.dtd"
   xmlns="http://www.w3.org/2000/svg"
   xmlns:svg="http://www.w3.org/2000/svg">
  <defs
     id="defs1">
    <clipPath
       clipPathUnits="userSpaceOnUse"
       id="clipPath5">
      <path
         d="M -5.66936,1.41734 V 136.06621 H 504.57347 V 1.41734 Z"
         id="path5" />
    </clipPath>
    <clipPath
       clipPathUnits="userSpaceOnUse"
       id="clipPath7">
      <path
         d="M 0,0 H 490.40007 V 136.06621 H 0 Z"
         transform="matrix(1.3333333,0,0,-1.3333333,21.030667,186.62)"
         id="path7" />
    </clipPath>
    <clipPath
       clipPathUnits="userSpaceOnUse"
       id="clipPath9">
      <path
         d="M 0,0 H 490.40007 V 136.06621 H 0 Z"
         id="path9" />
    </clipPath>
    <clipPath
       clipPathUnits="userSpaceOnUse"
       id="clipPath11">
      <path
         d="M 0,0 H 490.40007 V 136.06621 H 0 Z"
         id="path11" />
    </clipPath>
    <clipPath
       clipPathUnits="userSpaceOnUse"
       id="clipPath13">
      <path
         d="M 0,0 H 490.40007 V 136.06621 H 0 Z"
         transform="rotate(-90,-27.103049,78.127331)"
         id="path13" />
    </clipPath>
    <clipPath
       clipPathUnits="userSpaceOnUse"
       id="clipPath15">
      <path
         d="M 0,0 H 490.40007 V 136.06621 H 0 Z"
         id="path15" />
    </clipPath>
    <clipPath
       clipPathUnits="userSpaceOnUse"
       id="clipPath17">
      <path
         d="M 0,0 H 490.40007 V 136.06621 H 0 Z"
         id="path17" />
    </clipPath>
    <clipPath
       clipPathUnits="userSpaceOnUse"
       id="clipPath19">
      <path
         d="M 0,0 H 490.40007 V 136.06621 H 0 Z"
         transform="translate(-161.92288,-22.677691)"
         id="path19" />
    </clipPath>
    <clipPath
       clipPathUnits="userSpaceOnUse"
       id="clipPath21">
      <path
         d="M 0,0 H 490.40007 V 136.06621 H 0 Z"
         id="path21" />
    </clipPath>
    <clipPath
       clipPathUnits="userSpaceOnUse"
       id="clipPath23">
      <path
         d="M 0,0 H 490.40007 V 136.06621 H 0 Z"
         id="path23" />
    </clipPath>
    <clipPath
       clipPathUnits="userSpaceOnUse"
       id="clipPath25">
      <path
         d="M 0,0 H 490.40007 V 136.06621 H 0 Z"
         transform="matrix(0.80001799,-0.60002598,0.60002598,0.80001799,-193.67778,12.474008)"
         id="path25" />
    </clipPath>
    <clipPath
       clipPathUnits="userSpaceOnUse"
       id="clipPath27">
      <path
         d="M 0,0 H 490.40007 V 136.06621 H 0 Z"
         id="path27" />
    </clipPath>
    <clipPath
       clipPathUnits="userSpaceOnUse"
       id="clipPath29">
      <path
         d="M 0,0 H 490.40007 V 136.06621 H 0 Z"
         id="path29" />
    </clipPath>
    <clipPath
       clipPathUnits="userSpaceOnUse"
       id="clipPath34">
      <path
         d="M 0,0 H 490.40007 V 136.06621 H 0 Z"
         transform="matrix(1,0,0,-1,-1.7070003,62.127002)"
         id="path34" />
    </clipPath>
    <clipPath
       clipPathUnits="userSpaceOnUse"
       id="clipPath39">
      <path
         d="M 0,0 H 490.40007 V 136.06621 H 0 Z"
         transform="matrix(1,0,0,-1,-89.214005,3.9920026)"
         id="path39" />
    </clipPath>
    <clipPath
       clipPathUnits="userSpaceOnUse"
       id="clipPath42">
      <path
         d="M 0,0 H 490.40007 V 136.06621 H 0 Z"
         transform="matrix(1,0,0,-1,-94.957002,70.905002)"
         id="path42" />
    </clipPath>
    <clipPath
       clipPathUnits="userSpaceOnUse"
       id="clipPath44">
      <path
         d="M 0,0 H 490.40007 V 136.06621 H 0 Z"
         transform="matrix(1,0,0,-1,-101.404,37.679003)"
         id="path44" />
    </clipPath>
    <clipPath
       clipPathUnits="userSpaceOnUse"
       id="clipPath46">
      <path
         d="M 0,0 H 490.40007 V 136.06621 H 0 Z"
         transform="matrix(1,0,0,-1,-40.869001,130.401)"
         id="path46" />
    </clipPath>
    <clipPath
       clipPathUnits="userSpaceOnUse"
       id="clipPath48">
      <path
         d="M 0,0 H 490.40007 V 136.06621 H 0 Z"
         transform="matrix(1,0,0,-1,-479.98101,13.017)"
         id="path48" />
    </clipPath>
    <clipPath
       clipPathUnits="userSpaceOnUse"
       id="clipPath50">
      <path
         d="M 0,0 H 490.40007 V 136.06621 H 0 Z"
         transform="matrix(1,0,0,-1,-42.428001,13.155998)"
         id="path50" />
    </clipPath>
  </defs>
  <sodipodi:namedview
     id="namedview1"
     pagecolor="#ffffff"
     bordercolor="#000000"
     borderopacity="0.25"
     inkscape:showpageshadow="2"
     inkscape:pageopacity="0.0"
     inkscape:pagecheckerboard="0"
     inkscape:deskcolor="#d1d1d1"
     inkscape:zoom="1.7962276"
     inkscape:cx="224.08074"
     inkscape:cy="94.364436"
     inkscape:window-width="1366"
     inkscape:window-height="705"
     inkscape:window-x="-8"
     inkscape:window-y="-8"
     inkscape:window-maximized="1"
     inkscape:current-layer="g1">
    <inkscape:page
       x="0"
       y="0"
       inkscape:label="1"
       id="page1"
       width="680.3147"
       height="188.976"
       margin="0"
       bleed="0" />
  </sodipodi:namedview>
  <g
     id="g1"
     inkscape:groupmode="layer"
     inkscape:label="1">
    <path
       id="path1"
       d="M 0,22.67769 H 488.40755"
       style="fill:none;stroke:#000000;stroke-width:0.3985;stroke-linecap:round;stroke-linejoin:round;stroke-miterlimit:10;stroke-dasharray:none;stroke-opacity:1"
       transform="matrix(1.3333333,0,0,-1.3333333,21.030667,186.62)" />
    <path
       id="path2"
       d="M 1.99252,0 -1.19551,1.59401 0,0 -1.19551,-1.59401"
       style="fill:#000000;fill-opacity:1;fill-rule:nonzero;stroke:none"
       transform="matrix(1.3333333,0,0,-1.3333333,672.24073,156.38308)" />
    <path
       id="path3"
       d="M 51.02428,0 V 134.07368"
       style="fill:none;stroke:#000000;stroke-width:0.3985;stroke-linecap:round;stroke-linejoin:round;stroke-miterlimit:10;stroke-dasharray:none;stroke-opacity:1"
       transform="matrix(1.3333333,0,0,-1.3333333,21.030667,186.62)" />
    <path
       id="path4"
       d="M 1.99252,0 -1.19551,1.59401 0,0 -1.19551,-1.59401"
       style="fill:#000000;fill-opacity:1;fill-rule:nonzero;stroke:none"
       transform="matrix(0,-1.3333333,-1.3333333,0,89.06304,7.8550933)" />
    <g
       id="g6"
       clip-path="url(#clipPath7)">
      <path
         d="m 101.31155,22.67769 -0.0206,1.3477 -0.0528,1.34721 -0.0925,1.3442 -0.12471,1.34219 -0.16295,1.33817 -0.19762,1.33361 -0.23434,1.32811 -0.26904,1.32056 -0.30373,1.31302 -0.34041,1.30444 -0.37367,1.29595 -0.40982,1.28483 -0.44154,1.2733 -0.47922,1.26021 -0.5099,1.24764 -0.54566,1.23356 -0.57626,1.21747 -0.60997,1.20238 -0.64168,1.18629 -0.67285,1.1687 -0.70354,1.14907 -0.73519,1.12997 -0.76489,1.11035 -0.79353,1.09024"
         style="fill:none;stroke:#ff0000;stroke-width:1.59404;stroke-linecap:round;stroke-linejoin:round;stroke-miterlimit:10;stroke-dasharray:none;stroke-opacity:1"
         transform="matrix(1.3333333,0,0,-1.3333333,21.030667,186.62)"
         clip-path="url(#clipPath5)"
         id="path6" />
    </g>
    <path
       id="path8"
       d="m 51.02428,22.67769 c 0,0 1.54339,1.15398 2.13621,1.59413 0.59282,0.44016 1.54367,1.14255 2.13649,1.57825 0.59281,0.43568 1.54343,1.13073 2.1362,1.56192 0.59279,0.43118 1.5434,1.11908 2.13623,1.54582 0.59284,0.42676 1.54369,1.10767 2.13652,1.52995 0.59284,0.42227 1.54343,1.09584 2.13622,1.51363 0.59279,0.41778 1.54344,1.08421 2.13623,1.49753 0.59277,0.41331 1.54339,1.07257 2.1362,1.48143 0.59282,0.40887 1.54367,1.06112 2.13649,1.46553 0.59282,0.40442 1.54339,1.04928 2.13621,1.44925 0.59282,0.39994 1.54367,1.03784 2.13649,1.43332 0.59283,0.39549 1.54343,1.02605 2.13622,1.41703 0.59277,0.39099 1.54344,1.01444 2.13621,1.40094 0.59279,0.38652 1.54338,1.00277 2.13622,1.38483 0.59283,0.38208 1.5437,0.99133 2.13653,1.36894 0.59284,0.3776 1.54343,0.97952 2.13622,1.35265 0.59279,0.37311 1.54341,0.96788 2.13623,1.33653 0.5928,0.36867 1.54364,0.95641 2.13646,1.3206 0.59282,0.3642 1.54344,0.94464 2.13623,1.30434 0.59279,0.35971 1.5434,0.93299 2.13621,1.28825 0.59282,0.35527 1.54368,0.9215 2.1365,1.2723 0.5928,0.3508 1.54342,0.90976 2.13621,1.25605 0.59277,0.3463 1.54339,0.89809 2.13622,1.23995 0.59283,0.34186 1.54368,0.88663 2.13652,1.22401 0.59283,0.33741 1.54344,0.87485 2.13623,1.20775 0.59279,0.33292 1.54342,0.86321 2.13621,1.19165 0.59279,0.32843 1.54341,0.85155 2.13621,1.17554 0.59283,0.32397 1.54366,0.84009 2.13648,1.15961 0.59282,0.3195 1.54342,0.82829 2.13623,1.14334 0.59282,0.31504 1.54366,0.8168 2.13648,1.12739 0.59281,0.31058 1.54344,0.80504 2.13623,1.11113 0.59277,0.30609 1.54342,0.79343 2.1362,1.09506 0.59278,0.30164 1.54339,0.78177 2.13623,1.07896 0.59283,0.29717 1.54368,0.77027 2.13652,1.063 0.59283,0.2927 1.54344,0.75853 2.13623,1.04675 0.59279,0.28824 1.5434,0.74687 2.13621,1.03065 0.59281,0.28377 1.54367,0.73537 2.13648,1.01467 0.59281,0.27931 1.54342,0.72365 2.13621,0.99847 0.59279,0.27483 1.54341,0.71198 2.13623,0.98235 0.59282,0.27037 1.54366,0.70047 2.13648,0.96638 0.59282,0.2659 1.54344,0.68873 2.13623,0.95015 0.59277,0.26143 1.54338,0.6771 2.1362,0.93407 0.59283,0.25697 1.5437,0.66557 2.13653,0.91808 0.59284,0.2525 1.54343,0.65383 2.13622,0.90185 0.59279,0.24803 1.54344,0.64221 2.13623,0.88576 0.59279,0.24356 1.5434,0.63055 2.13622,0.86964 0.5928,0.23911 1.54366,0.61904 2.13647,0.85367 0.59282,0.23465 1.54339,0.60731 2.13622,0.83748 0.59281,0.23018 1.54367,0.59575 2.13648,0.82146 0.59282,0.2257 1.54343,0.58404 2.13622,0.80527 0.59279,0.22122 1.54344,0.5724 2.13623,0.78915 0.59277,0.21675 1.54338,0.56076 2.1362,0.77305 0.59284,0.2123 1.5437,0.54926 2.13654,0.75708 0.59283,0.20783 1.54342,0.53751 2.13621,0.74085 0.59279,0.20335 1.54339,0.52589 2.13622,0.72477 0.59282,0.19889 1.54367,0.51435 2.13647,0.70876 0.59282,0.19443 1.54344,0.50263 2.13623,0.69258 0.59279,0.18994 1.5434,0.49097 2.13622,0.67646 0.59282,0.18548 1.54367,0.47943 2.13649,0.66044 0.59282,0.18103 1.54342,0.46773 2.13621,0.64426 0.59278,0.17654 1.5434,0.45608 2.13622,0.62817 0.59283,0.17207 1.54368,0.44455 2.13652,0.61217 0.59283,0.16762 1.54342,0.43283 2.13621,0.59596 0.59279,0.16313 1.54344,0.4212 2.13623,0.57987 0.59279,0.15866 1.54337,0.40954 2.13619,0.56376 0.5928,0.15421 1.54368,0.398 2.1365,0.54776 0.59284,0.14975 1.5434,0.38631 2.13622,0.53157 0.59282,0.14528 1.54367,0.37473 2.13649,0.51552 0.59282,0.14081 1.54342,0.36304 2.13621,0.49938 0.59279,0.13632 1.54345,0.35142 2.13623,0.48327 0.59278,0.13187 1.54338,0.33977 2.1362,0.46718 0.59284,0.12741 1.5437,0.3282 2.13654,0.45113 0.59283,0.12294 1.54343,0.31652 2.13621,0.43499 0.59279,0.11847 1.54342,0.30487 2.13624,0.41887 0.59281,0.114 1.54365,0.2933 2.13647,0.40283 0.5928,0.10953 1.54344,0.28162 2.13621,0.38667 0.59279,0.10506 1.5434,0.27 2.13622,0.37058 0.59282,0.1006 1.54367,0.25838 2.13649,0.35451 0.59282,0.09615 1.54343,0.24673 2.13622,0.33839 0.59278,0.09165 1.54339,0.23508 2.13623,0.32229 0.59281,0.08718 1.54367,0.22349 2.1365,0.30623 0.59284,0.08271 1.54344,0.21182 2.13623,0.29008 0.59279,0.07825 1.54343,0.20018 2.13622,0.27395 0.59279,0.0738 1.54336,0.18856 2.13618,0.25788 0.59282,0.0693 1.54369,0.17699 2.13651,0.24183 0.59283,0.0649 1.54341,0.1653 2.13623,0.22568 0.59282,0.0604 1.54365,0.15369 2.13647,0.20961 0.59282,0.0559 1.54344,0.14206 2.13623,0.1935 0.59279,0.0515 1.54343,0.13039 2.13622,0.17737 0.59277,0.047 1.54339,0.11877 2.13621,0.16128 0.59284,0.0425 1.54369,0.10718 2.13652,0.14524 0.59284,0.038 1.54344,0.0955 2.13623,0.12905 0.59279,0.0336 1.5434,0.0839 2.13622,0.113 0.59282,0.0291 1.54367,0.0723 2.13649,0.0969 0.5928,0.0247 1.54342,0.0606 2.1362,0.0808 0.59279,0.0202 1.54341,0.049 2.13623,0.0647 0.59282,0.0157 1.54365,0.0374 2.13647,0.0486 0.59282,0.0112 1.54344,0.0257 2.13624,0.0325 0.59278,0.007 1.54337,0.0141 2.13621,0.0164 0.59282,0.002 1.5437,0.002 2.13652,2.9e-4 0.59283,-0.002 1.54343,-0.009 2.13621,-0.0158 0.59279,-0.007 1.54345,-0.0208 2.13623,-0.0319 0.59279,-0.0111 1.54336,-0.0325 2.13617,-0.048 0.59282,-0.0155 1.54371,-0.0441 2.13654,-0.0641 0.59282,-0.02 1.5434,-0.0557 2.1362,-0.0802 0.59282,-0.0245 1.54367,-0.0674 2.13649,-0.0963 0.59282,-0.029 1.54343,-0.079 2.13622,-0.11242 0.59278,-0.0334 1.54344,-0.0906 2.13623,-0.12851 0.59278,-0.0379 1.54338,-0.10224 2.13621,-0.14459 0.59282,-0.0423 1.54369,-0.1139 2.13652,-0.16073 0.59284,-0.0468 1.54343,-0.12551 2.13622,-0.17681 0.59279,-0.0513 1.54336,-0.13713 2.13618,-0.19288 0.59282,-0.0558 1.54369,-0.14879 2.13652,-0.20902 0.59282,-0.0602 1.54344,-0.16041 2.13622,-0.2251 0.59279,-0.0647 1.54339,-0.17204 2.13621,-0.24121 0.59282,-0.0692 1.54367,-0.18371 2.13649,-0.25734 0.59282,-0.0736 1.54343,-0.19529 2.13621,-0.27339 0.5928,-0.07809 1.5434,-0.20694 2.13624,-0.2895 0.59282,-0.08257 1.54368,-0.21862 2.1365,-0.30565 0.59284,-0.08704 1.54343,-0.2302 2.13622,-0.32167 0.59279,-0.09149 1.54344,-0.24182 2.13623,-0.3378 0.59279,-0.09596 1.54336,-0.25347 2.13618,-0.3539 0.59282,-0.10043 1.54369,-0.26514 2.13653,-0.37004 0.59281,-0.10492 1.54339,-0.27672 2.1362,-0.38609 0.59281,-0.10938 1.54366,-0.28841 2.13648,-0.40226 0.59282,-0.11384 1.54343,-0.29998 2.13622,-0.41828 0.59279,-0.11831 1.54344,-0.31163 2.13623,-0.43439 0.59279,-0.12277 1.54338,-0.32324 2.13621,-0.45049 0.59282,-0.12724 1.54371,-0.33494 2.13652,-0.46666 0.59284,-0.13171 1.54343,-0.34652 2.13622,-0.48269 0.59279,-0.13615 1.54337,-0.35813 2.13618,-0.49877 0.59282,-0.14065 1.54369,-0.36985 2.13652,-0.51498 0.59284,-0.14514 1.54345,-0.38149 2.13624,-0.53107 0.59277,-0.1496 1.54339,-0.39303 2.1362,-0.54706 0.59281,-0.15403 1.54367,-0.40454 2.13648,-0.56306 0.59282,-0.15854 1.54343,-0.41651 2.13622,-0.5795 0.59279,-0.16301 1.5434,-0.42787 2.13623,-0.59531 0.59284,-0.16743 1.54369,-0.43956 2.13651,-0.61149 0.59283,-0.17194 1.54344,-0.45133 2.13623,-0.62773 0.59278,-0.17641 1.54342,-0.46289 2.13621,-0.64373 0.59279,-0.18085 1.54337,-0.47442 2.13619,-0.65974 0.59281,-0.18531 1.54368,-0.48618 2.13651,-0.67595 0.59283,-0.18979 1.54342,-0.49769 2.13624,-0.69197 0.5928,-0.19426 1.54364,-0.50944 2.13646,-0.70818 0.59282,-0.19874 1.54344,-0.52101 2.13623,-0.72418 0.59279,-0.20317 1.54342,-0.53254 2.13621,-0.74019 0.59279,-0.20764 1.5434,-0.54428 2.13623,-0.75642 0.59283,-0.21214 1.54369,-0.556 2.13651,-0.77262 0.59283,-0.2166 1.54344,-0.56757 2.13623,-0.78863 0.59279,-0.22105 1.54335,-0.57912 2.13617,-0.80464 0.59282,-0.22553 1.5437,-0.59087 2.13653,-0.82086 0.59284,-0.23 1.54343,-0.60239 2.13622,-0.83686 0.59277,-0.23448 1.54341,-0.61415 2.13621,-0.85308 0.59282,-0.23896 1.54366,-0.62571 2.13648,-0.86908 0.59282,-0.2434 1.54344,-0.63724 2.13623,-0.8851 0.59279,-0.24785 1.54338,-0.64896 2.13621,-0.90131 0.59284,-0.25235 1.54371,-0.66071 2.13654,-0.91753 0.59282,-0.25681 1.54343,-0.67227 2.1362,-0.93353 0.59279,-0.26126 1.5434,-0.68382 2.13618,-0.94955 0.59279,-0.26573 1.54338,-0.69555 2.13622,-0.96575 0.59283,-0.27022 1.5437,-0.70709 2.13654,-0.98178 0.59283,-0.27469 1.54339,-0.71883 2.13621,-0.99798 0.5928,-0.27915 1.54367,-0.7304 2.13647,-1.01398 0.59282,-0.2836 1.54343,-0.74193 2.13622,-1.03 0.59279,-0.28806 1.54344,-0.75364 2.13623,-1.04622 0.59279,-0.29256 1.54338,-0.76542 2.13622,-1.06244 0.59283,-0.297 1.5437,-0.77673 2.13653,-1.0782 0.59282,-0.30148 1.54343,-0.7887 2.1362,-1.09467 0.59279,-0.30596 1.54337,-0.80024 2.13618,-1.11065 0.59283,-0.31041 1.54369,-0.81178 2.13653,-1.12666 0.59283,-0.3149 1.54344,-0.82354 2.13623,-1.14289 0.59279,-0.31937 1.54339,-0.8351 2.13621,-1.15891 0.59281,-0.32379 1.54366,-0.84661 2.13648,-1.17489 0.59282,-0.32828 1.54342,-0.85837 2.13621,-1.1911 0.59279,-0.33275 1.5434,-0.86992 2.13623,-1.20714 0.59284,-0.3372 1.54369,-0.88162 2.13652,-1.22333 0.59282,-0.3417 1.54343,-0.89337 2.1362,-1.23953 0.59279,-0.34618 1.5434,-0.90475 2.13619,-1.25539 0.59279,-0.35062 1.5434,-0.91668 2.13623,-1.27179 0.59283,-0.3551 1.54368,-0.92802 2.13652,-1.28756 0.59283,-0.35955 1.54339,-0.93973 2.13621,-1.30377 0.59281,-0.36405 1.54367,-0.95153 2.13648,-1.32004 0.59282,-0.3685 1.54342,-0.96303 2.13621,-1.33597 0.59279,-0.37296 1.54345,-0.97461 2.13623,-1.35204 0.59279,-0.37744 1.54338,-0.98635 2.13622,-1.36827 0.59283,-0.38192 1.54372,-0.99808 2.13653,-1.38444 0.59281,-0.38637 1.5434,-1.00948 2.13617,-1.40029 0.5928,-0.3908 1.54338,-1.02115 2.13622,-1.41645 0.59283,-0.39531 1.54368,-1.0329 2.13652,-1.43268 0.59283,-0.39978 1.54344,-1.04444 2.13623,-1.44869 0.59279,-0.40425 1.5434,-1.05618 2.13622,-1.4649 0.5928,-0.40873 1.54367,-1.06778 2.13647,-1.48094 0.59282,-0.41317 1.54343,-1.07927 2.13622,-1.49689 0.59278,-0.41763 1.54339,-1.09105 2.13622,-1.51317 0.59284,-0.4221 1.54369,-1.1026 2.13653,-1.52916 0.59283,-0.42657 1.54344,-1.1143 2.13623,-1.54535 0.59277,-0.43102 1.54338,-1.12584 2.13615,-1.56135 0.59279,-0.43553 1.54339,-1.13762 2.13623,-1.57761 0.59284,-0.43999 2.13652,-1.59363 2.13652,-1.59363"
       style="fill:none;stroke:#ff0000;stroke-width:1.59404;stroke-linecap:round;stroke-linejoin:round;stroke-miterlimit:10;stroke-dasharray:2.98883, 4.98138;stroke-dashoffset:0;stroke-opacity:1"
       transform="matrix(1.3333333,0,0,-1.3333333,21.030667,186.62)"
       clip-path="url(#clipPath9)" />
    <path
       id="path10"
       d="m 51.02428,22.67769 v 82.55269"
       style="fill:none;stroke:#0000ff;stroke-width:1.59404;stroke-linecap:round;stroke-linejoin:round;stroke-miterlimit:10;stroke-dasharray:none;stroke-opacity:1"
       transform="matrix(1.3333333,0,0,-1.3333333,21.030667,186.62)"
       clip-path="url(#clipPath11)" />
    <path
       id="path12"
       d="M -7.80528,3.50345 0.44832,0 -7.80528,-3.50345 Z"
       style="fill:#0000ff;fill-opacity:1;fill-rule:nonzero;stroke:#0000ff;stroke-width:1.59404;stroke-linecap:round;stroke-linejoin:miter;stroke-miterlimit:10;stroke-dasharray:none;stroke-opacity:1"
       transform="matrix(0,-1.3333333,-1.3333333,0,89.06304,46.312827)"
       clip-path="url(#clipPath13)" />
    <path
       id="path14"
       d="m 48.75652,22.67769 c -2.39109,1.19549 -3.98511,3.98511 -3.98511,7.97021 v 26.58028 c 0,3.98511 -1.59401,6.77472 -3.98511,7.97022 2.3911,1.19548 3.98511,3.9851 3.98511,7.97021 v 26.58026 c 0,3.98511 1.59402,6.77473 3.98511,7.97022"
       style="fill:none;stroke:#000000;stroke-width:0.99628;stroke-linecap:round;stroke-linejoin:round;stroke-miterlimit:10;stroke-dasharray:none;stroke-opacity:1"
       transform="matrix(1.3333333,0,0,-1.3333333,21.030667,186.62)"
       clip-path="url(#clipPath15)" />
    <path
       id="path16"
       d="m 51.02428,22.67769 h 110.8986"
       style="fill:none;stroke:#0000ff;stroke-width:1.59404;stroke-linecap:round;stroke-linejoin:round;stroke-miterlimit:10;stroke-dasharray:none;stroke-opacity:1"
       transform="matrix(1.3333333,0,0,-1.3333333,21.030667,186.62)"
       clip-path="url(#clipPath17)" />
    <path
       id="path18"
       d="M -7.80528,3.50345 0.44832,0 -7.80528,-3.50345 Z"
       style="fill:#0000ff;fill-opacity:1;fill-rule:nonzero;stroke:#0000ff;stroke-width:1.59404;stroke-linecap:round;stroke-linejoin:miter;stroke-miterlimit:10;stroke-dasharray:none;stroke-opacity:1"
       transform="matrix(1.3333333,0,0,-1.3333333,236.92784,156.38308)"
       clip-path="url(#clipPath19)" />
    <path
       id="path20"
       d="m 51.02428,20.40993 c 1.19548,-2.3911 3.9851,-3.98511 7.97021,-3.98511 h 40.75322 c 3.98511,0 6.77474,-1.59402 7.97022,-3.98511 1.19547,2.39109 3.9851,3.98511 7.97021,3.98511 h 40.75322 c 3.98511,0 6.77474,1.59401 7.97022,3.98511"
       style="fill:none;stroke:#000000;stroke-width:0.99628;stroke-linecap:round;stroke-linejoin:round;stroke-miterlimit:10;stroke-dasharray:none;stroke-opacity:1"
       transform="matrix(1.3333333,0,0,-1.3333333,21.030667,186.62)"
       clip-path="url(#clipPath21)" />
    <path
       id="path22"
       d="M 51.02428,22.67769 162.4207,106.2259"
       style="fill:none;stroke:#0000ff;stroke-width:1.59404;stroke-linecap:round;stroke-linejoin:round;stroke-miterlimit:10;stroke-dasharray:none;stroke-opacity:1"
       transform="matrix(1.3333333,0,0,-1.3333333,21.030667,186.62)"
       clip-path="url(#clipPath23)" />
    <path
       id="path24"
       d="M -7.80528,3.50345 0.44832,0 -7.80528,-3.50345 Z"
       style="fill:#0000ff;fill-opacity:1;fill-rule:nonzero;stroke:#0000ff;stroke-width:1.59404;stroke-linecap:round;stroke-linejoin:miter;stroke-miterlimit:10;stroke-dasharray:none;stroke-opacity:1"
       transform="matrix(1.0666267,-0.79998667,-0.79998667,-1.0666267,237.5916,44.985467)"
       clip-path="url(#clipPath25)" />
    <path
       id="path26"
       d="m 51.02428,107.71909 h 113.3873"
       style="fill:none;stroke:#0000ff;stroke-width:1.59404;stroke-linecap:round;stroke-linejoin:round;stroke-miterlimit:10;stroke-dasharray:2.98883, 4.98138;stroke-dashoffset:0;stroke-opacity:1"
       transform="matrix(1.3333333,0,0,-1.3333333,21.030667,186.62)"
       clip-path="url(#clipPath27)" />
    <path
       id="path28"
       d="M 164.41158,107.71909 V 22.67769"
       style="fill:none;stroke:#0000ff;stroke-width:1.59404;stroke-linecap:round;stroke-linejoin:round;stroke-miterlimit:10;stroke-dasharray:2.98883, 4.98138;stroke-dashoffset:0;stroke-opacity:1"
       transform="matrix(1.3333333,0,0,-1.3333333,21.030667,186.62)"
       clip-path="url(#clipPath29)" />
    <g
       id="g29"
       aria-label="v&#10;0&#10;sinα"
       transform="matrix(1.3333333,0,0,1.3333333,23.306667,103.784)"
       clip-path="url(#clipPath34)">
      <path
         id="path30"
         d="m 5.4623828,-4.4639766 c 0,-0.7617187 -0.375,-0.8085937 -0.4804687,-0.8085937 -0.28125,0 -0.5507813,0.2929687 -0.5507813,0.5273437 0,0.140625 0.09375,0.2226563 0.140625,0.28125 0.1171875,0.1054688 0.421875,0.421875 0.421875,1.0429688 0,0.5039062 -0.7148437,3.30468749 -2.1445312,3.30468749 -0.7265625,0 -0.8789063,-0.609375 -0.8789063,-1.05468749 0,-0.5976563 0.28125,-1.4296875 0.5976563,-2.296875 0.1992187,-0.4921875 0.2460937,-0.609375 0.2460937,-0.84375 0,-0.5039063 -0.3632812,-0.9609375 -0.9492187,-0.9609375 -1.10156254,0 -1.53515629,1.734375 -1.53515629,1.828125 0,0.046875 0.046875,0.1054687 0.12890625,0.1054687 0.10546875,0 0.1171875,-0.046875 0.1640625,-0.2109375 0.29296875,-1.03125 0.75000004,-1.4765625 1.20703124,-1.4765625 0.1054688,0 0.3164063,0 0.3164063,0.3867188 0,0.3164062 -0.140625,0.65625 -0.3164063,1.1132812 -0.5742187,1.5351563 -0.5742187,1.8984375 -0.5742187,2.1914063 0,0.2578125 0.035156,0.74999999 0.4101562,1.08984374 0.4335938,0.36328125 1.03125,0.36328125 1.1367188,0.36328125 1.9804687,0 2.6601562,-3.90234379 2.6601562,-4.58203129 z m 0,0"
         style="fill:#0000ff;fill-opacity:1;fill-rule:nonzero;stroke:none" />
      <path
         id="path31"
         d="m 9.5610156,-0.74913281 c 0,-0.85546879 -0.09375,-1.37109379 -0.3515625,-1.87499999 -0.3515625,-0.703125 -0.9960937,-0.8789063 -1.4414062,-0.8789063 -0.9960938,0 -1.3710938,0.75 -1.4765625,0.9726563 -0.2929688,0.5742187 -0.3046875,1.3710937 -0.3046875,1.78124999 0,0.52734375 0.023437,1.3359375 0.4101562,1.96875001 0.3632813,0.5859375 0.9492188,0.7382812 1.3710938,0.7382812 0.3867187,0 1.0664062,-0.1171875 1.4648437,-0.9023437 0.2929688,-0.57421876 0.328125,-1.28906251 0.328125,-1.80468751 z M 7.7680469,1.7352422 c -0.2695313,0 -0.8203125,-0.1289063 -0.984375,-0.96093751 -0.09375,-0.45703125 -0.09375,-1.20703125 -0.09375,-1.6171875 0,-0.55078129 0,-1.11328129 0.09375,-1.54687499 0.1640625,-0.8085938 0.7851562,-0.890625 0.984375,-0.890625 0.2695312,0 0.8203125,0.1289062 0.984375,0.8554687 0.09375,0.4453125 0.09375,1.0429688 0.09375,1.58203129 0,0.46875 0,1.18359375 -0.09375,1.62890625 C 8.5883594,1.6297734 8.0375781,1.7352422 7.7680469,1.7352422 Z m 0,0"
         style="fill:#0000ff;fill-opacity:1;fill-rule:nonzero;stroke:none" />
      <path
         id="path32"
         d="m 16.311016,-5.0499141 c 0,-0.2226562 0,-0.28125 -0.128907,-0.28125 -0.09375,0 -0.316406,0.2695313 -0.398437,0.375 -0.375,-0.3046875 -0.75,-0.375 -1.125,-0.375 -1.453125,0 -1.875,0.7851563 -1.875,1.4414063 0,0.140625 0,0.5507812 0.445312,0.9726562 0.386719,0.3398438 0.796875,0.421875 1.347657,0.5273438 0.65625,0.1289062 0.808593,0.1640625 1.113281,0.4101562 0.210937,0.1757813 0.363281,0.4335938 0.363281,0.7734375 0,0.51562504 -0.292969,1.08984379 -1.347656,1.08984379 -0.785156,0 -1.359375,-0.45703125 -1.628906,-1.65234379 -0.04687,-0.2109375 -0.04687,-0.2226562 -0.05859,-0.234375 -0.02344,-0.046875 -0.07031,-0.046875 -0.105469,-0.046875 -0.128906,0 -0.128906,0.058594 -0.128906,0.2695313 v 1.62890624 c 0,0.2109375 0,0.26953125 0.117187,0.26953125 0.05859,0 0.07031,-0.0117188 0.269532,-0.2578125 0.05859,-0.0820313 0.05859,-0.10546875 0.246093,-0.3046875 0.445313,0.5625 1.101563,0.5625 1.300782,0.5625 1.253906,0 1.875,-0.69140625 1.875,-1.64062499 0,-0.6445313 -0.398438,-1.0195313 -0.503907,-1.125 -0.433593,-0.375 -0.75,-0.4453125 -1.535156,-0.5859375 -0.363281,-0.082031 -1.230469,-0.2460938 -1.230469,-0.9609375 0,-0.375 0.246094,-0.9257813 1.324219,-0.9257813 1.300781,0 1.371094,1.1132813 1.394531,1.4882813 0.01172,0.09375 0.09375,0.09375 0.128907,0.09375 0.140625,0 0.140625,-0.058594 0.140625,-0.2695313 z m 2.765625,-2.3085937 c 0,-0.3164063 -0.246094,-0.5859375 -0.574219,-0.5859375 -0.316406,0 -0.574219,0.2460937 -0.574219,0.5742187 0,0.3515625 0.28125,0.5859375 0.574219,0.5859375 0.363281,0 0.574219,-0.3164062 0.574219,-0.5742187 z m -1.640625,2.2148437 v 0.3515625 c 0.761718,0 0.867187,0.070312 0.867187,0.65625 v 3.25781254 c 0,0.52734375 -0.128906,0.52734375 -0.902344,0.52734375 V 8.671875e-4 C 17.728984,-0.02257031 18.303203,-0.02257031 18.654766,-0.02257031 c 0.128906,0 0.820312,0 1.230468,0.0234374975 V -0.35069531 c -0.773437,0 -0.832031,-0.0585938 -0.832031,-0.515625 V -5.2725703 Z m 8.138672,2.2382813 c 0,-1.1132813 0,-1.4414063 -0.28125,-1.828125 -0.339844,-0.46875 -0.902344,-0.5390625 -1.3125,-0.5390625 -1.160157,0 -1.605469,0.9960937 -1.710938,1.2304687 h -0.01172 v -1.2304687 l -1.617187,0.1289062 v 0.3515625 c 0.808594,0 0.902344,0.082031 0.902344,0.6679688 v 3.24609374 c 0,0.52734375 -0.128907,0.52734375 -0.902344,0.52734375 V 8.671875e-4 c 0.304688,-0.0234374975 0.94922,-0.0234374975 1.289063,-0.0234374975 0.339844,0 0.984375,0 1.300782,0.0234374975 V -0.35069531 c -0.761719,0 -0.914063,0 -0.914063,-0.52734375 V -3.1046016 c 0,-1.2539062 0.832031,-1.921875 1.570313,-1.921875 0.738281,0 0.914062,0.609375 0.914062,1.3359375 v 2.81250004 c 0,0.52734375 -0.140625,0.52734375 -0.914062,0.52734375 V 8.671875e-4 C 24.203594,-0.02257031 24.848125,-0.02257031 25.17625,-0.02257031 c 0.351563,0 0.996094,0 1.300781,0.0234374975 V -0.35069531 c -0.597656,0 -0.890625,0 -0.902343,-0.3515625 z m 0,0"
         style="fill:#0000ff;fill-opacity:1;fill-rule:nonzero;stroke:none" />
      <path
         id="path33"
         d="m 34.284648,-3.0225703 c 0,-1.1601563 -0.65625,-2.25 -1.921875,-2.25 -1.570312,0 -3.128906,1.7109375 -3.128906,3.4101562 0,1.04296879 0.644531,1.98046879 1.863281,1.98046879 0.738282,0 1.628907,-0.28125 2.472657,-0.99609375 0.164062,0.66796875 0.539062,0.99609375 1.054687,0.99609375 0.644531,0 0.960938,-0.66796875 0.960938,-0.8203125 0,-0.10546875 -0.08203,-0.10546875 -0.117188,-0.10546875 -0.09375,0 -0.105469,0.0351563 -0.140625,0.12890625 -0.105469,0.29296875 -0.386719,0.5625 -0.667969,0.5625 -0.375,0 -0.375,-0.76171875 -0.375,-1.49999999 1.21875,-1.453125 1.511719,-2.9648438 1.511719,-2.9765625 0,-0.1054688 -0.09375,-0.1054688 -0.128906,-0.1054688 -0.117188,0 -0.128906,0.035156 -0.175781,0.2578125 -0.152344,0.515625 -0.457032,1.453125 -1.207032,2.4375 z m -0.75,1.8515625 c -1.054687,0.94921874 -1.992187,1.05468749 -2.414062,1.05468749 -0.84375,0 -1.089844,-0.75 -1.089844,-1.31249999 0,-0.515625 0.269531,-1.734375 0.632813,-2.390625 0.492187,-0.84375 1.160156,-1.2070313 1.699218,-1.2070313 1.160157,0 1.160157,1.5117188 1.160157,2.5195313 0,0.2929687 -0.01172,0.609375 -0.01172,0.9023437 0,0.2460938 0.01172,0.3046875 0.02344,0.4335938 z m 0,0"
         style="fill:#0000ff;fill-opacity:1;fill-rule:nonzero;stroke:none" />
    </g>
    <g
       id="g34"
       aria-label="v&#10;0&#10;cosα"
       transform="matrix(1.3333333,0,0,1.3333333,139.98267,181.29733)"
       clip-path="url(#clipPath39)">
      <path
         id="path35"
         d="m 5.4622187,-4.4651875 c 0,-0.7617188 -0.375,-0.8085938 -0.4804687,-0.8085938 -0.28125,0 -0.5507813,0.2929688 -0.5507813,0.5273438 0,0.140625 0.09375,0.2226562 0.140625,0.28125 0.1171875,0.1054687 0.421875,0.421875 0.421875,1.0429687 0,0.5039063 -0.7148437,3.30468755 -2.1445312,3.30468755 -0.7265625,0 -0.8789063,-0.609375 -0.8789063,-1.05468755 0,-0.5976562 0.28125,-1.4296875 0.5976563,-2.296875 0.1992187,-0.4921875 0.2460937,-0.609375 0.2460937,-0.84375 0,-0.5039062 -0.3632812,-0.9609375 -0.9492187,-0.9609375 -1.1015625,0 -1.53515625,1.734375 -1.53515625,1.828125 0,0.046875 0.046875,0.1054688 0.12890625,0.1054688 0.10546875,0 0.1171875,-0.046875 0.1640625,-0.2109375 0.29296875,-1.03125 0.75,-1.4765625 1.2070312,-1.4765625 0.1054688,0 0.3164063,0 0.3164063,0.3867187 0,0.3164063 -0.140625,0.65625 -0.3164063,1.1132813 -0.5742187,1.5351562 -0.5742187,1.8984375 -0.5742187,2.1914062 0,0.2578125 0.035156,0.75000005 0.4101562,1.0898438 0.4335938,0.36328125 1.03125,0.36328125 1.1367188,0.36328125 1.9804687,0 2.6601562,-3.90234375 2.6601562,-4.58203125 z m 0,0"
         style="fill:#0000ff;fill-opacity:1;fill-rule:nonzero;stroke:none" />
      <path
         id="path36"
         d="m 9.5637812,-0.75034375 c 0,-0.85546875 -0.09375,-1.37109375 -0.3515625,-1.87500005 C 8.8606562,-3.3284688 8.216125,-3.50425 7.7708125,-3.50425 c -0.9960938,0 -1.3710938,0.75 -1.4765625,0.9726562 C 6.0012812,-1.957375 5.9895625,-1.1605 5.9895625,-0.75034375 5.9895625,-0.223 6.013,0.58559375 6.3997187,1.2184062 6.763,1.8043437 7.3489375,1.9566875 7.7708125,1.9566875 8.1575312,1.9566875 8.8372187,1.8395 9.2356562,1.0543437 9.528625,0.480125 9.5637812,-0.23471875 9.5637812,-0.75034375 Z M 7.7708125,1.7340312 c -0.2695313,0 -0.8203125,-0.1289062 -0.984375,-0.96093745 -0.09375,-0.45703125 -0.09375,-1.20703125 -0.09375,-1.6171875 0,-0.55078125 0,-1.11328125 0.09375,-1.54687505 0.1640625,-0.8085937 0.7851562,-0.890625 0.984375,-0.890625 0.2695312,0 0.8203125,0.1289063 0.984375,0.8554688 0.09375,0.4453125 0.09375,1.0429687 0.09375,1.58203125 0,0.46875 0,1.18359375 -0.09375,1.62890625 -0.1640625,0.84375 -0.7148438,0.9492187 -0.984375,0.9492187 z m 0,0"
         style="fill:#0000ff;fill-opacity:1;fill-rule:nonzero;stroke:none" />
      <path
         id="path37"
         d="m 16.709289,-4.4183125 c -0.140625,0 -0.585937,0 -0.585937,0.4804687 0,0.2929688 0.210937,0.4921875 0.492187,0.4921875 0.28125,0 0.503906,-0.1640625 0.503906,-0.515625 0,-0.796875 -0.832031,-1.3710937 -1.804687,-1.3710937 -1.394531,0 -2.507813,1.2421875 -2.507813,2.7539062 0,1.5234375 1.148438,2.69531255 2.496094,2.69531255 1.582031,0 1.933594,-1.42968755 1.933594,-1.53515625 0,-0.1171875 -0.08203,-0.1171875 -0.117188,-0.1171875 -0.105468,0 -0.117187,0.035156 -0.152343,0.1875 -0.269532,0.84375 -0.914063,1.20703125 -1.558594,1.20703125 -0.726563,0 -1.699219,-0.6328125 -1.699219,-2.44921875 0,-1.9921875 1.019531,-2.4726563 1.617188,-2.4726563 0.457031,0 1.113281,0.1757813 1.382812,0.6445313 z m 6.363281,1.8632812 c 0,-1.546875 -1.171875,-2.7773437 -2.554687,-2.7773437 -1.429688,0 -2.566406,1.265625 -2.566406,2.7773437 0,1.5234375 1.195312,2.67187505 2.554687,2.67187505 1.40625,0 2.566406,-1.17187505 2.566406,-2.67187505 z m -2.554687,2.41406255 c -0.445313,0 -0.984375,-0.19921875 -1.324219,-0.78515625 -0.328125,-0.5273438 -0.339844,-1.2421875 -0.339844,-1.734375 0,-0.4570313 0,-1.1835938 0.375,-1.7226563 0.328125,-0.515625 0.855469,-0.7148437 1.277344,-0.7148437 0.46875,0 0.972656,0.2226562 1.289063,0.6914062 0.375,0.5507813 0.375,1.3007813 0.375,1.7460938 0,0.4101562 0,1.1484375 -0.316407,1.7109375 -0.328125,0.57421875 -0.878906,0.80859375 -1.335937,0.80859375 z M 27.364562,-5.051125 c 0,-0.2226563 0,-0.28125 -0.128906,-0.28125 -0.09375,0 -0.316406,0.2695312 -0.398437,0.375 -0.375,-0.3046875 -0.75,-0.375 -1.125,-0.375 -1.453125,0 -1.875,0.7851562 -1.875,1.4414062 0,0.140625 0,0.5507813 0.445312,0.9726563 0.386719,0.3398437 0.796875,0.421875 1.347656,0.5273437 0.65625,0.1289063 0.808594,0.1640625 1.113282,0.4101563 0.210937,0.1757812 0.363281,0.4335937 0.363281,0.7734375 0,0.515625 -0.292969,1.08984375 -1.347656,1.08984375 -0.785157,0 -1.359375,-0.45703125 -1.628907,-1.65234375 -0.04687,-0.2109375 -0.04687,-0.2226563 -0.05859,-0.234375 -0.02344,-0.046875 -0.07031,-0.046875 -0.105469,-0.046875 -0.128906,0 -0.128906,0.058594 -0.128906,0.2695312 v 1.6289063 c 0,0.2109375 0,0.26953125 0.117187,0.26953125 0.05859,0 0.07031,-0.0117188 0.269531,-0.2578125 0.05859,-0.0820313 0.05859,-0.10546875 0.246094,-0.3046875 0.445313,0.5625 1.101563,0.5625 1.300781,0.5625 1.253907,0 1.875,-0.69140625 1.875,-1.64062505 0,-0.6445312 -0.398437,-1.0195312 -0.503906,-1.125 -0.433594,-0.375 -0.75,-0.4453125 -1.535156,-0.5859375 -0.363281,-0.082031 -1.230469,-0.2460937 -1.230469,-0.9609375 0,-0.375 0.246094,-0.9257812 1.324219,-0.9257812 1.300781,0 1.371094,1.1132812 1.394531,1.4882812 0.01172,0.09375 0.09375,0.09375 0.128906,0.09375 0.140625,0 0.140625,-0.058594 0.140625,-0.2695312 z m 0,0"
         style="fill:#0000ff;fill-opacity:1;fill-rule:nonzero;stroke:none" />
      <path
         id="path38"
         d="m 35.585266,-3.0237813 c 0,-1.1601562 -0.65625,-2.25 -1.921875,-2.25 -1.570313,0 -3.128907,1.7109375 -3.128907,3.4101563 0,1.04296875 0.644532,1.98046875 1.863282,1.98046875 0.738281,0 1.628906,-0.28125 2.472656,-0.99609375 0.164062,0.66796875 0.539062,0.99609375 1.054687,0.99609375 0.644532,0 0.960938,-0.66796875 0.960938,-0.8203125 0,-0.10546875 -0.08203,-0.10546875 -0.117188,-0.10546875 -0.09375,0 -0.105468,0.0351563 -0.140625,0.12890625 -0.105468,0.29296875 -0.386718,0.5625 -0.667968,0.5625 -0.375,0 -0.375,-0.76171875 -0.375,-1.50000005 1.21875,-1.453125 1.511718,-2.9648437 1.511718,-2.9765625 0,-0.1054687 -0.09375,-0.1054687 -0.128906,-0.1054687 -0.117187,0 -0.128906,0.035156 -0.175781,0.2578125 -0.152344,0.515625 -0.457031,1.453125 -1.207031,2.4375 z m -0.75,1.8515625 c -1.054688,0.9492188 -1.992188,1.05468755 -2.414063,1.05468755 -0.84375,0 -1.089844,-0.75 -1.089844,-1.31250005 0,-0.515625 0.269532,-1.734375 0.632813,-2.390625 0.492187,-0.84375 1.160156,-1.2070312 1.699219,-1.2070312 1.160156,0 1.160156,1.5117187 1.160156,2.5195312 0,0.2929688 -0.01172,0.609375 -0.01172,0.9023438 0,0.2460937 0.01172,0.3046875 0.02344,0.4335937 z m 0,0"
         style="fill:#0000ff;fill-opacity:1;fill-rule:nonzero;stroke:none" />
    </g>
    <g
       id="g39"
       aria-label="⃗v&#10;0"
       transform="matrix(1.3333333,0,0,1.3333333,147.64,92.08)"
       clip-path="url(#clipPath42)">
      <path
         id="path40"
         d="m 6.3989063,-7.138125 c -0.1523438,0.1289062 -0.5859375,0.5507812 -0.5859375,0.7148437 0,0.1171875 0.1054687,0.234375 0.2226562,0.234375 0.1054688,0 0.1523438,-0.070312 0.2460938,-0.1992187 0.28125,-0.3515625 0.609375,-0.5859375 0.8789062,-0.7382813 0.1171875,-0.070312 0.1992188,-0.1054687 0.1992188,-0.234375 0,-0.1171875 -0.09375,-0.1757812 -0.1640625,-0.234375 -0.3398438,-0.2226562 -0.421875,-0.5507812 -0.4570313,-0.6914062 -0.035156,-0.09375 -0.070312,-0.234375 -0.234375,-0.234375 -0.070312,0 -0.2109375,0.046875 -0.2109375,0.2226562 0,0.1054688 0.070312,0.3984375 0.2929688,0.7148438 H 2.566875 c -0.1992187,0 -0.3984375,0 -0.3984375,0.234375 0,0.2109375 0.2109375,0.2109375 0.3984375,0.2109375 z M 5.9330859,-4.46625 c 0,-0.7617188 -0.375,-0.8085938 -0.4804687,-0.8085938 -0.28125,0 -0.5507813,0.2929688 -0.5507813,0.5273438 0,0.140625 0.09375,0.2226562 0.140625,0.28125 0.1171875,0.1054687 0.421875,0.421875 0.421875,1.0429687 0,0.5039063 -0.7148437,3.30468755 -2.1445312,3.30468755 -0.7265625,0 -0.8789063,-0.609375 -0.8789063,-1.05468755 0,-0.5976562 0.28125,-1.4296875 0.5976563,-2.296875 0.1992187,-0.4921875 0.2460937,-0.609375 0.2460937,-0.84375 0,-0.5039062 -0.3632812,-0.9609375 -0.9492187,-0.9609375 -1.1015625,0 -1.53515626,1.734375 -1.53515626,1.828125 0,0.046875 0.046875,0.1054688 0.12890625,0.1054688 0.10546871,0 0.11718751,-0.046875 0.16406251,-0.2109375 0.2929687,-1.03125 0.75,-1.4765625 1.2070312,-1.4765625 0.1054688,0 0.3164063,0 0.3164063,0.3867187 0,0.3164063 -0.140625,0.65625 -0.3164063,1.1132813 -0.5742187,1.5351562 -0.5742187,1.8984375 -0.5742187,2.1914062 0,0.2578125 0.035156,0.75000005 0.4101562,1.0898438 0.4335938,0.36328125 1.03125,0.36328125 1.1367188,0.36328125 1.9804687,0 2.6601562,-3.90234375 2.6601562,-4.58203125 z m 0,0"
         style="fill:#0000ff;fill-opacity:1;fill-rule:nonzero;stroke:none" />
      <path
         id="path41"
         d="m 10.037578,-0.74847656 c 0,-0.85546874 -0.09375,-1.37109374 -0.3515624,-1.87500004 -0.3515625,-0.703125 -0.9960937,-0.8789062 -1.4414062,-0.8789062 -0.9960938,0 -1.3710938,0.75 -1.4765625,0.9726562 -0.2929688,0.5742188 -0.3046875,1.3710938 -0.3046875,1.78125004 0,0.52734375 0.023437,1.3359375 0.4101562,1.96874996 0.3632813,0.5859375 0.9492188,0.7382813 1.3710938,0.7382813 0.3867187,0 1.0664062,-0.1171875 1.4648437,-0.9023438 0.2929689,-0.57421871 0.3281249,-1.28906246 0.3281249,-1.80468746 z M 8.2446094,1.7358984 c -0.2695313,0 -0.8203125,-0.1289062 -0.984375,-0.96093746 -0.09375,-0.45703125 -0.09375,-1.20703125 -0.09375,-1.6171875 0,-0.55078124 0,-1.11328124 0.09375,-1.54687504 0.1640625,-0.8085937 0.7851562,-0.890625 0.984375,-0.890625 0.2695312,0 0.8203125,0.1289063 0.984375,0.8554688 0.09375,0.4453125 0.09375,1.0429687 0.09375,1.58203124 0,0.46875 0,1.18359375 -0.09375,1.62890625 C 9.0649219,1.6304297 8.5141406,1.7358984 8.2446094,1.7358984 Z m 0,0"
         style="fill:#0000ff;fill-opacity:1;fill-rule:nonzero;stroke:none" />
    </g>
    <path
       id="path43"
       d="m 5.5300313,-3.0223281 c 0,-1.1601563 -0.65625,-2.25 -1.921875,-2.25 -1.5703125,0 -3.1289063,1.7109375 -3.1289063,3.4101562 0,1.04296877 0.6445313,1.98046877 1.8632813,1.98046877 0.7382812,0 1.6289062,-0.28125 2.4726562,-0.99609375 0.1640625,0.66796875 0.5390625,0.99609375 1.0546875,0.99609375 0.6445313,0 0.9609375,-0.66796875 0.9609375,-0.8203125 0,-0.10546875 -0.082031,-0.10546875 -0.1171875,-0.10546875 -0.09375,0 -0.1054687,0.0351563 -0.140625,0.12890625 -0.1054687,0.29296875 -0.3867187,0.5625 -0.6679687,0.5625 -0.375,0 -0.375,-0.76171875 -0.375,-1.49999997 1.21875,-1.453125 1.5117187,-2.9648438 1.5117187,-2.9765625 0,-0.1054688 -0.09375,-0.1054688 -0.1289062,-0.1054688 -0.1171875,0 -0.1289063,0.035156 -0.1757813,0.2578125 -0.1523437,0.515625 -0.4570312,1.453125 -1.2070312,2.4375 z m -0.75,1.8515625 c -1.0546875,0.94921872 -1.9921875,1.05468747 -2.4140625,1.05468747 -0.84375,0 -1.0898438,-0.75 -1.0898438,-1.31249997 0,-0.515625 0.2695313,-1.734375 0.6328125,-2.390625 0.4921875,-0.84375 1.1601563,-1.2070313 1.6992188,-1.2070313 1.1601562,0 1.1601562,1.5117188 1.1601562,2.5195313 0,0.2929687 -0.011719,0.609375 -0.011719,0.9023437 0,0.2460938 0.011719,0.3046875 0.023438,0.4335938 z m 0,0"
       style="fill:#ff0000;fill-opacity:1;fill-rule:nonzero;stroke:none"
       aria-label="α"
       transform="matrix(1.3333333,0,0,1.3333333,156.236,136.38133)"
       clip-path="url(#clipPath44)" />
    <path
       id="path45"
       d="M 3.1412031,1.3373672 C 2.8247969,1.7943984 2.3560469,2.2045547 1.7701094,2.2045547 c -0.140625,0 -0.7148438,-0.023437 -0.90234377,-0.5742188 0.046875,0.011719 0.10546875,0.011719 0.12890625,0.011719 0.35156252,0 0.59765622,-0.3164063 0.59765622,-0.5859375 0,-0.28125001 -0.234375,-0.37500001 -0.4101562,-0.37500001 -0.18750002,0 -0.60937502,0.140625 -0.60937502,0.72656251 0,0.609375 0.51562502,1.03125 1.19531252,1.03125 1.1953125,0 2.4023437,-1.1015625 2.7421875,-2.42578126 l 1.171875,-4.66406254 c 0.011719,-0.058594 0.035156,-0.1289062 0.035156,-0.1992187 0,-0.1757813 -0.1523437,-0.3046875 -0.328125,-0.3046875 -0.1054687,0 -0.3632812,0.046875 -0.4570312,0.4101562 l -0.8789063,3.515625 c -0.058594,0.2109375 -0.058594,0.23437504 -0.1523437,0.37500004 -0.2460938,0.328125 -0.6445313,0.73828125 -1.2070313,0.73828125 -0.6796875,0 -0.7382812,-0.65625 -0.7382812,-0.98437499 0,-0.6796875 0.328125,-1.6054688 0.6445312,-2.4609375 0.140625,-0.3515625 0.2109375,-0.515625 0.2109375,-0.75 0,-0.5039063 -0.3632812,-0.9609375 -0.9492187,-0.9609375 -1.10156252,0 -1.53515627,1.734375 -1.53515627,1.828125 0,0.046875 0.046875,0.1054687 0.12890625,0.1054687 0.10546875,0 0.1171875,-0.046875 0.1640625,-0.2109375 0.29296875,-1.0078125 0.73828122,-1.4765625 1.20703122,-1.4765625 0.1054688,0 0.3164063,0 0.3164063,0.3867188 0,0.3164062 -0.140625,0.65625 -0.3164063,1.1132812 -0.5859375,1.5703125 -0.5859375,1.9570313 -0.5859375,2.25 0,1.13671879 0.8085938,1.39453129 1.40625,1.39453129 0.3515625,0 0.7851563,-0.10546875 1.1953125,-0.55078125 l 0.011719,0.0117188 c -0.1757813,0.703125 -0.2929688,1.171875 -0.7148438,1.75781226 z m 0,0"
       style="fill:#000000;fill-opacity:1;fill-rule:nonzero;stroke:none"
       aria-label="y"
       transform="matrix(1.3333333,0,0,1.3333333,75.522667,12.752)"
       clip-path="url(#clipPath46)" />
    <path
       id="path47"
       d="m 5.6590859,-4.8737813 c -0.375,0.070312 -0.515625,0.3515625 -0.515625,0.5859375 0,0.28125 0.2226563,0.375 0.3867188,0.375 0.3632812,0 0.609375,-0.3046875 0.609375,-0.6328125 0,-0.4921875 -0.5742188,-0.7265625 -1.078125,-0.7265625 -0.7265625,0 -1.125,0.7148438 -1.2421875,0.9492188 -0.2695313,-0.9023438 -1.0078125,-0.9492188 -1.2304688,-0.9492188 -1.21875,0 -1.86328121,1.5703125 -1.86328121,1.828125 0,0.046875 0.046875,0.1054688 0.12890625,0.1054688 0.10546875,0 0.12890625,-0.070312 0.15234376,-0.1171875 0.3984375,-1.3242188 1.2070312,-1.5703125 1.546875,-1.5703125 0.5390625,0 0.6445312,0.4921875 0.6445312,0.7851562 0,0.2578125 -0.070312,0.5390625 -0.2109375,1.1132813 l -0.4101562,1.6289062 c -0.1757813,0.72656255 -0.5273438,1.38281255 -1.1601563,1.38281255 -0.058594,0 -0.3515625,0 -0.60937496,-0.15234375 0.43359376,-0.09375 0.52734376,-0.4453125 0.52734376,-0.5859375 0,-0.2460938 -0.1757813,-0.3867188 -0.39843751,-0.3867188 -0.29296875,0 -0.59765625,0.2460938 -0.59765625,0.63281255 0,0.50390625 0.5625,0.7265625 1.06640626,0.7265625 0.5742187,0 0.984375,-0.45703125 1.2304687,-0.9375 0.1992188,0.703125 0.796875,0.9375 1.2304688,0.9375 1.2304687,0 1.875,-1.55859375 1.875,-1.82812505 0,-0.058594 -0.046875,-0.1054687 -0.1289063,-0.1054687 -0.1054687,0 -0.1171875,0.058594 -0.1523437,0.1523437 -0.3164063,1.05468755 -1.0195313,1.54687505 -1.546875,1.54687505 -0.421875,0 -0.65625,-0.31640625 -0.65625,-0.80859375 0,-0.2578125 0.058594,-0.4453125 0.2460937,-1.2421875 l 0.421875,-1.6171875 c 0.1757813,-0.7265625 0.5859375,-1.2421875 1.125,-1.2421875 0.035156,0 0.3632813,0 0.609375,0.1523437 z m 0,0"
       style="fill:#000000;fill-opacity:1;fill-rule:nonzero;stroke:none"
       aria-label="x"
       transform="matrix(1.3333333,0,0,1.3333333,661.00533,169.264)"
       clip-path="url(#clipPath48)" />
    <path
       id="path49"
       d="m 5.3556406,-3.8207187 c 0,-0.9960938 -0.058594,-1.96875 -0.4921875,-2.8710938 -0.4921875,-0.9960937 -1.3476562,-1.2539062 -1.9335937,-1.2539062 -0.6914063,0 -1.546875,0.3398437 -1.98046877,1.3359375 -0.33984375,0.75 -0.45703125,1.4882812 -0.45703125,2.7890625 0,1.1601562 0.0820313,2.0273437 0.51562502,2.8710937 0.4570312,0.9140625 1.2890625,1.1953125 1.9101562,1.1953125 1.0429688,0 1.640625,-0.62109375 1.9804688,-1.3125 0.4335937,-0.890625 0.4570312,-2.0625 0.4570312,-2.7539062 z m -2.4375,3.8320312 c -0.3867187,0 -1.1601562,-0.2109375 -1.3828125,-1.5234375 -0.140625,-0.7148437 -0.140625,-1.6171875 -0.140625,-2.4609375 0,-0.9726562 0,-1.8632812 0.1992188,-2.5664062 0.1992187,-0.796875 0.8085937,-1.171875 1.3242187,-1.171875 0.4570313,0 1.1484375,0.28125 1.3710938,1.3007812 0.1523437,0.6796875 0.1523437,1.6289063 0.1523437,2.4375 0,0.8085938 0,1.7109375 -0.1289062,2.4375 -0.2226563,1.32421875 -0.9726563,1.546875 -1.3945313,1.546875 z m 0,0"
       style="fill:#000000;fill-opacity:1;fill-rule:nonzero;stroke:none"
       aria-label="0"
       transform="matrix(1.3333333,0,0,1.3333333,77.601333,169.07867)"
       clip-path="url(#clipPath50)" />
  </g>
</svg>
