<?xml version="1.0" encoding="UTF-8" standalone="no"?>
<!-- Created with Inkscape (http://www.inkscape.org/) -->

<svg
   version="1.1"
   id="svg1"
   width="680.3147"
   height="188.976"
   viewBox="0 0 680.3147 188.976"
   sodipodi:docname="sikmy_vrh_upraveny.svg"
   inkscape:version="1.4.2 (f4327f4, 2025-05-13)"
   xmlns:inkscape="http://www.inkscape.org/namespaces/inkscape"
   xmlns:sodipodi="http://sodipodi.sourceforge.net/DTD/sodipodi-0.dtd"
   xmlns="http://www.w3.org/2000/svg"
   xmlns:svg="http://www.w3.org/2000/svg">
  <defs
     id="defs1">
    <clipPath
       clipPathUnits="userSpaceOnUse"
       id="clipPath5">
      <path
         d="M -14.1734,0 V 134.64885 H 496.06943 V 0 Z"
         id="path5" />
    </clipPath>
    <clipPath
       clipPathUnits="userSpaceOnUse"
       id="clipPath7">
      <path
         d="M 0,0 H 481.89601 V 134.64885 H 0 Z"
         transform="matrix(1.3333333,0,0,-1.3333333,26.7,184.73067)"
         id="path7" />
    </clipPath>
    <clipPath
       clipPathUnits="userSpaceOnUse"
       id="clipPath9">
      <path
         d="M 0,0 H 481.89601 V 134.64885 H 0 Z"
         id="path9" />
    </clipPath>
    <clipPath
       clipPathUnits="userSpaceOnUse"
       id="clipPath11">
      <path
         d="M 0,0 H 481.89601 V 134.64885 H 0 Z"
         id="path11" />
    </clipPath>
    <clipPath
       clipPathUnits="userSpaceOnUse"
       id="clipPath13">
      <path
         d="M 0,0 H 481.89601 V 134.64885 H 0 Z"
         transform="rotate(-90,-30.646394,73.166626)"
         id="path13" />
    </clipPath>
    <clipPath
       clipPathUnits="userSpaceOnUse"
       id="clipPath15">
      <path
         d="M 0,0 H 481.89601 V 134.64885 H 0 Z"
         id="path15" />
    </clipPath>
    <clipPath
       clipPathUnits="userSpaceOnUse"
       id="clipPath17">
      <path
         d="M 0,0 H 481.89601 V 134.64885 H 0 Z"
         transform="translate(-153.41883,-21.260353)"
         id="path17" />
    </clipPath>
    <clipPath
       clipPathUnits="userSpaceOnUse"
       id="clipPath19">
      <path
         d="M 0,0 H 481.89601 V 134.64885 H 0 Z"
         id="path19" />
    </clipPath>
    <clipPath
       clipPathUnits="userSpaceOnUse"
       id="clipPath21">
      <path
         d="M 0,0 H 481.89601 V 134.64885 H 0 Z"
         transform="matrix(0.80001799,-0.60002598,0.60002598,0.80001799,-186.02394,8.5052581)"
         id="path21" />
    </clipPath>
    <clipPath
       clipPathUnits="userSpaceOnUse"
       id="clipPath23">
      <path
         d="M 0,0 H 481.89601 V 134.64885 H 0 Z"
         id="path23" />
    </clipPath>
    <clipPath
       clipPathUnits="userSpaceOnUse"
       id="clipPath25">
      <path
         d="M 0,0 H 481.89601 V 134.64885 H 0 Z"
         id="path25" />
    </clipPath>
    <clipPath
       clipPathUnits="userSpaceOnUse"
       id="clipPath30">
      <path
         d="M 0,0 H 481.89601 V 134.64885 H 0 Z"
         transform="matrix(1,0,0,-1,1.1270003,60.710002)"
         id="path30" />
    </clipPath>
    <clipPath
       clipPathUnits="userSpaceOnUse"
       id="clipPath35">
      <path
         d="M 0,0 H 481.89601 V 134.64885 H 0 Z"
         transform="matrix(1,0,0,-1,-80.71,7.6780027)"
         id="path35" />
    </clipPath>
    <clipPath
       clipPathUnits="userSpaceOnUse"
       id="clipPath38">
      <path
         d="M 0,0 H 481.89601 V 134.64885 H 0 Z"
         transform="matrix(1,0,0,-1,-86.453005,69.488002)"
         id="path38" />
    </clipPath>
    <clipPath
       clipPathUnits="userSpaceOnUse"
       id="clipPath40">
      <path
         d="M 0,0 H 481.89601 V 134.64885 H 0 Z"
         transform="matrix(1,0,0,-1,-92.901002,36.262003)"
         id="path40" />
    </clipPath>
    <clipPath
       clipPathUnits="userSpaceOnUse"
       id="clipPath42">
      <path
         d="M 0,0 H 481.89601 V 134.64885 H 0 Z"
         transform="matrix(1,0,0,-1,-32.365001,128.984)"
         id="path42" />
    </clipPath>
    <clipPath
       clipPathUnits="userSpaceOnUse"
       id="clipPath44">
      <path
         d="M 0,0 H 481.89601 V 134.64885 H 0 Z"
         transform="matrix(1,0,0,-1,-471.47701,11.6)"
         id="path44" />
    </clipPath>
    <clipPath
       clipPathUnits="userSpaceOnUse"
       id="clipPath46">
      <path
         d="M 0,0 H 481.89601 V 134.64885 H 0 Z"
         transform="matrix(1,0,0,-1,-33.924001,11.738998)"
         id="path46" />
    </clipPath>
  </defs>
  <sodipodi:namedview
     id="namedview1"
     pagecolor="#ffffff"
     bordercolor="#000000"
     borderopacity="0.25"
     inkscape:showpageshadow="2"
     inkscape:pageopacity="0.0"
     inkscape:pagecheckerboard="0"
     inkscape:deskcolor="#d1d1d1"
     inkscape:zoom="1.7962276"
     inkscape:cx="114.40644"
     inkscape:cy="94.364436"
     inkscape:window-width="1366"
     inkscape:window-height="705"
     inkscape:window-x="-8"
     inkscape:window-y="-8"
     inkscape:window-maximized="1"
     inkscape:current-layer="g1">
    <inkscape:page
       x="0"
       y="0"
       inkscape:label="1"
       id="page1"
       width="680.3147"
       height="188.976"
       margin="0"
       bleed="0" />
  </sodipodi:namedview>
  <g
     id="g1"
     inkscape:groupmode="layer"
     inkscape:label="1">
    <path
       id="path1"
       d="M 0,21.26035 H 479.90349"
       style="fill:none;stroke:#000000;stroke-width:0.3985;stroke-linecap:round;stroke-linejoin:round;stroke-miterlimit:10;stroke-dasharray:none;stroke-opacity:1"
       transform="matrix(1.3333333,0,0,-1.3333333,26.7,184.73067)" />
    <path
       id="path2"
       d="M 1.99252,0 -1.19551,1.59401 0,0 -1.19551,-1.59401"
       style="fill:#000000;fill-opacity:1;fill-rule:nonzero;stroke:none"
       transform="matrix(1.3333333,0,0,-1.3333333,666.57132,156.38353)" />
    <path
       id="path3"
       d="M 42.52023,0 V 132.65633"
       style="fill:none;stroke:#000000;stroke-width:0.3985;stroke-linecap:round;stroke-linejoin:round;stroke-miterlimit:10;stroke-dasharray:none;stroke-opacity:1"
       transform="matrix(1.3333333,0,0,-1.3333333,26.7,184.73067)" />
    <path
       id="path4"
       d="M 1.99252,0 -1.19551,1.59401 0,0 -1.19551,-1.59401"
       style="fill:#000000;fill-opacity:1;fill-rule:nonzero;stroke:none"
       transform="matrix(0,-1.3333333,-1.3333333,0,83.39364,7.85556)" />
    <g
       id="g6"
       clip-path="url(#clipPath7)">
      <path
         d="m 92.80751,21.26035 -0.02063,1.3477 -0.05278,1.34721 -0.09256,1.34418 -0.12469,1.34219 -0.16295,1.33817 -0.19763,1.33362 -0.23433,1.32811 -0.26904,1.32057 -0.30373,1.313 -0.34043,1.30446 -0.37365,1.29593 -0.40984,1.28483 -0.44155,1.2733 -0.4792,1.26021 -0.5099,1.24764 -0.54567,1.23356 -0.57626,1.21747 -0.60996,1.20238 -0.64167,1.18629 -0.67286,1.1687 -0.70353,1.14907 -0.73519,1.12997 -0.7649,1.11035 -0.79352,1.09024"
         style="fill:none;stroke:#ff0000;stroke-width:1.59404;stroke-linecap:round;stroke-linejoin:round;stroke-miterlimit:10;stroke-dasharray:none;stroke-opacity:1"
         transform="matrix(1.3333333,0,0,-1.3333333,26.7,184.73067)"
         clip-path="url(#clipPath5)"
         id="path6" />
    </g>
    <path
       id="path8"
       d="m 42.52023,21.26035 c 0,0 1.5434,1.15395 2.13622,1.59411 0.5928,0.44016 1.54367,1.14255 2.13647,1.57825 0.59282,0.43569 1.54343,1.13074 2.13622,1.56192 0.59279,0.4312 1.54339,1.11908 2.13623,1.54584 0.59283,0.42674 1.54368,1.10765 2.13652,1.52993 0.59283,0.42228 1.54343,1.09584 2.13621,1.51363 0.59278,0.41779 1.54345,1.08423 2.13622,1.49753 0.59279,0.41331 1.5434,1.07257 2.13621,1.48144 0.59282,0.40886 1.54367,1.06111 2.13649,1.46553 0.59282,0.40442 1.5434,1.04929 2.13622,1.44924 0.59282,0.39995 1.54367,1.03784 2.13647,1.43333 0.59282,0.39548 1.54343,1.02605 2.13622,1.41704 0.59279,0.39098 1.54344,1.01442 2.13623,1.40092 0.59279,0.38653 1.54338,1.00277 2.13622,1.38483 0.59283,0.38208 1.5437,0.99135 2.13653,1.36894 0.59282,0.37761 1.54343,0.97953 2.1362,1.35265 0.59279,0.37311 1.54341,0.96788 2.13623,1.33653 0.59282,0.36867 1.54366,0.95641 2.13648,1.3206 0.59282,0.3642 1.54344,0.94465 2.13623,1.30436 0.59279,0.35969 1.54339,0.93296 2.13621,1.28823 0.59281,0.35528 1.54367,0.9215 2.13648,1.2723 0.59282,0.35081 1.54342,0.90976 2.13621,1.25606 0.59279,0.34629 1.5434,0.89808 2.13623,1.23994 0.59284,0.34186 1.54369,0.88663 2.13652,1.22401 0.59284,0.33741 1.54344,0.87485 2.13623,1.20777 0.59277,0.3329 1.54343,0.86319 2.1362,1.19163 0.59279,0.32843 1.54341,0.85155 2.13623,1.17554 0.59282,0.32398 1.54366,0.84009 2.13648,1.15961 0.59282,0.31952 1.54341,0.82829 2.13623,1.14334 0.59282,0.31505 1.54365,0.8168 2.13647,1.1274 0.59281,0.31059 1.54344,0.80505 2.13622,1.11114 0.59279,0.30609 1.54342,0.79341 2.13621,1.09505 0.59279,0.30163 1.5434,0.78177 2.13623,1.07895 0.59284,0.29718 1.54369,0.77027 2.13652,1.063 0.59284,0.29271 1.54345,0.75853 2.13623,1.04675 0.59278,0.28824 1.5434,0.74687 2.1362,1.03066 0.59282,0.28376 1.54368,0.73536 2.13649,1.01466 0.59282,0.27931 1.54343,0.72365 2.13622,0.99847 0.59279,0.27483 1.54341,0.71199 2.13623,0.98235 0.59282,0.27037 1.54366,0.70047 2.13647,0.96638 0.59281,0.26592 1.54343,0.68873 2.13622,0.95015 0.59279,0.26144 1.54338,0.6771 2.13622,0.93407 0.59283,0.25697 1.5437,0.66557 2.13653,0.91807 0.59284,0.25252 1.54343,0.65385 2.13622,0.90186 0.59278,0.24804 1.54344,0.64221 2.13621,0.88577 0.59279,0.24355 1.54341,0.63054 2.13622,0.86965 0.59282,0.23909 1.54367,0.61902 2.13649,0.85367 0.59282,0.23463 1.54339,0.6073 2.13621,0.83746 0.59282,0.23018 1.54367,0.59575 2.13649,0.82146 0.59281,0.22571 1.54343,0.58404 2.1362,0.80526 0.59279,0.22123 1.54344,0.57241 2.13623,0.78916 0.59279,0.21675 1.54338,0.56076 2.13622,0.77305 0.59283,0.2123 1.5437,0.54926 2.13653,0.75709 0.59284,0.20782 1.54343,0.5375 2.13622,0.74086 0.59277,0.20333 1.54339,0.52587 2.1362,0.72476 0.59282,0.19888 1.54367,0.51434 2.13649,0.70875 0.59282,0.19443 1.54344,0.50263 2.13623,0.69258 0.59279,0.18995 1.54339,0.49099 2.13621,0.67646 0.59282,0.18548 1.54367,0.47943 2.1365,0.66044 0.5928,0.18103 1.54342,0.46773 2.1362,0.64427 0.59278,0.17653 1.54339,0.45607 2.13622,0.62816 0.59284,0.17209 1.54369,0.44455 2.13652,0.61217 0.59284,0.16762 1.54343,0.43283 2.13622,0.59596 0.59279,0.16313 1.54344,0.42121 2.13623,0.57986 0.59277,0.15867 1.54337,0.40957 2.13617,0.56377 0.59282,0.15421 1.54369,0.398 2.13652,0.54776 0.59283,0.14975 1.5434,0.38631 2.13622,0.53157 0.59281,0.14528 1.54367,0.37473 2.13648,0.51552 0.59282,0.14081 1.54343,0.36304 2.13622,0.49938 0.59277,0.13632 1.54344,0.35142 2.13621,0.48329 0.59279,0.13185 1.54339,0.33975 2.13622,0.46716 0.59283,0.12741 1.5437,0.3282 2.13654,0.45115 0.59283,0.12293 1.54342,0.3165 2.13621,0.43498 0.59279,0.11846 1.54341,0.30487 2.13623,0.41886 0.59281,0.11402 1.54364,0.29331 2.13646,0.40284 0.59282,0.10952 1.54344,0.28162 2.13623,0.38667 0.59279,0.10505 1.5434,0.26999 2.13622,0.37057 0.59282,0.10061 1.54367,0.25838 2.13648,0.35453 0.59281,0.09613 1.54343,0.24672 2.1362,0.33838 0.5928,0.09164 1.5434,0.23507 2.13624,0.32227 0.59283,0.0872 1.54368,0.2235 2.13652,0.30624 0.59283,0.08271 1.54344,0.21182 2.13623,0.29008 0.59279,0.07826 1.54342,0.20018 2.13621,0.27397 0.59278,0.07379 1.54337,0.18854 2.13617,0.25786 0.59282,0.06932 1.54369,0.17699 2.13653,0.24184 0.59283,0.06485 1.5434,0.16529 2.13622,0.22567 0.59282,0.06038 1.54366,0.15369 2.13648,0.20963 0.59282,0.05592 1.54344,0.14204 2.13623,0.19348 0.59277,0.05145 1.54342,0.13039 2.1362,0.17737 0.59279,0.047 1.54339,0.11877 2.13623,0.16128 0.59284,0.0425 1.54368,0.10718 2.13652,0.14524 0.59283,0.038 1.54344,0.0955 2.13623,0.12906 0.59279,0.0336 1.54339,0.0839 2.13621,0.11298 0.59281,0.0291 1.54368,0.0723 2.13648,0.0969 0.59282,0.0246 1.54343,0.0606 2.13621,0.0808 0.59279,0.0202 1.54342,0.049 2.13624,0.0647 0.59281,0.0157 1.54365,0.0374 2.13647,0.0486 0.59282,0.0112 1.54344,0.0257 2.13623,0.0325 0.59277,0.007 1.54338,0.0141 2.1362,0.0164 0.59283,0.002 1.5437,0.002 2.13654,2.9e-4 0.59283,-0.002 1.54342,-0.009 2.13621,-0.0158 0.59279,-0.007 1.54344,-0.0208 2.13623,-0.0319 0.59279,-0.0111 1.54335,-0.0325 2.13617,-0.048 0.5928,-0.0156 1.54369,-0.0441 2.13652,-0.0641 0.59284,-0.02 1.5434,-0.0557 2.13622,-0.0802 0.59282,-0.0245 1.54366,-0.0674 2.13649,-0.0963 0.59282,-0.029 1.54342,-0.079 2.13621,-0.11242 0.59277,-0.0334 1.54344,-0.0906 2.13622,-0.1285 0.59279,-0.0379 1.54338,-0.10225 2.13621,-0.1446 0.59283,-0.0424 1.5437,-0.11391 2.13653,-0.16074 0.59284,-0.0468 1.54343,-0.12551 2.13622,-0.17679 0.59279,-0.0513 1.54337,-0.13715 2.13618,-0.1929 0.59281,-0.05577 1.5437,-0.14879 2.13651,-0.20902 0.59284,-0.06022 1.54344,-0.16041 2.13623,-0.22509 0.59279,-0.06469 1.5434,-0.17205 2.13622,-0.24122 0.59282,-0.06916 1.54367,-0.18371 2.13649,-0.25734 0.59282,-0.07362 1.54342,-0.1953 2.13621,-0.27339 0.59278,-0.07809 1.5434,-0.20694 2.13622,-0.2895 0.59283,-0.08257 1.54368,-0.21861 2.13652,-0.30565 0.59283,-0.08704 1.54343,-0.23019 2.13621,-0.32167 0.59279,-0.09149 1.54345,-0.24182 2.13623,-0.3378 0.59279,-0.09596 1.54337,-0.25345 2.13619,-0.35389 0.5928,-0.10044 1.54369,-0.26514 2.1365,-0.37005 0.59284,-0.10492 1.5434,-0.2767 2.13622,-0.38609 0.59282,-0.10938 1.54367,-0.28841 2.13649,-0.40226 0.59282,-0.11384 1.54343,-0.29998 2.13621,-0.41828 0.59279,-0.1183 1.54345,-0.31162 2.13624,-0.43439 0.59277,-0.12277 1.54338,-0.32324 2.1362,-0.45049 0.59283,-0.12724 1.5437,-0.33494 2.13653,-0.46665 0.59284,-0.1317 1.54343,-0.34653 2.13622,-0.48269 0.59278,-0.13617 1.54336,-0.35814 2.13618,-0.49878 0.59282,-0.14065 1.54368,-0.36985 2.13651,-0.51498 0.59283,-0.14514 1.54344,-0.38148 2.13623,-0.53107 0.59278,-0.14958 1.54339,-0.39303 2.13621,-0.54705 0.59282,-0.15402 1.54367,-0.40455 2.13649,-0.56307 0.59282,-0.15852 1.54343,-0.4165 2.13622,-0.5795 0.59279,-0.16299 1.54339,-0.42787 2.13621,-0.5953 0.59284,-0.16744 1.54369,-0.43956 2.13652,-0.6115 0.59284,-0.17194 1.54344,-0.45132 2.13623,-0.62773 0.59279,-0.17641 1.54343,-0.46289 2.13622,-0.64372 0.59279,-0.18085 1.54336,-0.47443 2.13618,-0.65975 0.59282,-0.1853 1.54369,-0.48617 2.13651,-0.67595 0.59283,-0.18979 1.54341,-0.4977 2.13623,-0.69197 0.59282,-0.19426 1.54365,-0.50944 2.13647,-0.70817 0.59282,-0.19875 1.54345,-0.52101 2.13623,-0.72419 0.59279,-0.20317 1.54343,-0.53254 2.13622,-0.74018 0.59277,-0.20765 1.5434,-0.54427 2.13621,-0.75641 0.59284,-0.21215 1.54369,-0.55602 2.13652,-0.77263 0.59284,-0.21662 1.54345,-0.56758 2.13623,-0.78864 0.59279,-0.22105 1.54335,-0.57911 2.13617,-0.80464 0.59282,-0.22552 1.54371,-0.59087 2.13654,-0.82086 0.59282,-0.23 1.54343,-0.60237 2.1362,-0.83685 0.59279,-0.23449 1.54341,-0.61416 2.13623,-0.85309 0.59282,-0.23895 1.54366,-0.6257 2.13647,-0.86908 0.59283,-0.24339 1.54345,-0.63724 2.13623,-0.88509 0.5928,-0.24786 1.54339,-0.64897 2.13622,-0.90132 0.59282,-0.25235 1.54368,-0.6607 2.13652,-0.91753 0.59284,-0.25682 1.54343,-0.67227 2.13622,-0.93353 0.59278,-0.26126 1.54339,-0.68382 2.13618,-0.94955 0.59279,-0.26573 1.54338,-0.69553 2.13622,-0.96575 0.59283,-0.27022 1.5437,-0.70709 2.13653,-0.98178 0.59282,-0.27469 1.5434,-0.71882 2.1362,-0.99797 0.59282,-0.27916 1.54367,-0.73041 2.13649,-1.01399 0.59282,-0.2836 1.54343,-0.74193 2.13622,-1.03 0.59279,-0.28805 1.54344,-0.75365 2.13623,-1.04622 0.59279,-0.29256 1.54338,-0.76542 2.13621,-1.06242 0.59282,-0.29701 1.54369,-0.77675 2.13652,-1.07822 0.59284,-0.30147 1.54343,-0.78869 2.13622,-1.09466 0.59279,-0.30597 1.54336,-0.80025 2.13618,-1.11066 0.59282,-0.31041 1.54369,-0.81177 2.13652,-1.12666 0.59282,-0.3149 1.54344,-0.82354 2.13622,-1.14289 0.59279,-0.31936 1.5434,-0.8351 2.13621,-1.1589 0.59282,-0.32379 1.54367,-0.84662 2.13649,-1.1749 0.59282,-0.32826 1.54343,-0.85837 2.13622,-1.1911 0.59278,-0.33275 1.54339,-0.86992 2.13623,-1.20712 0.59282,-0.33722 1.54368,-0.88164 2.1365,-1.22335 0.59284,-0.3417 1.54343,-0.89337 2.13622,-1.23953 0.59279,-0.34616 1.5434,-0.90475 2.13618,-1.25538 0.59279,-0.35064 1.5434,-0.91669 2.13623,-1.27179 0.59284,-0.35511 1.54369,-0.92803 2.13652,-1.28757 0.59282,-0.35954 1.5434,-0.93973 2.1362,-1.30377 0.59282,-0.36404 1.54368,-0.95153 2.1365,-1.32003 0.59281,-0.36851 1.54342,-0.96304 2.13621,-1.33598 0.59279,-0.37295 1.54344,-0.97459 2.13623,-1.35203 0.59279,-0.37745 1.54338,-0.98635 2.13622,-1.36827 0.59281,-0.38192 1.54371,-0.99808 2.13652,-1.38445 0.59282,-0.38637 1.54339,-1.00948 2.13618,-1.40028 0.59279,-0.39081 1.54338,-1.02115 2.13622,-1.41646 0.59283,-0.39531 1.54368,-1.0329 2.13652,-1.43268 0.59283,-0.39978 1.54344,-1.04443 2.13623,-1.44868 0.59277,-0.40426 1.54339,-1.05619 2.1362,-1.46491 0.59282,-0.40871 1.54367,-1.06778 2.13649,-1.48094 0.59282,-0.41316 1.54342,-1.07927 2.13621,-1.49689 0.59279,-0.41763 1.5434,-1.09105 2.13623,-1.51317 0.59284,-0.4221 1.54369,-1.1026 2.13651,-1.52916 0.59283,-0.42657 1.54344,-1.1143 2.13623,-1.54535 0.59279,-0.43103 1.54338,-1.12583 2.13617,-1.56135 0.59279,-0.43553 1.54339,-1.13762 2.13623,-1.57761 0.59283,-0.43998 2.13652,-1.59363 2.13652,-1.59363"
       style="fill:none;stroke:#ff0000;stroke-width:1.59404;stroke-linecap:round;stroke-linejoin:round;stroke-miterlimit:10;stroke-dasharray:2.98883, 4.98138;stroke-dashoffset:0;stroke-opacity:1"
       transform="matrix(1.3333333,0,0,-1.3333333,26.7,184.73067)"
       clip-path="url(#clipPath9)" />
    <path
       id="path10"
       d="m 42.52023,21.26035 v 82.55267"
       style="fill:none;stroke:#0000ff;stroke-width:1.59404;stroke-linecap:round;stroke-linejoin:round;stroke-miterlimit:10;stroke-dasharray:none;stroke-opacity:1"
       transform="matrix(1.3333333,0,0,-1.3333333,26.7,184.73067)"
       clip-path="url(#clipPath11)" />
    <path
       id="path12"
       d="M -7.80528,3.50345 0.44832,0 -7.80528,-3.50345 Z"
       style="fill:#0000ff;fill-opacity:1;fill-rule:nonzero;stroke:#0000ff;stroke-width:1.59404;stroke-linecap:round;stroke-linejoin:miter;stroke-miterlimit:10;stroke-dasharray:none;stroke-opacity:1"
       transform="matrix(0,-1.3333333,-1.3333333,0,83.39364,46.313307)"
       clip-path="url(#clipPath13)" />
    <path
       id="path14"
       d="M 42.52023,21.26035 H 153.41882"
       style="fill:none;stroke:#0000ff;stroke-width:1.59404;stroke-linecap:round;stroke-linejoin:round;stroke-miterlimit:10;stroke-dasharray:none;stroke-opacity:1"
       transform="matrix(1.3333333,0,0,-1.3333333,26.7,184.73067)"
       clip-path="url(#clipPath15)" />
    <path
       id="path16"
       d="M -7.80528,3.50345 0.44832,0 -7.80528,-3.50345 Z"
       style="fill:#0000ff;fill-opacity:1;fill-rule:nonzero;stroke:#0000ff;stroke-width:1.59404;stroke-linecap:round;stroke-linejoin:miter;stroke-miterlimit:10;stroke-dasharray:none;stroke-opacity:1"
       transform="matrix(1.3333333,0,0,-1.3333333,231.25843,156.38353)"
       clip-path="url(#clipPath17)" />
    <path
       id="path18"
       d="m 42.52023,21.26035 111.39641,83.5482"
       style="fill:none;stroke:#0000ff;stroke-width:1.59404;stroke-linecap:round;stroke-linejoin:round;stroke-miterlimit:10;stroke-dasharray:none;stroke-opacity:1"
       transform="matrix(1.3333333,0,0,-1.3333333,26.7,184.73067)"
       clip-path="url(#clipPath19)" />
    <path
       id="path20"
       d="M -7.80528,3.50345 0.44832,0 -7.80528,-3.50345 Z"
       style="fill:#0000ff;fill-opacity:1;fill-rule:nonzero;stroke:#0000ff;stroke-width:1.59404;stroke-linecap:round;stroke-linejoin:miter;stroke-miterlimit:10;stroke-dasharray:none;stroke-opacity:1"
       transform="matrix(1.0666267,-0.79998667,-0.79998667,-1.0666267,231.92219,44.985933)"
       clip-path="url(#clipPath21)" />
    <path
       id="path22"
       d="m 42.52023,106.30173 h 113.3873"
       style="fill:none;stroke:#0000ff;stroke-width:1.59404;stroke-linecap:round;stroke-linejoin:round;stroke-miterlimit:10;stroke-dasharray:2.98883, 4.98138;stroke-dashoffset:0;stroke-opacity:1"
       transform="matrix(1.3333333,0,0,-1.3333333,26.7,184.73067)"
       clip-path="url(#clipPath23)" />
    <path
       id="path24"
       d="M 155.90753,106.30173 V 21.26035"
       style="fill:none;stroke:#0000ff;stroke-width:1.59404;stroke-linecap:round;stroke-linejoin:round;stroke-miterlimit:10;stroke-dasharray:2.98883, 4.98138;stroke-dashoffset:0;stroke-opacity:1"
       transform="matrix(1.3333333,0,0,-1.3333333,26.7,184.73067)"
       clip-path="url(#clipPath25)" />
    <g
       id="g25"
       aria-label="v&#10;0&#10;sinα"
       transform="matrix(1.3333333,0,0,1.3333333,25.197333,103.784)"
       clip-path="url(#clipPath30)">
      <path
         id="path26"
         d="m 5.4623516,-4.4639766 c 0,-0.7617187 -0.375,-0.8085937 -0.4804688,-0.8085937 -0.28125,0 -0.5507812,0.2929687 -0.5507812,0.5273437 0,0.140625 0.09375,0.2226563 0.140625,0.28125 0.1171875,0.1054688 0.421875,0.421875 0.421875,1.0429688 0,0.5039062 -0.7148438,3.30468749 -2.1445313,3.30468749 -0.7265625,0 -0.8789062,-0.609375 -0.8789062,-1.05468749 0,-0.5976563 0.28125,-1.4296875 0.5976562,-2.296875 0.1992188,-0.4921875 0.2460938,-0.609375 0.2460938,-0.84375 0,-0.5039063 -0.3632813,-0.9609375 -0.9492188,-0.9609375 -1.10156249,0 -1.53515624,1.734375 -1.53515624,1.828125 0,0.046875 0.046875,0.1054687 0.12890625,0.1054687 0.10546875,0 0.1171875,-0.046875 0.1640625,-0.2109375 0.29296875,-1.03125 0.74999999,-1.4765625 1.20703129,-1.4765625 0.1054687,0 0.3164062,0 0.3164062,0.3867188 0,0.3164062 -0.140625,0.65625 -0.3164062,1.1132812 -0.5742188,1.5351563 -0.5742188,1.8984375 -0.5742188,2.1914063 0,0.2578125 0.035156,0.74999999 0.4101563,1.08984374 0.4335937,0.36328125 1.03125,0.36328125 1.1367187,0.36328125 1.9804688,0 2.6601563,-3.90234379 2.6601563,-4.58203129 z m 0,0"
         style="fill:#0000ff;fill-opacity:1;fill-rule:nonzero;stroke:none" />
      <path
         id="path27"
         d="m 9.5609844,-0.74913281 c 0,-0.85546879 -0.09375,-1.37109379 -0.3515625,-1.87499999 -0.3515625,-0.703125 -0.9960938,-0.8789063 -1.4414063,-0.8789063 -0.9960937,0 -1.3710937,0.75 -1.4765625,0.9726563 -0.2929687,0.5742187 -0.3046875,1.3710937 -0.3046875,1.78124999 0,0.52734375 0.023437,1.3359375 0.4101563,1.96875001 0.3632812,0.5859375 0.9492187,0.7382812 1.3710937,0.7382812 0.3867188,0 1.0664063,-0.1171875 1.4648438,-0.9023437 0.2929687,-0.57421876 0.328125,-1.28906251 0.328125,-1.80468751 z M 7.7680156,1.7352422 c -0.2695312,0 -0.8203125,-0.1289063 -0.984375,-0.96093751 -0.09375,-0.45703125 -0.09375,-1.20703125 -0.09375,-1.6171875 0,-0.55078129 0,-1.11328129 0.09375,-1.54687499 0.1640625,-0.8085938 0.7851563,-0.890625 0.984375,-0.890625 0.2695313,0 0.8203125,0.1289062 0.984375,0.8554687 0.09375,0.4453125 0.09375,1.0429688 0.09375,1.58203129 0,0.46875 0,1.18359375 -0.09375,1.62890625 C 8.5883281,1.6297734 8.0375469,1.7352422 7.7680156,1.7352422 Z m 0,0"
         style="fill:#0000ff;fill-opacity:1;fill-rule:nonzero;stroke:none" />
      <path
         id="path28"
         d="m 16.310984,-5.0499141 c 0,-0.2226562 0,-0.28125 -0.128906,-0.28125 -0.09375,0 -0.316406,0.2695313 -0.398437,0.375 -0.375,-0.3046875 -0.75,-0.375 -1.125,-0.375 -1.453125,0 -1.875,0.7851563 -1.875,1.4414063 0,0.140625 0,0.5507812 0.445312,0.9726562 0.386719,0.3398438 0.796875,0.421875 1.347656,0.5273438 0.65625,0.1289062 0.808594,0.1640625 1.113282,0.4101562 0.210937,0.1757813 0.363281,0.4335938 0.363281,0.7734375 0,0.51562504 -0.292969,1.08984379 -1.347656,1.08984379 -0.785157,0 -1.359375,-0.45703125 -1.628907,-1.65234379 -0.04687,-0.2109375 -0.04687,-0.2226562 -0.05859,-0.234375 -0.02344,-0.046875 -0.07031,-0.046875 -0.105469,-0.046875 -0.128906,0 -0.128906,0.058594 -0.128906,0.2695313 v 1.62890624 c 0,0.2109375 0,0.26953125 0.117187,0.26953125 0.05859,0 0.07031,-0.0117188 0.269531,-0.2578125 0.05859,-0.0820313 0.05859,-0.10546875 0.246094,-0.3046875 0.445313,0.5625 1.101563,0.5625 1.300781,0.5625 1.253907,0 1.875,-0.69140625 1.875,-1.64062499 0,-0.6445313 -0.398437,-1.0195313 -0.503906,-1.125 -0.433594,-0.375 -0.75,-0.4453125 -1.535156,-0.5859375 -0.363281,-0.082031 -1.230469,-0.2460938 -1.230469,-0.9609375 0,-0.375 0.246094,-0.9257813 1.324219,-0.9257813 1.300781,0 1.371094,1.1132813 1.394531,1.4882813 0.01172,0.09375 0.09375,0.09375 0.128906,0.09375 0.140625,0 0.140625,-0.058594 0.140625,-0.2695313 z m 2.765625,-2.3085937 c 0,-0.3164063 -0.246093,-0.5859375 -0.574218,-0.5859375 -0.316407,0 -0.574219,0.2460937 -0.574219,0.5742187 0,0.3515625 0.28125,0.5859375 0.574219,0.5859375 0.363281,0 0.574218,-0.3164062 0.574218,-0.5742187 z m -1.640625,2.2148437 v 0.3515625 c 0.761719,0 0.867188,0.070312 0.867188,0.65625 v 3.25781254 c 0,0.52734375 -0.128906,0.52734375 -0.902344,0.52734375 V 8.671875e-4 C 17.728953,-0.02257031 18.303172,-0.02257031 18.654734,-0.02257031 c 0.128907,0 0.820313,0 1.230469,0.0234374975 V -0.35069531 c -0.773437,0 -0.832031,-0.0585938 -0.832031,-0.515625 V -5.2725703 Z m 8.138672,2.2382813 c 0,-1.1132813 0,-1.4414063 -0.28125,-1.828125 -0.339843,-0.46875 -0.902343,-0.5390625 -1.3125,-0.5390625 -1.160156,0 -1.605468,0.9960937 -1.710937,1.2304687 h -0.01172 v -1.2304687 l -1.617187,0.1289062 v 0.3515625 c 0.808593,0 0.902343,0.082031 0.902343,0.6679688 v 3.24609374 c 0,0.52734375 -0.128906,0.52734375 -0.902343,0.52734375 V 8.671875e-4 C 20.94575,-0.02257031 21.590281,-0.02257031 21.930125,-0.02257031 c 0.339844,0 0.984375,0 1.300781,0.0234374975 V -0.35069531 c -0.761718,0 -0.914062,0 -0.914062,-0.52734375 V -3.1046016 c 0,-1.2539062 0.832031,-1.921875 1.570312,-1.921875 0.738282,0 0.914063,0.609375 0.914063,1.3359375 v 2.81250004 c 0,0.52734375 -0.140625,0.52734375 -0.914063,0.52734375 V 8.671875e-4 C 24.203563,-0.02257031 24.848094,-0.02257031 25.176219,-0.02257031 c 0.351562,0 0.996094,0 1.300781,0.0234374975 V -0.35069531 c -0.597656,0 -0.890625,0 -0.902344,-0.3515625 z m 0,0"
         style="fill:#0000ff;fill-opacity:1;fill-rule:nonzero;stroke:none" />
      <path
         id="path29"
         d="m 34.284617,-3.0225703 c 0,-1.1601563 -0.65625,-2.25 -1.921875,-2.25 -1.570312,0 -3.128906,1.7109375 -3.128906,3.4101562 0,1.04296879 0.644531,1.98046879 1.863281,1.98046879 0.738281,0 1.628906,-0.28125 2.472656,-0.99609375 0.164063,0.66796875 0.539063,0.99609375 1.054688,0.99609375 0.644531,0 0.960937,-0.66796875 0.960937,-0.8203125 0,-0.10546875 -0.08203,-0.10546875 -0.117187,-0.10546875 -0.09375,0 -0.105469,0.0351563 -0.140625,0.12890625 -0.105469,0.29296875 -0.386719,0.5625 -0.667969,0.5625 -0.375,0 -0.375,-0.76171875 -0.375,-1.49999999 1.21875,-1.453125 1.511719,-2.9648438 1.511719,-2.9765625 0,-0.1054688 -0.09375,-0.1054688 -0.128906,-0.1054688 -0.117188,0 -0.128907,0.035156 -0.175782,0.2578125 -0.152343,0.515625 -0.457031,1.453125 -1.207031,2.4375 z m -0.75,1.8515625 c -1.054687,0.94921874 -1.992187,1.05468749 -2.414062,1.05468749 -0.84375,0 -1.089844,-0.75 -1.089844,-1.31249999 0,-0.515625 0.269531,-1.734375 0.632812,-2.390625 0.492188,-0.84375 1.160157,-1.2070313 1.699219,-1.2070313 1.160156,0 1.160156,1.5117188 1.160156,2.5195313 0,0.2929687 -0.01172,0.609375 -0.01172,0.9023437 0,0.2460938 0.01172,0.3046875 0.02344,0.4335938 z m 0,0"
         style="fill:#0000ff;fill-opacity:1;fill-rule:nonzero;stroke:none" />
    </g>
    <g
       id="g30"
       aria-label="v&#10;0&#10;cosα"
       transform="matrix(1.3333333,0,0,1.3333333,134.31333,174.49333)"
       clip-path="url(#clipPath35)">
      <path
         id="path31"
         d="m 5.4603125,-4.4657031 c 0,-0.7617188 -0.375,-0.8085938 -0.4804687,-0.8085938 -0.28125,0 -0.5507813,0.2929688 -0.5507813,0.5273438 0,0.140625 0.09375,0.2226562 0.140625,0.28125 0.1171875,0.1054687 0.421875,0.421875 0.421875,1.0429687 0,0.5039063 -0.7148437,3.30468752 -2.1445312,3.30468752 -0.7265625,0 -0.8789063,-0.609375 -0.8789063,-1.05468752 0,-0.5976562 0.28125,-1.4296875 0.5976563,-2.296875 0.1992187,-0.4921875 0.2460937,-0.609375 0.2460937,-0.84375 0,-0.5039062 -0.3632812,-0.9609375 -0.9492187,-0.9609375 -1.10156255,0 -1.5351563,1.734375 -1.5351563,1.828125 0,0.046875 0.046875,0.1054688 0.12890625,0.1054688 0.10546875,0 0.1171875,-0.046875 0.1640625,-0.2109375 0.29296875,-1.03125 0.75000005,-1.4765625 1.20703125,-1.4765625 0.1054688,0 0.3164063,0 0.3164063,0.3867187 0,0.3164063 -0.140625,0.65625 -0.3164063,1.1132813 -0.5742187,1.5351562 -0.5742187,1.8984375 -0.5742187,2.1914062 0,0.2578125 0.035156,0.75000002 0.4101562,1.08984377 0.4335938,0.36328125 1.03125,0.36328125 1.1367188,0.36328125 1.9804687,0 2.6601562,-3.90234372 2.6601562,-4.58203122 z m 0,0"
         style="fill:#0000ff;fill-opacity:1;fill-rule:nonzero;stroke:none" />
      <path
         id="path32"
         d="m 9.561875,-0.75085938 c 0,-0.85546872 -0.09375,-1.37109372 -0.3515625,-1.87500002 -0.3515625,-0.703125 -0.9960937,-0.8789062 -1.4414062,-0.8789062 -0.9960938,0 -1.3710938,0.75 -1.4765625,0.9726562 -0.2929688,0.5742188 -0.3046875,1.3710938 -0.3046875,1.78125002 0,0.52734375 0.023437,1.3359375 0.4101562,1.96874998 0.3632813,0.5859375 0.9492188,0.7382813 1.3710938,0.7382813 0.3867187,0 1.0664062,-0.1171875 1.4648437,-0.9023438 0.2929688,-0.57421873 0.328125,-1.28906248 0.328125,-1.80468748 z M 7.7689063,1.7335156 c -0.2695313,0 -0.8203125,-0.1289062 -0.984375,-0.96093748 -0.09375,-0.45703125 -0.09375,-1.20703125 -0.09375,-1.6171875 0,-0.55078122 0,-1.11328122 0.09375,-1.54687502 0.1640625,-0.8085937 0.7851562,-0.890625 0.984375,-0.890625 0.2695312,0 0.8203125,0.1289063 0.984375,0.8554688 0.09375,0.4453125 0.09375,1.0429687 0.09375,1.58203122 0,0.46875 0,1.18359375 -0.09375,1.62890625 C 8.5892188,1.6280469 8.0384375,1.7335156 7.7689063,1.7335156 Z m 0,0"
         style="fill:#0000ff;fill-opacity:1;fill-rule:nonzero;stroke:none" />
      <path
         id="path33"
         d="m 16.707383,-4.4188281 c -0.140625,0 -0.585938,0 -0.585938,0.4804687 0,0.2929688 0.210938,0.4921875 0.492188,0.4921875 0.28125,0 0.503906,-0.1640625 0.503906,-0.515625 0,-0.796875 -0.832031,-1.3710937 -1.804687,-1.3710937 -1.394532,0 -2.507813,1.2421875 -2.507813,2.7539062 0,1.5234375 1.148438,2.69531252 2.496094,2.69531252 1.582031,0 1.933594,-1.42968752 1.933594,-1.53515622 0,-0.1171875 -0.08203,-0.1171875 -0.117188,-0.1171875 -0.105469,0 -0.117187,0.035156 -0.152344,0.1875 -0.269531,0.84374997 -0.914062,1.20703122 -1.558593,1.20703122 -0.726563,0 -1.699219,-0.6328125 -1.699219,-2.44921872 0,-1.9921875 1.019531,-2.4726563 1.617187,-2.4726563 0.457032,0 1.113282,0.1757813 1.382813,0.6445313 z m 6.363281,1.8632812 c 0,-1.546875 -1.171875,-2.7773437 -2.554687,-2.7773437 -1.429688,0 -2.566407,1.265625 -2.566407,2.7773437 0,1.5234375 1.195313,2.67187502 2.554688,2.67187502 1.40625,0 2.566406,-1.17187502 2.566406,-2.67187502 z m -2.554687,2.41406252 c -0.445313,0 -0.984375,-0.19921875 -1.324219,-0.78515625 -0.328125,-0.52734377 -0.339844,-1.24218747 -0.339844,-1.73437497 0,-0.4570313 0,-1.1835938 0.375,-1.7226563 0.328125,-0.515625 0.855469,-0.7148437 1.277344,-0.7148437 0.46875,0 0.972656,0.2226562 1.289062,0.6914062 0.375,0.5507813 0.375,1.3007813 0.375,1.7460938 0,0.4101562 0,1.1484375 -0.316406,1.71093747 -0.328125,0.57421875 -0.878906,0.80859375 -1.335937,0.80859375 z m 6.849609,-4.91015622 c 0,-0.2226563 0,-0.28125 -0.128906,-0.28125 -0.09375,0 -0.316407,0.2695312 -0.398438,0.375 -0.375,-0.3046875 -0.75,-0.375 -1.125,-0.375 -1.453125,0 -1.875,0.7851562 -1.875,1.4414062 0,0.140625 0,0.5507813 0.445313,0.9726563 0.386718,0.3398437 0.796875,0.421875 1.347656,0.5273437 0.65625,0.1289063 0.808594,0.1640625 1.113281,0.4101563 0.210938,0.1757812 0.363281,0.4335937 0.363281,0.7734375 0,0.51562497 -0.292968,1.08984372 -1.347656,1.08984372 -0.785156,0 -1.359375,-0.45703125 -1.628906,-1.65234372 -0.04687,-0.2109375 -0.04687,-0.2226563 -0.05859,-0.234375 -0.02344,-0.046875 -0.07031,-0.046875 -0.105469,-0.046875 -0.128906,0 -0.128906,0.058594 -0.128906,0.2695312 v 1.62890627 c 0,0.2109375 0,0.26953125 0.117188,0.26953125 0.05859,0 0.07031,-0.0117188 0.269531,-0.2578125 0.05859,-0.0820313 0.05859,-0.10546875 0.246094,-0.3046875 0.445312,0.5625 1.101562,0.5625 1.300781,0.5625 1.253906,0 1.875,-0.69140625 1.875,-1.64062502 0,-0.6445312 -0.398438,-1.0195312 -0.503906,-1.125 -0.433594,-0.375 -0.75,-0.4453125 -1.535157,-0.5859375 -0.363281,-0.082031 -1.230468,-0.2460937 -1.230468,-0.9609375 0,-0.375 0.246093,-0.9257812 1.324218,-0.9257812 1.300782,0 1.371094,1.1132812 1.394532,1.4882812 0.01172,0.09375 0.09375,0.09375 0.128906,0.09375 0.140625,0 0.140625,-0.058594 0.140625,-0.2695312 z m 0,0"
         style="fill:#0000ff;fill-opacity:1;fill-rule:nonzero;stroke:none" />
      <path
         id="path34"
         d="m 35.586289,-3.0242969 c 0,-1.1601562 -0.65625,-2.25 -1.921875,-2.25 -1.570312,0 -3.128906,1.7109375 -3.128906,3.4101563 0,1.04296872 0.644531,1.98046872 1.863281,1.98046872 0.738281,0 1.628906,-0.28125 2.472656,-0.99609375 0.164063,0.66796875 0.539063,0.99609375 1.054688,0.99609375 0.644531,0 0.960937,-0.66796875 0.960937,-0.8203125 0,-0.10546875 -0.08203,-0.10546875 -0.117187,-0.10546875 -0.09375,0 -0.105469,0.0351563 -0.140625,0.12890625 -0.105469,0.29296875 -0.386719,0.5625 -0.667969,0.5625 -0.375,0 -0.375,-0.76171875 -0.375,-1.50000002 1.21875,-1.453125 1.511719,-2.9648437 1.511719,-2.9765625 0,-0.1054687 -0.09375,-0.1054687 -0.128906,-0.1054687 -0.117188,0 -0.128907,0.035156 -0.175782,0.2578125 -0.152343,0.515625 -0.457031,1.453125 -1.207031,2.4375 z m -0.75,1.8515625 c -1.054687,0.94921877 -1.992187,1.05468752 -2.414062,1.05468752 -0.84375,0 -1.089844,-0.75 -1.089844,-1.31250002 0,-0.515625 0.269531,-1.734375 0.632812,-2.390625 0.492188,-0.84375 1.160157,-1.2070312 1.699219,-1.2070312 1.160156,0 1.160156,1.5117187 1.160156,2.5195312 0,0.2929688 -0.01172,0.609375 -0.01172,0.9023438 0,0.2460937 0.01172,0.3046875 0.02344,0.4335937 z m 0,0"
         style="fill:#0000ff;fill-opacity:1;fill-rule:nonzero;stroke:none" />
    </g>
    <g
       id="g35"
       aria-label="⃗v&#10;0"
       transform="matrix(1.3333333,0,0,1.3333333,141.97067,92.08)"
       clip-path="url(#clipPath38)">
      <path
         id="path36"
         d="m 6.397,-7.138125 c -0.1523437,0.1289062 -0.5859375,0.5507812 -0.5859375,0.7148437 0,0.1171875 0.1054688,0.234375 0.2226563,0.234375 0.1054687,0 0.1523437,-0.070312 0.2460937,-0.1992187 0.28125,-0.3515625 0.609375,-0.5859375 0.8789063,-0.7382813 0.1171875,-0.070312 0.1992187,-0.1054687 0.1992187,-0.234375 0,-0.1171875 -0.09375,-0.1757812 -0.1640625,-0.234375 C 6.8540313,-7.8178125 6.772,-8.1459375 6.7368438,-8.2865625 c -0.035156,-0.09375 -0.070312,-0.234375 -0.234375,-0.234375 -0.070312,0 -0.2109375,0.046875 -0.2109375,0.2226562 0,0.1054688 0.070312,0.3984375 0.2929687,0.7148438 H 2.5649688 c -0.1992188,0 -0.3984375,0 -0.3984375,0.234375 0,0.2109375 0.2109375,0.2109375 0.3984375,0.2109375 z M 5.9341094,-4.46625 c 0,-0.7617188 -0.375,-0.8085938 -0.4804688,-0.8085938 -0.28125,0 -0.5507812,0.2929688 -0.5507812,0.5273438 0,0.140625 0.09375,0.2226562 0.140625,0.28125 0.1171875,0.1054687 0.421875,0.421875 0.421875,1.0429687 0,0.5039063 -0.7148438,3.30468755 -2.1445313,3.30468755 -0.7265625,0 -0.8789062,-0.609375 -0.8789062,-1.05468755 0,-0.5976562 0.28125,-1.4296875 0.5976562,-2.296875 0.1992188,-0.4921875 0.2460938,-0.609375 0.2460938,-0.84375 0,-0.5039062 -0.3632813,-0.9609375 -0.9492188,-0.9609375 -1.1015625,0 -1.53515622,1.734375 -1.53515622,1.828125 0,0.046875 0.046875,0.1054688 0.12890625,0.1054688 0.10546877,0 0.11718747,-0.046875 0.16406247,-0.2109375 0.2929688,-1.03125 0.75,-1.4765625 1.2070313,-1.4765625 0.1054687,0 0.3164062,0 0.3164062,0.3867187 0,0.3164063 -0.140625,0.65625 -0.3164062,1.1132813 -0.5742188,1.5351562 -0.5742188,1.8984375 -0.5742188,2.1914062 0,0.2578125 0.035156,0.75000005 0.4101563,1.0898438 0.4335937,0.36328125 1.03125,0.36328125 1.1367187,0.36328125 1.9804688,0 2.6601563,-3.90234375 2.6601563,-4.58203125 z m 0,0"
         style="fill:#0000ff;fill-opacity:1;fill-rule:nonzero;stroke:none" />
      <path
         id="path37"
         d="m 10.038602,-0.74847656 c 0,-0.85546874 -0.09375,-1.37109374 -0.3515629,-1.87500004 -0.3515625,-0.703125 -0.9960938,-0.8789062 -1.4414063,-0.8789062 -0.9960937,0 -1.3710937,0.75 -1.4765625,0.9726562 -0.2929687,0.5742188 -0.3046875,1.3710938 -0.3046875,1.78125004 0,0.52734375 0.023437,1.3359375 0.4101563,1.96874996 0.3632812,0.5859375 0.9492187,0.7382813 1.3710937,0.7382813 0.3867188,0 1.0664063,-0.1171875 1.4648438,-0.9023438 0.2929684,-0.57421871 0.3281254,-1.28906246 0.3281254,-1.80468746 z M 8.2456328,1.7358984 c -0.2695312,0 -0.8203125,-0.1289062 -0.984375,-0.96093746 -0.09375,-0.45703125 -0.09375,-1.20703125 -0.09375,-1.6171875 0,-0.55078124 0,-1.11328124 0.09375,-1.54687504 0.1640625,-0.8085937 0.7851563,-0.890625 0.984375,-0.890625 0.2695313,0 0.8203125,0.1289063 0.984375,0.8554688 0.09375,0.4453125 0.09375,1.0429687 0.09375,1.58203124 0,0.46875 0,1.18359375 -0.09375,1.62890625 C 9.0659453,1.6304297 8.5151641,1.7358984 8.2456328,1.7358984 Z m 0,0"
         style="fill:#0000ff;fill-opacity:1;fill-rule:nonzero;stroke:none" />
    </g>
    <path
       id="path39"
       d="m 5.5300547,-3.0223281 c 0,-1.1601563 -0.65625,-2.25 -1.921875,-2.25 -1.5703125,0 -3.12890626,1.7109375 -3.12890626,3.4101562 0,1.04296877 0.64453126,1.98046877 1.86328126,1.98046877 0.7382812,0 1.6289062,-0.28125 2.4726562,-0.99609375 0.1640625,0.66796875 0.5390625,0.99609375 1.0546875,0.99609375 0.6445313,0 0.9609375,-0.66796875 0.9609375,-0.8203125 0,-0.10546875 -0.082031,-0.10546875 -0.1171875,-0.10546875 -0.09375,0 -0.1054687,0.0351563 -0.140625,0.12890625 -0.1054687,0.29296875 -0.3867187,0.5625 -0.6679687,0.5625 -0.375,0 -0.375,-0.76171875 -0.375,-1.49999997 1.21875,-1.453125 1.5117187,-2.9648438 1.5117187,-2.9765625 0,-0.1054688 -0.09375,-0.1054688 -0.1289062,-0.1054688 -0.1171875,0 -0.1289063,0.035156 -0.1757813,0.2578125 -0.1523437,0.515625 -0.4570312,1.453125 -1.2070312,2.4375 z m -0.75,1.8515625 c -1.0546875,0.94921872 -1.9921875,1.05468747 -2.4140625,1.05468747 -0.84375,0 -1.0898438,-0.75 -1.0898438,-1.31249997 0,-0.515625 0.2695313,-1.734375 0.6328125,-2.390625 0.4921875,-0.84375 1.1601563,-1.2070313 1.6992188,-1.2070313 1.1601562,0 1.1601562,1.5117188 1.1601562,2.5195313 0,0.2929687 -0.011719,0.609375 -0.011719,0.9023437 0,0.2460938 0.011719,0.3046875 0.023438,0.4335938 z m 0,0"
       style="fill:#ff0000;fill-opacity:1;fill-rule:nonzero;stroke:none"
       aria-label="α"
       transform="matrix(1.3333333,0,0,1.3333333,150.568,136.38133)"
       clip-path="url(#clipPath40)" />
    <path
       id="path41"
       d="M 3.1392969,1.3373672 C 2.8228906,1.7943984 2.3541406,2.2045547 1.7682031,2.2045547 c -0.140625,0 -0.7148437,-0.023437 -0.90234372,-0.5742188 0.046875,0.011719 0.10546875,0.011719 0.12890625,0.011719 0.35156247,0 0.59765627,-0.3164063 0.59765627,-0.5859375 0,-0.28125001 -0.234375,-0.37500001 -0.4101563,-0.37500001 -0.18749997,0 -0.60937497,0.140625 -0.60937497,0.72656251 0,0.609375 0.51562497,1.03125 1.19531247,1.03125 1.1953125,0 2.4023438,-1.1015625 2.7421875,-2.42578126 l 1.171875,-4.66406254 c 0.011719,-0.058594 0.035156,-0.1289062 0.035156,-0.1992187 0,-0.1757813 -0.1523438,-0.3046875 -0.328125,-0.3046875 -0.1054688,0 -0.3632813,0.046875 -0.4570313,0.4101562 l -0.8789062,3.515625 c -0.058594,0.2109375 -0.058594,0.23437504 -0.1523438,0.37500004 -0.2460937,0.328125 -0.6445312,0.73828125 -1.2070312,0.73828125 -0.6796875,0 -0.7382813,-0.65625 -0.7382813,-0.98437499 0,-0.6796875 0.328125,-1.6054688 0.6445313,-2.4609375 0.140625,-0.3515625 0.2109375,-0.515625 0.2109375,-0.75 0,-0.5039063 -0.3632813,-0.9609375 -0.9492188,-0.9609375 -1.10156247,0 -1.53515622,1.734375 -1.53515622,1.828125 0,0.046875 0.046875,0.1054687 0.12890625,0.1054687 0.10546875,0 0.1171875,-0.046875 0.1640625,-0.2109375 0.29296875,-1.0078125 0.73828127,-1.4765625 1.20703127,-1.4765625 0.1054687,0 0.3164062,0 0.3164062,0.3867188 0,0.3164062 -0.140625,0.65625 -0.3164062,1.1132812 -0.5859375,1.5703125 -0.5859375,1.9570313 -0.5859375,2.25 0,1.13671879 0.8085937,1.39453129 1.40625,1.39453129 0.3515625,0 0.7851562,-0.10546875 1.1953125,-0.55078125 l 0.011719,0.0117188 c -0.1757812,0.703125 -0.2929687,1.171875 -0.7148437,1.75781226 z m 0,0"
       style="fill:#000000;fill-opacity:1;fill-rule:nonzero;stroke:none"
       aria-label="y"
       transform="matrix(1.3333333,0,0,1.3333333,69.853333,12.752)"
       clip-path="url(#clipPath42)" />
    <path
       id="path43"
       d="m 5.6601094,-4.8737813 c -0.375,0.070312 -0.515625,0.3515625 -0.515625,0.5859375 0,0.28125 0.2226562,0.375 0.3867187,0.375 0.3632813,0 0.609375,-0.3046875 0.609375,-0.6328125 0,-0.4921875 -0.5742187,-0.7265625 -1.078125,-0.7265625 -0.7265625,0 -1.125,0.7148438 -1.2421875,0.9492188 -0.2695312,-0.9023438 -1.0078125,-0.9492188 -1.2304687,-0.9492188 -1.21875,0 -1.86328128,1.5703125 -1.86328128,1.828125 0,0.046875 0.046875,0.1054688 0.12890625,0.1054688 0.10546875,0 0.12890625,-0.070312 0.15234373,-0.1171875 0.3984375,-1.3242188 1.2070313,-1.5703125 1.546875,-1.5703125 0.5390625,0 0.6445313,0.4921875 0.6445313,0.7851562 0,0.2578125 -0.070312,0.5390625 -0.2109375,1.1132813 l -0.4101563,1.6289062 c -0.1757812,0.72656255 -0.5273437,1.38281255 -1.1601562,1.38281255 -0.058594,0 -0.3515625,0 -0.60937503,-0.15234375 0.43359373,-0.09375 0.52734373,-0.4453125 0.52734373,-0.5859375 0,-0.2460938 -0.1757812,-0.3867188 -0.39843748,-0.3867188 -0.29296875,0 -0.59765625,0.2460938 -0.59765625,0.63281255 0,0.50390625 0.5625,0.7265625 1.06640623,0.7265625 0.5742188,0 0.984375,-0.45703125 1.2304688,-0.9375 0.1992187,0.703125 0.796875,0.9375 1.2304687,0.9375 1.2304688,0 1.875,-1.55859375 1.875,-1.82812505 0,-0.058594 -0.046875,-0.1054687 -0.1289062,-0.1054687 -0.1054688,0 -0.1171875,0.058594 -0.1523438,0.1523437 -0.3164062,1.05468755 -1.0195312,1.54687505 -1.546875,1.54687505 -0.421875,0 -0.65625,-0.31640625 -0.65625,-0.80859375 0,-0.2578125 0.058594,-0.4453125 0.2460938,-1.2421875 l 0.421875,-1.6171875 c 0.1757812,-0.7265625 0.5859375,-1.2421875 1.125,-1.2421875 0.035156,0 0.3632812,0 0.609375,0.1523437 z m 0,0"
       style="fill:#000000;fill-opacity:1;fill-rule:nonzero;stroke:none"
       aria-label="x"
       transform="matrix(1.3333333,0,0,1.3333333,655.336,169.264)"
       clip-path="url(#clipPath44)" />
    <path
       id="path45"
       d="m 5.3566641,-3.8207188 c 0,-0.9960937 -0.058594,-1.96875 -0.4921875,-2.8710937 -0.4921875,-0.9960938 -1.3476563,-1.2539063 -1.9335938,-1.2539063 -0.6914062,0 -1.546875,0.3398438 -1.98046874,1.3359375 -0.33984375,0.75 -0.45703125,1.4882813 -0.45703125,2.7890625 0,1.1601563 0.0820312,2.0273438 0.51562499,2.8710938 0.4570313,0.9140625 1.2890625,1.1953125 1.9101563,1.1953125 1.0429687,0 1.640625,-0.62109375 1.9804687,-1.3125 0.4335938,-0.890625 0.4570313,-2.0625 0.4570313,-2.7539063 z m -2.4375,3.8320313 c -0.3867188,0 -1.1601563,-0.2109375 -1.3828125,-1.5234375 -0.140625,-0.7148438 -0.140625,-1.6171875 -0.140625,-2.4609375 0,-0.9726563 0,-1.8632813 0.1992187,-2.5664063 0.1992188,-0.796875 0.8085938,-1.171875 1.3242188,-1.171875 0.4570312,0 1.1484375,0.28125 1.3710937,1.3007813 0.1523438,0.6796875 0.1523438,1.6289062 0.1523438,2.4375 0,0.8085937 0,1.7109375 -0.1289063,2.4375 -0.2226562,1.32421875 -0.9726562,1.546875 -1.3945312,1.546875 z m 0,0"
       style="fill:#000000;fill-opacity:1;fill-rule:nonzero;stroke:none"
       aria-label="0"
       transform="matrix(1.3333333,0,0,1.3333333,71.932,169.07867)"
       clip-path="url(#clipPath46)" />
  </g>
</svg>
